G04 #@! TF.GenerationSoftware,KiCad,Pcbnew,5.1.9-1.fc33*
G04 #@! TF.CreationDate,2021-04-25T00:59:44+02:00*
G04 #@! TF.ProjectId,reDIP-SID,72654449-502d-4534-9944-2e6b69636164,0.2*
G04 #@! TF.SameCoordinates,PX5e28010PY8011a50*
G04 #@! TF.FileFunction,Copper,L1,Top*
G04 #@! TF.FilePolarity,Positive*
%FSLAX46Y46*%
G04 Gerber Fmt 4.6, Leading zero omitted, Abs format (unit mm)*
G04 Created by KiCad (PCBNEW 5.1.9-1.fc33) date 2021-04-25 00:59:44*
%MOMM*%
%LPD*%
G01*
G04 APERTURE LIST*
G04 #@! TA.AperFunction,ComponentPad*
%ADD10O,1.000000X2.100000*%
G04 #@! TD*
G04 #@! TA.AperFunction,ComponentPad*
%ADD11O,1.000000X1.600000*%
G04 #@! TD*
G04 #@! TA.AperFunction,SMDPad,CuDef*
%ADD12R,3.400000X4.300000*%
G04 #@! TD*
G04 #@! TA.AperFunction,SMDPad,CuDef*
%ADD13C,0.100000*%
G04 #@! TD*
G04 #@! TA.AperFunction,ComponentPad*
%ADD14C,1.600000*%
G04 #@! TD*
G04 #@! TA.AperFunction,ViaPad*
%ADD15C,0.450000*%
G04 #@! TD*
G04 #@! TA.AperFunction,Conductor*
%ADD16C,0.200000*%
G04 #@! TD*
G04 #@! TA.AperFunction,Conductor*
%ADD17C,0.250000*%
G04 #@! TD*
G04 #@! TA.AperFunction,Conductor*
%ADD18C,0.150000*%
G04 #@! TD*
G04 #@! TA.AperFunction,Conductor*
%ADD19C,0.100000*%
G04 #@! TD*
G04 APERTURE END LIST*
G04 #@! TA.AperFunction,SMDPad,CuDef*
G36*
G01*
X11050000Y26600000D02*
X11550000Y26600000D01*
G75*
G02*
X11600000Y26550000I0J-50000D01*
G01*
X11600000Y26150000D01*
G75*
G02*
X11550000Y26100000I-50000J0D01*
G01*
X11050000Y26100000D01*
G75*
G02*
X11000000Y26150000I0J50000D01*
G01*
X11000000Y26550000D01*
G75*
G02*
X11050000Y26600000I50000J0D01*
G01*
G37*
G04 #@! TD.AperFunction*
G04 #@! TA.AperFunction,SMDPad,CuDef*
G36*
G01*
X9950000Y26600000D02*
X10450000Y26600000D01*
G75*
G02*
X10500000Y26550000I0J-50000D01*
G01*
X10500000Y26150000D01*
G75*
G02*
X10450000Y26100000I-50000J0D01*
G01*
X9950000Y26100000D01*
G75*
G02*
X9900000Y26150000I0J50000D01*
G01*
X9900000Y26550000D01*
G75*
G02*
X9950000Y26600000I50000J0D01*
G01*
G37*
G04 #@! TD.AperFunction*
G04 #@! TA.AperFunction,SMDPad,CuDef*
G36*
G01*
X9950000Y27400000D02*
X10450000Y27400000D01*
G75*
G02*
X10500000Y27350000I0J-50000D01*
G01*
X10500000Y26950000D01*
G75*
G02*
X10450000Y26900000I-50000J0D01*
G01*
X9950000Y26900000D01*
G75*
G02*
X9900000Y26950000I0J50000D01*
G01*
X9900000Y27350000D01*
G75*
G02*
X9950000Y27400000I50000J0D01*
G01*
G37*
G04 #@! TD.AperFunction*
G04 #@! TA.AperFunction,SMDPad,CuDef*
G36*
G01*
X11050000Y27400000D02*
X11550000Y27400000D01*
G75*
G02*
X11600000Y27350000I0J-50000D01*
G01*
X11600000Y26950000D01*
G75*
G02*
X11550000Y26900000I-50000J0D01*
G01*
X11050000Y26900000D01*
G75*
G02*
X11000000Y26950000I0J50000D01*
G01*
X11000000Y27350000D01*
G75*
G02*
X11050000Y27400000I50000J0D01*
G01*
G37*
G04 #@! TD.AperFunction*
G04 #@! TA.AperFunction,SMDPad,CuDef*
G36*
G01*
X14255000Y14070000D02*
X12865000Y14070000D01*
G75*
G02*
X12810000Y14125000I0J55000D01*
G01*
X12810000Y14565000D01*
G75*
G02*
X12865000Y14620000I55000J0D01*
G01*
X14255000Y14620000D01*
G75*
G02*
X14310000Y14565000I0J-55000D01*
G01*
X14310000Y14125000D01*
G75*
G02*
X14255000Y14070000I-55000J0D01*
G01*
G37*
G04 #@! TD.AperFunction*
G04 #@! TA.AperFunction,SMDPad,CuDef*
G36*
G01*
X14255000Y10820000D02*
X12865000Y10820000D01*
G75*
G02*
X12810000Y10875000I0J55000D01*
G01*
X12810000Y11315000D01*
G75*
G02*
X12865000Y11370000I55000J0D01*
G01*
X14255000Y11370000D01*
G75*
G02*
X14310000Y11315000I0J-55000D01*
G01*
X14310000Y10875000D01*
G75*
G02*
X14255000Y10820000I-55000J0D01*
G01*
G37*
G04 #@! TD.AperFunction*
G04 #@! TA.AperFunction,SMDPad,CuDef*
G36*
G01*
X3887072Y19234350D02*
X3745650Y19092928D01*
G75*
G02*
X3604228Y19092928I-70711J70711D01*
G01*
X3420380Y19276776D01*
G75*
G02*
X3420380Y19418198I70711J70711D01*
G01*
X3561802Y19559620D01*
G75*
G02*
X3703224Y19559620I70711J-70711D01*
G01*
X3887072Y19375772D01*
G75*
G02*
X3887072Y19234350I-70711J-70711D01*
G01*
G37*
G04 #@! TD.AperFunction*
G04 #@! TA.AperFunction,SMDPad,CuDef*
G36*
G01*
X4339620Y18781802D02*
X4198198Y18640380D01*
G75*
G02*
X4056776Y18640380I-70711J70711D01*
G01*
X3872928Y18824228D01*
G75*
G02*
X3872928Y18965650I70711J70711D01*
G01*
X4014350Y19107072D01*
G75*
G02*
X4155772Y19107072I70711J-70711D01*
G01*
X4339620Y18923224D01*
G75*
G02*
X4339620Y18781802I-70711J-70711D01*
G01*
G37*
G04 #@! TD.AperFunction*
G04 #@! TA.AperFunction,SMDPad,CuDef*
G36*
G01*
X3387072Y16594350D02*
X3245650Y16452928D01*
G75*
G02*
X3104228Y16452928I-70711J70711D01*
G01*
X2920380Y16636776D01*
G75*
G02*
X2920380Y16778198I70711J70711D01*
G01*
X3061802Y16919620D01*
G75*
G02*
X3203224Y16919620I70711J-70711D01*
G01*
X3387072Y16735772D01*
G75*
G02*
X3387072Y16594350I-70711J-70711D01*
G01*
G37*
G04 #@! TD.AperFunction*
G04 #@! TA.AperFunction,SMDPad,CuDef*
G36*
G01*
X3839620Y16141802D02*
X3698198Y16000380D01*
G75*
G02*
X3556776Y16000380I-70711J70711D01*
G01*
X3372928Y16184228D01*
G75*
G02*
X3372928Y16325650I70711J70711D01*
G01*
X3514350Y16467072D01*
G75*
G02*
X3655772Y16467072I70711J-70711D01*
G01*
X3839620Y16283224D01*
G75*
G02*
X3839620Y16141802I-70711J-70711D01*
G01*
G37*
G04 #@! TD.AperFunction*
G04 #@! TA.AperFunction,SMDPad,CuDef*
G36*
G01*
X6455650Y22637072D02*
X6597072Y22495650D01*
G75*
G02*
X6597072Y22354228I-70711J-70711D01*
G01*
X6413224Y22170380D01*
G75*
G02*
X6271802Y22170380I-70711J70711D01*
G01*
X6130380Y22311802D01*
G75*
G02*
X6130380Y22453224I70711J70711D01*
G01*
X6314228Y22637072D01*
G75*
G02*
X6455650Y22637072I70711J-70711D01*
G01*
G37*
G04 #@! TD.AperFunction*
G04 #@! TA.AperFunction,SMDPad,CuDef*
G36*
G01*
X6908198Y23089620D02*
X7049620Y22948198D01*
G75*
G02*
X7049620Y22806776I-70711J-70711D01*
G01*
X6865772Y22622928D01*
G75*
G02*
X6724350Y22622928I-70711J70711D01*
G01*
X6582928Y22764350D01*
G75*
G02*
X6582928Y22905772I70711J70711D01*
G01*
X6766776Y23089620D01*
G75*
G02*
X6908198Y23089620I70711J-70711D01*
G01*
G37*
G04 #@! TD.AperFunction*
G04 #@! TA.AperFunction,SMDPad,CuDef*
G36*
G01*
X5940000Y29525000D02*
X5940000Y28225000D01*
G75*
G02*
X5865000Y28150000I-75000J0D01*
G01*
X5415000Y28150000D01*
G75*
G02*
X5340000Y28225000I0J75000D01*
G01*
X5340000Y29525000D01*
G75*
G02*
X5415000Y29600000I75000J0D01*
G01*
X5865000Y29600000D01*
G75*
G02*
X5940000Y29525000I0J-75000D01*
G01*
G37*
G04 #@! TD.AperFunction*
G04 #@! TA.AperFunction,SMDPad,CuDef*
G36*
G01*
X6740000Y29525000D02*
X6740000Y28225000D01*
G75*
G02*
X6665000Y28150000I-75000J0D01*
G01*
X6215000Y28150000D01*
G75*
G02*
X6140000Y28225000I0J75000D01*
G01*
X6140000Y29525000D01*
G75*
G02*
X6215000Y29600000I75000J0D01*
G01*
X6665000Y29600000D01*
G75*
G02*
X6740000Y29525000I0J-75000D01*
G01*
G37*
G04 #@! TD.AperFunction*
G04 #@! TA.AperFunction,SMDPad,CuDef*
G36*
G01*
X11640000Y29525000D02*
X11640000Y28225000D01*
G75*
G02*
X11565000Y28150000I-75000J0D01*
G01*
X11115000Y28150000D01*
G75*
G02*
X11040000Y28225000I0J75000D01*
G01*
X11040000Y29525000D01*
G75*
G02*
X11115000Y29600000I75000J0D01*
G01*
X11565000Y29600000D01*
G75*
G02*
X11640000Y29525000I0J-75000D01*
G01*
G37*
G04 #@! TD.AperFunction*
G04 #@! TA.AperFunction,SMDPad,CuDef*
G36*
G01*
X12440000Y29525000D02*
X12440000Y28225000D01*
G75*
G02*
X12365000Y28150000I-75000J0D01*
G01*
X11915000Y28150000D01*
G75*
G02*
X11840000Y28225000I0J75000D01*
G01*
X11840000Y29525000D01*
G75*
G02*
X11915000Y29600000I75000J0D01*
G01*
X12365000Y29600000D01*
G75*
G02*
X12440000Y29525000I0J-75000D01*
G01*
G37*
G04 #@! TD.AperFunction*
G04 #@! TA.AperFunction,SMDPad,CuDef*
G36*
G01*
X12440000Y29525000D02*
X12440000Y28225000D01*
G75*
G02*
X12365000Y28150000I-75000J0D01*
G01*
X11915000Y28150000D01*
G75*
G02*
X11840000Y28225000I0J75000D01*
G01*
X11840000Y29525000D01*
G75*
G02*
X11915000Y29600000I75000J0D01*
G01*
X12365000Y29600000D01*
G75*
G02*
X12440000Y29525000I0J-75000D01*
G01*
G37*
G04 #@! TD.AperFunction*
G04 #@! TA.AperFunction,SMDPad,CuDef*
G36*
G01*
X11640000Y29525000D02*
X11640000Y28225000D01*
G75*
G02*
X11565000Y28150000I-75000J0D01*
G01*
X11115000Y28150000D01*
G75*
G02*
X11040000Y28225000I0J75000D01*
G01*
X11040000Y29525000D01*
G75*
G02*
X11115000Y29600000I75000J0D01*
G01*
X11565000Y29600000D01*
G75*
G02*
X11640000Y29525000I0J-75000D01*
G01*
G37*
G04 #@! TD.AperFunction*
G04 #@! TA.AperFunction,SMDPad,CuDef*
G36*
G01*
X6740000Y29525000D02*
X6740000Y28225000D01*
G75*
G02*
X6665000Y28150000I-75000J0D01*
G01*
X6215000Y28150000D01*
G75*
G02*
X6140000Y28225000I0J75000D01*
G01*
X6140000Y29525000D01*
G75*
G02*
X6215000Y29600000I75000J0D01*
G01*
X6665000Y29600000D01*
G75*
G02*
X6740000Y29525000I0J-75000D01*
G01*
G37*
G04 #@! TD.AperFunction*
G04 #@! TA.AperFunction,SMDPad,CuDef*
G36*
G01*
X5940000Y29525000D02*
X5940000Y28225000D01*
G75*
G02*
X5865000Y28150000I-75000J0D01*
G01*
X5415000Y28150000D01*
G75*
G02*
X5340000Y28225000I0J75000D01*
G01*
X5340000Y29525000D01*
G75*
G02*
X5415000Y29600000I75000J0D01*
G01*
X5865000Y29600000D01*
G75*
G02*
X5940000Y29525000I0J-75000D01*
G01*
G37*
G04 #@! TD.AperFunction*
G04 #@! TA.AperFunction,SMDPad,CuDef*
G36*
G01*
X10790000Y29525000D02*
X10790000Y28225000D01*
G75*
G02*
X10715000Y28150000I-75000J0D01*
G01*
X10565000Y28150000D01*
G75*
G02*
X10490000Y28225000I0J75000D01*
G01*
X10490000Y29525000D01*
G75*
G02*
X10565000Y29600000I75000J0D01*
G01*
X10715000Y29600000D01*
G75*
G02*
X10790000Y29525000I0J-75000D01*
G01*
G37*
G04 #@! TD.AperFunction*
G04 #@! TA.AperFunction,SMDPad,CuDef*
G36*
G01*
X10290000Y29525000D02*
X10290000Y28225000D01*
G75*
G02*
X10215000Y28150000I-75000J0D01*
G01*
X10065000Y28150000D01*
G75*
G02*
X9990000Y28225000I0J75000D01*
G01*
X9990000Y29525000D01*
G75*
G02*
X10065000Y29600000I75000J0D01*
G01*
X10215000Y29600000D01*
G75*
G02*
X10290000Y29525000I0J-75000D01*
G01*
G37*
G04 #@! TD.AperFunction*
G04 #@! TA.AperFunction,SMDPad,CuDef*
G36*
G01*
X9790000Y29525000D02*
X9790000Y28225000D01*
G75*
G02*
X9715000Y28150000I-75000J0D01*
G01*
X9565000Y28150000D01*
G75*
G02*
X9490000Y28225000I0J75000D01*
G01*
X9490000Y29525000D01*
G75*
G02*
X9565000Y29600000I75000J0D01*
G01*
X9715000Y29600000D01*
G75*
G02*
X9790000Y29525000I0J-75000D01*
G01*
G37*
G04 #@! TD.AperFunction*
G04 #@! TA.AperFunction,SMDPad,CuDef*
G36*
G01*
X8790000Y29525000D02*
X8790000Y28225000D01*
G75*
G02*
X8715000Y28150000I-75000J0D01*
G01*
X8565000Y28150000D01*
G75*
G02*
X8490000Y28225000I0J75000D01*
G01*
X8490000Y29525000D01*
G75*
G02*
X8565000Y29600000I75000J0D01*
G01*
X8715000Y29600000D01*
G75*
G02*
X8790000Y29525000I0J-75000D01*
G01*
G37*
G04 #@! TD.AperFunction*
G04 #@! TA.AperFunction,SMDPad,CuDef*
G36*
G01*
X8290000Y29525000D02*
X8290000Y28225000D01*
G75*
G02*
X8215000Y28150000I-75000J0D01*
G01*
X8065000Y28150000D01*
G75*
G02*
X7990000Y28225000I0J75000D01*
G01*
X7990000Y29525000D01*
G75*
G02*
X8065000Y29600000I75000J0D01*
G01*
X8215000Y29600000D01*
G75*
G02*
X8290000Y29525000I0J-75000D01*
G01*
G37*
G04 #@! TD.AperFunction*
G04 #@! TA.AperFunction,SMDPad,CuDef*
G36*
G01*
X7790000Y29525000D02*
X7790000Y28225000D01*
G75*
G02*
X7715000Y28150000I-75000J0D01*
G01*
X7565000Y28150000D01*
G75*
G02*
X7490000Y28225000I0J75000D01*
G01*
X7490000Y29525000D01*
G75*
G02*
X7565000Y29600000I75000J0D01*
G01*
X7715000Y29600000D01*
G75*
G02*
X7790000Y29525000I0J-75000D01*
G01*
G37*
G04 #@! TD.AperFunction*
G04 #@! TA.AperFunction,SMDPad,CuDef*
G36*
G01*
X7290000Y29525000D02*
X7290000Y28225000D01*
G75*
G02*
X7215000Y28150000I-75000J0D01*
G01*
X7065000Y28150000D01*
G75*
G02*
X6990000Y28225000I0J75000D01*
G01*
X6990000Y29525000D01*
G75*
G02*
X7065000Y29600000I75000J0D01*
G01*
X7215000Y29600000D01*
G75*
G02*
X7290000Y29525000I0J-75000D01*
G01*
G37*
G04 #@! TD.AperFunction*
G04 #@! TA.AperFunction,SMDPad,CuDef*
G36*
G01*
X9290000Y29525000D02*
X9290000Y28225000D01*
G75*
G02*
X9215000Y28150000I-75000J0D01*
G01*
X9065000Y28150000D01*
G75*
G02*
X8990000Y28225000I0J75000D01*
G01*
X8990000Y29525000D01*
G75*
G02*
X9065000Y29600000I75000J0D01*
G01*
X9215000Y29600000D01*
G75*
G02*
X9290000Y29525000I0J-75000D01*
G01*
G37*
G04 #@! TD.AperFunction*
D10*
X4570000Y29790000D03*
X13210000Y29790000D03*
D11*
X13210000Y33970000D03*
X4570000Y33970000D03*
G04 #@! TA.AperFunction,SMDPad,CuDef*
G36*
G01*
X14752500Y9455000D02*
X14407500Y9455000D01*
G75*
G02*
X14380000Y9482500I0J27500D01*
G01*
X14380000Y9702500D01*
G75*
G02*
X14407500Y9730000I27500J0D01*
G01*
X14752500Y9730000D01*
G75*
G02*
X14780000Y9702500I0J-27500D01*
G01*
X14780000Y9482500D01*
G75*
G02*
X14752500Y9455000I-27500J0D01*
G01*
G37*
G04 #@! TD.AperFunction*
G04 #@! TA.AperFunction,SMDPad,CuDef*
G36*
G01*
X14752500Y8930000D02*
X14407500Y8930000D01*
G75*
G02*
X14380000Y8957500I0J27500D01*
G01*
X14380000Y9177500D01*
G75*
G02*
X14407500Y9205000I27500J0D01*
G01*
X14752500Y9205000D01*
G75*
G02*
X14780000Y9177500I0J-27500D01*
G01*
X14780000Y8957500D01*
G75*
G02*
X14752500Y8930000I-27500J0D01*
G01*
G37*
G04 #@! TD.AperFunction*
G04 #@! TA.AperFunction,SMDPad,CuDef*
G36*
G01*
X14407500Y6705000D02*
X14752500Y6705000D01*
G75*
G02*
X14780000Y6677500I0J-27500D01*
G01*
X14780000Y6457500D01*
G75*
G02*
X14752500Y6430000I-27500J0D01*
G01*
X14407500Y6430000D01*
G75*
G02*
X14380000Y6457500I0J27500D01*
G01*
X14380000Y6677500D01*
G75*
G02*
X14407500Y6705000I27500J0D01*
G01*
G37*
G04 #@! TD.AperFunction*
G04 #@! TA.AperFunction,SMDPad,CuDef*
G36*
G01*
X14407500Y7230000D02*
X14752500Y7230000D01*
G75*
G02*
X14780000Y7202500I0J-27500D01*
G01*
X14780000Y6982500D01*
G75*
G02*
X14752500Y6955000I-27500J0D01*
G01*
X14407500Y6955000D01*
G75*
G02*
X14380000Y6982500I0J27500D01*
G01*
X14380000Y7202500D01*
G75*
G02*
X14407500Y7230000I27500J0D01*
G01*
G37*
G04 #@! TD.AperFunction*
G04 #@! TA.AperFunction,SMDPad,CuDef*
G36*
G01*
X12940000Y10100000D02*
X12940000Y10300000D01*
G75*
G02*
X13040000Y10400000I100000J0D01*
G01*
X13300000Y10400000D01*
G75*
G02*
X13400000Y10300000I0J-100000D01*
G01*
X13400000Y10100000D01*
G75*
G02*
X13300000Y10000000I-100000J0D01*
G01*
X13040000Y10000000D01*
G75*
G02*
X12940000Y10100000I0J100000D01*
G01*
G37*
G04 #@! TD.AperFunction*
G04 #@! TA.AperFunction,SMDPad,CuDef*
G36*
G01*
X13580000Y10100000D02*
X13580000Y10300000D01*
G75*
G02*
X13680000Y10400000I100000J0D01*
G01*
X13940000Y10400000D01*
G75*
G02*
X14040000Y10300000I0J-100000D01*
G01*
X14040000Y10100000D01*
G75*
G02*
X13940000Y10000000I-100000J0D01*
G01*
X13680000Y10000000D01*
G75*
G02*
X13580000Y10100000I0J100000D01*
G01*
G37*
G04 #@! TD.AperFunction*
G04 #@! TA.AperFunction,SMDPad,CuDef*
G36*
G01*
X7224350Y22132928D02*
X7082928Y22274350D01*
G75*
G02*
X7082928Y22415772I70711J70711D01*
G01*
X7266776Y22599620D01*
G75*
G02*
X7408198Y22599620I70711J-70711D01*
G01*
X7549620Y22458198D01*
G75*
G02*
X7549620Y22316776I-70711J-70711D01*
G01*
X7365772Y22132928D01*
G75*
G02*
X7224350Y22132928I-70711J70711D01*
G01*
G37*
G04 #@! TD.AperFunction*
G04 #@! TA.AperFunction,SMDPad,CuDef*
G36*
G01*
X6771802Y21680380D02*
X6630380Y21821802D01*
G75*
G02*
X6630380Y21963224I70711J70711D01*
G01*
X6814228Y22147072D01*
G75*
G02*
X6955650Y22147072I70711J-70711D01*
G01*
X7097072Y22005650D01*
G75*
G02*
X7097072Y21864228I-70711J-70711D01*
G01*
X6913224Y21680380D01*
G75*
G02*
X6771802Y21680380I-70711J70711D01*
G01*
G37*
G04 #@! TD.AperFunction*
D12*
X8890000Y8360000D03*
G04 #@! TA.AperFunction,SMDPad,CuDef*
G36*
G01*
X11215000Y10140000D02*
X11215000Y10390000D01*
G75*
G02*
X11340000Y10515000I125000J0D01*
G01*
X11840000Y10515000D01*
G75*
G02*
X11965000Y10390000I0J-125000D01*
G01*
X11965000Y10140000D01*
G75*
G02*
X11840000Y10015000I-125000J0D01*
G01*
X11340000Y10015000D01*
G75*
G02*
X11215000Y10140000I0J125000D01*
G01*
G37*
G04 #@! TD.AperFunction*
G04 #@! TA.AperFunction,SMDPad,CuDef*
G36*
G01*
X11215000Y8870000D02*
X11215000Y9120000D01*
G75*
G02*
X11340000Y9245000I125000J0D01*
G01*
X11840000Y9245000D01*
G75*
G02*
X11965000Y9120000I0J-125000D01*
G01*
X11965000Y8870000D01*
G75*
G02*
X11840000Y8745000I-125000J0D01*
G01*
X11340000Y8745000D01*
G75*
G02*
X11215000Y8870000I0J125000D01*
G01*
G37*
G04 #@! TD.AperFunction*
G04 #@! TA.AperFunction,SMDPad,CuDef*
G36*
G01*
X11215000Y7600000D02*
X11215000Y7850000D01*
G75*
G02*
X11340000Y7975000I125000J0D01*
G01*
X11840000Y7975000D01*
G75*
G02*
X11965000Y7850000I0J-125000D01*
G01*
X11965000Y7600000D01*
G75*
G02*
X11840000Y7475000I-125000J0D01*
G01*
X11340000Y7475000D01*
G75*
G02*
X11215000Y7600000I0J125000D01*
G01*
G37*
G04 #@! TD.AperFunction*
G04 #@! TA.AperFunction,SMDPad,CuDef*
G36*
G01*
X11215000Y6330000D02*
X11215000Y6580000D01*
G75*
G02*
X11340000Y6705000I125000J0D01*
G01*
X11840000Y6705000D01*
G75*
G02*
X11965000Y6580000I0J-125000D01*
G01*
X11965000Y6330000D01*
G75*
G02*
X11840000Y6205000I-125000J0D01*
G01*
X11340000Y6205000D01*
G75*
G02*
X11215000Y6330000I0J125000D01*
G01*
G37*
G04 #@! TD.AperFunction*
G04 #@! TA.AperFunction,SMDPad,CuDef*
G36*
G01*
X5815000Y6330000D02*
X5815000Y6580000D01*
G75*
G02*
X5940000Y6705000I125000J0D01*
G01*
X6440000Y6705000D01*
G75*
G02*
X6565000Y6580000I0J-125000D01*
G01*
X6565000Y6330000D01*
G75*
G02*
X6440000Y6205000I-125000J0D01*
G01*
X5940000Y6205000D01*
G75*
G02*
X5815000Y6330000I0J125000D01*
G01*
G37*
G04 #@! TD.AperFunction*
G04 #@! TA.AperFunction,SMDPad,CuDef*
G36*
G01*
X5815000Y7600000D02*
X5815000Y7850000D01*
G75*
G02*
X5940000Y7975000I125000J0D01*
G01*
X6440000Y7975000D01*
G75*
G02*
X6565000Y7850000I0J-125000D01*
G01*
X6565000Y7600000D01*
G75*
G02*
X6440000Y7475000I-125000J0D01*
G01*
X5940000Y7475000D01*
G75*
G02*
X5815000Y7600000I0J125000D01*
G01*
G37*
G04 #@! TD.AperFunction*
G04 #@! TA.AperFunction,SMDPad,CuDef*
G36*
G01*
X5815000Y8870000D02*
X5815000Y9120000D01*
G75*
G02*
X5940000Y9245000I125000J0D01*
G01*
X6440000Y9245000D01*
G75*
G02*
X6565000Y9120000I0J-125000D01*
G01*
X6565000Y8870000D01*
G75*
G02*
X6440000Y8745000I-125000J0D01*
G01*
X5940000Y8745000D01*
G75*
G02*
X5815000Y8870000I0J125000D01*
G01*
G37*
G04 #@! TD.AperFunction*
G04 #@! TA.AperFunction,SMDPad,CuDef*
G36*
G01*
X5815000Y10140000D02*
X5815000Y10390000D01*
G75*
G02*
X5940000Y10515000I125000J0D01*
G01*
X6440000Y10515000D01*
G75*
G02*
X6565000Y10390000I0J-125000D01*
G01*
X6565000Y10140000D01*
G75*
G02*
X6440000Y10015000I-125000J0D01*
G01*
X5940000Y10015000D01*
G75*
G02*
X5815000Y10140000I0J125000D01*
G01*
G37*
G04 #@! TD.AperFunction*
G04 #@! TA.AperFunction,SMDPad,CuDef*
G36*
G01*
X12940000Y5860000D02*
X12940000Y6060000D01*
G75*
G02*
X13040000Y6160000I100000J0D01*
G01*
X13300000Y6160000D01*
G75*
G02*
X13400000Y6060000I0J-100000D01*
G01*
X13400000Y5860000D01*
G75*
G02*
X13300000Y5760000I-100000J0D01*
G01*
X13040000Y5760000D01*
G75*
G02*
X12940000Y5860000I0J100000D01*
G01*
G37*
G04 #@! TD.AperFunction*
G04 #@! TA.AperFunction,SMDPad,CuDef*
G36*
G01*
X13580000Y5860000D02*
X13580000Y6060000D01*
G75*
G02*
X13680000Y6160000I100000J0D01*
G01*
X13940000Y6160000D01*
G75*
G02*
X14040000Y6060000I0J-100000D01*
G01*
X14040000Y5860000D01*
G75*
G02*
X13940000Y5760000I-100000J0D01*
G01*
X13680000Y5760000D01*
G75*
G02*
X13580000Y5860000I0J100000D01*
G01*
G37*
G04 #@! TD.AperFunction*
G04 #@! TA.AperFunction,SMDPad,CuDef*
D13*
G36*
X7050000Y25170000D02*
G01*
X6900000Y25320000D01*
X6900000Y25420000D01*
X7250000Y25420000D01*
X7250000Y25170000D01*
X7050000Y25170000D01*
G37*
G04 #@! TD.AperFunction*
G04 #@! TA.AperFunction,SMDPad,CuDef*
G36*
X7050000Y24770000D02*
G01*
X7250000Y24770000D01*
X7250000Y24520000D01*
X6900000Y24520000D01*
X6900000Y24620000D01*
X7050000Y24770000D01*
G37*
G04 #@! TD.AperFunction*
G04 #@! TA.AperFunction,SMDPad,CuDef*
G36*
X6250000Y25170000D02*
G01*
X6050000Y25170000D01*
X6050000Y25420000D01*
X6400000Y25420000D01*
X6400000Y25320000D01*
X6250000Y25170000D01*
G37*
G04 #@! TD.AperFunction*
G04 #@! TA.AperFunction,SMDPad,CuDef*
G36*
X6250000Y24770000D02*
G01*
X6400000Y24620000D01*
X6400000Y24520000D01*
X6050000Y24520000D01*
X6050000Y24770000D01*
X6250000Y24770000D01*
G37*
G04 #@! TD.AperFunction*
G04 #@! TA.AperFunction,SMDPad,CuDef*
G36*
X6650000Y24630589D02*
G01*
X6310589Y24970000D01*
X6650000Y25309411D01*
X6989411Y24970000D01*
X6650000Y24630589D01*
G37*
G04 #@! TD.AperFunction*
G04 #@! TA.AperFunction,SMDPad,CuDef*
G36*
X4750000Y25170000D02*
G01*
X4600000Y25320000D01*
X4600000Y25420000D01*
X4950000Y25420000D01*
X4950000Y25170000D01*
X4750000Y25170000D01*
G37*
G04 #@! TD.AperFunction*
G04 #@! TA.AperFunction,SMDPad,CuDef*
G36*
X4750000Y24770000D02*
G01*
X4950000Y24770000D01*
X4950000Y24520000D01*
X4600000Y24520000D01*
X4600000Y24620000D01*
X4750000Y24770000D01*
G37*
G04 #@! TD.AperFunction*
G04 #@! TA.AperFunction,SMDPad,CuDef*
G36*
X3950000Y25170000D02*
G01*
X3750000Y25170000D01*
X3750000Y25420000D01*
X4100000Y25420000D01*
X4100000Y25320000D01*
X3950000Y25170000D01*
G37*
G04 #@! TD.AperFunction*
G04 #@! TA.AperFunction,SMDPad,CuDef*
G36*
X3950000Y24770000D02*
G01*
X4100000Y24620000D01*
X4100000Y24520000D01*
X3750000Y24520000D01*
X3750000Y24770000D01*
X3950000Y24770000D01*
G37*
G04 #@! TD.AperFunction*
G04 #@! TA.AperFunction,SMDPad,CuDef*
G36*
X4350000Y24630589D02*
G01*
X4010589Y24970000D01*
X4350000Y25309411D01*
X4689411Y24970000D01*
X4350000Y24630589D01*
G37*
G04 #@! TD.AperFunction*
G04 #@! TA.AperFunction,SMDPad,CuDef*
G36*
X8890000Y21239798D02*
G01*
X12849798Y17280000D01*
X8890000Y13320202D01*
X4930202Y17280000D01*
X8890000Y21239798D01*
G37*
G04 #@! TD.AperFunction*
G04 #@! TA.AperFunction,SMDPad,CuDef*
G36*
G01*
X13088446Y17147417D02*
X13618776Y16617087D01*
G75*
G02*
X13618776Y16528699I-44194J-44194D01*
G01*
X13530388Y16440311D01*
G75*
G02*
X13442000Y16440311I-44194J44194D01*
G01*
X12911670Y16970641D01*
G75*
G02*
X12911670Y17059029I44194J44194D01*
G01*
X13000058Y17147417D01*
G75*
G02*
X13088446Y17147417I44194J-44194D01*
G01*
G37*
G04 #@! TD.AperFunction*
G04 #@! TA.AperFunction,SMDPad,CuDef*
G36*
G01*
X12734893Y16793864D02*
X13265223Y16263534D01*
G75*
G02*
X13265223Y16175146I-44194J-44194D01*
G01*
X13176835Y16086758D01*
G75*
G02*
X13088447Y16086758I-44194J44194D01*
G01*
X12558117Y16617088D01*
G75*
G02*
X12558117Y16705476I44194J44194D01*
G01*
X12646505Y16793864D01*
G75*
G02*
X12734893Y16793864I44194J-44194D01*
G01*
G37*
G04 #@! TD.AperFunction*
G04 #@! TA.AperFunction,SMDPad,CuDef*
G36*
G01*
X12381339Y16440310D02*
X12911669Y15909980D01*
G75*
G02*
X12911669Y15821592I-44194J-44194D01*
G01*
X12823281Y15733204D01*
G75*
G02*
X12734893Y15733204I-44194J44194D01*
G01*
X12204563Y16263534D01*
G75*
G02*
X12204563Y16351922I44194J44194D01*
G01*
X12292951Y16440310D01*
G75*
G02*
X12381339Y16440310I44194J-44194D01*
G01*
G37*
G04 #@! TD.AperFunction*
G04 #@! TA.AperFunction,SMDPad,CuDef*
G36*
G01*
X12027786Y16086757D02*
X12558116Y15556427D01*
G75*
G02*
X12558116Y15468039I-44194J-44194D01*
G01*
X12469728Y15379651D01*
G75*
G02*
X12381340Y15379651I-44194J44194D01*
G01*
X11851010Y15909981D01*
G75*
G02*
X11851010Y15998369I44194J44194D01*
G01*
X11939398Y16086757D01*
G75*
G02*
X12027786Y16086757I44194J-44194D01*
G01*
G37*
G04 #@! TD.AperFunction*
G04 #@! TA.AperFunction,SMDPad,CuDef*
G36*
G01*
X11674233Y15733204D02*
X12204563Y15202874D01*
G75*
G02*
X12204563Y15114486I-44194J-44194D01*
G01*
X12116175Y15026098D01*
G75*
G02*
X12027787Y15026098I-44194J44194D01*
G01*
X11497457Y15556428D01*
G75*
G02*
X11497457Y15644816I44194J44194D01*
G01*
X11585845Y15733204D01*
G75*
G02*
X11674233Y15733204I44194J-44194D01*
G01*
G37*
G04 #@! TD.AperFunction*
G04 #@! TA.AperFunction,SMDPad,CuDef*
G36*
G01*
X11320679Y15379650D02*
X11851009Y14849320D01*
G75*
G02*
X11851009Y14760932I-44194J-44194D01*
G01*
X11762621Y14672544D01*
G75*
G02*
X11674233Y14672544I-44194J44194D01*
G01*
X11143903Y15202874D01*
G75*
G02*
X11143903Y15291262I44194J44194D01*
G01*
X11232291Y15379650D01*
G75*
G02*
X11320679Y15379650I44194J-44194D01*
G01*
G37*
G04 #@! TD.AperFunction*
G04 #@! TA.AperFunction,SMDPad,CuDef*
G36*
G01*
X10967126Y15026097D02*
X11497456Y14495767D01*
G75*
G02*
X11497456Y14407379I-44194J-44194D01*
G01*
X11409068Y14318991D01*
G75*
G02*
X11320680Y14318991I-44194J44194D01*
G01*
X10790350Y14849321D01*
G75*
G02*
X10790350Y14937709I44194J44194D01*
G01*
X10878738Y15026097D01*
G75*
G02*
X10967126Y15026097I44194J-44194D01*
G01*
G37*
G04 #@! TD.AperFunction*
G04 #@! TA.AperFunction,SMDPad,CuDef*
G36*
G01*
X10613572Y14672543D02*
X11143902Y14142213D01*
G75*
G02*
X11143902Y14053825I-44194J-44194D01*
G01*
X11055514Y13965437D01*
G75*
G02*
X10967126Y13965437I-44194J44194D01*
G01*
X10436796Y14495767D01*
G75*
G02*
X10436796Y14584155I44194J44194D01*
G01*
X10525184Y14672543D01*
G75*
G02*
X10613572Y14672543I44194J-44194D01*
G01*
G37*
G04 #@! TD.AperFunction*
G04 #@! TA.AperFunction,SMDPad,CuDef*
G36*
G01*
X10260019Y14318990D02*
X10790349Y13788660D01*
G75*
G02*
X10790349Y13700272I-44194J-44194D01*
G01*
X10701961Y13611884D01*
G75*
G02*
X10613573Y13611884I-44194J44194D01*
G01*
X10083243Y14142214D01*
G75*
G02*
X10083243Y14230602I44194J44194D01*
G01*
X10171631Y14318990D01*
G75*
G02*
X10260019Y14318990I44194J-44194D01*
G01*
G37*
G04 #@! TD.AperFunction*
G04 #@! TA.AperFunction,SMDPad,CuDef*
G36*
G01*
X9906466Y13965437D02*
X10436796Y13435107D01*
G75*
G02*
X10436796Y13346719I-44194J-44194D01*
G01*
X10348408Y13258331D01*
G75*
G02*
X10260020Y13258331I-44194J44194D01*
G01*
X9729690Y13788661D01*
G75*
G02*
X9729690Y13877049I44194J44194D01*
G01*
X9818078Y13965437D01*
G75*
G02*
X9906466Y13965437I44194J-44194D01*
G01*
G37*
G04 #@! TD.AperFunction*
G04 #@! TA.AperFunction,SMDPad,CuDef*
G36*
G01*
X9552912Y13611883D02*
X10083242Y13081553D01*
G75*
G02*
X10083242Y12993165I-44194J-44194D01*
G01*
X9994854Y12904777D01*
G75*
G02*
X9906466Y12904777I-44194J44194D01*
G01*
X9376136Y13435107D01*
G75*
G02*
X9376136Y13523495I44194J44194D01*
G01*
X9464524Y13611883D01*
G75*
G02*
X9552912Y13611883I44194J-44194D01*
G01*
G37*
G04 #@! TD.AperFunction*
G04 #@! TA.AperFunction,SMDPad,CuDef*
G36*
G01*
X9199359Y13258330D02*
X9729689Y12728000D01*
G75*
G02*
X9729689Y12639612I-44194J-44194D01*
G01*
X9641301Y12551224D01*
G75*
G02*
X9552913Y12551224I-44194J44194D01*
G01*
X9022583Y13081554D01*
G75*
G02*
X9022583Y13169942I44194J44194D01*
G01*
X9110971Y13258330D01*
G75*
G02*
X9199359Y13258330I44194J-44194D01*
G01*
G37*
G04 #@! TD.AperFunction*
G04 #@! TA.AperFunction,SMDPad,CuDef*
G36*
G01*
X8669029Y13258330D02*
X8757417Y13169942D01*
G75*
G02*
X8757417Y13081554I-44194J-44194D01*
G01*
X8227087Y12551224D01*
G75*
G02*
X8138699Y12551224I-44194J44194D01*
G01*
X8050311Y12639612D01*
G75*
G02*
X8050311Y12728000I44194J44194D01*
G01*
X8580641Y13258330D01*
G75*
G02*
X8669029Y13258330I44194J-44194D01*
G01*
G37*
G04 #@! TD.AperFunction*
G04 #@! TA.AperFunction,SMDPad,CuDef*
G36*
G01*
X8315476Y13611883D02*
X8403864Y13523495D01*
G75*
G02*
X8403864Y13435107I-44194J-44194D01*
G01*
X7873534Y12904777D01*
G75*
G02*
X7785146Y12904777I-44194J44194D01*
G01*
X7696758Y12993165D01*
G75*
G02*
X7696758Y13081553I44194J44194D01*
G01*
X8227088Y13611883D01*
G75*
G02*
X8315476Y13611883I44194J-44194D01*
G01*
G37*
G04 #@! TD.AperFunction*
G04 #@! TA.AperFunction,SMDPad,CuDef*
G36*
G01*
X7961922Y13965437D02*
X8050310Y13877049D01*
G75*
G02*
X8050310Y13788661I-44194J-44194D01*
G01*
X7519980Y13258331D01*
G75*
G02*
X7431592Y13258331I-44194J44194D01*
G01*
X7343204Y13346719D01*
G75*
G02*
X7343204Y13435107I44194J44194D01*
G01*
X7873534Y13965437D01*
G75*
G02*
X7961922Y13965437I44194J-44194D01*
G01*
G37*
G04 #@! TD.AperFunction*
G04 #@! TA.AperFunction,SMDPad,CuDef*
G36*
G01*
X7608369Y14318990D02*
X7696757Y14230602D01*
G75*
G02*
X7696757Y14142214I-44194J-44194D01*
G01*
X7166427Y13611884D01*
G75*
G02*
X7078039Y13611884I-44194J44194D01*
G01*
X6989651Y13700272D01*
G75*
G02*
X6989651Y13788660I44194J44194D01*
G01*
X7519981Y14318990D01*
G75*
G02*
X7608369Y14318990I44194J-44194D01*
G01*
G37*
G04 #@! TD.AperFunction*
G04 #@! TA.AperFunction,SMDPad,CuDef*
G36*
G01*
X7254816Y14672543D02*
X7343204Y14584155D01*
G75*
G02*
X7343204Y14495767I-44194J-44194D01*
G01*
X6812874Y13965437D01*
G75*
G02*
X6724486Y13965437I-44194J44194D01*
G01*
X6636098Y14053825D01*
G75*
G02*
X6636098Y14142213I44194J44194D01*
G01*
X7166428Y14672543D01*
G75*
G02*
X7254816Y14672543I44194J-44194D01*
G01*
G37*
G04 #@! TD.AperFunction*
G04 #@! TA.AperFunction,SMDPad,CuDef*
G36*
G01*
X6901262Y15026097D02*
X6989650Y14937709D01*
G75*
G02*
X6989650Y14849321I-44194J-44194D01*
G01*
X6459320Y14318991D01*
G75*
G02*
X6370932Y14318991I-44194J44194D01*
G01*
X6282544Y14407379D01*
G75*
G02*
X6282544Y14495767I44194J44194D01*
G01*
X6812874Y15026097D01*
G75*
G02*
X6901262Y15026097I44194J-44194D01*
G01*
G37*
G04 #@! TD.AperFunction*
G04 #@! TA.AperFunction,SMDPad,CuDef*
G36*
G01*
X6547709Y15379650D02*
X6636097Y15291262D01*
G75*
G02*
X6636097Y15202874I-44194J-44194D01*
G01*
X6105767Y14672544D01*
G75*
G02*
X6017379Y14672544I-44194J44194D01*
G01*
X5928991Y14760932D01*
G75*
G02*
X5928991Y14849320I44194J44194D01*
G01*
X6459321Y15379650D01*
G75*
G02*
X6547709Y15379650I44194J-44194D01*
G01*
G37*
G04 #@! TD.AperFunction*
G04 #@! TA.AperFunction,SMDPad,CuDef*
G36*
G01*
X6194155Y15733204D02*
X6282543Y15644816D01*
G75*
G02*
X6282543Y15556428I-44194J-44194D01*
G01*
X5752213Y15026098D01*
G75*
G02*
X5663825Y15026098I-44194J44194D01*
G01*
X5575437Y15114486D01*
G75*
G02*
X5575437Y15202874I44194J44194D01*
G01*
X6105767Y15733204D01*
G75*
G02*
X6194155Y15733204I44194J-44194D01*
G01*
G37*
G04 #@! TD.AperFunction*
G04 #@! TA.AperFunction,SMDPad,CuDef*
G36*
G01*
X5840602Y16086757D02*
X5928990Y15998369D01*
G75*
G02*
X5928990Y15909981I-44194J-44194D01*
G01*
X5398660Y15379651D01*
G75*
G02*
X5310272Y15379651I-44194J44194D01*
G01*
X5221884Y15468039D01*
G75*
G02*
X5221884Y15556427I44194J44194D01*
G01*
X5752214Y16086757D01*
G75*
G02*
X5840602Y16086757I44194J-44194D01*
G01*
G37*
G04 #@! TD.AperFunction*
G04 #@! TA.AperFunction,SMDPad,CuDef*
G36*
G01*
X5487049Y16440310D02*
X5575437Y16351922D01*
G75*
G02*
X5575437Y16263534I-44194J-44194D01*
G01*
X5045107Y15733204D01*
G75*
G02*
X4956719Y15733204I-44194J44194D01*
G01*
X4868331Y15821592D01*
G75*
G02*
X4868331Y15909980I44194J44194D01*
G01*
X5398661Y16440310D01*
G75*
G02*
X5487049Y16440310I44194J-44194D01*
G01*
G37*
G04 #@! TD.AperFunction*
G04 #@! TA.AperFunction,SMDPad,CuDef*
G36*
G01*
X5133495Y16793864D02*
X5221883Y16705476D01*
G75*
G02*
X5221883Y16617088I-44194J-44194D01*
G01*
X4691553Y16086758D01*
G75*
G02*
X4603165Y16086758I-44194J44194D01*
G01*
X4514777Y16175146D01*
G75*
G02*
X4514777Y16263534I44194J44194D01*
G01*
X5045107Y16793864D01*
G75*
G02*
X5133495Y16793864I44194J-44194D01*
G01*
G37*
G04 #@! TD.AperFunction*
G04 #@! TA.AperFunction,SMDPad,CuDef*
G36*
G01*
X4779942Y17147417D02*
X4868330Y17059029D01*
G75*
G02*
X4868330Y16970641I-44194J-44194D01*
G01*
X4338000Y16440311D01*
G75*
G02*
X4249612Y16440311I-44194J44194D01*
G01*
X4161224Y16528699D01*
G75*
G02*
X4161224Y16617087I44194J44194D01*
G01*
X4691554Y17147417D01*
G75*
G02*
X4779942Y17147417I44194J-44194D01*
G01*
G37*
G04 #@! TD.AperFunction*
G04 #@! TA.AperFunction,SMDPad,CuDef*
G36*
G01*
X4338000Y18119689D02*
X4868330Y17589359D01*
G75*
G02*
X4868330Y17500971I-44194J-44194D01*
G01*
X4779942Y17412583D01*
G75*
G02*
X4691554Y17412583I-44194J44194D01*
G01*
X4161224Y17942913D01*
G75*
G02*
X4161224Y18031301I44194J44194D01*
G01*
X4249612Y18119689D01*
G75*
G02*
X4338000Y18119689I44194J-44194D01*
G01*
G37*
G04 #@! TD.AperFunction*
G04 #@! TA.AperFunction,SMDPad,CuDef*
G36*
G01*
X4691553Y18473242D02*
X5221883Y17942912D01*
G75*
G02*
X5221883Y17854524I-44194J-44194D01*
G01*
X5133495Y17766136D01*
G75*
G02*
X5045107Y17766136I-44194J44194D01*
G01*
X4514777Y18296466D01*
G75*
G02*
X4514777Y18384854I44194J44194D01*
G01*
X4603165Y18473242D01*
G75*
G02*
X4691553Y18473242I44194J-44194D01*
G01*
G37*
G04 #@! TD.AperFunction*
G04 #@! TA.AperFunction,SMDPad,CuDef*
G36*
G01*
X5045107Y18826796D02*
X5575437Y18296466D01*
G75*
G02*
X5575437Y18208078I-44194J-44194D01*
G01*
X5487049Y18119690D01*
G75*
G02*
X5398661Y18119690I-44194J44194D01*
G01*
X4868331Y18650020D01*
G75*
G02*
X4868331Y18738408I44194J44194D01*
G01*
X4956719Y18826796D01*
G75*
G02*
X5045107Y18826796I44194J-44194D01*
G01*
G37*
G04 #@! TD.AperFunction*
G04 #@! TA.AperFunction,SMDPad,CuDef*
G36*
G01*
X5398660Y19180349D02*
X5928990Y18650019D01*
G75*
G02*
X5928990Y18561631I-44194J-44194D01*
G01*
X5840602Y18473243D01*
G75*
G02*
X5752214Y18473243I-44194J44194D01*
G01*
X5221884Y19003573D01*
G75*
G02*
X5221884Y19091961I44194J44194D01*
G01*
X5310272Y19180349D01*
G75*
G02*
X5398660Y19180349I44194J-44194D01*
G01*
G37*
G04 #@! TD.AperFunction*
G04 #@! TA.AperFunction,SMDPad,CuDef*
G36*
G01*
X5752213Y19533902D02*
X6282543Y19003572D01*
G75*
G02*
X6282543Y18915184I-44194J-44194D01*
G01*
X6194155Y18826796D01*
G75*
G02*
X6105767Y18826796I-44194J44194D01*
G01*
X5575437Y19357126D01*
G75*
G02*
X5575437Y19445514I44194J44194D01*
G01*
X5663825Y19533902D01*
G75*
G02*
X5752213Y19533902I44194J-44194D01*
G01*
G37*
G04 #@! TD.AperFunction*
G04 #@! TA.AperFunction,SMDPad,CuDef*
G36*
G01*
X6105767Y19887456D02*
X6636097Y19357126D01*
G75*
G02*
X6636097Y19268738I-44194J-44194D01*
G01*
X6547709Y19180350D01*
G75*
G02*
X6459321Y19180350I-44194J44194D01*
G01*
X5928991Y19710680D01*
G75*
G02*
X5928991Y19799068I44194J44194D01*
G01*
X6017379Y19887456D01*
G75*
G02*
X6105767Y19887456I44194J-44194D01*
G01*
G37*
G04 #@! TD.AperFunction*
G04 #@! TA.AperFunction,SMDPad,CuDef*
G36*
G01*
X6459320Y20241009D02*
X6989650Y19710679D01*
G75*
G02*
X6989650Y19622291I-44194J-44194D01*
G01*
X6901262Y19533903D01*
G75*
G02*
X6812874Y19533903I-44194J44194D01*
G01*
X6282544Y20064233D01*
G75*
G02*
X6282544Y20152621I44194J44194D01*
G01*
X6370932Y20241009D01*
G75*
G02*
X6459320Y20241009I44194J-44194D01*
G01*
G37*
G04 #@! TD.AperFunction*
G04 #@! TA.AperFunction,SMDPad,CuDef*
G36*
G01*
X6812874Y20594563D02*
X7343204Y20064233D01*
G75*
G02*
X7343204Y19975845I-44194J-44194D01*
G01*
X7254816Y19887457D01*
G75*
G02*
X7166428Y19887457I-44194J44194D01*
G01*
X6636098Y20417787D01*
G75*
G02*
X6636098Y20506175I44194J44194D01*
G01*
X6724486Y20594563D01*
G75*
G02*
X6812874Y20594563I44194J-44194D01*
G01*
G37*
G04 #@! TD.AperFunction*
G04 #@! TA.AperFunction,SMDPad,CuDef*
G36*
G01*
X7166427Y20948116D02*
X7696757Y20417786D01*
G75*
G02*
X7696757Y20329398I-44194J-44194D01*
G01*
X7608369Y20241010D01*
G75*
G02*
X7519981Y20241010I-44194J44194D01*
G01*
X6989651Y20771340D01*
G75*
G02*
X6989651Y20859728I44194J44194D01*
G01*
X7078039Y20948116D01*
G75*
G02*
X7166427Y20948116I44194J-44194D01*
G01*
G37*
G04 #@! TD.AperFunction*
G04 #@! TA.AperFunction,SMDPad,CuDef*
G36*
G01*
X7519980Y21301669D02*
X8050310Y20771339D01*
G75*
G02*
X8050310Y20682951I-44194J-44194D01*
G01*
X7961922Y20594563D01*
G75*
G02*
X7873534Y20594563I-44194J44194D01*
G01*
X7343204Y21124893D01*
G75*
G02*
X7343204Y21213281I44194J44194D01*
G01*
X7431592Y21301669D01*
G75*
G02*
X7519980Y21301669I44194J-44194D01*
G01*
G37*
G04 #@! TD.AperFunction*
G04 #@! TA.AperFunction,SMDPad,CuDef*
G36*
G01*
X7873534Y21655223D02*
X8403864Y21124893D01*
G75*
G02*
X8403864Y21036505I-44194J-44194D01*
G01*
X8315476Y20948117D01*
G75*
G02*
X8227088Y20948117I-44194J44194D01*
G01*
X7696758Y21478447D01*
G75*
G02*
X7696758Y21566835I44194J44194D01*
G01*
X7785146Y21655223D01*
G75*
G02*
X7873534Y21655223I44194J-44194D01*
G01*
G37*
G04 #@! TD.AperFunction*
G04 #@! TA.AperFunction,SMDPad,CuDef*
G36*
G01*
X8227087Y22008776D02*
X8757417Y21478446D01*
G75*
G02*
X8757417Y21390058I-44194J-44194D01*
G01*
X8669029Y21301670D01*
G75*
G02*
X8580641Y21301670I-44194J44194D01*
G01*
X8050311Y21832000D01*
G75*
G02*
X8050311Y21920388I44194J44194D01*
G01*
X8138699Y22008776D01*
G75*
G02*
X8227087Y22008776I44194J-44194D01*
G01*
G37*
G04 #@! TD.AperFunction*
G04 #@! TA.AperFunction,SMDPad,CuDef*
G36*
G01*
X9641301Y22008776D02*
X9729689Y21920388D01*
G75*
G02*
X9729689Y21832000I-44194J-44194D01*
G01*
X9199359Y21301670D01*
G75*
G02*
X9110971Y21301670I-44194J44194D01*
G01*
X9022583Y21390058D01*
G75*
G02*
X9022583Y21478446I44194J44194D01*
G01*
X9552913Y22008776D01*
G75*
G02*
X9641301Y22008776I44194J-44194D01*
G01*
G37*
G04 #@! TD.AperFunction*
G04 #@! TA.AperFunction,SMDPad,CuDef*
G36*
G01*
X9994854Y21655223D02*
X10083242Y21566835D01*
G75*
G02*
X10083242Y21478447I-44194J-44194D01*
G01*
X9552912Y20948117D01*
G75*
G02*
X9464524Y20948117I-44194J44194D01*
G01*
X9376136Y21036505D01*
G75*
G02*
X9376136Y21124893I44194J44194D01*
G01*
X9906466Y21655223D01*
G75*
G02*
X9994854Y21655223I44194J-44194D01*
G01*
G37*
G04 #@! TD.AperFunction*
G04 #@! TA.AperFunction,SMDPad,CuDef*
G36*
G01*
X10348408Y21301669D02*
X10436796Y21213281D01*
G75*
G02*
X10436796Y21124893I-44194J-44194D01*
G01*
X9906466Y20594563D01*
G75*
G02*
X9818078Y20594563I-44194J44194D01*
G01*
X9729690Y20682951D01*
G75*
G02*
X9729690Y20771339I44194J44194D01*
G01*
X10260020Y21301669D01*
G75*
G02*
X10348408Y21301669I44194J-44194D01*
G01*
G37*
G04 #@! TD.AperFunction*
G04 #@! TA.AperFunction,SMDPad,CuDef*
G36*
G01*
X10701961Y20948116D02*
X10790349Y20859728D01*
G75*
G02*
X10790349Y20771340I-44194J-44194D01*
G01*
X10260019Y20241010D01*
G75*
G02*
X10171631Y20241010I-44194J44194D01*
G01*
X10083243Y20329398D01*
G75*
G02*
X10083243Y20417786I44194J44194D01*
G01*
X10613573Y20948116D01*
G75*
G02*
X10701961Y20948116I44194J-44194D01*
G01*
G37*
G04 #@! TD.AperFunction*
G04 #@! TA.AperFunction,SMDPad,CuDef*
G36*
G01*
X11055514Y20594563D02*
X11143902Y20506175D01*
G75*
G02*
X11143902Y20417787I-44194J-44194D01*
G01*
X10613572Y19887457D01*
G75*
G02*
X10525184Y19887457I-44194J44194D01*
G01*
X10436796Y19975845D01*
G75*
G02*
X10436796Y20064233I44194J44194D01*
G01*
X10967126Y20594563D01*
G75*
G02*
X11055514Y20594563I44194J-44194D01*
G01*
G37*
G04 #@! TD.AperFunction*
G04 #@! TA.AperFunction,SMDPad,CuDef*
G36*
G01*
X11409068Y20241009D02*
X11497456Y20152621D01*
G75*
G02*
X11497456Y20064233I-44194J-44194D01*
G01*
X10967126Y19533903D01*
G75*
G02*
X10878738Y19533903I-44194J44194D01*
G01*
X10790350Y19622291D01*
G75*
G02*
X10790350Y19710679I44194J44194D01*
G01*
X11320680Y20241009D01*
G75*
G02*
X11409068Y20241009I44194J-44194D01*
G01*
G37*
G04 #@! TD.AperFunction*
G04 #@! TA.AperFunction,SMDPad,CuDef*
G36*
G01*
X11762621Y19887456D02*
X11851009Y19799068D01*
G75*
G02*
X11851009Y19710680I-44194J-44194D01*
G01*
X11320679Y19180350D01*
G75*
G02*
X11232291Y19180350I-44194J44194D01*
G01*
X11143903Y19268738D01*
G75*
G02*
X11143903Y19357126I44194J44194D01*
G01*
X11674233Y19887456D01*
G75*
G02*
X11762621Y19887456I44194J-44194D01*
G01*
G37*
G04 #@! TD.AperFunction*
G04 #@! TA.AperFunction,SMDPad,CuDef*
G36*
G01*
X12116175Y19533902D02*
X12204563Y19445514D01*
G75*
G02*
X12204563Y19357126I-44194J-44194D01*
G01*
X11674233Y18826796D01*
G75*
G02*
X11585845Y18826796I-44194J44194D01*
G01*
X11497457Y18915184D01*
G75*
G02*
X11497457Y19003572I44194J44194D01*
G01*
X12027787Y19533902D01*
G75*
G02*
X12116175Y19533902I44194J-44194D01*
G01*
G37*
G04 #@! TD.AperFunction*
G04 #@! TA.AperFunction,SMDPad,CuDef*
G36*
G01*
X12469728Y19180349D02*
X12558116Y19091961D01*
G75*
G02*
X12558116Y19003573I-44194J-44194D01*
G01*
X12027786Y18473243D01*
G75*
G02*
X11939398Y18473243I-44194J44194D01*
G01*
X11851010Y18561631D01*
G75*
G02*
X11851010Y18650019I44194J44194D01*
G01*
X12381340Y19180349D01*
G75*
G02*
X12469728Y19180349I44194J-44194D01*
G01*
G37*
G04 #@! TD.AperFunction*
G04 #@! TA.AperFunction,SMDPad,CuDef*
G36*
G01*
X12823281Y18826796D02*
X12911669Y18738408D01*
G75*
G02*
X12911669Y18650020I-44194J-44194D01*
G01*
X12381339Y18119690D01*
G75*
G02*
X12292951Y18119690I-44194J44194D01*
G01*
X12204563Y18208078D01*
G75*
G02*
X12204563Y18296466I44194J44194D01*
G01*
X12734893Y18826796D01*
G75*
G02*
X12823281Y18826796I44194J-44194D01*
G01*
G37*
G04 #@! TD.AperFunction*
G04 #@! TA.AperFunction,SMDPad,CuDef*
G36*
G01*
X13176835Y18473242D02*
X13265223Y18384854D01*
G75*
G02*
X13265223Y18296466I-44194J-44194D01*
G01*
X12734893Y17766136D01*
G75*
G02*
X12646505Y17766136I-44194J44194D01*
G01*
X12558117Y17854524D01*
G75*
G02*
X12558117Y17942912I44194J44194D01*
G01*
X13088447Y18473242D01*
G75*
G02*
X13176835Y18473242I44194J-44194D01*
G01*
G37*
G04 #@! TD.AperFunction*
G04 #@! TA.AperFunction,SMDPad,CuDef*
G36*
G01*
X13530388Y18119689D02*
X13618776Y18031301D01*
G75*
G02*
X13618776Y17942913I-44194J-44194D01*
G01*
X13088446Y17412583D01*
G75*
G02*
X13000058Y17412583I-44194J44194D01*
G01*
X12911670Y17500971D01*
G75*
G02*
X12911670Y17589359I44194J44194D01*
G01*
X13442000Y18119689D01*
G75*
G02*
X13530388Y18119689I44194J-44194D01*
G01*
G37*
G04 #@! TD.AperFunction*
G04 #@! TA.AperFunction,SMDPad,CuDef*
G36*
G01*
X12940000Y6560000D02*
X12940000Y6760000D01*
G75*
G02*
X13040000Y6860000I100000J0D01*
G01*
X13300000Y6860000D01*
G75*
G02*
X13400000Y6760000I0J-100000D01*
G01*
X13400000Y6560000D01*
G75*
G02*
X13300000Y6460000I-100000J0D01*
G01*
X13040000Y6460000D01*
G75*
G02*
X12940000Y6560000I0J100000D01*
G01*
G37*
G04 #@! TD.AperFunction*
G04 #@! TA.AperFunction,SMDPad,CuDef*
G36*
G01*
X13580000Y6560000D02*
X13580000Y6760000D01*
G75*
G02*
X13680000Y6860000I100000J0D01*
G01*
X13940000Y6860000D01*
G75*
G02*
X14040000Y6760000I0J-100000D01*
G01*
X14040000Y6560000D01*
G75*
G02*
X13940000Y6460000I-100000J0D01*
G01*
X13680000Y6460000D01*
G75*
G02*
X13580000Y6560000I0J100000D01*
G01*
G37*
G04 #@! TD.AperFunction*
G04 #@! TA.AperFunction,SMDPad,CuDef*
G36*
G01*
X8625000Y27000000D02*
X8475000Y27000000D01*
G75*
G02*
X8400000Y27075000I0J75000D01*
G01*
X8400000Y27375000D01*
G75*
G02*
X8475000Y27450000I75000J0D01*
G01*
X8625000Y27450000D01*
G75*
G02*
X8700000Y27375000I0J-75000D01*
G01*
X8700000Y27075000D01*
G75*
G02*
X8625000Y27000000I-75000J0D01*
G01*
G37*
G04 #@! TD.AperFunction*
G04 #@! TA.AperFunction,SMDPad,CuDef*
G36*
G01*
X9125000Y27000000D02*
X8975000Y27000000D01*
G75*
G02*
X8900000Y27075000I0J75000D01*
G01*
X8900000Y27375000D01*
G75*
G02*
X8975000Y27450000I75000J0D01*
G01*
X9125000Y27450000D01*
G75*
G02*
X9200000Y27375000I0J-75000D01*
G01*
X9200000Y27075000D01*
G75*
G02*
X9125000Y27000000I-75000J0D01*
G01*
G37*
G04 #@! TD.AperFunction*
G04 #@! TA.AperFunction,SMDPad,CuDef*
G36*
G01*
X8625000Y25650000D02*
X8475000Y25650000D01*
G75*
G02*
X8400000Y25725000I0J75000D01*
G01*
X8400000Y26025000D01*
G75*
G02*
X8475000Y26100000I75000J0D01*
G01*
X8625000Y26100000D01*
G75*
G02*
X8700000Y26025000I0J-75000D01*
G01*
X8700000Y25725000D01*
G75*
G02*
X8625000Y25650000I-75000J0D01*
G01*
G37*
G04 #@! TD.AperFunction*
G04 #@! TA.AperFunction,SMDPad,CuDef*
G36*
G01*
X8125000Y27000000D02*
X7975000Y27000000D01*
G75*
G02*
X7900000Y27075000I0J75000D01*
G01*
X7900000Y27375000D01*
G75*
G02*
X7975000Y27450000I75000J0D01*
G01*
X8125000Y27450000D01*
G75*
G02*
X8200000Y27375000I0J-75000D01*
G01*
X8200000Y27075000D01*
G75*
G02*
X8125000Y27000000I-75000J0D01*
G01*
G37*
G04 #@! TD.AperFunction*
G04 #@! TA.AperFunction,SMDPad,CuDef*
G36*
G01*
X9125000Y25650000D02*
X8975000Y25650000D01*
G75*
G02*
X8900000Y25725000I0J75000D01*
G01*
X8900000Y26025000D01*
G75*
G02*
X8975000Y26100000I75000J0D01*
G01*
X9125000Y26100000D01*
G75*
G02*
X9200000Y26025000I0J-75000D01*
G01*
X9200000Y25725000D01*
G75*
G02*
X9125000Y25650000I-75000J0D01*
G01*
G37*
G04 #@! TD.AperFunction*
G04 #@! TA.AperFunction,SMDPad,CuDef*
G36*
G01*
X8125000Y25650000D02*
X7975000Y25650000D01*
G75*
G02*
X7900000Y25725000I0J75000D01*
G01*
X7900000Y26025000D01*
G75*
G02*
X7975000Y26100000I75000J0D01*
G01*
X8125000Y26100000D01*
G75*
G02*
X8200000Y26025000I0J-75000D01*
G01*
X8200000Y25725000D01*
G75*
G02*
X8125000Y25650000I-75000J0D01*
G01*
G37*
G04 #@! TD.AperFunction*
D14*
X16510000Y1270000D03*
X16510000Y3810000D03*
X16510000Y6350000D03*
X16510000Y8890000D03*
X16510000Y11430000D03*
X16510000Y13970000D03*
X16510000Y16510000D03*
X16510000Y19050000D03*
X16510000Y21590000D03*
X16510000Y24130000D03*
X3810000Y1270000D03*
X3810000Y3810000D03*
X6350000Y1270000D03*
X6350000Y3810000D03*
X8890000Y1270000D03*
X8890000Y3810000D03*
X11430000Y1270000D03*
X11430000Y3810000D03*
X13970000Y1270000D03*
X13970000Y3810000D03*
X1270000Y1270000D03*
X1270000Y3810000D03*
X1270000Y6350000D03*
X1270000Y8890000D03*
X1270000Y11430000D03*
X1270000Y13970000D03*
X1270000Y16510000D03*
X1270000Y19050000D03*
X1270000Y21590000D03*
X1270000Y24130000D03*
G04 #@! TA.AperFunction,SMDPad,CuDef*
G36*
G01*
X5120000Y10490000D02*
X5320000Y10490000D01*
G75*
G02*
X5420000Y10390000I0J-100000D01*
G01*
X5420000Y10130000D01*
G75*
G02*
X5320000Y10030000I-100000J0D01*
G01*
X5120000Y10030000D01*
G75*
G02*
X5020000Y10130000I0J100000D01*
G01*
X5020000Y10390000D01*
G75*
G02*
X5120000Y10490000I100000J0D01*
G01*
G37*
G04 #@! TD.AperFunction*
G04 #@! TA.AperFunction,SMDPad,CuDef*
G36*
G01*
X5120000Y9850000D02*
X5320000Y9850000D01*
G75*
G02*
X5420000Y9750000I0J-100000D01*
G01*
X5420000Y9490000D01*
G75*
G02*
X5320000Y9390000I-100000J0D01*
G01*
X5120000Y9390000D01*
G75*
G02*
X5020000Y9490000I0J100000D01*
G01*
X5020000Y9750000D01*
G75*
G02*
X5120000Y9850000I100000J0D01*
G01*
G37*
G04 #@! TD.AperFunction*
G04 #@! TA.AperFunction,SMDPad,CuDef*
G36*
G01*
X13100000Y27400000D02*
X13100000Y27200000D01*
G75*
G02*
X13000000Y27100000I-100000J0D01*
G01*
X12740000Y27100000D01*
G75*
G02*
X12640000Y27200000I0J100000D01*
G01*
X12640000Y27400000D01*
G75*
G02*
X12740000Y27500000I100000J0D01*
G01*
X13000000Y27500000D01*
G75*
G02*
X13100000Y27400000I0J-100000D01*
G01*
G37*
G04 #@! TD.AperFunction*
G04 #@! TA.AperFunction,SMDPad,CuDef*
G36*
G01*
X12460000Y27400000D02*
X12460000Y27200000D01*
G75*
G02*
X12360000Y27100000I-100000J0D01*
G01*
X12100000Y27100000D01*
G75*
G02*
X12000000Y27200000I0J100000D01*
G01*
X12000000Y27400000D01*
G75*
G02*
X12100000Y27500000I100000J0D01*
G01*
X12360000Y27500000D01*
G75*
G02*
X12460000Y27400000I0J-100000D01*
G01*
G37*
G04 #@! TD.AperFunction*
G04 #@! TA.AperFunction,SMDPad,CuDef*
G36*
G01*
X7200000Y26400000D02*
X7000000Y26400000D01*
G75*
G02*
X6900000Y26500000I0J100000D01*
G01*
X6900000Y26760000D01*
G75*
G02*
X7000000Y26860000I100000J0D01*
G01*
X7200000Y26860000D01*
G75*
G02*
X7300000Y26760000I0J-100000D01*
G01*
X7300000Y26500000D01*
G75*
G02*
X7200000Y26400000I-100000J0D01*
G01*
G37*
G04 #@! TD.AperFunction*
G04 #@! TA.AperFunction,SMDPad,CuDef*
G36*
G01*
X7200000Y27040000D02*
X7000000Y27040000D01*
G75*
G02*
X6900000Y27140000I0J100000D01*
G01*
X6900000Y27400000D01*
G75*
G02*
X7000000Y27500000I100000J0D01*
G01*
X7200000Y27500000D01*
G75*
G02*
X7300000Y27400000I0J-100000D01*
G01*
X7300000Y27140000D01*
G75*
G02*
X7200000Y27040000I-100000J0D01*
G01*
G37*
G04 #@! TD.AperFunction*
G04 #@! TA.AperFunction,SMDPad,CuDef*
G36*
G01*
X3369202Y13185650D02*
X3510624Y13327072D01*
G75*
G02*
X3652046Y13327072I70711J-70711D01*
G01*
X3835894Y13143224D01*
G75*
G02*
X3835894Y13001802I-70711J-70711D01*
G01*
X3694472Y12860380D01*
G75*
G02*
X3553050Y12860380I-70711J70711D01*
G01*
X3369202Y13044228D01*
G75*
G02*
X3369202Y13185650I70711J70711D01*
G01*
G37*
G04 #@! TD.AperFunction*
G04 #@! TA.AperFunction,SMDPad,CuDef*
G36*
G01*
X2916654Y13638198D02*
X3058076Y13779620D01*
G75*
G02*
X3199498Y13779620I70711J-70711D01*
G01*
X3383346Y13595772D01*
G75*
G02*
X3383346Y13454350I-70711J-70711D01*
G01*
X3241924Y13312928D01*
G75*
G02*
X3100502Y13312928I-70711J70711D01*
G01*
X2916654Y13496776D01*
G75*
G02*
X2916654Y13638198I70711J70711D01*
G01*
G37*
G04 #@! TD.AperFunction*
G04 #@! TA.AperFunction,SMDPad,CuDef*
G36*
G01*
X14040000Y8530000D02*
X14040000Y8330000D01*
G75*
G02*
X13940000Y8230000I-100000J0D01*
G01*
X13680000Y8230000D01*
G75*
G02*
X13580000Y8330000I0J100000D01*
G01*
X13580000Y8530000D01*
G75*
G02*
X13680000Y8630000I100000J0D01*
G01*
X13940000Y8630000D01*
G75*
G02*
X14040000Y8530000I0J-100000D01*
G01*
G37*
G04 #@! TD.AperFunction*
G04 #@! TA.AperFunction,SMDPad,CuDef*
G36*
G01*
X13400000Y8530000D02*
X13400000Y8330000D01*
G75*
G02*
X13300000Y8230000I-100000J0D01*
G01*
X13040000Y8230000D01*
G75*
G02*
X12940000Y8330000I0J100000D01*
G01*
X12940000Y8530000D01*
G75*
G02*
X13040000Y8630000I100000J0D01*
G01*
X13300000Y8630000D01*
G75*
G02*
X13400000Y8530000I0J-100000D01*
G01*
G37*
G04 #@! TD.AperFunction*
G04 #@! TA.AperFunction,SMDPad,CuDef*
G36*
G01*
X14040000Y7830000D02*
X14040000Y7630000D01*
G75*
G02*
X13940000Y7530000I-100000J0D01*
G01*
X13680000Y7530000D01*
G75*
G02*
X13580000Y7630000I0J100000D01*
G01*
X13580000Y7830000D01*
G75*
G02*
X13680000Y7930000I100000J0D01*
G01*
X13940000Y7930000D01*
G75*
G02*
X14040000Y7830000I0J-100000D01*
G01*
G37*
G04 #@! TD.AperFunction*
G04 #@! TA.AperFunction,SMDPad,CuDef*
G36*
G01*
X13400000Y7830000D02*
X13400000Y7630000D01*
G75*
G02*
X13300000Y7530000I-100000J0D01*
G01*
X13040000Y7530000D01*
G75*
G02*
X12940000Y7630000I0J100000D01*
G01*
X12940000Y7830000D01*
G75*
G02*
X13040000Y7930000I100000J0D01*
G01*
X13300000Y7930000D01*
G75*
G02*
X13400000Y7830000I0J-100000D01*
G01*
G37*
G04 #@! TD.AperFunction*
G04 #@! TA.AperFunction,SMDPad,CuDef*
G36*
G01*
X12940000Y9400000D02*
X12940000Y9600000D01*
G75*
G02*
X13040000Y9700000I100000J0D01*
G01*
X13300000Y9700000D01*
G75*
G02*
X13400000Y9600000I0J-100000D01*
G01*
X13400000Y9400000D01*
G75*
G02*
X13300000Y9300000I-100000J0D01*
G01*
X13040000Y9300000D01*
G75*
G02*
X12940000Y9400000I0J100000D01*
G01*
G37*
G04 #@! TD.AperFunction*
G04 #@! TA.AperFunction,SMDPad,CuDef*
G36*
G01*
X13580000Y9400000D02*
X13580000Y9600000D01*
G75*
G02*
X13680000Y9700000I100000J0D01*
G01*
X13940000Y9700000D01*
G75*
G02*
X14040000Y9600000I0J-100000D01*
G01*
X14040000Y9400000D01*
G75*
G02*
X13940000Y9300000I-100000J0D01*
G01*
X13680000Y9300000D01*
G75*
G02*
X13580000Y9400000I0J100000D01*
G01*
G37*
G04 #@! TD.AperFunction*
X16510000Y26670000D03*
X16510000Y29210000D03*
X16510000Y31750000D03*
X16510000Y34290000D03*
X1270000Y26670000D03*
X1270000Y29210000D03*
X1270000Y31750000D03*
X1270000Y34290000D03*
G04 #@! TA.AperFunction,SMDPad,CuDef*
G36*
G01*
X5400000Y25420000D02*
X5600000Y25420000D01*
G75*
G02*
X5700000Y25320000I0J-100000D01*
G01*
X5700000Y25060000D01*
G75*
G02*
X5600000Y24960000I-100000J0D01*
G01*
X5400000Y24960000D01*
G75*
G02*
X5300000Y25060000I0J100000D01*
G01*
X5300000Y25320000D01*
G75*
G02*
X5400000Y25420000I100000J0D01*
G01*
G37*
G04 #@! TD.AperFunction*
G04 #@! TA.AperFunction,SMDPad,CuDef*
G36*
G01*
X5400000Y24780000D02*
X5600000Y24780000D01*
G75*
G02*
X5700000Y24680000I0J-100000D01*
G01*
X5700000Y24420000D01*
G75*
G02*
X5600000Y24320000I-100000J0D01*
G01*
X5400000Y24320000D01*
G75*
G02*
X5300000Y24420000I0J100000D01*
G01*
X5300000Y24680000D01*
G75*
G02*
X5400000Y24780000I100000J0D01*
G01*
G37*
G04 #@! TD.AperFunction*
G04 #@! TA.AperFunction,SMDPad,CuDef*
G36*
G01*
X3100000Y25420000D02*
X3300000Y25420000D01*
G75*
G02*
X3400000Y25320000I0J-100000D01*
G01*
X3400000Y25060000D01*
G75*
G02*
X3300000Y24960000I-100000J0D01*
G01*
X3100000Y24960000D01*
G75*
G02*
X3000000Y25060000I0J100000D01*
G01*
X3000000Y25320000D01*
G75*
G02*
X3100000Y25420000I100000J0D01*
G01*
G37*
G04 #@! TD.AperFunction*
G04 #@! TA.AperFunction,SMDPad,CuDef*
G36*
G01*
X3100000Y24780000D02*
X3300000Y24780000D01*
G75*
G02*
X3400000Y24680000I0J-100000D01*
G01*
X3400000Y24420000D01*
G75*
G02*
X3300000Y24320000I-100000J0D01*
G01*
X3100000Y24320000D01*
G75*
G02*
X3000000Y24420000I0J100000D01*
G01*
X3000000Y24680000D01*
G75*
G02*
X3100000Y24780000I100000J0D01*
G01*
G37*
G04 #@! TD.AperFunction*
G04 #@! TA.AperFunction,SMDPad,CuDef*
G36*
G01*
X13065494Y21393845D02*
X12994784Y21323135D01*
G75*
G02*
X12924074Y21323135I-35355J35355D01*
G01*
X12393744Y21853465D01*
G75*
G02*
X12393744Y21924175I35355J35355D01*
G01*
X12464454Y21994885D01*
G75*
G02*
X12535164Y21994885I35355J-35355D01*
G01*
X13065494Y21464555D01*
G75*
G02*
X13065494Y21393845I-35355J-35355D01*
G01*
G37*
G04 #@! TD.AperFunction*
G04 #@! TA.AperFunction,SMDPad,CuDef*
G36*
G01*
X13348337Y21676687D02*
X13277627Y21605977D01*
G75*
G02*
X13206917Y21605977I-35355J35355D01*
G01*
X12676587Y22136307D01*
G75*
G02*
X12676587Y22207017I35355J35355D01*
G01*
X12747297Y22277727D01*
G75*
G02*
X12818007Y22277727I35355J-35355D01*
G01*
X13348337Y21747397D01*
G75*
G02*
X13348337Y21676687I-35355J-35355D01*
G01*
G37*
G04 #@! TD.AperFunction*
G04 #@! TA.AperFunction,SMDPad,CuDef*
G36*
G01*
X13631180Y21959530D02*
X13560470Y21888820D01*
G75*
G02*
X13489760Y21888820I-35355J35355D01*
G01*
X12959430Y22419150D01*
G75*
G02*
X12959430Y22489860I35355J35355D01*
G01*
X13030140Y22560570D01*
G75*
G02*
X13100850Y22560570I35355J-35355D01*
G01*
X13631180Y22030240D01*
G75*
G02*
X13631180Y21959530I-35355J-35355D01*
G01*
G37*
G04 #@! TD.AperFunction*
G04 #@! TA.AperFunction,SMDPad,CuDef*
G36*
G01*
X13914023Y22242373D02*
X13843313Y22171663D01*
G75*
G02*
X13772603Y22171663I-35355J35355D01*
G01*
X13242273Y22701993D01*
G75*
G02*
X13242273Y22772703I35355J35355D01*
G01*
X13312983Y22843413D01*
G75*
G02*
X13383693Y22843413I35355J-35355D01*
G01*
X13914023Y22313083D01*
G75*
G02*
X13914023Y22242373I-35355J-35355D01*
G01*
G37*
G04 #@! TD.AperFunction*
G04 #@! TA.AperFunction,SMDPad,CuDef*
G36*
G01*
X14196865Y22525216D02*
X14126155Y22454506D01*
G75*
G02*
X14055445Y22454506I-35355J35355D01*
G01*
X13525115Y22984836D01*
G75*
G02*
X13525115Y23055546I35355J35355D01*
G01*
X13595825Y23126256D01*
G75*
G02*
X13666535Y23126256I35355J-35355D01*
G01*
X14196865Y22595926D01*
G75*
G02*
X14196865Y22525216I-35355J-35355D01*
G01*
G37*
G04 #@! TD.AperFunction*
G04 #@! TA.AperFunction,SMDPad,CuDef*
G36*
G01*
X14196865Y23904074D02*
X13666535Y23373744D01*
G75*
G02*
X13595825Y23373744I-35355J35355D01*
G01*
X13525115Y23444454D01*
G75*
G02*
X13525115Y23515164I35355J35355D01*
G01*
X14055445Y24045494D01*
G75*
G02*
X14126155Y24045494I35355J-35355D01*
G01*
X14196865Y23974784D01*
G75*
G02*
X14196865Y23904074I-35355J-35355D01*
G01*
G37*
G04 #@! TD.AperFunction*
G04 #@! TA.AperFunction,SMDPad,CuDef*
G36*
G01*
X13914023Y24186917D02*
X13383693Y23656587D01*
G75*
G02*
X13312983Y23656587I-35355J35355D01*
G01*
X13242273Y23727297D01*
G75*
G02*
X13242273Y23798007I35355J35355D01*
G01*
X13772603Y24328337D01*
G75*
G02*
X13843313Y24328337I35355J-35355D01*
G01*
X13914023Y24257627D01*
G75*
G02*
X13914023Y24186917I-35355J-35355D01*
G01*
G37*
G04 #@! TD.AperFunction*
G04 #@! TA.AperFunction,SMDPad,CuDef*
G36*
G01*
X13631180Y24469760D02*
X13100850Y23939430D01*
G75*
G02*
X13030140Y23939430I-35355J35355D01*
G01*
X12959430Y24010140D01*
G75*
G02*
X12959430Y24080850I35355J35355D01*
G01*
X13489760Y24611180D01*
G75*
G02*
X13560470Y24611180I35355J-35355D01*
G01*
X13631180Y24540470D01*
G75*
G02*
X13631180Y24469760I-35355J-35355D01*
G01*
G37*
G04 #@! TD.AperFunction*
G04 #@! TA.AperFunction,SMDPad,CuDef*
G36*
G01*
X13348337Y24752603D02*
X12818007Y24222273D01*
G75*
G02*
X12747297Y24222273I-35355J35355D01*
G01*
X12676587Y24292983D01*
G75*
G02*
X12676587Y24363693I35355J35355D01*
G01*
X13206917Y24894023D01*
G75*
G02*
X13277627Y24894023I35355J-35355D01*
G01*
X13348337Y24823313D01*
G75*
G02*
X13348337Y24752603I-35355J-35355D01*
G01*
G37*
G04 #@! TD.AperFunction*
G04 #@! TA.AperFunction,SMDPad,CuDef*
G36*
G01*
X13065494Y25035445D02*
X12535164Y24505115D01*
G75*
G02*
X12464454Y24505115I-35355J35355D01*
G01*
X12393744Y24575825D01*
G75*
G02*
X12393744Y24646535I35355J35355D01*
G01*
X12924074Y25176865D01*
G75*
G02*
X12994784Y25176865I35355J-35355D01*
G01*
X13065494Y25106155D01*
G75*
G02*
X13065494Y25035445I-35355J-35355D01*
G01*
G37*
G04 #@! TD.AperFunction*
G04 #@! TA.AperFunction,SMDPad,CuDef*
G36*
G01*
X12146256Y24575825D02*
X12075546Y24505115D01*
G75*
G02*
X12004836Y24505115I-35355J35355D01*
G01*
X11474506Y25035445D01*
G75*
G02*
X11474506Y25106155I35355J35355D01*
G01*
X11545216Y25176865D01*
G75*
G02*
X11615926Y25176865I35355J-35355D01*
G01*
X12146256Y24646535D01*
G75*
G02*
X12146256Y24575825I-35355J-35355D01*
G01*
G37*
G04 #@! TD.AperFunction*
G04 #@! TA.AperFunction,SMDPad,CuDef*
G36*
G01*
X11863413Y24292983D02*
X11792703Y24222273D01*
G75*
G02*
X11721993Y24222273I-35355J35355D01*
G01*
X11191663Y24752603D01*
G75*
G02*
X11191663Y24823313I35355J35355D01*
G01*
X11262373Y24894023D01*
G75*
G02*
X11333083Y24894023I35355J-35355D01*
G01*
X11863413Y24363693D01*
G75*
G02*
X11863413Y24292983I-35355J-35355D01*
G01*
G37*
G04 #@! TD.AperFunction*
G04 #@! TA.AperFunction,SMDPad,CuDef*
G36*
G01*
X11580570Y24010140D02*
X11509860Y23939430D01*
G75*
G02*
X11439150Y23939430I-35355J35355D01*
G01*
X10908820Y24469760D01*
G75*
G02*
X10908820Y24540470I35355J35355D01*
G01*
X10979530Y24611180D01*
G75*
G02*
X11050240Y24611180I35355J-35355D01*
G01*
X11580570Y24080850D01*
G75*
G02*
X11580570Y24010140I-35355J-35355D01*
G01*
G37*
G04 #@! TD.AperFunction*
G04 #@! TA.AperFunction,SMDPad,CuDef*
G36*
G01*
X11297727Y23727297D02*
X11227017Y23656587D01*
G75*
G02*
X11156307Y23656587I-35355J35355D01*
G01*
X10625977Y24186917D01*
G75*
G02*
X10625977Y24257627I35355J35355D01*
G01*
X10696687Y24328337D01*
G75*
G02*
X10767397Y24328337I35355J-35355D01*
G01*
X11297727Y23798007D01*
G75*
G02*
X11297727Y23727297I-35355J-35355D01*
G01*
G37*
G04 #@! TD.AperFunction*
G04 #@! TA.AperFunction,SMDPad,CuDef*
G36*
G01*
X11014885Y23444454D02*
X10944175Y23373744D01*
G75*
G02*
X10873465Y23373744I-35355J35355D01*
G01*
X10343135Y23904074D01*
G75*
G02*
X10343135Y23974784I35355J35355D01*
G01*
X10413845Y24045494D01*
G75*
G02*
X10484555Y24045494I35355J-35355D01*
G01*
X11014885Y23515164D01*
G75*
G02*
X11014885Y23444454I-35355J-35355D01*
G01*
G37*
G04 #@! TD.AperFunction*
G04 #@! TA.AperFunction,SMDPad,CuDef*
G36*
G01*
X11014885Y22984836D02*
X10484555Y22454506D01*
G75*
G02*
X10413845Y22454506I-35355J35355D01*
G01*
X10343135Y22525216D01*
G75*
G02*
X10343135Y22595926I35355J35355D01*
G01*
X10873465Y23126256D01*
G75*
G02*
X10944175Y23126256I35355J-35355D01*
G01*
X11014885Y23055546D01*
G75*
G02*
X11014885Y22984836I-35355J-35355D01*
G01*
G37*
G04 #@! TD.AperFunction*
G04 #@! TA.AperFunction,SMDPad,CuDef*
G36*
G01*
X11297727Y22701993D02*
X10767397Y22171663D01*
G75*
G02*
X10696687Y22171663I-35355J35355D01*
G01*
X10625977Y22242373D01*
G75*
G02*
X10625977Y22313083I35355J35355D01*
G01*
X11156307Y22843413D01*
G75*
G02*
X11227017Y22843413I35355J-35355D01*
G01*
X11297727Y22772703D01*
G75*
G02*
X11297727Y22701993I-35355J-35355D01*
G01*
G37*
G04 #@! TD.AperFunction*
G04 #@! TA.AperFunction,SMDPad,CuDef*
G36*
G01*
X11580570Y22419150D02*
X11050240Y21888820D01*
G75*
G02*
X10979530Y21888820I-35355J35355D01*
G01*
X10908820Y21959530D01*
G75*
G02*
X10908820Y22030240I35355J35355D01*
G01*
X11439150Y22560570D01*
G75*
G02*
X11509860Y22560570I35355J-35355D01*
G01*
X11580570Y22489860D01*
G75*
G02*
X11580570Y22419150I-35355J-35355D01*
G01*
G37*
G04 #@! TD.AperFunction*
G04 #@! TA.AperFunction,SMDPad,CuDef*
G36*
G01*
X11863413Y22136307D02*
X11333083Y21605977D01*
G75*
G02*
X11262373Y21605977I-35355J35355D01*
G01*
X11191663Y21676687D01*
G75*
G02*
X11191663Y21747397I35355J35355D01*
G01*
X11721993Y22277727D01*
G75*
G02*
X11792703Y22277727I35355J-35355D01*
G01*
X11863413Y22207017D01*
G75*
G02*
X11863413Y22136307I-35355J-35355D01*
G01*
G37*
G04 #@! TD.AperFunction*
G04 #@! TA.AperFunction,SMDPad,CuDef*
G36*
G01*
X12146256Y21853465D02*
X11615926Y21323135D01*
G75*
G02*
X11545216Y21323135I-35355J35355D01*
G01*
X11474506Y21393845D01*
G75*
G02*
X11474506Y21464555I35355J35355D01*
G01*
X12004836Y21994885D01*
G75*
G02*
X12075546Y21994885I35355J-35355D01*
G01*
X12146256Y21924175D01*
G75*
G02*
X12146256Y21853465I-35355J-35355D01*
G01*
G37*
G04 #@! TD.AperFunction*
G04 #@! TA.AperFunction,SMDPad,CuDef*
D13*
G36*
X13436726Y23250000D02*
G01*
X12270000Y22083274D01*
X11103274Y23250000D01*
X12270000Y24416726D01*
X13436726Y23250000D01*
G37*
G04 #@! TD.AperFunction*
G04 #@! TA.AperFunction,SMDPad,CuDef*
G36*
G01*
X3635000Y27000000D02*
X3185000Y27000000D01*
G75*
G02*
X3060000Y27125000I0J125000D01*
G01*
X3060000Y27375000D01*
G75*
G02*
X3185000Y27500000I125000J0D01*
G01*
X3635000Y27500000D01*
G75*
G02*
X3760000Y27375000I0J-125000D01*
G01*
X3760000Y27125000D01*
G75*
G02*
X3635000Y27000000I-125000J0D01*
G01*
G37*
G04 #@! TD.AperFunction*
G04 #@! TA.AperFunction,SMDPad,CuDef*
G36*
G01*
X3635000Y26200000D02*
X3185000Y26200000D01*
G75*
G02*
X3060000Y26325000I0J125000D01*
G01*
X3060000Y26575000D01*
G75*
G02*
X3185000Y26700000I125000J0D01*
G01*
X3635000Y26700000D01*
G75*
G02*
X3760000Y26575000I0J-125000D01*
G01*
X3760000Y26325000D01*
G75*
G02*
X3635000Y26200000I-125000J0D01*
G01*
G37*
G04 #@! TD.AperFunction*
G04 #@! TA.AperFunction,SMDPad,CuDef*
G36*
G01*
X5555000Y27000000D02*
X5105000Y27000000D01*
G75*
G02*
X4980000Y27125000I0J125000D01*
G01*
X4980000Y27375000D01*
G75*
G02*
X5105000Y27500000I125000J0D01*
G01*
X5555000Y27500000D01*
G75*
G02*
X5680000Y27375000I0J-125000D01*
G01*
X5680000Y27125000D01*
G75*
G02*
X5555000Y27000000I-125000J0D01*
G01*
G37*
G04 #@! TD.AperFunction*
G04 #@! TA.AperFunction,SMDPad,CuDef*
G36*
G01*
X5555000Y26200000D02*
X5105000Y26200000D01*
G75*
G02*
X4980000Y26325000I0J125000D01*
G01*
X4980000Y26575000D01*
G75*
G02*
X5105000Y26700000I125000J0D01*
G01*
X5555000Y26700000D01*
G75*
G02*
X5680000Y26575000I0J-125000D01*
G01*
X5680000Y26325000D01*
G75*
G02*
X5555000Y26200000I-125000J0D01*
G01*
G37*
G04 #@! TD.AperFunction*
G04 #@! TA.AperFunction,SMDPad,CuDef*
G36*
G01*
X12000000Y26500000D02*
X12000000Y26700000D01*
G75*
G02*
X12100000Y26800000I100000J0D01*
G01*
X12360000Y26800000D01*
G75*
G02*
X12460000Y26700000I0J-100000D01*
G01*
X12460000Y26500000D01*
G75*
G02*
X12360000Y26400000I-100000J0D01*
G01*
X12100000Y26400000D01*
G75*
G02*
X12000000Y26500000I0J100000D01*
G01*
G37*
G04 #@! TD.AperFunction*
G04 #@! TA.AperFunction,SMDPad,CuDef*
G36*
G01*
X12640000Y26500000D02*
X12640000Y26700000D01*
G75*
G02*
X12740000Y26800000I100000J0D01*
G01*
X13000000Y26800000D01*
G75*
G02*
X13100000Y26700000I0J-100000D01*
G01*
X13100000Y26500000D01*
G75*
G02*
X13000000Y26400000I-100000J0D01*
G01*
X12740000Y26400000D01*
G75*
G02*
X12640000Y26500000I0J100000D01*
G01*
G37*
G04 #@! TD.AperFunction*
G04 #@! TA.AperFunction,SMDPad,CuDef*
G36*
G01*
X13830000Y25800000D02*
X13830000Y26000000D01*
G75*
G02*
X13930000Y26100000I100000J0D01*
G01*
X14190000Y26100000D01*
G75*
G02*
X14290000Y26000000I0J-100000D01*
G01*
X14290000Y25800000D01*
G75*
G02*
X14190000Y25700000I-100000J0D01*
G01*
X13930000Y25700000D01*
G75*
G02*
X13830000Y25800000I0J100000D01*
G01*
G37*
G04 #@! TD.AperFunction*
G04 #@! TA.AperFunction,SMDPad,CuDef*
G36*
G01*
X14470000Y25800000D02*
X14470000Y26000000D01*
G75*
G02*
X14570000Y26100000I100000J0D01*
G01*
X14830000Y26100000D01*
G75*
G02*
X14930000Y26000000I0J-100000D01*
G01*
X14930000Y25800000D01*
G75*
G02*
X14830000Y25700000I-100000J0D01*
G01*
X14570000Y25700000D01*
G75*
G02*
X14470000Y25800000I0J100000D01*
G01*
G37*
G04 #@! TD.AperFunction*
G04 #@! TA.AperFunction,SMDPad,CuDef*
G36*
G01*
X5320000Y7980000D02*
X5120000Y7980000D01*
G75*
G02*
X5020000Y8080000I0J100000D01*
G01*
X5020000Y8340000D01*
G75*
G02*
X5120000Y8440000I100000J0D01*
G01*
X5320000Y8440000D01*
G75*
G02*
X5420000Y8340000I0J-100000D01*
G01*
X5420000Y8080000D01*
G75*
G02*
X5320000Y7980000I-100000J0D01*
G01*
G37*
G04 #@! TD.AperFunction*
G04 #@! TA.AperFunction,SMDPad,CuDef*
G36*
G01*
X5320000Y8620000D02*
X5120000Y8620000D01*
G75*
G02*
X5020000Y8720000I0J100000D01*
G01*
X5020000Y8980000D01*
G75*
G02*
X5120000Y9080000I100000J0D01*
G01*
X5320000Y9080000D01*
G75*
G02*
X5420000Y8980000I0J-100000D01*
G01*
X5420000Y8720000D01*
G75*
G02*
X5320000Y8620000I-100000J0D01*
G01*
G37*
G04 #@! TD.AperFunction*
G04 #@! TA.AperFunction,SMDPad,CuDef*
G36*
G01*
X6460000Y26940000D02*
X6120000Y26940000D01*
G75*
G02*
X5980000Y27080000I0J140000D01*
G01*
X5980000Y27360000D01*
G75*
G02*
X6120000Y27500000I140000J0D01*
G01*
X6460000Y27500000D01*
G75*
G02*
X6600000Y27360000I0J-140000D01*
G01*
X6600000Y27080000D01*
G75*
G02*
X6460000Y26940000I-140000J0D01*
G01*
G37*
G04 #@! TD.AperFunction*
G04 #@! TA.AperFunction,SMDPad,CuDef*
G36*
G01*
X6460000Y25980000D02*
X6120000Y25980000D01*
G75*
G02*
X5980000Y26120000I0J140000D01*
G01*
X5980000Y26400000D01*
G75*
G02*
X6120000Y26540000I140000J0D01*
G01*
X6460000Y26540000D01*
G75*
G02*
X6600000Y26400000I0J-140000D01*
G01*
X6600000Y26120000D01*
G75*
G02*
X6460000Y25980000I-140000J0D01*
G01*
G37*
G04 #@! TD.AperFunction*
G04 #@! TA.AperFunction,SMDPad,CuDef*
G36*
G01*
X4540000Y26940000D02*
X4200000Y26940000D01*
G75*
G02*
X4060000Y27080000I0J140000D01*
G01*
X4060000Y27360000D01*
G75*
G02*
X4200000Y27500000I140000J0D01*
G01*
X4540000Y27500000D01*
G75*
G02*
X4680000Y27360000I0J-140000D01*
G01*
X4680000Y27080000D01*
G75*
G02*
X4540000Y26940000I-140000J0D01*
G01*
G37*
G04 #@! TD.AperFunction*
G04 #@! TA.AperFunction,SMDPad,CuDef*
G36*
G01*
X4540000Y25980000D02*
X4200000Y25980000D01*
G75*
G02*
X4060000Y26120000I0J140000D01*
G01*
X4060000Y26400000D01*
G75*
G02*
X4200000Y26540000I140000J0D01*
G01*
X4540000Y26540000D01*
G75*
G02*
X4680000Y26400000I0J-140000D01*
G01*
X4680000Y26120000D01*
G75*
G02*
X4540000Y25980000I-140000J0D01*
G01*
G37*
G04 #@! TD.AperFunction*
G04 #@! TA.AperFunction,SMDPad,CuDef*
G36*
G01*
X5819620Y13291802D02*
X5678198Y13150380D01*
G75*
G02*
X5536776Y13150380I-70711J70711D01*
G01*
X5352928Y13334228D01*
G75*
G02*
X5352928Y13475650I70711J70711D01*
G01*
X5494350Y13617072D01*
G75*
G02*
X5635772Y13617072I70711J-70711D01*
G01*
X5819620Y13433224D01*
G75*
G02*
X5819620Y13291802I-70711J-70711D01*
G01*
G37*
G04 #@! TD.AperFunction*
G04 #@! TA.AperFunction,SMDPad,CuDef*
G36*
G01*
X5367072Y13744350D02*
X5225650Y13602928D01*
G75*
G02*
X5084228Y13602928I-70711J70711D01*
G01*
X4900380Y13786776D01*
G75*
G02*
X4900380Y13928198I70711J70711D01*
G01*
X5041802Y14069620D01*
G75*
G02*
X5183224Y14069620I70711J-70711D01*
G01*
X5367072Y13885772D01*
G75*
G02*
X5367072Y13744350I-70711J-70711D01*
G01*
G37*
G04 #@! TD.AperFunction*
G04 #@! TA.AperFunction,SMDPad,CuDef*
G36*
G01*
X13920000Y18480000D02*
X13920000Y18680000D01*
G75*
G02*
X14020000Y18780000I100000J0D01*
G01*
X14280000Y18780000D01*
G75*
G02*
X14380000Y18680000I0J-100000D01*
G01*
X14380000Y18480000D01*
G75*
G02*
X14280000Y18380000I-100000J0D01*
G01*
X14020000Y18380000D01*
G75*
G02*
X13920000Y18480000I0J100000D01*
G01*
G37*
G04 #@! TD.AperFunction*
G04 #@! TA.AperFunction,SMDPad,CuDef*
G36*
G01*
X14560000Y18480000D02*
X14560000Y18680000D01*
G75*
G02*
X14660000Y18780000I100000J0D01*
G01*
X14920000Y18780000D01*
G75*
G02*
X15020000Y18680000I0J-100000D01*
G01*
X15020000Y18480000D01*
G75*
G02*
X14920000Y18380000I-100000J0D01*
G01*
X14660000Y18380000D01*
G75*
G02*
X14560000Y18480000I0J100000D01*
G01*
G37*
G04 #@! TD.AperFunction*
G04 #@! TA.AperFunction,SMDPad,CuDef*
G36*
G01*
X4301802Y19390380D02*
X4160380Y19531802D01*
G75*
G02*
X4160380Y19673224I70711J70711D01*
G01*
X4344228Y19857072D01*
G75*
G02*
X4485650Y19857072I70711J-70711D01*
G01*
X4627072Y19715650D01*
G75*
G02*
X4627072Y19574228I-70711J-70711D01*
G01*
X4443224Y19390380D01*
G75*
G02*
X4301802Y19390380I-70711J70711D01*
G01*
G37*
G04 #@! TD.AperFunction*
G04 #@! TA.AperFunction,SMDPad,CuDef*
G36*
G01*
X4754350Y19842928D02*
X4612928Y19984350D01*
G75*
G02*
X4612928Y20125772I70711J70711D01*
G01*
X4796776Y20309620D01*
G75*
G02*
X4938198Y20309620I70711J-70711D01*
G01*
X5079620Y20168198D01*
G75*
G02*
X5079620Y20026776I-70711J-70711D01*
G01*
X4895772Y19842928D01*
G75*
G02*
X4754350Y19842928I-70711J70711D01*
G01*
G37*
G04 #@! TD.AperFunction*
G04 #@! TA.AperFunction,SMDPad,CuDef*
G36*
G01*
X5319620Y12801802D02*
X5178198Y12660380D01*
G75*
G02*
X5036776Y12660380I-70711J70711D01*
G01*
X4852928Y12844228D01*
G75*
G02*
X4852928Y12985650I70711J70711D01*
G01*
X4994350Y13127072D01*
G75*
G02*
X5135772Y13127072I70711J-70711D01*
G01*
X5319620Y12943224D01*
G75*
G02*
X5319620Y12801802I-70711J-70711D01*
G01*
G37*
G04 #@! TD.AperFunction*
G04 #@! TA.AperFunction,SMDPad,CuDef*
G36*
G01*
X4867072Y13254350D02*
X4725650Y13112928D01*
G75*
G02*
X4584228Y13112928I-70711J70711D01*
G01*
X4400380Y13296776D01*
G75*
G02*
X4400380Y13438198I70711J70711D01*
G01*
X4541802Y13579620D01*
G75*
G02*
X4683224Y13579620I70711J-70711D01*
G01*
X4867072Y13395772D01*
G75*
G02*
X4867072Y13254350I-70711J-70711D01*
G01*
G37*
G04 #@! TD.AperFunction*
G04 #@! TA.AperFunction,SMDPad,CuDef*
G36*
G01*
X4128960Y14279376D02*
X4369376Y14038960D01*
G75*
G02*
X4369376Y13840970I-98995J-98995D01*
G01*
X4171386Y13642980D01*
G75*
G02*
X3973396Y13642980I-98995J98995D01*
G01*
X3732980Y13883396D01*
G75*
G02*
X3732980Y14081386I98995J98995D01*
G01*
X3930970Y14279376D01*
G75*
G02*
X4128960Y14279376I98995J-98995D01*
G01*
G37*
G04 #@! TD.AperFunction*
G04 #@! TA.AperFunction,SMDPad,CuDef*
G36*
G01*
X4807782Y14958198D02*
X5048198Y14717782D01*
G75*
G02*
X5048198Y14519792I-98995J-98995D01*
G01*
X4850208Y14321802D01*
G75*
G02*
X4652218Y14321802I-98995J98995D01*
G01*
X4411802Y14562218D01*
G75*
G02*
X4411802Y14760208I98995J98995D01*
G01*
X4609792Y14958198D01*
G75*
G02*
X4807782Y14958198I98995J-98995D01*
G01*
G37*
G04 #@! TD.AperFunction*
G04 #@! TA.AperFunction,SMDPad,CuDef*
G36*
G01*
X4041924Y15243346D02*
X4183346Y15101924D01*
G75*
G02*
X4183346Y14960502I-70711J-70711D01*
G01*
X3999498Y14776654D01*
G75*
G02*
X3858076Y14776654I-70711J70711D01*
G01*
X3716654Y14918076D01*
G75*
G02*
X3716654Y15059498I70711J70711D01*
G01*
X3900502Y15243346D01*
G75*
G02*
X4041924Y15243346I70711J-70711D01*
G01*
G37*
G04 #@! TD.AperFunction*
G04 #@! TA.AperFunction,SMDPad,CuDef*
G36*
G01*
X3589376Y14790798D02*
X3730798Y14649376D01*
G75*
G02*
X3730798Y14507954I-70711J-70711D01*
G01*
X3546950Y14324106D01*
G75*
G02*
X3405528Y14324106I-70711J70711D01*
G01*
X3264106Y14465528D01*
G75*
G02*
X3264106Y14606950I70711J70711D01*
G01*
X3447954Y14790798D01*
G75*
G02*
X3589376Y14790798I70711J-70711D01*
G01*
G37*
G04 #@! TD.AperFunction*
G04 #@! TA.AperFunction,SMDPad,CuDef*
G36*
G01*
X14560000Y19180000D02*
X14560000Y19380000D01*
G75*
G02*
X14660000Y19480000I100000J0D01*
G01*
X14920000Y19480000D01*
G75*
G02*
X15020000Y19380000I0J-100000D01*
G01*
X15020000Y19180000D01*
G75*
G02*
X14920000Y19080000I-100000J0D01*
G01*
X14660000Y19080000D01*
G75*
G02*
X14560000Y19180000I0J100000D01*
G01*
G37*
G04 #@! TD.AperFunction*
G04 #@! TA.AperFunction,SMDPad,CuDef*
G36*
G01*
X13920000Y19180000D02*
X13920000Y19380000D01*
G75*
G02*
X14020000Y19480000I100000J0D01*
G01*
X14280000Y19480000D01*
G75*
G02*
X14380000Y19380000I0J-100000D01*
G01*
X14380000Y19180000D01*
G75*
G02*
X14280000Y19080000I-100000J0D01*
G01*
X14020000Y19080000D01*
G75*
G02*
X13920000Y19180000I0J100000D01*
G01*
G37*
G04 #@! TD.AperFunction*
G04 #@! TA.AperFunction,SMDPad,CuDef*
G36*
G01*
X14560000Y19880000D02*
X14560000Y20080000D01*
G75*
G02*
X14660000Y20180000I100000J0D01*
G01*
X14920000Y20180000D01*
G75*
G02*
X15020000Y20080000I0J-100000D01*
G01*
X15020000Y19880000D01*
G75*
G02*
X14920000Y19780000I-100000J0D01*
G01*
X14660000Y19780000D01*
G75*
G02*
X14560000Y19880000I0J100000D01*
G01*
G37*
G04 #@! TD.AperFunction*
G04 #@! TA.AperFunction,SMDPad,CuDef*
G36*
G01*
X13920000Y19880000D02*
X13920000Y20080000D01*
G75*
G02*
X14020000Y20180000I100000J0D01*
G01*
X14280000Y20180000D01*
G75*
G02*
X14380000Y20080000I0J-100000D01*
G01*
X14380000Y19880000D01*
G75*
G02*
X14280000Y19780000I-100000J0D01*
G01*
X14020000Y19780000D01*
G75*
G02*
X13920000Y19880000I0J100000D01*
G01*
G37*
G04 #@! TD.AperFunction*
G04 #@! TA.AperFunction,SMDPad,CuDef*
G36*
G01*
X14560000Y20580000D02*
X14560000Y20780000D01*
G75*
G02*
X14660000Y20880000I100000J0D01*
G01*
X14920000Y20880000D01*
G75*
G02*
X15020000Y20780000I0J-100000D01*
G01*
X15020000Y20580000D01*
G75*
G02*
X14920000Y20480000I-100000J0D01*
G01*
X14660000Y20480000D01*
G75*
G02*
X14560000Y20580000I0J100000D01*
G01*
G37*
G04 #@! TD.AperFunction*
G04 #@! TA.AperFunction,SMDPad,CuDef*
G36*
G01*
X13920000Y20580000D02*
X13920000Y20780000D01*
G75*
G02*
X14020000Y20880000I100000J0D01*
G01*
X14280000Y20880000D01*
G75*
G02*
X14380000Y20780000I0J-100000D01*
G01*
X14380000Y20580000D01*
G75*
G02*
X14280000Y20480000I-100000J0D01*
G01*
X14020000Y20480000D01*
G75*
G02*
X13920000Y20580000I0J100000D01*
G01*
G37*
G04 #@! TD.AperFunction*
G04 #@! TA.AperFunction,SMDPad,CuDef*
G36*
G01*
X13830000Y25100000D02*
X13830000Y25300000D01*
G75*
G02*
X13930000Y25400000I100000J0D01*
G01*
X14190000Y25400000D01*
G75*
G02*
X14290000Y25300000I0J-100000D01*
G01*
X14290000Y25100000D01*
G75*
G02*
X14190000Y25000000I-100000J0D01*
G01*
X13930000Y25000000D01*
G75*
G02*
X13830000Y25100000I0J100000D01*
G01*
G37*
G04 #@! TD.AperFunction*
G04 #@! TA.AperFunction,SMDPad,CuDef*
G36*
G01*
X14470000Y25100000D02*
X14470000Y25300000D01*
G75*
G02*
X14570000Y25400000I100000J0D01*
G01*
X14830000Y25400000D01*
G75*
G02*
X14930000Y25300000I0J-100000D01*
G01*
X14930000Y25100000D01*
G75*
G02*
X14830000Y25000000I-100000J0D01*
G01*
X14570000Y25000000D01*
G75*
G02*
X14470000Y25100000I0J100000D01*
G01*
G37*
G04 #@! TD.AperFunction*
G04 #@! TA.AperFunction,SMDPad,CuDef*
G36*
G01*
X14930000Y26700000D02*
X14930000Y26500000D01*
G75*
G02*
X14830000Y26400000I-100000J0D01*
G01*
X14570000Y26400000D01*
G75*
G02*
X14470000Y26500000I0J100000D01*
G01*
X14470000Y26700000D01*
G75*
G02*
X14570000Y26800000I100000J0D01*
G01*
X14830000Y26800000D01*
G75*
G02*
X14930000Y26700000I0J-100000D01*
G01*
G37*
G04 #@! TD.AperFunction*
G04 #@! TA.AperFunction,SMDPad,CuDef*
G36*
G01*
X14290000Y26700000D02*
X14290000Y26500000D01*
G75*
G02*
X14190000Y26400000I-100000J0D01*
G01*
X13930000Y26400000D01*
G75*
G02*
X13830000Y26500000I0J100000D01*
G01*
X13830000Y26700000D01*
G75*
G02*
X13930000Y26800000I100000J0D01*
G01*
X14190000Y26800000D01*
G75*
G02*
X14290000Y26700000I0J-100000D01*
G01*
G37*
G04 #@! TD.AperFunction*
G04 #@! TA.AperFunction,SMDPad,CuDef*
G36*
G01*
X14930000Y27400000D02*
X14930000Y27200000D01*
G75*
G02*
X14830000Y27100000I-100000J0D01*
G01*
X14570000Y27100000D01*
G75*
G02*
X14470000Y27200000I0J100000D01*
G01*
X14470000Y27400000D01*
G75*
G02*
X14570000Y27500000I100000J0D01*
G01*
X14830000Y27500000D01*
G75*
G02*
X14930000Y27400000I0J-100000D01*
G01*
G37*
G04 #@! TD.AperFunction*
G04 #@! TA.AperFunction,SMDPad,CuDef*
G36*
G01*
X14290000Y27400000D02*
X14290000Y27200000D01*
G75*
G02*
X14190000Y27100000I-100000J0D01*
G01*
X13930000Y27100000D01*
G75*
G02*
X13830000Y27200000I0J100000D01*
G01*
X13830000Y27400000D01*
G75*
G02*
X13930000Y27500000I100000J0D01*
G01*
X14190000Y27500000D01*
G75*
G02*
X14290000Y27400000I0J-100000D01*
G01*
G37*
G04 #@! TD.AperFunction*
G04 #@! TA.AperFunction,SMDPad,CuDef*
G36*
G01*
X14560000Y21280000D02*
X14560000Y21480000D01*
G75*
G02*
X14660000Y21580000I100000J0D01*
G01*
X14920000Y21580000D01*
G75*
G02*
X15020000Y21480000I0J-100000D01*
G01*
X15020000Y21280000D01*
G75*
G02*
X14920000Y21180000I-100000J0D01*
G01*
X14660000Y21180000D01*
G75*
G02*
X14560000Y21280000I0J100000D01*
G01*
G37*
G04 #@! TD.AperFunction*
G04 #@! TA.AperFunction,SMDPad,CuDef*
G36*
G01*
X13920000Y21280000D02*
X13920000Y21480000D01*
G75*
G02*
X14020000Y21580000I100000J0D01*
G01*
X14280000Y21580000D01*
G75*
G02*
X14380000Y21480000I0J-100000D01*
G01*
X14380000Y21280000D01*
G75*
G02*
X14280000Y21180000I-100000J0D01*
G01*
X14020000Y21180000D01*
G75*
G02*
X13920000Y21280000I0J100000D01*
G01*
G37*
G04 #@! TD.AperFunction*
G04 #@! TA.AperFunction,SMDPad,CuDef*
G36*
G01*
X3698198Y18559620D02*
X3839620Y18418198D01*
G75*
G02*
X3839620Y18276776I-70711J-70711D01*
G01*
X3655772Y18092928D01*
G75*
G02*
X3514350Y18092928I-70711J70711D01*
G01*
X3372928Y18234350D01*
G75*
G02*
X3372928Y18375772I70711J70711D01*
G01*
X3556776Y18559620D01*
G75*
G02*
X3698198Y18559620I70711J-70711D01*
G01*
G37*
G04 #@! TD.AperFunction*
G04 #@! TA.AperFunction,SMDPad,CuDef*
G36*
G01*
X3245650Y18107072D02*
X3387072Y17965650D01*
G75*
G02*
X3387072Y17824228I-70711J-70711D01*
G01*
X3203224Y17640380D01*
G75*
G02*
X3061802Y17640380I-70711J70711D01*
G01*
X2920380Y17781802D01*
G75*
G02*
X2920380Y17923224I70711J70711D01*
G01*
X3104228Y18107072D01*
G75*
G02*
X3245650Y18107072I70711J-70711D01*
G01*
G37*
G04 #@! TD.AperFunction*
D15*
X11640000Y14170000D03*
X4050000Y8130000D03*
X2930000Y21590000D03*
X12270000Y23250000D03*
X8890000Y7360000D03*
X7200000Y26120000D03*
X8890000Y9360000D03*
X12700000Y23670000D03*
X11850000Y22830000D03*
X12700000Y22830000D03*
X11850000Y23680000D03*
X9890000Y16300000D03*
X10900000Y17180000D03*
X8890000Y15290000D03*
X7900000Y16300000D03*
X7000000Y17180000D03*
X6260000Y5180000D03*
X15740000Y25400000D03*
X8740000Y19450000D03*
X3380000Y15240000D03*
X14450000Y15100000D03*
X15740000Y20320000D03*
X8890000Y17280000D03*
X2980000Y18570000D03*
X8550000Y26550000D03*
X4440000Y20340000D03*
X9900000Y27680000D03*
X13810000Y7130000D03*
X6680000Y27760000D03*
X13810000Y9030000D03*
X5550000Y24040000D03*
X4950000Y24040000D03*
X4350000Y24040000D03*
X3750000Y24040000D03*
X4050000Y23520000D03*
X4650000Y23520000D03*
X5250000Y23520000D03*
X3620000Y22090000D03*
X14290000Y5080000D03*
X15990000Y5080000D03*
X3410000Y2540000D03*
X5990000Y21990000D03*
X4740000Y9620000D03*
X13170000Y7130000D03*
X12230000Y26130000D03*
X6830000Y13520000D03*
X13780000Y21740000D03*
X14000000Y17220000D03*
X3990000Y19890000D03*
X3750000Y25800000D03*
X3150000Y25800000D03*
X2980000Y19170000D03*
X13490000Y20580000D03*
X5550000Y14300000D03*
X5550000Y25710000D03*
X8490000Y27730000D03*
X10560000Y30170000D03*
X7220000Y30170000D03*
X11760000Y20970000D03*
X11640000Y20380000D03*
X12230000Y14290000D03*
X8800000Y11350000D03*
X9790000Y11350000D03*
X10390000Y11350000D03*
X4990000Y19420000D03*
X2970000Y12320000D03*
X13570000Y19630000D03*
X13090000Y19270000D03*
X12940000Y15020000D03*
X6230000Y13580000D03*
X6140000Y14180000D03*
X12350000Y14880000D03*
X3840000Y15640000D03*
X4370000Y15940000D03*
X4480000Y15340000D03*
X5080000Y15240000D03*
X2970000Y11710000D03*
X13680000Y15700000D03*
X13080000Y15610000D03*
X13770000Y16300000D03*
X13020000Y19870000D03*
X4350000Y25710000D03*
X4060000Y10110000D03*
X4950000Y25710000D03*
X11290000Y13680000D03*
X5070000Y6410000D03*
X5790000Y20030000D03*
X5890000Y20640000D03*
X7550000Y21800000D03*
X6490000Y20740000D03*
X12410000Y8360000D03*
X7850000Y22400000D03*
X14280000Y22090000D03*
X13560000Y26600000D03*
X7710000Y10950000D03*
X6810000Y10950000D03*
X6590000Y21340000D03*
X13560000Y27300000D03*
X13210000Y21170000D03*
X14310000Y8430000D03*
X12230000Y20530000D03*
X11140000Y21210000D03*
X14310000Y7730000D03*
X10780000Y21690000D03*
X3280000Y27770000D03*
X3880000Y27770000D03*
D16*
X8890000Y8195000D02*
X8890000Y9040000D01*
X8890000Y9040000D02*
X9950000Y10100000D01*
X5790000Y28700000D02*
X5790000Y29410000D01*
X6260000Y6375000D02*
X6190000Y6445000D01*
X14790000Y18580000D02*
X14790000Y21380000D01*
X4051178Y14003726D02*
X3497452Y14557452D01*
X4051178Y13961178D02*
X4051178Y14003726D01*
X3497452Y14557452D02*
X3260000Y14794904D01*
X3260000Y15120000D02*
X3380000Y15240000D01*
X3260000Y14794904D02*
X3260000Y15120000D01*
X4440000Y20340000D02*
X4442548Y20340000D01*
X9900000Y27450000D02*
X10200000Y27150000D01*
X9900000Y27680000D02*
X9900000Y27450000D01*
X12140000Y28875000D02*
X12140000Y28440000D01*
X12140000Y28440000D02*
X12870000Y27710000D01*
X12870000Y27710000D02*
X12870000Y26600000D01*
D17*
X6680000Y27610000D02*
X6290000Y27220000D01*
X6680000Y27760000D02*
X6680000Y27610000D01*
X6325000Y24645000D02*
X6650000Y24970000D01*
X6175000Y24645000D02*
X6325000Y24645000D01*
X4025000Y24645000D02*
X4350000Y24970000D01*
X3875000Y24645000D02*
X4025000Y24645000D01*
D18*
X7100000Y26220000D02*
X7200000Y26120000D01*
X7100000Y26630000D02*
X7100000Y26220000D01*
D16*
X13810000Y9030000D02*
X13810000Y9500000D01*
D17*
X5640000Y28490000D02*
X4370000Y27220000D01*
X5640000Y28875000D02*
X5640000Y28490000D01*
X5640000Y28875000D02*
X5640000Y29300000D01*
X5640000Y28875000D02*
X5640000Y29390000D01*
X4570000Y29790000D02*
X5270000Y29790000D01*
X5640000Y29420000D02*
X5640000Y28875000D01*
X5270000Y29790000D02*
X5640000Y29420000D01*
X13210000Y29790000D02*
X12510000Y29790000D01*
X12140000Y29420000D02*
X12140000Y28875000D01*
X12510000Y29790000D02*
X12140000Y29420000D01*
X5595000Y24645000D02*
X5500000Y24550000D01*
X6175000Y24645000D02*
X5595000Y24645000D01*
D16*
X15400000Y19980000D02*
X15740000Y20320000D01*
X14790000Y19980000D02*
X15400000Y19980000D01*
X15540000Y25200000D02*
X15740000Y25400000D01*
X14700000Y25200000D02*
X15540000Y25200000D01*
X4051178Y13928822D02*
X4633726Y13346274D01*
X4051178Y13961178D02*
X4051178Y13928822D01*
D17*
X3295000Y24645000D02*
X3200000Y24550000D01*
X3875000Y24645000D02*
X3295000Y24645000D01*
D16*
X2980000Y18227452D02*
X2980000Y18570000D01*
X3243726Y17963726D02*
X2980000Y18227452D01*
X6260000Y5180000D02*
X6260000Y6375000D01*
X13810000Y7130000D02*
X13810000Y6660000D01*
X13847500Y7092500D02*
X13810000Y7130000D01*
X14580000Y7092500D02*
X13847500Y7092500D01*
X4703726Y20076274D02*
X4440000Y20340000D01*
X4846274Y20076274D02*
X4703726Y20076274D01*
D17*
X8550000Y26550000D02*
X8550000Y25875000D01*
D16*
X14450000Y15100000D02*
X13790000Y15100000D01*
X13560000Y14870000D02*
X13560000Y14345000D01*
X13790000Y15100000D02*
X13560000Y14870000D01*
D18*
X5220000Y9620000D02*
X5220000Y8850000D01*
D16*
X6857767Y13480000D02*
X7343204Y13965437D01*
X6850000Y13480000D02*
X6857767Y13480000D01*
X14079087Y18580000D02*
X13265223Y17766136D01*
X14140000Y18580000D02*
X14079087Y18580000D01*
X13780000Y21740609D02*
X13294924Y22225685D01*
X13780000Y21740000D02*
X13780000Y21740609D01*
X13790000Y21740000D02*
X14150000Y21380000D01*
X13780000Y21740000D02*
X13790000Y21740000D01*
X14000000Y17220000D02*
X14270000Y17490000D01*
X14270000Y18460000D02*
X14150000Y18580000D01*
X14270000Y17490000D02*
X14270000Y18460000D01*
X13180000Y9490000D02*
X13170000Y9500000D01*
X3990000Y19890000D02*
X3990000Y19887452D01*
X12230000Y26130000D02*
X12230000Y26600000D01*
X11550000Y26600000D02*
X11300000Y26350000D01*
X12230000Y26600000D02*
X11550000Y26600000D01*
X11527157Y24559138D02*
X11100000Y24986295D01*
X11100000Y26150000D02*
X11300000Y26350000D01*
X11100000Y24986295D02*
X11100000Y26150000D01*
D17*
X3305000Y25295000D02*
X3200000Y25190000D01*
X3875000Y25295000D02*
X3305000Y25295000D01*
D16*
X5086274Y12883726D02*
X5335183Y12634817D01*
X5086274Y12893726D02*
X5086274Y12883726D01*
X6830000Y13476998D02*
X6830000Y13520000D01*
X5987819Y12634817D02*
X6830000Y13476998D01*
X5335183Y12634817D02*
X5987819Y12634817D01*
D18*
X4740000Y9620000D02*
X5220000Y9620000D01*
D16*
X13170000Y5960000D02*
X13170000Y10200000D01*
X12355000Y9500000D02*
X11590000Y10265000D01*
X13170000Y9500000D02*
X12355000Y9500000D01*
D17*
X3750000Y25800000D02*
X3150000Y25800000D01*
X3200000Y25750000D02*
X3150000Y25800000D01*
X3200000Y25190000D02*
X3200000Y25750000D01*
D16*
X6363726Y22363726D02*
X5990000Y21990000D01*
X6363726Y22403726D02*
X6363726Y22363726D01*
X4256274Y19623726D02*
X3990000Y19890000D01*
X4393726Y19623726D02*
X4256274Y19623726D01*
X4393726Y19301401D02*
X5221884Y18473243D01*
X4393726Y19623726D02*
X4393726Y19301401D01*
X3954639Y18326274D02*
X4514777Y17766136D01*
X3606274Y18326274D02*
X3954639Y18326274D01*
X3606274Y18646728D02*
X3606274Y18326274D01*
X3083002Y19170000D02*
X3606274Y18646728D01*
X2980000Y19170000D02*
X3083002Y19170000D01*
D17*
X3410000Y2540000D02*
X5080000Y2540000D01*
X5080000Y2540000D02*
X6350000Y1270000D01*
X14290000Y5080000D02*
X15990000Y5080000D01*
D16*
X14150000Y19280000D02*
X14150000Y20680000D01*
X6276097Y15026097D02*
X5550000Y14300000D01*
X6282544Y15026097D02*
X6276097Y15026097D01*
D18*
X4825000Y24645000D02*
X5220000Y25040000D01*
X5350000Y25040000D02*
X5500000Y25190000D01*
X5220000Y25040000D02*
X5350000Y25040000D01*
D17*
X5605000Y25295000D02*
X5500000Y25190000D01*
X6175000Y25295000D02*
X5605000Y25295000D01*
D16*
X5646371Y14203629D02*
X5550000Y14300000D01*
X5646371Y13443823D02*
X5646371Y14203629D01*
X5586274Y13383726D02*
X5646371Y13443823D01*
D17*
X5500000Y25660000D02*
X5550000Y25710000D01*
X5500000Y25190000D02*
X5500000Y25660000D01*
D16*
X11850000Y19180000D02*
X12506593Y19836593D01*
X12506593Y19836593D02*
X12506593Y20083407D01*
X14050000Y20580000D02*
X14150000Y20680000D01*
X13490000Y20580000D02*
X14050000Y20580000D01*
X13003186Y20580000D02*
X12506593Y20083407D01*
X13490000Y20580000D02*
X13003186Y20580000D01*
X11810000Y21653002D02*
X11810000Y21660000D01*
X12883002Y20580000D02*
X11810000Y21653002D01*
X13003186Y20580000D02*
X12883002Y20580000D01*
D17*
X5384992Y27250000D02*
X5330000Y27250000D01*
X6440000Y28305008D02*
X5384992Y27250000D01*
X6440000Y28875000D02*
X6440000Y28305008D01*
X6440000Y29394992D02*
X7220028Y30175020D01*
X6440000Y28875000D02*
X6440000Y29394992D01*
X11340000Y29394992D02*
X11340000Y28875000D01*
X10559972Y30175020D02*
X11340000Y29394992D01*
X7220028Y30175020D02*
X10559972Y30175020D01*
X8490000Y27730000D02*
X8550000Y27670000D01*
X8550000Y27225000D02*
X8550000Y27670000D01*
D18*
X15455019Y28155019D02*
X16510000Y29210000D01*
X15455019Y26255019D02*
X15455019Y28155019D01*
X15100000Y25900000D02*
X15455019Y26255019D01*
X14700000Y25900000D02*
X15100000Y25900000D01*
X14690000Y27310000D02*
X14700000Y27300000D01*
X14700000Y32480000D02*
X16510000Y34290000D01*
X14700000Y27300000D02*
X14700000Y32480000D01*
X15155010Y30395010D02*
X16510000Y31750000D01*
X15155010Y27055010D02*
X15155010Y30395010D01*
X14700000Y26600000D02*
X15155010Y27055010D01*
X11563998Y20970000D02*
X11760000Y20970000D01*
X10835008Y20241010D02*
X11563998Y20970000D01*
X10790349Y20241010D02*
X10835008Y20241010D01*
X11147456Y19887456D02*
X11640000Y20380000D01*
X11143903Y19887456D02*
X11147456Y19887456D01*
D16*
X13810000Y5960000D02*
X13810000Y5500000D01*
X13810000Y5500000D02*
X12700000Y4390000D01*
X12700000Y2540000D02*
X13970000Y1270000D01*
X12700000Y4390000D02*
X12700000Y2540000D01*
X13810000Y5960000D02*
X14370000Y5960000D01*
X14580000Y6170000D02*
X14580000Y6567500D01*
X14370000Y5960000D02*
X14580000Y6170000D01*
D18*
X11497456Y15026097D02*
X11497456Y15022544D01*
X12230000Y14290000D02*
X12230000Y14293553D01*
X12230000Y14293553D02*
X11497456Y15026097D01*
X1270000Y21590000D02*
X2930000Y21590000D01*
X10510000Y13185127D02*
X10083243Y13611884D01*
X10510000Y12635722D02*
X10510000Y13185127D01*
X9790000Y11915722D02*
X10510000Y12635722D01*
X9790000Y11350000D02*
X9790000Y11915722D01*
X10390000Y11350000D02*
X10390000Y12091444D01*
X10436796Y13965437D02*
X10830000Y13572233D01*
X10830000Y12531444D02*
X10390000Y12091444D01*
X10830000Y13572233D02*
X10830000Y12531444D01*
X10150000Y12838019D02*
X10150000Y12700000D01*
X10150000Y12700000D02*
X8800000Y11350000D01*
X9729689Y13258330D02*
X10150000Y12838019D01*
X5575437Y18826796D02*
X5573204Y18826796D01*
X4990000Y19412233D02*
X5575437Y18826796D01*
X4990000Y19420000D02*
X4990000Y19412233D01*
X4050000Y8130000D02*
X2470000Y9710000D01*
X2913998Y12320000D02*
X2970000Y12320000D01*
X2470000Y11876002D02*
X2913998Y12320000D01*
X2470000Y9710000D02*
X2470000Y11876002D01*
X13600000Y18808019D02*
X13600000Y19630000D01*
X12911670Y18119689D02*
X13600000Y18808019D01*
X13090000Y19005127D02*
X13090000Y19270000D01*
X12558116Y18473243D02*
X13090000Y19005127D01*
X13054873Y15590000D02*
X12558116Y16086757D01*
X13060000Y15590000D02*
X13054873Y15590000D01*
X12937767Y15000000D02*
X12204563Y15733204D01*
X12940000Y15000000D02*
X12937767Y15000000D01*
X11143903Y14672544D02*
X11143903Y14616097D01*
X11640000Y14176447D02*
X11143903Y14672544D01*
X11640000Y14170000D02*
X11640000Y14176447D01*
X6250661Y13580000D02*
X6989651Y14318990D01*
X6230000Y13580000D02*
X6250661Y13580000D01*
X6632544Y14672544D02*
X6140000Y14180000D01*
X6636097Y14672544D02*
X6632544Y14672544D01*
X12350000Y14880661D02*
X11851010Y15379651D01*
X12350000Y14880000D02*
X12350000Y14880661D01*
X3789999Y15690001D02*
X3840000Y15640000D01*
X3163999Y15690001D02*
X3789999Y15690001D01*
X2929999Y14368163D02*
X2929999Y15456001D01*
X4988355Y12309807D02*
X2929999Y14368163D01*
X2929999Y15456001D02*
X3163999Y15690001D01*
X6394680Y12309807D02*
X4988355Y12309807D01*
X7696757Y13611884D02*
X6394680Y12309807D01*
X4868330Y16440311D02*
X4868330Y16438330D01*
X4868330Y16438330D02*
X4410000Y15980000D01*
X4480000Y15344873D02*
X5221884Y16086757D01*
X4480000Y15340000D02*
X4480000Y15344873D01*
X5573204Y15733204D02*
X5120000Y15280000D01*
X5575437Y15733204D02*
X5573204Y15733204D01*
X2960211Y11709789D02*
X2960000Y11710000D01*
X7443419Y12509990D02*
X6643215Y11709788D01*
X8009077Y12509990D02*
X7443419Y12509990D01*
X8403864Y12904777D02*
X8009077Y12509990D01*
X2970212Y11709788D02*
X2970000Y11710000D01*
X6643215Y11709788D02*
X2970212Y11709788D01*
X13650000Y15701981D02*
X12911670Y16440311D01*
X13650000Y15700000D02*
X13650000Y15701981D01*
X13760000Y16299087D02*
X13265223Y16793864D01*
X13760000Y16290000D02*
X13760000Y16299087D01*
X12204563Y18826796D02*
X12639999Y19262232D01*
X12639999Y19486001D02*
X13023998Y19870000D01*
X12639999Y19262232D02*
X12639999Y19486001D01*
D17*
X4350000Y25710000D02*
X4950000Y25710000D01*
X4180000Y26450000D02*
X4370000Y26260000D01*
X3410000Y26450000D02*
X4180000Y26450000D01*
X4560000Y26450000D02*
X4370000Y26260000D01*
X5330000Y26450000D02*
X4560000Y26450000D01*
X6100000Y26450000D02*
X6290000Y26260000D01*
X5330000Y26450000D02*
X6100000Y26450000D01*
D18*
X7125000Y24645000D02*
X7300000Y24820000D01*
X7300000Y25120000D02*
X7125000Y25295000D01*
X7300000Y24820000D02*
X7300000Y25120000D01*
D17*
X4370000Y25720000D02*
X4380000Y25710000D01*
X4825000Y25585000D02*
X4950000Y25710000D01*
X4825000Y25295000D02*
X4825000Y25585000D01*
X4370000Y25730000D02*
X4350000Y25710000D01*
X4370000Y26260000D02*
X4370000Y25730000D01*
X6290000Y26130000D02*
X7125000Y25295000D01*
X6290000Y26260000D02*
X6290000Y26130000D01*
D18*
X11289339Y13820000D02*
X10790349Y14318990D01*
X11290000Y13820000D02*
X11289339Y13820000D01*
X10210636Y24586148D02*
X10934460Y24586149D01*
X10934460Y24586149D02*
X11244314Y24276295D01*
X10210636Y26339364D02*
X10200000Y26350000D01*
X10210636Y24586148D02*
X10210636Y26339364D01*
X5339999Y21981057D02*
X5339999Y19769340D01*
X6708942Y23350000D02*
X5339999Y21981057D01*
X8974488Y23350000D02*
X6708942Y23350000D01*
X5339999Y19769340D02*
X5928990Y19180349D01*
X10210636Y24586148D02*
X8974488Y23350000D01*
X5220000Y6560000D02*
X5070000Y6410000D01*
X5220000Y8210000D02*
X5220000Y6560000D01*
X6767482Y11409779D02*
X4499780Y11409780D01*
X7567687Y12209980D02*
X6767482Y11409779D01*
X8681339Y12209980D02*
X7567687Y12209980D01*
X9376136Y12904777D02*
X8681339Y12209980D01*
X4499780Y11409780D02*
X3520000Y10430000D01*
X5220000Y8210000D02*
X4710000Y8210000D01*
X3520000Y9400000D02*
X3520000Y10430000D01*
X4710000Y8210000D02*
X3520000Y9400000D01*
X10026548Y21598529D02*
X10026548Y22136548D01*
X9729689Y21301670D02*
X10026548Y21598529D01*
X10026548Y22136548D02*
X10680000Y22790000D01*
X10971852Y22487538D02*
X10937538Y22487538D01*
X10326558Y21191431D02*
X10326558Y21876558D01*
X10083243Y20948116D02*
X10326558Y21191431D01*
X10326558Y21876558D02*
X10950000Y22500000D01*
X6282544Y19533903D02*
X6282544Y19537456D01*
X5790000Y20026447D02*
X6282544Y19533903D01*
X5790000Y20030000D02*
X5790000Y20026447D01*
X4780000Y3810000D02*
X3810000Y3810000D01*
X9474278Y2390000D02*
X6200000Y2390000D01*
X12200000Y6195010D02*
X10310010Y4305020D01*
X12030000Y7090000D02*
X12200000Y6920000D01*
X6200000Y2390000D02*
X4780000Y3810000D01*
X10310009Y3225731D02*
X9474278Y2390000D01*
X11110000Y7090000D02*
X12030000Y7090000D01*
X10910000Y7290000D02*
X11110000Y7090000D01*
X10910000Y8870000D02*
X10910000Y7290000D01*
X10310010Y4305020D02*
X10310009Y3225731D01*
X12200000Y6920000D02*
X12200000Y6195010D01*
X11035000Y8995000D02*
X10910000Y8870000D01*
X11590000Y8995000D02*
X11035000Y8995000D01*
X5890000Y20633553D02*
X6636097Y19887456D01*
X5890000Y20640000D02*
X5890000Y20633553D01*
X5615000Y7715000D02*
X6190000Y7715000D01*
X5520010Y5540010D02*
X5520010Y7620010D01*
X5520010Y7620010D02*
X5615000Y7715000D01*
X5090000Y5110000D02*
X5520010Y5540010D01*
X3260002Y5110000D02*
X5090000Y5110000D01*
X2540000Y4389998D02*
X3260002Y5110000D01*
X2540000Y2540000D02*
X2540000Y4389998D01*
X3810000Y1270000D02*
X2540000Y2540000D01*
X7551981Y21800000D02*
X8050311Y21301670D01*
X7550000Y21800000D02*
X7551981Y21800000D01*
X7469991Y2690009D02*
X6350000Y3810000D01*
X10010000Y3350000D02*
X9350009Y2690009D01*
X10010000Y4429288D02*
X10010000Y3350000D01*
X11590000Y6009288D02*
X10010000Y4429288D01*
X9350009Y2690009D02*
X7469991Y2690009D01*
X11590000Y6445000D02*
X11590000Y6009288D01*
X6870000Y8870000D02*
X6870000Y5830000D01*
X6755000Y8985000D02*
X6870000Y8870000D01*
X6870000Y5830000D02*
X8890000Y3810000D01*
X6190000Y8985000D02*
X6755000Y8985000D01*
X6490000Y20740000D02*
X6490661Y20740000D01*
X6490661Y20740000D02*
X6989651Y20241010D01*
X7850000Y22400000D02*
X7350000Y22400000D01*
X7350000Y22400000D02*
X7316274Y22366274D01*
X11775000Y7725000D02*
X12410000Y8360000D01*
X11590000Y7725000D02*
X11775000Y7725000D01*
X7306274Y22366274D02*
X6816274Y22856274D01*
X7316274Y22366274D02*
X7306274Y22366274D01*
X14060000Y25200000D02*
X14060000Y24810000D01*
X14060000Y24810000D02*
X14510000Y24360000D01*
X14510000Y23440762D02*
X13860609Y22791371D01*
X14510000Y24360000D02*
X14510000Y23440762D01*
X13560000Y26600000D02*
X14060000Y26600000D01*
X14179999Y22190001D02*
X14280000Y22090000D01*
X13895685Y22190001D02*
X14179999Y22190001D01*
X13578148Y22507538D02*
X13895685Y22190001D01*
X7343204Y20594563D02*
X7335437Y20594563D01*
X6300000Y10210000D02*
X6190000Y10100000D01*
X6190000Y10255000D02*
X6190000Y10700000D01*
X6490000Y11000000D02*
X6190000Y10700000D01*
X6920000Y11000000D02*
X6490000Y11000000D01*
X5225000Y10255000D02*
X5220000Y10260000D01*
X6190000Y10255000D02*
X5225000Y10255000D01*
X6597767Y21340000D02*
X7343204Y20594563D01*
X6590000Y21340000D02*
X6597767Y21340000D01*
X6810000Y10950000D02*
X7710000Y10950000D01*
X3153726Y16686274D02*
X2530000Y16062548D01*
X2530000Y16062548D02*
X2530000Y14160000D01*
X3143726Y13546274D02*
X2530000Y14160000D01*
X3150000Y13546274D02*
X3143726Y13546274D01*
X8050000Y25725720D02*
X8050000Y25875000D01*
X8400000Y24772134D02*
X8400000Y25375720D01*
X6570000Y24140000D02*
X7767866Y24140000D01*
X8400000Y25375720D02*
X8050000Y25725720D01*
X2529999Y20099999D02*
X6570000Y24140000D01*
X2529999Y17310001D02*
X2529999Y20099999D01*
X7767866Y24140000D02*
X8400000Y24772134D01*
X3153726Y16686274D02*
X2529999Y17310001D01*
X8700000Y25375720D02*
X9050000Y25725720D01*
X8700000Y24647866D02*
X8700000Y25375720D01*
X7892124Y23839990D02*
X8700000Y24647866D01*
X6694268Y23839990D02*
X7892124Y23839990D01*
X3964723Y20945520D02*
X3950149Y20975783D01*
X4798678Y21923395D02*
X4813252Y21953658D01*
X3985666Y20919259D02*
X3964723Y20945520D01*
X3675103Y20301423D02*
X3675103Y20335012D01*
X4056377Y20848548D02*
X3985666Y20919259D01*
X4091893Y20692940D02*
X4099367Y20725687D01*
X4077319Y20662677D02*
X4091893Y20692940D01*
X3540459Y20680866D02*
X3561403Y20707126D01*
X4813252Y21953658D02*
X4834195Y21979918D01*
X4056377Y20636415D02*
X4077319Y20662677D01*
X3933517Y20593424D02*
X3967106Y20593424D01*
X3870506Y20615472D02*
X3900769Y20600898D01*
X3509253Y20169160D02*
X3542842Y20169160D01*
X4374413Y21499131D02*
X4388987Y21529394D01*
X4030116Y20615472D02*
X4056377Y20636415D01*
X3561403Y20707125D02*
X3587664Y20728068D01*
X4940260Y22085982D02*
X6694268Y23839990D01*
X3226410Y20325852D02*
X3259999Y20325852D01*
X4975616Y21626365D02*
X4834194Y21767787D01*
X3653055Y20238413D02*
X3667629Y20268676D01*
X4735763Y20971408D02*
X4728289Y21004155D01*
X3525885Y20650603D02*
X3540459Y20680866D01*
X3518411Y20617856D02*
X3525885Y20650603D01*
X4919092Y21378716D02*
X4949355Y21393290D01*
X3518411Y20584267D02*
X3518411Y20617856D01*
X4537165Y20813030D02*
X4569913Y20805556D01*
X4091893Y20792023D02*
X4077319Y20822286D01*
X3587664Y20728068D02*
X3617927Y20742642D01*
X4603502Y20805556D02*
X4636249Y20813030D01*
X3773535Y20707125D02*
X3844245Y20636415D01*
X4595801Y21576596D02*
X4622063Y21555653D01*
X3070000Y20215722D02*
X3137139Y20282861D01*
X4099367Y20759276D02*
X4091893Y20792023D01*
X3900769Y20600898D02*
X3933517Y20593424D01*
X3632113Y20424284D02*
X3561402Y20494995D01*
X4791203Y21857058D02*
X4791203Y21890648D01*
X3349271Y20282861D02*
X3419981Y20212151D01*
X4077319Y20822286D02*
X4056377Y20848548D01*
X3617927Y20742642D02*
X3650674Y20750116D01*
X3323009Y20303804D02*
X3349271Y20282861D01*
X3950149Y20975783D02*
X3942675Y21008531D01*
X3632113Y20212151D02*
X3653055Y20238413D01*
X4886345Y21371241D02*
X4919092Y21378716D01*
X3292746Y20318378D02*
X3323009Y20303804D01*
X3667629Y20268676D02*
X3675103Y20301423D01*
X3193663Y20318378D02*
X3226410Y20325852D01*
X3967106Y20593424D02*
X3999853Y20600898D01*
X3675103Y20335012D02*
X3667629Y20367759D01*
X4366939Y21432795D02*
X4366939Y21466384D01*
X3717010Y20742642D02*
X3747273Y20728068D01*
X3446242Y20191208D02*
X3476505Y20176634D01*
X3419981Y20212151D02*
X3446242Y20191208D01*
X4834194Y21767787D02*
X4813252Y21794048D01*
X4011928Y21152332D02*
X4042191Y21166906D01*
X3259999Y20325852D02*
X3292746Y20318378D01*
X3540459Y20521256D02*
X3525885Y20551519D01*
X3747273Y20728068D02*
X3773535Y20707125D01*
X3070000Y19910000D02*
X3070000Y20215722D01*
X4074938Y21174380D02*
X4108527Y21174380D01*
X3575589Y20176634D02*
X3605852Y20191208D01*
X4366939Y21466384D02*
X4374413Y21499131D01*
X4099367Y20725687D02*
X4099367Y20759276D01*
X4820008Y21378716D02*
X4852755Y21371241D01*
X3605852Y20191208D02*
X3632113Y20212151D01*
X3985667Y21131390D02*
X3985667Y21131389D01*
X3476505Y20176634D02*
X3509253Y20169160D01*
X4171537Y21152332D02*
X4197799Y21131389D01*
X3999853Y20600898D02*
X4030116Y20615472D01*
X3137139Y20282861D02*
X3163400Y20303804D01*
X3561402Y20494995D02*
X3540459Y20521256D01*
X4532791Y21598644D02*
X4565538Y21591170D01*
X3653055Y20398022D02*
X3632113Y20424284D01*
X3942675Y21008531D02*
X3942675Y21042120D01*
X3684263Y20750116D02*
X3717010Y20742642D01*
X3942675Y21042120D02*
X3950149Y21074867D01*
X3950149Y21074867D02*
X3964723Y21105130D01*
X3964723Y21105130D02*
X3985667Y21131390D01*
X3985667Y21131389D02*
X4011928Y21152332D01*
X4042191Y21166906D02*
X4074938Y21174380D01*
X4108527Y21174380D02*
X4141274Y21166906D01*
X3653726Y19326274D02*
X3070000Y19910000D01*
X4141274Y21166906D02*
X4171537Y21152332D01*
X4197799Y21131389D02*
X4480641Y20848547D01*
X4480641Y20848547D02*
X4506902Y20827604D01*
X4506902Y20827604D02*
X4537165Y20813030D01*
X4569913Y20805556D02*
X4603502Y20805556D01*
X4636249Y20813030D02*
X4666512Y20827604D01*
X3561403Y20707126D02*
X3561403Y20707125D01*
X4666512Y20827604D02*
X4692773Y20848547D01*
X4692773Y20848547D02*
X4713715Y20874809D01*
X4713715Y20874809D02*
X4728289Y20905072D01*
X4728289Y20905072D02*
X4735763Y20937819D01*
X4735763Y20937819D02*
X4735763Y20971408D01*
X4728289Y21004155D02*
X4713715Y21034418D01*
X4713715Y21034418D02*
X4692773Y21060680D01*
X4692773Y21060680D02*
X4409930Y21343523D01*
X4409930Y21343523D02*
X4388987Y21369784D01*
X4388987Y21369784D02*
X4374413Y21400047D01*
X3542842Y20169160D02*
X3575589Y20176634D01*
X4374413Y21400047D02*
X4366939Y21432795D01*
X4388987Y21529394D02*
X4409931Y21555654D01*
X4409931Y21555654D02*
X4409931Y21555653D01*
X4409931Y21555653D02*
X4436192Y21576596D01*
X3525885Y20551519D02*
X3518411Y20584267D01*
X4436192Y21576596D02*
X4466455Y21591170D01*
X3844245Y20636415D02*
X3870506Y20615472D01*
X4466455Y21591170D02*
X4499202Y21598644D01*
X4499202Y21598644D02*
X4532791Y21598644D01*
X4565538Y21591170D02*
X4595801Y21576596D01*
X4622063Y21555653D02*
X4763484Y21414232D01*
X4763484Y21414232D02*
X4789745Y21393290D01*
X4789745Y21393290D02*
X4820008Y21378716D01*
X4852755Y21371241D02*
X4886345Y21371241D01*
X4949355Y21393290D02*
X4975616Y21414232D01*
X4975616Y21414232D02*
X4996558Y21440494D01*
X4996558Y21440494D02*
X5011132Y21470757D01*
X5011132Y21470757D02*
X5018606Y21503504D01*
X5018606Y21503504D02*
X5018606Y21537093D01*
X3667629Y20367759D02*
X3653055Y20398022D01*
X5018606Y21537093D02*
X5011132Y21569840D01*
X3650674Y20750116D02*
X3684263Y20750116D01*
X5011132Y21569840D02*
X4996558Y21600103D01*
X3163400Y20303804D02*
X3193663Y20318378D01*
X4996558Y21600103D02*
X4975616Y21626365D01*
X4813252Y21794048D02*
X4798678Y21824311D01*
X9050000Y25725720D02*
X9050000Y25875000D01*
X4798678Y21824311D02*
X4791203Y21857058D01*
X4791203Y21890648D02*
X4798678Y21923395D01*
X4834195Y21979918D02*
X4940260Y22085982D01*
X14060000Y25900000D02*
X14060000Y25880000D01*
X13012081Y24559138D02*
X13440000Y24987057D01*
X13440000Y24987057D02*
X13440000Y25680000D01*
X13660000Y25900000D02*
X14060000Y25900000D01*
X13440000Y25680000D02*
X13660000Y25900000D01*
X13560000Y27300000D02*
X14060000Y27300000D01*
X13210000Y21179238D02*
X12729238Y21660000D01*
X13210000Y21170000D02*
X13210000Y21179238D01*
X9640000Y28225720D02*
X9640000Y28875000D01*
X9339270Y27924990D02*
X9640000Y28225720D01*
X8640000Y28225720D02*
X8940730Y27924990D01*
X8640000Y28875000D02*
X8640000Y28225720D01*
X9050000Y27919980D02*
X9044990Y27924990D01*
X9050000Y27225000D02*
X9050000Y27919980D01*
X9044990Y27924990D02*
X9339270Y27924990D01*
X8940730Y27924990D02*
X9044990Y27924990D01*
X9140000Y29524280D02*
X9140000Y28875000D01*
X8839270Y29825010D02*
X9140000Y29524280D01*
X8440730Y29825010D02*
X8839270Y29825010D01*
X8140000Y29524280D02*
X8440730Y29825010D01*
X8140000Y28875000D02*
X8140000Y29524280D01*
X8039999Y27946001D02*
X8039999Y27235001D01*
X8140000Y28875000D02*
X8140000Y28046002D01*
X8039999Y27235001D02*
X8050000Y27225000D01*
X8140000Y28046002D02*
X8039999Y27946001D01*
D16*
X5189339Y14640000D02*
X5928990Y15379651D01*
X4730000Y14640000D02*
X5189339Y14640000D01*
X4730000Y14240000D02*
X4730000Y14640000D01*
X5133726Y13836274D02*
X4730000Y14240000D01*
X4320000Y14640000D02*
X4730000Y14640000D01*
X3950000Y15010000D02*
X4320000Y14640000D01*
D18*
X7140000Y27290000D02*
X7110000Y27260000D01*
X7140000Y27310000D02*
X7100000Y27270000D01*
X7140000Y28875000D02*
X7140000Y27310000D01*
X10140000Y28225720D02*
X10140000Y28875000D01*
X10440730Y27924990D02*
X10140000Y28225720D01*
X11985010Y27924990D02*
X10440730Y27924990D01*
X12230000Y27680000D02*
X11985010Y27924990D01*
X12230000Y27300000D02*
X12230000Y27680000D01*
X8403864Y21655223D02*
X8403864Y21656136D01*
X8403864Y21655223D02*
X8403864Y21658862D01*
X10668784Y24286139D02*
X10961471Y23993452D01*
X10103480Y24054714D02*
X10334905Y24286139D01*
X10334905Y24286139D02*
X10668784Y24286139D01*
X10103480Y23559738D02*
X10103480Y24054714D01*
X8819991Y22276249D02*
X10103480Y23559738D01*
X8819990Y22071349D02*
X8819991Y22276249D01*
X8403864Y21655223D02*
X8819990Y22071349D01*
X9376136Y21655223D02*
X9415223Y21655223D01*
X10678629Y23710609D02*
X9120000Y22151980D01*
X9120000Y21911359D02*
X9376136Y21655223D01*
X9120000Y22151980D02*
X9120000Y21911359D01*
D16*
X14580000Y9592500D02*
X14580000Y9930000D01*
X14310000Y10200000D02*
X13810000Y10200000D01*
X14580000Y9930000D02*
X14310000Y10200000D01*
D18*
X11230001Y21300001D02*
X11140000Y21210000D01*
X11230001Y21614315D02*
X11230001Y21300001D01*
X11537538Y21921852D02*
X11230001Y21614315D01*
X12230000Y20266447D02*
X12230000Y20530000D01*
X11497456Y19533903D02*
X12230000Y20266447D01*
D16*
X14310000Y8430000D02*
X13810000Y8430000D01*
X14580000Y8700000D02*
X14310000Y8430000D01*
X14580000Y9067500D02*
X14580000Y8700000D01*
D18*
X10689999Y21599999D02*
X10780000Y21690000D01*
X10689999Y20847766D02*
X10689999Y21599999D01*
X10436796Y20594563D02*
X10689999Y20847766D01*
X10780000Y21690000D02*
X10780000Y21760000D01*
X10780000Y21760000D02*
X11240000Y22220000D01*
X14310000Y7730000D02*
X13810000Y7730000D01*
D16*
X14575000Y11095000D02*
X13560000Y11095000D01*
X15030010Y10639990D02*
X14575000Y11095000D01*
X15030010Y8450010D02*
X15030010Y10639990D01*
X14310000Y7730000D02*
X15030010Y8450010D01*
D18*
X3954639Y16233726D02*
X4514777Y16793864D01*
X3606274Y16233726D02*
X3954639Y16233726D01*
D17*
X3410000Y27250000D02*
X3410000Y27300000D01*
X3410000Y27640000D02*
X3280000Y27770000D01*
X3410000Y27250000D02*
X3410000Y27640000D01*
X3280000Y27770000D02*
X3880000Y27770000D01*
D18*
X4765769Y18222250D02*
X4868330Y18119689D01*
X4114293Y18873726D02*
X4868330Y18119689D01*
X4106274Y18873726D02*
X4114293Y18873726D01*
X6892864Y21752009D02*
X6892864Y21884588D01*
X7696757Y20948116D02*
X6892864Y21752009D01*
X4680202Y12009798D02*
X4290000Y12400000D01*
X6518948Y12009797D02*
X4680202Y12009798D01*
X7319151Y12810000D02*
X6518948Y12009797D01*
X7601981Y12810000D02*
X7319151Y12810000D01*
X8050311Y13258330D02*
X7601981Y12810000D01*
X4290000Y12406274D02*
X3602548Y13093726D01*
X4290000Y12400000D02*
X4290000Y12406274D01*
D16*
X2698549Y25060000D02*
X2706263Y24981681D01*
X2729108Y24906371D01*
X2766206Y24836966D01*
X2816131Y24776131D01*
X2876966Y24726206D01*
X2946371Y24689108D01*
X3021681Y24666263D01*
X3100000Y24658549D01*
X3300000Y24658549D01*
X3378319Y24666263D01*
X3453629Y24689108D01*
X3523034Y24726206D01*
X3583869Y24776131D01*
X3633794Y24836966D01*
X3651451Y24870000D01*
X3735257Y24870000D01*
X3750000Y24868548D01*
X3950000Y24868548D01*
X4008810Y24874340D01*
X4065361Y24891495D01*
X4117478Y24919352D01*
X4163159Y24956841D01*
X4313159Y25106841D01*
X4350000Y25151732D01*
X4386841Y25106841D01*
X4523682Y24970000D01*
X4386841Y24833159D01*
X4349352Y24787478D01*
X4321495Y24735361D01*
X4304340Y24678810D01*
X4298548Y24620000D01*
X4298548Y24520000D01*
X4304340Y24461190D01*
X4321495Y24404639D01*
X4349352Y24352522D01*
X4386841Y24306841D01*
X4432522Y24269352D01*
X4484639Y24241495D01*
X4541190Y24224340D01*
X4600000Y24218548D01*
X4950000Y24218548D01*
X5008810Y24224340D01*
X5065361Y24241495D01*
X5117478Y24269352D01*
X5163159Y24306841D01*
X5200648Y24352522D01*
X5228505Y24404639D01*
X5245660Y24461190D01*
X5251452Y24520000D01*
X5251452Y24541123D01*
X5371669Y24661339D01*
X5400000Y24658549D01*
X5600000Y24658549D01*
X5678319Y24666263D01*
X5753629Y24689108D01*
X5823034Y24726206D01*
X5883869Y24776131D01*
X5933794Y24836966D01*
X5951451Y24870000D01*
X6035257Y24870000D01*
X6050000Y24868548D01*
X6250000Y24868548D01*
X6308810Y24874340D01*
X6365361Y24891495D01*
X6417478Y24919352D01*
X6463159Y24956841D01*
X6613159Y25106841D01*
X6650000Y25151732D01*
X6686841Y25106841D01*
X6823682Y24970000D01*
X6686841Y24833159D01*
X6649352Y24787478D01*
X6621495Y24735361D01*
X6604340Y24678810D01*
X6598548Y24620000D01*
X6598548Y24520000D01*
X6599040Y24515000D01*
X6588415Y24515000D01*
X6569999Y24516814D01*
X6551583Y24515000D01*
X6551581Y24515000D01*
X6496487Y24509574D01*
X6425800Y24488131D01*
X6360653Y24453309D01*
X6303552Y24406448D01*
X6291810Y24392140D01*
X4127808Y22228137D01*
X4124824Y22243137D01*
X4085249Y22338681D01*
X4027794Y22424668D01*
X3954668Y22497794D01*
X3868681Y22555249D01*
X3773137Y22594824D01*
X3671708Y22615000D01*
X3568292Y22615000D01*
X3466863Y22594824D01*
X3371319Y22555249D01*
X3285332Y22497794D01*
X3212206Y22424668D01*
X3154751Y22338681D01*
X3115176Y22243137D01*
X3095000Y22141708D01*
X3095000Y22089910D01*
X3083137Y22094824D01*
X2981708Y22115000D01*
X2878292Y22115000D01*
X2776863Y22094824D01*
X2681319Y22055249D01*
X2595332Y21997794D01*
X2562538Y21965000D01*
X2305301Y21965000D01*
X2244807Y22111045D01*
X2124425Y22291209D01*
X1971209Y22444425D01*
X1791045Y22564807D01*
X1590858Y22647727D01*
X1378341Y22690000D01*
X1161659Y22690000D01*
X949142Y22647727D01*
X748955Y22564807D01*
X568791Y22444425D01*
X550000Y22425634D01*
X550000Y23294366D01*
X568791Y23275575D01*
X748955Y23155193D01*
X949142Y23072273D01*
X1161659Y23030000D01*
X1378341Y23030000D01*
X1590858Y23072273D01*
X1791045Y23155193D01*
X1971209Y23275575D01*
X2124425Y23428791D01*
X2244807Y23608955D01*
X2327727Y23809142D01*
X2370000Y24021659D01*
X2370000Y24238341D01*
X2327727Y24450858D01*
X2244807Y24651045D01*
X2124425Y24831209D01*
X1971209Y24984425D01*
X1791045Y25104807D01*
X1590858Y25187727D01*
X1378341Y25230000D01*
X1161659Y25230000D01*
X949142Y25187727D01*
X748955Y25104807D01*
X568791Y24984425D01*
X550000Y24965634D01*
X550000Y25300000D01*
X2698549Y25300000D01*
X2698549Y25060000D01*
G04 #@! TA.AperFunction,Conductor*
D19*
G36*
X2698549Y25060000D02*
G01*
X2706263Y24981681D01*
X2729108Y24906371D01*
X2766206Y24836966D01*
X2816131Y24776131D01*
X2876966Y24726206D01*
X2946371Y24689108D01*
X3021681Y24666263D01*
X3100000Y24658549D01*
X3300000Y24658549D01*
X3378319Y24666263D01*
X3453629Y24689108D01*
X3523034Y24726206D01*
X3583869Y24776131D01*
X3633794Y24836966D01*
X3651451Y24870000D01*
X3735257Y24870000D01*
X3750000Y24868548D01*
X3950000Y24868548D01*
X4008810Y24874340D01*
X4065361Y24891495D01*
X4117478Y24919352D01*
X4163159Y24956841D01*
X4313159Y25106841D01*
X4350000Y25151732D01*
X4386841Y25106841D01*
X4523682Y24970000D01*
X4386841Y24833159D01*
X4349352Y24787478D01*
X4321495Y24735361D01*
X4304340Y24678810D01*
X4298548Y24620000D01*
X4298548Y24520000D01*
X4304340Y24461190D01*
X4321495Y24404639D01*
X4349352Y24352522D01*
X4386841Y24306841D01*
X4432522Y24269352D01*
X4484639Y24241495D01*
X4541190Y24224340D01*
X4600000Y24218548D01*
X4950000Y24218548D01*
X5008810Y24224340D01*
X5065361Y24241495D01*
X5117478Y24269352D01*
X5163159Y24306841D01*
X5200648Y24352522D01*
X5228505Y24404639D01*
X5245660Y24461190D01*
X5251452Y24520000D01*
X5251452Y24541123D01*
X5371669Y24661339D01*
X5400000Y24658549D01*
X5600000Y24658549D01*
X5678319Y24666263D01*
X5753629Y24689108D01*
X5823034Y24726206D01*
X5883869Y24776131D01*
X5933794Y24836966D01*
X5951451Y24870000D01*
X6035257Y24870000D01*
X6050000Y24868548D01*
X6250000Y24868548D01*
X6308810Y24874340D01*
X6365361Y24891495D01*
X6417478Y24919352D01*
X6463159Y24956841D01*
X6613159Y25106841D01*
X6650000Y25151732D01*
X6686841Y25106841D01*
X6823682Y24970000D01*
X6686841Y24833159D01*
X6649352Y24787478D01*
X6621495Y24735361D01*
X6604340Y24678810D01*
X6598548Y24620000D01*
X6598548Y24520000D01*
X6599040Y24515000D01*
X6588415Y24515000D01*
X6569999Y24516814D01*
X6551583Y24515000D01*
X6551581Y24515000D01*
X6496487Y24509574D01*
X6425800Y24488131D01*
X6360653Y24453309D01*
X6303552Y24406448D01*
X6291810Y24392140D01*
X4127808Y22228137D01*
X4124824Y22243137D01*
X4085249Y22338681D01*
X4027794Y22424668D01*
X3954668Y22497794D01*
X3868681Y22555249D01*
X3773137Y22594824D01*
X3671708Y22615000D01*
X3568292Y22615000D01*
X3466863Y22594824D01*
X3371319Y22555249D01*
X3285332Y22497794D01*
X3212206Y22424668D01*
X3154751Y22338681D01*
X3115176Y22243137D01*
X3095000Y22141708D01*
X3095000Y22089910D01*
X3083137Y22094824D01*
X2981708Y22115000D01*
X2878292Y22115000D01*
X2776863Y22094824D01*
X2681319Y22055249D01*
X2595332Y21997794D01*
X2562538Y21965000D01*
X2305301Y21965000D01*
X2244807Y22111045D01*
X2124425Y22291209D01*
X1971209Y22444425D01*
X1791045Y22564807D01*
X1590858Y22647727D01*
X1378341Y22690000D01*
X1161659Y22690000D01*
X949142Y22647727D01*
X748955Y22564807D01*
X568791Y22444425D01*
X550000Y22425634D01*
X550000Y23294366D01*
X568791Y23275575D01*
X748955Y23155193D01*
X949142Y23072273D01*
X1161659Y23030000D01*
X1378341Y23030000D01*
X1590858Y23072273D01*
X1791045Y23155193D01*
X1971209Y23275575D01*
X2124425Y23428791D01*
X2244807Y23608955D01*
X2327727Y23809142D01*
X2370000Y24021659D01*
X2370000Y24238341D01*
X2327727Y24450858D01*
X2244807Y24651045D01*
X2124425Y24831209D01*
X1971209Y24984425D01*
X1791045Y25104807D01*
X1590858Y25187727D01*
X1378341Y25230000D01*
X1161659Y25230000D01*
X949142Y25187727D01*
X748955Y25104807D01*
X568791Y24984425D01*
X550000Y24965634D01*
X550000Y25300000D01*
X2698549Y25300000D01*
X2698549Y25060000D01*
G37*
G04 #@! TD.AperFunction*
M02*
