G04 #@! TF.GenerationSoftware,KiCad,Pcbnew,5.1.9-1.fc33*
G04 #@! TF.CreationDate,2021-01-17T22:01:28+01:00*
G04 #@! TF.ProjectId,reDIP-SID,72654449-502d-4534-9944-2e6b69636164,0.1*
G04 #@! TF.SameCoordinates,PX5e28010PY8011a50*
G04 #@! TF.FileFunction,Paste,Top*
G04 #@! TF.FilePolarity,Positive*
%FSLAX46Y46*%
G04 Gerber Fmt 4.6, Leading zero omitted, Abs format (unit mm)*
G04 Created by KiCad (PCBNEW 5.1.9-1.fc33) date 2021-01-17 22:01:28*
%MOMM*%
%LPD*%
G01*
G04 APERTURE LIST*
%ADD10R,1.500000X0.550000*%
%ADD11C,0.100000*%
%ADD12R,0.600000X0.500000*%
G04 APERTURE END LIST*
G36*
G01*
X11590000Y11472500D02*
X11590000Y11997500D01*
G75*
G02*
X11627500Y12035000I37500J0D01*
G01*
X11852500Y12035000D01*
G75*
G02*
X11890000Y11997500I0J-37500D01*
G01*
X11890000Y11472500D01*
G75*
G02*
X11852500Y11435000I-37500J0D01*
G01*
X11627500Y11435000D01*
G75*
G02*
X11590000Y11472500I0J37500D01*
G01*
G37*
G36*
G01*
X10890000Y11435000D02*
X10890000Y11585000D01*
G75*
G02*
X10940000Y11635000I50000J0D01*
G01*
X11140000Y11635000D01*
G75*
G02*
X11190000Y11585000I0J-50000D01*
G01*
X11190000Y11435000D01*
G75*
G02*
X11140000Y11385000I-50000J0D01*
G01*
X10940000Y11385000D01*
G75*
G02*
X10890000Y11435000I0J50000D01*
G01*
G37*
G36*
G01*
X10890000Y11885000D02*
X10890000Y12035000D01*
G75*
G02*
X10940000Y12085000I50000J0D01*
G01*
X11140000Y12085000D01*
G75*
G02*
X11190000Y12035000I0J-50000D01*
G01*
X11190000Y11885000D01*
G75*
G02*
X11140000Y11835000I-50000J0D01*
G01*
X10940000Y11835000D01*
G75*
G02*
X10890000Y11885000I0J50000D01*
G01*
G37*
G36*
G01*
X14710000Y35020000D02*
X14710000Y32920000D01*
G75*
G02*
X14510000Y32720000I-200000J0D01*
G01*
X12910000Y32720000D01*
G75*
G02*
X12710000Y32920000I0J200000D01*
G01*
X12710000Y35020000D01*
G75*
G02*
X12910000Y35220000I200000J0D01*
G01*
X14510000Y35220000D01*
G75*
G02*
X14710000Y35020000I0J-200000D01*
G01*
G37*
G36*
G01*
X5070000Y35020000D02*
X5070000Y32920000D01*
G75*
G02*
X4870000Y32720000I-200000J0D01*
G01*
X3270000Y32720000D01*
G75*
G02*
X3070000Y32920000I0J200000D01*
G01*
X3070000Y35020000D01*
G75*
G02*
X3270000Y35220000I200000J0D01*
G01*
X4870000Y35220000D01*
G75*
G02*
X5070000Y35020000I0J-200000D01*
G01*
G37*
G36*
G01*
X14710000Y31850000D02*
X14710000Y28350000D01*
G75*
G02*
X14510000Y28150000I-200000J0D01*
G01*
X12910000Y28150000D01*
G75*
G02*
X12710000Y28350000I0J200000D01*
G01*
X12710000Y31850000D01*
G75*
G02*
X12910000Y32050000I200000J0D01*
G01*
X14510000Y32050000D01*
G75*
G02*
X14710000Y31850000I0J-200000D01*
G01*
G37*
G36*
G01*
X5070000Y31850000D02*
X5070000Y28350000D01*
G75*
G02*
X4870000Y28150000I-200000J0D01*
G01*
X3270000Y28150000D01*
G75*
G02*
X3070000Y28350000I0J200000D01*
G01*
X3070000Y31850000D01*
G75*
G02*
X3270000Y32050000I200000J0D01*
G01*
X4870000Y32050000D01*
G75*
G02*
X5070000Y31850000I0J-200000D01*
G01*
G37*
G36*
G01*
X5940000Y29525000D02*
X5940000Y28225000D01*
G75*
G02*
X5865000Y28150000I-75000J0D01*
G01*
X5415000Y28150000D01*
G75*
G02*
X5340000Y28225000I0J75000D01*
G01*
X5340000Y29525000D01*
G75*
G02*
X5415000Y29600000I75000J0D01*
G01*
X5865000Y29600000D01*
G75*
G02*
X5940000Y29525000I0J-75000D01*
G01*
G37*
G36*
G01*
X6740000Y29525000D02*
X6740000Y28225000D01*
G75*
G02*
X6665000Y28150000I-75000J0D01*
G01*
X6215000Y28150000D01*
G75*
G02*
X6140000Y28225000I0J75000D01*
G01*
X6140000Y29525000D01*
G75*
G02*
X6215000Y29600000I75000J0D01*
G01*
X6665000Y29600000D01*
G75*
G02*
X6740000Y29525000I0J-75000D01*
G01*
G37*
G36*
G01*
X11640000Y29525000D02*
X11640000Y28225000D01*
G75*
G02*
X11565000Y28150000I-75000J0D01*
G01*
X11115000Y28150000D01*
G75*
G02*
X11040000Y28225000I0J75000D01*
G01*
X11040000Y29525000D01*
G75*
G02*
X11115000Y29600000I75000J0D01*
G01*
X11565000Y29600000D01*
G75*
G02*
X11640000Y29525000I0J-75000D01*
G01*
G37*
G36*
G01*
X12440000Y29525000D02*
X12440000Y28225000D01*
G75*
G02*
X12365000Y28150000I-75000J0D01*
G01*
X11915000Y28150000D01*
G75*
G02*
X11840000Y28225000I0J75000D01*
G01*
X11840000Y29525000D01*
G75*
G02*
X11915000Y29600000I75000J0D01*
G01*
X12365000Y29600000D01*
G75*
G02*
X12440000Y29525000I0J-75000D01*
G01*
G37*
G36*
G01*
X12440000Y29525000D02*
X12440000Y28225000D01*
G75*
G02*
X12365000Y28150000I-75000J0D01*
G01*
X11915000Y28150000D01*
G75*
G02*
X11840000Y28225000I0J75000D01*
G01*
X11840000Y29525000D01*
G75*
G02*
X11915000Y29600000I75000J0D01*
G01*
X12365000Y29600000D01*
G75*
G02*
X12440000Y29525000I0J-75000D01*
G01*
G37*
G36*
G01*
X11640000Y29525000D02*
X11640000Y28225000D01*
G75*
G02*
X11565000Y28150000I-75000J0D01*
G01*
X11115000Y28150000D01*
G75*
G02*
X11040000Y28225000I0J75000D01*
G01*
X11040000Y29525000D01*
G75*
G02*
X11115000Y29600000I75000J0D01*
G01*
X11565000Y29600000D01*
G75*
G02*
X11640000Y29525000I0J-75000D01*
G01*
G37*
G36*
G01*
X6740000Y29525000D02*
X6740000Y28225000D01*
G75*
G02*
X6665000Y28150000I-75000J0D01*
G01*
X6215000Y28150000D01*
G75*
G02*
X6140000Y28225000I0J75000D01*
G01*
X6140000Y29525000D01*
G75*
G02*
X6215000Y29600000I75000J0D01*
G01*
X6665000Y29600000D01*
G75*
G02*
X6740000Y29525000I0J-75000D01*
G01*
G37*
G36*
G01*
X5940000Y29525000D02*
X5940000Y28225000D01*
G75*
G02*
X5865000Y28150000I-75000J0D01*
G01*
X5415000Y28150000D01*
G75*
G02*
X5340000Y28225000I0J75000D01*
G01*
X5340000Y29525000D01*
G75*
G02*
X5415000Y29600000I75000J0D01*
G01*
X5865000Y29600000D01*
G75*
G02*
X5940000Y29525000I0J-75000D01*
G01*
G37*
G36*
G01*
X10790000Y29525000D02*
X10790000Y28225000D01*
G75*
G02*
X10715000Y28150000I-75000J0D01*
G01*
X10565000Y28150000D01*
G75*
G02*
X10490000Y28225000I0J75000D01*
G01*
X10490000Y29525000D01*
G75*
G02*
X10565000Y29600000I75000J0D01*
G01*
X10715000Y29600000D01*
G75*
G02*
X10790000Y29525000I0J-75000D01*
G01*
G37*
G36*
G01*
X10290000Y29525000D02*
X10290000Y28225000D01*
G75*
G02*
X10215000Y28150000I-75000J0D01*
G01*
X10065000Y28150000D01*
G75*
G02*
X9990000Y28225000I0J75000D01*
G01*
X9990000Y29525000D01*
G75*
G02*
X10065000Y29600000I75000J0D01*
G01*
X10215000Y29600000D01*
G75*
G02*
X10290000Y29525000I0J-75000D01*
G01*
G37*
G36*
G01*
X9790000Y29525000D02*
X9790000Y28225000D01*
G75*
G02*
X9715000Y28150000I-75000J0D01*
G01*
X9565000Y28150000D01*
G75*
G02*
X9490000Y28225000I0J75000D01*
G01*
X9490000Y29525000D01*
G75*
G02*
X9565000Y29600000I75000J0D01*
G01*
X9715000Y29600000D01*
G75*
G02*
X9790000Y29525000I0J-75000D01*
G01*
G37*
G36*
G01*
X8790000Y29525000D02*
X8790000Y28225000D01*
G75*
G02*
X8715000Y28150000I-75000J0D01*
G01*
X8565000Y28150000D01*
G75*
G02*
X8490000Y28225000I0J75000D01*
G01*
X8490000Y29525000D01*
G75*
G02*
X8565000Y29600000I75000J0D01*
G01*
X8715000Y29600000D01*
G75*
G02*
X8790000Y29525000I0J-75000D01*
G01*
G37*
G36*
G01*
X8290000Y29525000D02*
X8290000Y28225000D01*
G75*
G02*
X8215000Y28150000I-75000J0D01*
G01*
X8065000Y28150000D01*
G75*
G02*
X7990000Y28225000I0J75000D01*
G01*
X7990000Y29525000D01*
G75*
G02*
X8065000Y29600000I75000J0D01*
G01*
X8215000Y29600000D01*
G75*
G02*
X8290000Y29525000I0J-75000D01*
G01*
G37*
G36*
G01*
X7790000Y29525000D02*
X7790000Y28225000D01*
G75*
G02*
X7715000Y28150000I-75000J0D01*
G01*
X7565000Y28150000D01*
G75*
G02*
X7490000Y28225000I0J75000D01*
G01*
X7490000Y29525000D01*
G75*
G02*
X7565000Y29600000I75000J0D01*
G01*
X7715000Y29600000D01*
G75*
G02*
X7790000Y29525000I0J-75000D01*
G01*
G37*
G36*
G01*
X7290000Y29525000D02*
X7290000Y28225000D01*
G75*
G02*
X7215000Y28150000I-75000J0D01*
G01*
X7065000Y28150000D01*
G75*
G02*
X6990000Y28225000I0J75000D01*
G01*
X6990000Y29525000D01*
G75*
G02*
X7065000Y29600000I75000J0D01*
G01*
X7215000Y29600000D01*
G75*
G02*
X7290000Y29525000I0J-75000D01*
G01*
G37*
G36*
G01*
X9290000Y29525000D02*
X9290000Y28225000D01*
G75*
G02*
X9215000Y28150000I-75000J0D01*
G01*
X9065000Y28150000D01*
G75*
G02*
X8990000Y28225000I0J75000D01*
G01*
X8990000Y29525000D01*
G75*
G02*
X9065000Y29600000I75000J0D01*
G01*
X9215000Y29600000D01*
G75*
G02*
X9290000Y29525000I0J-75000D01*
G01*
G37*
D10*
X13560000Y14345000D03*
X13560000Y11095000D03*
G36*
G01*
X14752500Y9455000D02*
X14407500Y9455000D01*
G75*
G02*
X14380000Y9482500I0J27500D01*
G01*
X14380000Y9702500D01*
G75*
G02*
X14407500Y9730000I27500J0D01*
G01*
X14752500Y9730000D01*
G75*
G02*
X14780000Y9702500I0J-27500D01*
G01*
X14780000Y9482500D01*
G75*
G02*
X14752500Y9455000I-27500J0D01*
G01*
G37*
G36*
G01*
X14752500Y8930000D02*
X14407500Y8930000D01*
G75*
G02*
X14380000Y8957500I0J27500D01*
G01*
X14380000Y9177500D01*
G75*
G02*
X14407500Y9205000I27500J0D01*
G01*
X14752500Y9205000D01*
G75*
G02*
X14780000Y9177500I0J-27500D01*
G01*
X14780000Y8957500D01*
G75*
G02*
X14752500Y8930000I-27500J0D01*
G01*
G37*
G36*
G01*
X14407500Y6705000D02*
X14752500Y6705000D01*
G75*
G02*
X14780000Y6677500I0J-27500D01*
G01*
X14780000Y6457500D01*
G75*
G02*
X14752500Y6430000I-27500J0D01*
G01*
X14407500Y6430000D01*
G75*
G02*
X14380000Y6457500I0J27500D01*
G01*
X14380000Y6677500D01*
G75*
G02*
X14407500Y6705000I27500J0D01*
G01*
G37*
G36*
G01*
X14407500Y7230000D02*
X14752500Y7230000D01*
G75*
G02*
X14780000Y7202500I0J-27500D01*
G01*
X14780000Y6982500D01*
G75*
G02*
X14752500Y6955000I-27500J0D01*
G01*
X14407500Y6955000D01*
G75*
G02*
X14380000Y6982500I0J27500D01*
G01*
X14380000Y7202500D01*
G75*
G02*
X14407500Y7230000I27500J0D01*
G01*
G37*
G36*
G01*
X12986000Y10099500D02*
X12986000Y10300500D01*
G75*
G02*
X13065500Y10380000I79500J0D01*
G01*
X13224500Y10380000D01*
G75*
G02*
X13304000Y10300500I0J-79500D01*
G01*
X13304000Y10099500D01*
G75*
G02*
X13224500Y10020000I-79500J0D01*
G01*
X13065500Y10020000D01*
G75*
G02*
X12986000Y10099500I0J79500D01*
G01*
G37*
G36*
G01*
X13676000Y10099500D02*
X13676000Y10300500D01*
G75*
G02*
X13755500Y10380000I79500J0D01*
G01*
X13914500Y10380000D01*
G75*
G02*
X13994000Y10300500I0J-79500D01*
G01*
X13994000Y10099500D01*
G75*
G02*
X13914500Y10020000I-79500J0D01*
G01*
X13755500Y10020000D01*
G75*
G02*
X13676000Y10099500I0J79500D01*
G01*
G37*
G36*
G01*
X7292586Y22200458D02*
X7150458Y22342586D01*
G75*
G02*
X7150458Y22455016I56215J56215D01*
G01*
X7262888Y22567446D01*
G75*
G02*
X7375318Y22567446I56215J-56215D01*
G01*
X7517446Y22425318D01*
G75*
G02*
X7517446Y22312888I-56215J-56215D01*
G01*
X7405016Y22200458D01*
G75*
G02*
X7292586Y22200458I-56215J56215D01*
G01*
G37*
G36*
G01*
X6804682Y21712554D02*
X6662554Y21854682D01*
G75*
G02*
X6662554Y21967112I56215J56215D01*
G01*
X6774984Y22079542D01*
G75*
G02*
X6887414Y22079542I56215J-56215D01*
G01*
X7029542Y21937414D01*
G75*
G02*
X7029542Y21824984I-56215J-56215D01*
G01*
X6917112Y21712554D01*
G75*
G02*
X6804682Y21712554I-56215J56215D01*
G01*
G37*
G36*
G01*
X9055000Y6669999D02*
X9055000Y7900001D01*
G75*
G02*
X9304999Y8150000I249999J0D01*
G01*
X10175001Y8150000D01*
G75*
G02*
X10425000Y7900001I0J-249999D01*
G01*
X10425000Y6669999D01*
G75*
G02*
X10175001Y6420000I-249999J0D01*
G01*
X9304999Y6420000D01*
G75*
G02*
X9055000Y6669999I0J249999D01*
G01*
G37*
G36*
G01*
X9055000Y8819999D02*
X9055000Y10050001D01*
G75*
G02*
X9304999Y10300000I249999J0D01*
G01*
X10175001Y10300000D01*
G75*
G02*
X10425000Y10050001I0J-249999D01*
G01*
X10425000Y8819999D01*
G75*
G02*
X10175001Y8570000I-249999J0D01*
G01*
X9304999Y8570000D01*
G75*
G02*
X9055000Y8819999I0J249999D01*
G01*
G37*
G36*
G01*
X7355000Y6669999D02*
X7355000Y7900001D01*
G75*
G02*
X7604999Y8150000I249999J0D01*
G01*
X8475001Y8150000D01*
G75*
G02*
X8725000Y7900001I0J-249999D01*
G01*
X8725000Y6669999D01*
G75*
G02*
X8475001Y6420000I-249999J0D01*
G01*
X7604999Y6420000D01*
G75*
G02*
X7355000Y6669999I0J249999D01*
G01*
G37*
G36*
G01*
X7355000Y8819999D02*
X7355000Y10050001D01*
G75*
G02*
X7604999Y10300000I249999J0D01*
G01*
X8475001Y10300000D01*
G75*
G02*
X8725000Y10050001I0J-249999D01*
G01*
X8725000Y8819999D01*
G75*
G02*
X8475001Y8570000I-249999J0D01*
G01*
X7604999Y8570000D01*
G75*
G02*
X7355000Y8819999I0J249999D01*
G01*
G37*
G36*
G01*
X11215000Y10140000D02*
X11215000Y10390000D01*
G75*
G02*
X11340000Y10515000I125000J0D01*
G01*
X11840000Y10515000D01*
G75*
G02*
X11965000Y10390000I0J-125000D01*
G01*
X11965000Y10140000D01*
G75*
G02*
X11840000Y10015000I-125000J0D01*
G01*
X11340000Y10015000D01*
G75*
G02*
X11215000Y10140000I0J125000D01*
G01*
G37*
G36*
G01*
X11215000Y8870000D02*
X11215000Y9120000D01*
G75*
G02*
X11340000Y9245000I125000J0D01*
G01*
X11840000Y9245000D01*
G75*
G02*
X11965000Y9120000I0J-125000D01*
G01*
X11965000Y8870000D01*
G75*
G02*
X11840000Y8745000I-125000J0D01*
G01*
X11340000Y8745000D01*
G75*
G02*
X11215000Y8870000I0J125000D01*
G01*
G37*
G36*
G01*
X11215000Y7600000D02*
X11215000Y7850000D01*
G75*
G02*
X11340000Y7975000I125000J0D01*
G01*
X11840000Y7975000D01*
G75*
G02*
X11965000Y7850000I0J-125000D01*
G01*
X11965000Y7600000D01*
G75*
G02*
X11840000Y7475000I-125000J0D01*
G01*
X11340000Y7475000D01*
G75*
G02*
X11215000Y7600000I0J125000D01*
G01*
G37*
G36*
G01*
X11215000Y6330000D02*
X11215000Y6580000D01*
G75*
G02*
X11340000Y6705000I125000J0D01*
G01*
X11840000Y6705000D01*
G75*
G02*
X11965000Y6580000I0J-125000D01*
G01*
X11965000Y6330000D01*
G75*
G02*
X11840000Y6205000I-125000J0D01*
G01*
X11340000Y6205000D01*
G75*
G02*
X11215000Y6330000I0J125000D01*
G01*
G37*
G36*
G01*
X5815000Y6330000D02*
X5815000Y6580000D01*
G75*
G02*
X5940000Y6705000I125000J0D01*
G01*
X6440000Y6705000D01*
G75*
G02*
X6565000Y6580000I0J-125000D01*
G01*
X6565000Y6330000D01*
G75*
G02*
X6440000Y6205000I-125000J0D01*
G01*
X5940000Y6205000D01*
G75*
G02*
X5815000Y6330000I0J125000D01*
G01*
G37*
G36*
G01*
X5815000Y7600000D02*
X5815000Y7850000D01*
G75*
G02*
X5940000Y7975000I125000J0D01*
G01*
X6440000Y7975000D01*
G75*
G02*
X6565000Y7850000I0J-125000D01*
G01*
X6565000Y7600000D01*
G75*
G02*
X6440000Y7475000I-125000J0D01*
G01*
X5940000Y7475000D01*
G75*
G02*
X5815000Y7600000I0J125000D01*
G01*
G37*
G36*
G01*
X5815000Y8870000D02*
X5815000Y9120000D01*
G75*
G02*
X5940000Y9245000I125000J0D01*
G01*
X6440000Y9245000D01*
G75*
G02*
X6565000Y9120000I0J-125000D01*
G01*
X6565000Y8870000D01*
G75*
G02*
X6440000Y8745000I-125000J0D01*
G01*
X5940000Y8745000D01*
G75*
G02*
X5815000Y8870000I0J125000D01*
G01*
G37*
G36*
G01*
X5815000Y10140000D02*
X5815000Y10390000D01*
G75*
G02*
X5940000Y10515000I125000J0D01*
G01*
X6440000Y10515000D01*
G75*
G02*
X6565000Y10390000I0J-125000D01*
G01*
X6565000Y10140000D01*
G75*
G02*
X6440000Y10015000I-125000J0D01*
G01*
X5940000Y10015000D01*
G75*
G02*
X5815000Y10140000I0J125000D01*
G01*
G37*
G36*
G01*
X12986000Y5859500D02*
X12986000Y6060500D01*
G75*
G02*
X13065500Y6140000I79500J0D01*
G01*
X13224500Y6140000D01*
G75*
G02*
X13304000Y6060500I0J-79500D01*
G01*
X13304000Y5859500D01*
G75*
G02*
X13224500Y5780000I-79500J0D01*
G01*
X13065500Y5780000D01*
G75*
G02*
X12986000Y5859500I0J79500D01*
G01*
G37*
G36*
G01*
X13676000Y5859500D02*
X13676000Y6060500D01*
G75*
G02*
X13755500Y6140000I79500J0D01*
G01*
X13914500Y6140000D01*
G75*
G02*
X13994000Y6060500I0J-79500D01*
G01*
X13994000Y5859500D01*
G75*
G02*
X13914500Y5780000I-79500J0D01*
G01*
X13755500Y5780000D01*
G75*
G02*
X13676000Y5859500I0J79500D01*
G01*
G37*
G36*
G01*
X6596260Y24755040D02*
X6435040Y24916260D01*
G75*
G02*
X6435040Y25023740I53740J53740D01*
G01*
X6596260Y25184960D01*
G75*
G02*
X6703740Y25184960I53740J-53740D01*
G01*
X6864960Y25023740D01*
G75*
G02*
X6864960Y24916260I-53740J-53740D01*
G01*
X6703740Y24755040D01*
G75*
G02*
X6596260Y24755040I-53740J53740D01*
G01*
G37*
D11*
G36*
X7050000Y25170000D02*
G01*
X6900000Y25320000D01*
X6900000Y25420000D01*
X7250000Y25420000D01*
X7250000Y25170000D01*
X7050000Y25170000D01*
G37*
G36*
X7050000Y24770000D02*
G01*
X7250000Y24770000D01*
X7250000Y24520000D01*
X6900000Y24520000D01*
X6900000Y24620000D01*
X7050000Y24770000D01*
G37*
G36*
X6250000Y25170000D02*
G01*
X6050000Y25170000D01*
X6050000Y25420000D01*
X6400000Y25420000D01*
X6400000Y25320000D01*
X6250000Y25170000D01*
G37*
G36*
X6250000Y24770000D02*
G01*
X6400000Y24620000D01*
X6400000Y24520000D01*
X6050000Y24520000D01*
X6050000Y24770000D01*
X6250000Y24770000D01*
G37*
G36*
G01*
X4296260Y24755040D02*
X4135040Y24916260D01*
G75*
G02*
X4135040Y25023740I53740J53740D01*
G01*
X4296260Y25184960D01*
G75*
G02*
X4403740Y25184960I53740J-53740D01*
G01*
X4564960Y25023740D01*
G75*
G02*
X4564960Y24916260I-53740J-53740D01*
G01*
X4403740Y24755040D01*
G75*
G02*
X4296260Y24755040I-53740J53740D01*
G01*
G37*
G36*
X4750000Y25170000D02*
G01*
X4600000Y25320000D01*
X4600000Y25420000D01*
X4950000Y25420000D01*
X4950000Y25170000D01*
X4750000Y25170000D01*
G37*
G36*
X4750000Y24770000D02*
G01*
X4950000Y24770000D01*
X4950000Y24520000D01*
X4600000Y24520000D01*
X4600000Y24620000D01*
X4750000Y24770000D01*
G37*
G36*
X3950000Y25170000D02*
G01*
X3750000Y25170000D01*
X3750000Y25420000D01*
X4100000Y25420000D01*
X4100000Y25320000D01*
X3950000Y25170000D01*
G37*
G36*
X3950000Y24770000D02*
G01*
X4100000Y24620000D01*
X4100000Y24520000D01*
X3750000Y24520000D01*
X3750000Y24770000D01*
X3950000Y24770000D01*
G37*
G36*
G01*
X6096929Y17902254D02*
X6542406Y17456777D01*
G75*
G02*
X6542406Y17103223I-176777J-176777D01*
G01*
X6096929Y16657746D01*
G75*
G02*
X5743375Y16657746I-176777J176777D01*
G01*
X5297898Y17103223D01*
G75*
G02*
X5297898Y17456777I176777J176777D01*
G01*
X5743375Y17902254D01*
G75*
G02*
X6096929Y17902254I176777J-176777D01*
G01*
G37*
G36*
G01*
X7086878Y16912305D02*
X7532355Y16466828D01*
G75*
G02*
X7532355Y16113274I-176777J-176777D01*
G01*
X7086878Y15667797D01*
G75*
G02*
X6733324Y15667797I-176777J176777D01*
G01*
X6287847Y16113274D01*
G75*
G02*
X6287847Y16466828I176777J176777D01*
G01*
X6733324Y16912305D01*
G75*
G02*
X7086878Y16912305I176777J-176777D01*
G01*
G37*
G36*
G01*
X8076828Y15922355D02*
X8522305Y15476878D01*
G75*
G02*
X8522305Y15123324I-176777J-176777D01*
G01*
X8076828Y14677847D01*
G75*
G02*
X7723274Y14677847I-176777J176777D01*
G01*
X7277797Y15123324D01*
G75*
G02*
X7277797Y15476878I176777J176777D01*
G01*
X7723274Y15922355D01*
G75*
G02*
X8076828Y15922355I176777J-176777D01*
G01*
G37*
G36*
G01*
X9066777Y14932406D02*
X9512254Y14486929D01*
G75*
G02*
X9512254Y14133375I-176777J-176777D01*
G01*
X9066777Y13687898D01*
G75*
G02*
X8713223Y13687898I-176777J176777D01*
G01*
X8267746Y14133375D01*
G75*
G02*
X8267746Y14486929I176777J176777D01*
G01*
X8713223Y14932406D01*
G75*
G02*
X9066777Y14932406I176777J-176777D01*
G01*
G37*
G36*
G01*
X7086878Y18892203D02*
X7532355Y18446726D01*
G75*
G02*
X7532355Y18093172I-176777J-176777D01*
G01*
X7086878Y17647695D01*
G75*
G02*
X6733324Y17647695I-176777J176777D01*
G01*
X6287847Y18093172D01*
G75*
G02*
X6287847Y18446726I176777J176777D01*
G01*
X6733324Y18892203D01*
G75*
G02*
X7086878Y18892203I176777J-176777D01*
G01*
G37*
G36*
G01*
X8076828Y17902254D02*
X8522305Y17456777D01*
G75*
G02*
X8522305Y17103223I-176777J-176777D01*
G01*
X8076828Y16657746D01*
G75*
G02*
X7723274Y16657746I-176777J176777D01*
G01*
X7277797Y17103223D01*
G75*
G02*
X7277797Y17456777I176777J176777D01*
G01*
X7723274Y17902254D01*
G75*
G02*
X8076828Y17902254I176777J-176777D01*
G01*
G37*
G36*
G01*
X9066777Y16912305D02*
X9512254Y16466828D01*
G75*
G02*
X9512254Y16113274I-176777J-176777D01*
G01*
X9066777Y15667797D01*
G75*
G02*
X8713223Y15667797I-176777J176777D01*
G01*
X8267746Y16113274D01*
G75*
G02*
X8267746Y16466828I176777J176777D01*
G01*
X8713223Y16912305D01*
G75*
G02*
X9066777Y16912305I176777J-176777D01*
G01*
G37*
G36*
G01*
X10056726Y15922355D02*
X10502203Y15476878D01*
G75*
G02*
X10502203Y15123324I-176777J-176777D01*
G01*
X10056726Y14677847D01*
G75*
G02*
X9703172Y14677847I-176777J176777D01*
G01*
X9257695Y15123324D01*
G75*
G02*
X9257695Y15476878I176777J176777D01*
G01*
X9703172Y15922355D01*
G75*
G02*
X10056726Y15922355I176777J-176777D01*
G01*
G37*
G36*
G01*
X8076828Y19882153D02*
X8522305Y19436676D01*
G75*
G02*
X8522305Y19083122I-176777J-176777D01*
G01*
X8076828Y18637645D01*
G75*
G02*
X7723274Y18637645I-176777J176777D01*
G01*
X7277797Y19083122D01*
G75*
G02*
X7277797Y19436676I176777J176777D01*
G01*
X7723274Y19882153D01*
G75*
G02*
X8076828Y19882153I176777J-176777D01*
G01*
G37*
G36*
G01*
X9066777Y18892203D02*
X9512254Y18446726D01*
G75*
G02*
X9512254Y18093172I-176777J-176777D01*
G01*
X9066777Y17647695D01*
G75*
G02*
X8713223Y17647695I-176777J176777D01*
G01*
X8267746Y18093172D01*
G75*
G02*
X8267746Y18446726I176777J176777D01*
G01*
X8713223Y18892203D01*
G75*
G02*
X9066777Y18892203I176777J-176777D01*
G01*
G37*
G36*
G01*
X10056726Y17902254D02*
X10502203Y17456777D01*
G75*
G02*
X10502203Y17103223I-176777J-176777D01*
G01*
X10056726Y16657746D01*
G75*
G02*
X9703172Y16657746I-176777J176777D01*
G01*
X9257695Y17103223D01*
G75*
G02*
X9257695Y17456777I176777J176777D01*
G01*
X9703172Y17902254D01*
G75*
G02*
X10056726Y17902254I176777J-176777D01*
G01*
G37*
G36*
G01*
X11046676Y16912305D02*
X11492153Y16466828D01*
G75*
G02*
X11492153Y16113274I-176777J-176777D01*
G01*
X11046676Y15667797D01*
G75*
G02*
X10693122Y15667797I-176777J176777D01*
G01*
X10247645Y16113274D01*
G75*
G02*
X10247645Y16466828I176777J176777D01*
G01*
X10693122Y16912305D01*
G75*
G02*
X11046676Y16912305I176777J-176777D01*
G01*
G37*
G36*
G01*
X9066777Y20872102D02*
X9512254Y20426625D01*
G75*
G02*
X9512254Y20073071I-176777J-176777D01*
G01*
X9066777Y19627594D01*
G75*
G02*
X8713223Y19627594I-176777J176777D01*
G01*
X8267746Y20073071D01*
G75*
G02*
X8267746Y20426625I176777J176777D01*
G01*
X8713223Y20872102D01*
G75*
G02*
X9066777Y20872102I176777J-176777D01*
G01*
G37*
G36*
G01*
X10056726Y19882153D02*
X10502203Y19436676D01*
G75*
G02*
X10502203Y19083122I-176777J-176777D01*
G01*
X10056726Y18637645D01*
G75*
G02*
X9703172Y18637645I-176777J176777D01*
G01*
X9257695Y19083122D01*
G75*
G02*
X9257695Y19436676I176777J176777D01*
G01*
X9703172Y19882153D01*
G75*
G02*
X10056726Y19882153I176777J-176777D01*
G01*
G37*
G36*
G01*
X11046676Y18892203D02*
X11492153Y18446726D01*
G75*
G02*
X11492153Y18093172I-176777J-176777D01*
G01*
X11046676Y17647695D01*
G75*
G02*
X10693122Y17647695I-176777J176777D01*
G01*
X10247645Y18093172D01*
G75*
G02*
X10247645Y18446726I176777J176777D01*
G01*
X10693122Y18892203D01*
G75*
G02*
X11046676Y18892203I176777J-176777D01*
G01*
G37*
G36*
G01*
X12036625Y17902254D02*
X12482102Y17456777D01*
G75*
G02*
X12482102Y17103223I-176777J-176777D01*
G01*
X12036625Y16657746D01*
G75*
G02*
X11683071Y16657746I-176777J176777D01*
G01*
X11237594Y17103223D01*
G75*
G02*
X11237594Y17456777I176777J176777D01*
G01*
X11683071Y17902254D01*
G75*
G02*
X12036625Y17902254I176777J-176777D01*
G01*
G37*
G36*
G01*
X13088446Y17147417D02*
X13618776Y16617087D01*
G75*
G02*
X13618776Y16528699I-44194J-44194D01*
G01*
X13530388Y16440311D01*
G75*
G02*
X13442000Y16440311I-44194J44194D01*
G01*
X12911670Y16970641D01*
G75*
G02*
X12911670Y17059029I44194J44194D01*
G01*
X13000058Y17147417D01*
G75*
G02*
X13088446Y17147417I44194J-44194D01*
G01*
G37*
G36*
G01*
X12734893Y16793864D02*
X13265223Y16263534D01*
G75*
G02*
X13265223Y16175146I-44194J-44194D01*
G01*
X13176835Y16086758D01*
G75*
G02*
X13088447Y16086758I-44194J44194D01*
G01*
X12558117Y16617088D01*
G75*
G02*
X12558117Y16705476I44194J44194D01*
G01*
X12646505Y16793864D01*
G75*
G02*
X12734893Y16793864I44194J-44194D01*
G01*
G37*
G36*
G01*
X12381339Y16440310D02*
X12911669Y15909980D01*
G75*
G02*
X12911669Y15821592I-44194J-44194D01*
G01*
X12823281Y15733204D01*
G75*
G02*
X12734893Y15733204I-44194J44194D01*
G01*
X12204563Y16263534D01*
G75*
G02*
X12204563Y16351922I44194J44194D01*
G01*
X12292951Y16440310D01*
G75*
G02*
X12381339Y16440310I44194J-44194D01*
G01*
G37*
G36*
G01*
X12027786Y16086757D02*
X12558116Y15556427D01*
G75*
G02*
X12558116Y15468039I-44194J-44194D01*
G01*
X12469728Y15379651D01*
G75*
G02*
X12381340Y15379651I-44194J44194D01*
G01*
X11851010Y15909981D01*
G75*
G02*
X11851010Y15998369I44194J44194D01*
G01*
X11939398Y16086757D01*
G75*
G02*
X12027786Y16086757I44194J-44194D01*
G01*
G37*
G36*
G01*
X11674233Y15733204D02*
X12204563Y15202874D01*
G75*
G02*
X12204563Y15114486I-44194J-44194D01*
G01*
X12116175Y15026098D01*
G75*
G02*
X12027787Y15026098I-44194J44194D01*
G01*
X11497457Y15556428D01*
G75*
G02*
X11497457Y15644816I44194J44194D01*
G01*
X11585845Y15733204D01*
G75*
G02*
X11674233Y15733204I44194J-44194D01*
G01*
G37*
G36*
G01*
X11320679Y15379650D02*
X11851009Y14849320D01*
G75*
G02*
X11851009Y14760932I-44194J-44194D01*
G01*
X11762621Y14672544D01*
G75*
G02*
X11674233Y14672544I-44194J44194D01*
G01*
X11143903Y15202874D01*
G75*
G02*
X11143903Y15291262I44194J44194D01*
G01*
X11232291Y15379650D01*
G75*
G02*
X11320679Y15379650I44194J-44194D01*
G01*
G37*
G36*
G01*
X10967126Y15026097D02*
X11497456Y14495767D01*
G75*
G02*
X11497456Y14407379I-44194J-44194D01*
G01*
X11409068Y14318991D01*
G75*
G02*
X11320680Y14318991I-44194J44194D01*
G01*
X10790350Y14849321D01*
G75*
G02*
X10790350Y14937709I44194J44194D01*
G01*
X10878738Y15026097D01*
G75*
G02*
X10967126Y15026097I44194J-44194D01*
G01*
G37*
G36*
G01*
X10613572Y14672543D02*
X11143902Y14142213D01*
G75*
G02*
X11143902Y14053825I-44194J-44194D01*
G01*
X11055514Y13965437D01*
G75*
G02*
X10967126Y13965437I-44194J44194D01*
G01*
X10436796Y14495767D01*
G75*
G02*
X10436796Y14584155I44194J44194D01*
G01*
X10525184Y14672543D01*
G75*
G02*
X10613572Y14672543I44194J-44194D01*
G01*
G37*
G36*
G01*
X10260019Y14318990D02*
X10790349Y13788660D01*
G75*
G02*
X10790349Y13700272I-44194J-44194D01*
G01*
X10701961Y13611884D01*
G75*
G02*
X10613573Y13611884I-44194J44194D01*
G01*
X10083243Y14142214D01*
G75*
G02*
X10083243Y14230602I44194J44194D01*
G01*
X10171631Y14318990D01*
G75*
G02*
X10260019Y14318990I44194J-44194D01*
G01*
G37*
G36*
G01*
X9906466Y13965437D02*
X10436796Y13435107D01*
G75*
G02*
X10436796Y13346719I-44194J-44194D01*
G01*
X10348408Y13258331D01*
G75*
G02*
X10260020Y13258331I-44194J44194D01*
G01*
X9729690Y13788661D01*
G75*
G02*
X9729690Y13877049I44194J44194D01*
G01*
X9818078Y13965437D01*
G75*
G02*
X9906466Y13965437I44194J-44194D01*
G01*
G37*
G36*
G01*
X9552912Y13611883D02*
X10083242Y13081553D01*
G75*
G02*
X10083242Y12993165I-44194J-44194D01*
G01*
X9994854Y12904777D01*
G75*
G02*
X9906466Y12904777I-44194J44194D01*
G01*
X9376136Y13435107D01*
G75*
G02*
X9376136Y13523495I44194J44194D01*
G01*
X9464524Y13611883D01*
G75*
G02*
X9552912Y13611883I44194J-44194D01*
G01*
G37*
G36*
G01*
X9199359Y13258330D02*
X9729689Y12728000D01*
G75*
G02*
X9729689Y12639612I-44194J-44194D01*
G01*
X9641301Y12551224D01*
G75*
G02*
X9552913Y12551224I-44194J44194D01*
G01*
X9022583Y13081554D01*
G75*
G02*
X9022583Y13169942I44194J44194D01*
G01*
X9110971Y13258330D01*
G75*
G02*
X9199359Y13258330I44194J-44194D01*
G01*
G37*
G36*
G01*
X8669029Y13258330D02*
X8757417Y13169942D01*
G75*
G02*
X8757417Y13081554I-44194J-44194D01*
G01*
X8227087Y12551224D01*
G75*
G02*
X8138699Y12551224I-44194J44194D01*
G01*
X8050311Y12639612D01*
G75*
G02*
X8050311Y12728000I44194J44194D01*
G01*
X8580641Y13258330D01*
G75*
G02*
X8669029Y13258330I44194J-44194D01*
G01*
G37*
G36*
G01*
X8315476Y13611883D02*
X8403864Y13523495D01*
G75*
G02*
X8403864Y13435107I-44194J-44194D01*
G01*
X7873534Y12904777D01*
G75*
G02*
X7785146Y12904777I-44194J44194D01*
G01*
X7696758Y12993165D01*
G75*
G02*
X7696758Y13081553I44194J44194D01*
G01*
X8227088Y13611883D01*
G75*
G02*
X8315476Y13611883I44194J-44194D01*
G01*
G37*
G36*
G01*
X7961922Y13965437D02*
X8050310Y13877049D01*
G75*
G02*
X8050310Y13788661I-44194J-44194D01*
G01*
X7519980Y13258331D01*
G75*
G02*
X7431592Y13258331I-44194J44194D01*
G01*
X7343204Y13346719D01*
G75*
G02*
X7343204Y13435107I44194J44194D01*
G01*
X7873534Y13965437D01*
G75*
G02*
X7961922Y13965437I44194J-44194D01*
G01*
G37*
G36*
G01*
X7608369Y14318990D02*
X7696757Y14230602D01*
G75*
G02*
X7696757Y14142214I-44194J-44194D01*
G01*
X7166427Y13611884D01*
G75*
G02*
X7078039Y13611884I-44194J44194D01*
G01*
X6989651Y13700272D01*
G75*
G02*
X6989651Y13788660I44194J44194D01*
G01*
X7519981Y14318990D01*
G75*
G02*
X7608369Y14318990I44194J-44194D01*
G01*
G37*
G36*
G01*
X7254816Y14672543D02*
X7343204Y14584155D01*
G75*
G02*
X7343204Y14495767I-44194J-44194D01*
G01*
X6812874Y13965437D01*
G75*
G02*
X6724486Y13965437I-44194J44194D01*
G01*
X6636098Y14053825D01*
G75*
G02*
X6636098Y14142213I44194J44194D01*
G01*
X7166428Y14672543D01*
G75*
G02*
X7254816Y14672543I44194J-44194D01*
G01*
G37*
G36*
G01*
X6901262Y15026097D02*
X6989650Y14937709D01*
G75*
G02*
X6989650Y14849321I-44194J-44194D01*
G01*
X6459320Y14318991D01*
G75*
G02*
X6370932Y14318991I-44194J44194D01*
G01*
X6282544Y14407379D01*
G75*
G02*
X6282544Y14495767I44194J44194D01*
G01*
X6812874Y15026097D01*
G75*
G02*
X6901262Y15026097I44194J-44194D01*
G01*
G37*
G36*
G01*
X6547709Y15379650D02*
X6636097Y15291262D01*
G75*
G02*
X6636097Y15202874I-44194J-44194D01*
G01*
X6105767Y14672544D01*
G75*
G02*
X6017379Y14672544I-44194J44194D01*
G01*
X5928991Y14760932D01*
G75*
G02*
X5928991Y14849320I44194J44194D01*
G01*
X6459321Y15379650D01*
G75*
G02*
X6547709Y15379650I44194J-44194D01*
G01*
G37*
G36*
G01*
X6194155Y15733204D02*
X6282543Y15644816D01*
G75*
G02*
X6282543Y15556428I-44194J-44194D01*
G01*
X5752213Y15026098D01*
G75*
G02*
X5663825Y15026098I-44194J44194D01*
G01*
X5575437Y15114486D01*
G75*
G02*
X5575437Y15202874I44194J44194D01*
G01*
X6105767Y15733204D01*
G75*
G02*
X6194155Y15733204I44194J-44194D01*
G01*
G37*
G36*
G01*
X5840602Y16086757D02*
X5928990Y15998369D01*
G75*
G02*
X5928990Y15909981I-44194J-44194D01*
G01*
X5398660Y15379651D01*
G75*
G02*
X5310272Y15379651I-44194J44194D01*
G01*
X5221884Y15468039D01*
G75*
G02*
X5221884Y15556427I44194J44194D01*
G01*
X5752214Y16086757D01*
G75*
G02*
X5840602Y16086757I44194J-44194D01*
G01*
G37*
G36*
G01*
X5487049Y16440310D02*
X5575437Y16351922D01*
G75*
G02*
X5575437Y16263534I-44194J-44194D01*
G01*
X5045107Y15733204D01*
G75*
G02*
X4956719Y15733204I-44194J44194D01*
G01*
X4868331Y15821592D01*
G75*
G02*
X4868331Y15909980I44194J44194D01*
G01*
X5398661Y16440310D01*
G75*
G02*
X5487049Y16440310I44194J-44194D01*
G01*
G37*
G36*
G01*
X5133495Y16793864D02*
X5221883Y16705476D01*
G75*
G02*
X5221883Y16617088I-44194J-44194D01*
G01*
X4691553Y16086758D01*
G75*
G02*
X4603165Y16086758I-44194J44194D01*
G01*
X4514777Y16175146D01*
G75*
G02*
X4514777Y16263534I44194J44194D01*
G01*
X5045107Y16793864D01*
G75*
G02*
X5133495Y16793864I44194J-44194D01*
G01*
G37*
G36*
G01*
X4779942Y17147417D02*
X4868330Y17059029D01*
G75*
G02*
X4868330Y16970641I-44194J-44194D01*
G01*
X4338000Y16440311D01*
G75*
G02*
X4249612Y16440311I-44194J44194D01*
G01*
X4161224Y16528699D01*
G75*
G02*
X4161224Y16617087I44194J44194D01*
G01*
X4691554Y17147417D01*
G75*
G02*
X4779942Y17147417I44194J-44194D01*
G01*
G37*
G36*
G01*
X4338000Y18119689D02*
X4868330Y17589359D01*
G75*
G02*
X4868330Y17500971I-44194J-44194D01*
G01*
X4779942Y17412583D01*
G75*
G02*
X4691554Y17412583I-44194J44194D01*
G01*
X4161224Y17942913D01*
G75*
G02*
X4161224Y18031301I44194J44194D01*
G01*
X4249612Y18119689D01*
G75*
G02*
X4338000Y18119689I44194J-44194D01*
G01*
G37*
G36*
G01*
X4691553Y18473242D02*
X5221883Y17942912D01*
G75*
G02*
X5221883Y17854524I-44194J-44194D01*
G01*
X5133495Y17766136D01*
G75*
G02*
X5045107Y17766136I-44194J44194D01*
G01*
X4514777Y18296466D01*
G75*
G02*
X4514777Y18384854I44194J44194D01*
G01*
X4603165Y18473242D01*
G75*
G02*
X4691553Y18473242I44194J-44194D01*
G01*
G37*
G36*
G01*
X5045107Y18826796D02*
X5575437Y18296466D01*
G75*
G02*
X5575437Y18208078I-44194J-44194D01*
G01*
X5487049Y18119690D01*
G75*
G02*
X5398661Y18119690I-44194J44194D01*
G01*
X4868331Y18650020D01*
G75*
G02*
X4868331Y18738408I44194J44194D01*
G01*
X4956719Y18826796D01*
G75*
G02*
X5045107Y18826796I44194J-44194D01*
G01*
G37*
G36*
G01*
X5398660Y19180349D02*
X5928990Y18650019D01*
G75*
G02*
X5928990Y18561631I-44194J-44194D01*
G01*
X5840602Y18473243D01*
G75*
G02*
X5752214Y18473243I-44194J44194D01*
G01*
X5221884Y19003573D01*
G75*
G02*
X5221884Y19091961I44194J44194D01*
G01*
X5310272Y19180349D01*
G75*
G02*
X5398660Y19180349I44194J-44194D01*
G01*
G37*
G36*
G01*
X5752213Y19533902D02*
X6282543Y19003572D01*
G75*
G02*
X6282543Y18915184I-44194J-44194D01*
G01*
X6194155Y18826796D01*
G75*
G02*
X6105767Y18826796I-44194J44194D01*
G01*
X5575437Y19357126D01*
G75*
G02*
X5575437Y19445514I44194J44194D01*
G01*
X5663825Y19533902D01*
G75*
G02*
X5752213Y19533902I44194J-44194D01*
G01*
G37*
G36*
G01*
X6105767Y19887456D02*
X6636097Y19357126D01*
G75*
G02*
X6636097Y19268738I-44194J-44194D01*
G01*
X6547709Y19180350D01*
G75*
G02*
X6459321Y19180350I-44194J44194D01*
G01*
X5928991Y19710680D01*
G75*
G02*
X5928991Y19799068I44194J44194D01*
G01*
X6017379Y19887456D01*
G75*
G02*
X6105767Y19887456I44194J-44194D01*
G01*
G37*
G36*
G01*
X6459320Y20241009D02*
X6989650Y19710679D01*
G75*
G02*
X6989650Y19622291I-44194J-44194D01*
G01*
X6901262Y19533903D01*
G75*
G02*
X6812874Y19533903I-44194J44194D01*
G01*
X6282544Y20064233D01*
G75*
G02*
X6282544Y20152621I44194J44194D01*
G01*
X6370932Y20241009D01*
G75*
G02*
X6459320Y20241009I44194J-44194D01*
G01*
G37*
G36*
G01*
X6812874Y20594563D02*
X7343204Y20064233D01*
G75*
G02*
X7343204Y19975845I-44194J-44194D01*
G01*
X7254816Y19887457D01*
G75*
G02*
X7166428Y19887457I-44194J44194D01*
G01*
X6636098Y20417787D01*
G75*
G02*
X6636098Y20506175I44194J44194D01*
G01*
X6724486Y20594563D01*
G75*
G02*
X6812874Y20594563I44194J-44194D01*
G01*
G37*
G36*
G01*
X7166427Y20948116D02*
X7696757Y20417786D01*
G75*
G02*
X7696757Y20329398I-44194J-44194D01*
G01*
X7608369Y20241010D01*
G75*
G02*
X7519981Y20241010I-44194J44194D01*
G01*
X6989651Y20771340D01*
G75*
G02*
X6989651Y20859728I44194J44194D01*
G01*
X7078039Y20948116D01*
G75*
G02*
X7166427Y20948116I44194J-44194D01*
G01*
G37*
G36*
G01*
X7519980Y21301669D02*
X8050310Y20771339D01*
G75*
G02*
X8050310Y20682951I-44194J-44194D01*
G01*
X7961922Y20594563D01*
G75*
G02*
X7873534Y20594563I-44194J44194D01*
G01*
X7343204Y21124893D01*
G75*
G02*
X7343204Y21213281I44194J44194D01*
G01*
X7431592Y21301669D01*
G75*
G02*
X7519980Y21301669I44194J-44194D01*
G01*
G37*
G36*
G01*
X7873534Y21655223D02*
X8403864Y21124893D01*
G75*
G02*
X8403864Y21036505I-44194J-44194D01*
G01*
X8315476Y20948117D01*
G75*
G02*
X8227088Y20948117I-44194J44194D01*
G01*
X7696758Y21478447D01*
G75*
G02*
X7696758Y21566835I44194J44194D01*
G01*
X7785146Y21655223D01*
G75*
G02*
X7873534Y21655223I44194J-44194D01*
G01*
G37*
G36*
G01*
X8227087Y22008776D02*
X8757417Y21478446D01*
G75*
G02*
X8757417Y21390058I-44194J-44194D01*
G01*
X8669029Y21301670D01*
G75*
G02*
X8580641Y21301670I-44194J44194D01*
G01*
X8050311Y21832000D01*
G75*
G02*
X8050311Y21920388I44194J44194D01*
G01*
X8138699Y22008776D01*
G75*
G02*
X8227087Y22008776I44194J-44194D01*
G01*
G37*
G36*
G01*
X9641301Y22008776D02*
X9729689Y21920388D01*
G75*
G02*
X9729689Y21832000I-44194J-44194D01*
G01*
X9199359Y21301670D01*
G75*
G02*
X9110971Y21301670I-44194J44194D01*
G01*
X9022583Y21390058D01*
G75*
G02*
X9022583Y21478446I44194J44194D01*
G01*
X9552913Y22008776D01*
G75*
G02*
X9641301Y22008776I44194J-44194D01*
G01*
G37*
G36*
G01*
X9994854Y21655223D02*
X10083242Y21566835D01*
G75*
G02*
X10083242Y21478447I-44194J-44194D01*
G01*
X9552912Y20948117D01*
G75*
G02*
X9464524Y20948117I-44194J44194D01*
G01*
X9376136Y21036505D01*
G75*
G02*
X9376136Y21124893I44194J44194D01*
G01*
X9906466Y21655223D01*
G75*
G02*
X9994854Y21655223I44194J-44194D01*
G01*
G37*
G36*
G01*
X10348408Y21301669D02*
X10436796Y21213281D01*
G75*
G02*
X10436796Y21124893I-44194J-44194D01*
G01*
X9906466Y20594563D01*
G75*
G02*
X9818078Y20594563I-44194J44194D01*
G01*
X9729690Y20682951D01*
G75*
G02*
X9729690Y20771339I44194J44194D01*
G01*
X10260020Y21301669D01*
G75*
G02*
X10348408Y21301669I44194J-44194D01*
G01*
G37*
G36*
G01*
X10701961Y20948116D02*
X10790349Y20859728D01*
G75*
G02*
X10790349Y20771340I-44194J-44194D01*
G01*
X10260019Y20241010D01*
G75*
G02*
X10171631Y20241010I-44194J44194D01*
G01*
X10083243Y20329398D01*
G75*
G02*
X10083243Y20417786I44194J44194D01*
G01*
X10613573Y20948116D01*
G75*
G02*
X10701961Y20948116I44194J-44194D01*
G01*
G37*
G36*
G01*
X11055514Y20594563D02*
X11143902Y20506175D01*
G75*
G02*
X11143902Y20417787I-44194J-44194D01*
G01*
X10613572Y19887457D01*
G75*
G02*
X10525184Y19887457I-44194J44194D01*
G01*
X10436796Y19975845D01*
G75*
G02*
X10436796Y20064233I44194J44194D01*
G01*
X10967126Y20594563D01*
G75*
G02*
X11055514Y20594563I44194J-44194D01*
G01*
G37*
G36*
G01*
X11409068Y20241009D02*
X11497456Y20152621D01*
G75*
G02*
X11497456Y20064233I-44194J-44194D01*
G01*
X10967126Y19533903D01*
G75*
G02*
X10878738Y19533903I-44194J44194D01*
G01*
X10790350Y19622291D01*
G75*
G02*
X10790350Y19710679I44194J44194D01*
G01*
X11320680Y20241009D01*
G75*
G02*
X11409068Y20241009I44194J-44194D01*
G01*
G37*
G36*
G01*
X11762621Y19887456D02*
X11851009Y19799068D01*
G75*
G02*
X11851009Y19710680I-44194J-44194D01*
G01*
X11320679Y19180350D01*
G75*
G02*
X11232291Y19180350I-44194J44194D01*
G01*
X11143903Y19268738D01*
G75*
G02*
X11143903Y19357126I44194J44194D01*
G01*
X11674233Y19887456D01*
G75*
G02*
X11762621Y19887456I44194J-44194D01*
G01*
G37*
G36*
G01*
X12116175Y19533902D02*
X12204563Y19445514D01*
G75*
G02*
X12204563Y19357126I-44194J-44194D01*
G01*
X11674233Y18826796D01*
G75*
G02*
X11585845Y18826796I-44194J44194D01*
G01*
X11497457Y18915184D01*
G75*
G02*
X11497457Y19003572I44194J44194D01*
G01*
X12027787Y19533902D01*
G75*
G02*
X12116175Y19533902I44194J-44194D01*
G01*
G37*
G36*
G01*
X12469728Y19180349D02*
X12558116Y19091961D01*
G75*
G02*
X12558116Y19003573I-44194J-44194D01*
G01*
X12027786Y18473243D01*
G75*
G02*
X11939398Y18473243I-44194J44194D01*
G01*
X11851010Y18561631D01*
G75*
G02*
X11851010Y18650019I44194J44194D01*
G01*
X12381340Y19180349D01*
G75*
G02*
X12469728Y19180349I44194J-44194D01*
G01*
G37*
G36*
G01*
X12823281Y18826796D02*
X12911669Y18738408D01*
G75*
G02*
X12911669Y18650020I-44194J-44194D01*
G01*
X12381339Y18119690D01*
G75*
G02*
X12292951Y18119690I-44194J44194D01*
G01*
X12204563Y18208078D01*
G75*
G02*
X12204563Y18296466I44194J44194D01*
G01*
X12734893Y18826796D01*
G75*
G02*
X12823281Y18826796I44194J-44194D01*
G01*
G37*
G36*
G01*
X13176835Y18473242D02*
X13265223Y18384854D01*
G75*
G02*
X13265223Y18296466I-44194J-44194D01*
G01*
X12734893Y17766136D01*
G75*
G02*
X12646505Y17766136I-44194J44194D01*
G01*
X12558117Y17854524D01*
G75*
G02*
X12558117Y17942912I44194J44194D01*
G01*
X13088447Y18473242D01*
G75*
G02*
X13176835Y18473242I44194J-44194D01*
G01*
G37*
G36*
G01*
X13530388Y18119689D02*
X13618776Y18031301D01*
G75*
G02*
X13618776Y17942913I-44194J-44194D01*
G01*
X13088446Y17412583D01*
G75*
G02*
X13000058Y17412583I-44194J44194D01*
G01*
X12911670Y17500971D01*
G75*
G02*
X12911670Y17589359I44194J44194D01*
G01*
X13442000Y18119689D01*
G75*
G02*
X13530388Y18119689I44194J-44194D01*
G01*
G37*
G36*
G01*
X12986000Y6559500D02*
X12986000Y6760500D01*
G75*
G02*
X13065500Y6840000I79500J0D01*
G01*
X13224500Y6840000D01*
G75*
G02*
X13304000Y6760500I0J-79500D01*
G01*
X13304000Y6559500D01*
G75*
G02*
X13224500Y6480000I-79500J0D01*
G01*
X13065500Y6480000D01*
G75*
G02*
X12986000Y6559500I0J79500D01*
G01*
G37*
G36*
G01*
X13676000Y6559500D02*
X13676000Y6760500D01*
G75*
G02*
X13755500Y6840000I79500J0D01*
G01*
X13914500Y6840000D01*
G75*
G02*
X13994000Y6760500I0J-79500D01*
G01*
X13994000Y6559500D01*
G75*
G02*
X13914500Y6480000I-79500J0D01*
G01*
X13755500Y6480000D01*
G75*
G02*
X13676000Y6559500I0J79500D01*
G01*
G37*
G36*
G01*
X8625000Y27000000D02*
X8475000Y27000000D01*
G75*
G02*
X8400000Y27075000I0J75000D01*
G01*
X8400000Y27375000D01*
G75*
G02*
X8475000Y27450000I75000J0D01*
G01*
X8625000Y27450000D01*
G75*
G02*
X8700000Y27375000I0J-75000D01*
G01*
X8700000Y27075000D01*
G75*
G02*
X8625000Y27000000I-75000J0D01*
G01*
G37*
G36*
G01*
X9125000Y27000000D02*
X8975000Y27000000D01*
G75*
G02*
X8900000Y27075000I0J75000D01*
G01*
X8900000Y27375000D01*
G75*
G02*
X8975000Y27450000I75000J0D01*
G01*
X9125000Y27450000D01*
G75*
G02*
X9200000Y27375000I0J-75000D01*
G01*
X9200000Y27075000D01*
G75*
G02*
X9125000Y27000000I-75000J0D01*
G01*
G37*
G36*
G01*
X8625000Y25650000D02*
X8475000Y25650000D01*
G75*
G02*
X8400000Y25725000I0J75000D01*
G01*
X8400000Y26025000D01*
G75*
G02*
X8475000Y26100000I75000J0D01*
G01*
X8625000Y26100000D01*
G75*
G02*
X8700000Y26025000I0J-75000D01*
G01*
X8700000Y25725000D01*
G75*
G02*
X8625000Y25650000I-75000J0D01*
G01*
G37*
G36*
G01*
X8125000Y27000000D02*
X7975000Y27000000D01*
G75*
G02*
X7900000Y27075000I0J75000D01*
G01*
X7900000Y27375000D01*
G75*
G02*
X7975000Y27450000I75000J0D01*
G01*
X8125000Y27450000D01*
G75*
G02*
X8200000Y27375000I0J-75000D01*
G01*
X8200000Y27075000D01*
G75*
G02*
X8125000Y27000000I-75000J0D01*
G01*
G37*
G36*
G01*
X9125000Y25650000D02*
X8975000Y25650000D01*
G75*
G02*
X8900000Y25725000I0J75000D01*
G01*
X8900000Y26025000D01*
G75*
G02*
X8975000Y26100000I75000J0D01*
G01*
X9125000Y26100000D01*
G75*
G02*
X9200000Y26025000I0J-75000D01*
G01*
X9200000Y25725000D01*
G75*
G02*
X9125000Y25650000I-75000J0D01*
G01*
G37*
G36*
G01*
X8125000Y25650000D02*
X7975000Y25650000D01*
G75*
G02*
X7900000Y25725000I0J75000D01*
G01*
X7900000Y26025000D01*
G75*
G02*
X7975000Y26100000I75000J0D01*
G01*
X8125000Y26100000D01*
G75*
G02*
X8200000Y26025000I0J-75000D01*
G01*
X8200000Y25725000D01*
G75*
G02*
X8125000Y25650000I-75000J0D01*
G01*
G37*
D12*
X11300000Y27150000D03*
X10200000Y27150000D03*
X10200000Y26350000D03*
X11300000Y26350000D03*
G36*
G01*
X5119500Y10444000D02*
X5320500Y10444000D01*
G75*
G02*
X5400000Y10364500I0J-79500D01*
G01*
X5400000Y10205500D01*
G75*
G02*
X5320500Y10126000I-79500J0D01*
G01*
X5119500Y10126000D01*
G75*
G02*
X5040000Y10205500I0J79500D01*
G01*
X5040000Y10364500D01*
G75*
G02*
X5119500Y10444000I79500J0D01*
G01*
G37*
G36*
G01*
X5119500Y9754000D02*
X5320500Y9754000D01*
G75*
G02*
X5400000Y9674500I0J-79500D01*
G01*
X5400000Y9515500D01*
G75*
G02*
X5320500Y9436000I-79500J0D01*
G01*
X5119500Y9436000D01*
G75*
G02*
X5040000Y9515500I0J79500D01*
G01*
X5040000Y9674500D01*
G75*
G02*
X5119500Y9754000I79500J0D01*
G01*
G37*
G36*
G01*
X13054000Y27400500D02*
X13054000Y27199500D01*
G75*
G02*
X12974500Y27120000I-79500J0D01*
G01*
X12815500Y27120000D01*
G75*
G02*
X12736000Y27199500I0J79500D01*
G01*
X12736000Y27400500D01*
G75*
G02*
X12815500Y27480000I79500J0D01*
G01*
X12974500Y27480000D01*
G75*
G02*
X13054000Y27400500I0J-79500D01*
G01*
G37*
G36*
G01*
X12364000Y27400500D02*
X12364000Y27199500D01*
G75*
G02*
X12284500Y27120000I-79500J0D01*
G01*
X12125500Y27120000D01*
G75*
G02*
X12046000Y27199500I0J79500D01*
G01*
X12046000Y27400500D01*
G75*
G02*
X12125500Y27480000I79500J0D01*
G01*
X12284500Y27480000D01*
G75*
G02*
X12364000Y27400500I0J-79500D01*
G01*
G37*
G36*
G01*
X7200500Y26446000D02*
X6999500Y26446000D01*
G75*
G02*
X6920000Y26525500I0J79500D01*
G01*
X6920000Y26684500D01*
G75*
G02*
X6999500Y26764000I79500J0D01*
G01*
X7200500Y26764000D01*
G75*
G02*
X7280000Y26684500I0J-79500D01*
G01*
X7280000Y26525500D01*
G75*
G02*
X7200500Y26446000I-79500J0D01*
G01*
G37*
G36*
G01*
X7200500Y27136000D02*
X6999500Y27136000D01*
G75*
G02*
X6920000Y27215500I0J79500D01*
G01*
X6920000Y27374500D01*
G75*
G02*
X6999500Y27454000I79500J0D01*
G01*
X7200500Y27454000D01*
G75*
G02*
X7280000Y27374500I0J-79500D01*
G01*
X7280000Y27215500D01*
G75*
G02*
X7200500Y27136000I-79500J0D01*
G01*
G37*
G36*
G01*
X7699500Y25254000D02*
X7900500Y25254000D01*
G75*
G02*
X7980000Y25174500I0J-79500D01*
G01*
X7980000Y25015500D01*
G75*
G02*
X7900500Y24936000I-79500J0D01*
G01*
X7699500Y24936000D01*
G75*
G02*
X7620000Y25015500I0J79500D01*
G01*
X7620000Y25174500D01*
G75*
G02*
X7699500Y25254000I79500J0D01*
G01*
G37*
G36*
G01*
X7699500Y24564000D02*
X7900500Y24564000D01*
G75*
G02*
X7980000Y24484500I0J-79500D01*
G01*
X7980000Y24325500D01*
G75*
G02*
X7900500Y24246000I-79500J0D01*
G01*
X7699500Y24246000D01*
G75*
G02*
X7620000Y24325500I0J79500D01*
G01*
X7620000Y24484500D01*
G75*
G02*
X7699500Y24564000I79500J0D01*
G01*
G37*
G36*
G01*
X13994000Y8530500D02*
X13994000Y8329500D01*
G75*
G02*
X13914500Y8250000I-79500J0D01*
G01*
X13755500Y8250000D01*
G75*
G02*
X13676000Y8329500I0J79500D01*
G01*
X13676000Y8530500D01*
G75*
G02*
X13755500Y8610000I79500J0D01*
G01*
X13914500Y8610000D01*
G75*
G02*
X13994000Y8530500I0J-79500D01*
G01*
G37*
G36*
G01*
X13304000Y8530500D02*
X13304000Y8329500D01*
G75*
G02*
X13224500Y8250000I-79500J0D01*
G01*
X13065500Y8250000D01*
G75*
G02*
X12986000Y8329500I0J79500D01*
G01*
X12986000Y8530500D01*
G75*
G02*
X13065500Y8610000I79500J0D01*
G01*
X13224500Y8610000D01*
G75*
G02*
X13304000Y8530500I0J-79500D01*
G01*
G37*
G36*
G01*
X13994000Y7830500D02*
X13994000Y7629500D01*
G75*
G02*
X13914500Y7550000I-79500J0D01*
G01*
X13755500Y7550000D01*
G75*
G02*
X13676000Y7629500I0J79500D01*
G01*
X13676000Y7830500D01*
G75*
G02*
X13755500Y7910000I79500J0D01*
G01*
X13914500Y7910000D01*
G75*
G02*
X13994000Y7830500I0J-79500D01*
G01*
G37*
G36*
G01*
X13304000Y7830500D02*
X13304000Y7629500D01*
G75*
G02*
X13224500Y7550000I-79500J0D01*
G01*
X13065500Y7550000D01*
G75*
G02*
X12986000Y7629500I0J79500D01*
G01*
X12986000Y7830500D01*
G75*
G02*
X13065500Y7910000I79500J0D01*
G01*
X13224500Y7910000D01*
G75*
G02*
X13304000Y7830500I0J-79500D01*
G01*
G37*
G36*
G01*
X12986000Y9399500D02*
X12986000Y9600500D01*
G75*
G02*
X13065500Y9680000I79500J0D01*
G01*
X13224500Y9680000D01*
G75*
G02*
X13304000Y9600500I0J-79500D01*
G01*
X13304000Y9399500D01*
G75*
G02*
X13224500Y9320000I-79500J0D01*
G01*
X13065500Y9320000D01*
G75*
G02*
X12986000Y9399500I0J79500D01*
G01*
G37*
G36*
G01*
X13676000Y9399500D02*
X13676000Y9600500D01*
G75*
G02*
X13755500Y9680000I79500J0D01*
G01*
X13914500Y9680000D01*
G75*
G02*
X13994000Y9600500I0J-79500D01*
G01*
X13994000Y9399500D01*
G75*
G02*
X13914500Y9320000I-79500J0D01*
G01*
X13755500Y9320000D01*
G75*
G02*
X13676000Y9399500I0J79500D01*
G01*
G37*
G36*
G01*
X5399500Y25374000D02*
X5600500Y25374000D01*
G75*
G02*
X5680000Y25294500I0J-79500D01*
G01*
X5680000Y25135500D01*
G75*
G02*
X5600500Y25056000I-79500J0D01*
G01*
X5399500Y25056000D01*
G75*
G02*
X5320000Y25135500I0J79500D01*
G01*
X5320000Y25294500D01*
G75*
G02*
X5399500Y25374000I79500J0D01*
G01*
G37*
G36*
G01*
X5399500Y24684000D02*
X5600500Y24684000D01*
G75*
G02*
X5680000Y24604500I0J-79500D01*
G01*
X5680000Y24445500D01*
G75*
G02*
X5600500Y24366000I-79500J0D01*
G01*
X5399500Y24366000D01*
G75*
G02*
X5320000Y24445500I0J79500D01*
G01*
X5320000Y24604500D01*
G75*
G02*
X5399500Y24684000I79500J0D01*
G01*
G37*
G36*
G01*
X3099500Y25374000D02*
X3300500Y25374000D01*
G75*
G02*
X3380000Y25294500I0J-79500D01*
G01*
X3380000Y25135500D01*
G75*
G02*
X3300500Y25056000I-79500J0D01*
G01*
X3099500Y25056000D01*
G75*
G02*
X3020000Y25135500I0J79500D01*
G01*
X3020000Y25294500D01*
G75*
G02*
X3099500Y25374000I79500J0D01*
G01*
G37*
G36*
G01*
X3099500Y24684000D02*
X3300500Y24684000D01*
G75*
G02*
X3380000Y24604500I0J-79500D01*
G01*
X3380000Y24445500D01*
G75*
G02*
X3300500Y24366000I-79500J0D01*
G01*
X3099500Y24366000D01*
G75*
G02*
X3020000Y24445500I0J79500D01*
G01*
X3020000Y24604500D01*
G75*
G02*
X3099500Y24684000I79500J0D01*
G01*
G37*
G36*
G01*
X13065494Y21393845D02*
X12994784Y21323135D01*
G75*
G02*
X12924074Y21323135I-35355J35355D01*
G01*
X12393744Y21853465D01*
G75*
G02*
X12393744Y21924175I35355J35355D01*
G01*
X12464454Y21994885D01*
G75*
G02*
X12535164Y21994885I35355J-35355D01*
G01*
X13065494Y21464555D01*
G75*
G02*
X13065494Y21393845I-35355J-35355D01*
G01*
G37*
G36*
G01*
X13348337Y21676687D02*
X13277627Y21605977D01*
G75*
G02*
X13206917Y21605977I-35355J35355D01*
G01*
X12676587Y22136307D01*
G75*
G02*
X12676587Y22207017I35355J35355D01*
G01*
X12747297Y22277727D01*
G75*
G02*
X12818007Y22277727I35355J-35355D01*
G01*
X13348337Y21747397D01*
G75*
G02*
X13348337Y21676687I-35355J-35355D01*
G01*
G37*
G36*
G01*
X13631180Y21959530D02*
X13560470Y21888820D01*
G75*
G02*
X13489760Y21888820I-35355J35355D01*
G01*
X12959430Y22419150D01*
G75*
G02*
X12959430Y22489860I35355J35355D01*
G01*
X13030140Y22560570D01*
G75*
G02*
X13100850Y22560570I35355J-35355D01*
G01*
X13631180Y22030240D01*
G75*
G02*
X13631180Y21959530I-35355J-35355D01*
G01*
G37*
G36*
G01*
X13914023Y22242373D02*
X13843313Y22171663D01*
G75*
G02*
X13772603Y22171663I-35355J35355D01*
G01*
X13242273Y22701993D01*
G75*
G02*
X13242273Y22772703I35355J35355D01*
G01*
X13312983Y22843413D01*
G75*
G02*
X13383693Y22843413I35355J-35355D01*
G01*
X13914023Y22313083D01*
G75*
G02*
X13914023Y22242373I-35355J-35355D01*
G01*
G37*
G36*
G01*
X14196865Y22525216D02*
X14126155Y22454506D01*
G75*
G02*
X14055445Y22454506I-35355J35355D01*
G01*
X13525115Y22984836D01*
G75*
G02*
X13525115Y23055546I35355J35355D01*
G01*
X13595825Y23126256D01*
G75*
G02*
X13666535Y23126256I35355J-35355D01*
G01*
X14196865Y22595926D01*
G75*
G02*
X14196865Y22525216I-35355J-35355D01*
G01*
G37*
G36*
G01*
X14196865Y23904074D02*
X13666535Y23373744D01*
G75*
G02*
X13595825Y23373744I-35355J35355D01*
G01*
X13525115Y23444454D01*
G75*
G02*
X13525115Y23515164I35355J35355D01*
G01*
X14055445Y24045494D01*
G75*
G02*
X14126155Y24045494I35355J-35355D01*
G01*
X14196865Y23974784D01*
G75*
G02*
X14196865Y23904074I-35355J-35355D01*
G01*
G37*
G36*
G01*
X13914023Y24186917D02*
X13383693Y23656587D01*
G75*
G02*
X13312983Y23656587I-35355J35355D01*
G01*
X13242273Y23727297D01*
G75*
G02*
X13242273Y23798007I35355J35355D01*
G01*
X13772603Y24328337D01*
G75*
G02*
X13843313Y24328337I35355J-35355D01*
G01*
X13914023Y24257627D01*
G75*
G02*
X13914023Y24186917I-35355J-35355D01*
G01*
G37*
G36*
G01*
X13631180Y24469760D02*
X13100850Y23939430D01*
G75*
G02*
X13030140Y23939430I-35355J35355D01*
G01*
X12959430Y24010140D01*
G75*
G02*
X12959430Y24080850I35355J35355D01*
G01*
X13489760Y24611180D01*
G75*
G02*
X13560470Y24611180I35355J-35355D01*
G01*
X13631180Y24540470D01*
G75*
G02*
X13631180Y24469760I-35355J-35355D01*
G01*
G37*
G36*
G01*
X13348337Y24752603D02*
X12818007Y24222273D01*
G75*
G02*
X12747297Y24222273I-35355J35355D01*
G01*
X12676587Y24292983D01*
G75*
G02*
X12676587Y24363693I35355J35355D01*
G01*
X13206917Y24894023D01*
G75*
G02*
X13277627Y24894023I35355J-35355D01*
G01*
X13348337Y24823313D01*
G75*
G02*
X13348337Y24752603I-35355J-35355D01*
G01*
G37*
G36*
G01*
X13065494Y25035445D02*
X12535164Y24505115D01*
G75*
G02*
X12464454Y24505115I-35355J35355D01*
G01*
X12393744Y24575825D01*
G75*
G02*
X12393744Y24646535I35355J35355D01*
G01*
X12924074Y25176865D01*
G75*
G02*
X12994784Y25176865I35355J-35355D01*
G01*
X13065494Y25106155D01*
G75*
G02*
X13065494Y25035445I-35355J-35355D01*
G01*
G37*
G36*
G01*
X12146256Y24575825D02*
X12075546Y24505115D01*
G75*
G02*
X12004836Y24505115I-35355J35355D01*
G01*
X11474506Y25035445D01*
G75*
G02*
X11474506Y25106155I35355J35355D01*
G01*
X11545216Y25176865D01*
G75*
G02*
X11615926Y25176865I35355J-35355D01*
G01*
X12146256Y24646535D01*
G75*
G02*
X12146256Y24575825I-35355J-35355D01*
G01*
G37*
G36*
G01*
X11863413Y24292983D02*
X11792703Y24222273D01*
G75*
G02*
X11721993Y24222273I-35355J35355D01*
G01*
X11191663Y24752603D01*
G75*
G02*
X11191663Y24823313I35355J35355D01*
G01*
X11262373Y24894023D01*
G75*
G02*
X11333083Y24894023I35355J-35355D01*
G01*
X11863413Y24363693D01*
G75*
G02*
X11863413Y24292983I-35355J-35355D01*
G01*
G37*
G36*
G01*
X11580570Y24010140D02*
X11509860Y23939430D01*
G75*
G02*
X11439150Y23939430I-35355J35355D01*
G01*
X10908820Y24469760D01*
G75*
G02*
X10908820Y24540470I35355J35355D01*
G01*
X10979530Y24611180D01*
G75*
G02*
X11050240Y24611180I35355J-35355D01*
G01*
X11580570Y24080850D01*
G75*
G02*
X11580570Y24010140I-35355J-35355D01*
G01*
G37*
G36*
G01*
X11297727Y23727297D02*
X11227017Y23656587D01*
G75*
G02*
X11156307Y23656587I-35355J35355D01*
G01*
X10625977Y24186917D01*
G75*
G02*
X10625977Y24257627I35355J35355D01*
G01*
X10696687Y24328337D01*
G75*
G02*
X10767397Y24328337I35355J-35355D01*
G01*
X11297727Y23798007D01*
G75*
G02*
X11297727Y23727297I-35355J-35355D01*
G01*
G37*
G36*
G01*
X11014885Y23444454D02*
X10944175Y23373744D01*
G75*
G02*
X10873465Y23373744I-35355J35355D01*
G01*
X10343135Y23904074D01*
G75*
G02*
X10343135Y23974784I35355J35355D01*
G01*
X10413845Y24045494D01*
G75*
G02*
X10484555Y24045494I35355J-35355D01*
G01*
X11014885Y23515164D01*
G75*
G02*
X11014885Y23444454I-35355J-35355D01*
G01*
G37*
G36*
G01*
X11014885Y22984836D02*
X10484555Y22454506D01*
G75*
G02*
X10413845Y22454506I-35355J35355D01*
G01*
X10343135Y22525216D01*
G75*
G02*
X10343135Y22595926I35355J35355D01*
G01*
X10873465Y23126256D01*
G75*
G02*
X10944175Y23126256I35355J-35355D01*
G01*
X11014885Y23055546D01*
G75*
G02*
X11014885Y22984836I-35355J-35355D01*
G01*
G37*
G36*
G01*
X11297727Y22701993D02*
X10767397Y22171663D01*
G75*
G02*
X10696687Y22171663I-35355J35355D01*
G01*
X10625977Y22242373D01*
G75*
G02*
X10625977Y22313083I35355J35355D01*
G01*
X11156307Y22843413D01*
G75*
G02*
X11227017Y22843413I35355J-35355D01*
G01*
X11297727Y22772703D01*
G75*
G02*
X11297727Y22701993I-35355J-35355D01*
G01*
G37*
G36*
G01*
X11580570Y22419150D02*
X11050240Y21888820D01*
G75*
G02*
X10979530Y21888820I-35355J35355D01*
G01*
X10908820Y21959530D01*
G75*
G02*
X10908820Y22030240I35355J35355D01*
G01*
X11439150Y22560570D01*
G75*
G02*
X11509860Y22560570I35355J-35355D01*
G01*
X11580570Y22489860D01*
G75*
G02*
X11580570Y22419150I-35355J-35355D01*
G01*
G37*
G36*
G01*
X11863413Y22136307D02*
X11333083Y21605977D01*
G75*
G02*
X11262373Y21605977I-35355J35355D01*
G01*
X11191663Y21676687D01*
G75*
G02*
X11191663Y21747397I35355J35355D01*
G01*
X11721993Y22277727D01*
G75*
G02*
X11792703Y22277727I35355J-35355D01*
G01*
X11863413Y22207017D01*
G75*
G02*
X11863413Y22136307I-35355J-35355D01*
G01*
G37*
G36*
G01*
X12146256Y21853465D02*
X11615926Y21323135D01*
G75*
G02*
X11545216Y21323135I-35355J35355D01*
G01*
X11474506Y21393845D01*
G75*
G02*
X11474506Y21464555I35355J35355D01*
G01*
X12004836Y21994885D01*
G75*
G02*
X12075546Y21994885I35355J-35355D01*
G01*
X12146256Y21924175D01*
G75*
G02*
X12146256Y21853465I-35355J-35355D01*
G01*
G37*
G36*
G01*
X12625321Y22551732D02*
X12388440Y22314851D01*
G75*
G02*
X12151560Y22314851I-118440J118440D01*
G01*
X11914679Y22551732D01*
G75*
G02*
X11914679Y22788612I118440J118440D01*
G01*
X12151560Y23025493D01*
G75*
G02*
X12388440Y23025493I118440J-118440D01*
G01*
X12625321Y22788612D01*
G75*
G02*
X12625321Y22551732I-118440J-118440D01*
G01*
G37*
G36*
G01*
X13205149Y23131560D02*
X12968268Y22894679D01*
G75*
G02*
X12731388Y22894679I-118440J118440D01*
G01*
X12494507Y23131560D01*
G75*
G02*
X12494507Y23368440I118440J118440D01*
G01*
X12731388Y23605321D01*
G75*
G02*
X12968268Y23605321I118440J-118440D01*
G01*
X13205149Y23368440D01*
G75*
G02*
X13205149Y23131560I-118440J-118440D01*
G01*
G37*
G36*
G01*
X12045493Y23131560D02*
X11808612Y22894679D01*
G75*
G02*
X11571732Y22894679I-118440J118440D01*
G01*
X11334851Y23131560D01*
G75*
G02*
X11334851Y23368440I118440J118440D01*
G01*
X11571732Y23605321D01*
G75*
G02*
X11808612Y23605321I118440J-118440D01*
G01*
X12045493Y23368440D01*
G75*
G02*
X12045493Y23131560I-118440J-118440D01*
G01*
G37*
G36*
G01*
X12625321Y23711388D02*
X12388440Y23474507D01*
G75*
G02*
X12151560Y23474507I-118440J118440D01*
G01*
X11914679Y23711388D01*
G75*
G02*
X11914679Y23948268I118440J118440D01*
G01*
X12151560Y24185149D01*
G75*
G02*
X12388440Y24185149I118440J-118440D01*
G01*
X12625321Y23948268D01*
G75*
G02*
X12625321Y23711388I-118440J-118440D01*
G01*
G37*
G36*
G01*
X3635000Y26350000D02*
X3185000Y26350000D01*
G75*
G02*
X3110000Y26425000I0J75000D01*
G01*
X3110000Y26575000D01*
G75*
G02*
X3185000Y26650000I75000J0D01*
G01*
X3635000Y26650000D01*
G75*
G02*
X3710000Y26575000I0J-75000D01*
G01*
X3710000Y26425000D01*
G75*
G02*
X3635000Y26350000I-75000J0D01*
G01*
G37*
G36*
G01*
X3635000Y27050000D02*
X3185000Y27050000D01*
G75*
G02*
X3110000Y27125000I0J75000D01*
G01*
X3110000Y27275000D01*
G75*
G02*
X3185000Y27350000I75000J0D01*
G01*
X3635000Y27350000D01*
G75*
G02*
X3710000Y27275000I0J-75000D01*
G01*
X3710000Y27125000D01*
G75*
G02*
X3635000Y27050000I-75000J0D01*
G01*
G37*
G36*
G01*
X5555000Y26350000D02*
X5105000Y26350000D01*
G75*
G02*
X5030000Y26425000I0J75000D01*
G01*
X5030000Y26575000D01*
G75*
G02*
X5105000Y26650000I75000J0D01*
G01*
X5555000Y26650000D01*
G75*
G02*
X5630000Y26575000I0J-75000D01*
G01*
X5630000Y26425000D01*
G75*
G02*
X5555000Y26350000I-75000J0D01*
G01*
G37*
G36*
G01*
X5555000Y27050000D02*
X5105000Y27050000D01*
G75*
G02*
X5030000Y27125000I0J75000D01*
G01*
X5030000Y27275000D01*
G75*
G02*
X5105000Y27350000I75000J0D01*
G01*
X5555000Y27350000D01*
G75*
G02*
X5630000Y27275000I0J-75000D01*
G01*
X5630000Y27125000D01*
G75*
G02*
X5555000Y27050000I-75000J0D01*
G01*
G37*
G36*
G01*
X12046000Y26499500D02*
X12046000Y26700500D01*
G75*
G02*
X12125500Y26780000I79500J0D01*
G01*
X12284500Y26780000D01*
G75*
G02*
X12364000Y26700500I0J-79500D01*
G01*
X12364000Y26499500D01*
G75*
G02*
X12284500Y26420000I-79500J0D01*
G01*
X12125500Y26420000D01*
G75*
G02*
X12046000Y26499500I0J79500D01*
G01*
G37*
G36*
G01*
X12736000Y26499500D02*
X12736000Y26700500D01*
G75*
G02*
X12815500Y26780000I79500J0D01*
G01*
X12974500Y26780000D01*
G75*
G02*
X13054000Y26700500I0J-79500D01*
G01*
X13054000Y26499500D01*
G75*
G02*
X12974500Y26420000I-79500J0D01*
G01*
X12815500Y26420000D01*
G75*
G02*
X12736000Y26499500I0J79500D01*
G01*
G37*
G36*
G01*
X13876000Y25799500D02*
X13876000Y26000500D01*
G75*
G02*
X13955500Y26080000I79500J0D01*
G01*
X14114500Y26080000D01*
G75*
G02*
X14194000Y26000500I0J-79500D01*
G01*
X14194000Y25799500D01*
G75*
G02*
X14114500Y25720000I-79500J0D01*
G01*
X13955500Y25720000D01*
G75*
G02*
X13876000Y25799500I0J79500D01*
G01*
G37*
G36*
G01*
X14566000Y25799500D02*
X14566000Y26000500D01*
G75*
G02*
X14645500Y26080000I79500J0D01*
G01*
X14804500Y26080000D01*
G75*
G02*
X14884000Y26000500I0J-79500D01*
G01*
X14884000Y25799500D01*
G75*
G02*
X14804500Y25720000I-79500J0D01*
G01*
X14645500Y25720000D01*
G75*
G02*
X14566000Y25799500I0J79500D01*
G01*
G37*
G36*
G01*
X5320500Y8026000D02*
X5119500Y8026000D01*
G75*
G02*
X5040000Y8105500I0J79500D01*
G01*
X5040000Y8264500D01*
G75*
G02*
X5119500Y8344000I79500J0D01*
G01*
X5320500Y8344000D01*
G75*
G02*
X5400000Y8264500I0J-79500D01*
G01*
X5400000Y8105500D01*
G75*
G02*
X5320500Y8026000I-79500J0D01*
G01*
G37*
G36*
G01*
X5320500Y8716000D02*
X5119500Y8716000D01*
G75*
G02*
X5040000Y8795500I0J79500D01*
G01*
X5040000Y8954500D01*
G75*
G02*
X5119500Y9034000I79500J0D01*
G01*
X5320500Y9034000D01*
G75*
G02*
X5400000Y8954500I0J-79500D01*
G01*
X5400000Y8795500D01*
G75*
G02*
X5320500Y8716000I-79500J0D01*
G01*
G37*
G36*
G01*
X6460000Y26940000D02*
X6120000Y26940000D01*
G75*
G02*
X5980000Y27080000I0J140000D01*
G01*
X5980000Y27360000D01*
G75*
G02*
X6120000Y27500000I140000J0D01*
G01*
X6460000Y27500000D01*
G75*
G02*
X6600000Y27360000I0J-140000D01*
G01*
X6600000Y27080000D01*
G75*
G02*
X6460000Y26940000I-140000J0D01*
G01*
G37*
G36*
G01*
X6460000Y25980000D02*
X6120000Y25980000D01*
G75*
G02*
X5980000Y26120000I0J140000D01*
G01*
X5980000Y26400000D01*
G75*
G02*
X6120000Y26540000I140000J0D01*
G01*
X6460000Y26540000D01*
G75*
G02*
X6600000Y26400000I0J-140000D01*
G01*
X6600000Y26120000D01*
G75*
G02*
X6460000Y25980000I-140000J0D01*
G01*
G37*
G36*
G01*
X4540000Y26940000D02*
X4200000Y26940000D01*
G75*
G02*
X4060000Y27080000I0J140000D01*
G01*
X4060000Y27360000D01*
G75*
G02*
X4200000Y27500000I140000J0D01*
G01*
X4540000Y27500000D01*
G75*
G02*
X4680000Y27360000I0J-140000D01*
G01*
X4680000Y27080000D01*
G75*
G02*
X4540000Y26940000I-140000J0D01*
G01*
G37*
G36*
G01*
X4540000Y25980000D02*
X4200000Y25980000D01*
G75*
G02*
X4060000Y26120000I0J140000D01*
G01*
X4060000Y26400000D01*
G75*
G02*
X4200000Y26540000I140000J0D01*
G01*
X4540000Y26540000D01*
G75*
G02*
X4680000Y26400000I0J-140000D01*
G01*
X4680000Y26120000D01*
G75*
G02*
X4540000Y25980000I-140000J0D01*
G01*
G37*
G36*
G01*
X5787446Y13324682D02*
X5645318Y13182554D01*
G75*
G02*
X5532888Y13182554I-56215J56215D01*
G01*
X5420458Y13294984D01*
G75*
G02*
X5420458Y13407414I56215J56215D01*
G01*
X5562586Y13549542D01*
G75*
G02*
X5675016Y13549542I56215J-56215D01*
G01*
X5787446Y13437112D01*
G75*
G02*
X5787446Y13324682I-56215J-56215D01*
G01*
G37*
G36*
G01*
X5299542Y13812586D02*
X5157414Y13670458D01*
G75*
G02*
X5044984Y13670458I-56215J56215D01*
G01*
X4932554Y13782888D01*
G75*
G02*
X4932554Y13895318I56215J56215D01*
G01*
X5074682Y14037446D01*
G75*
G02*
X5187112Y14037446I56215J-56215D01*
G01*
X5299542Y13925016D01*
G75*
G02*
X5299542Y13812586I-56215J-56215D01*
G01*
G37*
G36*
G01*
X13966000Y18479500D02*
X13966000Y18680500D01*
G75*
G02*
X14045500Y18760000I79500J0D01*
G01*
X14204500Y18760000D01*
G75*
G02*
X14284000Y18680500I0J-79500D01*
G01*
X14284000Y18479500D01*
G75*
G02*
X14204500Y18400000I-79500J0D01*
G01*
X14045500Y18400000D01*
G75*
G02*
X13966000Y18479500I0J79500D01*
G01*
G37*
G36*
G01*
X14656000Y18479500D02*
X14656000Y18680500D01*
G75*
G02*
X14735500Y18760000I79500J0D01*
G01*
X14894500Y18760000D01*
G75*
G02*
X14974000Y18680500I0J-79500D01*
G01*
X14974000Y18479500D01*
G75*
G02*
X14894500Y18400000I-79500J0D01*
G01*
X14735500Y18400000D01*
G75*
G02*
X14656000Y18479500I0J79500D01*
G01*
G37*
G36*
G01*
X4260956Y19356280D02*
X4118828Y19498408D01*
G75*
G02*
X4118828Y19610838I56215J56215D01*
G01*
X4231258Y19723268D01*
G75*
G02*
X4343688Y19723268I56215J-56215D01*
G01*
X4485816Y19581140D01*
G75*
G02*
X4485816Y19468710I-56215J-56215D01*
G01*
X4373386Y19356280D01*
G75*
G02*
X4260956Y19356280I-56215J56215D01*
G01*
G37*
G36*
G01*
X4748860Y19844184D02*
X4606732Y19986312D01*
G75*
G02*
X4606732Y20098742I56215J56215D01*
G01*
X4719162Y20211172D01*
G75*
G02*
X4831592Y20211172I56215J-56215D01*
G01*
X4973720Y20069044D01*
G75*
G02*
X4973720Y19956614I-56215J-56215D01*
G01*
X4861290Y19844184D01*
G75*
G02*
X4748860Y19844184I-56215J56215D01*
G01*
G37*
G36*
G01*
X5287446Y12834682D02*
X5145318Y12692554D01*
G75*
G02*
X5032888Y12692554I-56215J56215D01*
G01*
X4920458Y12804984D01*
G75*
G02*
X4920458Y12917414I56215J56215D01*
G01*
X5062586Y13059542D01*
G75*
G02*
X5175016Y13059542I56215J-56215D01*
G01*
X5287446Y12947112D01*
G75*
G02*
X5287446Y12834682I-56215J-56215D01*
G01*
G37*
G36*
G01*
X4799542Y13322586D02*
X4657414Y13180458D01*
G75*
G02*
X4544984Y13180458I-56215J56215D01*
G01*
X4432554Y13292888D01*
G75*
G02*
X4432554Y13405318I56215J56215D01*
G01*
X4574682Y13547446D01*
G75*
G02*
X4687112Y13547446I56215J-56215D01*
G01*
X4799542Y13435016D01*
G75*
G02*
X4799542Y13322586I-56215J-56215D01*
G01*
G37*
G36*
G01*
X4128960Y14279376D02*
X4369376Y14038960D01*
G75*
G02*
X4369376Y13840970I-98995J-98995D01*
G01*
X4171386Y13642980D01*
G75*
G02*
X3973396Y13642980I-98995J98995D01*
G01*
X3732980Y13883396D01*
G75*
G02*
X3732980Y14081386I98995J98995D01*
G01*
X3930970Y14279376D01*
G75*
G02*
X4128960Y14279376I98995J-98995D01*
G01*
G37*
G36*
G01*
X4807782Y14958198D02*
X5048198Y14717782D01*
G75*
G02*
X5048198Y14519792I-98995J-98995D01*
G01*
X4850208Y14321802D01*
G75*
G02*
X4652218Y14321802I-98995J98995D01*
G01*
X4411802Y14562218D01*
G75*
G02*
X4411802Y14760208I98995J98995D01*
G01*
X4609792Y14958198D01*
G75*
G02*
X4807782Y14958198I98995J-98995D01*
G01*
G37*
G36*
G01*
X4009044Y15211172D02*
X4151172Y15069044D01*
G75*
G02*
X4151172Y14956614I-56215J-56215D01*
G01*
X4038742Y14844184D01*
G75*
G02*
X3926312Y14844184I-56215J56215D01*
G01*
X3784184Y14986312D01*
G75*
G02*
X3784184Y15098742I56215J56215D01*
G01*
X3896614Y15211172D01*
G75*
G02*
X4009044Y15211172I56215J-56215D01*
G01*
G37*
G36*
G01*
X3521140Y14723268D02*
X3663268Y14581140D01*
G75*
G02*
X3663268Y14468710I-56215J-56215D01*
G01*
X3550838Y14356280D01*
G75*
G02*
X3438408Y14356280I-56215J56215D01*
G01*
X3296280Y14498408D01*
G75*
G02*
X3296280Y14610838I56215J56215D01*
G01*
X3408710Y14723268D01*
G75*
G02*
X3521140Y14723268I56215J-56215D01*
G01*
G37*
G36*
G01*
X14656000Y19179500D02*
X14656000Y19380500D01*
G75*
G02*
X14735500Y19460000I79500J0D01*
G01*
X14894500Y19460000D01*
G75*
G02*
X14974000Y19380500I0J-79500D01*
G01*
X14974000Y19179500D01*
G75*
G02*
X14894500Y19100000I-79500J0D01*
G01*
X14735500Y19100000D01*
G75*
G02*
X14656000Y19179500I0J79500D01*
G01*
G37*
G36*
G01*
X13966000Y19179500D02*
X13966000Y19380500D01*
G75*
G02*
X14045500Y19460000I79500J0D01*
G01*
X14204500Y19460000D01*
G75*
G02*
X14284000Y19380500I0J-79500D01*
G01*
X14284000Y19179500D01*
G75*
G02*
X14204500Y19100000I-79500J0D01*
G01*
X14045500Y19100000D01*
G75*
G02*
X13966000Y19179500I0J79500D01*
G01*
G37*
G36*
G01*
X14656000Y19879500D02*
X14656000Y20080500D01*
G75*
G02*
X14735500Y20160000I79500J0D01*
G01*
X14894500Y20160000D01*
G75*
G02*
X14974000Y20080500I0J-79500D01*
G01*
X14974000Y19879500D01*
G75*
G02*
X14894500Y19800000I-79500J0D01*
G01*
X14735500Y19800000D01*
G75*
G02*
X14656000Y19879500I0J79500D01*
G01*
G37*
G36*
G01*
X13966000Y19879500D02*
X13966000Y20080500D01*
G75*
G02*
X14045500Y20160000I79500J0D01*
G01*
X14204500Y20160000D01*
G75*
G02*
X14284000Y20080500I0J-79500D01*
G01*
X14284000Y19879500D01*
G75*
G02*
X14204500Y19800000I-79500J0D01*
G01*
X14045500Y19800000D01*
G75*
G02*
X13966000Y19879500I0J79500D01*
G01*
G37*
G36*
G01*
X14656000Y20579500D02*
X14656000Y20780500D01*
G75*
G02*
X14735500Y20860000I79500J0D01*
G01*
X14894500Y20860000D01*
G75*
G02*
X14974000Y20780500I0J-79500D01*
G01*
X14974000Y20579500D01*
G75*
G02*
X14894500Y20500000I-79500J0D01*
G01*
X14735500Y20500000D01*
G75*
G02*
X14656000Y20579500I0J79500D01*
G01*
G37*
G36*
G01*
X13966000Y20579500D02*
X13966000Y20780500D01*
G75*
G02*
X14045500Y20860000I79500J0D01*
G01*
X14204500Y20860000D01*
G75*
G02*
X14284000Y20780500I0J-79500D01*
G01*
X14284000Y20579500D01*
G75*
G02*
X14204500Y20500000I-79500J0D01*
G01*
X14045500Y20500000D01*
G75*
G02*
X13966000Y20579500I0J79500D01*
G01*
G37*
G36*
G01*
X13876000Y25099500D02*
X13876000Y25300500D01*
G75*
G02*
X13955500Y25380000I79500J0D01*
G01*
X14114500Y25380000D01*
G75*
G02*
X14194000Y25300500I0J-79500D01*
G01*
X14194000Y25099500D01*
G75*
G02*
X14114500Y25020000I-79500J0D01*
G01*
X13955500Y25020000D01*
G75*
G02*
X13876000Y25099500I0J79500D01*
G01*
G37*
G36*
G01*
X14566000Y25099500D02*
X14566000Y25300500D01*
G75*
G02*
X14645500Y25380000I79500J0D01*
G01*
X14804500Y25380000D01*
G75*
G02*
X14884000Y25300500I0J-79500D01*
G01*
X14884000Y25099500D01*
G75*
G02*
X14804500Y25020000I-79500J0D01*
G01*
X14645500Y25020000D01*
G75*
G02*
X14566000Y25099500I0J79500D01*
G01*
G37*
G36*
G01*
X14884000Y26700500D02*
X14884000Y26499500D01*
G75*
G02*
X14804500Y26420000I-79500J0D01*
G01*
X14645500Y26420000D01*
G75*
G02*
X14566000Y26499500I0J79500D01*
G01*
X14566000Y26700500D01*
G75*
G02*
X14645500Y26780000I79500J0D01*
G01*
X14804500Y26780000D01*
G75*
G02*
X14884000Y26700500I0J-79500D01*
G01*
G37*
G36*
G01*
X14194000Y26700500D02*
X14194000Y26499500D01*
G75*
G02*
X14114500Y26420000I-79500J0D01*
G01*
X13955500Y26420000D01*
G75*
G02*
X13876000Y26499500I0J79500D01*
G01*
X13876000Y26700500D01*
G75*
G02*
X13955500Y26780000I79500J0D01*
G01*
X14114500Y26780000D01*
G75*
G02*
X14194000Y26700500I0J-79500D01*
G01*
G37*
G36*
G01*
X14884000Y27400500D02*
X14884000Y27199500D01*
G75*
G02*
X14804500Y27120000I-79500J0D01*
G01*
X14645500Y27120000D01*
G75*
G02*
X14566000Y27199500I0J79500D01*
G01*
X14566000Y27400500D01*
G75*
G02*
X14645500Y27480000I79500J0D01*
G01*
X14804500Y27480000D01*
G75*
G02*
X14884000Y27400500I0J-79500D01*
G01*
G37*
G36*
G01*
X14194000Y27400500D02*
X14194000Y27199500D01*
G75*
G02*
X14114500Y27120000I-79500J0D01*
G01*
X13955500Y27120000D01*
G75*
G02*
X13876000Y27199500I0J79500D01*
G01*
X13876000Y27400500D01*
G75*
G02*
X13955500Y27480000I79500J0D01*
G01*
X14114500Y27480000D01*
G75*
G02*
X14194000Y27400500I0J-79500D01*
G01*
G37*
G36*
G01*
X14656000Y21279500D02*
X14656000Y21480500D01*
G75*
G02*
X14735500Y21560000I79500J0D01*
G01*
X14894500Y21560000D01*
G75*
G02*
X14974000Y21480500I0J-79500D01*
G01*
X14974000Y21279500D01*
G75*
G02*
X14894500Y21200000I-79500J0D01*
G01*
X14735500Y21200000D01*
G75*
G02*
X14656000Y21279500I0J79500D01*
G01*
G37*
G36*
G01*
X13966000Y21279500D02*
X13966000Y21480500D01*
G75*
G02*
X14045500Y21560000I79500J0D01*
G01*
X14204500Y21560000D01*
G75*
G02*
X14284000Y21480500I0J-79500D01*
G01*
X14284000Y21279500D01*
G75*
G02*
X14204500Y21200000I-79500J0D01*
G01*
X14045500Y21200000D01*
G75*
G02*
X13966000Y21279500I0J79500D01*
G01*
G37*
G36*
G01*
X3755318Y18617446D02*
X3897446Y18475318D01*
G75*
G02*
X3897446Y18362888I-56215J-56215D01*
G01*
X3785016Y18250458D01*
G75*
G02*
X3672586Y18250458I-56215J56215D01*
G01*
X3530458Y18392586D01*
G75*
G02*
X3530458Y18505016I56215J56215D01*
G01*
X3642888Y18617446D01*
G75*
G02*
X3755318Y18617446I56215J-56215D01*
G01*
G37*
G36*
G01*
X3267414Y18129542D02*
X3409542Y17987414D01*
G75*
G02*
X3409542Y17874984I-56215J-56215D01*
G01*
X3297112Y17762554D01*
G75*
G02*
X3184682Y17762554I-56215J56215D01*
G01*
X3042554Y17904682D01*
G75*
G02*
X3042554Y18017112I56215J56215D01*
G01*
X3154984Y18129542D01*
G75*
G02*
X3267414Y18129542I56215J-56215D01*
G01*
G37*
M02*
