G04 #@! TF.GenerationSoftware,KiCad,Pcbnew,5.1.9-1.fc33*
G04 #@! TF.CreationDate,2021-04-27T07:11:35+02:00*
G04 #@! TF.ProjectId,reDIP-SID,72654449-502d-4534-9944-2e6b69636164,0.2*
G04 #@! TF.SameCoordinates,PX5e28010PY8011a50*
G04 #@! TF.FileFunction,Soldermask,Bot*
G04 #@! TF.FilePolarity,Negative*
%FSLAX46Y46*%
G04 Gerber Fmt 4.6, Leading zero omitted, Abs format (unit mm)*
G04 Created by KiCad (PCBNEW 5.1.9-1.fc33) date 2021-04-27 07:11:35*
%MOMM*%
%LPD*%
G01*
G04 APERTURE LIST*
%ADD10C,0.500000*%
%ADD11O,1.100000X2.200000*%
%ADD12C,0.750000*%
%ADD13O,1.100000X1.700000*%
%ADD14C,1.700000*%
%ADD15C,0.850000*%
G04 APERTURE END LIST*
G36*
G01*
X3640000Y13115000D02*
X3640000Y11765000D01*
G75*
G02*
X3565000Y11690000I-75000J0D01*
G01*
X3415000Y11690000D01*
G75*
G02*
X3340000Y11765000I0J75000D01*
G01*
X3340000Y13115000D01*
G75*
G02*
X3415000Y13190000I75000J0D01*
G01*
X3565000Y13190000D01*
G75*
G02*
X3640000Y13115000I0J-75000D01*
G01*
G37*
G36*
G01*
X3640000Y19015000D02*
X3640000Y17665000D01*
G75*
G02*
X3565000Y17590000I-75000J0D01*
G01*
X3415000Y17590000D01*
G75*
G02*
X3340000Y17665000I0J75000D01*
G01*
X3340000Y19015000D01*
G75*
G02*
X3415000Y19090000I75000J0D01*
G01*
X3565000Y19090000D01*
G75*
G02*
X3640000Y19015000I0J-75000D01*
G01*
G37*
G36*
G01*
X4040000Y13115000D02*
X4040000Y11765000D01*
G75*
G02*
X3965000Y11690000I-75000J0D01*
G01*
X3815000Y11690000D01*
G75*
G02*
X3740000Y11765000I0J75000D01*
G01*
X3740000Y13115000D01*
G75*
G02*
X3815000Y13190000I75000J0D01*
G01*
X3965000Y13190000D01*
G75*
G02*
X4040000Y13115000I0J-75000D01*
G01*
G37*
G36*
G01*
X4040000Y19015000D02*
X4040000Y17665000D01*
G75*
G02*
X3965000Y17590000I-75000J0D01*
G01*
X3815000Y17590000D01*
G75*
G02*
X3740000Y17665000I0J75000D01*
G01*
X3740000Y19015000D01*
G75*
G02*
X3815000Y19090000I75000J0D01*
G01*
X3965000Y19090000D01*
G75*
G02*
X4040000Y19015000I0J-75000D01*
G01*
G37*
G36*
G01*
X4440000Y13115000D02*
X4440000Y11765000D01*
G75*
G02*
X4365000Y11690000I-75000J0D01*
G01*
X4215000Y11690000D01*
G75*
G02*
X4140000Y11765000I0J75000D01*
G01*
X4140000Y13115000D01*
G75*
G02*
X4215000Y13190000I75000J0D01*
G01*
X4365000Y13190000D01*
G75*
G02*
X4440000Y13115000I0J-75000D01*
G01*
G37*
G36*
G01*
X4440000Y19015000D02*
X4440000Y17665000D01*
G75*
G02*
X4365000Y17590000I-75000J0D01*
G01*
X4215000Y17590000D01*
G75*
G02*
X4140000Y17665000I0J75000D01*
G01*
X4140000Y19015000D01*
G75*
G02*
X4215000Y19090000I75000J0D01*
G01*
X4365000Y19090000D01*
G75*
G02*
X4440000Y19015000I0J-75000D01*
G01*
G37*
G36*
G01*
X4840000Y13115000D02*
X4840000Y11765000D01*
G75*
G02*
X4765000Y11690000I-75000J0D01*
G01*
X4615000Y11690000D01*
G75*
G02*
X4540000Y11765000I0J75000D01*
G01*
X4540000Y13115000D01*
G75*
G02*
X4615000Y13190000I75000J0D01*
G01*
X4765000Y13190000D01*
G75*
G02*
X4840000Y13115000I0J-75000D01*
G01*
G37*
G36*
G01*
X4840000Y19015000D02*
X4840000Y17665000D01*
G75*
G02*
X4765000Y17590000I-75000J0D01*
G01*
X4615000Y17590000D01*
G75*
G02*
X4540000Y17665000I0J75000D01*
G01*
X4540000Y19015000D01*
G75*
G02*
X4615000Y19090000I75000J0D01*
G01*
X4765000Y19090000D01*
G75*
G02*
X4840000Y19015000I0J-75000D01*
G01*
G37*
G36*
G01*
X5240000Y13115000D02*
X5240000Y11765000D01*
G75*
G02*
X5165000Y11690000I-75000J0D01*
G01*
X5015000Y11690000D01*
G75*
G02*
X4940000Y11765000I0J75000D01*
G01*
X4940000Y13115000D01*
G75*
G02*
X5015000Y13190000I75000J0D01*
G01*
X5165000Y13190000D01*
G75*
G02*
X5240000Y13115000I0J-75000D01*
G01*
G37*
G36*
G01*
X5240000Y19015000D02*
X5240000Y17665000D01*
G75*
G02*
X5165000Y17590000I-75000J0D01*
G01*
X5015000Y17590000D01*
G75*
G02*
X4940000Y17665000I0J75000D01*
G01*
X4940000Y19015000D01*
G75*
G02*
X5015000Y19090000I75000J0D01*
G01*
X5165000Y19090000D01*
G75*
G02*
X5240000Y19015000I0J-75000D01*
G01*
G37*
G36*
G01*
X5640000Y13115000D02*
X5640000Y11765000D01*
G75*
G02*
X5565000Y11690000I-75000J0D01*
G01*
X5415000Y11690000D01*
G75*
G02*
X5340000Y11765000I0J75000D01*
G01*
X5340000Y13115000D01*
G75*
G02*
X5415000Y13190000I75000J0D01*
G01*
X5565000Y13190000D01*
G75*
G02*
X5640000Y13115000I0J-75000D01*
G01*
G37*
G36*
G01*
X5640000Y19015000D02*
X5640000Y17665000D01*
G75*
G02*
X5565000Y17590000I-75000J0D01*
G01*
X5415000Y17590000D01*
G75*
G02*
X5340000Y17665000I0J75000D01*
G01*
X5340000Y19015000D01*
G75*
G02*
X5415000Y19090000I75000J0D01*
G01*
X5565000Y19090000D01*
G75*
G02*
X5640000Y19015000I0J-75000D01*
G01*
G37*
G36*
G01*
X6040000Y13115000D02*
X6040000Y11765000D01*
G75*
G02*
X5965000Y11690000I-75000J0D01*
G01*
X5815000Y11690000D01*
G75*
G02*
X5740000Y11765000I0J75000D01*
G01*
X5740000Y13115000D01*
G75*
G02*
X5815000Y13190000I75000J0D01*
G01*
X5965000Y13190000D01*
G75*
G02*
X6040000Y13115000I0J-75000D01*
G01*
G37*
G36*
G01*
X6040000Y19015000D02*
X6040000Y17665000D01*
G75*
G02*
X5965000Y17590000I-75000J0D01*
G01*
X5815000Y17590000D01*
G75*
G02*
X5740000Y17665000I0J75000D01*
G01*
X5740000Y19015000D01*
G75*
G02*
X5815000Y19090000I75000J0D01*
G01*
X5965000Y19090000D01*
G75*
G02*
X6040000Y19015000I0J-75000D01*
G01*
G37*
G36*
G01*
X6440000Y13115000D02*
X6440000Y11765000D01*
G75*
G02*
X6365000Y11690000I-75000J0D01*
G01*
X6215000Y11690000D01*
G75*
G02*
X6140000Y11765000I0J75000D01*
G01*
X6140000Y13115000D01*
G75*
G02*
X6215000Y13190000I75000J0D01*
G01*
X6365000Y13190000D01*
G75*
G02*
X6440000Y13115000I0J-75000D01*
G01*
G37*
G36*
G01*
X6440000Y19015000D02*
X6440000Y17665000D01*
G75*
G02*
X6365000Y17590000I-75000J0D01*
G01*
X6215000Y17590000D01*
G75*
G02*
X6140000Y17665000I0J75000D01*
G01*
X6140000Y19015000D01*
G75*
G02*
X6215000Y19090000I75000J0D01*
G01*
X6365000Y19090000D01*
G75*
G02*
X6440000Y19015000I0J-75000D01*
G01*
G37*
G36*
G01*
X6840000Y13115000D02*
X6840000Y11765000D01*
G75*
G02*
X6765000Y11690000I-75000J0D01*
G01*
X6615000Y11690000D01*
G75*
G02*
X6540000Y11765000I0J75000D01*
G01*
X6540000Y13115000D01*
G75*
G02*
X6615000Y13190000I75000J0D01*
G01*
X6765000Y13190000D01*
G75*
G02*
X6840000Y13115000I0J-75000D01*
G01*
G37*
G36*
G01*
X6840000Y19015000D02*
X6840000Y17665000D01*
G75*
G02*
X6765000Y17590000I-75000J0D01*
G01*
X6615000Y17590000D01*
G75*
G02*
X6540000Y17665000I0J75000D01*
G01*
X6540000Y19015000D01*
G75*
G02*
X6615000Y19090000I75000J0D01*
G01*
X6765000Y19090000D01*
G75*
G02*
X6840000Y19015000I0J-75000D01*
G01*
G37*
G36*
G01*
X7240000Y13115000D02*
X7240000Y11765000D01*
G75*
G02*
X7165000Y11690000I-75000J0D01*
G01*
X7015000Y11690000D01*
G75*
G02*
X6940000Y11765000I0J75000D01*
G01*
X6940000Y13115000D01*
G75*
G02*
X7015000Y13190000I75000J0D01*
G01*
X7165000Y13190000D01*
G75*
G02*
X7240000Y13115000I0J-75000D01*
G01*
G37*
G36*
G01*
X7240000Y19015000D02*
X7240000Y17665000D01*
G75*
G02*
X7165000Y17590000I-75000J0D01*
G01*
X7015000Y17590000D01*
G75*
G02*
X6940000Y17665000I0J75000D01*
G01*
X6940000Y19015000D01*
G75*
G02*
X7015000Y19090000I75000J0D01*
G01*
X7165000Y19090000D01*
G75*
G02*
X7240000Y19015000I0J-75000D01*
G01*
G37*
G36*
G01*
X7640000Y13115000D02*
X7640000Y11765000D01*
G75*
G02*
X7565000Y11690000I-75000J0D01*
G01*
X7415000Y11690000D01*
G75*
G02*
X7340000Y11765000I0J75000D01*
G01*
X7340000Y13115000D01*
G75*
G02*
X7415000Y13190000I75000J0D01*
G01*
X7565000Y13190000D01*
G75*
G02*
X7640000Y13115000I0J-75000D01*
G01*
G37*
G36*
G01*
X7640000Y19015000D02*
X7640000Y17665000D01*
G75*
G02*
X7565000Y17590000I-75000J0D01*
G01*
X7415000Y17590000D01*
G75*
G02*
X7340000Y17665000I0J75000D01*
G01*
X7340000Y19015000D01*
G75*
G02*
X7415000Y19090000I75000J0D01*
G01*
X7565000Y19090000D01*
G75*
G02*
X7640000Y19015000I0J-75000D01*
G01*
G37*
G36*
G01*
X8040000Y13115000D02*
X8040000Y11765000D01*
G75*
G02*
X7965000Y11690000I-75000J0D01*
G01*
X7815000Y11690000D01*
G75*
G02*
X7740000Y11765000I0J75000D01*
G01*
X7740000Y13115000D01*
G75*
G02*
X7815000Y13190000I75000J0D01*
G01*
X7965000Y13190000D01*
G75*
G02*
X8040000Y13115000I0J-75000D01*
G01*
G37*
G36*
G01*
X8040000Y19015000D02*
X8040000Y17665000D01*
G75*
G02*
X7965000Y17590000I-75000J0D01*
G01*
X7815000Y17590000D01*
G75*
G02*
X7740000Y17665000I0J75000D01*
G01*
X7740000Y19015000D01*
G75*
G02*
X7815000Y19090000I75000J0D01*
G01*
X7965000Y19090000D01*
G75*
G02*
X8040000Y19015000I0J-75000D01*
G01*
G37*
G36*
G01*
X8440000Y13115000D02*
X8440000Y11765000D01*
G75*
G02*
X8365000Y11690000I-75000J0D01*
G01*
X8215000Y11690000D01*
G75*
G02*
X8140000Y11765000I0J75000D01*
G01*
X8140000Y13115000D01*
G75*
G02*
X8215000Y13190000I75000J0D01*
G01*
X8365000Y13190000D01*
G75*
G02*
X8440000Y13115000I0J-75000D01*
G01*
G37*
G36*
G01*
X8440000Y19015000D02*
X8440000Y17665000D01*
G75*
G02*
X8365000Y17590000I-75000J0D01*
G01*
X8215000Y17590000D01*
G75*
G02*
X8140000Y17665000I0J75000D01*
G01*
X8140000Y19015000D01*
G75*
G02*
X8215000Y19090000I75000J0D01*
G01*
X8365000Y19090000D01*
G75*
G02*
X8440000Y19015000I0J-75000D01*
G01*
G37*
G36*
G01*
X8840000Y13115000D02*
X8840000Y11765000D01*
G75*
G02*
X8765000Y11690000I-75000J0D01*
G01*
X8615000Y11690000D01*
G75*
G02*
X8540000Y11765000I0J75000D01*
G01*
X8540000Y13115000D01*
G75*
G02*
X8615000Y13190000I75000J0D01*
G01*
X8765000Y13190000D01*
G75*
G02*
X8840000Y13115000I0J-75000D01*
G01*
G37*
G36*
G01*
X8840000Y19015000D02*
X8840000Y17665000D01*
G75*
G02*
X8765000Y17590000I-75000J0D01*
G01*
X8615000Y17590000D01*
G75*
G02*
X8540000Y17665000I0J75000D01*
G01*
X8540000Y19015000D01*
G75*
G02*
X8615000Y19090000I75000J0D01*
G01*
X8765000Y19090000D01*
G75*
G02*
X8840000Y19015000I0J-75000D01*
G01*
G37*
G36*
G01*
X9240000Y13115000D02*
X9240000Y11765000D01*
G75*
G02*
X9165000Y11690000I-75000J0D01*
G01*
X9015000Y11690000D01*
G75*
G02*
X8940000Y11765000I0J75000D01*
G01*
X8940000Y13115000D01*
G75*
G02*
X9015000Y13190000I75000J0D01*
G01*
X9165000Y13190000D01*
G75*
G02*
X9240000Y13115000I0J-75000D01*
G01*
G37*
G36*
G01*
X9240000Y19015000D02*
X9240000Y17665000D01*
G75*
G02*
X9165000Y17590000I-75000J0D01*
G01*
X9015000Y17590000D01*
G75*
G02*
X8940000Y17665000I0J75000D01*
G01*
X8940000Y19015000D01*
G75*
G02*
X9015000Y19090000I75000J0D01*
G01*
X9165000Y19090000D01*
G75*
G02*
X9240000Y19015000I0J-75000D01*
G01*
G37*
G36*
G01*
X9640000Y13115000D02*
X9640000Y11765000D01*
G75*
G02*
X9565000Y11690000I-75000J0D01*
G01*
X9415000Y11690000D01*
G75*
G02*
X9340000Y11765000I0J75000D01*
G01*
X9340000Y13115000D01*
G75*
G02*
X9415000Y13190000I75000J0D01*
G01*
X9565000Y13190000D01*
G75*
G02*
X9640000Y13115000I0J-75000D01*
G01*
G37*
G36*
G01*
X9640000Y19015000D02*
X9640000Y17665000D01*
G75*
G02*
X9565000Y17590000I-75000J0D01*
G01*
X9415000Y17590000D01*
G75*
G02*
X9340000Y17665000I0J75000D01*
G01*
X9340000Y19015000D01*
G75*
G02*
X9415000Y19090000I75000J0D01*
G01*
X9565000Y19090000D01*
G75*
G02*
X9640000Y19015000I0J-75000D01*
G01*
G37*
G36*
G01*
X10040000Y13115000D02*
X10040000Y11765000D01*
G75*
G02*
X9965000Y11690000I-75000J0D01*
G01*
X9815000Y11690000D01*
G75*
G02*
X9740000Y11765000I0J75000D01*
G01*
X9740000Y13115000D01*
G75*
G02*
X9815000Y13190000I75000J0D01*
G01*
X9965000Y13190000D01*
G75*
G02*
X10040000Y13115000I0J-75000D01*
G01*
G37*
G36*
G01*
X10040000Y19015000D02*
X10040000Y17665000D01*
G75*
G02*
X9965000Y17590000I-75000J0D01*
G01*
X9815000Y17590000D01*
G75*
G02*
X9740000Y17665000I0J75000D01*
G01*
X9740000Y19015000D01*
G75*
G02*
X9815000Y19090000I75000J0D01*
G01*
X9965000Y19090000D01*
G75*
G02*
X10040000Y19015000I0J-75000D01*
G01*
G37*
G36*
G01*
X10440000Y13115000D02*
X10440000Y11765000D01*
G75*
G02*
X10365000Y11690000I-75000J0D01*
G01*
X10215000Y11690000D01*
G75*
G02*
X10140000Y11765000I0J75000D01*
G01*
X10140000Y13115000D01*
G75*
G02*
X10215000Y13190000I75000J0D01*
G01*
X10365000Y13190000D01*
G75*
G02*
X10440000Y13115000I0J-75000D01*
G01*
G37*
G36*
G01*
X10440000Y19015000D02*
X10440000Y17665000D01*
G75*
G02*
X10365000Y17590000I-75000J0D01*
G01*
X10215000Y17590000D01*
G75*
G02*
X10140000Y17665000I0J75000D01*
G01*
X10140000Y19015000D01*
G75*
G02*
X10215000Y19090000I75000J0D01*
G01*
X10365000Y19090000D01*
G75*
G02*
X10440000Y19015000I0J-75000D01*
G01*
G37*
G36*
G01*
X10840000Y13115000D02*
X10840000Y11765000D01*
G75*
G02*
X10765000Y11690000I-75000J0D01*
G01*
X10615000Y11690000D01*
G75*
G02*
X10540000Y11765000I0J75000D01*
G01*
X10540000Y13115000D01*
G75*
G02*
X10615000Y13190000I75000J0D01*
G01*
X10765000Y13190000D01*
G75*
G02*
X10840000Y13115000I0J-75000D01*
G01*
G37*
G36*
G01*
X10840000Y19015000D02*
X10840000Y17665000D01*
G75*
G02*
X10765000Y17590000I-75000J0D01*
G01*
X10615000Y17590000D01*
G75*
G02*
X10540000Y17665000I0J75000D01*
G01*
X10540000Y19015000D01*
G75*
G02*
X10615000Y19090000I75000J0D01*
G01*
X10765000Y19090000D01*
G75*
G02*
X10840000Y19015000I0J-75000D01*
G01*
G37*
G36*
G01*
X11240000Y13115000D02*
X11240000Y11765000D01*
G75*
G02*
X11165000Y11690000I-75000J0D01*
G01*
X11015000Y11690000D01*
G75*
G02*
X10940000Y11765000I0J75000D01*
G01*
X10940000Y13115000D01*
G75*
G02*
X11015000Y13190000I75000J0D01*
G01*
X11165000Y13190000D01*
G75*
G02*
X11240000Y13115000I0J-75000D01*
G01*
G37*
G36*
G01*
X11240000Y19015000D02*
X11240000Y17665000D01*
G75*
G02*
X11165000Y17590000I-75000J0D01*
G01*
X11015000Y17590000D01*
G75*
G02*
X10940000Y17665000I0J75000D01*
G01*
X10940000Y19015000D01*
G75*
G02*
X11015000Y19090000I75000J0D01*
G01*
X11165000Y19090000D01*
G75*
G02*
X11240000Y19015000I0J-75000D01*
G01*
G37*
G36*
G01*
X11640000Y13115000D02*
X11640000Y11765000D01*
G75*
G02*
X11565000Y11690000I-75000J0D01*
G01*
X11415000Y11690000D01*
G75*
G02*
X11340000Y11765000I0J75000D01*
G01*
X11340000Y13115000D01*
G75*
G02*
X11415000Y13190000I75000J0D01*
G01*
X11565000Y13190000D01*
G75*
G02*
X11640000Y13115000I0J-75000D01*
G01*
G37*
G36*
G01*
X11640000Y19015000D02*
X11640000Y17665000D01*
G75*
G02*
X11565000Y17590000I-75000J0D01*
G01*
X11415000Y17590000D01*
G75*
G02*
X11340000Y17665000I0J75000D01*
G01*
X11340000Y19015000D01*
G75*
G02*
X11415000Y19090000I75000J0D01*
G01*
X11565000Y19090000D01*
G75*
G02*
X11640000Y19015000I0J-75000D01*
G01*
G37*
G36*
G01*
X12040000Y13115000D02*
X12040000Y11765000D01*
G75*
G02*
X11965000Y11690000I-75000J0D01*
G01*
X11815000Y11690000D01*
G75*
G02*
X11740000Y11765000I0J75000D01*
G01*
X11740000Y13115000D01*
G75*
G02*
X11815000Y13190000I75000J0D01*
G01*
X11965000Y13190000D01*
G75*
G02*
X12040000Y13115000I0J-75000D01*
G01*
G37*
G36*
G01*
X12040000Y19015000D02*
X12040000Y17665000D01*
G75*
G02*
X11965000Y17590000I-75000J0D01*
G01*
X11815000Y17590000D01*
G75*
G02*
X11740000Y17665000I0J75000D01*
G01*
X11740000Y19015000D01*
G75*
G02*
X11815000Y19090000I75000J0D01*
G01*
X11965000Y19090000D01*
G75*
G02*
X12040000Y19015000I0J-75000D01*
G01*
G37*
G36*
G01*
X12440000Y13115000D02*
X12440000Y11765000D01*
G75*
G02*
X12365000Y11690000I-75000J0D01*
G01*
X12215000Y11690000D01*
G75*
G02*
X12140000Y11765000I0J75000D01*
G01*
X12140000Y13115000D01*
G75*
G02*
X12215000Y13190000I75000J0D01*
G01*
X12365000Y13190000D01*
G75*
G02*
X12440000Y13115000I0J-75000D01*
G01*
G37*
G36*
G01*
X12440000Y19015000D02*
X12440000Y17665000D01*
G75*
G02*
X12365000Y17590000I-75000J0D01*
G01*
X12215000Y17590000D01*
G75*
G02*
X12140000Y17665000I0J75000D01*
G01*
X12140000Y19015000D01*
G75*
G02*
X12215000Y19090000I75000J0D01*
G01*
X12365000Y19090000D01*
G75*
G02*
X12440000Y19015000I0J-75000D01*
G01*
G37*
G36*
G01*
X12840000Y13115000D02*
X12840000Y11765000D01*
G75*
G02*
X12765000Y11690000I-75000J0D01*
G01*
X12615000Y11690000D01*
G75*
G02*
X12540000Y11765000I0J75000D01*
G01*
X12540000Y13115000D01*
G75*
G02*
X12615000Y13190000I75000J0D01*
G01*
X12765000Y13190000D01*
G75*
G02*
X12840000Y13115000I0J-75000D01*
G01*
G37*
G36*
G01*
X12840000Y19015000D02*
X12840000Y17665000D01*
G75*
G02*
X12765000Y17590000I-75000J0D01*
G01*
X12615000Y17590000D01*
G75*
G02*
X12540000Y17665000I0J75000D01*
G01*
X12540000Y19015000D01*
G75*
G02*
X12615000Y19090000I75000J0D01*
G01*
X12765000Y19090000D01*
G75*
G02*
X12840000Y19015000I0J-75000D01*
G01*
G37*
G36*
G01*
X13240000Y13115000D02*
X13240000Y11765000D01*
G75*
G02*
X13165000Y11690000I-75000J0D01*
G01*
X13015000Y11690000D01*
G75*
G02*
X12940000Y11765000I0J75000D01*
G01*
X12940000Y13115000D01*
G75*
G02*
X13015000Y13190000I75000J0D01*
G01*
X13165000Y13190000D01*
G75*
G02*
X13240000Y13115000I0J-75000D01*
G01*
G37*
G36*
G01*
X13240000Y19015000D02*
X13240000Y17665000D01*
G75*
G02*
X13165000Y17590000I-75000J0D01*
G01*
X13015000Y17590000D01*
G75*
G02*
X12940000Y17665000I0J75000D01*
G01*
X12940000Y19015000D01*
G75*
G02*
X13015000Y19090000I75000J0D01*
G01*
X13165000Y19090000D01*
G75*
G02*
X13240000Y19015000I0J-75000D01*
G01*
G37*
G36*
G01*
X13640000Y13115000D02*
X13640000Y11765000D01*
G75*
G02*
X13565000Y11690000I-75000J0D01*
G01*
X13415000Y11690000D01*
G75*
G02*
X13340000Y11765000I0J75000D01*
G01*
X13340000Y13115000D01*
G75*
G02*
X13415000Y13190000I75000J0D01*
G01*
X13565000Y13190000D01*
G75*
G02*
X13640000Y13115000I0J-75000D01*
G01*
G37*
G36*
G01*
X13640000Y19015000D02*
X13640000Y17665000D01*
G75*
G02*
X13565000Y17590000I-75000J0D01*
G01*
X13415000Y17590000D01*
G75*
G02*
X13340000Y17665000I0J75000D01*
G01*
X13340000Y19015000D01*
G75*
G02*
X13415000Y19090000I75000J0D01*
G01*
X13565000Y19090000D01*
G75*
G02*
X13640000Y19015000I0J-75000D01*
G01*
G37*
G36*
G01*
X14040000Y13115000D02*
X14040000Y11765000D01*
G75*
G02*
X13965000Y11690000I-75000J0D01*
G01*
X13815000Y11690000D01*
G75*
G02*
X13740000Y11765000I0J75000D01*
G01*
X13740000Y13115000D01*
G75*
G02*
X13815000Y13190000I75000J0D01*
G01*
X13965000Y13190000D01*
G75*
G02*
X14040000Y13115000I0J-75000D01*
G01*
G37*
G36*
G01*
X14040000Y19015000D02*
X14040000Y17665000D01*
G75*
G02*
X13965000Y17590000I-75000J0D01*
G01*
X13815000Y17590000D01*
G75*
G02*
X13740000Y17665000I0J75000D01*
G01*
X13740000Y19015000D01*
G75*
G02*
X13815000Y19090000I75000J0D01*
G01*
X13965000Y19090000D01*
G75*
G02*
X14040000Y19015000I0J-75000D01*
G01*
G37*
G36*
G01*
X14440000Y13115000D02*
X14440000Y11765000D01*
G75*
G02*
X14365000Y11690000I-75000J0D01*
G01*
X14215000Y11690000D01*
G75*
G02*
X14140000Y11765000I0J75000D01*
G01*
X14140000Y13115000D01*
G75*
G02*
X14215000Y13190000I75000J0D01*
G01*
X14365000Y13190000D01*
G75*
G02*
X14440000Y13115000I0J-75000D01*
G01*
G37*
G36*
G01*
X14440000Y19015000D02*
X14440000Y17665000D01*
G75*
G02*
X14365000Y17590000I-75000J0D01*
G01*
X14215000Y17590000D01*
G75*
G02*
X14140000Y17665000I0J75000D01*
G01*
X14140000Y19015000D01*
G75*
G02*
X14215000Y19090000I75000J0D01*
G01*
X14365000Y19090000D01*
G75*
G02*
X14440000Y19015000I0J-75000D01*
G01*
G37*
D10*
X12270000Y23250000D03*
G36*
G01*
X4160000Y26570000D02*
X4580000Y26570000D01*
G75*
G02*
X4740000Y26410000I0J-160000D01*
G01*
X4740000Y26090000D01*
G75*
G02*
X4580000Y25930000I-160000J0D01*
G01*
X4160000Y25930000D01*
G75*
G02*
X4000000Y26090000I0J160000D01*
G01*
X4000000Y26410000D01*
G75*
G02*
X4160000Y26570000I160000J0D01*
G01*
G37*
G36*
G01*
X4160000Y27590000D02*
X4580000Y27590000D01*
G75*
G02*
X4740000Y27430000I0J-160000D01*
G01*
X4740000Y27110000D01*
G75*
G02*
X4580000Y26950000I-160000J0D01*
G01*
X4160000Y26950000D01*
G75*
G02*
X4000000Y27110000I0J160000D01*
G01*
X4000000Y27430000D01*
G75*
G02*
X4160000Y27590000I160000J0D01*
G01*
G37*
D11*
X4570000Y29790000D03*
X13210000Y29790000D03*
D12*
X11780000Y30320000D03*
D13*
X13210000Y33970000D03*
D12*
X6000000Y30320000D03*
D13*
X4570000Y33970000D03*
D10*
X8890000Y7360000D03*
X4650000Y23520000D03*
X4050000Y23520000D03*
X3750000Y24040000D03*
X4350000Y24040000D03*
X4950000Y24040000D03*
X5250000Y23520000D03*
X5550000Y24040000D03*
X7000000Y17180000D03*
X8890000Y9360000D03*
X12700000Y23670000D03*
X11850000Y23680000D03*
X12700000Y22830000D03*
X11850000Y22830000D03*
X8890000Y15290000D03*
X9890000Y16300000D03*
X10900000Y17180000D03*
X8740000Y19450000D03*
X8890000Y17280000D03*
X7900000Y16300000D03*
D14*
X16510000Y1270000D03*
X16510000Y3810000D03*
X16510000Y6350000D03*
X16510000Y8890000D03*
X16510000Y11430000D03*
X16510000Y13970000D03*
X16510000Y16510000D03*
X16510000Y19050000D03*
X16510000Y21590000D03*
X16510000Y24130000D03*
X3810000Y1270000D03*
X3810000Y3810000D03*
X6350000Y1270000D03*
X6350000Y3810000D03*
X8890000Y1270000D03*
X8890000Y3810000D03*
X11430000Y1270000D03*
X11430000Y3810000D03*
X13970000Y1270000D03*
X13970000Y3810000D03*
X1270000Y1270000D03*
X1270000Y3810000D03*
X1270000Y6350000D03*
X1270000Y8890000D03*
X1270000Y11430000D03*
X1270000Y13970000D03*
X1270000Y16510000D03*
X1270000Y19050000D03*
X1270000Y21590000D03*
X1270000Y24130000D03*
G36*
G01*
X10640000Y6280000D02*
X10640000Y6630000D01*
G75*
G02*
X10815000Y6805000I175000J0D01*
G01*
X12215000Y6805000D01*
G75*
G02*
X12390000Y6630000I0J-175000D01*
G01*
X12390000Y6280000D01*
G75*
G02*
X12215000Y6105000I-175000J0D01*
G01*
X10815000Y6105000D01*
G75*
G02*
X10640000Y6280000I0J175000D01*
G01*
G37*
G36*
G01*
X10640000Y7550000D02*
X10640000Y7900000D01*
G75*
G02*
X10815000Y8075000I175000J0D01*
G01*
X12215000Y8075000D01*
G75*
G02*
X12390000Y7900000I0J-175000D01*
G01*
X12390000Y7550000D01*
G75*
G02*
X12215000Y7375000I-175000J0D01*
G01*
X10815000Y7375000D01*
G75*
G02*
X10640000Y7550000I0J175000D01*
G01*
G37*
G36*
G01*
X10640000Y8820000D02*
X10640000Y9170000D01*
G75*
G02*
X10815000Y9345000I175000J0D01*
G01*
X12215000Y9345000D01*
G75*
G02*
X12390000Y9170000I0J-175000D01*
G01*
X12390000Y8820000D01*
G75*
G02*
X12215000Y8645000I-175000J0D01*
G01*
X10815000Y8645000D01*
G75*
G02*
X10640000Y8820000I0J175000D01*
G01*
G37*
G36*
G01*
X10640000Y10090000D02*
X10640000Y10440000D01*
G75*
G02*
X10815000Y10615000I175000J0D01*
G01*
X12215000Y10615000D01*
G75*
G02*
X12390000Y10440000I0J-175000D01*
G01*
X12390000Y10090000D01*
G75*
G02*
X12215000Y9915000I-175000J0D01*
G01*
X10815000Y9915000D01*
G75*
G02*
X10640000Y10090000I0J175000D01*
G01*
G37*
G36*
G01*
X5390000Y10090000D02*
X5390000Y10440000D01*
G75*
G02*
X5565000Y10615000I175000J0D01*
G01*
X6965000Y10615000D01*
G75*
G02*
X7140000Y10440000I0J-175000D01*
G01*
X7140000Y10090000D01*
G75*
G02*
X6965000Y9915000I-175000J0D01*
G01*
X5565000Y9915000D01*
G75*
G02*
X5390000Y10090000I0J175000D01*
G01*
G37*
G36*
G01*
X5390000Y8820000D02*
X5390000Y9170000D01*
G75*
G02*
X5565000Y9345000I175000J0D01*
G01*
X6965000Y9345000D01*
G75*
G02*
X7140000Y9170000I0J-175000D01*
G01*
X7140000Y8820000D01*
G75*
G02*
X6965000Y8645000I-175000J0D01*
G01*
X5565000Y8645000D01*
G75*
G02*
X5390000Y8820000I0J175000D01*
G01*
G37*
G36*
G01*
X5390000Y7550000D02*
X5390000Y7900000D01*
G75*
G02*
X5565000Y8075000I175000J0D01*
G01*
X6965000Y8075000D01*
G75*
G02*
X7140000Y7900000I0J-175000D01*
G01*
X7140000Y7550000D01*
G75*
G02*
X6965000Y7375000I-175000J0D01*
G01*
X5565000Y7375000D01*
G75*
G02*
X5390000Y7550000I0J175000D01*
G01*
G37*
G36*
G01*
X5390000Y6280000D02*
X5390000Y6630000D01*
G75*
G02*
X5565000Y6805000I175000J0D01*
G01*
X6965000Y6805000D01*
G75*
G02*
X7140000Y6630000I0J-175000D01*
G01*
X7140000Y6280000D01*
G75*
G02*
X6965000Y6105000I-175000J0D01*
G01*
X5565000Y6105000D01*
G75*
G02*
X5390000Y6280000I0J175000D01*
G01*
G37*
X16510000Y26670000D03*
X16510000Y29210000D03*
X16510000Y31750000D03*
X16510000Y34290000D03*
X1270000Y26670000D03*
X1270000Y29210000D03*
X1270000Y31750000D03*
X1270000Y34290000D03*
D15*
X10590000Y22670000D03*
X10590000Y20670000D03*
X6210000Y25710000D03*
M02*
