G04 #@! TF.GenerationSoftware,KiCad,Pcbnew,5.1.9-1.fc33*
G04 #@! TF.CreationDate,2021-03-04T21:04:25+01:00*
G04 #@! TF.ProjectId,reDIP-SID,72654449-502d-4534-9944-2e6b69636164,0.1*
G04 #@! TF.SameCoordinates,PX5e28010PY8011a50*
G04 #@! TF.FileFunction,Soldermask,Top*
G04 #@! TF.FilePolarity,Negative*
%FSLAX46Y46*%
G04 Gerber Fmt 4.6, Leading zero omitted, Abs format (unit mm)*
G04 Created by KiCad (PCBNEW 5.1.9-1.fc33) date 2021-03-04 21:04:25*
%MOMM*%
%LPD*%
G01*
G04 APERTURE LIST*
%ADD10O,1.100000X2.200000*%
%ADD11C,0.750000*%
%ADD12O,1.100000X1.700000*%
%ADD13C,0.300000*%
%ADD14C,0.100000*%
%ADD15C,1.700000*%
G04 APERTURE END LIST*
G36*
G01*
X3940104Y19216673D02*
X3763327Y19039896D01*
G75*
G02*
X3586551Y19039896I-88388J88388D01*
G01*
X3367348Y19259099D01*
G75*
G02*
X3367348Y19435875I88388J88388D01*
G01*
X3544125Y19612652D01*
G75*
G02*
X3720901Y19612652I88388J-88388D01*
G01*
X3940104Y19393449D01*
G75*
G02*
X3940104Y19216673I-88388J-88388D01*
G01*
G37*
G36*
G01*
X4392652Y18764125D02*
X4215875Y18587348D01*
G75*
G02*
X4039099Y18587348I-88388J88388D01*
G01*
X3819896Y18806551D01*
G75*
G02*
X3819896Y18983327I88388J88388D01*
G01*
X3996673Y19160104D01*
G75*
G02*
X4173449Y19160104I88388J-88388D01*
G01*
X4392652Y18940901D01*
G75*
G02*
X4392652Y18764125I-88388J-88388D01*
G01*
G37*
G36*
G01*
X3440104Y16576673D02*
X3263327Y16399896D01*
G75*
G02*
X3086551Y16399896I-88388J88388D01*
G01*
X2867348Y16619099D01*
G75*
G02*
X2867348Y16795875I88388J88388D01*
G01*
X3044125Y16972652D01*
G75*
G02*
X3220901Y16972652I88388J-88388D01*
G01*
X3440104Y16753449D01*
G75*
G02*
X3440104Y16576673I-88388J-88388D01*
G01*
G37*
G36*
G01*
X3892652Y16124125D02*
X3715875Y15947348D01*
G75*
G02*
X3539099Y15947348I-88388J88388D01*
G01*
X3319896Y16166551D01*
G75*
G02*
X3319896Y16343327I88388J88388D01*
G01*
X3496673Y16520104D01*
G75*
G02*
X3673449Y16520104I88388J-88388D01*
G01*
X3892652Y16300901D01*
G75*
G02*
X3892652Y16124125I-88388J-88388D01*
G01*
G37*
G36*
G01*
X6473327Y22690104D02*
X6650104Y22513327D01*
G75*
G02*
X6650104Y22336551I-88388J-88388D01*
G01*
X6430901Y22117348D01*
G75*
G02*
X6254125Y22117348I-88388J88388D01*
G01*
X6077348Y22294125D01*
G75*
G02*
X6077348Y22470901I88388J88388D01*
G01*
X6296551Y22690104D01*
G75*
G02*
X6473327Y22690104I88388J-88388D01*
G01*
G37*
G36*
G01*
X6925875Y23142652D02*
X7102652Y22965875D01*
G75*
G02*
X7102652Y22789099I-88388J-88388D01*
G01*
X6883449Y22569896D01*
G75*
G02*
X6706673Y22569896I-88388J88388D01*
G01*
X6529896Y22746673D01*
G75*
G02*
X6529896Y22923449I88388J88388D01*
G01*
X6749099Y23142652D01*
G75*
G02*
X6925875Y23142652I88388J-88388D01*
G01*
G37*
G36*
G01*
X10790000Y11855000D02*
X10790000Y12065000D01*
G75*
G02*
X10860000Y12135000I70000J0D01*
G01*
X11220000Y12135000D01*
G75*
G02*
X11290000Y12065000I0J-70000D01*
G01*
X11290000Y11855000D01*
G75*
G02*
X11220000Y11785000I-70000J0D01*
G01*
X10860000Y11785000D01*
G75*
G02*
X10790000Y11855000I0J70000D01*
G01*
G37*
G36*
G01*
X10790000Y11405000D02*
X10790000Y11615000D01*
G75*
G02*
X10860000Y11685000I70000J0D01*
G01*
X11220000Y11685000D01*
G75*
G02*
X11290000Y11615000I0J-70000D01*
G01*
X11290000Y11405000D01*
G75*
G02*
X11220000Y11335000I-70000J0D01*
G01*
X10860000Y11335000D01*
G75*
G02*
X10790000Y11405000I0J70000D01*
G01*
G37*
G36*
G01*
X11490000Y11397500D02*
X11490000Y12072500D01*
G75*
G02*
X11552500Y12135000I62500J0D01*
G01*
X11927500Y12135000D01*
G75*
G02*
X11990000Y12072500I0J-62500D01*
G01*
X11990000Y11397500D01*
G75*
G02*
X11927500Y11335000I-62500J0D01*
G01*
X11552500Y11335000D01*
G75*
G02*
X11490000Y11397500I0J62500D01*
G01*
G37*
G36*
G01*
X5990000Y29562500D02*
X5990000Y28187500D01*
G75*
G02*
X5902500Y28100000I-87500J0D01*
G01*
X5377500Y28100000D01*
G75*
G02*
X5290000Y28187500I0J87500D01*
G01*
X5290000Y29562500D01*
G75*
G02*
X5377500Y29650000I87500J0D01*
G01*
X5902500Y29650000D01*
G75*
G02*
X5990000Y29562500I0J-87500D01*
G01*
G37*
G36*
G01*
X6790000Y29562500D02*
X6790000Y28187500D01*
G75*
G02*
X6702500Y28100000I-87500J0D01*
G01*
X6177500Y28100000D01*
G75*
G02*
X6090000Y28187500I0J87500D01*
G01*
X6090000Y29562500D01*
G75*
G02*
X6177500Y29650000I87500J0D01*
G01*
X6702500Y29650000D01*
G75*
G02*
X6790000Y29562500I0J-87500D01*
G01*
G37*
G36*
G01*
X11690000Y29562500D02*
X11690000Y28187500D01*
G75*
G02*
X11602500Y28100000I-87500J0D01*
G01*
X11077500Y28100000D01*
G75*
G02*
X10990000Y28187500I0J87500D01*
G01*
X10990000Y29562500D01*
G75*
G02*
X11077500Y29650000I87500J0D01*
G01*
X11602500Y29650000D01*
G75*
G02*
X11690000Y29562500I0J-87500D01*
G01*
G37*
G36*
G01*
X12490000Y29562500D02*
X12490000Y28187500D01*
G75*
G02*
X12402500Y28100000I-87500J0D01*
G01*
X11877500Y28100000D01*
G75*
G02*
X11790000Y28187500I0J87500D01*
G01*
X11790000Y29562500D01*
G75*
G02*
X11877500Y29650000I87500J0D01*
G01*
X12402500Y29650000D01*
G75*
G02*
X12490000Y29562500I0J-87500D01*
G01*
G37*
G36*
G01*
X12490000Y29562500D02*
X12490000Y28187500D01*
G75*
G02*
X12402500Y28100000I-87500J0D01*
G01*
X11877500Y28100000D01*
G75*
G02*
X11790000Y28187500I0J87500D01*
G01*
X11790000Y29562500D01*
G75*
G02*
X11877500Y29650000I87500J0D01*
G01*
X12402500Y29650000D01*
G75*
G02*
X12490000Y29562500I0J-87500D01*
G01*
G37*
G36*
G01*
X11690000Y29562500D02*
X11690000Y28187500D01*
G75*
G02*
X11602500Y28100000I-87500J0D01*
G01*
X11077500Y28100000D01*
G75*
G02*
X10990000Y28187500I0J87500D01*
G01*
X10990000Y29562500D01*
G75*
G02*
X11077500Y29650000I87500J0D01*
G01*
X11602500Y29650000D01*
G75*
G02*
X11690000Y29562500I0J-87500D01*
G01*
G37*
G36*
G01*
X6790000Y29562500D02*
X6790000Y28187500D01*
G75*
G02*
X6702500Y28100000I-87500J0D01*
G01*
X6177500Y28100000D01*
G75*
G02*
X6090000Y28187500I0J87500D01*
G01*
X6090000Y29562500D01*
G75*
G02*
X6177500Y29650000I87500J0D01*
G01*
X6702500Y29650000D01*
G75*
G02*
X6790000Y29562500I0J-87500D01*
G01*
G37*
G36*
G01*
X5990000Y29562500D02*
X5990000Y28187500D01*
G75*
G02*
X5902500Y28100000I-87500J0D01*
G01*
X5377500Y28100000D01*
G75*
G02*
X5290000Y28187500I0J87500D01*
G01*
X5290000Y29562500D01*
G75*
G02*
X5377500Y29650000I87500J0D01*
G01*
X5902500Y29650000D01*
G75*
G02*
X5990000Y29562500I0J-87500D01*
G01*
G37*
G36*
G01*
X10840000Y29550000D02*
X10840000Y28200000D01*
G75*
G02*
X10740000Y28100000I-100000J0D01*
G01*
X10540000Y28100000D01*
G75*
G02*
X10440000Y28200000I0J100000D01*
G01*
X10440000Y29550000D01*
G75*
G02*
X10540000Y29650000I100000J0D01*
G01*
X10740000Y29650000D01*
G75*
G02*
X10840000Y29550000I0J-100000D01*
G01*
G37*
G36*
G01*
X10340000Y29550000D02*
X10340000Y28200000D01*
G75*
G02*
X10240000Y28100000I-100000J0D01*
G01*
X10040000Y28100000D01*
G75*
G02*
X9940000Y28200000I0J100000D01*
G01*
X9940000Y29550000D01*
G75*
G02*
X10040000Y29650000I100000J0D01*
G01*
X10240000Y29650000D01*
G75*
G02*
X10340000Y29550000I0J-100000D01*
G01*
G37*
G36*
G01*
X9840000Y29550000D02*
X9840000Y28200000D01*
G75*
G02*
X9740000Y28100000I-100000J0D01*
G01*
X9540000Y28100000D01*
G75*
G02*
X9440000Y28200000I0J100000D01*
G01*
X9440000Y29550000D01*
G75*
G02*
X9540000Y29650000I100000J0D01*
G01*
X9740000Y29650000D01*
G75*
G02*
X9840000Y29550000I0J-100000D01*
G01*
G37*
G36*
G01*
X8840000Y29550000D02*
X8840000Y28200000D01*
G75*
G02*
X8740000Y28100000I-100000J0D01*
G01*
X8540000Y28100000D01*
G75*
G02*
X8440000Y28200000I0J100000D01*
G01*
X8440000Y29550000D01*
G75*
G02*
X8540000Y29650000I100000J0D01*
G01*
X8740000Y29650000D01*
G75*
G02*
X8840000Y29550000I0J-100000D01*
G01*
G37*
G36*
G01*
X8340000Y29550000D02*
X8340000Y28200000D01*
G75*
G02*
X8240000Y28100000I-100000J0D01*
G01*
X8040000Y28100000D01*
G75*
G02*
X7940000Y28200000I0J100000D01*
G01*
X7940000Y29550000D01*
G75*
G02*
X8040000Y29650000I100000J0D01*
G01*
X8240000Y29650000D01*
G75*
G02*
X8340000Y29550000I0J-100000D01*
G01*
G37*
G36*
G01*
X7840000Y29550000D02*
X7840000Y28200000D01*
G75*
G02*
X7740000Y28100000I-100000J0D01*
G01*
X7540000Y28100000D01*
G75*
G02*
X7440000Y28200000I0J100000D01*
G01*
X7440000Y29550000D01*
G75*
G02*
X7540000Y29650000I100000J0D01*
G01*
X7740000Y29650000D01*
G75*
G02*
X7840000Y29550000I0J-100000D01*
G01*
G37*
G36*
G01*
X7340000Y29550000D02*
X7340000Y28200000D01*
G75*
G02*
X7240000Y28100000I-100000J0D01*
G01*
X7040000Y28100000D01*
G75*
G02*
X6940000Y28200000I0J100000D01*
G01*
X6940000Y29550000D01*
G75*
G02*
X7040000Y29650000I100000J0D01*
G01*
X7240000Y29650000D01*
G75*
G02*
X7340000Y29550000I0J-100000D01*
G01*
G37*
G36*
G01*
X9340000Y29550000D02*
X9340000Y28200000D01*
G75*
G02*
X9240000Y28100000I-100000J0D01*
G01*
X9040000Y28100000D01*
G75*
G02*
X8940000Y28200000I0J100000D01*
G01*
X8940000Y29550000D01*
G75*
G02*
X9040000Y29650000I100000J0D01*
G01*
X9240000Y29650000D01*
G75*
G02*
X9340000Y29550000I0J-100000D01*
G01*
G37*
D10*
X4570000Y29790000D03*
X13210000Y29790000D03*
D11*
X11780000Y30320000D03*
D12*
X13210000Y33970000D03*
D11*
X6000000Y30320000D03*
D12*
X4570000Y33970000D03*
G36*
G01*
X14310000Y14020000D02*
X12810000Y14020000D01*
G75*
G02*
X12760000Y14070000I0J50000D01*
G01*
X12760000Y14620000D01*
G75*
G02*
X12810000Y14670000I50000J0D01*
G01*
X14310000Y14670000D01*
G75*
G02*
X14360000Y14620000I0J-50000D01*
G01*
X14360000Y14070000D01*
G75*
G02*
X14310000Y14020000I-50000J0D01*
G01*
G37*
G36*
G01*
X14310000Y10770000D02*
X12810000Y10770000D01*
G75*
G02*
X12760000Y10820000I0J50000D01*
G01*
X12760000Y11370000D01*
G75*
G02*
X12810000Y11420000I50000J0D01*
G01*
X14310000Y11420000D01*
G75*
G02*
X14360000Y11370000I0J-50000D01*
G01*
X14360000Y10820000D01*
G75*
G02*
X14310000Y10770000I-50000J0D01*
G01*
G37*
G36*
G01*
X14792500Y9405000D02*
X14367500Y9405000D01*
G75*
G02*
X14330000Y9442500I0J37500D01*
G01*
X14330000Y9742500D01*
G75*
G02*
X14367500Y9780000I37500J0D01*
G01*
X14792500Y9780000D01*
G75*
G02*
X14830000Y9742500I0J-37500D01*
G01*
X14830000Y9442500D01*
G75*
G02*
X14792500Y9405000I-37500J0D01*
G01*
G37*
G36*
G01*
X14792500Y8880000D02*
X14367500Y8880000D01*
G75*
G02*
X14330000Y8917500I0J37500D01*
G01*
X14330000Y9217500D01*
G75*
G02*
X14367500Y9255000I37500J0D01*
G01*
X14792500Y9255000D01*
G75*
G02*
X14830000Y9217500I0J-37500D01*
G01*
X14830000Y8917500D01*
G75*
G02*
X14792500Y8880000I-37500J0D01*
G01*
G37*
G36*
G01*
X14367500Y6755000D02*
X14792500Y6755000D01*
G75*
G02*
X14830000Y6717500I0J-37500D01*
G01*
X14830000Y6417500D01*
G75*
G02*
X14792500Y6380000I-37500J0D01*
G01*
X14367500Y6380000D01*
G75*
G02*
X14330000Y6417500I0J37500D01*
G01*
X14330000Y6717500D01*
G75*
G02*
X14367500Y6755000I37500J0D01*
G01*
G37*
G36*
G01*
X14367500Y7280000D02*
X14792500Y7280000D01*
G75*
G02*
X14830000Y7242500I0J-37500D01*
G01*
X14830000Y6942500D01*
G75*
G02*
X14792500Y6905000I-37500J0D01*
G01*
X14367500Y6905000D01*
G75*
G02*
X14330000Y6942500I0J37500D01*
G01*
X14330000Y7242500D01*
G75*
G02*
X14367500Y7280000I37500J0D01*
G01*
G37*
G36*
G01*
X12890000Y10075000D02*
X12890000Y10325000D01*
G75*
G02*
X13015000Y10450000I125000J0D01*
G01*
X13325000Y10450000D01*
G75*
G02*
X13450000Y10325000I0J-125000D01*
G01*
X13450000Y10075000D01*
G75*
G02*
X13325000Y9950000I-125000J0D01*
G01*
X13015000Y9950000D01*
G75*
G02*
X12890000Y10075000I0J125000D01*
G01*
G37*
G36*
G01*
X13530000Y10075000D02*
X13530000Y10325000D01*
G75*
G02*
X13655000Y10450000I125000J0D01*
G01*
X13965000Y10450000D01*
G75*
G02*
X14090000Y10325000I0J-125000D01*
G01*
X14090000Y10075000D01*
G75*
G02*
X13965000Y9950000I-125000J0D01*
G01*
X13655000Y9950000D01*
G75*
G02*
X13530000Y10075000I0J125000D01*
G01*
G37*
G36*
G01*
X7206673Y22079896D02*
X7029896Y22256673D01*
G75*
G02*
X7029896Y22433449I88388J88388D01*
G01*
X7249099Y22652652D01*
G75*
G02*
X7425875Y22652652I88388J-88388D01*
G01*
X7602652Y22475875D01*
G75*
G02*
X7602652Y22299099I-88388J-88388D01*
G01*
X7383449Y22079896D01*
G75*
G02*
X7206673Y22079896I-88388J88388D01*
G01*
G37*
G36*
G01*
X6754125Y21627348D02*
X6577348Y21804125D01*
G75*
G02*
X6577348Y21980901I88388J88388D01*
G01*
X6796551Y22200104D01*
G75*
G02*
X6973327Y22200104I88388J-88388D01*
G01*
X7150104Y22023327D01*
G75*
G02*
X7150104Y21846551I-88388J-88388D01*
G01*
X6930901Y21627348D01*
G75*
G02*
X6754125Y21627348I-88388J88388D01*
G01*
G37*
G36*
G01*
X7140000Y6210000D02*
X7140000Y10510000D01*
G75*
G02*
X7190000Y10560000I50000J0D01*
G01*
X10590000Y10560000D01*
G75*
G02*
X10640000Y10510000I0J-50000D01*
G01*
X10640000Y6210000D01*
G75*
G02*
X10590000Y6160000I-50000J0D01*
G01*
X7190000Y6160000D01*
G75*
G02*
X7140000Y6210000I0J50000D01*
G01*
G37*
G36*
G01*
X11165000Y10115000D02*
X11165000Y10415000D01*
G75*
G02*
X11315000Y10565000I150000J0D01*
G01*
X11865000Y10565000D01*
G75*
G02*
X12015000Y10415000I0J-150000D01*
G01*
X12015000Y10115000D01*
G75*
G02*
X11865000Y9965000I-150000J0D01*
G01*
X11315000Y9965000D01*
G75*
G02*
X11165000Y10115000I0J150000D01*
G01*
G37*
G36*
G01*
X11165000Y8845000D02*
X11165000Y9145000D01*
G75*
G02*
X11315000Y9295000I150000J0D01*
G01*
X11865000Y9295000D01*
G75*
G02*
X12015000Y9145000I0J-150000D01*
G01*
X12015000Y8845000D01*
G75*
G02*
X11865000Y8695000I-150000J0D01*
G01*
X11315000Y8695000D01*
G75*
G02*
X11165000Y8845000I0J150000D01*
G01*
G37*
G36*
G01*
X11165000Y7575000D02*
X11165000Y7875000D01*
G75*
G02*
X11315000Y8025000I150000J0D01*
G01*
X11865000Y8025000D01*
G75*
G02*
X12015000Y7875000I0J-150000D01*
G01*
X12015000Y7575000D01*
G75*
G02*
X11865000Y7425000I-150000J0D01*
G01*
X11315000Y7425000D01*
G75*
G02*
X11165000Y7575000I0J150000D01*
G01*
G37*
G36*
G01*
X11165000Y6305000D02*
X11165000Y6605000D01*
G75*
G02*
X11315000Y6755000I150000J0D01*
G01*
X11865000Y6755000D01*
G75*
G02*
X12015000Y6605000I0J-150000D01*
G01*
X12015000Y6305000D01*
G75*
G02*
X11865000Y6155000I-150000J0D01*
G01*
X11315000Y6155000D01*
G75*
G02*
X11165000Y6305000I0J150000D01*
G01*
G37*
G36*
G01*
X5765000Y6305000D02*
X5765000Y6605000D01*
G75*
G02*
X5915000Y6755000I150000J0D01*
G01*
X6465000Y6755000D01*
G75*
G02*
X6615000Y6605000I0J-150000D01*
G01*
X6615000Y6305000D01*
G75*
G02*
X6465000Y6155000I-150000J0D01*
G01*
X5915000Y6155000D01*
G75*
G02*
X5765000Y6305000I0J150000D01*
G01*
G37*
G36*
G01*
X5765000Y7575000D02*
X5765000Y7875000D01*
G75*
G02*
X5915000Y8025000I150000J0D01*
G01*
X6465000Y8025000D01*
G75*
G02*
X6615000Y7875000I0J-150000D01*
G01*
X6615000Y7575000D01*
G75*
G02*
X6465000Y7425000I-150000J0D01*
G01*
X5915000Y7425000D01*
G75*
G02*
X5765000Y7575000I0J150000D01*
G01*
G37*
G36*
G01*
X5765000Y8845000D02*
X5765000Y9145000D01*
G75*
G02*
X5915000Y9295000I150000J0D01*
G01*
X6465000Y9295000D01*
G75*
G02*
X6615000Y9145000I0J-150000D01*
G01*
X6615000Y8845000D01*
G75*
G02*
X6465000Y8695000I-150000J0D01*
G01*
X5915000Y8695000D01*
G75*
G02*
X5765000Y8845000I0J150000D01*
G01*
G37*
G36*
G01*
X5765000Y10115000D02*
X5765000Y10415000D01*
G75*
G02*
X5915000Y10565000I150000J0D01*
G01*
X6465000Y10565000D01*
G75*
G02*
X6615000Y10415000I0J-150000D01*
G01*
X6615000Y10115000D01*
G75*
G02*
X6465000Y9965000I-150000J0D01*
G01*
X5915000Y9965000D01*
G75*
G02*
X5765000Y10115000I0J150000D01*
G01*
G37*
G36*
G01*
X12890000Y5835000D02*
X12890000Y6085000D01*
G75*
G02*
X13015000Y6210000I125000J0D01*
G01*
X13325000Y6210000D01*
G75*
G02*
X13450000Y6085000I0J-125000D01*
G01*
X13450000Y5835000D01*
G75*
G02*
X13325000Y5710000I-125000J0D01*
G01*
X13015000Y5710000D01*
G75*
G02*
X12890000Y5835000I0J125000D01*
G01*
G37*
G36*
G01*
X13530000Y5835000D02*
X13530000Y6085000D01*
G75*
G02*
X13655000Y6210000I125000J0D01*
G01*
X13965000Y6210000D01*
G75*
G02*
X14090000Y6085000I0J-125000D01*
G01*
X14090000Y5835000D01*
G75*
G02*
X13965000Y5710000I-125000J0D01*
G01*
X13655000Y5710000D01*
G75*
G02*
X13530000Y5835000I0J125000D01*
G01*
G37*
D13*
X5250000Y23520000D03*
X4650000Y23520000D03*
X4050000Y23520000D03*
X5550000Y24040000D03*
X4950000Y24040000D03*
X4350000Y24040000D03*
X3750000Y24040000D03*
D14*
G36*
X7299039Y25160245D02*
G01*
X7296194Y25150866D01*
X7291573Y25142221D01*
X7285355Y25134645D01*
X7277779Y25128427D01*
X7269134Y25123806D01*
X7259755Y25120961D01*
X7250000Y25120000D01*
X7050000Y25120000D01*
X7040245Y25120961D01*
X7030866Y25123806D01*
X7022221Y25128427D01*
X7014645Y25134645D01*
X6864645Y25284645D01*
X6858427Y25292221D01*
X6853806Y25300866D01*
X6850961Y25310245D01*
X6850000Y25320000D01*
X6850000Y25420000D01*
X6850961Y25429755D01*
X6853806Y25439134D01*
X6858427Y25447779D01*
X6864645Y25455355D01*
X6872221Y25461573D01*
X6880866Y25466194D01*
X6890245Y25469039D01*
X6900000Y25470000D01*
X7250000Y25470000D01*
X7259755Y25469039D01*
X7269134Y25466194D01*
X7277779Y25461573D01*
X7285355Y25455355D01*
X7291573Y25447779D01*
X7296194Y25439134D01*
X7299039Y25429755D01*
X7300000Y25420000D01*
X7300000Y25170000D01*
X7299039Y25160245D01*
G37*
G36*
X6850961Y24629755D02*
G01*
X6853806Y24639134D01*
X6858427Y24647779D01*
X6864645Y24655355D01*
X7014645Y24805355D01*
X7022221Y24811573D01*
X7030866Y24816194D01*
X7040245Y24819039D01*
X7050000Y24820000D01*
X7250000Y24820000D01*
X7259755Y24819039D01*
X7269134Y24816194D01*
X7277779Y24811573D01*
X7285355Y24805355D01*
X7291573Y24797779D01*
X7296194Y24789134D01*
X7299039Y24779755D01*
X7300000Y24770000D01*
X7300000Y24520000D01*
X7299039Y24510245D01*
X7296194Y24500866D01*
X7291573Y24492221D01*
X7285355Y24484645D01*
X7277779Y24478427D01*
X7269134Y24473806D01*
X7259755Y24470961D01*
X7250000Y24470000D01*
X6900000Y24470000D01*
X6890245Y24470961D01*
X6880866Y24473806D01*
X6872221Y24478427D01*
X6864645Y24484645D01*
X6858427Y24492221D01*
X6853806Y24500866D01*
X6850961Y24510245D01*
X6850000Y24520000D01*
X6850000Y24620000D01*
X6850961Y24629755D01*
G37*
G36*
X6449039Y25310245D02*
G01*
X6446194Y25300866D01*
X6441573Y25292221D01*
X6435355Y25284645D01*
X6285355Y25134645D01*
X6277779Y25128427D01*
X6269134Y25123806D01*
X6259755Y25120961D01*
X6250000Y25120000D01*
X6050000Y25120000D01*
X6040245Y25120961D01*
X6030866Y25123806D01*
X6022221Y25128427D01*
X6014645Y25134645D01*
X6008427Y25142221D01*
X6003806Y25150866D01*
X6000961Y25160245D01*
X6000000Y25170000D01*
X6000000Y25420000D01*
X6000961Y25429755D01*
X6003806Y25439134D01*
X6008427Y25447779D01*
X6014645Y25455355D01*
X6022221Y25461573D01*
X6030866Y25466194D01*
X6040245Y25469039D01*
X6050000Y25470000D01*
X6400000Y25470000D01*
X6409755Y25469039D01*
X6419134Y25466194D01*
X6427779Y25461573D01*
X6435355Y25455355D01*
X6441573Y25447779D01*
X6446194Y25439134D01*
X6449039Y25429755D01*
X6450000Y25420000D01*
X6450000Y25320000D01*
X6449039Y25310245D01*
G37*
G36*
X6000961Y24779755D02*
G01*
X6003806Y24789134D01*
X6008427Y24797779D01*
X6014645Y24805355D01*
X6022221Y24811573D01*
X6030866Y24816194D01*
X6040245Y24819039D01*
X6050000Y24820000D01*
X6250000Y24820000D01*
X6259755Y24819039D01*
X6269134Y24816194D01*
X6277779Y24811573D01*
X6285355Y24805355D01*
X6435355Y24655355D01*
X6441573Y24647779D01*
X6446194Y24639134D01*
X6449039Y24629755D01*
X6450000Y24620000D01*
X6450000Y24520000D01*
X6449039Y24510245D01*
X6446194Y24500866D01*
X6441573Y24492221D01*
X6435355Y24484645D01*
X6427779Y24478427D01*
X6419134Y24473806D01*
X6409755Y24470961D01*
X6400000Y24470000D01*
X6050000Y24470000D01*
X6040245Y24470961D01*
X6030866Y24473806D01*
X6022221Y24478427D01*
X6014645Y24484645D01*
X6008427Y24492221D01*
X6003806Y24500866D01*
X6000961Y24510245D01*
X6000000Y24520000D01*
X6000000Y24770000D01*
X6000961Y24779755D01*
G37*
G36*
G01*
X6614645Y24595234D02*
X6275234Y24934645D01*
G75*
G02*
X6275234Y25005355I35355J35355D01*
G01*
X6614645Y25344766D01*
G75*
G02*
X6685355Y25344766I35355J-35355D01*
G01*
X7024766Y25005355D01*
G75*
G02*
X7024766Y24934645I-35355J-35355D01*
G01*
X6685355Y24595234D01*
G75*
G02*
X6614645Y24595234I-35355J35355D01*
G01*
G37*
G36*
X4999039Y25160245D02*
G01*
X4996194Y25150866D01*
X4991573Y25142221D01*
X4985355Y25134645D01*
X4977779Y25128427D01*
X4969134Y25123806D01*
X4959755Y25120961D01*
X4950000Y25120000D01*
X4750000Y25120000D01*
X4740245Y25120961D01*
X4730866Y25123806D01*
X4722221Y25128427D01*
X4714645Y25134645D01*
X4564645Y25284645D01*
X4558427Y25292221D01*
X4553806Y25300866D01*
X4550961Y25310245D01*
X4550000Y25320000D01*
X4550000Y25420000D01*
X4550961Y25429755D01*
X4553806Y25439134D01*
X4558427Y25447779D01*
X4564645Y25455355D01*
X4572221Y25461573D01*
X4580866Y25466194D01*
X4590245Y25469039D01*
X4600000Y25470000D01*
X4950000Y25470000D01*
X4959755Y25469039D01*
X4969134Y25466194D01*
X4977779Y25461573D01*
X4985355Y25455355D01*
X4991573Y25447779D01*
X4996194Y25439134D01*
X4999039Y25429755D01*
X5000000Y25420000D01*
X5000000Y25170000D01*
X4999039Y25160245D01*
G37*
G36*
X4550961Y24629755D02*
G01*
X4553806Y24639134D01*
X4558427Y24647779D01*
X4564645Y24655355D01*
X4714645Y24805355D01*
X4722221Y24811573D01*
X4730866Y24816194D01*
X4740245Y24819039D01*
X4750000Y24820000D01*
X4950000Y24820000D01*
X4959755Y24819039D01*
X4969134Y24816194D01*
X4977779Y24811573D01*
X4985355Y24805355D01*
X4991573Y24797779D01*
X4996194Y24789134D01*
X4999039Y24779755D01*
X5000000Y24770000D01*
X5000000Y24520000D01*
X4999039Y24510245D01*
X4996194Y24500866D01*
X4991573Y24492221D01*
X4985355Y24484645D01*
X4977779Y24478427D01*
X4969134Y24473806D01*
X4959755Y24470961D01*
X4950000Y24470000D01*
X4600000Y24470000D01*
X4590245Y24470961D01*
X4580866Y24473806D01*
X4572221Y24478427D01*
X4564645Y24484645D01*
X4558427Y24492221D01*
X4553806Y24500866D01*
X4550961Y24510245D01*
X4550000Y24520000D01*
X4550000Y24620000D01*
X4550961Y24629755D01*
G37*
G36*
X4149039Y25310245D02*
G01*
X4146194Y25300866D01*
X4141573Y25292221D01*
X4135355Y25284645D01*
X3985355Y25134645D01*
X3977779Y25128427D01*
X3969134Y25123806D01*
X3959755Y25120961D01*
X3950000Y25120000D01*
X3750000Y25120000D01*
X3740245Y25120961D01*
X3730866Y25123806D01*
X3722221Y25128427D01*
X3714645Y25134645D01*
X3708427Y25142221D01*
X3703806Y25150866D01*
X3700961Y25160245D01*
X3700000Y25170000D01*
X3700000Y25420000D01*
X3700961Y25429755D01*
X3703806Y25439134D01*
X3708427Y25447779D01*
X3714645Y25455355D01*
X3722221Y25461573D01*
X3730866Y25466194D01*
X3740245Y25469039D01*
X3750000Y25470000D01*
X4100000Y25470000D01*
X4109755Y25469039D01*
X4119134Y25466194D01*
X4127779Y25461573D01*
X4135355Y25455355D01*
X4141573Y25447779D01*
X4146194Y25439134D01*
X4149039Y25429755D01*
X4150000Y25420000D01*
X4150000Y25320000D01*
X4149039Y25310245D01*
G37*
G36*
X3700961Y24779755D02*
G01*
X3703806Y24789134D01*
X3708427Y24797779D01*
X3714645Y24805355D01*
X3722221Y24811573D01*
X3730866Y24816194D01*
X3740245Y24819039D01*
X3750000Y24820000D01*
X3950000Y24820000D01*
X3959755Y24819039D01*
X3969134Y24816194D01*
X3977779Y24811573D01*
X3985355Y24805355D01*
X4135355Y24655355D01*
X4141573Y24647779D01*
X4146194Y24639134D01*
X4149039Y24629755D01*
X4150000Y24620000D01*
X4150000Y24520000D01*
X4149039Y24510245D01*
X4146194Y24500866D01*
X4141573Y24492221D01*
X4135355Y24484645D01*
X4127779Y24478427D01*
X4119134Y24473806D01*
X4109755Y24470961D01*
X4100000Y24470000D01*
X3750000Y24470000D01*
X3740245Y24470961D01*
X3730866Y24473806D01*
X3722221Y24478427D01*
X3714645Y24484645D01*
X3708427Y24492221D01*
X3703806Y24500866D01*
X3700961Y24510245D01*
X3700000Y24520000D01*
X3700000Y24770000D01*
X3700961Y24779755D01*
G37*
G36*
G01*
X4314645Y24595234D02*
X3975234Y24934645D01*
G75*
G02*
X3975234Y25005355I35355J35355D01*
G01*
X4314645Y25344766D01*
G75*
G02*
X4385355Y25344766I35355J-35355D01*
G01*
X4724766Y25005355D01*
G75*
G02*
X4724766Y24934645I-35355J-35355D01*
G01*
X4385355Y24595234D01*
G75*
G02*
X4314645Y24595234I-35355J35355D01*
G01*
G37*
G36*
G01*
X8925355Y21275153D02*
X12885153Y17315355D01*
G75*
G02*
X12885153Y17244645I-35355J-35355D01*
G01*
X8925355Y13284847D01*
G75*
G02*
X8854645Y13284847I-35355J35355D01*
G01*
X4894847Y17244645D01*
G75*
G02*
X4894847Y17315355I35355J35355D01*
G01*
X8854645Y21275153D01*
G75*
G02*
X8925355Y21275153I35355J-35355D01*
G01*
G37*
G36*
G01*
X13106124Y17200451D02*
X13671810Y16634765D01*
G75*
G02*
X13671810Y16511021I-61872J-61872D01*
G01*
X13548066Y16387277D01*
G75*
G02*
X13424322Y16387277I-61872J61872D01*
G01*
X12858636Y16952963D01*
G75*
G02*
X12858636Y17076707I61872J61872D01*
G01*
X12982380Y17200451D01*
G75*
G02*
X13106124Y17200451I61872J-61872D01*
G01*
G37*
G36*
G01*
X12752571Y16846898D02*
X13318257Y16281212D01*
G75*
G02*
X13318257Y16157468I-61872J-61872D01*
G01*
X13194513Y16033724D01*
G75*
G02*
X13070769Y16033724I-61872J61872D01*
G01*
X12505083Y16599410D01*
G75*
G02*
X12505083Y16723154I61872J61872D01*
G01*
X12628827Y16846898D01*
G75*
G02*
X12752571Y16846898I61872J-61872D01*
G01*
G37*
G36*
G01*
X12399017Y16493344D02*
X12964703Y15927658D01*
G75*
G02*
X12964703Y15803914I-61872J-61872D01*
G01*
X12840959Y15680170D01*
G75*
G02*
X12717215Y15680170I-61872J61872D01*
G01*
X12151529Y16245856D01*
G75*
G02*
X12151529Y16369600I61872J61872D01*
G01*
X12275273Y16493344D01*
G75*
G02*
X12399017Y16493344I61872J-61872D01*
G01*
G37*
G36*
G01*
X12045464Y16139791D02*
X12611150Y15574105D01*
G75*
G02*
X12611150Y15450361I-61872J-61872D01*
G01*
X12487406Y15326617D01*
G75*
G02*
X12363662Y15326617I-61872J61872D01*
G01*
X11797976Y15892303D01*
G75*
G02*
X11797976Y16016047I61872J61872D01*
G01*
X11921720Y16139791D01*
G75*
G02*
X12045464Y16139791I61872J-61872D01*
G01*
G37*
G36*
G01*
X11691911Y15786238D02*
X12257597Y15220552D01*
G75*
G02*
X12257597Y15096808I-61872J-61872D01*
G01*
X12133853Y14973064D01*
G75*
G02*
X12010109Y14973064I-61872J61872D01*
G01*
X11444423Y15538750D01*
G75*
G02*
X11444423Y15662494I61872J61872D01*
G01*
X11568167Y15786238D01*
G75*
G02*
X11691911Y15786238I61872J-61872D01*
G01*
G37*
G36*
G01*
X11338357Y15432684D02*
X11904043Y14866998D01*
G75*
G02*
X11904043Y14743254I-61872J-61872D01*
G01*
X11780299Y14619510D01*
G75*
G02*
X11656555Y14619510I-61872J61872D01*
G01*
X11090869Y15185196D01*
G75*
G02*
X11090869Y15308940I61872J61872D01*
G01*
X11214613Y15432684D01*
G75*
G02*
X11338357Y15432684I61872J-61872D01*
G01*
G37*
G36*
G01*
X10984804Y15079131D02*
X11550490Y14513445D01*
G75*
G02*
X11550490Y14389701I-61872J-61872D01*
G01*
X11426746Y14265957D01*
G75*
G02*
X11303002Y14265957I-61872J61872D01*
G01*
X10737316Y14831643D01*
G75*
G02*
X10737316Y14955387I61872J61872D01*
G01*
X10861060Y15079131D01*
G75*
G02*
X10984804Y15079131I61872J-61872D01*
G01*
G37*
G36*
G01*
X10631250Y14725577D02*
X11196936Y14159891D01*
G75*
G02*
X11196936Y14036147I-61872J-61872D01*
G01*
X11073192Y13912403D01*
G75*
G02*
X10949448Y13912403I-61872J61872D01*
G01*
X10383762Y14478089D01*
G75*
G02*
X10383762Y14601833I61872J61872D01*
G01*
X10507506Y14725577D01*
G75*
G02*
X10631250Y14725577I61872J-61872D01*
G01*
G37*
G36*
G01*
X10277697Y14372024D02*
X10843383Y13806338D01*
G75*
G02*
X10843383Y13682594I-61872J-61872D01*
G01*
X10719639Y13558850D01*
G75*
G02*
X10595895Y13558850I-61872J61872D01*
G01*
X10030209Y14124536D01*
G75*
G02*
X10030209Y14248280I61872J61872D01*
G01*
X10153953Y14372024D01*
G75*
G02*
X10277697Y14372024I61872J-61872D01*
G01*
G37*
G36*
G01*
X9924144Y14018471D02*
X10489830Y13452785D01*
G75*
G02*
X10489830Y13329041I-61872J-61872D01*
G01*
X10366086Y13205297D01*
G75*
G02*
X10242342Y13205297I-61872J61872D01*
G01*
X9676656Y13770983D01*
G75*
G02*
X9676656Y13894727I61872J61872D01*
G01*
X9800400Y14018471D01*
G75*
G02*
X9924144Y14018471I61872J-61872D01*
G01*
G37*
G36*
G01*
X9570590Y13664917D02*
X10136276Y13099231D01*
G75*
G02*
X10136276Y12975487I-61872J-61872D01*
G01*
X10012532Y12851743D01*
G75*
G02*
X9888788Y12851743I-61872J61872D01*
G01*
X9323102Y13417429D01*
G75*
G02*
X9323102Y13541173I61872J61872D01*
G01*
X9446846Y13664917D01*
G75*
G02*
X9570590Y13664917I61872J-61872D01*
G01*
G37*
G36*
G01*
X9217037Y13311364D02*
X9782723Y12745678D01*
G75*
G02*
X9782723Y12621934I-61872J-61872D01*
G01*
X9658979Y12498190D01*
G75*
G02*
X9535235Y12498190I-61872J61872D01*
G01*
X8969549Y13063876D01*
G75*
G02*
X8969549Y13187620I61872J61872D01*
G01*
X9093293Y13311364D01*
G75*
G02*
X9217037Y13311364I61872J-61872D01*
G01*
G37*
G36*
G01*
X8686707Y13311364D02*
X8810451Y13187620D01*
G75*
G02*
X8810451Y13063876I-61872J-61872D01*
G01*
X8244765Y12498190D01*
G75*
G02*
X8121021Y12498190I-61872J61872D01*
G01*
X7997277Y12621934D01*
G75*
G02*
X7997277Y12745678I61872J61872D01*
G01*
X8562963Y13311364D01*
G75*
G02*
X8686707Y13311364I61872J-61872D01*
G01*
G37*
G36*
G01*
X8333154Y13664917D02*
X8456898Y13541173D01*
G75*
G02*
X8456898Y13417429I-61872J-61872D01*
G01*
X7891212Y12851743D01*
G75*
G02*
X7767468Y12851743I-61872J61872D01*
G01*
X7643724Y12975487D01*
G75*
G02*
X7643724Y13099231I61872J61872D01*
G01*
X8209410Y13664917D01*
G75*
G02*
X8333154Y13664917I61872J-61872D01*
G01*
G37*
G36*
G01*
X7979600Y14018471D02*
X8103344Y13894727D01*
G75*
G02*
X8103344Y13770983I-61872J-61872D01*
G01*
X7537658Y13205297D01*
G75*
G02*
X7413914Y13205297I-61872J61872D01*
G01*
X7290170Y13329041D01*
G75*
G02*
X7290170Y13452785I61872J61872D01*
G01*
X7855856Y14018471D01*
G75*
G02*
X7979600Y14018471I61872J-61872D01*
G01*
G37*
G36*
G01*
X7626047Y14372024D02*
X7749791Y14248280D01*
G75*
G02*
X7749791Y14124536I-61872J-61872D01*
G01*
X7184105Y13558850D01*
G75*
G02*
X7060361Y13558850I-61872J61872D01*
G01*
X6936617Y13682594D01*
G75*
G02*
X6936617Y13806338I61872J61872D01*
G01*
X7502303Y14372024D01*
G75*
G02*
X7626047Y14372024I61872J-61872D01*
G01*
G37*
G36*
G01*
X7272494Y14725577D02*
X7396238Y14601833D01*
G75*
G02*
X7396238Y14478089I-61872J-61872D01*
G01*
X6830552Y13912403D01*
G75*
G02*
X6706808Y13912403I-61872J61872D01*
G01*
X6583064Y14036147D01*
G75*
G02*
X6583064Y14159891I61872J61872D01*
G01*
X7148750Y14725577D01*
G75*
G02*
X7272494Y14725577I61872J-61872D01*
G01*
G37*
G36*
G01*
X6918940Y15079131D02*
X7042684Y14955387D01*
G75*
G02*
X7042684Y14831643I-61872J-61872D01*
G01*
X6476998Y14265957D01*
G75*
G02*
X6353254Y14265957I-61872J61872D01*
G01*
X6229510Y14389701D01*
G75*
G02*
X6229510Y14513445I61872J61872D01*
G01*
X6795196Y15079131D01*
G75*
G02*
X6918940Y15079131I61872J-61872D01*
G01*
G37*
G36*
G01*
X6565387Y15432684D02*
X6689131Y15308940D01*
G75*
G02*
X6689131Y15185196I-61872J-61872D01*
G01*
X6123445Y14619510D01*
G75*
G02*
X5999701Y14619510I-61872J61872D01*
G01*
X5875957Y14743254D01*
G75*
G02*
X5875957Y14866998I61872J61872D01*
G01*
X6441643Y15432684D01*
G75*
G02*
X6565387Y15432684I61872J-61872D01*
G01*
G37*
G36*
G01*
X6211833Y15786238D02*
X6335577Y15662494D01*
G75*
G02*
X6335577Y15538750I-61872J-61872D01*
G01*
X5769891Y14973064D01*
G75*
G02*
X5646147Y14973064I-61872J61872D01*
G01*
X5522403Y15096808D01*
G75*
G02*
X5522403Y15220552I61872J61872D01*
G01*
X6088089Y15786238D01*
G75*
G02*
X6211833Y15786238I61872J-61872D01*
G01*
G37*
G36*
G01*
X5858280Y16139791D02*
X5982024Y16016047D01*
G75*
G02*
X5982024Y15892303I-61872J-61872D01*
G01*
X5416338Y15326617D01*
G75*
G02*
X5292594Y15326617I-61872J61872D01*
G01*
X5168850Y15450361D01*
G75*
G02*
X5168850Y15574105I61872J61872D01*
G01*
X5734536Y16139791D01*
G75*
G02*
X5858280Y16139791I61872J-61872D01*
G01*
G37*
G36*
G01*
X5504727Y16493344D02*
X5628471Y16369600D01*
G75*
G02*
X5628471Y16245856I-61872J-61872D01*
G01*
X5062785Y15680170D01*
G75*
G02*
X4939041Y15680170I-61872J61872D01*
G01*
X4815297Y15803914D01*
G75*
G02*
X4815297Y15927658I61872J61872D01*
G01*
X5380983Y16493344D01*
G75*
G02*
X5504727Y16493344I61872J-61872D01*
G01*
G37*
G36*
G01*
X5151173Y16846898D02*
X5274917Y16723154D01*
G75*
G02*
X5274917Y16599410I-61872J-61872D01*
G01*
X4709231Y16033724D01*
G75*
G02*
X4585487Y16033724I-61872J61872D01*
G01*
X4461743Y16157468D01*
G75*
G02*
X4461743Y16281212I61872J61872D01*
G01*
X5027429Y16846898D01*
G75*
G02*
X5151173Y16846898I61872J-61872D01*
G01*
G37*
G36*
G01*
X4797620Y17200451D02*
X4921364Y17076707D01*
G75*
G02*
X4921364Y16952963I-61872J-61872D01*
G01*
X4355678Y16387277D01*
G75*
G02*
X4231934Y16387277I-61872J61872D01*
G01*
X4108190Y16511021D01*
G75*
G02*
X4108190Y16634765I61872J61872D01*
G01*
X4673876Y17200451D01*
G75*
G02*
X4797620Y17200451I61872J-61872D01*
G01*
G37*
G36*
G01*
X4355678Y18172723D02*
X4921364Y17607037D01*
G75*
G02*
X4921364Y17483293I-61872J-61872D01*
G01*
X4797620Y17359549D01*
G75*
G02*
X4673876Y17359549I-61872J61872D01*
G01*
X4108190Y17925235D01*
G75*
G02*
X4108190Y18048979I61872J61872D01*
G01*
X4231934Y18172723D01*
G75*
G02*
X4355678Y18172723I61872J-61872D01*
G01*
G37*
G36*
G01*
X4709231Y18526276D02*
X5274917Y17960590D01*
G75*
G02*
X5274917Y17836846I-61872J-61872D01*
G01*
X5151173Y17713102D01*
G75*
G02*
X5027429Y17713102I-61872J61872D01*
G01*
X4461743Y18278788D01*
G75*
G02*
X4461743Y18402532I61872J61872D01*
G01*
X4585487Y18526276D01*
G75*
G02*
X4709231Y18526276I61872J-61872D01*
G01*
G37*
G36*
G01*
X5062785Y18879830D02*
X5628471Y18314144D01*
G75*
G02*
X5628471Y18190400I-61872J-61872D01*
G01*
X5504727Y18066656D01*
G75*
G02*
X5380983Y18066656I-61872J61872D01*
G01*
X4815297Y18632342D01*
G75*
G02*
X4815297Y18756086I61872J61872D01*
G01*
X4939041Y18879830D01*
G75*
G02*
X5062785Y18879830I61872J-61872D01*
G01*
G37*
G36*
G01*
X5416338Y19233383D02*
X5982024Y18667697D01*
G75*
G02*
X5982024Y18543953I-61872J-61872D01*
G01*
X5858280Y18420209D01*
G75*
G02*
X5734536Y18420209I-61872J61872D01*
G01*
X5168850Y18985895D01*
G75*
G02*
X5168850Y19109639I61872J61872D01*
G01*
X5292594Y19233383D01*
G75*
G02*
X5416338Y19233383I61872J-61872D01*
G01*
G37*
G36*
G01*
X5769891Y19586936D02*
X6335577Y19021250D01*
G75*
G02*
X6335577Y18897506I-61872J-61872D01*
G01*
X6211833Y18773762D01*
G75*
G02*
X6088089Y18773762I-61872J61872D01*
G01*
X5522403Y19339448D01*
G75*
G02*
X5522403Y19463192I61872J61872D01*
G01*
X5646147Y19586936D01*
G75*
G02*
X5769891Y19586936I61872J-61872D01*
G01*
G37*
G36*
G01*
X6123445Y19940490D02*
X6689131Y19374804D01*
G75*
G02*
X6689131Y19251060I-61872J-61872D01*
G01*
X6565387Y19127316D01*
G75*
G02*
X6441643Y19127316I-61872J61872D01*
G01*
X5875957Y19693002D01*
G75*
G02*
X5875957Y19816746I61872J61872D01*
G01*
X5999701Y19940490D01*
G75*
G02*
X6123445Y19940490I61872J-61872D01*
G01*
G37*
G36*
G01*
X6476998Y20294043D02*
X7042684Y19728357D01*
G75*
G02*
X7042684Y19604613I-61872J-61872D01*
G01*
X6918940Y19480869D01*
G75*
G02*
X6795196Y19480869I-61872J61872D01*
G01*
X6229510Y20046555D01*
G75*
G02*
X6229510Y20170299I61872J61872D01*
G01*
X6353254Y20294043D01*
G75*
G02*
X6476998Y20294043I61872J-61872D01*
G01*
G37*
G36*
G01*
X6830552Y20647597D02*
X7396238Y20081911D01*
G75*
G02*
X7396238Y19958167I-61872J-61872D01*
G01*
X7272494Y19834423D01*
G75*
G02*
X7148750Y19834423I-61872J61872D01*
G01*
X6583064Y20400109D01*
G75*
G02*
X6583064Y20523853I61872J61872D01*
G01*
X6706808Y20647597D01*
G75*
G02*
X6830552Y20647597I61872J-61872D01*
G01*
G37*
G36*
G01*
X7184105Y21001150D02*
X7749791Y20435464D01*
G75*
G02*
X7749791Y20311720I-61872J-61872D01*
G01*
X7626047Y20187976D01*
G75*
G02*
X7502303Y20187976I-61872J61872D01*
G01*
X6936617Y20753662D01*
G75*
G02*
X6936617Y20877406I61872J61872D01*
G01*
X7060361Y21001150D01*
G75*
G02*
X7184105Y21001150I61872J-61872D01*
G01*
G37*
G36*
G01*
X7537658Y21354703D02*
X8103344Y20789017D01*
G75*
G02*
X8103344Y20665273I-61872J-61872D01*
G01*
X7979600Y20541529D01*
G75*
G02*
X7855856Y20541529I-61872J61872D01*
G01*
X7290170Y21107215D01*
G75*
G02*
X7290170Y21230959I61872J61872D01*
G01*
X7413914Y21354703D01*
G75*
G02*
X7537658Y21354703I61872J-61872D01*
G01*
G37*
G36*
G01*
X7891212Y21708257D02*
X8456898Y21142571D01*
G75*
G02*
X8456898Y21018827I-61872J-61872D01*
G01*
X8333154Y20895083D01*
G75*
G02*
X8209410Y20895083I-61872J61872D01*
G01*
X7643724Y21460769D01*
G75*
G02*
X7643724Y21584513I61872J61872D01*
G01*
X7767468Y21708257D01*
G75*
G02*
X7891212Y21708257I61872J-61872D01*
G01*
G37*
G36*
G01*
X8244765Y22061810D02*
X8810451Y21496124D01*
G75*
G02*
X8810451Y21372380I-61872J-61872D01*
G01*
X8686707Y21248636D01*
G75*
G02*
X8562963Y21248636I-61872J61872D01*
G01*
X7997277Y21814322D01*
G75*
G02*
X7997277Y21938066I61872J61872D01*
G01*
X8121021Y22061810D01*
G75*
G02*
X8244765Y22061810I61872J-61872D01*
G01*
G37*
G36*
G01*
X9658979Y22061810D02*
X9782723Y21938066D01*
G75*
G02*
X9782723Y21814322I-61872J-61872D01*
G01*
X9217037Y21248636D01*
G75*
G02*
X9093293Y21248636I-61872J61872D01*
G01*
X8969549Y21372380D01*
G75*
G02*
X8969549Y21496124I61872J61872D01*
G01*
X9535235Y22061810D01*
G75*
G02*
X9658979Y22061810I61872J-61872D01*
G01*
G37*
G36*
G01*
X10012532Y21708257D02*
X10136276Y21584513D01*
G75*
G02*
X10136276Y21460769I-61872J-61872D01*
G01*
X9570590Y20895083D01*
G75*
G02*
X9446846Y20895083I-61872J61872D01*
G01*
X9323102Y21018827D01*
G75*
G02*
X9323102Y21142571I61872J61872D01*
G01*
X9888788Y21708257D01*
G75*
G02*
X10012532Y21708257I61872J-61872D01*
G01*
G37*
G36*
G01*
X10366086Y21354703D02*
X10489830Y21230959D01*
G75*
G02*
X10489830Y21107215I-61872J-61872D01*
G01*
X9924144Y20541529D01*
G75*
G02*
X9800400Y20541529I-61872J61872D01*
G01*
X9676656Y20665273D01*
G75*
G02*
X9676656Y20789017I61872J61872D01*
G01*
X10242342Y21354703D01*
G75*
G02*
X10366086Y21354703I61872J-61872D01*
G01*
G37*
G36*
G01*
X10719639Y21001150D02*
X10843383Y20877406D01*
G75*
G02*
X10843383Y20753662I-61872J-61872D01*
G01*
X10277697Y20187976D01*
G75*
G02*
X10153953Y20187976I-61872J61872D01*
G01*
X10030209Y20311720D01*
G75*
G02*
X10030209Y20435464I61872J61872D01*
G01*
X10595895Y21001150D01*
G75*
G02*
X10719639Y21001150I61872J-61872D01*
G01*
G37*
G36*
G01*
X11073192Y20647597D02*
X11196936Y20523853D01*
G75*
G02*
X11196936Y20400109I-61872J-61872D01*
G01*
X10631250Y19834423D01*
G75*
G02*
X10507506Y19834423I-61872J61872D01*
G01*
X10383762Y19958167D01*
G75*
G02*
X10383762Y20081911I61872J61872D01*
G01*
X10949448Y20647597D01*
G75*
G02*
X11073192Y20647597I61872J-61872D01*
G01*
G37*
G36*
G01*
X11426746Y20294043D02*
X11550490Y20170299D01*
G75*
G02*
X11550490Y20046555I-61872J-61872D01*
G01*
X10984804Y19480869D01*
G75*
G02*
X10861060Y19480869I-61872J61872D01*
G01*
X10737316Y19604613D01*
G75*
G02*
X10737316Y19728357I61872J61872D01*
G01*
X11303002Y20294043D01*
G75*
G02*
X11426746Y20294043I61872J-61872D01*
G01*
G37*
G36*
G01*
X11780299Y19940490D02*
X11904043Y19816746D01*
G75*
G02*
X11904043Y19693002I-61872J-61872D01*
G01*
X11338357Y19127316D01*
G75*
G02*
X11214613Y19127316I-61872J61872D01*
G01*
X11090869Y19251060D01*
G75*
G02*
X11090869Y19374804I61872J61872D01*
G01*
X11656555Y19940490D01*
G75*
G02*
X11780299Y19940490I61872J-61872D01*
G01*
G37*
G36*
G01*
X12133853Y19586936D02*
X12257597Y19463192D01*
G75*
G02*
X12257597Y19339448I-61872J-61872D01*
G01*
X11691911Y18773762D01*
G75*
G02*
X11568167Y18773762I-61872J61872D01*
G01*
X11444423Y18897506D01*
G75*
G02*
X11444423Y19021250I61872J61872D01*
G01*
X12010109Y19586936D01*
G75*
G02*
X12133853Y19586936I61872J-61872D01*
G01*
G37*
G36*
G01*
X12487406Y19233383D02*
X12611150Y19109639D01*
G75*
G02*
X12611150Y18985895I-61872J-61872D01*
G01*
X12045464Y18420209D01*
G75*
G02*
X11921720Y18420209I-61872J61872D01*
G01*
X11797976Y18543953D01*
G75*
G02*
X11797976Y18667697I61872J61872D01*
G01*
X12363662Y19233383D01*
G75*
G02*
X12487406Y19233383I61872J-61872D01*
G01*
G37*
G36*
G01*
X12840959Y18879830D02*
X12964703Y18756086D01*
G75*
G02*
X12964703Y18632342I-61872J-61872D01*
G01*
X12399017Y18066656D01*
G75*
G02*
X12275273Y18066656I-61872J61872D01*
G01*
X12151529Y18190400D01*
G75*
G02*
X12151529Y18314144I61872J61872D01*
G01*
X12717215Y18879830D01*
G75*
G02*
X12840959Y18879830I61872J-61872D01*
G01*
G37*
G36*
G01*
X13194513Y18526276D02*
X13318257Y18402532D01*
G75*
G02*
X13318257Y18278788I-61872J-61872D01*
G01*
X12752571Y17713102D01*
G75*
G02*
X12628827Y17713102I-61872J61872D01*
G01*
X12505083Y17836846D01*
G75*
G02*
X12505083Y17960590I61872J61872D01*
G01*
X13070769Y18526276D01*
G75*
G02*
X13194513Y18526276I61872J-61872D01*
G01*
G37*
G36*
G01*
X13548066Y18172723D02*
X13671810Y18048979D01*
G75*
G02*
X13671810Y17925235I-61872J-61872D01*
G01*
X13106124Y17359549D01*
G75*
G02*
X12982380Y17359549I-61872J61872D01*
G01*
X12858636Y17483293D01*
G75*
G02*
X12858636Y17607037I61872J61872D01*
G01*
X13424322Y18172723D01*
G75*
G02*
X13548066Y18172723I61872J-61872D01*
G01*
G37*
G36*
G01*
X12890000Y6535000D02*
X12890000Y6785000D01*
G75*
G02*
X13015000Y6910000I125000J0D01*
G01*
X13325000Y6910000D01*
G75*
G02*
X13450000Y6785000I0J-125000D01*
G01*
X13450000Y6535000D01*
G75*
G02*
X13325000Y6410000I-125000J0D01*
G01*
X13015000Y6410000D01*
G75*
G02*
X12890000Y6535000I0J125000D01*
G01*
G37*
G36*
G01*
X13530000Y6535000D02*
X13530000Y6785000D01*
G75*
G02*
X13655000Y6910000I125000J0D01*
G01*
X13965000Y6910000D01*
G75*
G02*
X14090000Y6785000I0J-125000D01*
G01*
X14090000Y6535000D01*
G75*
G02*
X13965000Y6410000I-125000J0D01*
G01*
X13655000Y6410000D01*
G75*
G02*
X13530000Y6535000I0J125000D01*
G01*
G37*
G36*
G01*
X8650000Y26950000D02*
X8450000Y26950000D01*
G75*
G02*
X8350000Y27050000I0J100000D01*
G01*
X8350000Y27400000D01*
G75*
G02*
X8450000Y27500000I100000J0D01*
G01*
X8650000Y27500000D01*
G75*
G02*
X8750000Y27400000I0J-100000D01*
G01*
X8750000Y27050000D01*
G75*
G02*
X8650000Y26950000I-100000J0D01*
G01*
G37*
G36*
G01*
X9150000Y26950000D02*
X8950000Y26950000D01*
G75*
G02*
X8850000Y27050000I0J100000D01*
G01*
X8850000Y27400000D01*
G75*
G02*
X8950000Y27500000I100000J0D01*
G01*
X9150000Y27500000D01*
G75*
G02*
X9250000Y27400000I0J-100000D01*
G01*
X9250000Y27050000D01*
G75*
G02*
X9150000Y26950000I-100000J0D01*
G01*
G37*
G36*
G01*
X8650000Y25600000D02*
X8450000Y25600000D01*
G75*
G02*
X8350000Y25700000I0J100000D01*
G01*
X8350000Y26050000D01*
G75*
G02*
X8450000Y26150000I100000J0D01*
G01*
X8650000Y26150000D01*
G75*
G02*
X8750000Y26050000I0J-100000D01*
G01*
X8750000Y25700000D01*
G75*
G02*
X8650000Y25600000I-100000J0D01*
G01*
G37*
G36*
G01*
X8150000Y26950000D02*
X7950000Y26950000D01*
G75*
G02*
X7850000Y27050000I0J100000D01*
G01*
X7850000Y27400000D01*
G75*
G02*
X7950000Y27500000I100000J0D01*
G01*
X8150000Y27500000D01*
G75*
G02*
X8250000Y27400000I0J-100000D01*
G01*
X8250000Y27050000D01*
G75*
G02*
X8150000Y26950000I-100000J0D01*
G01*
G37*
G36*
G01*
X9150000Y25600000D02*
X8950000Y25600000D01*
G75*
G02*
X8850000Y25700000I0J100000D01*
G01*
X8850000Y26050000D01*
G75*
G02*
X8950000Y26150000I100000J0D01*
G01*
X9150000Y26150000D01*
G75*
G02*
X9250000Y26050000I0J-100000D01*
G01*
X9250000Y25700000D01*
G75*
G02*
X9150000Y25600000I-100000J0D01*
G01*
G37*
G36*
G01*
X8150000Y25600000D02*
X7950000Y25600000D01*
G75*
G02*
X7850000Y25700000I0J100000D01*
G01*
X7850000Y26050000D01*
G75*
G02*
X7950000Y26150000I100000J0D01*
G01*
X8150000Y26150000D01*
G75*
G02*
X8250000Y26050000I0J-100000D01*
G01*
X8250000Y25700000D01*
G75*
G02*
X8150000Y25600000I-100000J0D01*
G01*
G37*
D15*
X16510000Y1270000D03*
X16510000Y3810000D03*
X16510000Y6350000D03*
X16510000Y8890000D03*
X16510000Y11430000D03*
X16510000Y13970000D03*
X16510000Y16510000D03*
X16510000Y19050000D03*
X16510000Y21590000D03*
X16510000Y24130000D03*
X3810000Y1270000D03*
X3810000Y3810000D03*
X6350000Y1270000D03*
X6350000Y3810000D03*
X8890000Y1270000D03*
X8890000Y3810000D03*
X11430000Y1270000D03*
X11430000Y3810000D03*
X13970000Y1270000D03*
X13970000Y3810000D03*
X1270000Y1270000D03*
X1270000Y3810000D03*
X1270000Y6350000D03*
X1270000Y8890000D03*
X1270000Y11430000D03*
X1270000Y13970000D03*
X1270000Y16510000D03*
X1270000Y19050000D03*
X1270000Y21590000D03*
X1270000Y24130000D03*
G36*
G01*
X11000000Y27450000D02*
X11600000Y27450000D01*
G75*
G02*
X11650000Y27400000I0J-50000D01*
G01*
X11650000Y26900000D01*
G75*
G02*
X11600000Y26850000I-50000J0D01*
G01*
X11000000Y26850000D01*
G75*
G02*
X10950000Y26900000I0J50000D01*
G01*
X10950000Y27400000D01*
G75*
G02*
X11000000Y27450000I50000J0D01*
G01*
G37*
G36*
G01*
X9900000Y27450000D02*
X10500000Y27450000D01*
G75*
G02*
X10550000Y27400000I0J-50000D01*
G01*
X10550000Y26900000D01*
G75*
G02*
X10500000Y26850000I-50000J0D01*
G01*
X9900000Y26850000D01*
G75*
G02*
X9850000Y26900000I0J50000D01*
G01*
X9850000Y27400000D01*
G75*
G02*
X9900000Y27450000I50000J0D01*
G01*
G37*
G36*
G01*
X9900000Y26650000D02*
X10500000Y26650000D01*
G75*
G02*
X10550000Y26600000I0J-50000D01*
G01*
X10550000Y26100000D01*
G75*
G02*
X10500000Y26050000I-50000J0D01*
G01*
X9900000Y26050000D01*
G75*
G02*
X9850000Y26100000I0J50000D01*
G01*
X9850000Y26600000D01*
G75*
G02*
X9900000Y26650000I50000J0D01*
G01*
G37*
G36*
G01*
X11000000Y26650000D02*
X11600000Y26650000D01*
G75*
G02*
X11650000Y26600000I0J-50000D01*
G01*
X11650000Y26100000D01*
G75*
G02*
X11600000Y26050000I-50000J0D01*
G01*
X11000000Y26050000D01*
G75*
G02*
X10950000Y26100000I0J50000D01*
G01*
X10950000Y26600000D01*
G75*
G02*
X11000000Y26650000I50000J0D01*
G01*
G37*
G36*
G01*
X5095000Y10540000D02*
X5345000Y10540000D01*
G75*
G02*
X5470000Y10415000I0J-125000D01*
G01*
X5470000Y10105000D01*
G75*
G02*
X5345000Y9980000I-125000J0D01*
G01*
X5095000Y9980000D01*
G75*
G02*
X4970000Y10105000I0J125000D01*
G01*
X4970000Y10415000D01*
G75*
G02*
X5095000Y10540000I125000J0D01*
G01*
G37*
G36*
G01*
X5095000Y9900000D02*
X5345000Y9900000D01*
G75*
G02*
X5470000Y9775000I0J-125000D01*
G01*
X5470000Y9465000D01*
G75*
G02*
X5345000Y9340000I-125000J0D01*
G01*
X5095000Y9340000D01*
G75*
G02*
X4970000Y9465000I0J125000D01*
G01*
X4970000Y9775000D01*
G75*
G02*
X5095000Y9900000I125000J0D01*
G01*
G37*
G36*
G01*
X13150000Y27425000D02*
X13150000Y27175000D01*
G75*
G02*
X13025000Y27050000I-125000J0D01*
G01*
X12715000Y27050000D01*
G75*
G02*
X12590000Y27175000I0J125000D01*
G01*
X12590000Y27425000D01*
G75*
G02*
X12715000Y27550000I125000J0D01*
G01*
X13025000Y27550000D01*
G75*
G02*
X13150000Y27425000I0J-125000D01*
G01*
G37*
G36*
G01*
X12510000Y27425000D02*
X12510000Y27175000D01*
G75*
G02*
X12385000Y27050000I-125000J0D01*
G01*
X12075000Y27050000D01*
G75*
G02*
X11950000Y27175000I0J125000D01*
G01*
X11950000Y27425000D01*
G75*
G02*
X12075000Y27550000I125000J0D01*
G01*
X12385000Y27550000D01*
G75*
G02*
X12510000Y27425000I0J-125000D01*
G01*
G37*
G36*
G01*
X7225000Y26350000D02*
X6975000Y26350000D01*
G75*
G02*
X6850000Y26475000I0J125000D01*
G01*
X6850000Y26785000D01*
G75*
G02*
X6975000Y26910000I125000J0D01*
G01*
X7225000Y26910000D01*
G75*
G02*
X7350000Y26785000I0J-125000D01*
G01*
X7350000Y26475000D01*
G75*
G02*
X7225000Y26350000I-125000J0D01*
G01*
G37*
G36*
G01*
X7225000Y26990000D02*
X6975000Y26990000D01*
G75*
G02*
X6850000Y27115000I0J125000D01*
G01*
X6850000Y27425000D01*
G75*
G02*
X6975000Y27550000I125000J0D01*
G01*
X7225000Y27550000D01*
G75*
G02*
X7350000Y27425000I0J-125000D01*
G01*
X7350000Y27115000D01*
G75*
G02*
X7225000Y26990000I-125000J0D01*
G01*
G37*
G36*
G01*
X8270000Y24975000D02*
X8270000Y25225000D01*
G75*
G02*
X8395000Y25350000I125000J0D01*
G01*
X8705000Y25350000D01*
G75*
G02*
X8830000Y25225000I0J-125000D01*
G01*
X8830000Y24975000D01*
G75*
G02*
X8705000Y24850000I-125000J0D01*
G01*
X8395000Y24850000D01*
G75*
G02*
X8270000Y24975000I0J125000D01*
G01*
G37*
G36*
G01*
X7630000Y24975000D02*
X7630000Y25225000D01*
G75*
G02*
X7755000Y25350000I125000J0D01*
G01*
X8065000Y25350000D01*
G75*
G02*
X8190000Y25225000I0J-125000D01*
G01*
X8190000Y24975000D01*
G75*
G02*
X8065000Y24850000I-125000J0D01*
G01*
X7755000Y24850000D01*
G75*
G02*
X7630000Y24975000I0J125000D01*
G01*
G37*
G36*
G01*
X14090000Y8555000D02*
X14090000Y8305000D01*
G75*
G02*
X13965000Y8180000I-125000J0D01*
G01*
X13655000Y8180000D01*
G75*
G02*
X13530000Y8305000I0J125000D01*
G01*
X13530000Y8555000D01*
G75*
G02*
X13655000Y8680000I125000J0D01*
G01*
X13965000Y8680000D01*
G75*
G02*
X14090000Y8555000I0J-125000D01*
G01*
G37*
G36*
G01*
X13450000Y8555000D02*
X13450000Y8305000D01*
G75*
G02*
X13325000Y8180000I-125000J0D01*
G01*
X13015000Y8180000D01*
G75*
G02*
X12890000Y8305000I0J125000D01*
G01*
X12890000Y8555000D01*
G75*
G02*
X13015000Y8680000I125000J0D01*
G01*
X13325000Y8680000D01*
G75*
G02*
X13450000Y8555000I0J-125000D01*
G01*
G37*
G36*
G01*
X14090000Y7855000D02*
X14090000Y7605000D01*
G75*
G02*
X13965000Y7480000I-125000J0D01*
G01*
X13655000Y7480000D01*
G75*
G02*
X13530000Y7605000I0J125000D01*
G01*
X13530000Y7855000D01*
G75*
G02*
X13655000Y7980000I125000J0D01*
G01*
X13965000Y7980000D01*
G75*
G02*
X14090000Y7855000I0J-125000D01*
G01*
G37*
G36*
G01*
X13450000Y7855000D02*
X13450000Y7605000D01*
G75*
G02*
X13325000Y7480000I-125000J0D01*
G01*
X13015000Y7480000D01*
G75*
G02*
X12890000Y7605000I0J125000D01*
G01*
X12890000Y7855000D01*
G75*
G02*
X13015000Y7980000I125000J0D01*
G01*
X13325000Y7980000D01*
G75*
G02*
X13450000Y7855000I0J-125000D01*
G01*
G37*
G36*
G01*
X12890000Y9375000D02*
X12890000Y9625000D01*
G75*
G02*
X13015000Y9750000I125000J0D01*
G01*
X13325000Y9750000D01*
G75*
G02*
X13450000Y9625000I0J-125000D01*
G01*
X13450000Y9375000D01*
G75*
G02*
X13325000Y9250000I-125000J0D01*
G01*
X13015000Y9250000D01*
G75*
G02*
X12890000Y9375000I0J125000D01*
G01*
G37*
G36*
G01*
X13530000Y9375000D02*
X13530000Y9625000D01*
G75*
G02*
X13655000Y9750000I125000J0D01*
G01*
X13965000Y9750000D01*
G75*
G02*
X14090000Y9625000I0J-125000D01*
G01*
X14090000Y9375000D01*
G75*
G02*
X13965000Y9250000I-125000J0D01*
G01*
X13655000Y9250000D01*
G75*
G02*
X13530000Y9375000I0J125000D01*
G01*
G37*
X16510000Y26670000D03*
X16510000Y29210000D03*
X16510000Y31750000D03*
X16510000Y34290000D03*
X1270000Y26670000D03*
X1270000Y29210000D03*
X1270000Y31750000D03*
X1270000Y34290000D03*
G36*
G01*
X5375000Y25470000D02*
X5625000Y25470000D01*
G75*
G02*
X5750000Y25345000I0J-125000D01*
G01*
X5750000Y25035000D01*
G75*
G02*
X5625000Y24910000I-125000J0D01*
G01*
X5375000Y24910000D01*
G75*
G02*
X5250000Y25035000I0J125000D01*
G01*
X5250000Y25345000D01*
G75*
G02*
X5375000Y25470000I125000J0D01*
G01*
G37*
G36*
G01*
X5375000Y24830000D02*
X5625000Y24830000D01*
G75*
G02*
X5750000Y24705000I0J-125000D01*
G01*
X5750000Y24395000D01*
G75*
G02*
X5625000Y24270000I-125000J0D01*
G01*
X5375000Y24270000D01*
G75*
G02*
X5250000Y24395000I0J125000D01*
G01*
X5250000Y24705000D01*
G75*
G02*
X5375000Y24830000I125000J0D01*
G01*
G37*
G36*
G01*
X3075000Y25470000D02*
X3325000Y25470000D01*
G75*
G02*
X3450000Y25345000I0J-125000D01*
G01*
X3450000Y25035000D01*
G75*
G02*
X3325000Y24910000I-125000J0D01*
G01*
X3075000Y24910000D01*
G75*
G02*
X2950000Y25035000I0J125000D01*
G01*
X2950000Y25345000D01*
G75*
G02*
X3075000Y25470000I125000J0D01*
G01*
G37*
G36*
G01*
X3075000Y24830000D02*
X3325000Y24830000D01*
G75*
G02*
X3450000Y24705000I0J-125000D01*
G01*
X3450000Y24395000D01*
G75*
G02*
X3325000Y24270000I-125000J0D01*
G01*
X3075000Y24270000D01*
G75*
G02*
X2950000Y24395000I0J125000D01*
G01*
X2950000Y24705000D01*
G75*
G02*
X3075000Y24830000I125000J0D01*
G01*
G37*
G36*
G01*
X13118528Y21376167D02*
X13012462Y21270101D01*
G75*
G02*
X12906396Y21270101I-53033J53033D01*
G01*
X12340710Y21835787D01*
G75*
G02*
X12340710Y21941853I53033J53033D01*
G01*
X12446776Y22047919D01*
G75*
G02*
X12552842Y22047919I53033J-53033D01*
G01*
X13118528Y21482233D01*
G75*
G02*
X13118528Y21376167I-53033J-53033D01*
G01*
G37*
G36*
G01*
X13401371Y21659009D02*
X13295305Y21552943D01*
G75*
G02*
X13189239Y21552943I-53033J53033D01*
G01*
X12623553Y22118629D01*
G75*
G02*
X12623553Y22224695I53033J53033D01*
G01*
X12729619Y22330761D01*
G75*
G02*
X12835685Y22330761I53033J-53033D01*
G01*
X13401371Y21765075D01*
G75*
G02*
X13401371Y21659009I-53033J-53033D01*
G01*
G37*
G36*
G01*
X13684214Y21941852D02*
X13578148Y21835786D01*
G75*
G02*
X13472082Y21835786I-53033J53033D01*
G01*
X12906396Y22401472D01*
G75*
G02*
X12906396Y22507538I53033J53033D01*
G01*
X13012462Y22613604D01*
G75*
G02*
X13118528Y22613604I53033J-53033D01*
G01*
X13684214Y22047918D01*
G75*
G02*
X13684214Y21941852I-53033J-53033D01*
G01*
G37*
G36*
G01*
X13967057Y22224695D02*
X13860991Y22118629D01*
G75*
G02*
X13754925Y22118629I-53033J53033D01*
G01*
X13189239Y22684315D01*
G75*
G02*
X13189239Y22790381I53033J53033D01*
G01*
X13295305Y22896447D01*
G75*
G02*
X13401371Y22896447I53033J-53033D01*
G01*
X13967057Y22330761D01*
G75*
G02*
X13967057Y22224695I-53033J-53033D01*
G01*
G37*
G36*
G01*
X14249899Y22507538D02*
X14143833Y22401472D01*
G75*
G02*
X14037767Y22401472I-53033J53033D01*
G01*
X13472081Y22967158D01*
G75*
G02*
X13472081Y23073224I53033J53033D01*
G01*
X13578147Y23179290D01*
G75*
G02*
X13684213Y23179290I53033J-53033D01*
G01*
X14249899Y22613604D01*
G75*
G02*
X14249899Y22507538I-53033J-53033D01*
G01*
G37*
G36*
G01*
X14249899Y23886396D02*
X13684213Y23320710D01*
G75*
G02*
X13578147Y23320710I-53033J53033D01*
G01*
X13472081Y23426776D01*
G75*
G02*
X13472081Y23532842I53033J53033D01*
G01*
X14037767Y24098528D01*
G75*
G02*
X14143833Y24098528I53033J-53033D01*
G01*
X14249899Y23992462D01*
G75*
G02*
X14249899Y23886396I-53033J-53033D01*
G01*
G37*
G36*
G01*
X13967057Y24169239D02*
X13401371Y23603553D01*
G75*
G02*
X13295305Y23603553I-53033J53033D01*
G01*
X13189239Y23709619D01*
G75*
G02*
X13189239Y23815685I53033J53033D01*
G01*
X13754925Y24381371D01*
G75*
G02*
X13860991Y24381371I53033J-53033D01*
G01*
X13967057Y24275305D01*
G75*
G02*
X13967057Y24169239I-53033J-53033D01*
G01*
G37*
G36*
G01*
X13684214Y24452082D02*
X13118528Y23886396D01*
G75*
G02*
X13012462Y23886396I-53033J53033D01*
G01*
X12906396Y23992462D01*
G75*
G02*
X12906396Y24098528I53033J53033D01*
G01*
X13472082Y24664214D01*
G75*
G02*
X13578148Y24664214I53033J-53033D01*
G01*
X13684214Y24558148D01*
G75*
G02*
X13684214Y24452082I-53033J-53033D01*
G01*
G37*
G36*
G01*
X13401371Y24734925D02*
X12835685Y24169239D01*
G75*
G02*
X12729619Y24169239I-53033J53033D01*
G01*
X12623553Y24275305D01*
G75*
G02*
X12623553Y24381371I53033J53033D01*
G01*
X13189239Y24947057D01*
G75*
G02*
X13295305Y24947057I53033J-53033D01*
G01*
X13401371Y24840991D01*
G75*
G02*
X13401371Y24734925I-53033J-53033D01*
G01*
G37*
G36*
G01*
X13118528Y25017767D02*
X12552842Y24452081D01*
G75*
G02*
X12446776Y24452081I-53033J53033D01*
G01*
X12340710Y24558147D01*
G75*
G02*
X12340710Y24664213I53033J53033D01*
G01*
X12906396Y25229899D01*
G75*
G02*
X13012462Y25229899I53033J-53033D01*
G01*
X13118528Y25123833D01*
G75*
G02*
X13118528Y25017767I-53033J-53033D01*
G01*
G37*
G36*
G01*
X12199290Y24558147D02*
X12093224Y24452081D01*
G75*
G02*
X11987158Y24452081I-53033J53033D01*
G01*
X11421472Y25017767D01*
G75*
G02*
X11421472Y25123833I53033J53033D01*
G01*
X11527538Y25229899D01*
G75*
G02*
X11633604Y25229899I53033J-53033D01*
G01*
X12199290Y24664213D01*
G75*
G02*
X12199290Y24558147I-53033J-53033D01*
G01*
G37*
G36*
G01*
X11916447Y24275305D02*
X11810381Y24169239D01*
G75*
G02*
X11704315Y24169239I-53033J53033D01*
G01*
X11138629Y24734925D01*
G75*
G02*
X11138629Y24840991I53033J53033D01*
G01*
X11244695Y24947057D01*
G75*
G02*
X11350761Y24947057I53033J-53033D01*
G01*
X11916447Y24381371D01*
G75*
G02*
X11916447Y24275305I-53033J-53033D01*
G01*
G37*
G36*
G01*
X11633604Y23992462D02*
X11527538Y23886396D01*
G75*
G02*
X11421472Y23886396I-53033J53033D01*
G01*
X10855786Y24452082D01*
G75*
G02*
X10855786Y24558148I53033J53033D01*
G01*
X10961852Y24664214D01*
G75*
G02*
X11067918Y24664214I53033J-53033D01*
G01*
X11633604Y24098528D01*
G75*
G02*
X11633604Y23992462I-53033J-53033D01*
G01*
G37*
G36*
G01*
X11350761Y23709619D02*
X11244695Y23603553D01*
G75*
G02*
X11138629Y23603553I-53033J53033D01*
G01*
X10572943Y24169239D01*
G75*
G02*
X10572943Y24275305I53033J53033D01*
G01*
X10679009Y24381371D01*
G75*
G02*
X10785075Y24381371I53033J-53033D01*
G01*
X11350761Y23815685D01*
G75*
G02*
X11350761Y23709619I-53033J-53033D01*
G01*
G37*
G36*
G01*
X11067919Y23426776D02*
X10961853Y23320710D01*
G75*
G02*
X10855787Y23320710I-53033J53033D01*
G01*
X10290101Y23886396D01*
G75*
G02*
X10290101Y23992462I53033J53033D01*
G01*
X10396167Y24098528D01*
G75*
G02*
X10502233Y24098528I53033J-53033D01*
G01*
X11067919Y23532842D01*
G75*
G02*
X11067919Y23426776I-53033J-53033D01*
G01*
G37*
G36*
G01*
X11067919Y22967158D02*
X10502233Y22401472D01*
G75*
G02*
X10396167Y22401472I-53033J53033D01*
G01*
X10290101Y22507538D01*
G75*
G02*
X10290101Y22613604I53033J53033D01*
G01*
X10855787Y23179290D01*
G75*
G02*
X10961853Y23179290I53033J-53033D01*
G01*
X11067919Y23073224D01*
G75*
G02*
X11067919Y22967158I-53033J-53033D01*
G01*
G37*
G36*
G01*
X11350761Y22684315D02*
X10785075Y22118629D01*
G75*
G02*
X10679009Y22118629I-53033J53033D01*
G01*
X10572943Y22224695D01*
G75*
G02*
X10572943Y22330761I53033J53033D01*
G01*
X11138629Y22896447D01*
G75*
G02*
X11244695Y22896447I53033J-53033D01*
G01*
X11350761Y22790381D01*
G75*
G02*
X11350761Y22684315I-53033J-53033D01*
G01*
G37*
G36*
G01*
X11633604Y22401472D02*
X11067918Y21835786D01*
G75*
G02*
X10961852Y21835786I-53033J53033D01*
G01*
X10855786Y21941852D01*
G75*
G02*
X10855786Y22047918I53033J53033D01*
G01*
X11421472Y22613604D01*
G75*
G02*
X11527538Y22613604I53033J-53033D01*
G01*
X11633604Y22507538D01*
G75*
G02*
X11633604Y22401472I-53033J-53033D01*
G01*
G37*
G36*
G01*
X11916447Y22118629D02*
X11350761Y21552943D01*
G75*
G02*
X11244695Y21552943I-53033J53033D01*
G01*
X11138629Y21659009D01*
G75*
G02*
X11138629Y21765075I53033J53033D01*
G01*
X11704315Y22330761D01*
G75*
G02*
X11810381Y22330761I53033J-53033D01*
G01*
X11916447Y22224695D01*
G75*
G02*
X11916447Y22118629I-53033J-53033D01*
G01*
G37*
G36*
G01*
X12199290Y21835787D02*
X11633604Y21270101D01*
G75*
G02*
X11527538Y21270101I-53033J53033D01*
G01*
X11421472Y21376167D01*
G75*
G02*
X11421472Y21482233I53033J53033D01*
G01*
X11987158Y22047919D01*
G75*
G02*
X12093224Y22047919I53033J-53033D01*
G01*
X12199290Y21941853D01*
G75*
G02*
X12199290Y21835787I-53033J-53033D01*
G01*
G37*
G36*
G01*
X13472081Y23214645D02*
X12305355Y22047919D01*
G75*
G02*
X12234645Y22047919I-35355J35355D01*
G01*
X11067919Y23214645D01*
G75*
G02*
X11067919Y23285355I35355J35355D01*
G01*
X12234645Y24452081D01*
G75*
G02*
X12305355Y24452081I35355J-35355D01*
G01*
X13472081Y23285355D01*
G75*
G02*
X13472081Y23214645I-35355J-35355D01*
G01*
G37*
G36*
G01*
X3660000Y26950000D02*
X3160000Y26950000D01*
G75*
G02*
X3010000Y27100000I0J150000D01*
G01*
X3010000Y27400000D01*
G75*
G02*
X3160000Y27550000I150000J0D01*
G01*
X3660000Y27550000D01*
G75*
G02*
X3810000Y27400000I0J-150000D01*
G01*
X3810000Y27100000D01*
G75*
G02*
X3660000Y26950000I-150000J0D01*
G01*
G37*
G36*
G01*
X3660000Y26150000D02*
X3160000Y26150000D01*
G75*
G02*
X3010000Y26300000I0J150000D01*
G01*
X3010000Y26600000D01*
G75*
G02*
X3160000Y26750000I150000J0D01*
G01*
X3660000Y26750000D01*
G75*
G02*
X3810000Y26600000I0J-150000D01*
G01*
X3810000Y26300000D01*
G75*
G02*
X3660000Y26150000I-150000J0D01*
G01*
G37*
G36*
G01*
X5580000Y26950000D02*
X5080000Y26950000D01*
G75*
G02*
X4930000Y27100000I0J150000D01*
G01*
X4930000Y27400000D01*
G75*
G02*
X5080000Y27550000I150000J0D01*
G01*
X5580000Y27550000D01*
G75*
G02*
X5730000Y27400000I0J-150000D01*
G01*
X5730000Y27100000D01*
G75*
G02*
X5580000Y26950000I-150000J0D01*
G01*
G37*
G36*
G01*
X5580000Y26150000D02*
X5080000Y26150000D01*
G75*
G02*
X4930000Y26300000I0J150000D01*
G01*
X4930000Y26600000D01*
G75*
G02*
X5080000Y26750000I150000J0D01*
G01*
X5580000Y26750000D01*
G75*
G02*
X5730000Y26600000I0J-150000D01*
G01*
X5730000Y26300000D01*
G75*
G02*
X5580000Y26150000I-150000J0D01*
G01*
G37*
G36*
G01*
X11950000Y26475000D02*
X11950000Y26725000D01*
G75*
G02*
X12075000Y26850000I125000J0D01*
G01*
X12385000Y26850000D01*
G75*
G02*
X12510000Y26725000I0J-125000D01*
G01*
X12510000Y26475000D01*
G75*
G02*
X12385000Y26350000I-125000J0D01*
G01*
X12075000Y26350000D01*
G75*
G02*
X11950000Y26475000I0J125000D01*
G01*
G37*
G36*
G01*
X12590000Y26475000D02*
X12590000Y26725000D01*
G75*
G02*
X12715000Y26850000I125000J0D01*
G01*
X13025000Y26850000D01*
G75*
G02*
X13150000Y26725000I0J-125000D01*
G01*
X13150000Y26475000D01*
G75*
G02*
X13025000Y26350000I-125000J0D01*
G01*
X12715000Y26350000D01*
G75*
G02*
X12590000Y26475000I0J125000D01*
G01*
G37*
G36*
G01*
X13780000Y25775000D02*
X13780000Y26025000D01*
G75*
G02*
X13905000Y26150000I125000J0D01*
G01*
X14215000Y26150000D01*
G75*
G02*
X14340000Y26025000I0J-125000D01*
G01*
X14340000Y25775000D01*
G75*
G02*
X14215000Y25650000I-125000J0D01*
G01*
X13905000Y25650000D01*
G75*
G02*
X13780000Y25775000I0J125000D01*
G01*
G37*
G36*
G01*
X14420000Y25775000D02*
X14420000Y26025000D01*
G75*
G02*
X14545000Y26150000I125000J0D01*
G01*
X14855000Y26150000D01*
G75*
G02*
X14980000Y26025000I0J-125000D01*
G01*
X14980000Y25775000D01*
G75*
G02*
X14855000Y25650000I-125000J0D01*
G01*
X14545000Y25650000D01*
G75*
G02*
X14420000Y25775000I0J125000D01*
G01*
G37*
G36*
G01*
X5345000Y7930000D02*
X5095000Y7930000D01*
G75*
G02*
X4970000Y8055000I0J125000D01*
G01*
X4970000Y8365000D01*
G75*
G02*
X5095000Y8490000I125000J0D01*
G01*
X5345000Y8490000D01*
G75*
G02*
X5470000Y8365000I0J-125000D01*
G01*
X5470000Y8055000D01*
G75*
G02*
X5345000Y7930000I-125000J0D01*
G01*
G37*
G36*
G01*
X5345000Y8570000D02*
X5095000Y8570000D01*
G75*
G02*
X4970000Y8695000I0J125000D01*
G01*
X4970000Y9005000D01*
G75*
G02*
X5095000Y9130000I125000J0D01*
G01*
X5345000Y9130000D01*
G75*
G02*
X5470000Y9005000I0J-125000D01*
G01*
X5470000Y8695000D01*
G75*
G02*
X5345000Y8570000I-125000J0D01*
G01*
G37*
G36*
G01*
X6485000Y26890000D02*
X6095000Y26890000D01*
G75*
G02*
X5930000Y27055000I0J165000D01*
G01*
X5930000Y27385000D01*
G75*
G02*
X6095000Y27550000I165000J0D01*
G01*
X6485000Y27550000D01*
G75*
G02*
X6650000Y27385000I0J-165000D01*
G01*
X6650000Y27055000D01*
G75*
G02*
X6485000Y26890000I-165000J0D01*
G01*
G37*
G36*
G01*
X6485000Y25930000D02*
X6095000Y25930000D01*
G75*
G02*
X5930000Y26095000I0J165000D01*
G01*
X5930000Y26425000D01*
G75*
G02*
X6095000Y26590000I165000J0D01*
G01*
X6485000Y26590000D01*
G75*
G02*
X6650000Y26425000I0J-165000D01*
G01*
X6650000Y26095000D01*
G75*
G02*
X6485000Y25930000I-165000J0D01*
G01*
G37*
G36*
G01*
X4565000Y26890000D02*
X4175000Y26890000D01*
G75*
G02*
X4010000Y27055000I0J165000D01*
G01*
X4010000Y27385000D01*
G75*
G02*
X4175000Y27550000I165000J0D01*
G01*
X4565000Y27550000D01*
G75*
G02*
X4730000Y27385000I0J-165000D01*
G01*
X4730000Y27055000D01*
G75*
G02*
X4565000Y26890000I-165000J0D01*
G01*
G37*
G36*
G01*
X4565000Y25930000D02*
X4175000Y25930000D01*
G75*
G02*
X4010000Y26095000I0J165000D01*
G01*
X4010000Y26425000D01*
G75*
G02*
X4175000Y26590000I165000J0D01*
G01*
X4565000Y26590000D01*
G75*
G02*
X4730000Y26425000I0J-165000D01*
G01*
X4730000Y26095000D01*
G75*
G02*
X4565000Y25930000I-165000J0D01*
G01*
G37*
G36*
G01*
X5872652Y13274125D02*
X5695875Y13097348D01*
G75*
G02*
X5519099Y13097348I-88388J88388D01*
G01*
X5299896Y13316551D01*
G75*
G02*
X5299896Y13493327I88388J88388D01*
G01*
X5476673Y13670104D01*
G75*
G02*
X5653449Y13670104I88388J-88388D01*
G01*
X5872652Y13450901D01*
G75*
G02*
X5872652Y13274125I-88388J-88388D01*
G01*
G37*
G36*
G01*
X5420104Y13726673D02*
X5243327Y13549896D01*
G75*
G02*
X5066551Y13549896I-88388J88388D01*
G01*
X4847348Y13769099D01*
G75*
G02*
X4847348Y13945875I88388J88388D01*
G01*
X5024125Y14122652D01*
G75*
G02*
X5200901Y14122652I88388J-88388D01*
G01*
X5420104Y13903449D01*
G75*
G02*
X5420104Y13726673I-88388J-88388D01*
G01*
G37*
G36*
G01*
X13870000Y18455000D02*
X13870000Y18705000D01*
G75*
G02*
X13995000Y18830000I125000J0D01*
G01*
X14305000Y18830000D01*
G75*
G02*
X14430000Y18705000I0J-125000D01*
G01*
X14430000Y18455000D01*
G75*
G02*
X14305000Y18330000I-125000J0D01*
G01*
X13995000Y18330000D01*
G75*
G02*
X13870000Y18455000I0J125000D01*
G01*
G37*
G36*
G01*
X14510000Y18455000D02*
X14510000Y18705000D01*
G75*
G02*
X14635000Y18830000I125000J0D01*
G01*
X14945000Y18830000D01*
G75*
G02*
X15070000Y18705000I0J-125000D01*
G01*
X15070000Y18455000D01*
G75*
G02*
X14945000Y18330000I-125000J0D01*
G01*
X14635000Y18330000D01*
G75*
G02*
X14510000Y18455000I0J125000D01*
G01*
G37*
G36*
G01*
X4284125Y19337348D02*
X4107348Y19514125D01*
G75*
G02*
X4107348Y19690901I88388J88388D01*
G01*
X4326551Y19910104D01*
G75*
G02*
X4503327Y19910104I88388J-88388D01*
G01*
X4680104Y19733327D01*
G75*
G02*
X4680104Y19556551I-88388J-88388D01*
G01*
X4460901Y19337348D01*
G75*
G02*
X4284125Y19337348I-88388J88388D01*
G01*
G37*
G36*
G01*
X4736673Y19789896D02*
X4559896Y19966673D01*
G75*
G02*
X4559896Y20143449I88388J88388D01*
G01*
X4779099Y20362652D01*
G75*
G02*
X4955875Y20362652I88388J-88388D01*
G01*
X5132652Y20185875D01*
G75*
G02*
X5132652Y20009099I-88388J-88388D01*
G01*
X4913449Y19789896D01*
G75*
G02*
X4736673Y19789896I-88388J88388D01*
G01*
G37*
G36*
G01*
X5372652Y12784125D02*
X5195875Y12607348D01*
G75*
G02*
X5019099Y12607348I-88388J88388D01*
G01*
X4799896Y12826551D01*
G75*
G02*
X4799896Y13003327I88388J88388D01*
G01*
X4976673Y13180104D01*
G75*
G02*
X5153449Y13180104I88388J-88388D01*
G01*
X5372652Y12960901D01*
G75*
G02*
X5372652Y12784125I-88388J-88388D01*
G01*
G37*
G36*
G01*
X4920104Y13236673D02*
X4743327Y13059896D01*
G75*
G02*
X4566551Y13059896I-88388J88388D01*
G01*
X4347348Y13279099D01*
G75*
G02*
X4347348Y13455875I88388J88388D01*
G01*
X4524125Y13632652D01*
G75*
G02*
X4700901Y13632652I88388J-88388D01*
G01*
X4920104Y13413449D01*
G75*
G02*
X4920104Y13236673I-88388J-88388D01*
G01*
G37*
G36*
G01*
X4146638Y14332409D02*
X4422409Y14056638D01*
G75*
G02*
X4422409Y13823292I-116673J-116673D01*
G01*
X4189064Y13589947D01*
G75*
G02*
X3955718Y13589947I-116673J116673D01*
G01*
X3679947Y13865718D01*
G75*
G02*
X3679947Y14099064I116673J116673D01*
G01*
X3913292Y14332409D01*
G75*
G02*
X4146638Y14332409I116673J-116673D01*
G01*
G37*
G36*
G01*
X4825460Y15011231D02*
X5101231Y14735460D01*
G75*
G02*
X5101231Y14502114I-116673J-116673D01*
G01*
X4867886Y14268769D01*
G75*
G02*
X4634540Y14268769I-116673J116673D01*
G01*
X4358769Y14544540D01*
G75*
G02*
X4358769Y14777886I116673J116673D01*
G01*
X4592114Y15011231D01*
G75*
G02*
X4825460Y15011231I116673J-116673D01*
G01*
G37*
G36*
G01*
X4059601Y15296378D02*
X4236378Y15119601D01*
G75*
G02*
X4236378Y14942825I-88388J-88388D01*
G01*
X4017175Y14723622D01*
G75*
G02*
X3840399Y14723622I-88388J88388D01*
G01*
X3663622Y14900399D01*
G75*
G02*
X3663622Y15077175I88388J88388D01*
G01*
X3882825Y15296378D01*
G75*
G02*
X4059601Y15296378I88388J-88388D01*
G01*
G37*
G36*
G01*
X3607053Y14843830D02*
X3783830Y14667053D01*
G75*
G02*
X3783830Y14490277I-88388J-88388D01*
G01*
X3564627Y14271074D01*
G75*
G02*
X3387851Y14271074I-88388J88388D01*
G01*
X3211074Y14447851D01*
G75*
G02*
X3211074Y14624627I88388J88388D01*
G01*
X3430277Y14843830D01*
G75*
G02*
X3607053Y14843830I88388J-88388D01*
G01*
G37*
G36*
G01*
X14510000Y19155000D02*
X14510000Y19405000D01*
G75*
G02*
X14635000Y19530000I125000J0D01*
G01*
X14945000Y19530000D01*
G75*
G02*
X15070000Y19405000I0J-125000D01*
G01*
X15070000Y19155000D01*
G75*
G02*
X14945000Y19030000I-125000J0D01*
G01*
X14635000Y19030000D01*
G75*
G02*
X14510000Y19155000I0J125000D01*
G01*
G37*
G36*
G01*
X13870000Y19155000D02*
X13870000Y19405000D01*
G75*
G02*
X13995000Y19530000I125000J0D01*
G01*
X14305000Y19530000D01*
G75*
G02*
X14430000Y19405000I0J-125000D01*
G01*
X14430000Y19155000D01*
G75*
G02*
X14305000Y19030000I-125000J0D01*
G01*
X13995000Y19030000D01*
G75*
G02*
X13870000Y19155000I0J125000D01*
G01*
G37*
G36*
G01*
X14510000Y19855000D02*
X14510000Y20105000D01*
G75*
G02*
X14635000Y20230000I125000J0D01*
G01*
X14945000Y20230000D01*
G75*
G02*
X15070000Y20105000I0J-125000D01*
G01*
X15070000Y19855000D01*
G75*
G02*
X14945000Y19730000I-125000J0D01*
G01*
X14635000Y19730000D01*
G75*
G02*
X14510000Y19855000I0J125000D01*
G01*
G37*
G36*
G01*
X13870000Y19855000D02*
X13870000Y20105000D01*
G75*
G02*
X13995000Y20230000I125000J0D01*
G01*
X14305000Y20230000D01*
G75*
G02*
X14430000Y20105000I0J-125000D01*
G01*
X14430000Y19855000D01*
G75*
G02*
X14305000Y19730000I-125000J0D01*
G01*
X13995000Y19730000D01*
G75*
G02*
X13870000Y19855000I0J125000D01*
G01*
G37*
G36*
G01*
X14510000Y20555000D02*
X14510000Y20805000D01*
G75*
G02*
X14635000Y20930000I125000J0D01*
G01*
X14945000Y20930000D01*
G75*
G02*
X15070000Y20805000I0J-125000D01*
G01*
X15070000Y20555000D01*
G75*
G02*
X14945000Y20430000I-125000J0D01*
G01*
X14635000Y20430000D01*
G75*
G02*
X14510000Y20555000I0J125000D01*
G01*
G37*
G36*
G01*
X13870000Y20555000D02*
X13870000Y20805000D01*
G75*
G02*
X13995000Y20930000I125000J0D01*
G01*
X14305000Y20930000D01*
G75*
G02*
X14430000Y20805000I0J-125000D01*
G01*
X14430000Y20555000D01*
G75*
G02*
X14305000Y20430000I-125000J0D01*
G01*
X13995000Y20430000D01*
G75*
G02*
X13870000Y20555000I0J125000D01*
G01*
G37*
G36*
G01*
X13780000Y25075000D02*
X13780000Y25325000D01*
G75*
G02*
X13905000Y25450000I125000J0D01*
G01*
X14215000Y25450000D01*
G75*
G02*
X14340000Y25325000I0J-125000D01*
G01*
X14340000Y25075000D01*
G75*
G02*
X14215000Y24950000I-125000J0D01*
G01*
X13905000Y24950000D01*
G75*
G02*
X13780000Y25075000I0J125000D01*
G01*
G37*
G36*
G01*
X14420000Y25075000D02*
X14420000Y25325000D01*
G75*
G02*
X14545000Y25450000I125000J0D01*
G01*
X14855000Y25450000D01*
G75*
G02*
X14980000Y25325000I0J-125000D01*
G01*
X14980000Y25075000D01*
G75*
G02*
X14855000Y24950000I-125000J0D01*
G01*
X14545000Y24950000D01*
G75*
G02*
X14420000Y25075000I0J125000D01*
G01*
G37*
G36*
G01*
X14980000Y26725000D02*
X14980000Y26475000D01*
G75*
G02*
X14855000Y26350000I-125000J0D01*
G01*
X14545000Y26350000D01*
G75*
G02*
X14420000Y26475000I0J125000D01*
G01*
X14420000Y26725000D01*
G75*
G02*
X14545000Y26850000I125000J0D01*
G01*
X14855000Y26850000D01*
G75*
G02*
X14980000Y26725000I0J-125000D01*
G01*
G37*
G36*
G01*
X14340000Y26725000D02*
X14340000Y26475000D01*
G75*
G02*
X14215000Y26350000I-125000J0D01*
G01*
X13905000Y26350000D01*
G75*
G02*
X13780000Y26475000I0J125000D01*
G01*
X13780000Y26725000D01*
G75*
G02*
X13905000Y26850000I125000J0D01*
G01*
X14215000Y26850000D01*
G75*
G02*
X14340000Y26725000I0J-125000D01*
G01*
G37*
G36*
G01*
X14980000Y27425000D02*
X14980000Y27175000D01*
G75*
G02*
X14855000Y27050000I-125000J0D01*
G01*
X14545000Y27050000D01*
G75*
G02*
X14420000Y27175000I0J125000D01*
G01*
X14420000Y27425000D01*
G75*
G02*
X14545000Y27550000I125000J0D01*
G01*
X14855000Y27550000D01*
G75*
G02*
X14980000Y27425000I0J-125000D01*
G01*
G37*
G36*
G01*
X14340000Y27425000D02*
X14340000Y27175000D01*
G75*
G02*
X14215000Y27050000I-125000J0D01*
G01*
X13905000Y27050000D01*
G75*
G02*
X13780000Y27175000I0J125000D01*
G01*
X13780000Y27425000D01*
G75*
G02*
X13905000Y27550000I125000J0D01*
G01*
X14215000Y27550000D01*
G75*
G02*
X14340000Y27425000I0J-125000D01*
G01*
G37*
G36*
G01*
X14510000Y21255000D02*
X14510000Y21505000D01*
G75*
G02*
X14635000Y21630000I125000J0D01*
G01*
X14945000Y21630000D01*
G75*
G02*
X15070000Y21505000I0J-125000D01*
G01*
X15070000Y21255000D01*
G75*
G02*
X14945000Y21130000I-125000J0D01*
G01*
X14635000Y21130000D01*
G75*
G02*
X14510000Y21255000I0J125000D01*
G01*
G37*
G36*
G01*
X13870000Y21255000D02*
X13870000Y21505000D01*
G75*
G02*
X13995000Y21630000I125000J0D01*
G01*
X14305000Y21630000D01*
G75*
G02*
X14430000Y21505000I0J-125000D01*
G01*
X14430000Y21255000D01*
G75*
G02*
X14305000Y21130000I-125000J0D01*
G01*
X13995000Y21130000D01*
G75*
G02*
X13870000Y21255000I0J125000D01*
G01*
G37*
G36*
G01*
X3715875Y18612652D02*
X3892652Y18435875D01*
G75*
G02*
X3892652Y18259099I-88388J-88388D01*
G01*
X3673449Y18039896D01*
G75*
G02*
X3496673Y18039896I-88388J88388D01*
G01*
X3319896Y18216673D01*
G75*
G02*
X3319896Y18393449I88388J88388D01*
G01*
X3539099Y18612652D01*
G75*
G02*
X3715875Y18612652I88388J-88388D01*
G01*
G37*
G36*
G01*
X3263327Y18160104D02*
X3440104Y17983327D01*
G75*
G02*
X3440104Y17806551I-88388J-88388D01*
G01*
X3220901Y17587348D01*
G75*
G02*
X3044125Y17587348I-88388J88388D01*
G01*
X2867348Y17764125D01*
G75*
G02*
X2867348Y17940901I88388J88388D01*
G01*
X3086551Y18160104D01*
G75*
G02*
X3263327Y18160104I88388J-88388D01*
G01*
G37*
M02*
