G04 #@! TF.GenerationSoftware,KiCad,Pcbnew,5.1.9-1.fc33*
G04 #@! TF.CreationDate,2021-01-31T22:08:49+01:00*
G04 #@! TF.ProjectId,reDIP-SID,72654449-502d-4534-9944-2e6b69636164,0.1*
G04 #@! TF.SameCoordinates,PX5e28010PY8011a50*
G04 #@! TF.FileFunction,Paste,Bot*
G04 #@! TF.FilePolarity,Positive*
%FSLAX46Y46*%
G04 Gerber Fmt 4.6, Leading zero omitted, Abs format (unit mm)*
G04 Created by KiCad (PCBNEW 5.1.9-1.fc33) date 2021-01-31 22:08:49*
%MOMM*%
%LPD*%
G01*
G04 APERTURE LIST*
G04 APERTURE END LIST*
G36*
G01*
X3590000Y13090000D02*
X3590000Y11790000D01*
G75*
G02*
X3540000Y11740000I-50000J0D01*
G01*
X3440000Y11740000D01*
G75*
G02*
X3390000Y11790000I0J50000D01*
G01*
X3390000Y13090000D01*
G75*
G02*
X3440000Y13140000I50000J0D01*
G01*
X3540000Y13140000D01*
G75*
G02*
X3590000Y13090000I0J-50000D01*
G01*
G37*
G36*
G01*
X3590000Y18990000D02*
X3590000Y17690000D01*
G75*
G02*
X3540000Y17640000I-50000J0D01*
G01*
X3440000Y17640000D01*
G75*
G02*
X3390000Y17690000I0J50000D01*
G01*
X3390000Y18990000D01*
G75*
G02*
X3440000Y19040000I50000J0D01*
G01*
X3540000Y19040000D01*
G75*
G02*
X3590000Y18990000I0J-50000D01*
G01*
G37*
G36*
G01*
X3990000Y13090000D02*
X3990000Y11790000D01*
G75*
G02*
X3940000Y11740000I-50000J0D01*
G01*
X3840000Y11740000D01*
G75*
G02*
X3790000Y11790000I0J50000D01*
G01*
X3790000Y13090000D01*
G75*
G02*
X3840000Y13140000I50000J0D01*
G01*
X3940000Y13140000D01*
G75*
G02*
X3990000Y13090000I0J-50000D01*
G01*
G37*
G36*
G01*
X3990000Y18990000D02*
X3990000Y17690000D01*
G75*
G02*
X3940000Y17640000I-50000J0D01*
G01*
X3840000Y17640000D01*
G75*
G02*
X3790000Y17690000I0J50000D01*
G01*
X3790000Y18990000D01*
G75*
G02*
X3840000Y19040000I50000J0D01*
G01*
X3940000Y19040000D01*
G75*
G02*
X3990000Y18990000I0J-50000D01*
G01*
G37*
G36*
G01*
X4390000Y13090000D02*
X4390000Y11790000D01*
G75*
G02*
X4340000Y11740000I-50000J0D01*
G01*
X4240000Y11740000D01*
G75*
G02*
X4190000Y11790000I0J50000D01*
G01*
X4190000Y13090000D01*
G75*
G02*
X4240000Y13140000I50000J0D01*
G01*
X4340000Y13140000D01*
G75*
G02*
X4390000Y13090000I0J-50000D01*
G01*
G37*
G36*
G01*
X4390000Y18990000D02*
X4390000Y17690000D01*
G75*
G02*
X4340000Y17640000I-50000J0D01*
G01*
X4240000Y17640000D01*
G75*
G02*
X4190000Y17690000I0J50000D01*
G01*
X4190000Y18990000D01*
G75*
G02*
X4240000Y19040000I50000J0D01*
G01*
X4340000Y19040000D01*
G75*
G02*
X4390000Y18990000I0J-50000D01*
G01*
G37*
G36*
G01*
X4790000Y13090000D02*
X4790000Y11790000D01*
G75*
G02*
X4740000Y11740000I-50000J0D01*
G01*
X4640000Y11740000D01*
G75*
G02*
X4590000Y11790000I0J50000D01*
G01*
X4590000Y13090000D01*
G75*
G02*
X4640000Y13140000I50000J0D01*
G01*
X4740000Y13140000D01*
G75*
G02*
X4790000Y13090000I0J-50000D01*
G01*
G37*
G36*
G01*
X4790000Y18990000D02*
X4790000Y17690000D01*
G75*
G02*
X4740000Y17640000I-50000J0D01*
G01*
X4640000Y17640000D01*
G75*
G02*
X4590000Y17690000I0J50000D01*
G01*
X4590000Y18990000D01*
G75*
G02*
X4640000Y19040000I50000J0D01*
G01*
X4740000Y19040000D01*
G75*
G02*
X4790000Y18990000I0J-50000D01*
G01*
G37*
G36*
G01*
X5190000Y13090000D02*
X5190000Y11790000D01*
G75*
G02*
X5140000Y11740000I-50000J0D01*
G01*
X5040000Y11740000D01*
G75*
G02*
X4990000Y11790000I0J50000D01*
G01*
X4990000Y13090000D01*
G75*
G02*
X5040000Y13140000I50000J0D01*
G01*
X5140000Y13140000D01*
G75*
G02*
X5190000Y13090000I0J-50000D01*
G01*
G37*
G36*
G01*
X5190000Y18990000D02*
X5190000Y17690000D01*
G75*
G02*
X5140000Y17640000I-50000J0D01*
G01*
X5040000Y17640000D01*
G75*
G02*
X4990000Y17690000I0J50000D01*
G01*
X4990000Y18990000D01*
G75*
G02*
X5040000Y19040000I50000J0D01*
G01*
X5140000Y19040000D01*
G75*
G02*
X5190000Y18990000I0J-50000D01*
G01*
G37*
G36*
G01*
X5590000Y13090000D02*
X5590000Y11790000D01*
G75*
G02*
X5540000Y11740000I-50000J0D01*
G01*
X5440000Y11740000D01*
G75*
G02*
X5390000Y11790000I0J50000D01*
G01*
X5390000Y13090000D01*
G75*
G02*
X5440000Y13140000I50000J0D01*
G01*
X5540000Y13140000D01*
G75*
G02*
X5590000Y13090000I0J-50000D01*
G01*
G37*
G36*
G01*
X5590000Y18990000D02*
X5590000Y17690000D01*
G75*
G02*
X5540000Y17640000I-50000J0D01*
G01*
X5440000Y17640000D01*
G75*
G02*
X5390000Y17690000I0J50000D01*
G01*
X5390000Y18990000D01*
G75*
G02*
X5440000Y19040000I50000J0D01*
G01*
X5540000Y19040000D01*
G75*
G02*
X5590000Y18990000I0J-50000D01*
G01*
G37*
G36*
G01*
X5990000Y13090000D02*
X5990000Y11790000D01*
G75*
G02*
X5940000Y11740000I-50000J0D01*
G01*
X5840000Y11740000D01*
G75*
G02*
X5790000Y11790000I0J50000D01*
G01*
X5790000Y13090000D01*
G75*
G02*
X5840000Y13140000I50000J0D01*
G01*
X5940000Y13140000D01*
G75*
G02*
X5990000Y13090000I0J-50000D01*
G01*
G37*
G36*
G01*
X5990000Y18990000D02*
X5990000Y17690000D01*
G75*
G02*
X5940000Y17640000I-50000J0D01*
G01*
X5840000Y17640000D01*
G75*
G02*
X5790000Y17690000I0J50000D01*
G01*
X5790000Y18990000D01*
G75*
G02*
X5840000Y19040000I50000J0D01*
G01*
X5940000Y19040000D01*
G75*
G02*
X5990000Y18990000I0J-50000D01*
G01*
G37*
G36*
G01*
X6390000Y13090000D02*
X6390000Y11790000D01*
G75*
G02*
X6340000Y11740000I-50000J0D01*
G01*
X6240000Y11740000D01*
G75*
G02*
X6190000Y11790000I0J50000D01*
G01*
X6190000Y13090000D01*
G75*
G02*
X6240000Y13140000I50000J0D01*
G01*
X6340000Y13140000D01*
G75*
G02*
X6390000Y13090000I0J-50000D01*
G01*
G37*
G36*
G01*
X6390000Y18990000D02*
X6390000Y17690000D01*
G75*
G02*
X6340000Y17640000I-50000J0D01*
G01*
X6240000Y17640000D01*
G75*
G02*
X6190000Y17690000I0J50000D01*
G01*
X6190000Y18990000D01*
G75*
G02*
X6240000Y19040000I50000J0D01*
G01*
X6340000Y19040000D01*
G75*
G02*
X6390000Y18990000I0J-50000D01*
G01*
G37*
G36*
G01*
X6790000Y13090000D02*
X6790000Y11790000D01*
G75*
G02*
X6740000Y11740000I-50000J0D01*
G01*
X6640000Y11740000D01*
G75*
G02*
X6590000Y11790000I0J50000D01*
G01*
X6590000Y13090000D01*
G75*
G02*
X6640000Y13140000I50000J0D01*
G01*
X6740000Y13140000D01*
G75*
G02*
X6790000Y13090000I0J-50000D01*
G01*
G37*
G36*
G01*
X6790000Y18990000D02*
X6790000Y17690000D01*
G75*
G02*
X6740000Y17640000I-50000J0D01*
G01*
X6640000Y17640000D01*
G75*
G02*
X6590000Y17690000I0J50000D01*
G01*
X6590000Y18990000D01*
G75*
G02*
X6640000Y19040000I50000J0D01*
G01*
X6740000Y19040000D01*
G75*
G02*
X6790000Y18990000I0J-50000D01*
G01*
G37*
G36*
G01*
X7190000Y13090000D02*
X7190000Y11790000D01*
G75*
G02*
X7140000Y11740000I-50000J0D01*
G01*
X7040000Y11740000D01*
G75*
G02*
X6990000Y11790000I0J50000D01*
G01*
X6990000Y13090000D01*
G75*
G02*
X7040000Y13140000I50000J0D01*
G01*
X7140000Y13140000D01*
G75*
G02*
X7190000Y13090000I0J-50000D01*
G01*
G37*
G36*
G01*
X7190000Y18990000D02*
X7190000Y17690000D01*
G75*
G02*
X7140000Y17640000I-50000J0D01*
G01*
X7040000Y17640000D01*
G75*
G02*
X6990000Y17690000I0J50000D01*
G01*
X6990000Y18990000D01*
G75*
G02*
X7040000Y19040000I50000J0D01*
G01*
X7140000Y19040000D01*
G75*
G02*
X7190000Y18990000I0J-50000D01*
G01*
G37*
G36*
G01*
X7590000Y13090000D02*
X7590000Y11790000D01*
G75*
G02*
X7540000Y11740000I-50000J0D01*
G01*
X7440000Y11740000D01*
G75*
G02*
X7390000Y11790000I0J50000D01*
G01*
X7390000Y13090000D01*
G75*
G02*
X7440000Y13140000I50000J0D01*
G01*
X7540000Y13140000D01*
G75*
G02*
X7590000Y13090000I0J-50000D01*
G01*
G37*
G36*
G01*
X7590000Y18990000D02*
X7590000Y17690000D01*
G75*
G02*
X7540000Y17640000I-50000J0D01*
G01*
X7440000Y17640000D01*
G75*
G02*
X7390000Y17690000I0J50000D01*
G01*
X7390000Y18990000D01*
G75*
G02*
X7440000Y19040000I50000J0D01*
G01*
X7540000Y19040000D01*
G75*
G02*
X7590000Y18990000I0J-50000D01*
G01*
G37*
G36*
G01*
X7990000Y13090000D02*
X7990000Y11790000D01*
G75*
G02*
X7940000Y11740000I-50000J0D01*
G01*
X7840000Y11740000D01*
G75*
G02*
X7790000Y11790000I0J50000D01*
G01*
X7790000Y13090000D01*
G75*
G02*
X7840000Y13140000I50000J0D01*
G01*
X7940000Y13140000D01*
G75*
G02*
X7990000Y13090000I0J-50000D01*
G01*
G37*
G36*
G01*
X7990000Y18990000D02*
X7990000Y17690000D01*
G75*
G02*
X7940000Y17640000I-50000J0D01*
G01*
X7840000Y17640000D01*
G75*
G02*
X7790000Y17690000I0J50000D01*
G01*
X7790000Y18990000D01*
G75*
G02*
X7840000Y19040000I50000J0D01*
G01*
X7940000Y19040000D01*
G75*
G02*
X7990000Y18990000I0J-50000D01*
G01*
G37*
G36*
G01*
X8390000Y13090000D02*
X8390000Y11790000D01*
G75*
G02*
X8340000Y11740000I-50000J0D01*
G01*
X8240000Y11740000D01*
G75*
G02*
X8190000Y11790000I0J50000D01*
G01*
X8190000Y13090000D01*
G75*
G02*
X8240000Y13140000I50000J0D01*
G01*
X8340000Y13140000D01*
G75*
G02*
X8390000Y13090000I0J-50000D01*
G01*
G37*
G36*
G01*
X8390000Y18990000D02*
X8390000Y17690000D01*
G75*
G02*
X8340000Y17640000I-50000J0D01*
G01*
X8240000Y17640000D01*
G75*
G02*
X8190000Y17690000I0J50000D01*
G01*
X8190000Y18990000D01*
G75*
G02*
X8240000Y19040000I50000J0D01*
G01*
X8340000Y19040000D01*
G75*
G02*
X8390000Y18990000I0J-50000D01*
G01*
G37*
G36*
G01*
X8790000Y13090000D02*
X8790000Y11790000D01*
G75*
G02*
X8740000Y11740000I-50000J0D01*
G01*
X8640000Y11740000D01*
G75*
G02*
X8590000Y11790000I0J50000D01*
G01*
X8590000Y13090000D01*
G75*
G02*
X8640000Y13140000I50000J0D01*
G01*
X8740000Y13140000D01*
G75*
G02*
X8790000Y13090000I0J-50000D01*
G01*
G37*
G36*
G01*
X8790000Y18990000D02*
X8790000Y17690000D01*
G75*
G02*
X8740000Y17640000I-50000J0D01*
G01*
X8640000Y17640000D01*
G75*
G02*
X8590000Y17690000I0J50000D01*
G01*
X8590000Y18990000D01*
G75*
G02*
X8640000Y19040000I50000J0D01*
G01*
X8740000Y19040000D01*
G75*
G02*
X8790000Y18990000I0J-50000D01*
G01*
G37*
G36*
G01*
X9190000Y13090000D02*
X9190000Y11790000D01*
G75*
G02*
X9140000Y11740000I-50000J0D01*
G01*
X9040000Y11740000D01*
G75*
G02*
X8990000Y11790000I0J50000D01*
G01*
X8990000Y13090000D01*
G75*
G02*
X9040000Y13140000I50000J0D01*
G01*
X9140000Y13140000D01*
G75*
G02*
X9190000Y13090000I0J-50000D01*
G01*
G37*
G36*
G01*
X9190000Y18990000D02*
X9190000Y17690000D01*
G75*
G02*
X9140000Y17640000I-50000J0D01*
G01*
X9040000Y17640000D01*
G75*
G02*
X8990000Y17690000I0J50000D01*
G01*
X8990000Y18990000D01*
G75*
G02*
X9040000Y19040000I50000J0D01*
G01*
X9140000Y19040000D01*
G75*
G02*
X9190000Y18990000I0J-50000D01*
G01*
G37*
G36*
G01*
X9590000Y13090000D02*
X9590000Y11790000D01*
G75*
G02*
X9540000Y11740000I-50000J0D01*
G01*
X9440000Y11740000D01*
G75*
G02*
X9390000Y11790000I0J50000D01*
G01*
X9390000Y13090000D01*
G75*
G02*
X9440000Y13140000I50000J0D01*
G01*
X9540000Y13140000D01*
G75*
G02*
X9590000Y13090000I0J-50000D01*
G01*
G37*
G36*
G01*
X9590000Y18990000D02*
X9590000Y17690000D01*
G75*
G02*
X9540000Y17640000I-50000J0D01*
G01*
X9440000Y17640000D01*
G75*
G02*
X9390000Y17690000I0J50000D01*
G01*
X9390000Y18990000D01*
G75*
G02*
X9440000Y19040000I50000J0D01*
G01*
X9540000Y19040000D01*
G75*
G02*
X9590000Y18990000I0J-50000D01*
G01*
G37*
G36*
G01*
X9990000Y13090000D02*
X9990000Y11790000D01*
G75*
G02*
X9940000Y11740000I-50000J0D01*
G01*
X9840000Y11740000D01*
G75*
G02*
X9790000Y11790000I0J50000D01*
G01*
X9790000Y13090000D01*
G75*
G02*
X9840000Y13140000I50000J0D01*
G01*
X9940000Y13140000D01*
G75*
G02*
X9990000Y13090000I0J-50000D01*
G01*
G37*
G36*
G01*
X9990000Y18990000D02*
X9990000Y17690000D01*
G75*
G02*
X9940000Y17640000I-50000J0D01*
G01*
X9840000Y17640000D01*
G75*
G02*
X9790000Y17690000I0J50000D01*
G01*
X9790000Y18990000D01*
G75*
G02*
X9840000Y19040000I50000J0D01*
G01*
X9940000Y19040000D01*
G75*
G02*
X9990000Y18990000I0J-50000D01*
G01*
G37*
G36*
G01*
X10390000Y13090000D02*
X10390000Y11790000D01*
G75*
G02*
X10340000Y11740000I-50000J0D01*
G01*
X10240000Y11740000D01*
G75*
G02*
X10190000Y11790000I0J50000D01*
G01*
X10190000Y13090000D01*
G75*
G02*
X10240000Y13140000I50000J0D01*
G01*
X10340000Y13140000D01*
G75*
G02*
X10390000Y13090000I0J-50000D01*
G01*
G37*
G36*
G01*
X10390000Y18990000D02*
X10390000Y17690000D01*
G75*
G02*
X10340000Y17640000I-50000J0D01*
G01*
X10240000Y17640000D01*
G75*
G02*
X10190000Y17690000I0J50000D01*
G01*
X10190000Y18990000D01*
G75*
G02*
X10240000Y19040000I50000J0D01*
G01*
X10340000Y19040000D01*
G75*
G02*
X10390000Y18990000I0J-50000D01*
G01*
G37*
G36*
G01*
X10790000Y13090000D02*
X10790000Y11790000D01*
G75*
G02*
X10740000Y11740000I-50000J0D01*
G01*
X10640000Y11740000D01*
G75*
G02*
X10590000Y11790000I0J50000D01*
G01*
X10590000Y13090000D01*
G75*
G02*
X10640000Y13140000I50000J0D01*
G01*
X10740000Y13140000D01*
G75*
G02*
X10790000Y13090000I0J-50000D01*
G01*
G37*
G36*
G01*
X10790000Y18990000D02*
X10790000Y17690000D01*
G75*
G02*
X10740000Y17640000I-50000J0D01*
G01*
X10640000Y17640000D01*
G75*
G02*
X10590000Y17690000I0J50000D01*
G01*
X10590000Y18990000D01*
G75*
G02*
X10640000Y19040000I50000J0D01*
G01*
X10740000Y19040000D01*
G75*
G02*
X10790000Y18990000I0J-50000D01*
G01*
G37*
G36*
G01*
X11190000Y13090000D02*
X11190000Y11790000D01*
G75*
G02*
X11140000Y11740000I-50000J0D01*
G01*
X11040000Y11740000D01*
G75*
G02*
X10990000Y11790000I0J50000D01*
G01*
X10990000Y13090000D01*
G75*
G02*
X11040000Y13140000I50000J0D01*
G01*
X11140000Y13140000D01*
G75*
G02*
X11190000Y13090000I0J-50000D01*
G01*
G37*
G36*
G01*
X11190000Y18990000D02*
X11190000Y17690000D01*
G75*
G02*
X11140000Y17640000I-50000J0D01*
G01*
X11040000Y17640000D01*
G75*
G02*
X10990000Y17690000I0J50000D01*
G01*
X10990000Y18990000D01*
G75*
G02*
X11040000Y19040000I50000J0D01*
G01*
X11140000Y19040000D01*
G75*
G02*
X11190000Y18990000I0J-50000D01*
G01*
G37*
G36*
G01*
X11590000Y13090000D02*
X11590000Y11790000D01*
G75*
G02*
X11540000Y11740000I-50000J0D01*
G01*
X11440000Y11740000D01*
G75*
G02*
X11390000Y11790000I0J50000D01*
G01*
X11390000Y13090000D01*
G75*
G02*
X11440000Y13140000I50000J0D01*
G01*
X11540000Y13140000D01*
G75*
G02*
X11590000Y13090000I0J-50000D01*
G01*
G37*
G36*
G01*
X11590000Y18990000D02*
X11590000Y17690000D01*
G75*
G02*
X11540000Y17640000I-50000J0D01*
G01*
X11440000Y17640000D01*
G75*
G02*
X11390000Y17690000I0J50000D01*
G01*
X11390000Y18990000D01*
G75*
G02*
X11440000Y19040000I50000J0D01*
G01*
X11540000Y19040000D01*
G75*
G02*
X11590000Y18990000I0J-50000D01*
G01*
G37*
G36*
G01*
X11990000Y13090000D02*
X11990000Y11790000D01*
G75*
G02*
X11940000Y11740000I-50000J0D01*
G01*
X11840000Y11740000D01*
G75*
G02*
X11790000Y11790000I0J50000D01*
G01*
X11790000Y13090000D01*
G75*
G02*
X11840000Y13140000I50000J0D01*
G01*
X11940000Y13140000D01*
G75*
G02*
X11990000Y13090000I0J-50000D01*
G01*
G37*
G36*
G01*
X11990000Y18990000D02*
X11990000Y17690000D01*
G75*
G02*
X11940000Y17640000I-50000J0D01*
G01*
X11840000Y17640000D01*
G75*
G02*
X11790000Y17690000I0J50000D01*
G01*
X11790000Y18990000D01*
G75*
G02*
X11840000Y19040000I50000J0D01*
G01*
X11940000Y19040000D01*
G75*
G02*
X11990000Y18990000I0J-50000D01*
G01*
G37*
G36*
G01*
X12390000Y13090000D02*
X12390000Y11790000D01*
G75*
G02*
X12340000Y11740000I-50000J0D01*
G01*
X12240000Y11740000D01*
G75*
G02*
X12190000Y11790000I0J50000D01*
G01*
X12190000Y13090000D01*
G75*
G02*
X12240000Y13140000I50000J0D01*
G01*
X12340000Y13140000D01*
G75*
G02*
X12390000Y13090000I0J-50000D01*
G01*
G37*
G36*
G01*
X12390000Y18990000D02*
X12390000Y17690000D01*
G75*
G02*
X12340000Y17640000I-50000J0D01*
G01*
X12240000Y17640000D01*
G75*
G02*
X12190000Y17690000I0J50000D01*
G01*
X12190000Y18990000D01*
G75*
G02*
X12240000Y19040000I50000J0D01*
G01*
X12340000Y19040000D01*
G75*
G02*
X12390000Y18990000I0J-50000D01*
G01*
G37*
G36*
G01*
X12790000Y13090000D02*
X12790000Y11790000D01*
G75*
G02*
X12740000Y11740000I-50000J0D01*
G01*
X12640000Y11740000D01*
G75*
G02*
X12590000Y11790000I0J50000D01*
G01*
X12590000Y13090000D01*
G75*
G02*
X12640000Y13140000I50000J0D01*
G01*
X12740000Y13140000D01*
G75*
G02*
X12790000Y13090000I0J-50000D01*
G01*
G37*
G36*
G01*
X12790000Y18990000D02*
X12790000Y17690000D01*
G75*
G02*
X12740000Y17640000I-50000J0D01*
G01*
X12640000Y17640000D01*
G75*
G02*
X12590000Y17690000I0J50000D01*
G01*
X12590000Y18990000D01*
G75*
G02*
X12640000Y19040000I50000J0D01*
G01*
X12740000Y19040000D01*
G75*
G02*
X12790000Y18990000I0J-50000D01*
G01*
G37*
G36*
G01*
X13190000Y13090000D02*
X13190000Y11790000D01*
G75*
G02*
X13140000Y11740000I-50000J0D01*
G01*
X13040000Y11740000D01*
G75*
G02*
X12990000Y11790000I0J50000D01*
G01*
X12990000Y13090000D01*
G75*
G02*
X13040000Y13140000I50000J0D01*
G01*
X13140000Y13140000D01*
G75*
G02*
X13190000Y13090000I0J-50000D01*
G01*
G37*
G36*
G01*
X13190000Y18990000D02*
X13190000Y17690000D01*
G75*
G02*
X13140000Y17640000I-50000J0D01*
G01*
X13040000Y17640000D01*
G75*
G02*
X12990000Y17690000I0J50000D01*
G01*
X12990000Y18990000D01*
G75*
G02*
X13040000Y19040000I50000J0D01*
G01*
X13140000Y19040000D01*
G75*
G02*
X13190000Y18990000I0J-50000D01*
G01*
G37*
G36*
G01*
X13590000Y13090000D02*
X13590000Y11790000D01*
G75*
G02*
X13540000Y11740000I-50000J0D01*
G01*
X13440000Y11740000D01*
G75*
G02*
X13390000Y11790000I0J50000D01*
G01*
X13390000Y13090000D01*
G75*
G02*
X13440000Y13140000I50000J0D01*
G01*
X13540000Y13140000D01*
G75*
G02*
X13590000Y13090000I0J-50000D01*
G01*
G37*
G36*
G01*
X13590000Y18990000D02*
X13590000Y17690000D01*
G75*
G02*
X13540000Y17640000I-50000J0D01*
G01*
X13440000Y17640000D01*
G75*
G02*
X13390000Y17690000I0J50000D01*
G01*
X13390000Y18990000D01*
G75*
G02*
X13440000Y19040000I50000J0D01*
G01*
X13540000Y19040000D01*
G75*
G02*
X13590000Y18990000I0J-50000D01*
G01*
G37*
G36*
G01*
X13990000Y13090000D02*
X13990000Y11790000D01*
G75*
G02*
X13940000Y11740000I-50000J0D01*
G01*
X13840000Y11740000D01*
G75*
G02*
X13790000Y11790000I0J50000D01*
G01*
X13790000Y13090000D01*
G75*
G02*
X13840000Y13140000I50000J0D01*
G01*
X13940000Y13140000D01*
G75*
G02*
X13990000Y13090000I0J-50000D01*
G01*
G37*
G36*
G01*
X13990000Y18990000D02*
X13990000Y17690000D01*
G75*
G02*
X13940000Y17640000I-50000J0D01*
G01*
X13840000Y17640000D01*
G75*
G02*
X13790000Y17690000I0J50000D01*
G01*
X13790000Y18990000D01*
G75*
G02*
X13840000Y19040000I50000J0D01*
G01*
X13940000Y19040000D01*
G75*
G02*
X13990000Y18990000I0J-50000D01*
G01*
G37*
G36*
G01*
X14390000Y13090000D02*
X14390000Y11790000D01*
G75*
G02*
X14340000Y11740000I-50000J0D01*
G01*
X14240000Y11740000D01*
G75*
G02*
X14190000Y11790000I0J50000D01*
G01*
X14190000Y13090000D01*
G75*
G02*
X14240000Y13140000I50000J0D01*
G01*
X14340000Y13140000D01*
G75*
G02*
X14390000Y13090000I0J-50000D01*
G01*
G37*
G36*
G01*
X14390000Y18990000D02*
X14390000Y17690000D01*
G75*
G02*
X14340000Y17640000I-50000J0D01*
G01*
X14240000Y17640000D01*
G75*
G02*
X14190000Y17690000I0J50000D01*
G01*
X14190000Y18990000D01*
G75*
G02*
X14240000Y19040000I50000J0D01*
G01*
X14340000Y19040000D01*
G75*
G02*
X14390000Y18990000I0J-50000D01*
G01*
G37*
G36*
G01*
X10690000Y6305000D02*
X10690000Y6605000D01*
G75*
G02*
X10840000Y6755000I150000J0D01*
G01*
X12190000Y6755000D01*
G75*
G02*
X12340000Y6605000I0J-150000D01*
G01*
X12340000Y6305000D01*
G75*
G02*
X12190000Y6155000I-150000J0D01*
G01*
X10840000Y6155000D01*
G75*
G02*
X10690000Y6305000I0J150000D01*
G01*
G37*
G36*
G01*
X10690000Y7575000D02*
X10690000Y7875000D01*
G75*
G02*
X10840000Y8025000I150000J0D01*
G01*
X12190000Y8025000D01*
G75*
G02*
X12340000Y7875000I0J-150000D01*
G01*
X12340000Y7575000D01*
G75*
G02*
X12190000Y7425000I-150000J0D01*
G01*
X10840000Y7425000D01*
G75*
G02*
X10690000Y7575000I0J150000D01*
G01*
G37*
G36*
G01*
X10690000Y8845000D02*
X10690000Y9145000D01*
G75*
G02*
X10840000Y9295000I150000J0D01*
G01*
X12190000Y9295000D01*
G75*
G02*
X12340000Y9145000I0J-150000D01*
G01*
X12340000Y8845000D01*
G75*
G02*
X12190000Y8695000I-150000J0D01*
G01*
X10840000Y8695000D01*
G75*
G02*
X10690000Y8845000I0J150000D01*
G01*
G37*
G36*
G01*
X10690000Y10115000D02*
X10690000Y10415000D01*
G75*
G02*
X10840000Y10565000I150000J0D01*
G01*
X12190000Y10565000D01*
G75*
G02*
X12340000Y10415000I0J-150000D01*
G01*
X12340000Y10115000D01*
G75*
G02*
X12190000Y9965000I-150000J0D01*
G01*
X10840000Y9965000D01*
G75*
G02*
X10690000Y10115000I0J150000D01*
G01*
G37*
G36*
G01*
X5440000Y10115000D02*
X5440000Y10415000D01*
G75*
G02*
X5590000Y10565000I150000J0D01*
G01*
X6940000Y10565000D01*
G75*
G02*
X7090000Y10415000I0J-150000D01*
G01*
X7090000Y10115000D01*
G75*
G02*
X6940000Y9965000I-150000J0D01*
G01*
X5590000Y9965000D01*
G75*
G02*
X5440000Y10115000I0J150000D01*
G01*
G37*
G36*
G01*
X5440000Y8845000D02*
X5440000Y9145000D01*
G75*
G02*
X5590000Y9295000I150000J0D01*
G01*
X6940000Y9295000D01*
G75*
G02*
X7090000Y9145000I0J-150000D01*
G01*
X7090000Y8845000D01*
G75*
G02*
X6940000Y8695000I-150000J0D01*
G01*
X5590000Y8695000D01*
G75*
G02*
X5440000Y8845000I0J150000D01*
G01*
G37*
G36*
G01*
X5440000Y7575000D02*
X5440000Y7875000D01*
G75*
G02*
X5590000Y8025000I150000J0D01*
G01*
X6940000Y8025000D01*
G75*
G02*
X7090000Y7875000I0J-150000D01*
G01*
X7090000Y7575000D01*
G75*
G02*
X6940000Y7425000I-150000J0D01*
G01*
X5590000Y7425000D01*
G75*
G02*
X5440000Y7575000I0J150000D01*
G01*
G37*
G36*
G01*
X5440000Y6305000D02*
X5440000Y6605000D01*
G75*
G02*
X5590000Y6755000I150000J0D01*
G01*
X6940000Y6755000D01*
G75*
G02*
X7090000Y6605000I0J-150000D01*
G01*
X7090000Y6305000D01*
G75*
G02*
X6940000Y6155000I-150000J0D01*
G01*
X5590000Y6155000D01*
G75*
G02*
X5440000Y6305000I0J150000D01*
G01*
G37*
M02*
