G04 #@! TF.GenerationSoftware,KiCad,Pcbnew,5.1.9-1.fc33*
G04 #@! TF.CreationDate,2021-01-13T22:30:59+01:00*
G04 #@! TF.ProjectId,reDIP-SID,72654449-502d-4534-9944-2e6b69636164,0.1*
G04 #@! TF.SameCoordinates,PX5e28010PY8011a50*
G04 #@! TF.FileFunction,Copper,L5,Inr*
G04 #@! TF.FilePolarity,Positive*
%FSLAX46Y46*%
G04 Gerber Fmt 4.6, Leading zero omitted, Abs format (unit mm)*
G04 Created by KiCad (PCBNEW 5.1.9-1.fc33) date 2021-01-13 22:30:59*
%MOMM*%
%LPD*%
G01*
G04 APERTURE LIST*
G04 #@! TA.AperFunction,ComponentPad*
%ADD10O,1.000000X2.100000*%
G04 #@! TD*
G04 #@! TA.AperFunction,ComponentPad*
%ADD11O,1.000000X1.600000*%
G04 #@! TD*
G04 #@! TA.AperFunction,ComponentPad*
%ADD12C,1.600000*%
G04 #@! TD*
G04 #@! TA.AperFunction,ViaPad*
%ADD13C,0.450000*%
G04 #@! TD*
G04 #@! TA.AperFunction,Conductor*
%ADD14C,0.150000*%
G04 #@! TD*
G04 #@! TA.AperFunction,Conductor*
%ADD15C,0.100000*%
G04 #@! TD*
G04 APERTURE END LIST*
D10*
X4570000Y29790000D03*
X13210000Y29790000D03*
D11*
X13210000Y33970000D03*
X4570000Y33970000D03*
D12*
X16510000Y1270000D03*
X16510000Y3810000D03*
X16510000Y6350000D03*
X16510000Y8890000D03*
X16510000Y11430000D03*
X16510000Y13970000D03*
X16510000Y16510000D03*
X16510000Y19050000D03*
X16510000Y21590000D03*
X16510000Y24130000D03*
X3810000Y1270000D03*
X3810000Y3810000D03*
X6350000Y1270000D03*
X6350000Y3810000D03*
X8890000Y1270000D03*
X8890000Y3810000D03*
X11430000Y1270000D03*
X11430000Y3810000D03*
X13970000Y1270000D03*
X13970000Y3810000D03*
X1270000Y1270000D03*
X1270000Y3810000D03*
X1270000Y6350000D03*
X1270000Y8890000D03*
X1270000Y11430000D03*
X1270000Y13970000D03*
X1270000Y16510000D03*
X1270000Y19050000D03*
X1270000Y21590000D03*
X1270000Y24130000D03*
X16510000Y26670000D03*
X16510000Y29210000D03*
X16510000Y31750000D03*
X16510000Y34290000D03*
X1270000Y26670000D03*
X1270000Y29210000D03*
X1270000Y31750000D03*
X1270000Y34290000D03*
D13*
X8890000Y7360000D03*
X7200000Y26120000D03*
X8890000Y9360000D03*
X12700000Y23670000D03*
X11850000Y22830000D03*
X12700000Y22830000D03*
X11850000Y23680000D03*
X9890000Y16300000D03*
X10900000Y17180000D03*
X8890000Y15290000D03*
X7900000Y16300000D03*
X7000000Y17180000D03*
X6260000Y5180000D03*
X15740000Y25400000D03*
X8740000Y19450000D03*
X3380000Y15240000D03*
X13550000Y15100000D03*
X15740000Y20320000D03*
X8890000Y17280000D03*
X2980000Y18570000D03*
X8460000Y25370000D03*
X4440000Y20340000D03*
X9900000Y27680000D03*
X13810000Y7130000D03*
X6680000Y27760000D03*
X13810000Y9030000D03*
X5350000Y24190000D03*
X4750000Y24190000D03*
X4150000Y24190000D03*
X3550000Y24190000D03*
X3850000Y23670000D03*
X4450000Y23670000D03*
X5050000Y23670000D03*
X5650000Y23670000D03*
X5950000Y24190000D03*
X3880000Y27770000D03*
X3750000Y25830000D03*
X4740000Y9620000D03*
X13170000Y7130000D03*
X12230000Y26130000D03*
X6830000Y13520000D03*
X13780000Y21740000D03*
X14000000Y17220000D03*
X3990000Y19890000D03*
X2980000Y19170000D03*
X13490000Y20630000D03*
X5550000Y14300000D03*
X5680000Y25840000D03*
X8490000Y27730000D03*
X10560000Y30170000D03*
X7220000Y30170000D03*
X11760000Y20970000D03*
X11640000Y20380000D03*
X9810000Y11350000D03*
X10410000Y11350000D03*
X12230000Y14290000D03*
X7410000Y10960000D03*
X2970000Y13030000D03*
X13570000Y19630000D03*
X13090000Y19270000D03*
X13060000Y15590000D03*
X12940000Y15000000D03*
X12350000Y14880000D03*
X6230000Y13580000D03*
X6140000Y14180000D03*
X2970000Y11810000D03*
X3840000Y15640000D03*
X4370000Y15940000D03*
X4480000Y15340000D03*
X5080000Y15240000D03*
X2970000Y12420000D03*
X13650000Y15700000D03*
X13760000Y16290000D03*
X13020000Y19870000D03*
X7890000Y11330000D03*
X4920000Y25850000D03*
X11290000Y13820000D03*
X5070000Y6410000D03*
X4990000Y19420000D03*
X5790000Y20030000D03*
X5890000Y20640000D03*
X7550000Y21800000D03*
X6490000Y20740000D03*
X12410000Y8360000D03*
X7850000Y22400000D03*
X14280000Y22090000D03*
X13560000Y26600000D03*
X6810000Y10950000D03*
X6590000Y21340000D03*
X10160000Y2540000D03*
X9350000Y10960000D03*
X13560000Y27300000D03*
X13210000Y21170000D03*
X8460000Y24430000D03*
X15740000Y12700000D03*
X14310000Y8430000D03*
X12230000Y20530000D03*
X11140000Y21210000D03*
X14310000Y7730000D03*
X10780000Y21690000D03*
D14*
X15713830Y34943400D02*
X15601656Y34775520D01*
X15524390Y34588982D01*
X15485000Y34390954D01*
X15485000Y34189046D01*
X15524390Y33991018D01*
X15601656Y33804480D01*
X15713830Y33636600D01*
X15856600Y33493830D01*
X16024480Y33381656D01*
X16211018Y33304390D01*
X16409046Y33265000D01*
X16610954Y33265000D01*
X16808982Y33304390D01*
X16995520Y33381656D01*
X17163400Y33493830D01*
X17305001Y33635431D01*
X17305001Y32404569D01*
X17163400Y32546170D01*
X16995520Y32658344D01*
X16808982Y32735610D01*
X16610954Y32775000D01*
X16409046Y32775000D01*
X16211018Y32735610D01*
X16024480Y32658344D01*
X15856600Y32546170D01*
X15713830Y32403400D01*
X15601656Y32235520D01*
X15524390Y32048982D01*
X15485000Y31850954D01*
X15485000Y31649046D01*
X15524390Y31451018D01*
X15601656Y31264480D01*
X15713830Y31096600D01*
X15856600Y30953830D01*
X16024480Y30841656D01*
X16211018Y30764390D01*
X16409046Y30725000D01*
X16610954Y30725000D01*
X16808982Y30764390D01*
X16995520Y30841656D01*
X17163400Y30953830D01*
X17305001Y31095431D01*
X17305001Y29864569D01*
X17163400Y30006170D01*
X16995520Y30118344D01*
X16808982Y30195610D01*
X16610954Y30235000D01*
X16409046Y30235000D01*
X16211018Y30195610D01*
X16024480Y30118344D01*
X15856600Y30006170D01*
X15713830Y29863400D01*
X15601656Y29695520D01*
X15524390Y29508982D01*
X15485000Y29310954D01*
X15485000Y29109046D01*
X15524390Y28911018D01*
X15601656Y28724480D01*
X15713830Y28556600D01*
X15856600Y28413830D01*
X16024480Y28301656D01*
X16211018Y28224390D01*
X16409046Y28185000D01*
X16610954Y28185000D01*
X16808982Y28224390D01*
X16995520Y28301656D01*
X17163400Y28413830D01*
X17305001Y28555431D01*
X17305001Y27324569D01*
X17163400Y27466170D01*
X16995520Y27578344D01*
X16808982Y27655610D01*
X16610954Y27695000D01*
X16409046Y27695000D01*
X16211018Y27655610D01*
X16024480Y27578344D01*
X15856600Y27466170D01*
X15713830Y27323400D01*
X15601656Y27155520D01*
X15524390Y26968982D01*
X15485000Y26770954D01*
X15485000Y26569046D01*
X15524390Y26371018D01*
X15601656Y26184480D01*
X15713830Y26016600D01*
X15856600Y25873830D01*
X16024480Y25761656D01*
X16211018Y25684390D01*
X16409046Y25645000D01*
X16610954Y25645000D01*
X16808982Y25684390D01*
X16995520Y25761656D01*
X17163400Y25873830D01*
X17305001Y26015431D01*
X17305001Y24784569D01*
X17163400Y24926170D01*
X16995520Y25038344D01*
X16808982Y25115610D01*
X16610954Y25155000D01*
X16409046Y25155000D01*
X16211018Y25115610D01*
X16024480Y25038344D01*
X15856600Y24926170D01*
X15713830Y24783400D01*
X15601656Y24615520D01*
X15524390Y24428982D01*
X15485000Y24230954D01*
X15485000Y24029046D01*
X15524390Y23831018D01*
X15601656Y23644480D01*
X15713830Y23476600D01*
X15856600Y23333830D01*
X16024480Y23221656D01*
X16211018Y23144390D01*
X16409046Y23105000D01*
X16610954Y23105000D01*
X16808982Y23144390D01*
X16995520Y23221656D01*
X17163400Y23333830D01*
X17305001Y23475431D01*
X17305001Y22244569D01*
X17163400Y22386170D01*
X16995520Y22498344D01*
X16808982Y22575610D01*
X16610954Y22615000D01*
X16409046Y22615000D01*
X16211018Y22575610D01*
X16024480Y22498344D01*
X15856600Y22386170D01*
X15713830Y22243400D01*
X15601656Y22075520D01*
X15524390Y21888982D01*
X15485000Y21690954D01*
X15485000Y21489046D01*
X15524390Y21291018D01*
X15601656Y21104480D01*
X15713830Y20936600D01*
X15856600Y20793830D01*
X16024480Y20681656D01*
X16211018Y20604390D01*
X16409046Y20565000D01*
X16610954Y20565000D01*
X16808982Y20604390D01*
X16995520Y20681656D01*
X17163400Y20793830D01*
X17305001Y20935431D01*
X17305001Y19704569D01*
X17163400Y19846170D01*
X16995520Y19958344D01*
X16808982Y20035610D01*
X16610954Y20075000D01*
X16409046Y20075000D01*
X16211018Y20035610D01*
X16024480Y19958344D01*
X15856600Y19846170D01*
X15713830Y19703400D01*
X15601656Y19535520D01*
X15524390Y19348982D01*
X15485000Y19150954D01*
X15485000Y18949046D01*
X15524390Y18751018D01*
X15601656Y18564480D01*
X15713830Y18396600D01*
X15856600Y18253830D01*
X16024480Y18141656D01*
X16211018Y18064390D01*
X16409046Y18025000D01*
X16610954Y18025000D01*
X16808982Y18064390D01*
X16995520Y18141656D01*
X17163400Y18253830D01*
X17305001Y18395431D01*
X17305000Y17164570D01*
X17163400Y17306170D01*
X16995520Y17418344D01*
X16808982Y17495610D01*
X16610954Y17535000D01*
X16409046Y17535000D01*
X16211018Y17495610D01*
X16024480Y17418344D01*
X15856600Y17306170D01*
X15713830Y17163400D01*
X15601656Y16995520D01*
X15524390Y16808982D01*
X15485000Y16610954D01*
X15485000Y16409046D01*
X15524390Y16211018D01*
X15601656Y16024480D01*
X15713830Y15856600D01*
X15856600Y15713830D01*
X16024480Y15601656D01*
X16211018Y15524390D01*
X16409046Y15485000D01*
X16610954Y15485000D01*
X16808982Y15524390D01*
X16995520Y15601656D01*
X17163400Y15713830D01*
X17305000Y15855430D01*
X17305000Y14624570D01*
X17163400Y14766170D01*
X16995520Y14878344D01*
X16808982Y14955610D01*
X16610954Y14995000D01*
X16409046Y14995000D01*
X16211018Y14955610D01*
X16024480Y14878344D01*
X15856600Y14766170D01*
X15713830Y14623400D01*
X15601656Y14455520D01*
X15524390Y14268982D01*
X15485000Y14070954D01*
X15485000Y13869046D01*
X15524390Y13671018D01*
X15601656Y13484480D01*
X15713830Y13316600D01*
X15856600Y13173830D01*
X16024480Y13061656D01*
X16211018Y12984390D01*
X16409046Y12945000D01*
X16610954Y12945000D01*
X16808982Y12984390D01*
X16995520Y13061656D01*
X17163400Y13173830D01*
X17305000Y13315430D01*
X17305000Y12084570D01*
X17163400Y12226170D01*
X16995520Y12338344D01*
X16808982Y12415610D01*
X16610954Y12455000D01*
X16409046Y12455000D01*
X16211018Y12415610D01*
X16024480Y12338344D01*
X15856600Y12226170D01*
X15713830Y12083400D01*
X15601656Y11915520D01*
X15524390Y11728982D01*
X15485000Y11530954D01*
X15485000Y11329046D01*
X15524390Y11131018D01*
X15601656Y10944480D01*
X15713830Y10776600D01*
X15856600Y10633830D01*
X16024480Y10521656D01*
X16211018Y10444390D01*
X16409046Y10405000D01*
X16610954Y10405000D01*
X16808982Y10444390D01*
X16995520Y10521656D01*
X17163400Y10633830D01*
X17305000Y10775430D01*
X17305000Y9544570D01*
X17163400Y9686170D01*
X16995520Y9798344D01*
X16808982Y9875610D01*
X16610954Y9915000D01*
X16409046Y9915000D01*
X16211018Y9875610D01*
X16024480Y9798344D01*
X15856600Y9686170D01*
X15713830Y9543400D01*
X15601656Y9375520D01*
X15524390Y9188982D01*
X15485000Y8990954D01*
X15485000Y8789046D01*
X15524390Y8591018D01*
X15601656Y8404480D01*
X15713830Y8236600D01*
X15856600Y8093830D01*
X16024480Y7981656D01*
X16211018Y7904390D01*
X16409046Y7865000D01*
X16610954Y7865000D01*
X16808982Y7904390D01*
X16995520Y7981656D01*
X17163400Y8093830D01*
X17305000Y8235430D01*
X17305000Y7004570D01*
X17163400Y7146170D01*
X16995520Y7258344D01*
X16808982Y7335610D01*
X16610954Y7375000D01*
X16409046Y7375000D01*
X16211018Y7335610D01*
X16024480Y7258344D01*
X15856600Y7146170D01*
X15713830Y7003400D01*
X15601656Y6835520D01*
X15524390Y6648982D01*
X15485000Y6450954D01*
X15485000Y6249046D01*
X15524390Y6051018D01*
X15601656Y5864480D01*
X15713830Y5696600D01*
X15856600Y5553830D01*
X16024480Y5441656D01*
X16211018Y5364390D01*
X16409046Y5325000D01*
X16610954Y5325000D01*
X16808982Y5364390D01*
X16995520Y5441656D01*
X17163400Y5553830D01*
X17305000Y5695430D01*
X17305000Y4464570D01*
X17163400Y4606170D01*
X16995520Y4718344D01*
X16808982Y4795610D01*
X16610954Y4835000D01*
X16409046Y4835000D01*
X16211018Y4795610D01*
X16024480Y4718344D01*
X15856600Y4606170D01*
X15713830Y4463400D01*
X15601656Y4295520D01*
X15524390Y4108982D01*
X15485000Y3910954D01*
X15485000Y3709046D01*
X15524390Y3511018D01*
X15601656Y3324480D01*
X15713830Y3156600D01*
X15856600Y3013830D01*
X16024480Y2901656D01*
X16211018Y2824390D01*
X16409046Y2785000D01*
X16610954Y2785000D01*
X16808982Y2824390D01*
X16995520Y2901656D01*
X17163400Y3013830D01*
X17305000Y3155430D01*
X17305000Y1924570D01*
X17163400Y2066170D01*
X16995520Y2178344D01*
X16808982Y2255610D01*
X16610954Y2295000D01*
X16409046Y2295000D01*
X16211018Y2255610D01*
X16024480Y2178344D01*
X15856600Y2066170D01*
X15713830Y1923400D01*
X15601656Y1755520D01*
X15524390Y1568982D01*
X15485000Y1370954D01*
X15485000Y1169046D01*
X15524390Y971018D01*
X15601656Y784480D01*
X15713830Y616600D01*
X15855430Y475000D01*
X14624570Y475000D01*
X14766170Y616600D01*
X14878344Y784480D01*
X14955610Y971018D01*
X14995000Y1169046D01*
X14995000Y1370954D01*
X14955610Y1568982D01*
X14878344Y1755520D01*
X14766170Y1923400D01*
X14623400Y2066170D01*
X14455520Y2178344D01*
X14268982Y2255610D01*
X14070954Y2295000D01*
X13869046Y2295000D01*
X13671018Y2255610D01*
X13484480Y2178344D01*
X13316600Y2066170D01*
X13173830Y1923400D01*
X13061656Y1755520D01*
X12984390Y1568982D01*
X12945000Y1370954D01*
X12945000Y1169046D01*
X12984390Y971018D01*
X13061656Y784480D01*
X13173830Y616600D01*
X13315430Y475000D01*
X12084570Y475000D01*
X12226170Y616600D01*
X12338344Y784480D01*
X12415610Y971018D01*
X12455000Y1169046D01*
X12455000Y1370954D01*
X12415610Y1568982D01*
X12338344Y1755520D01*
X12226170Y1923400D01*
X12083400Y2066170D01*
X11915520Y2178344D01*
X11728982Y2255610D01*
X11530954Y2295000D01*
X11329046Y2295000D01*
X11131018Y2255610D01*
X10944480Y2178344D01*
X10776600Y2066170D01*
X10633830Y1923400D01*
X10521656Y1755520D01*
X10444390Y1568982D01*
X10405000Y1370954D01*
X10405000Y1169046D01*
X10444390Y971018D01*
X10521656Y784480D01*
X10633830Y616600D01*
X10775430Y475000D01*
X9496537Y475000D01*
X9542253Y547036D01*
X8890000Y1199289D01*
X8237747Y547036D01*
X8283463Y475000D01*
X7004570Y475000D01*
X7146170Y616600D01*
X7258344Y784480D01*
X7335610Y971018D01*
X7375000Y1169046D01*
X7375000Y1260427D01*
X7860083Y1260427D01*
X7881741Y1059684D01*
X7942145Y867023D01*
X8028337Y705769D01*
X8167036Y617747D01*
X8819289Y1270000D01*
X8960711Y1270000D01*
X9612964Y617747D01*
X9751663Y705769D01*
X9845182Y884712D01*
X9901994Y1078462D01*
X9919917Y1279573D01*
X9898259Y1480316D01*
X9837855Y1672977D01*
X9751663Y1834231D01*
X9612964Y1922253D01*
X8960711Y1270000D01*
X8819289Y1270000D01*
X8167036Y1922253D01*
X8028337Y1834231D01*
X7934818Y1655288D01*
X7878006Y1461538D01*
X7860083Y1260427D01*
X7375000Y1260427D01*
X7375000Y1370954D01*
X7335610Y1568982D01*
X7258344Y1755520D01*
X7146170Y1923400D01*
X7076606Y1992964D01*
X8237747Y1992964D01*
X8890000Y1340711D01*
X9542253Y1992964D01*
X9454231Y2131663D01*
X9275288Y2225182D01*
X9081538Y2281994D01*
X8880427Y2299917D01*
X8679684Y2278259D01*
X8487023Y2217855D01*
X8325769Y2131663D01*
X8237747Y1992964D01*
X7076606Y1992964D01*
X7003400Y2066170D01*
X6835520Y2178344D01*
X6648982Y2255610D01*
X6450954Y2295000D01*
X6249046Y2295000D01*
X6051018Y2255610D01*
X5864480Y2178344D01*
X5696600Y2066170D01*
X5553830Y1923400D01*
X5441656Y1755520D01*
X5364390Y1568982D01*
X5325000Y1370954D01*
X5325000Y1169046D01*
X5364390Y971018D01*
X5441656Y784480D01*
X5553830Y616600D01*
X5695430Y475000D01*
X4464570Y475000D01*
X4606170Y616600D01*
X4718344Y784480D01*
X4795610Y971018D01*
X4835000Y1169046D01*
X4835000Y1370954D01*
X4795610Y1568982D01*
X4718344Y1755520D01*
X4606170Y1923400D01*
X4463400Y2066170D01*
X4295520Y2178344D01*
X4108982Y2255610D01*
X3910954Y2295000D01*
X3709046Y2295000D01*
X3511018Y2255610D01*
X3324480Y2178344D01*
X3156600Y2066170D01*
X3013830Y1923400D01*
X2901656Y1755520D01*
X2824390Y1568982D01*
X2785000Y1370954D01*
X2785000Y1169046D01*
X2824390Y971018D01*
X2901656Y784480D01*
X3013830Y616600D01*
X3155430Y475000D01*
X1876537Y475000D01*
X1922253Y547036D01*
X1270000Y1199289D01*
X617747Y547036D01*
X663463Y475000D01*
X523228Y475000D01*
X495587Y477710D01*
X491341Y478992D01*
X487426Y481074D01*
X483990Y483877D01*
X481163Y487294D01*
X479051Y491198D01*
X477742Y495429D01*
X475000Y521516D01*
X475000Y663463D01*
X547036Y617747D01*
X1199289Y1270000D01*
X1340711Y1270000D01*
X1992964Y617747D01*
X2131663Y705769D01*
X2225182Y884712D01*
X2281994Y1078462D01*
X2299917Y1279573D01*
X2278259Y1480316D01*
X2217855Y1672977D01*
X2131663Y1834231D01*
X1992964Y1922253D01*
X1340711Y1270000D01*
X1199289Y1270000D01*
X547036Y1922253D01*
X475000Y1876537D01*
X475000Y1992964D01*
X617747Y1992964D01*
X1270000Y1340711D01*
X1922253Y1992964D01*
X1834231Y2131663D01*
X1655288Y2225182D01*
X1461538Y2281994D01*
X1260427Y2299917D01*
X1059684Y2278259D01*
X867023Y2217855D01*
X705769Y2131663D01*
X617747Y1992964D01*
X475000Y1992964D01*
X475000Y2584321D01*
X9710000Y2584321D01*
X9710000Y2495679D01*
X9727294Y2408740D01*
X9761215Y2326845D01*
X9810462Y2253142D01*
X9873142Y2190462D01*
X9946845Y2141215D01*
X10028740Y2107294D01*
X10115679Y2090000D01*
X10204321Y2090000D01*
X10291260Y2107294D01*
X10373155Y2141215D01*
X10446858Y2190462D01*
X10509538Y2253142D01*
X10558785Y2326845D01*
X10592706Y2408740D01*
X10610000Y2495679D01*
X10610000Y2584321D01*
X10592706Y2671260D01*
X10558785Y2753155D01*
X10509538Y2826858D01*
X10446858Y2889538D01*
X10373155Y2938785D01*
X10291260Y2972706D01*
X10204321Y2990000D01*
X10115679Y2990000D01*
X10028740Y2972706D01*
X9946845Y2938785D01*
X9873142Y2889538D01*
X9810462Y2826858D01*
X9761215Y2753155D01*
X9727294Y2671260D01*
X9710000Y2584321D01*
X475000Y2584321D01*
X475000Y3155430D01*
X616600Y3013830D01*
X784480Y2901656D01*
X971018Y2824390D01*
X1169046Y2785000D01*
X1370954Y2785000D01*
X1568982Y2824390D01*
X1755520Y2901656D01*
X1923400Y3013830D01*
X2066170Y3156600D01*
X2178344Y3324480D01*
X2255610Y3511018D01*
X2295000Y3709046D01*
X2295000Y3910954D01*
X2785000Y3910954D01*
X2785000Y3709046D01*
X2824390Y3511018D01*
X2901656Y3324480D01*
X3013830Y3156600D01*
X3156600Y3013830D01*
X3324480Y2901656D01*
X3511018Y2824390D01*
X3709046Y2785000D01*
X3910954Y2785000D01*
X4108982Y2824390D01*
X4295520Y2901656D01*
X4463400Y3013830D01*
X4606170Y3156600D01*
X4718344Y3324480D01*
X4795610Y3511018D01*
X4835000Y3709046D01*
X4835000Y3910954D01*
X5325000Y3910954D01*
X5325000Y3709046D01*
X5364390Y3511018D01*
X5441656Y3324480D01*
X5553830Y3156600D01*
X5696600Y3013830D01*
X5864480Y2901656D01*
X6051018Y2824390D01*
X6249046Y2785000D01*
X6450954Y2785000D01*
X6648982Y2824390D01*
X6835520Y2901656D01*
X7003400Y3013830D01*
X7146170Y3156600D01*
X7258344Y3324480D01*
X7335610Y3511018D01*
X7375000Y3709046D01*
X7375000Y3910954D01*
X7865000Y3910954D01*
X7865000Y3709046D01*
X7904390Y3511018D01*
X7981656Y3324480D01*
X8093830Y3156600D01*
X8236600Y3013830D01*
X8404480Y2901656D01*
X8591018Y2824390D01*
X8789046Y2785000D01*
X8990954Y2785000D01*
X9188982Y2824390D01*
X9375520Y2901656D01*
X9543400Y3013830D01*
X9686170Y3156600D01*
X9798344Y3324480D01*
X9875610Y3511018D01*
X9915000Y3709046D01*
X9915000Y3910954D01*
X10405000Y3910954D01*
X10405000Y3709046D01*
X10444390Y3511018D01*
X10521656Y3324480D01*
X10633830Y3156600D01*
X10776600Y3013830D01*
X10944480Y2901656D01*
X11131018Y2824390D01*
X11329046Y2785000D01*
X11530954Y2785000D01*
X11728982Y2824390D01*
X11915520Y2901656D01*
X12083400Y3013830D01*
X12226170Y3156600D01*
X12338344Y3324480D01*
X12415610Y3511018D01*
X12455000Y3709046D01*
X12455000Y3910954D01*
X12945000Y3910954D01*
X12945000Y3709046D01*
X12984390Y3511018D01*
X13061656Y3324480D01*
X13173830Y3156600D01*
X13316600Y3013830D01*
X13484480Y2901656D01*
X13671018Y2824390D01*
X13869046Y2785000D01*
X14070954Y2785000D01*
X14268982Y2824390D01*
X14455520Y2901656D01*
X14623400Y3013830D01*
X14766170Y3156600D01*
X14878344Y3324480D01*
X14955610Y3511018D01*
X14995000Y3709046D01*
X14995000Y3910954D01*
X14955610Y4108982D01*
X14878344Y4295520D01*
X14766170Y4463400D01*
X14623400Y4606170D01*
X14455520Y4718344D01*
X14268982Y4795610D01*
X14070954Y4835000D01*
X13869046Y4835000D01*
X13671018Y4795610D01*
X13484480Y4718344D01*
X13316600Y4606170D01*
X13173830Y4463400D01*
X13061656Y4295520D01*
X12984390Y4108982D01*
X12945000Y3910954D01*
X12455000Y3910954D01*
X12415610Y4108982D01*
X12338344Y4295520D01*
X12226170Y4463400D01*
X12083400Y4606170D01*
X11915520Y4718344D01*
X11728982Y4795610D01*
X11530954Y4835000D01*
X11329046Y4835000D01*
X11131018Y4795610D01*
X10944480Y4718344D01*
X10776600Y4606170D01*
X10633830Y4463400D01*
X10521656Y4295520D01*
X10444390Y4108982D01*
X10405000Y3910954D01*
X9915000Y3910954D01*
X9875610Y4108982D01*
X9798344Y4295520D01*
X9686170Y4463400D01*
X9543400Y4606170D01*
X9375520Y4718344D01*
X9188982Y4795610D01*
X8990954Y4835000D01*
X8789046Y4835000D01*
X8591018Y4795610D01*
X8404480Y4718344D01*
X8236600Y4606170D01*
X8093830Y4463400D01*
X7981656Y4295520D01*
X7904390Y4108982D01*
X7865000Y3910954D01*
X7375000Y3910954D01*
X7335610Y4108982D01*
X7258344Y4295520D01*
X7146170Y4463400D01*
X7003400Y4606170D01*
X6835520Y4718344D01*
X6648982Y4795610D01*
X6450954Y4835000D01*
X6249046Y4835000D01*
X6051018Y4795610D01*
X5864480Y4718344D01*
X5696600Y4606170D01*
X5553830Y4463400D01*
X5441656Y4295520D01*
X5364390Y4108982D01*
X5325000Y3910954D01*
X4835000Y3910954D01*
X4795610Y4108982D01*
X4718344Y4295520D01*
X4606170Y4463400D01*
X4463400Y4606170D01*
X4295520Y4718344D01*
X4108982Y4795610D01*
X3910954Y4835000D01*
X3709046Y4835000D01*
X3511018Y4795610D01*
X3324480Y4718344D01*
X3156600Y4606170D01*
X3013830Y4463400D01*
X2901656Y4295520D01*
X2824390Y4108982D01*
X2785000Y3910954D01*
X2295000Y3910954D01*
X2255610Y4108982D01*
X2178344Y4295520D01*
X2066170Y4463400D01*
X1923400Y4606170D01*
X1755520Y4718344D01*
X1568982Y4795610D01*
X1370954Y4835000D01*
X1169046Y4835000D01*
X971018Y4795610D01*
X784480Y4718344D01*
X616600Y4606170D01*
X475000Y4464570D01*
X475000Y5695430D01*
X616600Y5553830D01*
X784480Y5441656D01*
X971018Y5364390D01*
X1169046Y5325000D01*
X1370954Y5325000D01*
X1568982Y5364390D01*
X1755520Y5441656D01*
X1923400Y5553830D01*
X2066170Y5696600D01*
X2178344Y5864480D01*
X2255610Y6051018D01*
X2295000Y6249046D01*
X2295000Y6450954D01*
X2294331Y6454321D01*
X4620000Y6454321D01*
X4620000Y6365679D01*
X4637294Y6278740D01*
X4671215Y6196845D01*
X4720462Y6123142D01*
X4783142Y6060462D01*
X4856845Y6011215D01*
X4938740Y5977294D01*
X5025679Y5960000D01*
X5114321Y5960000D01*
X5201260Y5977294D01*
X5283155Y6011215D01*
X5356858Y6060462D01*
X5419538Y6123142D01*
X5468785Y6196845D01*
X5502706Y6278740D01*
X5520000Y6365679D01*
X5520000Y6454321D01*
X5502706Y6541260D01*
X5468785Y6623155D01*
X5419538Y6696858D01*
X5356858Y6759538D01*
X5283155Y6808785D01*
X5201260Y6842706D01*
X5114321Y6860000D01*
X5025679Y6860000D01*
X4938740Y6842706D01*
X4856845Y6808785D01*
X4783142Y6759538D01*
X4720462Y6696858D01*
X4671215Y6623155D01*
X4637294Y6541260D01*
X4620000Y6454321D01*
X2294331Y6454321D01*
X2255610Y6648982D01*
X2178344Y6835520D01*
X2066170Y7003400D01*
X1923400Y7146170D01*
X1881270Y7174321D01*
X12720000Y7174321D01*
X12720000Y7085679D01*
X12737294Y6998740D01*
X12771215Y6916845D01*
X12820462Y6843142D01*
X12883142Y6780462D01*
X12956845Y6731215D01*
X13038740Y6697294D01*
X13125679Y6680000D01*
X13214321Y6680000D01*
X13301260Y6697294D01*
X13383155Y6731215D01*
X13456858Y6780462D01*
X13519538Y6843142D01*
X13568785Y6916845D01*
X13602706Y6998740D01*
X13620000Y7085679D01*
X13620000Y7174321D01*
X13602706Y7261260D01*
X13568785Y7343155D01*
X13519538Y7416858D01*
X13456858Y7479538D01*
X13383155Y7528785D01*
X13301260Y7562706D01*
X13214321Y7580000D01*
X13125679Y7580000D01*
X13038740Y7562706D01*
X12956845Y7528785D01*
X12883142Y7479538D01*
X12820462Y7416858D01*
X12771215Y7343155D01*
X12737294Y7261260D01*
X12720000Y7174321D01*
X1881270Y7174321D01*
X1755520Y7258344D01*
X1568982Y7335610D01*
X1370954Y7375000D01*
X1169046Y7375000D01*
X971018Y7335610D01*
X784480Y7258344D01*
X616600Y7146170D01*
X475000Y7004570D01*
X475000Y8235430D01*
X616600Y8093830D01*
X784480Y7981656D01*
X971018Y7904390D01*
X1169046Y7865000D01*
X1370954Y7865000D01*
X1568982Y7904390D01*
X1755520Y7981656D01*
X1923400Y8093830D01*
X2066170Y8236600D01*
X2178237Y8404321D01*
X11960000Y8404321D01*
X11960000Y8315679D01*
X11977294Y8228740D01*
X12011215Y8146845D01*
X12060462Y8073142D01*
X12123142Y8010462D01*
X12196845Y7961215D01*
X12278740Y7927294D01*
X12365679Y7910000D01*
X12454321Y7910000D01*
X12541260Y7927294D01*
X12623155Y7961215D01*
X12696858Y8010462D01*
X12759538Y8073142D01*
X12808785Y8146845D01*
X12842706Y8228740D01*
X12860000Y8315679D01*
X12860000Y8404321D01*
X12846076Y8474321D01*
X13860000Y8474321D01*
X13860000Y8385679D01*
X13877294Y8298740D01*
X13911215Y8216845D01*
X13960462Y8143142D01*
X14023142Y8080462D01*
X14023833Y8080000D01*
X14023142Y8079538D01*
X13960462Y8016858D01*
X13911215Y7943155D01*
X13877294Y7861260D01*
X13860000Y7774321D01*
X13860000Y7685679D01*
X13877294Y7598740D01*
X13911215Y7516845D01*
X13960462Y7443142D01*
X14023142Y7380462D01*
X14096845Y7331215D01*
X14178740Y7297294D01*
X14265679Y7280000D01*
X14354321Y7280000D01*
X14441260Y7297294D01*
X14523155Y7331215D01*
X14596858Y7380462D01*
X14659538Y7443142D01*
X14708785Y7516845D01*
X14742706Y7598740D01*
X14760000Y7685679D01*
X14760000Y7774321D01*
X14742706Y7861260D01*
X14708785Y7943155D01*
X14659538Y8016858D01*
X14596858Y8079538D01*
X14596167Y8080000D01*
X14596858Y8080462D01*
X14659538Y8143142D01*
X14708785Y8216845D01*
X14742706Y8298740D01*
X14760000Y8385679D01*
X14760000Y8474321D01*
X14742706Y8561260D01*
X14708785Y8643155D01*
X14659538Y8716858D01*
X14596858Y8779538D01*
X14523155Y8828785D01*
X14441260Y8862706D01*
X14354321Y8880000D01*
X14265679Y8880000D01*
X14178740Y8862706D01*
X14096845Y8828785D01*
X14023142Y8779538D01*
X13960462Y8716858D01*
X13911215Y8643155D01*
X13877294Y8561260D01*
X13860000Y8474321D01*
X12846076Y8474321D01*
X12842706Y8491260D01*
X12808785Y8573155D01*
X12759538Y8646858D01*
X12696858Y8709538D01*
X12623155Y8758785D01*
X12541260Y8792706D01*
X12454321Y8810000D01*
X12365679Y8810000D01*
X12278740Y8792706D01*
X12196845Y8758785D01*
X12123142Y8709538D01*
X12060462Y8646858D01*
X12011215Y8573155D01*
X11977294Y8491260D01*
X11960000Y8404321D01*
X2178237Y8404321D01*
X2178344Y8404480D01*
X2255610Y8591018D01*
X2295000Y8789046D01*
X2295000Y8990954D01*
X2255610Y9188982D01*
X2178344Y9375520D01*
X2066170Y9543400D01*
X1945249Y9664321D01*
X4290000Y9664321D01*
X4290000Y9575679D01*
X4307294Y9488740D01*
X4341215Y9406845D01*
X4390462Y9333142D01*
X4453142Y9270462D01*
X4526845Y9221215D01*
X4608740Y9187294D01*
X4695679Y9170000D01*
X4784321Y9170000D01*
X4871260Y9187294D01*
X4953155Y9221215D01*
X5026858Y9270462D01*
X5089538Y9333142D01*
X5138785Y9406845D01*
X5172706Y9488740D01*
X5190000Y9575679D01*
X5190000Y9664321D01*
X5172706Y9751260D01*
X5138785Y9833155D01*
X5089538Y9906858D01*
X5026858Y9969538D01*
X4953155Y10018785D01*
X4871260Y10052706D01*
X4784321Y10070000D01*
X4695679Y10070000D01*
X4608740Y10052706D01*
X4526845Y10018785D01*
X4453142Y9969538D01*
X4390462Y9906858D01*
X4341215Y9833155D01*
X4307294Y9751260D01*
X4290000Y9664321D01*
X1945249Y9664321D01*
X1923400Y9686170D01*
X1755520Y9798344D01*
X1568982Y9875610D01*
X1370954Y9915000D01*
X1169046Y9915000D01*
X971018Y9875610D01*
X784480Y9798344D01*
X616600Y9686170D01*
X475000Y9544570D01*
X475000Y10775430D01*
X616600Y10633830D01*
X784480Y10521656D01*
X971018Y10444390D01*
X1169046Y10405000D01*
X1370954Y10405000D01*
X1568982Y10444390D01*
X1755520Y10521656D01*
X1923400Y10633830D01*
X2066170Y10776600D01*
X2178344Y10944480D01*
X2198988Y10994321D01*
X6360000Y10994321D01*
X6360000Y10905679D01*
X6377294Y10818740D01*
X6411215Y10736845D01*
X6460462Y10663142D01*
X6523142Y10600462D01*
X6596845Y10551215D01*
X6678740Y10517294D01*
X6765679Y10500000D01*
X6854321Y10500000D01*
X6941260Y10517294D01*
X7023155Y10551215D01*
X7096858Y10600462D01*
X7115000Y10618604D01*
X7123142Y10610462D01*
X7196845Y10561215D01*
X7278740Y10527294D01*
X7365679Y10510000D01*
X7454321Y10510000D01*
X7541260Y10527294D01*
X7623155Y10561215D01*
X7696858Y10610462D01*
X7759538Y10673142D01*
X7808785Y10746845D01*
X7842706Y10828740D01*
X7852903Y10880000D01*
X7934321Y10880000D01*
X8021260Y10897294D01*
X8103155Y10931215D01*
X8176858Y10980462D01*
X8200717Y11004321D01*
X8900000Y11004321D01*
X8900000Y10915679D01*
X8917294Y10828740D01*
X8951215Y10746845D01*
X9000462Y10673142D01*
X9063142Y10610462D01*
X9136845Y10561215D01*
X9218740Y10527294D01*
X9305679Y10510000D01*
X9394321Y10510000D01*
X9481260Y10527294D01*
X9563155Y10561215D01*
X9636858Y10610462D01*
X9699538Y10673142D01*
X9748785Y10746845D01*
X9782706Y10828740D01*
X9796881Y10900000D01*
X9854321Y10900000D01*
X9941260Y10917294D01*
X10023155Y10951215D01*
X10096858Y11000462D01*
X10110000Y11013604D01*
X10123142Y11000462D01*
X10196845Y10951215D01*
X10278740Y10917294D01*
X10365679Y10900000D01*
X10454321Y10900000D01*
X10541260Y10917294D01*
X10623155Y10951215D01*
X10696858Y11000462D01*
X10759538Y11063142D01*
X10808785Y11136845D01*
X10842706Y11218740D01*
X10860000Y11305679D01*
X10860000Y11394321D01*
X10842706Y11481260D01*
X10808785Y11563155D01*
X10759538Y11636858D01*
X10696858Y11699538D01*
X10623155Y11748785D01*
X10541260Y11782706D01*
X10454321Y11800000D01*
X10365679Y11800000D01*
X10278740Y11782706D01*
X10196845Y11748785D01*
X10123142Y11699538D01*
X10110000Y11686396D01*
X10096858Y11699538D01*
X10023155Y11748785D01*
X9941260Y11782706D01*
X9854321Y11800000D01*
X9765679Y11800000D01*
X9678740Y11782706D01*
X9596845Y11748785D01*
X9523142Y11699538D01*
X9460462Y11636858D01*
X9411215Y11563155D01*
X9377294Y11481260D01*
X9363119Y11410000D01*
X9305679Y11410000D01*
X9218740Y11392706D01*
X9136845Y11358785D01*
X9063142Y11309538D01*
X9000462Y11246858D01*
X8951215Y11173155D01*
X8917294Y11091260D01*
X8900000Y11004321D01*
X8200717Y11004321D01*
X8239538Y11043142D01*
X8288785Y11116845D01*
X8322706Y11198740D01*
X8340000Y11285679D01*
X8340000Y11374321D01*
X8322706Y11461260D01*
X8288785Y11543155D01*
X8239538Y11616858D01*
X8176858Y11679538D01*
X8103155Y11728785D01*
X8021260Y11762706D01*
X7934321Y11780000D01*
X7845679Y11780000D01*
X7758740Y11762706D01*
X7676845Y11728785D01*
X7603142Y11679538D01*
X7540462Y11616858D01*
X7491215Y11543155D01*
X7457294Y11461260D01*
X7447097Y11410000D01*
X7365679Y11410000D01*
X7278740Y11392706D01*
X7196845Y11358785D01*
X7123142Y11309538D01*
X7105000Y11291396D01*
X7096858Y11299538D01*
X7023155Y11348785D01*
X6941260Y11382706D01*
X6854321Y11400000D01*
X6765679Y11400000D01*
X6678740Y11382706D01*
X6596845Y11348785D01*
X6523142Y11299538D01*
X6460462Y11236858D01*
X6411215Y11163155D01*
X6377294Y11081260D01*
X6360000Y10994321D01*
X2198988Y10994321D01*
X2255610Y11131018D01*
X2295000Y11329046D01*
X2295000Y11530954D01*
X2255610Y11728982D01*
X2178344Y11915520D01*
X2066170Y12083400D01*
X1923400Y12226170D01*
X1755520Y12338344D01*
X1568982Y12415610D01*
X1370954Y12455000D01*
X1169046Y12455000D01*
X971018Y12415610D01*
X784480Y12338344D01*
X616600Y12226170D01*
X475000Y12084570D01*
X475000Y13315430D01*
X616600Y13173830D01*
X784480Y13061656D01*
X971018Y12984390D01*
X1169046Y12945000D01*
X1370954Y12945000D01*
X1568982Y12984390D01*
X1755520Y13061656D01*
X1774474Y13074321D01*
X2520000Y13074321D01*
X2520000Y12985679D01*
X2537294Y12898740D01*
X2571215Y12816845D01*
X2620462Y12743142D01*
X2638604Y12725000D01*
X2620462Y12706858D01*
X2571215Y12633155D01*
X2537294Y12551260D01*
X2520000Y12464321D01*
X2520000Y12375679D01*
X2537294Y12288740D01*
X2571215Y12206845D01*
X2620462Y12133142D01*
X2638604Y12115000D01*
X2620462Y12096858D01*
X2571215Y12023155D01*
X2537294Y11941260D01*
X2520000Y11854321D01*
X2520000Y11765679D01*
X2537294Y11678740D01*
X2571215Y11596845D01*
X2620462Y11523142D01*
X2683142Y11460462D01*
X2756845Y11411215D01*
X2838740Y11377294D01*
X2925679Y11360000D01*
X3014321Y11360000D01*
X3101260Y11377294D01*
X3183155Y11411215D01*
X3256858Y11460462D01*
X3319538Y11523142D01*
X3368785Y11596845D01*
X3402706Y11678740D01*
X3420000Y11765679D01*
X3420000Y11854321D01*
X3402706Y11941260D01*
X3368785Y12023155D01*
X3319538Y12096858D01*
X3301396Y12115000D01*
X3319538Y12133142D01*
X3368785Y12206845D01*
X3402706Y12288740D01*
X3420000Y12375679D01*
X3420000Y12464321D01*
X3402706Y12551260D01*
X3368785Y12633155D01*
X3319538Y12706858D01*
X3301396Y12725000D01*
X3319538Y12743142D01*
X3320325Y12744321D01*
X15290000Y12744321D01*
X15290000Y12655679D01*
X15307294Y12568740D01*
X15341215Y12486845D01*
X15390462Y12413142D01*
X15453142Y12350462D01*
X15526845Y12301215D01*
X15608740Y12267294D01*
X15695679Y12250000D01*
X15784321Y12250000D01*
X15871260Y12267294D01*
X15953155Y12301215D01*
X16026858Y12350462D01*
X16089538Y12413142D01*
X16138785Y12486845D01*
X16172706Y12568740D01*
X16190000Y12655679D01*
X16190000Y12744321D01*
X16172706Y12831260D01*
X16138785Y12913155D01*
X16089538Y12986858D01*
X16026858Y13049538D01*
X15953155Y13098785D01*
X15871260Y13132706D01*
X15784321Y13150000D01*
X15695679Y13150000D01*
X15608740Y13132706D01*
X15526845Y13098785D01*
X15453142Y13049538D01*
X15390462Y12986858D01*
X15341215Y12913155D01*
X15307294Y12831260D01*
X15290000Y12744321D01*
X3320325Y12744321D01*
X3368785Y12816845D01*
X3402706Y12898740D01*
X3420000Y12985679D01*
X3420000Y13074321D01*
X3402706Y13161260D01*
X3368785Y13243155D01*
X3319538Y13316858D01*
X3256858Y13379538D01*
X3183155Y13428785D01*
X3101260Y13462706D01*
X3014321Y13480000D01*
X2925679Y13480000D01*
X2838740Y13462706D01*
X2756845Y13428785D01*
X2683142Y13379538D01*
X2620462Y13316858D01*
X2571215Y13243155D01*
X2537294Y13161260D01*
X2520000Y13074321D01*
X1774474Y13074321D01*
X1923400Y13173830D01*
X2066170Y13316600D01*
X2178344Y13484480D01*
X2255610Y13671018D01*
X2295000Y13869046D01*
X2295000Y14070954D01*
X2255610Y14268982D01*
X2224404Y14344321D01*
X5100000Y14344321D01*
X5100000Y14255679D01*
X5117294Y14168740D01*
X5151215Y14086845D01*
X5200462Y14013142D01*
X5263142Y13950462D01*
X5336845Y13901215D01*
X5418740Y13867294D01*
X5505679Y13850000D01*
X5594321Y13850000D01*
X5681260Y13867294D01*
X5763155Y13901215D01*
X5778304Y13911337D01*
X5790462Y13893142D01*
X5853142Y13830462D01*
X5855217Y13829076D01*
X5831215Y13793155D01*
X5797294Y13711260D01*
X5780000Y13624321D01*
X5780000Y13535679D01*
X5797294Y13448740D01*
X5831215Y13366845D01*
X5880462Y13293142D01*
X5943142Y13230462D01*
X6016845Y13181215D01*
X6098740Y13147294D01*
X6185679Y13130000D01*
X6274321Y13130000D01*
X6361260Y13147294D01*
X6443155Y13181215D01*
X6496647Y13216957D01*
X6543142Y13170462D01*
X6616845Y13121215D01*
X6698740Y13087294D01*
X6785679Y13070000D01*
X6874321Y13070000D01*
X6961260Y13087294D01*
X7043155Y13121215D01*
X7116858Y13170462D01*
X7179538Y13233142D01*
X7228785Y13306845D01*
X7262706Y13388740D01*
X7280000Y13475679D01*
X7280000Y13564321D01*
X7262706Y13651260D01*
X7228785Y13733155D01*
X7179538Y13806858D01*
X7122075Y13864321D01*
X10840000Y13864321D01*
X10840000Y13775679D01*
X10857294Y13688740D01*
X10891215Y13606845D01*
X10940462Y13533142D01*
X11003142Y13470462D01*
X11076845Y13421215D01*
X11158740Y13387294D01*
X11245679Y13370000D01*
X11334321Y13370000D01*
X11421260Y13387294D01*
X11503155Y13421215D01*
X11576858Y13470462D01*
X11639538Y13533142D01*
X11688785Y13606845D01*
X11722706Y13688740D01*
X11740000Y13775679D01*
X11740000Y13864321D01*
X11722706Y13951260D01*
X11688785Y14033155D01*
X11639538Y14106858D01*
X11576858Y14169538D01*
X11503155Y14218785D01*
X11421260Y14252706D01*
X11334321Y14270000D01*
X11245679Y14270000D01*
X11158740Y14252706D01*
X11076845Y14218785D01*
X11003142Y14169538D01*
X10940462Y14106858D01*
X10891215Y14033155D01*
X10857294Y13951260D01*
X10840000Y13864321D01*
X7122075Y13864321D01*
X7116858Y13869538D01*
X7043155Y13918785D01*
X6961260Y13952706D01*
X6874321Y13970000D01*
X6785679Y13970000D01*
X6698740Y13952706D01*
X6616845Y13918785D01*
X6563353Y13883043D01*
X6516858Y13929538D01*
X6514783Y13930924D01*
X6538785Y13966845D01*
X6572706Y14048740D01*
X6590000Y14135679D01*
X6590000Y14224321D01*
X6572706Y14311260D01*
X6563155Y14334321D01*
X11780000Y14334321D01*
X11780000Y14245679D01*
X11797294Y14158740D01*
X11831215Y14076845D01*
X11880462Y14003142D01*
X11943142Y13940462D01*
X12016845Y13891215D01*
X12098740Y13857294D01*
X12185679Y13840000D01*
X12274321Y13840000D01*
X12361260Y13857294D01*
X12443155Y13891215D01*
X12516858Y13940462D01*
X12579538Y14003142D01*
X12628785Y14076845D01*
X12662706Y14158740D01*
X12680000Y14245679D01*
X12680000Y14334321D01*
X12662706Y14421260D01*
X12628785Y14503155D01*
X12618663Y14518304D01*
X12636858Y14530462D01*
X12699538Y14593142D01*
X12711696Y14611337D01*
X12726845Y14601215D01*
X12808740Y14567294D01*
X12895679Y14550000D01*
X12984321Y14550000D01*
X13071260Y14567294D01*
X13153155Y14601215D01*
X13226858Y14650462D01*
X13289538Y14713142D01*
X13338785Y14786845D01*
X13372706Y14868740D01*
X13390000Y14955679D01*
X13390000Y15044321D01*
X13372706Y15131260D01*
X13338785Y15213155D01*
X13328663Y15228304D01*
X13346858Y15240462D01*
X13409538Y15303142D01*
X13417076Y15314424D01*
X13436845Y15301215D01*
X13518740Y15267294D01*
X13605679Y15250000D01*
X13694321Y15250000D01*
X13781260Y15267294D01*
X13863155Y15301215D01*
X13936858Y15350462D01*
X13999538Y15413142D01*
X14048785Y15486845D01*
X14082706Y15568740D01*
X14100000Y15655679D01*
X14100000Y15744321D01*
X14082706Y15831260D01*
X14048785Y15913155D01*
X14035576Y15932924D01*
X14046858Y15940462D01*
X14109538Y16003142D01*
X14158785Y16076845D01*
X14192706Y16158740D01*
X14210000Y16245679D01*
X14210000Y16334321D01*
X14192706Y16421260D01*
X14158785Y16503155D01*
X14109538Y16576858D01*
X14046858Y16639538D01*
X13973155Y16688785D01*
X13891260Y16722706D01*
X13804321Y16740000D01*
X13715679Y16740000D01*
X13628740Y16722706D01*
X13546845Y16688785D01*
X13473142Y16639538D01*
X13410462Y16576858D01*
X13361215Y16503155D01*
X13327294Y16421260D01*
X13310000Y16334321D01*
X13310000Y16245679D01*
X13327294Y16158740D01*
X13361215Y16076845D01*
X13374424Y16057076D01*
X13363142Y16049538D01*
X13300462Y15986858D01*
X13292924Y15975576D01*
X13273155Y15988785D01*
X13191260Y16022706D01*
X13104321Y16040000D01*
X13015679Y16040000D01*
X12928740Y16022706D01*
X12846845Y15988785D01*
X12773142Y15939538D01*
X12710462Y15876858D01*
X12661215Y15803155D01*
X12627294Y15721260D01*
X12610000Y15634321D01*
X12610000Y15545679D01*
X12627294Y15458740D01*
X12661215Y15376845D01*
X12671337Y15361696D01*
X12653142Y15349538D01*
X12590462Y15286858D01*
X12578304Y15268663D01*
X12563155Y15278785D01*
X12481260Y15312706D01*
X12394321Y15330000D01*
X12305679Y15330000D01*
X12218740Y15312706D01*
X12136845Y15278785D01*
X12063142Y15229538D01*
X12000462Y15166858D01*
X11951215Y15093155D01*
X11917294Y15011260D01*
X11900000Y14924321D01*
X11900000Y14835679D01*
X11917294Y14748740D01*
X11951215Y14666845D01*
X11961337Y14651696D01*
X11943142Y14639538D01*
X11880462Y14576858D01*
X11831215Y14503155D01*
X11797294Y14421260D01*
X11780000Y14334321D01*
X6563155Y14334321D01*
X6538785Y14393155D01*
X6489538Y14466858D01*
X6426858Y14529538D01*
X6353155Y14578785D01*
X6271260Y14612706D01*
X6184321Y14630000D01*
X6095679Y14630000D01*
X6008740Y14612706D01*
X5926845Y14578785D01*
X5911696Y14568663D01*
X5899538Y14586858D01*
X5836858Y14649538D01*
X5763155Y14698785D01*
X5681260Y14732706D01*
X5594321Y14750000D01*
X5505679Y14750000D01*
X5418740Y14732706D01*
X5336845Y14698785D01*
X5263142Y14649538D01*
X5200462Y14586858D01*
X5151215Y14513155D01*
X5117294Y14431260D01*
X5100000Y14344321D01*
X2224404Y14344321D01*
X2178344Y14455520D01*
X2066170Y14623400D01*
X1923400Y14766170D01*
X1755520Y14878344D01*
X1568982Y14955610D01*
X1370954Y14995000D01*
X1169046Y14995000D01*
X971018Y14955610D01*
X784480Y14878344D01*
X616600Y14766170D01*
X475000Y14624570D01*
X475000Y15855430D01*
X616600Y15713830D01*
X784480Y15601656D01*
X971018Y15524390D01*
X1169046Y15485000D01*
X1370954Y15485000D01*
X1568982Y15524390D01*
X1755520Y15601656D01*
X1879236Y15684321D01*
X3390000Y15684321D01*
X3390000Y15595679D01*
X3407294Y15508740D01*
X3441215Y15426845D01*
X3490462Y15353142D01*
X3553142Y15290462D01*
X3626845Y15241215D01*
X3708740Y15207294D01*
X3795679Y15190000D01*
X3884321Y15190000D01*
X3971260Y15207294D01*
X4041772Y15236500D01*
X4047294Y15208740D01*
X4081215Y15126845D01*
X4130462Y15053142D01*
X4193142Y14990462D01*
X4266845Y14941215D01*
X4348740Y14907294D01*
X4435679Y14890000D01*
X4524321Y14890000D01*
X4611260Y14907294D01*
X4693155Y14941215D01*
X4724456Y14962130D01*
X4730462Y14953142D01*
X4793142Y14890462D01*
X4866845Y14841215D01*
X4948740Y14807294D01*
X5035679Y14790000D01*
X5124321Y14790000D01*
X5211260Y14807294D01*
X5293155Y14841215D01*
X5366858Y14890462D01*
X5429538Y14953142D01*
X5478785Y15026845D01*
X5512706Y15108740D01*
X5530000Y15195679D01*
X5530000Y15284321D01*
X5512706Y15371260D01*
X5478785Y15453155D01*
X5429538Y15526858D01*
X5366858Y15589538D01*
X5293155Y15638785D01*
X5211260Y15672706D01*
X5124321Y15690000D01*
X5035679Y15690000D01*
X4948740Y15672706D01*
X4866845Y15638785D01*
X4835544Y15617870D01*
X4829538Y15626858D01*
X4766858Y15689538D01*
X4750957Y15700163D01*
X4768785Y15726845D01*
X4802706Y15808740D01*
X4820000Y15895679D01*
X4820000Y15984321D01*
X4802706Y16071260D01*
X4768785Y16153155D01*
X4719538Y16226858D01*
X4656858Y16289538D01*
X4583155Y16338785D01*
X4501260Y16372706D01*
X4414321Y16390000D01*
X4325679Y16390000D01*
X4238740Y16372706D01*
X4156845Y16338785D01*
X4083142Y16289538D01*
X4020462Y16226858D01*
X3971215Y16153155D01*
X3940433Y16078838D01*
X3884321Y16090000D01*
X3795679Y16090000D01*
X3708740Y16072706D01*
X3626845Y16038785D01*
X3553142Y15989538D01*
X3490462Y15926858D01*
X3441215Y15853155D01*
X3407294Y15771260D01*
X3390000Y15684321D01*
X1879236Y15684321D01*
X1923400Y15713830D01*
X2066170Y15856600D01*
X2178344Y16024480D01*
X2255610Y16211018D01*
X2295000Y16409046D01*
X2295000Y16610954D01*
X2255610Y16808982D01*
X2178344Y16995520D01*
X2066170Y17163400D01*
X1965249Y17264321D01*
X13550000Y17264321D01*
X13550000Y17175679D01*
X13567294Y17088740D01*
X13601215Y17006845D01*
X13650462Y16933142D01*
X13713142Y16870462D01*
X13786845Y16821215D01*
X13868740Y16787294D01*
X13955679Y16770000D01*
X14044321Y16770000D01*
X14131260Y16787294D01*
X14213155Y16821215D01*
X14286858Y16870462D01*
X14349538Y16933142D01*
X14398785Y17006845D01*
X14432706Y17088740D01*
X14450000Y17175679D01*
X14450000Y17264321D01*
X14432706Y17351260D01*
X14398785Y17433155D01*
X14349538Y17506858D01*
X14286858Y17569538D01*
X14213155Y17618785D01*
X14131260Y17652706D01*
X14044321Y17670000D01*
X13955679Y17670000D01*
X13868740Y17652706D01*
X13786845Y17618785D01*
X13713142Y17569538D01*
X13650462Y17506858D01*
X13601215Y17433155D01*
X13567294Y17351260D01*
X13550000Y17264321D01*
X1965249Y17264321D01*
X1923400Y17306170D01*
X1755520Y17418344D01*
X1568982Y17495610D01*
X1370954Y17535000D01*
X1169046Y17535000D01*
X971018Y17495610D01*
X784480Y17418344D01*
X616600Y17306170D01*
X475000Y17164570D01*
X475000Y18395430D01*
X616600Y18253830D01*
X784480Y18141656D01*
X971018Y18064390D01*
X1169046Y18025000D01*
X1370954Y18025000D01*
X1568982Y18064390D01*
X1755520Y18141656D01*
X1923400Y18253830D01*
X2066170Y18396600D01*
X2178344Y18564480D01*
X2255610Y18751018D01*
X2295000Y18949046D01*
X2295000Y19150954D01*
X2282396Y19214321D01*
X2530000Y19214321D01*
X2530000Y19125679D01*
X2547294Y19038740D01*
X2581215Y18956845D01*
X2630462Y18883142D01*
X2693142Y18820462D01*
X2766845Y18771215D01*
X2848740Y18737294D01*
X2935679Y18720000D01*
X3024321Y18720000D01*
X3111260Y18737294D01*
X3193155Y18771215D01*
X3266858Y18820462D01*
X3329538Y18883142D01*
X3378785Y18956845D01*
X3412706Y19038740D01*
X3430000Y19125679D01*
X3430000Y19214321D01*
X3412706Y19301260D01*
X3378785Y19383155D01*
X3329538Y19456858D01*
X3266858Y19519538D01*
X3193155Y19568785D01*
X3111260Y19602706D01*
X3024321Y19620000D01*
X2935679Y19620000D01*
X2848740Y19602706D01*
X2766845Y19568785D01*
X2693142Y19519538D01*
X2630462Y19456858D01*
X2581215Y19383155D01*
X2547294Y19301260D01*
X2530000Y19214321D01*
X2282396Y19214321D01*
X2255610Y19348982D01*
X2178344Y19535520D01*
X2066170Y19703400D01*
X1923400Y19846170D01*
X1791473Y19934321D01*
X3540000Y19934321D01*
X3540000Y19845679D01*
X3557294Y19758740D01*
X3591215Y19676845D01*
X3640462Y19603142D01*
X3703142Y19540462D01*
X3776845Y19491215D01*
X3858740Y19457294D01*
X3945679Y19440000D01*
X4034321Y19440000D01*
X4121260Y19457294D01*
X4138225Y19464321D01*
X4540000Y19464321D01*
X4540000Y19375679D01*
X4557294Y19288740D01*
X4591215Y19206845D01*
X4640462Y19133142D01*
X4703142Y19070462D01*
X4776845Y19021215D01*
X4858740Y18987294D01*
X4945679Y18970000D01*
X5034321Y18970000D01*
X5121260Y18987294D01*
X5203155Y19021215D01*
X5276858Y19070462D01*
X5339538Y19133142D01*
X5388785Y19206845D01*
X5422706Y19288740D01*
X5440000Y19375679D01*
X5440000Y19464321D01*
X5422706Y19551260D01*
X5388785Y19633155D01*
X5339538Y19706858D01*
X5276858Y19769538D01*
X5203155Y19818785D01*
X5121260Y19852706D01*
X5034321Y19870000D01*
X4945679Y19870000D01*
X4858740Y19852706D01*
X4776845Y19818785D01*
X4703142Y19769538D01*
X4640462Y19706858D01*
X4591215Y19633155D01*
X4557294Y19551260D01*
X4540000Y19464321D01*
X4138225Y19464321D01*
X4203155Y19491215D01*
X4276858Y19540462D01*
X4339538Y19603142D01*
X4388785Y19676845D01*
X4422706Y19758740D01*
X4440000Y19845679D01*
X4440000Y19934321D01*
X4422706Y20021260D01*
X4400729Y20074321D01*
X5340000Y20074321D01*
X5340000Y19985679D01*
X5357294Y19898740D01*
X5391215Y19816845D01*
X5440462Y19743142D01*
X5503142Y19680462D01*
X5576845Y19631215D01*
X5658740Y19597294D01*
X5745679Y19580000D01*
X5834321Y19580000D01*
X5921260Y19597294D01*
X6003155Y19631215D01*
X6076858Y19680462D01*
X6139538Y19743142D01*
X6188785Y19816845D01*
X6222706Y19898740D01*
X6225805Y19914321D01*
X12570000Y19914321D01*
X12570000Y19825679D01*
X12587294Y19738740D01*
X12621215Y19656845D01*
X12670462Y19583142D01*
X12722952Y19530652D01*
X12691215Y19483155D01*
X12657294Y19401260D01*
X12640000Y19314321D01*
X12640000Y19225679D01*
X12657294Y19138740D01*
X12691215Y19056845D01*
X12740462Y18983142D01*
X12803142Y18920462D01*
X12876845Y18871215D01*
X12958740Y18837294D01*
X13045679Y18820000D01*
X13134321Y18820000D01*
X13221260Y18837294D01*
X13303155Y18871215D01*
X13376858Y18920462D01*
X13439538Y18983142D01*
X13488785Y19056845D01*
X13522706Y19138740D01*
X13530913Y19180000D01*
X13614321Y19180000D01*
X13701260Y19197294D01*
X13783155Y19231215D01*
X13856858Y19280462D01*
X13919538Y19343142D01*
X13968785Y19416845D01*
X14002706Y19498740D01*
X14020000Y19585679D01*
X14020000Y19674321D01*
X14002706Y19761260D01*
X13968785Y19843155D01*
X13919538Y19916858D01*
X13856858Y19979538D01*
X13783155Y20028785D01*
X13701260Y20062706D01*
X13614321Y20080000D01*
X13525679Y20080000D01*
X13438740Y20062706D01*
X13428937Y20058646D01*
X13418785Y20083155D01*
X13369538Y20156858D01*
X13308146Y20218250D01*
X13358740Y20197294D01*
X13445679Y20180000D01*
X13534321Y20180000D01*
X13621260Y20197294D01*
X13703155Y20231215D01*
X13776858Y20280462D01*
X13839538Y20343142D01*
X13888785Y20416845D01*
X13922706Y20498740D01*
X13940000Y20585679D01*
X13940000Y20674321D01*
X13922706Y20761260D01*
X13888785Y20843155D01*
X13839538Y20916858D01*
X13776858Y20979538D01*
X13703155Y21028785D01*
X13645478Y21052675D01*
X13660000Y21125679D01*
X13660000Y21214321D01*
X13642706Y21301260D01*
X13638440Y21311560D01*
X13648740Y21307294D01*
X13735679Y21290000D01*
X13824321Y21290000D01*
X13911260Y21307294D01*
X13993155Y21341215D01*
X14066858Y21390462D01*
X14129538Y21453142D01*
X14178785Y21526845D01*
X14212706Y21608740D01*
X14219562Y21643206D01*
X14235679Y21640000D01*
X14324321Y21640000D01*
X14411260Y21657294D01*
X14493155Y21691215D01*
X14566858Y21740462D01*
X14629538Y21803142D01*
X14678785Y21876845D01*
X14712706Y21958740D01*
X14730000Y22045679D01*
X14730000Y22134321D01*
X14712706Y22221260D01*
X14678785Y22303155D01*
X14629538Y22376858D01*
X14566858Y22439538D01*
X14493155Y22488785D01*
X14411260Y22522706D01*
X14324321Y22540000D01*
X14235679Y22540000D01*
X14148740Y22522706D01*
X14066845Y22488785D01*
X13993142Y22439538D01*
X13930462Y22376858D01*
X13881215Y22303155D01*
X13847294Y22221260D01*
X13840438Y22186794D01*
X13824321Y22190000D01*
X13735679Y22190000D01*
X13648740Y22172706D01*
X13566845Y22138785D01*
X13493142Y22089538D01*
X13430462Y22026858D01*
X13381215Y21953155D01*
X13347294Y21871260D01*
X13330000Y21784321D01*
X13330000Y21695679D01*
X13347294Y21608740D01*
X13351560Y21598440D01*
X13341260Y21602706D01*
X13254321Y21620000D01*
X13165679Y21620000D01*
X13078740Y21602706D01*
X12996845Y21568785D01*
X12923142Y21519538D01*
X12860462Y21456858D01*
X12811215Y21383155D01*
X12777294Y21301260D01*
X12760000Y21214321D01*
X12760000Y21125679D01*
X12777294Y21038740D01*
X12811215Y20956845D01*
X12860462Y20883142D01*
X12923142Y20820462D01*
X12996845Y20771215D01*
X13054522Y20747325D01*
X13040000Y20674321D01*
X13040000Y20585679D01*
X13057294Y20498740D01*
X13091215Y20416845D01*
X13140462Y20343142D01*
X13201854Y20281750D01*
X13151260Y20302706D01*
X13064321Y20320000D01*
X12975679Y20320000D01*
X12888740Y20302706D01*
X12806845Y20268785D01*
X12733142Y20219538D01*
X12670462Y20156858D01*
X12621215Y20083155D01*
X12587294Y20001260D01*
X12570000Y19914321D01*
X6225805Y19914321D01*
X6240000Y19985679D01*
X6240000Y20074321D01*
X6222706Y20161260D01*
X6188785Y20243155D01*
X6163251Y20281370D01*
X6176858Y20290462D01*
X6239538Y20353142D01*
X6245544Y20362130D01*
X6276845Y20341215D01*
X6358740Y20307294D01*
X6445679Y20290000D01*
X6534321Y20290000D01*
X6621260Y20307294D01*
X6703155Y20341215D01*
X6776858Y20390462D01*
X6839538Y20453142D01*
X6888785Y20526845D01*
X6922706Y20608740D01*
X6940000Y20695679D01*
X6940000Y20784321D01*
X6922706Y20871260D01*
X6888785Y20953155D01*
X6867870Y20984456D01*
X6876858Y20990462D01*
X6939538Y21053142D01*
X6988785Y21126845D01*
X7022706Y21208740D01*
X7040000Y21295679D01*
X7040000Y21384321D01*
X7022706Y21471260D01*
X6988785Y21553155D01*
X6939538Y21626858D01*
X6876858Y21689538D01*
X6803155Y21738785D01*
X6721260Y21772706D01*
X6634321Y21790000D01*
X6545679Y21790000D01*
X6458740Y21772706D01*
X6376845Y21738785D01*
X6303142Y21689538D01*
X6240462Y21626858D01*
X6191215Y21553155D01*
X6157294Y21471260D01*
X6140000Y21384321D01*
X6140000Y21295679D01*
X6157294Y21208740D01*
X6191215Y21126845D01*
X6212130Y21095544D01*
X6203142Y21089538D01*
X6140462Y21026858D01*
X6134456Y21017870D01*
X6103155Y21038785D01*
X6021260Y21072706D01*
X5934321Y21090000D01*
X5845679Y21090000D01*
X5758740Y21072706D01*
X5676845Y21038785D01*
X5603142Y20989538D01*
X5540462Y20926858D01*
X5491215Y20853155D01*
X5457294Y20771260D01*
X5440000Y20684321D01*
X5440000Y20595679D01*
X5457294Y20508740D01*
X5491215Y20426845D01*
X5516749Y20388630D01*
X5503142Y20379538D01*
X5440462Y20316858D01*
X5391215Y20243155D01*
X5357294Y20161260D01*
X5340000Y20074321D01*
X4400729Y20074321D01*
X4388785Y20103155D01*
X4339538Y20176858D01*
X4276858Y20239538D01*
X4203155Y20288785D01*
X4121260Y20322706D01*
X4034321Y20340000D01*
X3945679Y20340000D01*
X3858740Y20322706D01*
X3776845Y20288785D01*
X3703142Y20239538D01*
X3640462Y20176858D01*
X3591215Y20103155D01*
X3557294Y20021260D01*
X3540000Y19934321D01*
X1791473Y19934321D01*
X1755520Y19958344D01*
X1568982Y20035610D01*
X1370954Y20075000D01*
X1169046Y20075000D01*
X971018Y20035610D01*
X784480Y19958344D01*
X616600Y19846170D01*
X475000Y19704570D01*
X475000Y20935430D01*
X616600Y20793830D01*
X784480Y20681656D01*
X971018Y20604390D01*
X1169046Y20565000D01*
X1370954Y20565000D01*
X1568982Y20604390D01*
X1755520Y20681656D01*
X1923400Y20793830D01*
X2066170Y20936600D01*
X2178344Y21104480D01*
X2255610Y21291018D01*
X2295000Y21489046D01*
X2295000Y21690954D01*
X2264494Y21844321D01*
X7100000Y21844321D01*
X7100000Y21755679D01*
X7117294Y21668740D01*
X7151215Y21586845D01*
X7200462Y21513142D01*
X7263142Y21450462D01*
X7336845Y21401215D01*
X7418740Y21367294D01*
X7505679Y21350000D01*
X7594321Y21350000D01*
X7681260Y21367294D01*
X7763155Y21401215D01*
X7836858Y21450462D01*
X7899538Y21513142D01*
X7948785Y21586845D01*
X7982706Y21668740D01*
X7995751Y21734321D01*
X10330000Y21734321D01*
X10330000Y21645679D01*
X10347294Y21558740D01*
X10381215Y21476845D01*
X10430462Y21403142D01*
X10493142Y21340462D01*
X10566845Y21291215D01*
X10648740Y21257294D01*
X10690000Y21249087D01*
X10690000Y21165679D01*
X10707294Y21078740D01*
X10741215Y20996845D01*
X10790462Y20923142D01*
X10853142Y20860462D01*
X10926845Y20811215D01*
X11008740Y20777294D01*
X11095679Y20760000D01*
X11184321Y20760000D01*
X11271260Y20777294D01*
X11340812Y20806103D01*
X11361215Y20756845D01*
X11371337Y20741696D01*
X11353142Y20729538D01*
X11290462Y20666858D01*
X11241215Y20593155D01*
X11207294Y20511260D01*
X11190000Y20424321D01*
X11190000Y20335679D01*
X11207294Y20248740D01*
X11241215Y20166845D01*
X11290462Y20093142D01*
X11353142Y20030462D01*
X11426845Y19981215D01*
X11508740Y19947294D01*
X11595679Y19930000D01*
X11684321Y19930000D01*
X11771260Y19947294D01*
X11853155Y19981215D01*
X11926858Y20030462D01*
X11989538Y20093142D01*
X12015554Y20132078D01*
X12016845Y20131215D01*
X12098740Y20097294D01*
X12185679Y20080000D01*
X12274321Y20080000D01*
X12361260Y20097294D01*
X12443155Y20131215D01*
X12516858Y20180462D01*
X12579538Y20243142D01*
X12628785Y20316845D01*
X12662706Y20398740D01*
X12680000Y20485679D01*
X12680000Y20574321D01*
X12662706Y20661260D01*
X12628785Y20743155D01*
X12579538Y20816858D01*
X12516858Y20879538D01*
X12443155Y20928785D01*
X12361260Y20962706D01*
X12274321Y20980000D01*
X12210000Y20980000D01*
X12210000Y21014321D01*
X12192706Y21101260D01*
X12158785Y21183155D01*
X12109538Y21256858D01*
X12046858Y21319538D01*
X11973155Y21368785D01*
X11891260Y21402706D01*
X11804321Y21420000D01*
X11715679Y21420000D01*
X11628740Y21402706D01*
X11559188Y21373897D01*
X11538785Y21423155D01*
X11489538Y21496858D01*
X11426858Y21559538D01*
X11353155Y21608785D01*
X11271260Y21642706D01*
X11230000Y21650913D01*
X11230000Y21734321D01*
X11212706Y21821260D01*
X11178785Y21903155D01*
X11129538Y21976858D01*
X11066858Y22039538D01*
X10993155Y22088785D01*
X10911260Y22122706D01*
X10824321Y22140000D01*
X10735679Y22140000D01*
X10648740Y22122706D01*
X10566845Y22088785D01*
X10493142Y22039538D01*
X10430462Y21976858D01*
X10381215Y21903155D01*
X10347294Y21821260D01*
X10330000Y21734321D01*
X7995751Y21734321D01*
X8000000Y21755679D01*
X8000000Y21844321D01*
X7982706Y21931260D01*
X7968807Y21964817D01*
X7981260Y21967294D01*
X8063155Y22001215D01*
X8136858Y22050462D01*
X8199538Y22113142D01*
X8248785Y22186845D01*
X8282706Y22268740D01*
X8300000Y22355679D01*
X8300000Y22444321D01*
X8282706Y22531260D01*
X8248785Y22613155D01*
X8199538Y22686858D01*
X8136858Y22749538D01*
X8063155Y22798785D01*
X7981260Y22832706D01*
X7894321Y22850000D01*
X7805679Y22850000D01*
X7718740Y22832706D01*
X7636845Y22798785D01*
X7563142Y22749538D01*
X7500462Y22686858D01*
X7451215Y22613155D01*
X7417294Y22531260D01*
X7400000Y22444321D01*
X7400000Y22355679D01*
X7417294Y22268740D01*
X7431193Y22235183D01*
X7418740Y22232706D01*
X7336845Y22198785D01*
X7263142Y22149538D01*
X7200462Y22086858D01*
X7151215Y22013155D01*
X7117294Y21931260D01*
X7100000Y21844321D01*
X2264494Y21844321D01*
X2255610Y21888982D01*
X2178344Y22075520D01*
X2066170Y22243400D01*
X1923400Y22386170D01*
X1755520Y22498344D01*
X1568982Y22575610D01*
X1370954Y22615000D01*
X1169046Y22615000D01*
X971018Y22575610D01*
X784480Y22498344D01*
X616600Y22386170D01*
X475000Y22244570D01*
X475000Y23475430D01*
X616600Y23333830D01*
X784480Y23221656D01*
X971018Y23144390D01*
X1169046Y23105000D01*
X1370954Y23105000D01*
X1568982Y23144390D01*
X1755520Y23221656D01*
X1923400Y23333830D01*
X2066170Y23476600D01*
X2178344Y23644480D01*
X2255610Y23831018D01*
X2295000Y24029046D01*
X2295000Y24230954D01*
X2255610Y24428982D01*
X2236831Y24474321D01*
X8010000Y24474321D01*
X8010000Y24385679D01*
X8027294Y24298740D01*
X8061215Y24216845D01*
X8110462Y24143142D01*
X8173142Y24080462D01*
X8246845Y24031215D01*
X8328740Y23997294D01*
X8415679Y23980000D01*
X8504321Y23980000D01*
X8591260Y23997294D01*
X8673155Y24031215D01*
X8746858Y24080462D01*
X8809538Y24143142D01*
X8858785Y24216845D01*
X8892706Y24298740D01*
X8910000Y24385679D01*
X8910000Y24474321D01*
X8892706Y24561260D01*
X8858785Y24643155D01*
X8809538Y24716858D01*
X8746858Y24779538D01*
X8673155Y24828785D01*
X8591260Y24862706D01*
X8504321Y24880000D01*
X8415679Y24880000D01*
X8328740Y24862706D01*
X8246845Y24828785D01*
X8173142Y24779538D01*
X8110462Y24716858D01*
X8061215Y24643155D01*
X8027294Y24561260D01*
X8010000Y24474321D01*
X2236831Y24474321D01*
X2178344Y24615520D01*
X2066170Y24783400D01*
X1923400Y24926170D01*
X1755520Y25038344D01*
X1568982Y25115610D01*
X1370954Y25155000D01*
X1169046Y25155000D01*
X971018Y25115610D01*
X784480Y25038344D01*
X616600Y24926170D01*
X475000Y24784570D01*
X475000Y26015430D01*
X616600Y25873830D01*
X784480Y25761656D01*
X971018Y25684390D01*
X1169046Y25645000D01*
X1370954Y25645000D01*
X1568982Y25684390D01*
X1755520Y25761656D01*
X1923400Y25873830D01*
X1923891Y25874321D01*
X3300000Y25874321D01*
X3300000Y25785679D01*
X3317294Y25698740D01*
X3351215Y25616845D01*
X3400462Y25543142D01*
X3463142Y25480462D01*
X3536845Y25431215D01*
X3618740Y25397294D01*
X3705679Y25380000D01*
X3794321Y25380000D01*
X3881260Y25397294D01*
X3963155Y25431215D01*
X4036858Y25480462D01*
X4099538Y25543142D01*
X4148785Y25616845D01*
X4182706Y25698740D01*
X4200000Y25785679D01*
X4200000Y25874321D01*
X4196022Y25894321D01*
X4470000Y25894321D01*
X4470000Y25805679D01*
X4487294Y25718740D01*
X4521215Y25636845D01*
X4570462Y25563142D01*
X4633142Y25500462D01*
X4706845Y25451215D01*
X4788740Y25417294D01*
X4875679Y25400000D01*
X4964321Y25400000D01*
X5051260Y25417294D01*
X5133155Y25451215D01*
X5206858Y25500462D01*
X5269538Y25563142D01*
X5296659Y25603731D01*
X5330462Y25553142D01*
X5393142Y25490462D01*
X5466845Y25441215D01*
X5548740Y25407294D01*
X5635679Y25390000D01*
X5724321Y25390000D01*
X5811260Y25407294D01*
X5893155Y25441215D01*
X5966858Y25490462D01*
X6029538Y25553142D01*
X6078785Y25626845D01*
X6112706Y25708740D01*
X6130000Y25795679D01*
X6130000Y25884321D01*
X6112706Y25971260D01*
X6078785Y26053155D01*
X6029538Y26126858D01*
X5982075Y26174321D01*
X11780000Y26174321D01*
X11780000Y26085679D01*
X11797294Y25998740D01*
X11831215Y25916845D01*
X11880462Y25843142D01*
X11943142Y25780462D01*
X12016845Y25731215D01*
X12098740Y25697294D01*
X12185679Y25680000D01*
X12274321Y25680000D01*
X12361260Y25697294D01*
X12443155Y25731215D01*
X12516858Y25780462D01*
X12579538Y25843142D01*
X12628785Y25916845D01*
X12662706Y25998740D01*
X12680000Y26085679D01*
X12680000Y26174321D01*
X12662706Y26261260D01*
X12628785Y26343155D01*
X12579538Y26416858D01*
X12516858Y26479538D01*
X12443155Y26528785D01*
X12361260Y26562706D01*
X12274321Y26580000D01*
X12185679Y26580000D01*
X12098740Y26562706D01*
X12016845Y26528785D01*
X11943142Y26479538D01*
X11880462Y26416858D01*
X11831215Y26343155D01*
X11797294Y26261260D01*
X11780000Y26174321D01*
X5982075Y26174321D01*
X5966858Y26189538D01*
X5893155Y26238785D01*
X5811260Y26272706D01*
X5724321Y26290000D01*
X5635679Y26290000D01*
X5548740Y26272706D01*
X5466845Y26238785D01*
X5393142Y26189538D01*
X5330462Y26126858D01*
X5303341Y26086269D01*
X5269538Y26136858D01*
X5206858Y26199538D01*
X5133155Y26248785D01*
X5051260Y26282706D01*
X4964321Y26300000D01*
X4875679Y26300000D01*
X4788740Y26282706D01*
X4706845Y26248785D01*
X4633142Y26199538D01*
X4570462Y26136858D01*
X4521215Y26063155D01*
X4487294Y25981260D01*
X4470000Y25894321D01*
X4196022Y25894321D01*
X4182706Y25961260D01*
X4148785Y26043155D01*
X4099538Y26116858D01*
X4036858Y26179538D01*
X3963155Y26228785D01*
X3881260Y26262706D01*
X3794321Y26280000D01*
X3705679Y26280000D01*
X3618740Y26262706D01*
X3536845Y26228785D01*
X3463142Y26179538D01*
X3400462Y26116858D01*
X3351215Y26043155D01*
X3317294Y25961260D01*
X3300000Y25874321D01*
X1923891Y25874321D01*
X2066170Y26016600D01*
X2178344Y26184480D01*
X2255610Y26371018D01*
X2295000Y26569046D01*
X2295000Y26770954D01*
X2255610Y26968982D01*
X2178344Y27155520D01*
X2066170Y27323400D01*
X1923400Y27466170D01*
X1755520Y27578344D01*
X1568982Y27655610D01*
X1370954Y27695000D01*
X1169046Y27695000D01*
X971018Y27655610D01*
X784480Y27578344D01*
X616600Y27466170D01*
X475000Y27324570D01*
X475000Y27814321D01*
X3430000Y27814321D01*
X3430000Y27725679D01*
X3447294Y27638740D01*
X3481215Y27556845D01*
X3530462Y27483142D01*
X3593142Y27420462D01*
X3666845Y27371215D01*
X3748740Y27337294D01*
X3835679Y27320000D01*
X3924321Y27320000D01*
X4011260Y27337294D01*
X4093155Y27371215D01*
X4166858Y27420462D01*
X4229538Y27483142D01*
X4278785Y27556845D01*
X4312706Y27638740D01*
X4330000Y27725679D01*
X4330000Y27774321D01*
X8040000Y27774321D01*
X8040000Y27685679D01*
X8057294Y27598740D01*
X8091215Y27516845D01*
X8140462Y27443142D01*
X8203142Y27380462D01*
X8276845Y27331215D01*
X8358740Y27297294D01*
X8445679Y27280000D01*
X8534321Y27280000D01*
X8621260Y27297294D01*
X8703155Y27331215D01*
X8722769Y27344321D01*
X13110000Y27344321D01*
X13110000Y27255679D01*
X13127294Y27168740D01*
X13161215Y27086845D01*
X13210462Y27013142D01*
X13273142Y26950462D01*
X13273833Y26950000D01*
X13273142Y26949538D01*
X13210462Y26886858D01*
X13161215Y26813155D01*
X13127294Y26731260D01*
X13110000Y26644321D01*
X13110000Y26555679D01*
X13127294Y26468740D01*
X13161215Y26386845D01*
X13210462Y26313142D01*
X13273142Y26250462D01*
X13346845Y26201215D01*
X13428740Y26167294D01*
X13515679Y26150000D01*
X13604321Y26150000D01*
X13691260Y26167294D01*
X13773155Y26201215D01*
X13846858Y26250462D01*
X13909538Y26313142D01*
X13958785Y26386845D01*
X13992706Y26468740D01*
X14010000Y26555679D01*
X14010000Y26644321D01*
X13992706Y26731260D01*
X13958785Y26813155D01*
X13909538Y26886858D01*
X13846858Y26949538D01*
X13846167Y26950000D01*
X13846858Y26950462D01*
X13909538Y27013142D01*
X13958785Y27086845D01*
X13992706Y27168740D01*
X14010000Y27255679D01*
X14010000Y27344321D01*
X13992706Y27431260D01*
X13958785Y27513155D01*
X13909538Y27586858D01*
X13846858Y27649538D01*
X13773155Y27698785D01*
X13691260Y27732706D01*
X13604321Y27750000D01*
X13515679Y27750000D01*
X13428740Y27732706D01*
X13346845Y27698785D01*
X13273142Y27649538D01*
X13210462Y27586858D01*
X13161215Y27513155D01*
X13127294Y27431260D01*
X13110000Y27344321D01*
X8722769Y27344321D01*
X8776858Y27380462D01*
X8839538Y27443142D01*
X8888785Y27516845D01*
X8922706Y27598740D01*
X8940000Y27685679D01*
X8940000Y27774321D01*
X8922706Y27861260D01*
X8888785Y27943155D01*
X8839538Y28016858D01*
X8776858Y28079538D01*
X8703155Y28128785D01*
X8621260Y28162706D01*
X8534321Y28180000D01*
X8445679Y28180000D01*
X8358740Y28162706D01*
X8276845Y28128785D01*
X8203142Y28079538D01*
X8140462Y28016858D01*
X8091215Y27943155D01*
X8057294Y27861260D01*
X8040000Y27774321D01*
X4330000Y27774321D01*
X4330000Y27814321D01*
X4312706Y27901260D01*
X4278785Y27983155D01*
X4229538Y28056858D01*
X4166858Y28119538D01*
X4093155Y28168785D01*
X4011260Y28202706D01*
X3924321Y28220000D01*
X3835679Y28220000D01*
X3748740Y28202706D01*
X3666845Y28168785D01*
X3593142Y28119538D01*
X3530462Y28056858D01*
X3481215Y27983155D01*
X3447294Y27901260D01*
X3430000Y27814321D01*
X475000Y27814321D01*
X475000Y28555430D01*
X616600Y28413830D01*
X784480Y28301656D01*
X971018Y28224390D01*
X1169046Y28185000D01*
X1370954Y28185000D01*
X1568982Y28224390D01*
X1755520Y28301656D01*
X1923400Y28413830D01*
X2066170Y28556600D01*
X2178344Y28724480D01*
X2255610Y28911018D01*
X2295000Y29109046D01*
X2295000Y29310954D01*
X2255610Y29508982D01*
X2178344Y29695520D01*
X2148624Y29740000D01*
X3845000Y29740000D01*
X3845000Y29190000D01*
X3868685Y29049520D01*
X3919321Y28916360D01*
X3994963Y28795637D01*
X4092703Y28691991D01*
X4208785Y28609405D01*
X4338749Y28551052D01*
X4407471Y28533452D01*
X4520000Y28573122D01*
X4520000Y29740000D01*
X4620000Y29740000D01*
X4620000Y28573122D01*
X4732529Y28533452D01*
X4801251Y28551052D01*
X4931215Y28609405D01*
X5047297Y28691991D01*
X5145037Y28795637D01*
X5220679Y28916360D01*
X5271315Y29049520D01*
X5295000Y29190000D01*
X5295000Y29740000D01*
X4620000Y29740000D01*
X4520000Y29740000D01*
X3845000Y29740000D01*
X2148624Y29740000D01*
X2066170Y29863400D01*
X1923400Y30006170D01*
X1755520Y30118344D01*
X1568982Y30195610D01*
X1370954Y30235000D01*
X1169046Y30235000D01*
X971018Y30195610D01*
X784480Y30118344D01*
X616600Y30006170D01*
X475000Y29864570D01*
X475000Y30390000D01*
X3845000Y30390000D01*
X3845000Y29840000D01*
X4520000Y29840000D01*
X4520000Y31006878D01*
X4620000Y31006878D01*
X4620000Y29840000D01*
X5295000Y29840000D01*
X5295000Y30374170D01*
X5450000Y30374170D01*
X5450000Y30265830D01*
X5471136Y30159571D01*
X5512597Y30059477D01*
X5572787Y29969396D01*
X5649396Y29892787D01*
X5739477Y29832597D01*
X5839571Y29791136D01*
X5945830Y29770000D01*
X6054170Y29770000D01*
X6160429Y29791136D01*
X6260523Y29832597D01*
X6350604Y29892787D01*
X6427213Y29969396D01*
X6487403Y30059477D01*
X6528864Y30159571D01*
X6539754Y30214321D01*
X6770000Y30214321D01*
X6770000Y30125679D01*
X6787294Y30038740D01*
X6821215Y29956845D01*
X6870462Y29883142D01*
X6933142Y29820462D01*
X7006845Y29771215D01*
X7088740Y29737294D01*
X7175679Y29720000D01*
X7264321Y29720000D01*
X7351260Y29737294D01*
X7433155Y29771215D01*
X7506858Y29820462D01*
X7569538Y29883142D01*
X7618785Y29956845D01*
X7652706Y30038740D01*
X7670000Y30125679D01*
X7670000Y30214321D01*
X10110000Y30214321D01*
X10110000Y30125679D01*
X10127294Y30038740D01*
X10161215Y29956845D01*
X10210462Y29883142D01*
X10273142Y29820462D01*
X10346845Y29771215D01*
X10428740Y29737294D01*
X10515679Y29720000D01*
X10604321Y29720000D01*
X10691260Y29737294D01*
X10697793Y29740000D01*
X12485000Y29740000D01*
X12485000Y29190000D01*
X12508685Y29049520D01*
X12559321Y28916360D01*
X12634963Y28795637D01*
X12732703Y28691991D01*
X12848785Y28609405D01*
X12978749Y28551052D01*
X13047471Y28533452D01*
X13160000Y28573122D01*
X13160000Y29740000D01*
X13260000Y29740000D01*
X13260000Y28573122D01*
X13372529Y28533452D01*
X13441251Y28551052D01*
X13571215Y28609405D01*
X13687297Y28691991D01*
X13785037Y28795637D01*
X13860679Y28916360D01*
X13911315Y29049520D01*
X13935000Y29190000D01*
X13935000Y29740000D01*
X13260000Y29740000D01*
X13160000Y29740000D01*
X12485000Y29740000D01*
X10697793Y29740000D01*
X10773155Y29771215D01*
X10846858Y29820462D01*
X10909538Y29883142D01*
X10958785Y29956845D01*
X10992706Y30038740D01*
X11010000Y30125679D01*
X11010000Y30214321D01*
X10992706Y30301260D01*
X10962507Y30374170D01*
X11230000Y30374170D01*
X11230000Y30265830D01*
X11251136Y30159571D01*
X11292597Y30059477D01*
X11352787Y29969396D01*
X11429396Y29892787D01*
X11519477Y29832597D01*
X11619571Y29791136D01*
X11725830Y29770000D01*
X11834170Y29770000D01*
X11940429Y29791136D01*
X12040523Y29832597D01*
X12130604Y29892787D01*
X12207213Y29969396D01*
X12267403Y30059477D01*
X12308864Y30159571D01*
X12330000Y30265830D01*
X12330000Y30374170D01*
X12326852Y30390000D01*
X12485000Y30390000D01*
X12485000Y29840000D01*
X13160000Y29840000D01*
X13160000Y31006878D01*
X13260000Y31006878D01*
X13260000Y29840000D01*
X13935000Y29840000D01*
X13935000Y30390000D01*
X13911315Y30530480D01*
X13860679Y30663640D01*
X13785037Y30784363D01*
X13687297Y30888009D01*
X13571215Y30970595D01*
X13441251Y31028948D01*
X13372529Y31046548D01*
X13260000Y31006878D01*
X13160000Y31006878D01*
X13047471Y31046548D01*
X12978749Y31028948D01*
X12848785Y30970595D01*
X12732703Y30888009D01*
X12634963Y30784363D01*
X12559321Y30663640D01*
X12508685Y30530480D01*
X12485000Y30390000D01*
X12326852Y30390000D01*
X12308864Y30480429D01*
X12267403Y30580523D01*
X12207213Y30670604D01*
X12130604Y30747213D01*
X12040523Y30807403D01*
X11940429Y30848864D01*
X11834170Y30870000D01*
X11725830Y30870000D01*
X11619571Y30848864D01*
X11519477Y30807403D01*
X11429396Y30747213D01*
X11352787Y30670604D01*
X11292597Y30580523D01*
X11251136Y30480429D01*
X11230000Y30374170D01*
X10962507Y30374170D01*
X10958785Y30383155D01*
X10909538Y30456858D01*
X10846858Y30519538D01*
X10773155Y30568785D01*
X10691260Y30602706D01*
X10604321Y30620000D01*
X10515679Y30620000D01*
X10428740Y30602706D01*
X10346845Y30568785D01*
X10273142Y30519538D01*
X10210462Y30456858D01*
X10161215Y30383155D01*
X10127294Y30301260D01*
X10110000Y30214321D01*
X7670000Y30214321D01*
X7652706Y30301260D01*
X7618785Y30383155D01*
X7569538Y30456858D01*
X7506858Y30519538D01*
X7433155Y30568785D01*
X7351260Y30602706D01*
X7264321Y30620000D01*
X7175679Y30620000D01*
X7088740Y30602706D01*
X7006845Y30568785D01*
X6933142Y30519538D01*
X6870462Y30456858D01*
X6821215Y30383155D01*
X6787294Y30301260D01*
X6770000Y30214321D01*
X6539754Y30214321D01*
X6550000Y30265830D01*
X6550000Y30374170D01*
X6528864Y30480429D01*
X6487403Y30580523D01*
X6427213Y30670604D01*
X6350604Y30747213D01*
X6260523Y30807403D01*
X6160429Y30848864D01*
X6054170Y30870000D01*
X5945830Y30870000D01*
X5839571Y30848864D01*
X5739477Y30807403D01*
X5649396Y30747213D01*
X5572787Y30670604D01*
X5512597Y30580523D01*
X5471136Y30480429D01*
X5450000Y30374170D01*
X5295000Y30374170D01*
X5295000Y30390000D01*
X5271315Y30530480D01*
X5220679Y30663640D01*
X5145037Y30784363D01*
X5047297Y30888009D01*
X4931215Y30970595D01*
X4801251Y31028948D01*
X4732529Y31046548D01*
X4620000Y31006878D01*
X4520000Y31006878D01*
X4407471Y31046548D01*
X4338749Y31028948D01*
X4208785Y30970595D01*
X4092703Y30888009D01*
X3994963Y30784363D01*
X3919321Y30663640D01*
X3868685Y30530480D01*
X3845000Y30390000D01*
X475000Y30390000D01*
X475000Y31095430D01*
X616600Y30953830D01*
X784480Y30841656D01*
X971018Y30764390D01*
X1169046Y30725000D01*
X1370954Y30725000D01*
X1568982Y30764390D01*
X1755520Y30841656D01*
X1923400Y30953830D01*
X2066170Y31096600D01*
X2178344Y31264480D01*
X2255610Y31451018D01*
X2295000Y31649046D01*
X2295000Y31850954D01*
X2255610Y32048982D01*
X2178344Y32235520D01*
X2066170Y32403400D01*
X1923400Y32546170D01*
X1755520Y32658344D01*
X1568982Y32735610D01*
X1370954Y32775000D01*
X1169046Y32775000D01*
X971018Y32735610D01*
X784480Y32658344D01*
X616600Y32546170D01*
X475000Y32404570D01*
X475000Y33635430D01*
X616600Y33493830D01*
X784480Y33381656D01*
X971018Y33304390D01*
X1169046Y33265000D01*
X1370954Y33265000D01*
X1568982Y33304390D01*
X1755520Y33381656D01*
X1923400Y33493830D01*
X2066170Y33636600D01*
X2178344Y33804480D01*
X2226193Y33920000D01*
X3845000Y33920000D01*
X3845000Y33620000D01*
X3868685Y33479520D01*
X3919321Y33346360D01*
X3994963Y33225637D01*
X4092703Y33121991D01*
X4208785Y33039405D01*
X4338749Y32981052D01*
X4407471Y32963452D01*
X4520000Y33003122D01*
X4520000Y33920000D01*
X4620000Y33920000D01*
X4620000Y33003122D01*
X4732529Y32963452D01*
X4801251Y32981052D01*
X4931215Y33039405D01*
X5047297Y33121991D01*
X5145037Y33225637D01*
X5220679Y33346360D01*
X5271315Y33479520D01*
X5295000Y33620000D01*
X5295000Y33920000D01*
X12485000Y33920000D01*
X12485000Y33620000D01*
X12508685Y33479520D01*
X12559321Y33346360D01*
X12634963Y33225637D01*
X12732703Y33121991D01*
X12848785Y33039405D01*
X12978749Y32981052D01*
X13047471Y32963452D01*
X13160000Y33003122D01*
X13160000Y33920000D01*
X13260000Y33920000D01*
X13260000Y33003122D01*
X13372529Y32963452D01*
X13441251Y32981052D01*
X13571215Y33039405D01*
X13687297Y33121991D01*
X13785037Y33225637D01*
X13860679Y33346360D01*
X13911315Y33479520D01*
X13935000Y33620000D01*
X13935000Y33920000D01*
X13260000Y33920000D01*
X13160000Y33920000D01*
X12485000Y33920000D01*
X5295000Y33920000D01*
X4620000Y33920000D01*
X4520000Y33920000D01*
X3845000Y33920000D01*
X2226193Y33920000D01*
X2255610Y33991018D01*
X2295000Y34189046D01*
X2295000Y34320000D01*
X3845000Y34320000D01*
X3845000Y34020000D01*
X4520000Y34020000D01*
X4520000Y34936878D01*
X4620000Y34936878D01*
X4620000Y34020000D01*
X5295000Y34020000D01*
X5295000Y34320000D01*
X12485000Y34320000D01*
X12485000Y34020000D01*
X13160000Y34020000D01*
X13160000Y34936878D01*
X13260000Y34936878D01*
X13260000Y34020000D01*
X13935000Y34020000D01*
X13935000Y34320000D01*
X13911315Y34460480D01*
X13860679Y34593640D01*
X13785037Y34714363D01*
X13687297Y34818009D01*
X13571215Y34900595D01*
X13441251Y34958948D01*
X13372529Y34976548D01*
X13260000Y34936878D01*
X13160000Y34936878D01*
X13047471Y34976548D01*
X12978749Y34958948D01*
X12848785Y34900595D01*
X12732703Y34818009D01*
X12634963Y34714363D01*
X12559321Y34593640D01*
X12508685Y34460480D01*
X12485000Y34320000D01*
X5295000Y34320000D01*
X5271315Y34460480D01*
X5220679Y34593640D01*
X5145037Y34714363D01*
X5047297Y34818009D01*
X4931215Y34900595D01*
X4801251Y34958948D01*
X4732529Y34976548D01*
X4620000Y34936878D01*
X4520000Y34936878D01*
X4407471Y34976548D01*
X4338749Y34958948D01*
X4208785Y34900595D01*
X4092703Y34818009D01*
X3994963Y34714363D01*
X3919321Y34593640D01*
X3868685Y34460480D01*
X3845000Y34320000D01*
X2295000Y34320000D01*
X2295000Y34390954D01*
X2255610Y34588982D01*
X2178344Y34775520D01*
X2066170Y34943400D01*
X1924570Y35085000D01*
X15855430Y35085000D01*
X15713830Y34943400D01*
G04 #@! TA.AperFunction,Conductor*
D15*
G36*
X15713830Y34943400D02*
G01*
X15601656Y34775520D01*
X15524390Y34588982D01*
X15485000Y34390954D01*
X15485000Y34189046D01*
X15524390Y33991018D01*
X15601656Y33804480D01*
X15713830Y33636600D01*
X15856600Y33493830D01*
X16024480Y33381656D01*
X16211018Y33304390D01*
X16409046Y33265000D01*
X16610954Y33265000D01*
X16808982Y33304390D01*
X16995520Y33381656D01*
X17163400Y33493830D01*
X17305001Y33635431D01*
X17305001Y32404569D01*
X17163400Y32546170D01*
X16995520Y32658344D01*
X16808982Y32735610D01*
X16610954Y32775000D01*
X16409046Y32775000D01*
X16211018Y32735610D01*
X16024480Y32658344D01*
X15856600Y32546170D01*
X15713830Y32403400D01*
X15601656Y32235520D01*
X15524390Y32048982D01*
X15485000Y31850954D01*
X15485000Y31649046D01*
X15524390Y31451018D01*
X15601656Y31264480D01*
X15713830Y31096600D01*
X15856600Y30953830D01*
X16024480Y30841656D01*
X16211018Y30764390D01*
X16409046Y30725000D01*
X16610954Y30725000D01*
X16808982Y30764390D01*
X16995520Y30841656D01*
X17163400Y30953830D01*
X17305001Y31095431D01*
X17305001Y29864569D01*
X17163400Y30006170D01*
X16995520Y30118344D01*
X16808982Y30195610D01*
X16610954Y30235000D01*
X16409046Y30235000D01*
X16211018Y30195610D01*
X16024480Y30118344D01*
X15856600Y30006170D01*
X15713830Y29863400D01*
X15601656Y29695520D01*
X15524390Y29508982D01*
X15485000Y29310954D01*
X15485000Y29109046D01*
X15524390Y28911018D01*
X15601656Y28724480D01*
X15713830Y28556600D01*
X15856600Y28413830D01*
X16024480Y28301656D01*
X16211018Y28224390D01*
X16409046Y28185000D01*
X16610954Y28185000D01*
X16808982Y28224390D01*
X16995520Y28301656D01*
X17163400Y28413830D01*
X17305001Y28555431D01*
X17305001Y27324569D01*
X17163400Y27466170D01*
X16995520Y27578344D01*
X16808982Y27655610D01*
X16610954Y27695000D01*
X16409046Y27695000D01*
X16211018Y27655610D01*
X16024480Y27578344D01*
X15856600Y27466170D01*
X15713830Y27323400D01*
X15601656Y27155520D01*
X15524390Y26968982D01*
X15485000Y26770954D01*
X15485000Y26569046D01*
X15524390Y26371018D01*
X15601656Y26184480D01*
X15713830Y26016600D01*
X15856600Y25873830D01*
X16024480Y25761656D01*
X16211018Y25684390D01*
X16409046Y25645000D01*
X16610954Y25645000D01*
X16808982Y25684390D01*
X16995520Y25761656D01*
X17163400Y25873830D01*
X17305001Y26015431D01*
X17305001Y24784569D01*
X17163400Y24926170D01*
X16995520Y25038344D01*
X16808982Y25115610D01*
X16610954Y25155000D01*
X16409046Y25155000D01*
X16211018Y25115610D01*
X16024480Y25038344D01*
X15856600Y24926170D01*
X15713830Y24783400D01*
X15601656Y24615520D01*
X15524390Y24428982D01*
X15485000Y24230954D01*
X15485000Y24029046D01*
X15524390Y23831018D01*
X15601656Y23644480D01*
X15713830Y23476600D01*
X15856600Y23333830D01*
X16024480Y23221656D01*
X16211018Y23144390D01*
X16409046Y23105000D01*
X16610954Y23105000D01*
X16808982Y23144390D01*
X16995520Y23221656D01*
X17163400Y23333830D01*
X17305001Y23475431D01*
X17305001Y22244569D01*
X17163400Y22386170D01*
X16995520Y22498344D01*
X16808982Y22575610D01*
X16610954Y22615000D01*
X16409046Y22615000D01*
X16211018Y22575610D01*
X16024480Y22498344D01*
X15856600Y22386170D01*
X15713830Y22243400D01*
X15601656Y22075520D01*
X15524390Y21888982D01*
X15485000Y21690954D01*
X15485000Y21489046D01*
X15524390Y21291018D01*
X15601656Y21104480D01*
X15713830Y20936600D01*
X15856600Y20793830D01*
X16024480Y20681656D01*
X16211018Y20604390D01*
X16409046Y20565000D01*
X16610954Y20565000D01*
X16808982Y20604390D01*
X16995520Y20681656D01*
X17163400Y20793830D01*
X17305001Y20935431D01*
X17305001Y19704569D01*
X17163400Y19846170D01*
X16995520Y19958344D01*
X16808982Y20035610D01*
X16610954Y20075000D01*
X16409046Y20075000D01*
X16211018Y20035610D01*
X16024480Y19958344D01*
X15856600Y19846170D01*
X15713830Y19703400D01*
X15601656Y19535520D01*
X15524390Y19348982D01*
X15485000Y19150954D01*
X15485000Y18949046D01*
X15524390Y18751018D01*
X15601656Y18564480D01*
X15713830Y18396600D01*
X15856600Y18253830D01*
X16024480Y18141656D01*
X16211018Y18064390D01*
X16409046Y18025000D01*
X16610954Y18025000D01*
X16808982Y18064390D01*
X16995520Y18141656D01*
X17163400Y18253830D01*
X17305001Y18395431D01*
X17305000Y17164570D01*
X17163400Y17306170D01*
X16995520Y17418344D01*
X16808982Y17495610D01*
X16610954Y17535000D01*
X16409046Y17535000D01*
X16211018Y17495610D01*
X16024480Y17418344D01*
X15856600Y17306170D01*
X15713830Y17163400D01*
X15601656Y16995520D01*
X15524390Y16808982D01*
X15485000Y16610954D01*
X15485000Y16409046D01*
X15524390Y16211018D01*
X15601656Y16024480D01*
X15713830Y15856600D01*
X15856600Y15713830D01*
X16024480Y15601656D01*
X16211018Y15524390D01*
X16409046Y15485000D01*
X16610954Y15485000D01*
X16808982Y15524390D01*
X16995520Y15601656D01*
X17163400Y15713830D01*
X17305000Y15855430D01*
X17305000Y14624570D01*
X17163400Y14766170D01*
X16995520Y14878344D01*
X16808982Y14955610D01*
X16610954Y14995000D01*
X16409046Y14995000D01*
X16211018Y14955610D01*
X16024480Y14878344D01*
X15856600Y14766170D01*
X15713830Y14623400D01*
X15601656Y14455520D01*
X15524390Y14268982D01*
X15485000Y14070954D01*
X15485000Y13869046D01*
X15524390Y13671018D01*
X15601656Y13484480D01*
X15713830Y13316600D01*
X15856600Y13173830D01*
X16024480Y13061656D01*
X16211018Y12984390D01*
X16409046Y12945000D01*
X16610954Y12945000D01*
X16808982Y12984390D01*
X16995520Y13061656D01*
X17163400Y13173830D01*
X17305000Y13315430D01*
X17305000Y12084570D01*
X17163400Y12226170D01*
X16995520Y12338344D01*
X16808982Y12415610D01*
X16610954Y12455000D01*
X16409046Y12455000D01*
X16211018Y12415610D01*
X16024480Y12338344D01*
X15856600Y12226170D01*
X15713830Y12083400D01*
X15601656Y11915520D01*
X15524390Y11728982D01*
X15485000Y11530954D01*
X15485000Y11329046D01*
X15524390Y11131018D01*
X15601656Y10944480D01*
X15713830Y10776600D01*
X15856600Y10633830D01*
X16024480Y10521656D01*
X16211018Y10444390D01*
X16409046Y10405000D01*
X16610954Y10405000D01*
X16808982Y10444390D01*
X16995520Y10521656D01*
X17163400Y10633830D01*
X17305000Y10775430D01*
X17305000Y9544570D01*
X17163400Y9686170D01*
X16995520Y9798344D01*
X16808982Y9875610D01*
X16610954Y9915000D01*
X16409046Y9915000D01*
X16211018Y9875610D01*
X16024480Y9798344D01*
X15856600Y9686170D01*
X15713830Y9543400D01*
X15601656Y9375520D01*
X15524390Y9188982D01*
X15485000Y8990954D01*
X15485000Y8789046D01*
X15524390Y8591018D01*
X15601656Y8404480D01*
X15713830Y8236600D01*
X15856600Y8093830D01*
X16024480Y7981656D01*
X16211018Y7904390D01*
X16409046Y7865000D01*
X16610954Y7865000D01*
X16808982Y7904390D01*
X16995520Y7981656D01*
X17163400Y8093830D01*
X17305000Y8235430D01*
X17305000Y7004570D01*
X17163400Y7146170D01*
X16995520Y7258344D01*
X16808982Y7335610D01*
X16610954Y7375000D01*
X16409046Y7375000D01*
X16211018Y7335610D01*
X16024480Y7258344D01*
X15856600Y7146170D01*
X15713830Y7003400D01*
X15601656Y6835520D01*
X15524390Y6648982D01*
X15485000Y6450954D01*
X15485000Y6249046D01*
X15524390Y6051018D01*
X15601656Y5864480D01*
X15713830Y5696600D01*
X15856600Y5553830D01*
X16024480Y5441656D01*
X16211018Y5364390D01*
X16409046Y5325000D01*
X16610954Y5325000D01*
X16808982Y5364390D01*
X16995520Y5441656D01*
X17163400Y5553830D01*
X17305000Y5695430D01*
X17305000Y4464570D01*
X17163400Y4606170D01*
X16995520Y4718344D01*
X16808982Y4795610D01*
X16610954Y4835000D01*
X16409046Y4835000D01*
X16211018Y4795610D01*
X16024480Y4718344D01*
X15856600Y4606170D01*
X15713830Y4463400D01*
X15601656Y4295520D01*
X15524390Y4108982D01*
X15485000Y3910954D01*
X15485000Y3709046D01*
X15524390Y3511018D01*
X15601656Y3324480D01*
X15713830Y3156600D01*
X15856600Y3013830D01*
X16024480Y2901656D01*
X16211018Y2824390D01*
X16409046Y2785000D01*
X16610954Y2785000D01*
X16808982Y2824390D01*
X16995520Y2901656D01*
X17163400Y3013830D01*
X17305000Y3155430D01*
X17305000Y1924570D01*
X17163400Y2066170D01*
X16995520Y2178344D01*
X16808982Y2255610D01*
X16610954Y2295000D01*
X16409046Y2295000D01*
X16211018Y2255610D01*
X16024480Y2178344D01*
X15856600Y2066170D01*
X15713830Y1923400D01*
X15601656Y1755520D01*
X15524390Y1568982D01*
X15485000Y1370954D01*
X15485000Y1169046D01*
X15524390Y971018D01*
X15601656Y784480D01*
X15713830Y616600D01*
X15855430Y475000D01*
X14624570Y475000D01*
X14766170Y616600D01*
X14878344Y784480D01*
X14955610Y971018D01*
X14995000Y1169046D01*
X14995000Y1370954D01*
X14955610Y1568982D01*
X14878344Y1755520D01*
X14766170Y1923400D01*
X14623400Y2066170D01*
X14455520Y2178344D01*
X14268982Y2255610D01*
X14070954Y2295000D01*
X13869046Y2295000D01*
X13671018Y2255610D01*
X13484480Y2178344D01*
X13316600Y2066170D01*
X13173830Y1923400D01*
X13061656Y1755520D01*
X12984390Y1568982D01*
X12945000Y1370954D01*
X12945000Y1169046D01*
X12984390Y971018D01*
X13061656Y784480D01*
X13173830Y616600D01*
X13315430Y475000D01*
X12084570Y475000D01*
X12226170Y616600D01*
X12338344Y784480D01*
X12415610Y971018D01*
X12455000Y1169046D01*
X12455000Y1370954D01*
X12415610Y1568982D01*
X12338344Y1755520D01*
X12226170Y1923400D01*
X12083400Y2066170D01*
X11915520Y2178344D01*
X11728982Y2255610D01*
X11530954Y2295000D01*
X11329046Y2295000D01*
X11131018Y2255610D01*
X10944480Y2178344D01*
X10776600Y2066170D01*
X10633830Y1923400D01*
X10521656Y1755520D01*
X10444390Y1568982D01*
X10405000Y1370954D01*
X10405000Y1169046D01*
X10444390Y971018D01*
X10521656Y784480D01*
X10633830Y616600D01*
X10775430Y475000D01*
X9496537Y475000D01*
X9542253Y547036D01*
X8890000Y1199289D01*
X8237747Y547036D01*
X8283463Y475000D01*
X7004570Y475000D01*
X7146170Y616600D01*
X7258344Y784480D01*
X7335610Y971018D01*
X7375000Y1169046D01*
X7375000Y1260427D01*
X7860083Y1260427D01*
X7881741Y1059684D01*
X7942145Y867023D01*
X8028337Y705769D01*
X8167036Y617747D01*
X8819289Y1270000D01*
X8960711Y1270000D01*
X9612964Y617747D01*
X9751663Y705769D01*
X9845182Y884712D01*
X9901994Y1078462D01*
X9919917Y1279573D01*
X9898259Y1480316D01*
X9837855Y1672977D01*
X9751663Y1834231D01*
X9612964Y1922253D01*
X8960711Y1270000D01*
X8819289Y1270000D01*
X8167036Y1922253D01*
X8028337Y1834231D01*
X7934818Y1655288D01*
X7878006Y1461538D01*
X7860083Y1260427D01*
X7375000Y1260427D01*
X7375000Y1370954D01*
X7335610Y1568982D01*
X7258344Y1755520D01*
X7146170Y1923400D01*
X7076606Y1992964D01*
X8237747Y1992964D01*
X8890000Y1340711D01*
X9542253Y1992964D01*
X9454231Y2131663D01*
X9275288Y2225182D01*
X9081538Y2281994D01*
X8880427Y2299917D01*
X8679684Y2278259D01*
X8487023Y2217855D01*
X8325769Y2131663D01*
X8237747Y1992964D01*
X7076606Y1992964D01*
X7003400Y2066170D01*
X6835520Y2178344D01*
X6648982Y2255610D01*
X6450954Y2295000D01*
X6249046Y2295000D01*
X6051018Y2255610D01*
X5864480Y2178344D01*
X5696600Y2066170D01*
X5553830Y1923400D01*
X5441656Y1755520D01*
X5364390Y1568982D01*
X5325000Y1370954D01*
X5325000Y1169046D01*
X5364390Y971018D01*
X5441656Y784480D01*
X5553830Y616600D01*
X5695430Y475000D01*
X4464570Y475000D01*
X4606170Y616600D01*
X4718344Y784480D01*
X4795610Y971018D01*
X4835000Y1169046D01*
X4835000Y1370954D01*
X4795610Y1568982D01*
X4718344Y1755520D01*
X4606170Y1923400D01*
X4463400Y2066170D01*
X4295520Y2178344D01*
X4108982Y2255610D01*
X3910954Y2295000D01*
X3709046Y2295000D01*
X3511018Y2255610D01*
X3324480Y2178344D01*
X3156600Y2066170D01*
X3013830Y1923400D01*
X2901656Y1755520D01*
X2824390Y1568982D01*
X2785000Y1370954D01*
X2785000Y1169046D01*
X2824390Y971018D01*
X2901656Y784480D01*
X3013830Y616600D01*
X3155430Y475000D01*
X1876537Y475000D01*
X1922253Y547036D01*
X1270000Y1199289D01*
X617747Y547036D01*
X663463Y475000D01*
X523228Y475000D01*
X495587Y477710D01*
X491341Y478992D01*
X487426Y481074D01*
X483990Y483877D01*
X481163Y487294D01*
X479051Y491198D01*
X477742Y495429D01*
X475000Y521516D01*
X475000Y663463D01*
X547036Y617747D01*
X1199289Y1270000D01*
X1340711Y1270000D01*
X1992964Y617747D01*
X2131663Y705769D01*
X2225182Y884712D01*
X2281994Y1078462D01*
X2299917Y1279573D01*
X2278259Y1480316D01*
X2217855Y1672977D01*
X2131663Y1834231D01*
X1992964Y1922253D01*
X1340711Y1270000D01*
X1199289Y1270000D01*
X547036Y1922253D01*
X475000Y1876537D01*
X475000Y1992964D01*
X617747Y1992964D01*
X1270000Y1340711D01*
X1922253Y1992964D01*
X1834231Y2131663D01*
X1655288Y2225182D01*
X1461538Y2281994D01*
X1260427Y2299917D01*
X1059684Y2278259D01*
X867023Y2217855D01*
X705769Y2131663D01*
X617747Y1992964D01*
X475000Y1992964D01*
X475000Y2584321D01*
X9710000Y2584321D01*
X9710000Y2495679D01*
X9727294Y2408740D01*
X9761215Y2326845D01*
X9810462Y2253142D01*
X9873142Y2190462D01*
X9946845Y2141215D01*
X10028740Y2107294D01*
X10115679Y2090000D01*
X10204321Y2090000D01*
X10291260Y2107294D01*
X10373155Y2141215D01*
X10446858Y2190462D01*
X10509538Y2253142D01*
X10558785Y2326845D01*
X10592706Y2408740D01*
X10610000Y2495679D01*
X10610000Y2584321D01*
X10592706Y2671260D01*
X10558785Y2753155D01*
X10509538Y2826858D01*
X10446858Y2889538D01*
X10373155Y2938785D01*
X10291260Y2972706D01*
X10204321Y2990000D01*
X10115679Y2990000D01*
X10028740Y2972706D01*
X9946845Y2938785D01*
X9873142Y2889538D01*
X9810462Y2826858D01*
X9761215Y2753155D01*
X9727294Y2671260D01*
X9710000Y2584321D01*
X475000Y2584321D01*
X475000Y3155430D01*
X616600Y3013830D01*
X784480Y2901656D01*
X971018Y2824390D01*
X1169046Y2785000D01*
X1370954Y2785000D01*
X1568982Y2824390D01*
X1755520Y2901656D01*
X1923400Y3013830D01*
X2066170Y3156600D01*
X2178344Y3324480D01*
X2255610Y3511018D01*
X2295000Y3709046D01*
X2295000Y3910954D01*
X2785000Y3910954D01*
X2785000Y3709046D01*
X2824390Y3511018D01*
X2901656Y3324480D01*
X3013830Y3156600D01*
X3156600Y3013830D01*
X3324480Y2901656D01*
X3511018Y2824390D01*
X3709046Y2785000D01*
X3910954Y2785000D01*
X4108982Y2824390D01*
X4295520Y2901656D01*
X4463400Y3013830D01*
X4606170Y3156600D01*
X4718344Y3324480D01*
X4795610Y3511018D01*
X4835000Y3709046D01*
X4835000Y3910954D01*
X5325000Y3910954D01*
X5325000Y3709046D01*
X5364390Y3511018D01*
X5441656Y3324480D01*
X5553830Y3156600D01*
X5696600Y3013830D01*
X5864480Y2901656D01*
X6051018Y2824390D01*
X6249046Y2785000D01*
X6450954Y2785000D01*
X6648982Y2824390D01*
X6835520Y2901656D01*
X7003400Y3013830D01*
X7146170Y3156600D01*
X7258344Y3324480D01*
X7335610Y3511018D01*
X7375000Y3709046D01*
X7375000Y3910954D01*
X7865000Y3910954D01*
X7865000Y3709046D01*
X7904390Y3511018D01*
X7981656Y3324480D01*
X8093830Y3156600D01*
X8236600Y3013830D01*
X8404480Y2901656D01*
X8591018Y2824390D01*
X8789046Y2785000D01*
X8990954Y2785000D01*
X9188982Y2824390D01*
X9375520Y2901656D01*
X9543400Y3013830D01*
X9686170Y3156600D01*
X9798344Y3324480D01*
X9875610Y3511018D01*
X9915000Y3709046D01*
X9915000Y3910954D01*
X10405000Y3910954D01*
X10405000Y3709046D01*
X10444390Y3511018D01*
X10521656Y3324480D01*
X10633830Y3156600D01*
X10776600Y3013830D01*
X10944480Y2901656D01*
X11131018Y2824390D01*
X11329046Y2785000D01*
X11530954Y2785000D01*
X11728982Y2824390D01*
X11915520Y2901656D01*
X12083400Y3013830D01*
X12226170Y3156600D01*
X12338344Y3324480D01*
X12415610Y3511018D01*
X12455000Y3709046D01*
X12455000Y3910954D01*
X12945000Y3910954D01*
X12945000Y3709046D01*
X12984390Y3511018D01*
X13061656Y3324480D01*
X13173830Y3156600D01*
X13316600Y3013830D01*
X13484480Y2901656D01*
X13671018Y2824390D01*
X13869046Y2785000D01*
X14070954Y2785000D01*
X14268982Y2824390D01*
X14455520Y2901656D01*
X14623400Y3013830D01*
X14766170Y3156600D01*
X14878344Y3324480D01*
X14955610Y3511018D01*
X14995000Y3709046D01*
X14995000Y3910954D01*
X14955610Y4108982D01*
X14878344Y4295520D01*
X14766170Y4463400D01*
X14623400Y4606170D01*
X14455520Y4718344D01*
X14268982Y4795610D01*
X14070954Y4835000D01*
X13869046Y4835000D01*
X13671018Y4795610D01*
X13484480Y4718344D01*
X13316600Y4606170D01*
X13173830Y4463400D01*
X13061656Y4295520D01*
X12984390Y4108982D01*
X12945000Y3910954D01*
X12455000Y3910954D01*
X12415610Y4108982D01*
X12338344Y4295520D01*
X12226170Y4463400D01*
X12083400Y4606170D01*
X11915520Y4718344D01*
X11728982Y4795610D01*
X11530954Y4835000D01*
X11329046Y4835000D01*
X11131018Y4795610D01*
X10944480Y4718344D01*
X10776600Y4606170D01*
X10633830Y4463400D01*
X10521656Y4295520D01*
X10444390Y4108982D01*
X10405000Y3910954D01*
X9915000Y3910954D01*
X9875610Y4108982D01*
X9798344Y4295520D01*
X9686170Y4463400D01*
X9543400Y4606170D01*
X9375520Y4718344D01*
X9188982Y4795610D01*
X8990954Y4835000D01*
X8789046Y4835000D01*
X8591018Y4795610D01*
X8404480Y4718344D01*
X8236600Y4606170D01*
X8093830Y4463400D01*
X7981656Y4295520D01*
X7904390Y4108982D01*
X7865000Y3910954D01*
X7375000Y3910954D01*
X7335610Y4108982D01*
X7258344Y4295520D01*
X7146170Y4463400D01*
X7003400Y4606170D01*
X6835520Y4718344D01*
X6648982Y4795610D01*
X6450954Y4835000D01*
X6249046Y4835000D01*
X6051018Y4795610D01*
X5864480Y4718344D01*
X5696600Y4606170D01*
X5553830Y4463400D01*
X5441656Y4295520D01*
X5364390Y4108982D01*
X5325000Y3910954D01*
X4835000Y3910954D01*
X4795610Y4108982D01*
X4718344Y4295520D01*
X4606170Y4463400D01*
X4463400Y4606170D01*
X4295520Y4718344D01*
X4108982Y4795610D01*
X3910954Y4835000D01*
X3709046Y4835000D01*
X3511018Y4795610D01*
X3324480Y4718344D01*
X3156600Y4606170D01*
X3013830Y4463400D01*
X2901656Y4295520D01*
X2824390Y4108982D01*
X2785000Y3910954D01*
X2295000Y3910954D01*
X2255610Y4108982D01*
X2178344Y4295520D01*
X2066170Y4463400D01*
X1923400Y4606170D01*
X1755520Y4718344D01*
X1568982Y4795610D01*
X1370954Y4835000D01*
X1169046Y4835000D01*
X971018Y4795610D01*
X784480Y4718344D01*
X616600Y4606170D01*
X475000Y4464570D01*
X475000Y5695430D01*
X616600Y5553830D01*
X784480Y5441656D01*
X971018Y5364390D01*
X1169046Y5325000D01*
X1370954Y5325000D01*
X1568982Y5364390D01*
X1755520Y5441656D01*
X1923400Y5553830D01*
X2066170Y5696600D01*
X2178344Y5864480D01*
X2255610Y6051018D01*
X2295000Y6249046D01*
X2295000Y6450954D01*
X2294331Y6454321D01*
X4620000Y6454321D01*
X4620000Y6365679D01*
X4637294Y6278740D01*
X4671215Y6196845D01*
X4720462Y6123142D01*
X4783142Y6060462D01*
X4856845Y6011215D01*
X4938740Y5977294D01*
X5025679Y5960000D01*
X5114321Y5960000D01*
X5201260Y5977294D01*
X5283155Y6011215D01*
X5356858Y6060462D01*
X5419538Y6123142D01*
X5468785Y6196845D01*
X5502706Y6278740D01*
X5520000Y6365679D01*
X5520000Y6454321D01*
X5502706Y6541260D01*
X5468785Y6623155D01*
X5419538Y6696858D01*
X5356858Y6759538D01*
X5283155Y6808785D01*
X5201260Y6842706D01*
X5114321Y6860000D01*
X5025679Y6860000D01*
X4938740Y6842706D01*
X4856845Y6808785D01*
X4783142Y6759538D01*
X4720462Y6696858D01*
X4671215Y6623155D01*
X4637294Y6541260D01*
X4620000Y6454321D01*
X2294331Y6454321D01*
X2255610Y6648982D01*
X2178344Y6835520D01*
X2066170Y7003400D01*
X1923400Y7146170D01*
X1881270Y7174321D01*
X12720000Y7174321D01*
X12720000Y7085679D01*
X12737294Y6998740D01*
X12771215Y6916845D01*
X12820462Y6843142D01*
X12883142Y6780462D01*
X12956845Y6731215D01*
X13038740Y6697294D01*
X13125679Y6680000D01*
X13214321Y6680000D01*
X13301260Y6697294D01*
X13383155Y6731215D01*
X13456858Y6780462D01*
X13519538Y6843142D01*
X13568785Y6916845D01*
X13602706Y6998740D01*
X13620000Y7085679D01*
X13620000Y7174321D01*
X13602706Y7261260D01*
X13568785Y7343155D01*
X13519538Y7416858D01*
X13456858Y7479538D01*
X13383155Y7528785D01*
X13301260Y7562706D01*
X13214321Y7580000D01*
X13125679Y7580000D01*
X13038740Y7562706D01*
X12956845Y7528785D01*
X12883142Y7479538D01*
X12820462Y7416858D01*
X12771215Y7343155D01*
X12737294Y7261260D01*
X12720000Y7174321D01*
X1881270Y7174321D01*
X1755520Y7258344D01*
X1568982Y7335610D01*
X1370954Y7375000D01*
X1169046Y7375000D01*
X971018Y7335610D01*
X784480Y7258344D01*
X616600Y7146170D01*
X475000Y7004570D01*
X475000Y8235430D01*
X616600Y8093830D01*
X784480Y7981656D01*
X971018Y7904390D01*
X1169046Y7865000D01*
X1370954Y7865000D01*
X1568982Y7904390D01*
X1755520Y7981656D01*
X1923400Y8093830D01*
X2066170Y8236600D01*
X2178237Y8404321D01*
X11960000Y8404321D01*
X11960000Y8315679D01*
X11977294Y8228740D01*
X12011215Y8146845D01*
X12060462Y8073142D01*
X12123142Y8010462D01*
X12196845Y7961215D01*
X12278740Y7927294D01*
X12365679Y7910000D01*
X12454321Y7910000D01*
X12541260Y7927294D01*
X12623155Y7961215D01*
X12696858Y8010462D01*
X12759538Y8073142D01*
X12808785Y8146845D01*
X12842706Y8228740D01*
X12860000Y8315679D01*
X12860000Y8404321D01*
X12846076Y8474321D01*
X13860000Y8474321D01*
X13860000Y8385679D01*
X13877294Y8298740D01*
X13911215Y8216845D01*
X13960462Y8143142D01*
X14023142Y8080462D01*
X14023833Y8080000D01*
X14023142Y8079538D01*
X13960462Y8016858D01*
X13911215Y7943155D01*
X13877294Y7861260D01*
X13860000Y7774321D01*
X13860000Y7685679D01*
X13877294Y7598740D01*
X13911215Y7516845D01*
X13960462Y7443142D01*
X14023142Y7380462D01*
X14096845Y7331215D01*
X14178740Y7297294D01*
X14265679Y7280000D01*
X14354321Y7280000D01*
X14441260Y7297294D01*
X14523155Y7331215D01*
X14596858Y7380462D01*
X14659538Y7443142D01*
X14708785Y7516845D01*
X14742706Y7598740D01*
X14760000Y7685679D01*
X14760000Y7774321D01*
X14742706Y7861260D01*
X14708785Y7943155D01*
X14659538Y8016858D01*
X14596858Y8079538D01*
X14596167Y8080000D01*
X14596858Y8080462D01*
X14659538Y8143142D01*
X14708785Y8216845D01*
X14742706Y8298740D01*
X14760000Y8385679D01*
X14760000Y8474321D01*
X14742706Y8561260D01*
X14708785Y8643155D01*
X14659538Y8716858D01*
X14596858Y8779538D01*
X14523155Y8828785D01*
X14441260Y8862706D01*
X14354321Y8880000D01*
X14265679Y8880000D01*
X14178740Y8862706D01*
X14096845Y8828785D01*
X14023142Y8779538D01*
X13960462Y8716858D01*
X13911215Y8643155D01*
X13877294Y8561260D01*
X13860000Y8474321D01*
X12846076Y8474321D01*
X12842706Y8491260D01*
X12808785Y8573155D01*
X12759538Y8646858D01*
X12696858Y8709538D01*
X12623155Y8758785D01*
X12541260Y8792706D01*
X12454321Y8810000D01*
X12365679Y8810000D01*
X12278740Y8792706D01*
X12196845Y8758785D01*
X12123142Y8709538D01*
X12060462Y8646858D01*
X12011215Y8573155D01*
X11977294Y8491260D01*
X11960000Y8404321D01*
X2178237Y8404321D01*
X2178344Y8404480D01*
X2255610Y8591018D01*
X2295000Y8789046D01*
X2295000Y8990954D01*
X2255610Y9188982D01*
X2178344Y9375520D01*
X2066170Y9543400D01*
X1945249Y9664321D01*
X4290000Y9664321D01*
X4290000Y9575679D01*
X4307294Y9488740D01*
X4341215Y9406845D01*
X4390462Y9333142D01*
X4453142Y9270462D01*
X4526845Y9221215D01*
X4608740Y9187294D01*
X4695679Y9170000D01*
X4784321Y9170000D01*
X4871260Y9187294D01*
X4953155Y9221215D01*
X5026858Y9270462D01*
X5089538Y9333142D01*
X5138785Y9406845D01*
X5172706Y9488740D01*
X5190000Y9575679D01*
X5190000Y9664321D01*
X5172706Y9751260D01*
X5138785Y9833155D01*
X5089538Y9906858D01*
X5026858Y9969538D01*
X4953155Y10018785D01*
X4871260Y10052706D01*
X4784321Y10070000D01*
X4695679Y10070000D01*
X4608740Y10052706D01*
X4526845Y10018785D01*
X4453142Y9969538D01*
X4390462Y9906858D01*
X4341215Y9833155D01*
X4307294Y9751260D01*
X4290000Y9664321D01*
X1945249Y9664321D01*
X1923400Y9686170D01*
X1755520Y9798344D01*
X1568982Y9875610D01*
X1370954Y9915000D01*
X1169046Y9915000D01*
X971018Y9875610D01*
X784480Y9798344D01*
X616600Y9686170D01*
X475000Y9544570D01*
X475000Y10775430D01*
X616600Y10633830D01*
X784480Y10521656D01*
X971018Y10444390D01*
X1169046Y10405000D01*
X1370954Y10405000D01*
X1568982Y10444390D01*
X1755520Y10521656D01*
X1923400Y10633830D01*
X2066170Y10776600D01*
X2178344Y10944480D01*
X2198988Y10994321D01*
X6360000Y10994321D01*
X6360000Y10905679D01*
X6377294Y10818740D01*
X6411215Y10736845D01*
X6460462Y10663142D01*
X6523142Y10600462D01*
X6596845Y10551215D01*
X6678740Y10517294D01*
X6765679Y10500000D01*
X6854321Y10500000D01*
X6941260Y10517294D01*
X7023155Y10551215D01*
X7096858Y10600462D01*
X7115000Y10618604D01*
X7123142Y10610462D01*
X7196845Y10561215D01*
X7278740Y10527294D01*
X7365679Y10510000D01*
X7454321Y10510000D01*
X7541260Y10527294D01*
X7623155Y10561215D01*
X7696858Y10610462D01*
X7759538Y10673142D01*
X7808785Y10746845D01*
X7842706Y10828740D01*
X7852903Y10880000D01*
X7934321Y10880000D01*
X8021260Y10897294D01*
X8103155Y10931215D01*
X8176858Y10980462D01*
X8200717Y11004321D01*
X8900000Y11004321D01*
X8900000Y10915679D01*
X8917294Y10828740D01*
X8951215Y10746845D01*
X9000462Y10673142D01*
X9063142Y10610462D01*
X9136845Y10561215D01*
X9218740Y10527294D01*
X9305679Y10510000D01*
X9394321Y10510000D01*
X9481260Y10527294D01*
X9563155Y10561215D01*
X9636858Y10610462D01*
X9699538Y10673142D01*
X9748785Y10746845D01*
X9782706Y10828740D01*
X9796881Y10900000D01*
X9854321Y10900000D01*
X9941260Y10917294D01*
X10023155Y10951215D01*
X10096858Y11000462D01*
X10110000Y11013604D01*
X10123142Y11000462D01*
X10196845Y10951215D01*
X10278740Y10917294D01*
X10365679Y10900000D01*
X10454321Y10900000D01*
X10541260Y10917294D01*
X10623155Y10951215D01*
X10696858Y11000462D01*
X10759538Y11063142D01*
X10808785Y11136845D01*
X10842706Y11218740D01*
X10860000Y11305679D01*
X10860000Y11394321D01*
X10842706Y11481260D01*
X10808785Y11563155D01*
X10759538Y11636858D01*
X10696858Y11699538D01*
X10623155Y11748785D01*
X10541260Y11782706D01*
X10454321Y11800000D01*
X10365679Y11800000D01*
X10278740Y11782706D01*
X10196845Y11748785D01*
X10123142Y11699538D01*
X10110000Y11686396D01*
X10096858Y11699538D01*
X10023155Y11748785D01*
X9941260Y11782706D01*
X9854321Y11800000D01*
X9765679Y11800000D01*
X9678740Y11782706D01*
X9596845Y11748785D01*
X9523142Y11699538D01*
X9460462Y11636858D01*
X9411215Y11563155D01*
X9377294Y11481260D01*
X9363119Y11410000D01*
X9305679Y11410000D01*
X9218740Y11392706D01*
X9136845Y11358785D01*
X9063142Y11309538D01*
X9000462Y11246858D01*
X8951215Y11173155D01*
X8917294Y11091260D01*
X8900000Y11004321D01*
X8200717Y11004321D01*
X8239538Y11043142D01*
X8288785Y11116845D01*
X8322706Y11198740D01*
X8340000Y11285679D01*
X8340000Y11374321D01*
X8322706Y11461260D01*
X8288785Y11543155D01*
X8239538Y11616858D01*
X8176858Y11679538D01*
X8103155Y11728785D01*
X8021260Y11762706D01*
X7934321Y11780000D01*
X7845679Y11780000D01*
X7758740Y11762706D01*
X7676845Y11728785D01*
X7603142Y11679538D01*
X7540462Y11616858D01*
X7491215Y11543155D01*
X7457294Y11461260D01*
X7447097Y11410000D01*
X7365679Y11410000D01*
X7278740Y11392706D01*
X7196845Y11358785D01*
X7123142Y11309538D01*
X7105000Y11291396D01*
X7096858Y11299538D01*
X7023155Y11348785D01*
X6941260Y11382706D01*
X6854321Y11400000D01*
X6765679Y11400000D01*
X6678740Y11382706D01*
X6596845Y11348785D01*
X6523142Y11299538D01*
X6460462Y11236858D01*
X6411215Y11163155D01*
X6377294Y11081260D01*
X6360000Y10994321D01*
X2198988Y10994321D01*
X2255610Y11131018D01*
X2295000Y11329046D01*
X2295000Y11530954D01*
X2255610Y11728982D01*
X2178344Y11915520D01*
X2066170Y12083400D01*
X1923400Y12226170D01*
X1755520Y12338344D01*
X1568982Y12415610D01*
X1370954Y12455000D01*
X1169046Y12455000D01*
X971018Y12415610D01*
X784480Y12338344D01*
X616600Y12226170D01*
X475000Y12084570D01*
X475000Y13315430D01*
X616600Y13173830D01*
X784480Y13061656D01*
X971018Y12984390D01*
X1169046Y12945000D01*
X1370954Y12945000D01*
X1568982Y12984390D01*
X1755520Y13061656D01*
X1774474Y13074321D01*
X2520000Y13074321D01*
X2520000Y12985679D01*
X2537294Y12898740D01*
X2571215Y12816845D01*
X2620462Y12743142D01*
X2638604Y12725000D01*
X2620462Y12706858D01*
X2571215Y12633155D01*
X2537294Y12551260D01*
X2520000Y12464321D01*
X2520000Y12375679D01*
X2537294Y12288740D01*
X2571215Y12206845D01*
X2620462Y12133142D01*
X2638604Y12115000D01*
X2620462Y12096858D01*
X2571215Y12023155D01*
X2537294Y11941260D01*
X2520000Y11854321D01*
X2520000Y11765679D01*
X2537294Y11678740D01*
X2571215Y11596845D01*
X2620462Y11523142D01*
X2683142Y11460462D01*
X2756845Y11411215D01*
X2838740Y11377294D01*
X2925679Y11360000D01*
X3014321Y11360000D01*
X3101260Y11377294D01*
X3183155Y11411215D01*
X3256858Y11460462D01*
X3319538Y11523142D01*
X3368785Y11596845D01*
X3402706Y11678740D01*
X3420000Y11765679D01*
X3420000Y11854321D01*
X3402706Y11941260D01*
X3368785Y12023155D01*
X3319538Y12096858D01*
X3301396Y12115000D01*
X3319538Y12133142D01*
X3368785Y12206845D01*
X3402706Y12288740D01*
X3420000Y12375679D01*
X3420000Y12464321D01*
X3402706Y12551260D01*
X3368785Y12633155D01*
X3319538Y12706858D01*
X3301396Y12725000D01*
X3319538Y12743142D01*
X3320325Y12744321D01*
X15290000Y12744321D01*
X15290000Y12655679D01*
X15307294Y12568740D01*
X15341215Y12486845D01*
X15390462Y12413142D01*
X15453142Y12350462D01*
X15526845Y12301215D01*
X15608740Y12267294D01*
X15695679Y12250000D01*
X15784321Y12250000D01*
X15871260Y12267294D01*
X15953155Y12301215D01*
X16026858Y12350462D01*
X16089538Y12413142D01*
X16138785Y12486845D01*
X16172706Y12568740D01*
X16190000Y12655679D01*
X16190000Y12744321D01*
X16172706Y12831260D01*
X16138785Y12913155D01*
X16089538Y12986858D01*
X16026858Y13049538D01*
X15953155Y13098785D01*
X15871260Y13132706D01*
X15784321Y13150000D01*
X15695679Y13150000D01*
X15608740Y13132706D01*
X15526845Y13098785D01*
X15453142Y13049538D01*
X15390462Y12986858D01*
X15341215Y12913155D01*
X15307294Y12831260D01*
X15290000Y12744321D01*
X3320325Y12744321D01*
X3368785Y12816845D01*
X3402706Y12898740D01*
X3420000Y12985679D01*
X3420000Y13074321D01*
X3402706Y13161260D01*
X3368785Y13243155D01*
X3319538Y13316858D01*
X3256858Y13379538D01*
X3183155Y13428785D01*
X3101260Y13462706D01*
X3014321Y13480000D01*
X2925679Y13480000D01*
X2838740Y13462706D01*
X2756845Y13428785D01*
X2683142Y13379538D01*
X2620462Y13316858D01*
X2571215Y13243155D01*
X2537294Y13161260D01*
X2520000Y13074321D01*
X1774474Y13074321D01*
X1923400Y13173830D01*
X2066170Y13316600D01*
X2178344Y13484480D01*
X2255610Y13671018D01*
X2295000Y13869046D01*
X2295000Y14070954D01*
X2255610Y14268982D01*
X2224404Y14344321D01*
X5100000Y14344321D01*
X5100000Y14255679D01*
X5117294Y14168740D01*
X5151215Y14086845D01*
X5200462Y14013142D01*
X5263142Y13950462D01*
X5336845Y13901215D01*
X5418740Y13867294D01*
X5505679Y13850000D01*
X5594321Y13850000D01*
X5681260Y13867294D01*
X5763155Y13901215D01*
X5778304Y13911337D01*
X5790462Y13893142D01*
X5853142Y13830462D01*
X5855217Y13829076D01*
X5831215Y13793155D01*
X5797294Y13711260D01*
X5780000Y13624321D01*
X5780000Y13535679D01*
X5797294Y13448740D01*
X5831215Y13366845D01*
X5880462Y13293142D01*
X5943142Y13230462D01*
X6016845Y13181215D01*
X6098740Y13147294D01*
X6185679Y13130000D01*
X6274321Y13130000D01*
X6361260Y13147294D01*
X6443155Y13181215D01*
X6496647Y13216957D01*
X6543142Y13170462D01*
X6616845Y13121215D01*
X6698740Y13087294D01*
X6785679Y13070000D01*
X6874321Y13070000D01*
X6961260Y13087294D01*
X7043155Y13121215D01*
X7116858Y13170462D01*
X7179538Y13233142D01*
X7228785Y13306845D01*
X7262706Y13388740D01*
X7280000Y13475679D01*
X7280000Y13564321D01*
X7262706Y13651260D01*
X7228785Y13733155D01*
X7179538Y13806858D01*
X7122075Y13864321D01*
X10840000Y13864321D01*
X10840000Y13775679D01*
X10857294Y13688740D01*
X10891215Y13606845D01*
X10940462Y13533142D01*
X11003142Y13470462D01*
X11076845Y13421215D01*
X11158740Y13387294D01*
X11245679Y13370000D01*
X11334321Y13370000D01*
X11421260Y13387294D01*
X11503155Y13421215D01*
X11576858Y13470462D01*
X11639538Y13533142D01*
X11688785Y13606845D01*
X11722706Y13688740D01*
X11740000Y13775679D01*
X11740000Y13864321D01*
X11722706Y13951260D01*
X11688785Y14033155D01*
X11639538Y14106858D01*
X11576858Y14169538D01*
X11503155Y14218785D01*
X11421260Y14252706D01*
X11334321Y14270000D01*
X11245679Y14270000D01*
X11158740Y14252706D01*
X11076845Y14218785D01*
X11003142Y14169538D01*
X10940462Y14106858D01*
X10891215Y14033155D01*
X10857294Y13951260D01*
X10840000Y13864321D01*
X7122075Y13864321D01*
X7116858Y13869538D01*
X7043155Y13918785D01*
X6961260Y13952706D01*
X6874321Y13970000D01*
X6785679Y13970000D01*
X6698740Y13952706D01*
X6616845Y13918785D01*
X6563353Y13883043D01*
X6516858Y13929538D01*
X6514783Y13930924D01*
X6538785Y13966845D01*
X6572706Y14048740D01*
X6590000Y14135679D01*
X6590000Y14224321D01*
X6572706Y14311260D01*
X6563155Y14334321D01*
X11780000Y14334321D01*
X11780000Y14245679D01*
X11797294Y14158740D01*
X11831215Y14076845D01*
X11880462Y14003142D01*
X11943142Y13940462D01*
X12016845Y13891215D01*
X12098740Y13857294D01*
X12185679Y13840000D01*
X12274321Y13840000D01*
X12361260Y13857294D01*
X12443155Y13891215D01*
X12516858Y13940462D01*
X12579538Y14003142D01*
X12628785Y14076845D01*
X12662706Y14158740D01*
X12680000Y14245679D01*
X12680000Y14334321D01*
X12662706Y14421260D01*
X12628785Y14503155D01*
X12618663Y14518304D01*
X12636858Y14530462D01*
X12699538Y14593142D01*
X12711696Y14611337D01*
X12726845Y14601215D01*
X12808740Y14567294D01*
X12895679Y14550000D01*
X12984321Y14550000D01*
X13071260Y14567294D01*
X13153155Y14601215D01*
X13226858Y14650462D01*
X13289538Y14713142D01*
X13338785Y14786845D01*
X13372706Y14868740D01*
X13390000Y14955679D01*
X13390000Y15044321D01*
X13372706Y15131260D01*
X13338785Y15213155D01*
X13328663Y15228304D01*
X13346858Y15240462D01*
X13409538Y15303142D01*
X13417076Y15314424D01*
X13436845Y15301215D01*
X13518740Y15267294D01*
X13605679Y15250000D01*
X13694321Y15250000D01*
X13781260Y15267294D01*
X13863155Y15301215D01*
X13936858Y15350462D01*
X13999538Y15413142D01*
X14048785Y15486845D01*
X14082706Y15568740D01*
X14100000Y15655679D01*
X14100000Y15744321D01*
X14082706Y15831260D01*
X14048785Y15913155D01*
X14035576Y15932924D01*
X14046858Y15940462D01*
X14109538Y16003142D01*
X14158785Y16076845D01*
X14192706Y16158740D01*
X14210000Y16245679D01*
X14210000Y16334321D01*
X14192706Y16421260D01*
X14158785Y16503155D01*
X14109538Y16576858D01*
X14046858Y16639538D01*
X13973155Y16688785D01*
X13891260Y16722706D01*
X13804321Y16740000D01*
X13715679Y16740000D01*
X13628740Y16722706D01*
X13546845Y16688785D01*
X13473142Y16639538D01*
X13410462Y16576858D01*
X13361215Y16503155D01*
X13327294Y16421260D01*
X13310000Y16334321D01*
X13310000Y16245679D01*
X13327294Y16158740D01*
X13361215Y16076845D01*
X13374424Y16057076D01*
X13363142Y16049538D01*
X13300462Y15986858D01*
X13292924Y15975576D01*
X13273155Y15988785D01*
X13191260Y16022706D01*
X13104321Y16040000D01*
X13015679Y16040000D01*
X12928740Y16022706D01*
X12846845Y15988785D01*
X12773142Y15939538D01*
X12710462Y15876858D01*
X12661215Y15803155D01*
X12627294Y15721260D01*
X12610000Y15634321D01*
X12610000Y15545679D01*
X12627294Y15458740D01*
X12661215Y15376845D01*
X12671337Y15361696D01*
X12653142Y15349538D01*
X12590462Y15286858D01*
X12578304Y15268663D01*
X12563155Y15278785D01*
X12481260Y15312706D01*
X12394321Y15330000D01*
X12305679Y15330000D01*
X12218740Y15312706D01*
X12136845Y15278785D01*
X12063142Y15229538D01*
X12000462Y15166858D01*
X11951215Y15093155D01*
X11917294Y15011260D01*
X11900000Y14924321D01*
X11900000Y14835679D01*
X11917294Y14748740D01*
X11951215Y14666845D01*
X11961337Y14651696D01*
X11943142Y14639538D01*
X11880462Y14576858D01*
X11831215Y14503155D01*
X11797294Y14421260D01*
X11780000Y14334321D01*
X6563155Y14334321D01*
X6538785Y14393155D01*
X6489538Y14466858D01*
X6426858Y14529538D01*
X6353155Y14578785D01*
X6271260Y14612706D01*
X6184321Y14630000D01*
X6095679Y14630000D01*
X6008740Y14612706D01*
X5926845Y14578785D01*
X5911696Y14568663D01*
X5899538Y14586858D01*
X5836858Y14649538D01*
X5763155Y14698785D01*
X5681260Y14732706D01*
X5594321Y14750000D01*
X5505679Y14750000D01*
X5418740Y14732706D01*
X5336845Y14698785D01*
X5263142Y14649538D01*
X5200462Y14586858D01*
X5151215Y14513155D01*
X5117294Y14431260D01*
X5100000Y14344321D01*
X2224404Y14344321D01*
X2178344Y14455520D01*
X2066170Y14623400D01*
X1923400Y14766170D01*
X1755520Y14878344D01*
X1568982Y14955610D01*
X1370954Y14995000D01*
X1169046Y14995000D01*
X971018Y14955610D01*
X784480Y14878344D01*
X616600Y14766170D01*
X475000Y14624570D01*
X475000Y15855430D01*
X616600Y15713830D01*
X784480Y15601656D01*
X971018Y15524390D01*
X1169046Y15485000D01*
X1370954Y15485000D01*
X1568982Y15524390D01*
X1755520Y15601656D01*
X1879236Y15684321D01*
X3390000Y15684321D01*
X3390000Y15595679D01*
X3407294Y15508740D01*
X3441215Y15426845D01*
X3490462Y15353142D01*
X3553142Y15290462D01*
X3626845Y15241215D01*
X3708740Y15207294D01*
X3795679Y15190000D01*
X3884321Y15190000D01*
X3971260Y15207294D01*
X4041772Y15236500D01*
X4047294Y15208740D01*
X4081215Y15126845D01*
X4130462Y15053142D01*
X4193142Y14990462D01*
X4266845Y14941215D01*
X4348740Y14907294D01*
X4435679Y14890000D01*
X4524321Y14890000D01*
X4611260Y14907294D01*
X4693155Y14941215D01*
X4724456Y14962130D01*
X4730462Y14953142D01*
X4793142Y14890462D01*
X4866845Y14841215D01*
X4948740Y14807294D01*
X5035679Y14790000D01*
X5124321Y14790000D01*
X5211260Y14807294D01*
X5293155Y14841215D01*
X5366858Y14890462D01*
X5429538Y14953142D01*
X5478785Y15026845D01*
X5512706Y15108740D01*
X5530000Y15195679D01*
X5530000Y15284321D01*
X5512706Y15371260D01*
X5478785Y15453155D01*
X5429538Y15526858D01*
X5366858Y15589538D01*
X5293155Y15638785D01*
X5211260Y15672706D01*
X5124321Y15690000D01*
X5035679Y15690000D01*
X4948740Y15672706D01*
X4866845Y15638785D01*
X4835544Y15617870D01*
X4829538Y15626858D01*
X4766858Y15689538D01*
X4750957Y15700163D01*
X4768785Y15726845D01*
X4802706Y15808740D01*
X4820000Y15895679D01*
X4820000Y15984321D01*
X4802706Y16071260D01*
X4768785Y16153155D01*
X4719538Y16226858D01*
X4656858Y16289538D01*
X4583155Y16338785D01*
X4501260Y16372706D01*
X4414321Y16390000D01*
X4325679Y16390000D01*
X4238740Y16372706D01*
X4156845Y16338785D01*
X4083142Y16289538D01*
X4020462Y16226858D01*
X3971215Y16153155D01*
X3940433Y16078838D01*
X3884321Y16090000D01*
X3795679Y16090000D01*
X3708740Y16072706D01*
X3626845Y16038785D01*
X3553142Y15989538D01*
X3490462Y15926858D01*
X3441215Y15853155D01*
X3407294Y15771260D01*
X3390000Y15684321D01*
X1879236Y15684321D01*
X1923400Y15713830D01*
X2066170Y15856600D01*
X2178344Y16024480D01*
X2255610Y16211018D01*
X2295000Y16409046D01*
X2295000Y16610954D01*
X2255610Y16808982D01*
X2178344Y16995520D01*
X2066170Y17163400D01*
X1965249Y17264321D01*
X13550000Y17264321D01*
X13550000Y17175679D01*
X13567294Y17088740D01*
X13601215Y17006845D01*
X13650462Y16933142D01*
X13713142Y16870462D01*
X13786845Y16821215D01*
X13868740Y16787294D01*
X13955679Y16770000D01*
X14044321Y16770000D01*
X14131260Y16787294D01*
X14213155Y16821215D01*
X14286858Y16870462D01*
X14349538Y16933142D01*
X14398785Y17006845D01*
X14432706Y17088740D01*
X14450000Y17175679D01*
X14450000Y17264321D01*
X14432706Y17351260D01*
X14398785Y17433155D01*
X14349538Y17506858D01*
X14286858Y17569538D01*
X14213155Y17618785D01*
X14131260Y17652706D01*
X14044321Y17670000D01*
X13955679Y17670000D01*
X13868740Y17652706D01*
X13786845Y17618785D01*
X13713142Y17569538D01*
X13650462Y17506858D01*
X13601215Y17433155D01*
X13567294Y17351260D01*
X13550000Y17264321D01*
X1965249Y17264321D01*
X1923400Y17306170D01*
X1755520Y17418344D01*
X1568982Y17495610D01*
X1370954Y17535000D01*
X1169046Y17535000D01*
X971018Y17495610D01*
X784480Y17418344D01*
X616600Y17306170D01*
X475000Y17164570D01*
X475000Y18395430D01*
X616600Y18253830D01*
X784480Y18141656D01*
X971018Y18064390D01*
X1169046Y18025000D01*
X1370954Y18025000D01*
X1568982Y18064390D01*
X1755520Y18141656D01*
X1923400Y18253830D01*
X2066170Y18396600D01*
X2178344Y18564480D01*
X2255610Y18751018D01*
X2295000Y18949046D01*
X2295000Y19150954D01*
X2282396Y19214321D01*
X2530000Y19214321D01*
X2530000Y19125679D01*
X2547294Y19038740D01*
X2581215Y18956845D01*
X2630462Y18883142D01*
X2693142Y18820462D01*
X2766845Y18771215D01*
X2848740Y18737294D01*
X2935679Y18720000D01*
X3024321Y18720000D01*
X3111260Y18737294D01*
X3193155Y18771215D01*
X3266858Y18820462D01*
X3329538Y18883142D01*
X3378785Y18956845D01*
X3412706Y19038740D01*
X3430000Y19125679D01*
X3430000Y19214321D01*
X3412706Y19301260D01*
X3378785Y19383155D01*
X3329538Y19456858D01*
X3266858Y19519538D01*
X3193155Y19568785D01*
X3111260Y19602706D01*
X3024321Y19620000D01*
X2935679Y19620000D01*
X2848740Y19602706D01*
X2766845Y19568785D01*
X2693142Y19519538D01*
X2630462Y19456858D01*
X2581215Y19383155D01*
X2547294Y19301260D01*
X2530000Y19214321D01*
X2282396Y19214321D01*
X2255610Y19348982D01*
X2178344Y19535520D01*
X2066170Y19703400D01*
X1923400Y19846170D01*
X1791473Y19934321D01*
X3540000Y19934321D01*
X3540000Y19845679D01*
X3557294Y19758740D01*
X3591215Y19676845D01*
X3640462Y19603142D01*
X3703142Y19540462D01*
X3776845Y19491215D01*
X3858740Y19457294D01*
X3945679Y19440000D01*
X4034321Y19440000D01*
X4121260Y19457294D01*
X4138225Y19464321D01*
X4540000Y19464321D01*
X4540000Y19375679D01*
X4557294Y19288740D01*
X4591215Y19206845D01*
X4640462Y19133142D01*
X4703142Y19070462D01*
X4776845Y19021215D01*
X4858740Y18987294D01*
X4945679Y18970000D01*
X5034321Y18970000D01*
X5121260Y18987294D01*
X5203155Y19021215D01*
X5276858Y19070462D01*
X5339538Y19133142D01*
X5388785Y19206845D01*
X5422706Y19288740D01*
X5440000Y19375679D01*
X5440000Y19464321D01*
X5422706Y19551260D01*
X5388785Y19633155D01*
X5339538Y19706858D01*
X5276858Y19769538D01*
X5203155Y19818785D01*
X5121260Y19852706D01*
X5034321Y19870000D01*
X4945679Y19870000D01*
X4858740Y19852706D01*
X4776845Y19818785D01*
X4703142Y19769538D01*
X4640462Y19706858D01*
X4591215Y19633155D01*
X4557294Y19551260D01*
X4540000Y19464321D01*
X4138225Y19464321D01*
X4203155Y19491215D01*
X4276858Y19540462D01*
X4339538Y19603142D01*
X4388785Y19676845D01*
X4422706Y19758740D01*
X4440000Y19845679D01*
X4440000Y19934321D01*
X4422706Y20021260D01*
X4400729Y20074321D01*
X5340000Y20074321D01*
X5340000Y19985679D01*
X5357294Y19898740D01*
X5391215Y19816845D01*
X5440462Y19743142D01*
X5503142Y19680462D01*
X5576845Y19631215D01*
X5658740Y19597294D01*
X5745679Y19580000D01*
X5834321Y19580000D01*
X5921260Y19597294D01*
X6003155Y19631215D01*
X6076858Y19680462D01*
X6139538Y19743142D01*
X6188785Y19816845D01*
X6222706Y19898740D01*
X6225805Y19914321D01*
X12570000Y19914321D01*
X12570000Y19825679D01*
X12587294Y19738740D01*
X12621215Y19656845D01*
X12670462Y19583142D01*
X12722952Y19530652D01*
X12691215Y19483155D01*
X12657294Y19401260D01*
X12640000Y19314321D01*
X12640000Y19225679D01*
X12657294Y19138740D01*
X12691215Y19056845D01*
X12740462Y18983142D01*
X12803142Y18920462D01*
X12876845Y18871215D01*
X12958740Y18837294D01*
X13045679Y18820000D01*
X13134321Y18820000D01*
X13221260Y18837294D01*
X13303155Y18871215D01*
X13376858Y18920462D01*
X13439538Y18983142D01*
X13488785Y19056845D01*
X13522706Y19138740D01*
X13530913Y19180000D01*
X13614321Y19180000D01*
X13701260Y19197294D01*
X13783155Y19231215D01*
X13856858Y19280462D01*
X13919538Y19343142D01*
X13968785Y19416845D01*
X14002706Y19498740D01*
X14020000Y19585679D01*
X14020000Y19674321D01*
X14002706Y19761260D01*
X13968785Y19843155D01*
X13919538Y19916858D01*
X13856858Y19979538D01*
X13783155Y20028785D01*
X13701260Y20062706D01*
X13614321Y20080000D01*
X13525679Y20080000D01*
X13438740Y20062706D01*
X13428937Y20058646D01*
X13418785Y20083155D01*
X13369538Y20156858D01*
X13308146Y20218250D01*
X13358740Y20197294D01*
X13445679Y20180000D01*
X13534321Y20180000D01*
X13621260Y20197294D01*
X13703155Y20231215D01*
X13776858Y20280462D01*
X13839538Y20343142D01*
X13888785Y20416845D01*
X13922706Y20498740D01*
X13940000Y20585679D01*
X13940000Y20674321D01*
X13922706Y20761260D01*
X13888785Y20843155D01*
X13839538Y20916858D01*
X13776858Y20979538D01*
X13703155Y21028785D01*
X13645478Y21052675D01*
X13660000Y21125679D01*
X13660000Y21214321D01*
X13642706Y21301260D01*
X13638440Y21311560D01*
X13648740Y21307294D01*
X13735679Y21290000D01*
X13824321Y21290000D01*
X13911260Y21307294D01*
X13993155Y21341215D01*
X14066858Y21390462D01*
X14129538Y21453142D01*
X14178785Y21526845D01*
X14212706Y21608740D01*
X14219562Y21643206D01*
X14235679Y21640000D01*
X14324321Y21640000D01*
X14411260Y21657294D01*
X14493155Y21691215D01*
X14566858Y21740462D01*
X14629538Y21803142D01*
X14678785Y21876845D01*
X14712706Y21958740D01*
X14730000Y22045679D01*
X14730000Y22134321D01*
X14712706Y22221260D01*
X14678785Y22303155D01*
X14629538Y22376858D01*
X14566858Y22439538D01*
X14493155Y22488785D01*
X14411260Y22522706D01*
X14324321Y22540000D01*
X14235679Y22540000D01*
X14148740Y22522706D01*
X14066845Y22488785D01*
X13993142Y22439538D01*
X13930462Y22376858D01*
X13881215Y22303155D01*
X13847294Y22221260D01*
X13840438Y22186794D01*
X13824321Y22190000D01*
X13735679Y22190000D01*
X13648740Y22172706D01*
X13566845Y22138785D01*
X13493142Y22089538D01*
X13430462Y22026858D01*
X13381215Y21953155D01*
X13347294Y21871260D01*
X13330000Y21784321D01*
X13330000Y21695679D01*
X13347294Y21608740D01*
X13351560Y21598440D01*
X13341260Y21602706D01*
X13254321Y21620000D01*
X13165679Y21620000D01*
X13078740Y21602706D01*
X12996845Y21568785D01*
X12923142Y21519538D01*
X12860462Y21456858D01*
X12811215Y21383155D01*
X12777294Y21301260D01*
X12760000Y21214321D01*
X12760000Y21125679D01*
X12777294Y21038740D01*
X12811215Y20956845D01*
X12860462Y20883142D01*
X12923142Y20820462D01*
X12996845Y20771215D01*
X13054522Y20747325D01*
X13040000Y20674321D01*
X13040000Y20585679D01*
X13057294Y20498740D01*
X13091215Y20416845D01*
X13140462Y20343142D01*
X13201854Y20281750D01*
X13151260Y20302706D01*
X13064321Y20320000D01*
X12975679Y20320000D01*
X12888740Y20302706D01*
X12806845Y20268785D01*
X12733142Y20219538D01*
X12670462Y20156858D01*
X12621215Y20083155D01*
X12587294Y20001260D01*
X12570000Y19914321D01*
X6225805Y19914321D01*
X6240000Y19985679D01*
X6240000Y20074321D01*
X6222706Y20161260D01*
X6188785Y20243155D01*
X6163251Y20281370D01*
X6176858Y20290462D01*
X6239538Y20353142D01*
X6245544Y20362130D01*
X6276845Y20341215D01*
X6358740Y20307294D01*
X6445679Y20290000D01*
X6534321Y20290000D01*
X6621260Y20307294D01*
X6703155Y20341215D01*
X6776858Y20390462D01*
X6839538Y20453142D01*
X6888785Y20526845D01*
X6922706Y20608740D01*
X6940000Y20695679D01*
X6940000Y20784321D01*
X6922706Y20871260D01*
X6888785Y20953155D01*
X6867870Y20984456D01*
X6876858Y20990462D01*
X6939538Y21053142D01*
X6988785Y21126845D01*
X7022706Y21208740D01*
X7040000Y21295679D01*
X7040000Y21384321D01*
X7022706Y21471260D01*
X6988785Y21553155D01*
X6939538Y21626858D01*
X6876858Y21689538D01*
X6803155Y21738785D01*
X6721260Y21772706D01*
X6634321Y21790000D01*
X6545679Y21790000D01*
X6458740Y21772706D01*
X6376845Y21738785D01*
X6303142Y21689538D01*
X6240462Y21626858D01*
X6191215Y21553155D01*
X6157294Y21471260D01*
X6140000Y21384321D01*
X6140000Y21295679D01*
X6157294Y21208740D01*
X6191215Y21126845D01*
X6212130Y21095544D01*
X6203142Y21089538D01*
X6140462Y21026858D01*
X6134456Y21017870D01*
X6103155Y21038785D01*
X6021260Y21072706D01*
X5934321Y21090000D01*
X5845679Y21090000D01*
X5758740Y21072706D01*
X5676845Y21038785D01*
X5603142Y20989538D01*
X5540462Y20926858D01*
X5491215Y20853155D01*
X5457294Y20771260D01*
X5440000Y20684321D01*
X5440000Y20595679D01*
X5457294Y20508740D01*
X5491215Y20426845D01*
X5516749Y20388630D01*
X5503142Y20379538D01*
X5440462Y20316858D01*
X5391215Y20243155D01*
X5357294Y20161260D01*
X5340000Y20074321D01*
X4400729Y20074321D01*
X4388785Y20103155D01*
X4339538Y20176858D01*
X4276858Y20239538D01*
X4203155Y20288785D01*
X4121260Y20322706D01*
X4034321Y20340000D01*
X3945679Y20340000D01*
X3858740Y20322706D01*
X3776845Y20288785D01*
X3703142Y20239538D01*
X3640462Y20176858D01*
X3591215Y20103155D01*
X3557294Y20021260D01*
X3540000Y19934321D01*
X1791473Y19934321D01*
X1755520Y19958344D01*
X1568982Y20035610D01*
X1370954Y20075000D01*
X1169046Y20075000D01*
X971018Y20035610D01*
X784480Y19958344D01*
X616600Y19846170D01*
X475000Y19704570D01*
X475000Y20935430D01*
X616600Y20793830D01*
X784480Y20681656D01*
X971018Y20604390D01*
X1169046Y20565000D01*
X1370954Y20565000D01*
X1568982Y20604390D01*
X1755520Y20681656D01*
X1923400Y20793830D01*
X2066170Y20936600D01*
X2178344Y21104480D01*
X2255610Y21291018D01*
X2295000Y21489046D01*
X2295000Y21690954D01*
X2264494Y21844321D01*
X7100000Y21844321D01*
X7100000Y21755679D01*
X7117294Y21668740D01*
X7151215Y21586845D01*
X7200462Y21513142D01*
X7263142Y21450462D01*
X7336845Y21401215D01*
X7418740Y21367294D01*
X7505679Y21350000D01*
X7594321Y21350000D01*
X7681260Y21367294D01*
X7763155Y21401215D01*
X7836858Y21450462D01*
X7899538Y21513142D01*
X7948785Y21586845D01*
X7982706Y21668740D01*
X7995751Y21734321D01*
X10330000Y21734321D01*
X10330000Y21645679D01*
X10347294Y21558740D01*
X10381215Y21476845D01*
X10430462Y21403142D01*
X10493142Y21340462D01*
X10566845Y21291215D01*
X10648740Y21257294D01*
X10690000Y21249087D01*
X10690000Y21165679D01*
X10707294Y21078740D01*
X10741215Y20996845D01*
X10790462Y20923142D01*
X10853142Y20860462D01*
X10926845Y20811215D01*
X11008740Y20777294D01*
X11095679Y20760000D01*
X11184321Y20760000D01*
X11271260Y20777294D01*
X11340812Y20806103D01*
X11361215Y20756845D01*
X11371337Y20741696D01*
X11353142Y20729538D01*
X11290462Y20666858D01*
X11241215Y20593155D01*
X11207294Y20511260D01*
X11190000Y20424321D01*
X11190000Y20335679D01*
X11207294Y20248740D01*
X11241215Y20166845D01*
X11290462Y20093142D01*
X11353142Y20030462D01*
X11426845Y19981215D01*
X11508740Y19947294D01*
X11595679Y19930000D01*
X11684321Y19930000D01*
X11771260Y19947294D01*
X11853155Y19981215D01*
X11926858Y20030462D01*
X11989538Y20093142D01*
X12015554Y20132078D01*
X12016845Y20131215D01*
X12098740Y20097294D01*
X12185679Y20080000D01*
X12274321Y20080000D01*
X12361260Y20097294D01*
X12443155Y20131215D01*
X12516858Y20180462D01*
X12579538Y20243142D01*
X12628785Y20316845D01*
X12662706Y20398740D01*
X12680000Y20485679D01*
X12680000Y20574321D01*
X12662706Y20661260D01*
X12628785Y20743155D01*
X12579538Y20816858D01*
X12516858Y20879538D01*
X12443155Y20928785D01*
X12361260Y20962706D01*
X12274321Y20980000D01*
X12210000Y20980000D01*
X12210000Y21014321D01*
X12192706Y21101260D01*
X12158785Y21183155D01*
X12109538Y21256858D01*
X12046858Y21319538D01*
X11973155Y21368785D01*
X11891260Y21402706D01*
X11804321Y21420000D01*
X11715679Y21420000D01*
X11628740Y21402706D01*
X11559188Y21373897D01*
X11538785Y21423155D01*
X11489538Y21496858D01*
X11426858Y21559538D01*
X11353155Y21608785D01*
X11271260Y21642706D01*
X11230000Y21650913D01*
X11230000Y21734321D01*
X11212706Y21821260D01*
X11178785Y21903155D01*
X11129538Y21976858D01*
X11066858Y22039538D01*
X10993155Y22088785D01*
X10911260Y22122706D01*
X10824321Y22140000D01*
X10735679Y22140000D01*
X10648740Y22122706D01*
X10566845Y22088785D01*
X10493142Y22039538D01*
X10430462Y21976858D01*
X10381215Y21903155D01*
X10347294Y21821260D01*
X10330000Y21734321D01*
X7995751Y21734321D01*
X8000000Y21755679D01*
X8000000Y21844321D01*
X7982706Y21931260D01*
X7968807Y21964817D01*
X7981260Y21967294D01*
X8063155Y22001215D01*
X8136858Y22050462D01*
X8199538Y22113142D01*
X8248785Y22186845D01*
X8282706Y22268740D01*
X8300000Y22355679D01*
X8300000Y22444321D01*
X8282706Y22531260D01*
X8248785Y22613155D01*
X8199538Y22686858D01*
X8136858Y22749538D01*
X8063155Y22798785D01*
X7981260Y22832706D01*
X7894321Y22850000D01*
X7805679Y22850000D01*
X7718740Y22832706D01*
X7636845Y22798785D01*
X7563142Y22749538D01*
X7500462Y22686858D01*
X7451215Y22613155D01*
X7417294Y22531260D01*
X7400000Y22444321D01*
X7400000Y22355679D01*
X7417294Y22268740D01*
X7431193Y22235183D01*
X7418740Y22232706D01*
X7336845Y22198785D01*
X7263142Y22149538D01*
X7200462Y22086858D01*
X7151215Y22013155D01*
X7117294Y21931260D01*
X7100000Y21844321D01*
X2264494Y21844321D01*
X2255610Y21888982D01*
X2178344Y22075520D01*
X2066170Y22243400D01*
X1923400Y22386170D01*
X1755520Y22498344D01*
X1568982Y22575610D01*
X1370954Y22615000D01*
X1169046Y22615000D01*
X971018Y22575610D01*
X784480Y22498344D01*
X616600Y22386170D01*
X475000Y22244570D01*
X475000Y23475430D01*
X616600Y23333830D01*
X784480Y23221656D01*
X971018Y23144390D01*
X1169046Y23105000D01*
X1370954Y23105000D01*
X1568982Y23144390D01*
X1755520Y23221656D01*
X1923400Y23333830D01*
X2066170Y23476600D01*
X2178344Y23644480D01*
X2255610Y23831018D01*
X2295000Y24029046D01*
X2295000Y24230954D01*
X2255610Y24428982D01*
X2236831Y24474321D01*
X8010000Y24474321D01*
X8010000Y24385679D01*
X8027294Y24298740D01*
X8061215Y24216845D01*
X8110462Y24143142D01*
X8173142Y24080462D01*
X8246845Y24031215D01*
X8328740Y23997294D01*
X8415679Y23980000D01*
X8504321Y23980000D01*
X8591260Y23997294D01*
X8673155Y24031215D01*
X8746858Y24080462D01*
X8809538Y24143142D01*
X8858785Y24216845D01*
X8892706Y24298740D01*
X8910000Y24385679D01*
X8910000Y24474321D01*
X8892706Y24561260D01*
X8858785Y24643155D01*
X8809538Y24716858D01*
X8746858Y24779538D01*
X8673155Y24828785D01*
X8591260Y24862706D01*
X8504321Y24880000D01*
X8415679Y24880000D01*
X8328740Y24862706D01*
X8246845Y24828785D01*
X8173142Y24779538D01*
X8110462Y24716858D01*
X8061215Y24643155D01*
X8027294Y24561260D01*
X8010000Y24474321D01*
X2236831Y24474321D01*
X2178344Y24615520D01*
X2066170Y24783400D01*
X1923400Y24926170D01*
X1755520Y25038344D01*
X1568982Y25115610D01*
X1370954Y25155000D01*
X1169046Y25155000D01*
X971018Y25115610D01*
X784480Y25038344D01*
X616600Y24926170D01*
X475000Y24784570D01*
X475000Y26015430D01*
X616600Y25873830D01*
X784480Y25761656D01*
X971018Y25684390D01*
X1169046Y25645000D01*
X1370954Y25645000D01*
X1568982Y25684390D01*
X1755520Y25761656D01*
X1923400Y25873830D01*
X1923891Y25874321D01*
X3300000Y25874321D01*
X3300000Y25785679D01*
X3317294Y25698740D01*
X3351215Y25616845D01*
X3400462Y25543142D01*
X3463142Y25480462D01*
X3536845Y25431215D01*
X3618740Y25397294D01*
X3705679Y25380000D01*
X3794321Y25380000D01*
X3881260Y25397294D01*
X3963155Y25431215D01*
X4036858Y25480462D01*
X4099538Y25543142D01*
X4148785Y25616845D01*
X4182706Y25698740D01*
X4200000Y25785679D01*
X4200000Y25874321D01*
X4196022Y25894321D01*
X4470000Y25894321D01*
X4470000Y25805679D01*
X4487294Y25718740D01*
X4521215Y25636845D01*
X4570462Y25563142D01*
X4633142Y25500462D01*
X4706845Y25451215D01*
X4788740Y25417294D01*
X4875679Y25400000D01*
X4964321Y25400000D01*
X5051260Y25417294D01*
X5133155Y25451215D01*
X5206858Y25500462D01*
X5269538Y25563142D01*
X5296659Y25603731D01*
X5330462Y25553142D01*
X5393142Y25490462D01*
X5466845Y25441215D01*
X5548740Y25407294D01*
X5635679Y25390000D01*
X5724321Y25390000D01*
X5811260Y25407294D01*
X5893155Y25441215D01*
X5966858Y25490462D01*
X6029538Y25553142D01*
X6078785Y25626845D01*
X6112706Y25708740D01*
X6130000Y25795679D01*
X6130000Y25884321D01*
X6112706Y25971260D01*
X6078785Y26053155D01*
X6029538Y26126858D01*
X5982075Y26174321D01*
X11780000Y26174321D01*
X11780000Y26085679D01*
X11797294Y25998740D01*
X11831215Y25916845D01*
X11880462Y25843142D01*
X11943142Y25780462D01*
X12016845Y25731215D01*
X12098740Y25697294D01*
X12185679Y25680000D01*
X12274321Y25680000D01*
X12361260Y25697294D01*
X12443155Y25731215D01*
X12516858Y25780462D01*
X12579538Y25843142D01*
X12628785Y25916845D01*
X12662706Y25998740D01*
X12680000Y26085679D01*
X12680000Y26174321D01*
X12662706Y26261260D01*
X12628785Y26343155D01*
X12579538Y26416858D01*
X12516858Y26479538D01*
X12443155Y26528785D01*
X12361260Y26562706D01*
X12274321Y26580000D01*
X12185679Y26580000D01*
X12098740Y26562706D01*
X12016845Y26528785D01*
X11943142Y26479538D01*
X11880462Y26416858D01*
X11831215Y26343155D01*
X11797294Y26261260D01*
X11780000Y26174321D01*
X5982075Y26174321D01*
X5966858Y26189538D01*
X5893155Y26238785D01*
X5811260Y26272706D01*
X5724321Y26290000D01*
X5635679Y26290000D01*
X5548740Y26272706D01*
X5466845Y26238785D01*
X5393142Y26189538D01*
X5330462Y26126858D01*
X5303341Y26086269D01*
X5269538Y26136858D01*
X5206858Y26199538D01*
X5133155Y26248785D01*
X5051260Y26282706D01*
X4964321Y26300000D01*
X4875679Y26300000D01*
X4788740Y26282706D01*
X4706845Y26248785D01*
X4633142Y26199538D01*
X4570462Y26136858D01*
X4521215Y26063155D01*
X4487294Y25981260D01*
X4470000Y25894321D01*
X4196022Y25894321D01*
X4182706Y25961260D01*
X4148785Y26043155D01*
X4099538Y26116858D01*
X4036858Y26179538D01*
X3963155Y26228785D01*
X3881260Y26262706D01*
X3794321Y26280000D01*
X3705679Y26280000D01*
X3618740Y26262706D01*
X3536845Y26228785D01*
X3463142Y26179538D01*
X3400462Y26116858D01*
X3351215Y26043155D01*
X3317294Y25961260D01*
X3300000Y25874321D01*
X1923891Y25874321D01*
X2066170Y26016600D01*
X2178344Y26184480D01*
X2255610Y26371018D01*
X2295000Y26569046D01*
X2295000Y26770954D01*
X2255610Y26968982D01*
X2178344Y27155520D01*
X2066170Y27323400D01*
X1923400Y27466170D01*
X1755520Y27578344D01*
X1568982Y27655610D01*
X1370954Y27695000D01*
X1169046Y27695000D01*
X971018Y27655610D01*
X784480Y27578344D01*
X616600Y27466170D01*
X475000Y27324570D01*
X475000Y27814321D01*
X3430000Y27814321D01*
X3430000Y27725679D01*
X3447294Y27638740D01*
X3481215Y27556845D01*
X3530462Y27483142D01*
X3593142Y27420462D01*
X3666845Y27371215D01*
X3748740Y27337294D01*
X3835679Y27320000D01*
X3924321Y27320000D01*
X4011260Y27337294D01*
X4093155Y27371215D01*
X4166858Y27420462D01*
X4229538Y27483142D01*
X4278785Y27556845D01*
X4312706Y27638740D01*
X4330000Y27725679D01*
X4330000Y27774321D01*
X8040000Y27774321D01*
X8040000Y27685679D01*
X8057294Y27598740D01*
X8091215Y27516845D01*
X8140462Y27443142D01*
X8203142Y27380462D01*
X8276845Y27331215D01*
X8358740Y27297294D01*
X8445679Y27280000D01*
X8534321Y27280000D01*
X8621260Y27297294D01*
X8703155Y27331215D01*
X8722769Y27344321D01*
X13110000Y27344321D01*
X13110000Y27255679D01*
X13127294Y27168740D01*
X13161215Y27086845D01*
X13210462Y27013142D01*
X13273142Y26950462D01*
X13273833Y26950000D01*
X13273142Y26949538D01*
X13210462Y26886858D01*
X13161215Y26813155D01*
X13127294Y26731260D01*
X13110000Y26644321D01*
X13110000Y26555679D01*
X13127294Y26468740D01*
X13161215Y26386845D01*
X13210462Y26313142D01*
X13273142Y26250462D01*
X13346845Y26201215D01*
X13428740Y26167294D01*
X13515679Y26150000D01*
X13604321Y26150000D01*
X13691260Y26167294D01*
X13773155Y26201215D01*
X13846858Y26250462D01*
X13909538Y26313142D01*
X13958785Y26386845D01*
X13992706Y26468740D01*
X14010000Y26555679D01*
X14010000Y26644321D01*
X13992706Y26731260D01*
X13958785Y26813155D01*
X13909538Y26886858D01*
X13846858Y26949538D01*
X13846167Y26950000D01*
X13846858Y26950462D01*
X13909538Y27013142D01*
X13958785Y27086845D01*
X13992706Y27168740D01*
X14010000Y27255679D01*
X14010000Y27344321D01*
X13992706Y27431260D01*
X13958785Y27513155D01*
X13909538Y27586858D01*
X13846858Y27649538D01*
X13773155Y27698785D01*
X13691260Y27732706D01*
X13604321Y27750000D01*
X13515679Y27750000D01*
X13428740Y27732706D01*
X13346845Y27698785D01*
X13273142Y27649538D01*
X13210462Y27586858D01*
X13161215Y27513155D01*
X13127294Y27431260D01*
X13110000Y27344321D01*
X8722769Y27344321D01*
X8776858Y27380462D01*
X8839538Y27443142D01*
X8888785Y27516845D01*
X8922706Y27598740D01*
X8940000Y27685679D01*
X8940000Y27774321D01*
X8922706Y27861260D01*
X8888785Y27943155D01*
X8839538Y28016858D01*
X8776858Y28079538D01*
X8703155Y28128785D01*
X8621260Y28162706D01*
X8534321Y28180000D01*
X8445679Y28180000D01*
X8358740Y28162706D01*
X8276845Y28128785D01*
X8203142Y28079538D01*
X8140462Y28016858D01*
X8091215Y27943155D01*
X8057294Y27861260D01*
X8040000Y27774321D01*
X4330000Y27774321D01*
X4330000Y27814321D01*
X4312706Y27901260D01*
X4278785Y27983155D01*
X4229538Y28056858D01*
X4166858Y28119538D01*
X4093155Y28168785D01*
X4011260Y28202706D01*
X3924321Y28220000D01*
X3835679Y28220000D01*
X3748740Y28202706D01*
X3666845Y28168785D01*
X3593142Y28119538D01*
X3530462Y28056858D01*
X3481215Y27983155D01*
X3447294Y27901260D01*
X3430000Y27814321D01*
X475000Y27814321D01*
X475000Y28555430D01*
X616600Y28413830D01*
X784480Y28301656D01*
X971018Y28224390D01*
X1169046Y28185000D01*
X1370954Y28185000D01*
X1568982Y28224390D01*
X1755520Y28301656D01*
X1923400Y28413830D01*
X2066170Y28556600D01*
X2178344Y28724480D01*
X2255610Y28911018D01*
X2295000Y29109046D01*
X2295000Y29310954D01*
X2255610Y29508982D01*
X2178344Y29695520D01*
X2148624Y29740000D01*
X3845000Y29740000D01*
X3845000Y29190000D01*
X3868685Y29049520D01*
X3919321Y28916360D01*
X3994963Y28795637D01*
X4092703Y28691991D01*
X4208785Y28609405D01*
X4338749Y28551052D01*
X4407471Y28533452D01*
X4520000Y28573122D01*
X4520000Y29740000D01*
X4620000Y29740000D01*
X4620000Y28573122D01*
X4732529Y28533452D01*
X4801251Y28551052D01*
X4931215Y28609405D01*
X5047297Y28691991D01*
X5145037Y28795637D01*
X5220679Y28916360D01*
X5271315Y29049520D01*
X5295000Y29190000D01*
X5295000Y29740000D01*
X4620000Y29740000D01*
X4520000Y29740000D01*
X3845000Y29740000D01*
X2148624Y29740000D01*
X2066170Y29863400D01*
X1923400Y30006170D01*
X1755520Y30118344D01*
X1568982Y30195610D01*
X1370954Y30235000D01*
X1169046Y30235000D01*
X971018Y30195610D01*
X784480Y30118344D01*
X616600Y30006170D01*
X475000Y29864570D01*
X475000Y30390000D01*
X3845000Y30390000D01*
X3845000Y29840000D01*
X4520000Y29840000D01*
X4520000Y31006878D01*
X4620000Y31006878D01*
X4620000Y29840000D01*
X5295000Y29840000D01*
X5295000Y30374170D01*
X5450000Y30374170D01*
X5450000Y30265830D01*
X5471136Y30159571D01*
X5512597Y30059477D01*
X5572787Y29969396D01*
X5649396Y29892787D01*
X5739477Y29832597D01*
X5839571Y29791136D01*
X5945830Y29770000D01*
X6054170Y29770000D01*
X6160429Y29791136D01*
X6260523Y29832597D01*
X6350604Y29892787D01*
X6427213Y29969396D01*
X6487403Y30059477D01*
X6528864Y30159571D01*
X6539754Y30214321D01*
X6770000Y30214321D01*
X6770000Y30125679D01*
X6787294Y30038740D01*
X6821215Y29956845D01*
X6870462Y29883142D01*
X6933142Y29820462D01*
X7006845Y29771215D01*
X7088740Y29737294D01*
X7175679Y29720000D01*
X7264321Y29720000D01*
X7351260Y29737294D01*
X7433155Y29771215D01*
X7506858Y29820462D01*
X7569538Y29883142D01*
X7618785Y29956845D01*
X7652706Y30038740D01*
X7670000Y30125679D01*
X7670000Y30214321D01*
X10110000Y30214321D01*
X10110000Y30125679D01*
X10127294Y30038740D01*
X10161215Y29956845D01*
X10210462Y29883142D01*
X10273142Y29820462D01*
X10346845Y29771215D01*
X10428740Y29737294D01*
X10515679Y29720000D01*
X10604321Y29720000D01*
X10691260Y29737294D01*
X10697793Y29740000D01*
X12485000Y29740000D01*
X12485000Y29190000D01*
X12508685Y29049520D01*
X12559321Y28916360D01*
X12634963Y28795637D01*
X12732703Y28691991D01*
X12848785Y28609405D01*
X12978749Y28551052D01*
X13047471Y28533452D01*
X13160000Y28573122D01*
X13160000Y29740000D01*
X13260000Y29740000D01*
X13260000Y28573122D01*
X13372529Y28533452D01*
X13441251Y28551052D01*
X13571215Y28609405D01*
X13687297Y28691991D01*
X13785037Y28795637D01*
X13860679Y28916360D01*
X13911315Y29049520D01*
X13935000Y29190000D01*
X13935000Y29740000D01*
X13260000Y29740000D01*
X13160000Y29740000D01*
X12485000Y29740000D01*
X10697793Y29740000D01*
X10773155Y29771215D01*
X10846858Y29820462D01*
X10909538Y29883142D01*
X10958785Y29956845D01*
X10992706Y30038740D01*
X11010000Y30125679D01*
X11010000Y30214321D01*
X10992706Y30301260D01*
X10962507Y30374170D01*
X11230000Y30374170D01*
X11230000Y30265830D01*
X11251136Y30159571D01*
X11292597Y30059477D01*
X11352787Y29969396D01*
X11429396Y29892787D01*
X11519477Y29832597D01*
X11619571Y29791136D01*
X11725830Y29770000D01*
X11834170Y29770000D01*
X11940429Y29791136D01*
X12040523Y29832597D01*
X12130604Y29892787D01*
X12207213Y29969396D01*
X12267403Y30059477D01*
X12308864Y30159571D01*
X12330000Y30265830D01*
X12330000Y30374170D01*
X12326852Y30390000D01*
X12485000Y30390000D01*
X12485000Y29840000D01*
X13160000Y29840000D01*
X13160000Y31006878D01*
X13260000Y31006878D01*
X13260000Y29840000D01*
X13935000Y29840000D01*
X13935000Y30390000D01*
X13911315Y30530480D01*
X13860679Y30663640D01*
X13785037Y30784363D01*
X13687297Y30888009D01*
X13571215Y30970595D01*
X13441251Y31028948D01*
X13372529Y31046548D01*
X13260000Y31006878D01*
X13160000Y31006878D01*
X13047471Y31046548D01*
X12978749Y31028948D01*
X12848785Y30970595D01*
X12732703Y30888009D01*
X12634963Y30784363D01*
X12559321Y30663640D01*
X12508685Y30530480D01*
X12485000Y30390000D01*
X12326852Y30390000D01*
X12308864Y30480429D01*
X12267403Y30580523D01*
X12207213Y30670604D01*
X12130604Y30747213D01*
X12040523Y30807403D01*
X11940429Y30848864D01*
X11834170Y30870000D01*
X11725830Y30870000D01*
X11619571Y30848864D01*
X11519477Y30807403D01*
X11429396Y30747213D01*
X11352787Y30670604D01*
X11292597Y30580523D01*
X11251136Y30480429D01*
X11230000Y30374170D01*
X10962507Y30374170D01*
X10958785Y30383155D01*
X10909538Y30456858D01*
X10846858Y30519538D01*
X10773155Y30568785D01*
X10691260Y30602706D01*
X10604321Y30620000D01*
X10515679Y30620000D01*
X10428740Y30602706D01*
X10346845Y30568785D01*
X10273142Y30519538D01*
X10210462Y30456858D01*
X10161215Y30383155D01*
X10127294Y30301260D01*
X10110000Y30214321D01*
X7670000Y30214321D01*
X7652706Y30301260D01*
X7618785Y30383155D01*
X7569538Y30456858D01*
X7506858Y30519538D01*
X7433155Y30568785D01*
X7351260Y30602706D01*
X7264321Y30620000D01*
X7175679Y30620000D01*
X7088740Y30602706D01*
X7006845Y30568785D01*
X6933142Y30519538D01*
X6870462Y30456858D01*
X6821215Y30383155D01*
X6787294Y30301260D01*
X6770000Y30214321D01*
X6539754Y30214321D01*
X6550000Y30265830D01*
X6550000Y30374170D01*
X6528864Y30480429D01*
X6487403Y30580523D01*
X6427213Y30670604D01*
X6350604Y30747213D01*
X6260523Y30807403D01*
X6160429Y30848864D01*
X6054170Y30870000D01*
X5945830Y30870000D01*
X5839571Y30848864D01*
X5739477Y30807403D01*
X5649396Y30747213D01*
X5572787Y30670604D01*
X5512597Y30580523D01*
X5471136Y30480429D01*
X5450000Y30374170D01*
X5295000Y30374170D01*
X5295000Y30390000D01*
X5271315Y30530480D01*
X5220679Y30663640D01*
X5145037Y30784363D01*
X5047297Y30888009D01*
X4931215Y30970595D01*
X4801251Y31028948D01*
X4732529Y31046548D01*
X4620000Y31006878D01*
X4520000Y31006878D01*
X4407471Y31046548D01*
X4338749Y31028948D01*
X4208785Y30970595D01*
X4092703Y30888009D01*
X3994963Y30784363D01*
X3919321Y30663640D01*
X3868685Y30530480D01*
X3845000Y30390000D01*
X475000Y30390000D01*
X475000Y31095430D01*
X616600Y30953830D01*
X784480Y30841656D01*
X971018Y30764390D01*
X1169046Y30725000D01*
X1370954Y30725000D01*
X1568982Y30764390D01*
X1755520Y30841656D01*
X1923400Y30953830D01*
X2066170Y31096600D01*
X2178344Y31264480D01*
X2255610Y31451018D01*
X2295000Y31649046D01*
X2295000Y31850954D01*
X2255610Y32048982D01*
X2178344Y32235520D01*
X2066170Y32403400D01*
X1923400Y32546170D01*
X1755520Y32658344D01*
X1568982Y32735610D01*
X1370954Y32775000D01*
X1169046Y32775000D01*
X971018Y32735610D01*
X784480Y32658344D01*
X616600Y32546170D01*
X475000Y32404570D01*
X475000Y33635430D01*
X616600Y33493830D01*
X784480Y33381656D01*
X971018Y33304390D01*
X1169046Y33265000D01*
X1370954Y33265000D01*
X1568982Y33304390D01*
X1755520Y33381656D01*
X1923400Y33493830D01*
X2066170Y33636600D01*
X2178344Y33804480D01*
X2226193Y33920000D01*
X3845000Y33920000D01*
X3845000Y33620000D01*
X3868685Y33479520D01*
X3919321Y33346360D01*
X3994963Y33225637D01*
X4092703Y33121991D01*
X4208785Y33039405D01*
X4338749Y32981052D01*
X4407471Y32963452D01*
X4520000Y33003122D01*
X4520000Y33920000D01*
X4620000Y33920000D01*
X4620000Y33003122D01*
X4732529Y32963452D01*
X4801251Y32981052D01*
X4931215Y33039405D01*
X5047297Y33121991D01*
X5145037Y33225637D01*
X5220679Y33346360D01*
X5271315Y33479520D01*
X5295000Y33620000D01*
X5295000Y33920000D01*
X12485000Y33920000D01*
X12485000Y33620000D01*
X12508685Y33479520D01*
X12559321Y33346360D01*
X12634963Y33225637D01*
X12732703Y33121991D01*
X12848785Y33039405D01*
X12978749Y32981052D01*
X13047471Y32963452D01*
X13160000Y33003122D01*
X13160000Y33920000D01*
X13260000Y33920000D01*
X13260000Y33003122D01*
X13372529Y32963452D01*
X13441251Y32981052D01*
X13571215Y33039405D01*
X13687297Y33121991D01*
X13785037Y33225637D01*
X13860679Y33346360D01*
X13911315Y33479520D01*
X13935000Y33620000D01*
X13935000Y33920000D01*
X13260000Y33920000D01*
X13160000Y33920000D01*
X12485000Y33920000D01*
X5295000Y33920000D01*
X4620000Y33920000D01*
X4520000Y33920000D01*
X3845000Y33920000D01*
X2226193Y33920000D01*
X2255610Y33991018D01*
X2295000Y34189046D01*
X2295000Y34320000D01*
X3845000Y34320000D01*
X3845000Y34020000D01*
X4520000Y34020000D01*
X4520000Y34936878D01*
X4620000Y34936878D01*
X4620000Y34020000D01*
X5295000Y34020000D01*
X5295000Y34320000D01*
X12485000Y34320000D01*
X12485000Y34020000D01*
X13160000Y34020000D01*
X13160000Y34936878D01*
X13260000Y34936878D01*
X13260000Y34020000D01*
X13935000Y34020000D01*
X13935000Y34320000D01*
X13911315Y34460480D01*
X13860679Y34593640D01*
X13785037Y34714363D01*
X13687297Y34818009D01*
X13571215Y34900595D01*
X13441251Y34958948D01*
X13372529Y34976548D01*
X13260000Y34936878D01*
X13160000Y34936878D01*
X13047471Y34976548D01*
X12978749Y34958948D01*
X12848785Y34900595D01*
X12732703Y34818009D01*
X12634963Y34714363D01*
X12559321Y34593640D01*
X12508685Y34460480D01*
X12485000Y34320000D01*
X5295000Y34320000D01*
X5271315Y34460480D01*
X5220679Y34593640D01*
X5145037Y34714363D01*
X5047297Y34818009D01*
X4931215Y34900595D01*
X4801251Y34958948D01*
X4732529Y34976548D01*
X4620000Y34936878D01*
X4520000Y34936878D01*
X4407471Y34976548D01*
X4338749Y34958948D01*
X4208785Y34900595D01*
X4092703Y34818009D01*
X3994963Y34714363D01*
X3919321Y34593640D01*
X3868685Y34460480D01*
X3845000Y34320000D01*
X2295000Y34320000D01*
X2295000Y34390954D01*
X2255610Y34588982D01*
X2178344Y34775520D01*
X2066170Y34943400D01*
X1924570Y35085000D01*
X15855430Y35085000D01*
X15713830Y34943400D01*
G37*
G04 #@! TD.AperFunction*
M02*
