G04 #@! TF.GenerationSoftware,KiCad,Pcbnew,5.1.9-1.fc33*
G04 #@! TF.CreationDate,2021-01-17T22:01:28+01:00*
G04 #@! TF.ProjectId,reDIP-SID,72654449-502d-4534-9944-2e6b69636164,0.1*
G04 #@! TF.SameCoordinates,PX5e28010PY8011a50*
G04 #@! TF.FileFunction,Copper,L4,Inr*
G04 #@! TF.FilePolarity,Positive*
%FSLAX46Y46*%
G04 Gerber Fmt 4.6, Leading zero omitted, Abs format (unit mm)*
G04 Created by KiCad (PCBNEW 5.1.9-1.fc33) date 2021-01-17 22:01:28*
%MOMM*%
%LPD*%
G01*
G04 APERTURE LIST*
G04 #@! TA.AperFunction,ComponentPad*
%ADD10O,1.000000X2.100000*%
G04 #@! TD*
G04 #@! TA.AperFunction,ComponentPad*
%ADD11O,1.000000X1.600000*%
G04 #@! TD*
G04 #@! TA.AperFunction,ComponentPad*
%ADD12C,1.600000*%
G04 #@! TD*
G04 #@! TA.AperFunction,ViaPad*
%ADD13C,0.450000*%
G04 #@! TD*
G04 #@! TA.AperFunction,Conductor*
%ADD14C,0.250000*%
G04 #@! TD*
G04 #@! TA.AperFunction,Conductor*
%ADD15C,0.200000*%
G04 #@! TD*
G04 #@! TA.AperFunction,Conductor*
%ADD16C,0.150000*%
G04 #@! TD*
G04 #@! TA.AperFunction,Conductor*
%ADD17C,0.100000*%
G04 #@! TD*
G04 APERTURE END LIST*
D10*
X4570000Y29790000D03*
X13210000Y29790000D03*
D11*
X13210000Y33970000D03*
X4570000Y33970000D03*
D12*
X16510000Y1270000D03*
X16510000Y3810000D03*
X16510000Y6350000D03*
X16510000Y8890000D03*
X16510000Y11430000D03*
X16510000Y13970000D03*
X16510000Y16510000D03*
X16510000Y19050000D03*
X16510000Y21590000D03*
X16510000Y24130000D03*
X3810000Y1270000D03*
X3810000Y3810000D03*
X6350000Y1270000D03*
X6350000Y3810000D03*
X8890000Y1270000D03*
X8890000Y3810000D03*
X11430000Y1270000D03*
X11430000Y3810000D03*
X13970000Y1270000D03*
X13970000Y3810000D03*
X1270000Y1270000D03*
X1270000Y3810000D03*
X1270000Y6350000D03*
X1270000Y8890000D03*
X1270000Y11430000D03*
X1270000Y13970000D03*
X1270000Y16510000D03*
X1270000Y19050000D03*
X1270000Y21590000D03*
X1270000Y24130000D03*
X16510000Y26670000D03*
X16510000Y29210000D03*
X16510000Y31750000D03*
X16510000Y34290000D03*
X1270000Y26670000D03*
X1270000Y29210000D03*
X1270000Y31750000D03*
X1270000Y34290000D03*
D13*
X12270000Y23250000D03*
X8890000Y7360000D03*
X7200000Y26120000D03*
X8890000Y9360000D03*
X12700000Y23670000D03*
X11850000Y22830000D03*
X12700000Y22830000D03*
X11850000Y23680000D03*
X9890000Y16300000D03*
X10900000Y17180000D03*
X8890000Y15290000D03*
X7900000Y16300000D03*
X7000000Y17180000D03*
X6260000Y5180000D03*
X15740000Y25400000D03*
X8740000Y19450000D03*
X3380000Y15240000D03*
X13550000Y15100000D03*
X15740000Y20320000D03*
X8890000Y17280000D03*
X2980000Y18570000D03*
X8460000Y25370000D03*
X4440000Y20340000D03*
X9900000Y27680000D03*
X13810000Y7130000D03*
X6680000Y27760000D03*
X13810000Y9030000D03*
X5350000Y24040000D03*
X4750000Y24040000D03*
X4150000Y24040000D03*
X3550000Y24040000D03*
X3850000Y23520000D03*
X4450000Y23520000D03*
X5050000Y23520000D03*
X5650000Y23520000D03*
X5950000Y24040000D03*
X3280000Y27770000D03*
X3880000Y27770000D03*
X4740000Y9620000D03*
X13170000Y7130000D03*
X12230000Y26130000D03*
X6830000Y13520000D03*
X13780000Y21740000D03*
X14000000Y17220000D03*
X3990000Y19890000D03*
X2980000Y19170000D03*
X3750000Y25800000D03*
X3150000Y25800000D03*
X13490000Y20630000D03*
X5550000Y14300000D03*
X5550000Y25710000D03*
X8490000Y27730000D03*
X10560000Y30170000D03*
X7220000Y30170000D03*
X11760000Y20970000D03*
X11640000Y20380000D03*
X9810000Y11350000D03*
X10410000Y11350000D03*
X12230000Y14290000D03*
X7410000Y10960000D03*
X2970000Y13030000D03*
X13570000Y19630000D03*
X13090000Y19270000D03*
X13060000Y15590000D03*
X12940000Y15000000D03*
X12350000Y14880000D03*
X6230000Y13580000D03*
X6140000Y14180000D03*
X2970000Y11810000D03*
X3840000Y15640000D03*
X4370000Y15940000D03*
X4480000Y15340000D03*
X5080000Y15240000D03*
X2970000Y12420000D03*
X13650000Y15700000D03*
X13760000Y16290000D03*
X13020000Y19870000D03*
X4350000Y25710000D03*
X7890000Y11330000D03*
X4950000Y25710000D03*
X11290000Y13820000D03*
X5070000Y6410000D03*
X4990000Y19420000D03*
X5790000Y20030000D03*
X5890000Y20640000D03*
X7550000Y21800000D03*
X6490000Y20740000D03*
X12410000Y8360000D03*
X7850000Y22400000D03*
X14280000Y22090000D03*
X13560000Y26600000D03*
X6810000Y10950000D03*
X6590000Y21340000D03*
X10160000Y2540000D03*
X9350000Y10960000D03*
X13560000Y27300000D03*
X13210000Y21170000D03*
X8460000Y24430000D03*
X15740000Y12700000D03*
X14310000Y8430000D03*
X12230000Y20530000D03*
X11140000Y21210000D03*
X14310000Y7730000D03*
X10780000Y21690000D03*
D14*
X3280000Y27770000D02*
X3880000Y27770000D01*
D15*
X4350000Y25710000D02*
X4950000Y25710000D01*
D14*
X3750000Y25800000D02*
X3150000Y25800000D01*
X3360000Y27850000D02*
X3280000Y27770000D01*
X13710000Y31330000D02*
X4030000Y31330000D01*
X14450000Y30590000D02*
X13710000Y31330000D01*
X14450000Y27840000D02*
X14450000Y30590000D01*
X14900000Y27390000D02*
X14450000Y27840000D01*
X3360000Y30660000D02*
X3360000Y27850000D01*
X15790000Y27390000D02*
X14900000Y27390000D01*
X4030000Y31330000D02*
X3360000Y30660000D01*
X16510000Y26670000D02*
X15790000Y27390000D01*
X13490000Y20630000D02*
X13070002Y20630000D01*
X13070002Y20630000D02*
X11710001Y19269999D01*
X6715000Y15465000D02*
X5550000Y14300000D01*
X7905002Y15465000D02*
X6715000Y15465000D01*
X11710001Y19269999D02*
X7905002Y15465000D01*
X11139999Y20380001D02*
X11139999Y19840001D01*
X5810000Y25710000D02*
X11139999Y20380001D01*
X11139999Y19840001D02*
X11710001Y19269999D01*
X5550000Y25710000D02*
X5810000Y25710000D01*
D15*
X4543002Y16456998D02*
X4543002Y18080000D01*
X5555001Y15444999D02*
X4543002Y16456998D01*
X8325001Y21861999D02*
X8325001Y22628001D01*
X5555001Y15008003D02*
X5555001Y15444999D01*
X5074999Y14031999D02*
X5074999Y14528001D01*
X4543002Y18080000D02*
X8325001Y21861999D01*
X7776998Y11330000D02*
X5074999Y14031999D01*
X5074999Y14528001D02*
X5555001Y15008003D01*
X7890000Y11330000D02*
X7776998Y11330000D01*
X4950000Y25606998D02*
X4950000Y25710000D01*
X5321999Y25234999D02*
X4950000Y25606998D01*
X5718003Y25234999D02*
X5321999Y25234999D01*
X8325001Y22628001D02*
X5718003Y25234999D01*
D16*
X617747Y35012964D02*
X1270000Y34360711D01*
X1922253Y35012964D01*
X1876537Y35085000D01*
X15855430Y35085000D01*
X15713830Y34943400D01*
X15601656Y34775520D01*
X15524390Y34588982D01*
X15485000Y34390954D01*
X15485000Y34189046D01*
X15524390Y33991018D01*
X15601656Y33804480D01*
X15713830Y33636600D01*
X15856600Y33493830D01*
X16024480Y33381656D01*
X16211018Y33304390D01*
X16409046Y33265000D01*
X16610954Y33265000D01*
X16808982Y33304390D01*
X16995520Y33381656D01*
X17163400Y33493830D01*
X17305001Y33635431D01*
X17305001Y32404569D01*
X17163400Y32546170D01*
X16995520Y32658344D01*
X16808982Y32735610D01*
X16610954Y32775000D01*
X16409046Y32775000D01*
X16211018Y32735610D01*
X16024480Y32658344D01*
X15856600Y32546170D01*
X15713830Y32403400D01*
X15601656Y32235520D01*
X15524390Y32048982D01*
X15485000Y31850954D01*
X15485000Y31649046D01*
X15524390Y31451018D01*
X15601656Y31264480D01*
X15713830Y31096600D01*
X15856600Y30953830D01*
X16024480Y30841656D01*
X16211018Y30764390D01*
X16409046Y30725000D01*
X16610954Y30725000D01*
X16808982Y30764390D01*
X16995520Y30841656D01*
X17163400Y30953830D01*
X17305001Y31095431D01*
X17305001Y29864569D01*
X17163400Y30006170D01*
X16995520Y30118344D01*
X16808982Y30195610D01*
X16610954Y30235000D01*
X16409046Y30235000D01*
X16211018Y30195610D01*
X16024480Y30118344D01*
X15856600Y30006170D01*
X15713830Y29863400D01*
X15601656Y29695520D01*
X15524390Y29508982D01*
X15485000Y29310954D01*
X15485000Y29109046D01*
X15524390Y28911018D01*
X15601656Y28724480D01*
X15713830Y28556600D01*
X15856600Y28413830D01*
X16024480Y28301656D01*
X16211018Y28224390D01*
X16409046Y28185000D01*
X16610954Y28185000D01*
X16808982Y28224390D01*
X16995520Y28301656D01*
X17163400Y28413830D01*
X17305001Y28555431D01*
X17305001Y28154860D01*
X17280285Y28156558D01*
X15085257Y28163396D01*
X14999898Y28174902D01*
X14934136Y28202375D01*
X14877727Y28245925D01*
X14834508Y28302589D01*
X14807422Y28368512D01*
X14800000Y28426128D01*
X14800000Y29754620D01*
X14803618Y31068003D01*
X14801767Y31097429D01*
X14785027Y31227106D01*
X14769930Y31283973D01*
X14720143Y31404877D01*
X14690817Y31455888D01*
X14611386Y31559750D01*
X14569837Y31601413D01*
X14466194Y31681130D01*
X14415264Y31710597D01*
X14294498Y31760717D01*
X14237672Y31775971D01*
X14108041Y31793068D01*
X14078621Y31795000D01*
X3710000Y31795000D01*
X3680632Y31793075D01*
X3551222Y31776038D01*
X3494486Y31760836D01*
X3373896Y31710886D01*
X3323028Y31681517D01*
X3219475Y31602057D01*
X3177943Y31560525D01*
X3098483Y31456972D01*
X3069114Y31406104D01*
X3019164Y31285514D01*
X3003962Y31228778D01*
X2986925Y31099368D01*
X2985000Y31070000D01*
X2985000Y28111396D01*
X2930462Y28056858D01*
X2881215Y27983155D01*
X2847294Y27901260D01*
X2830000Y27814321D01*
X2830000Y27725679D01*
X2847294Y27638740D01*
X2881215Y27556845D01*
X2930462Y27483142D01*
X2993142Y27420462D01*
X3066845Y27371215D01*
X3148740Y27337294D01*
X3199767Y27327144D01*
X3219194Y27307697D01*
X3322635Y27228228D01*
X3373448Y27198846D01*
X3493924Y27148836D01*
X3550613Y27133595D01*
X3679924Y27116450D01*
X3709271Y27114498D01*
X9394815Y27108784D01*
X10448236Y27106221D01*
X10471663Y27107701D01*
X12648154Y27105514D01*
X12733241Y27094269D01*
X12798858Y27067131D01*
X12855258Y27023994D01*
X12898632Y26967770D01*
X12926043Y26902265D01*
X12937640Y26817226D01*
X12942433Y25887345D01*
X12944502Y25858041D01*
X12962141Y25728961D01*
X12977578Y25672406D01*
X13027964Y25552264D01*
X13057488Y25501615D01*
X13137201Y25398568D01*
X13178808Y25357264D01*
X13282437Y25278308D01*
X13333301Y25249156D01*
X13453809Y25199652D01*
X13510477Y25184630D01*
X13639683Y25167938D01*
X13669000Y25166085D01*
X15352641Y25169745D01*
X15390462Y25113142D01*
X15453142Y25050462D01*
X15526845Y25001215D01*
X15608740Y24967294D01*
X15695679Y24950000D01*
X15784321Y24950000D01*
X15871260Y24967294D01*
X15953155Y25001215D01*
X16026858Y25050462D01*
X16089538Y25113142D01*
X16128486Y25171432D01*
X17273544Y25173921D01*
X17302794Y25175894D01*
X17305001Y25176188D01*
X17305001Y24784569D01*
X17163400Y24926170D01*
X16995520Y25038344D01*
X16808982Y25115610D01*
X16610954Y25155000D01*
X16409046Y25155000D01*
X16211018Y25115610D01*
X16024480Y25038344D01*
X15856600Y24926170D01*
X15713830Y24783400D01*
X15601656Y24615520D01*
X15524390Y24428982D01*
X15485000Y24230954D01*
X15485000Y24029046D01*
X15524390Y23831018D01*
X15601656Y23644480D01*
X15713830Y23476600D01*
X15856600Y23333830D01*
X16024480Y23221656D01*
X16211018Y23144390D01*
X16409046Y23105000D01*
X16610954Y23105000D01*
X16808982Y23144390D01*
X16995520Y23221656D01*
X17163400Y23333830D01*
X17305001Y23475431D01*
X17305001Y22244569D01*
X17163400Y22386170D01*
X16995520Y22498344D01*
X16808982Y22575610D01*
X16610954Y22615000D01*
X16409046Y22615000D01*
X16211018Y22575610D01*
X16024480Y22498344D01*
X15856600Y22386170D01*
X15713830Y22243400D01*
X15601656Y22075520D01*
X15524390Y21888982D01*
X15485000Y21690954D01*
X15485000Y21489046D01*
X15524390Y21291018D01*
X15601656Y21104480D01*
X15713830Y20936600D01*
X15856600Y20793830D01*
X16024480Y20681656D01*
X16211018Y20604390D01*
X16409046Y20565000D01*
X16610954Y20565000D01*
X16808982Y20604390D01*
X16995520Y20681656D01*
X17163400Y20793830D01*
X17305001Y20935431D01*
X17305001Y19704569D01*
X17163400Y19846170D01*
X16995520Y19958344D01*
X16808982Y20035610D01*
X16610954Y20075000D01*
X16409046Y20075000D01*
X16211018Y20035610D01*
X16024480Y19958344D01*
X15856600Y19846170D01*
X15713830Y19703400D01*
X15601656Y19535520D01*
X15524390Y19348982D01*
X15485000Y19150954D01*
X15485000Y18949046D01*
X15524390Y18751018D01*
X15601656Y18564480D01*
X15713830Y18396600D01*
X15856600Y18253830D01*
X16024480Y18141656D01*
X16211018Y18064390D01*
X16409046Y18025000D01*
X16610954Y18025000D01*
X16808982Y18064390D01*
X16995520Y18141656D01*
X17163400Y18253830D01*
X17305001Y18395431D01*
X17305000Y17164570D01*
X17163400Y17306170D01*
X16995520Y17418344D01*
X16808982Y17495610D01*
X16610954Y17535000D01*
X16409046Y17535000D01*
X16211018Y17495610D01*
X16024480Y17418344D01*
X15856600Y17306170D01*
X15713830Y17163400D01*
X15601656Y16995520D01*
X15524390Y16808982D01*
X15485000Y16610954D01*
X15485000Y16409046D01*
X15524390Y16211018D01*
X15601656Y16024480D01*
X15713830Y15856600D01*
X15856600Y15713830D01*
X16024480Y15601656D01*
X16211018Y15524390D01*
X16409046Y15485000D01*
X16610954Y15485000D01*
X16808982Y15524390D01*
X16995520Y15601656D01*
X17163400Y15713830D01*
X17305000Y15855430D01*
X17305000Y14624570D01*
X17163400Y14766170D01*
X16995520Y14878344D01*
X16808982Y14955610D01*
X16610954Y14995000D01*
X16409046Y14995000D01*
X16211018Y14955610D01*
X16024480Y14878344D01*
X15856600Y14766170D01*
X15713830Y14623400D01*
X15601656Y14455520D01*
X15524390Y14268982D01*
X15485000Y14070954D01*
X15485000Y13869046D01*
X15524390Y13671018D01*
X15601656Y13484480D01*
X15713830Y13316600D01*
X15856600Y13173830D01*
X16024480Y13061656D01*
X16211018Y12984390D01*
X16409046Y12945000D01*
X16610954Y12945000D01*
X16808982Y12984390D01*
X16995520Y13061656D01*
X17163400Y13173830D01*
X17305000Y13315430D01*
X17305000Y12084570D01*
X17163400Y12226170D01*
X16995520Y12338344D01*
X16808982Y12415610D01*
X16610954Y12455000D01*
X16409046Y12455000D01*
X16211018Y12415610D01*
X16024480Y12338344D01*
X15856600Y12226170D01*
X15713830Y12083400D01*
X15601656Y11915520D01*
X15524390Y11728982D01*
X15485000Y11530954D01*
X15485000Y11329046D01*
X15524390Y11131018D01*
X15601656Y10944480D01*
X15713830Y10776600D01*
X15856600Y10633830D01*
X16024480Y10521656D01*
X16211018Y10444390D01*
X16409046Y10405000D01*
X16610954Y10405000D01*
X16808982Y10444390D01*
X16995520Y10521656D01*
X17163400Y10633830D01*
X17305000Y10775430D01*
X17305000Y9544570D01*
X17163400Y9686170D01*
X16995520Y9798344D01*
X16808982Y9875610D01*
X16610954Y9915000D01*
X16409046Y9915000D01*
X16211018Y9875610D01*
X16024480Y9798344D01*
X15856600Y9686170D01*
X15713830Y9543400D01*
X15601656Y9375520D01*
X15524390Y9188982D01*
X15485000Y8990954D01*
X15485000Y8789046D01*
X15524390Y8591018D01*
X15601656Y8404480D01*
X15713830Y8236600D01*
X15856600Y8093830D01*
X16024480Y7981656D01*
X16211018Y7904390D01*
X16409046Y7865000D01*
X16610954Y7865000D01*
X16808982Y7904390D01*
X16995520Y7981656D01*
X17163400Y8093830D01*
X17305000Y8235430D01*
X17305000Y7004570D01*
X17163400Y7146170D01*
X16995520Y7258344D01*
X16808982Y7335610D01*
X16610954Y7375000D01*
X16409046Y7375000D01*
X16211018Y7335610D01*
X16024480Y7258344D01*
X15856600Y7146170D01*
X15713830Y7003400D01*
X15601656Y6835520D01*
X15524390Y6648982D01*
X15485000Y6450954D01*
X15485000Y6249046D01*
X15524390Y6051018D01*
X15601656Y5864480D01*
X15713830Y5696600D01*
X15856600Y5553830D01*
X16024480Y5441656D01*
X16211018Y5364390D01*
X16409046Y5325000D01*
X16610954Y5325000D01*
X16808982Y5364390D01*
X16995520Y5441656D01*
X17163400Y5553830D01*
X17305000Y5695430D01*
X17305000Y4464570D01*
X17163400Y4606170D01*
X16995520Y4718344D01*
X16808982Y4795610D01*
X16610954Y4835000D01*
X16409046Y4835000D01*
X16211018Y4795610D01*
X16024480Y4718344D01*
X15856600Y4606170D01*
X15713830Y4463400D01*
X15601656Y4295520D01*
X15524390Y4108982D01*
X15485000Y3910954D01*
X15485000Y3709046D01*
X15524390Y3511018D01*
X15601656Y3324480D01*
X15713830Y3156600D01*
X15856600Y3013830D01*
X16024480Y2901656D01*
X16211018Y2824390D01*
X16409046Y2785000D01*
X16610954Y2785000D01*
X16808982Y2824390D01*
X16995520Y2901656D01*
X17163400Y3013830D01*
X17305000Y3155430D01*
X17305000Y1924570D01*
X17163400Y2066170D01*
X16995520Y2178344D01*
X16808982Y2255610D01*
X16610954Y2295000D01*
X16409046Y2295000D01*
X16211018Y2255610D01*
X16024480Y2178344D01*
X15856600Y2066170D01*
X15713830Y1923400D01*
X15601656Y1755520D01*
X15524390Y1568982D01*
X15485000Y1370954D01*
X15485000Y1169046D01*
X15524390Y971018D01*
X15601656Y784480D01*
X15713830Y616600D01*
X15855430Y475000D01*
X14624570Y475000D01*
X14766170Y616600D01*
X14878344Y784480D01*
X14955610Y971018D01*
X14995000Y1169046D01*
X14995000Y1370954D01*
X14955610Y1568982D01*
X14878344Y1755520D01*
X14766170Y1923400D01*
X14623400Y2066170D01*
X14455520Y2178344D01*
X14268982Y2255610D01*
X14070954Y2295000D01*
X13869046Y2295000D01*
X13671018Y2255610D01*
X13484480Y2178344D01*
X13316600Y2066170D01*
X13173830Y1923400D01*
X13061656Y1755520D01*
X12984390Y1568982D01*
X12945000Y1370954D01*
X12945000Y1169046D01*
X12984390Y971018D01*
X13061656Y784480D01*
X13173830Y616600D01*
X13315430Y475000D01*
X12084570Y475000D01*
X12226170Y616600D01*
X12338344Y784480D01*
X12415610Y971018D01*
X12455000Y1169046D01*
X12455000Y1370954D01*
X12415610Y1568982D01*
X12338344Y1755520D01*
X12226170Y1923400D01*
X12083400Y2066170D01*
X11915520Y2178344D01*
X11728982Y2255610D01*
X11530954Y2295000D01*
X11329046Y2295000D01*
X11131018Y2255610D01*
X10944480Y2178344D01*
X10776600Y2066170D01*
X10633830Y1923400D01*
X10521656Y1755520D01*
X10444390Y1568982D01*
X10405000Y1370954D01*
X10405000Y1169046D01*
X10444390Y971018D01*
X10521656Y784480D01*
X10633830Y616600D01*
X10775430Y475000D01*
X9544570Y475000D01*
X9686170Y616600D01*
X9798344Y784480D01*
X9875610Y971018D01*
X9915000Y1169046D01*
X9915000Y1370954D01*
X9875610Y1568982D01*
X9798344Y1755520D01*
X9686170Y1923400D01*
X9543400Y2066170D01*
X9375520Y2178344D01*
X9188982Y2255610D01*
X8990954Y2295000D01*
X8789046Y2295000D01*
X8591018Y2255610D01*
X8404480Y2178344D01*
X8236600Y2066170D01*
X8093830Y1923400D01*
X7981656Y1755520D01*
X7904390Y1568982D01*
X7865000Y1370954D01*
X7865000Y1169046D01*
X7904390Y971018D01*
X7981656Y784480D01*
X8093830Y616600D01*
X8235430Y475000D01*
X6956537Y475000D01*
X7002253Y547036D01*
X6350000Y1199289D01*
X5697747Y547036D01*
X5743463Y475000D01*
X4464570Y475000D01*
X4606170Y616600D01*
X4718344Y784480D01*
X4795610Y971018D01*
X4835000Y1169046D01*
X4835000Y1260427D01*
X5320083Y1260427D01*
X5341741Y1059684D01*
X5402145Y867023D01*
X5488337Y705769D01*
X5627036Y617747D01*
X6279289Y1270000D01*
X6420711Y1270000D01*
X7072964Y617747D01*
X7211663Y705769D01*
X7305182Y884712D01*
X7361994Y1078462D01*
X7379917Y1279573D01*
X7358259Y1480316D01*
X7297855Y1672977D01*
X7211663Y1834231D01*
X7072964Y1922253D01*
X6420711Y1270000D01*
X6279289Y1270000D01*
X5627036Y1922253D01*
X5488337Y1834231D01*
X5394818Y1655288D01*
X5338006Y1461538D01*
X5320083Y1260427D01*
X4835000Y1260427D01*
X4835000Y1370954D01*
X4795610Y1568982D01*
X4718344Y1755520D01*
X4606170Y1923400D01*
X4536606Y1992964D01*
X5697747Y1992964D01*
X6350000Y1340711D01*
X7002253Y1992964D01*
X6914231Y2131663D01*
X6735288Y2225182D01*
X6541538Y2281994D01*
X6340427Y2299917D01*
X6139684Y2278259D01*
X5947023Y2217855D01*
X5785769Y2131663D01*
X5697747Y1992964D01*
X4536606Y1992964D01*
X4463400Y2066170D01*
X4295520Y2178344D01*
X4108982Y2255610D01*
X3910954Y2295000D01*
X3709046Y2295000D01*
X3511018Y2255610D01*
X3324480Y2178344D01*
X3156600Y2066170D01*
X3013830Y1923400D01*
X2901656Y1755520D01*
X2824390Y1568982D01*
X2785000Y1370954D01*
X2785000Y1169046D01*
X2824390Y971018D01*
X2901656Y784480D01*
X3013830Y616600D01*
X3155430Y475000D01*
X1924570Y475000D01*
X2066170Y616600D01*
X2178344Y784480D01*
X2255610Y971018D01*
X2295000Y1169046D01*
X2295000Y1370954D01*
X2255610Y1568982D01*
X2178344Y1755520D01*
X2066170Y1923400D01*
X1923400Y2066170D01*
X1755520Y2178344D01*
X1568982Y2255610D01*
X1370954Y2295000D01*
X1169046Y2295000D01*
X971018Y2255610D01*
X784480Y2178344D01*
X616600Y2066170D01*
X475000Y1924570D01*
X475000Y2584321D01*
X9710000Y2584321D01*
X9710000Y2495679D01*
X9727294Y2408740D01*
X9761215Y2326845D01*
X9810462Y2253142D01*
X9873142Y2190462D01*
X9946845Y2141215D01*
X10028740Y2107294D01*
X10115679Y2090000D01*
X10204321Y2090000D01*
X10291260Y2107294D01*
X10373155Y2141215D01*
X10446858Y2190462D01*
X10509538Y2253142D01*
X10558785Y2326845D01*
X10592706Y2408740D01*
X10610000Y2495679D01*
X10610000Y2584321D01*
X10592706Y2671260D01*
X10558785Y2753155D01*
X10509538Y2826858D01*
X10446858Y2889538D01*
X10373155Y2938785D01*
X10291260Y2972706D01*
X10204321Y2990000D01*
X10115679Y2990000D01*
X10028740Y2972706D01*
X9946845Y2938785D01*
X9873142Y2889538D01*
X9810462Y2826858D01*
X9761215Y2753155D01*
X9727294Y2671260D01*
X9710000Y2584321D01*
X475000Y2584321D01*
X475000Y3155430D01*
X616600Y3013830D01*
X784480Y2901656D01*
X971018Y2824390D01*
X1169046Y2785000D01*
X1370954Y2785000D01*
X1568982Y2824390D01*
X1755520Y2901656D01*
X1923400Y3013830D01*
X2066170Y3156600D01*
X2178344Y3324480D01*
X2255610Y3511018D01*
X2295000Y3709046D01*
X2295000Y3910954D01*
X2785000Y3910954D01*
X2785000Y3709046D01*
X2824390Y3511018D01*
X2901656Y3324480D01*
X3013830Y3156600D01*
X3156600Y3013830D01*
X3324480Y2901656D01*
X3511018Y2824390D01*
X3709046Y2785000D01*
X3910954Y2785000D01*
X4108982Y2824390D01*
X4295520Y2901656D01*
X4463400Y3013830D01*
X4606170Y3156600D01*
X4718344Y3324480D01*
X4795610Y3511018D01*
X4835000Y3709046D01*
X4835000Y3910954D01*
X5325000Y3910954D01*
X5325000Y3709046D01*
X5364390Y3511018D01*
X5441656Y3324480D01*
X5553830Y3156600D01*
X5696600Y3013830D01*
X5864480Y2901656D01*
X6051018Y2824390D01*
X6249046Y2785000D01*
X6450954Y2785000D01*
X6648982Y2824390D01*
X6835520Y2901656D01*
X7003400Y3013830D01*
X7146170Y3156600D01*
X7258344Y3324480D01*
X7335610Y3511018D01*
X7375000Y3709046D01*
X7375000Y3910954D01*
X7865000Y3910954D01*
X7865000Y3709046D01*
X7904390Y3511018D01*
X7981656Y3324480D01*
X8093830Y3156600D01*
X8236600Y3013830D01*
X8404480Y2901656D01*
X8591018Y2824390D01*
X8789046Y2785000D01*
X8990954Y2785000D01*
X9188982Y2824390D01*
X9375520Y2901656D01*
X9543400Y3013830D01*
X9686170Y3156600D01*
X9798344Y3324480D01*
X9875610Y3511018D01*
X9915000Y3709046D01*
X9915000Y3910954D01*
X10405000Y3910954D01*
X10405000Y3709046D01*
X10444390Y3511018D01*
X10521656Y3324480D01*
X10633830Y3156600D01*
X10776600Y3013830D01*
X10944480Y2901656D01*
X11131018Y2824390D01*
X11329046Y2785000D01*
X11530954Y2785000D01*
X11728982Y2824390D01*
X11915520Y2901656D01*
X12083400Y3013830D01*
X12226170Y3156600D01*
X12338344Y3324480D01*
X12415610Y3511018D01*
X12455000Y3709046D01*
X12455000Y3910954D01*
X12945000Y3910954D01*
X12945000Y3709046D01*
X12984390Y3511018D01*
X13061656Y3324480D01*
X13173830Y3156600D01*
X13316600Y3013830D01*
X13484480Y2901656D01*
X13671018Y2824390D01*
X13869046Y2785000D01*
X14070954Y2785000D01*
X14268982Y2824390D01*
X14455520Y2901656D01*
X14623400Y3013830D01*
X14766170Y3156600D01*
X14878344Y3324480D01*
X14955610Y3511018D01*
X14995000Y3709046D01*
X14995000Y3910954D01*
X14955610Y4108982D01*
X14878344Y4295520D01*
X14766170Y4463400D01*
X14623400Y4606170D01*
X14455520Y4718344D01*
X14268982Y4795610D01*
X14070954Y4835000D01*
X13869046Y4835000D01*
X13671018Y4795610D01*
X13484480Y4718344D01*
X13316600Y4606170D01*
X13173830Y4463400D01*
X13061656Y4295520D01*
X12984390Y4108982D01*
X12945000Y3910954D01*
X12455000Y3910954D01*
X12415610Y4108982D01*
X12338344Y4295520D01*
X12226170Y4463400D01*
X12083400Y4606170D01*
X11915520Y4718344D01*
X11728982Y4795610D01*
X11530954Y4835000D01*
X11329046Y4835000D01*
X11131018Y4795610D01*
X10944480Y4718344D01*
X10776600Y4606170D01*
X10633830Y4463400D01*
X10521656Y4295520D01*
X10444390Y4108982D01*
X10405000Y3910954D01*
X9915000Y3910954D01*
X9875610Y4108982D01*
X9798344Y4295520D01*
X9686170Y4463400D01*
X9543400Y4606170D01*
X9375520Y4718344D01*
X9188982Y4795610D01*
X8990954Y4835000D01*
X8789046Y4835000D01*
X8591018Y4795610D01*
X8404480Y4718344D01*
X8236600Y4606170D01*
X8093830Y4463400D01*
X7981656Y4295520D01*
X7904390Y4108982D01*
X7865000Y3910954D01*
X7375000Y3910954D01*
X7335610Y4108982D01*
X7258344Y4295520D01*
X7146170Y4463400D01*
X7003400Y4606170D01*
X6835520Y4718344D01*
X6648982Y4795610D01*
X6530091Y4819259D01*
X6546858Y4830462D01*
X6609538Y4893142D01*
X6658785Y4966845D01*
X6692706Y5048740D01*
X6710000Y5135679D01*
X6710000Y5224321D01*
X6692706Y5311260D01*
X6658785Y5393155D01*
X6609538Y5466858D01*
X6546858Y5529538D01*
X6473155Y5578785D01*
X6391260Y5612706D01*
X6304321Y5630000D01*
X6215679Y5630000D01*
X6128740Y5612706D01*
X6046845Y5578785D01*
X5973142Y5529538D01*
X5910462Y5466858D01*
X5861215Y5393155D01*
X5827294Y5311260D01*
X5810000Y5224321D01*
X5810000Y5135679D01*
X5827294Y5048740D01*
X5861215Y4966845D01*
X5910462Y4893142D01*
X5973142Y4830462D01*
X6035143Y4789034D01*
X5864480Y4718344D01*
X5696600Y4606170D01*
X5553830Y4463400D01*
X5441656Y4295520D01*
X5364390Y4108982D01*
X5325000Y3910954D01*
X4835000Y3910954D01*
X4795610Y4108982D01*
X4718344Y4295520D01*
X4606170Y4463400D01*
X4463400Y4606170D01*
X4295520Y4718344D01*
X4108982Y4795610D01*
X3910954Y4835000D01*
X3709046Y4835000D01*
X3511018Y4795610D01*
X3324480Y4718344D01*
X3156600Y4606170D01*
X3013830Y4463400D01*
X2901656Y4295520D01*
X2824390Y4108982D01*
X2785000Y3910954D01*
X2295000Y3910954D01*
X2255610Y4108982D01*
X2178344Y4295520D01*
X2066170Y4463400D01*
X1923400Y4606170D01*
X1755520Y4718344D01*
X1568982Y4795610D01*
X1370954Y4835000D01*
X1169046Y4835000D01*
X971018Y4795610D01*
X784480Y4718344D01*
X616600Y4606170D01*
X475000Y4464570D01*
X475000Y5695430D01*
X616600Y5553830D01*
X784480Y5441656D01*
X971018Y5364390D01*
X1169046Y5325000D01*
X1370954Y5325000D01*
X1568982Y5364390D01*
X1755520Y5441656D01*
X1923400Y5553830D01*
X2066170Y5696600D01*
X2178344Y5864480D01*
X2255610Y6051018D01*
X2295000Y6249046D01*
X2295000Y6450954D01*
X2294331Y6454321D01*
X4620000Y6454321D01*
X4620000Y6365679D01*
X4637294Y6278740D01*
X4671215Y6196845D01*
X4720462Y6123142D01*
X4783142Y6060462D01*
X4856845Y6011215D01*
X4938740Y5977294D01*
X5025679Y5960000D01*
X5114321Y5960000D01*
X5201260Y5977294D01*
X5283155Y6011215D01*
X5356858Y6060462D01*
X5419538Y6123142D01*
X5468785Y6196845D01*
X5502706Y6278740D01*
X5520000Y6365679D01*
X5520000Y6454321D01*
X5502706Y6541260D01*
X5468785Y6623155D01*
X5419538Y6696858D01*
X5356858Y6759538D01*
X5283155Y6808785D01*
X5201260Y6842706D01*
X5114321Y6860000D01*
X5025679Y6860000D01*
X4938740Y6842706D01*
X4856845Y6808785D01*
X4783142Y6759538D01*
X4720462Y6696858D01*
X4671215Y6623155D01*
X4637294Y6541260D01*
X4620000Y6454321D01*
X2294331Y6454321D01*
X2255610Y6648982D01*
X2178344Y6835520D01*
X2066170Y7003400D01*
X1923400Y7146170D01*
X1755520Y7258344D01*
X1568982Y7335610D01*
X1370954Y7375000D01*
X1169046Y7375000D01*
X971018Y7335610D01*
X784480Y7258344D01*
X616600Y7146170D01*
X475000Y7004570D01*
X475000Y7404321D01*
X8440000Y7404321D01*
X8440000Y7315679D01*
X8457294Y7228740D01*
X8491215Y7146845D01*
X8540462Y7073142D01*
X8603142Y7010462D01*
X8676845Y6961215D01*
X8758740Y6927294D01*
X8845679Y6910000D01*
X8934321Y6910000D01*
X9021260Y6927294D01*
X9103155Y6961215D01*
X9176858Y7010462D01*
X9239538Y7073142D01*
X9288785Y7146845D01*
X9322706Y7228740D01*
X9340000Y7315679D01*
X9340000Y7404321D01*
X9322706Y7491260D01*
X9288785Y7573155D01*
X9239538Y7646858D01*
X9176858Y7709538D01*
X9103155Y7758785D01*
X9021260Y7792706D01*
X8934321Y7810000D01*
X8845679Y7810000D01*
X8758740Y7792706D01*
X8676845Y7758785D01*
X8603142Y7709538D01*
X8540462Y7646858D01*
X8491215Y7573155D01*
X8457294Y7491260D01*
X8440000Y7404321D01*
X475000Y7404321D01*
X475000Y8235430D01*
X616600Y8093830D01*
X784480Y7981656D01*
X971018Y7904390D01*
X1169046Y7865000D01*
X1370954Y7865000D01*
X1568982Y7904390D01*
X1755520Y7981656D01*
X1923400Y8093830D01*
X2066170Y8236600D01*
X2178237Y8404321D01*
X11960000Y8404321D01*
X11960000Y8315679D01*
X11977294Y8228740D01*
X12011215Y8146845D01*
X12060462Y8073142D01*
X12123142Y8010462D01*
X12196845Y7961215D01*
X12278740Y7927294D01*
X12365679Y7910000D01*
X12454321Y7910000D01*
X12541260Y7927294D01*
X12623155Y7961215D01*
X12696858Y8010462D01*
X12759538Y8073142D01*
X12808785Y8146845D01*
X12842706Y8228740D01*
X12860000Y8315679D01*
X12860000Y8404321D01*
X12842706Y8491260D01*
X12808785Y8573155D01*
X12759538Y8646858D01*
X12696858Y8709538D01*
X12623155Y8758785D01*
X12541260Y8792706D01*
X12454321Y8810000D01*
X12365679Y8810000D01*
X12278740Y8792706D01*
X12196845Y8758785D01*
X12123142Y8709538D01*
X12060462Y8646858D01*
X12011215Y8573155D01*
X11977294Y8491260D01*
X11960000Y8404321D01*
X2178237Y8404321D01*
X2178344Y8404480D01*
X2255610Y8591018D01*
X2295000Y8789046D01*
X2295000Y8990954D01*
X2255610Y9188982D01*
X2178344Y9375520D01*
X2159100Y9404321D01*
X8440000Y9404321D01*
X8440000Y9315679D01*
X8457294Y9228740D01*
X8491215Y9146845D01*
X8540462Y9073142D01*
X8603142Y9010462D01*
X8676845Y8961215D01*
X8758740Y8927294D01*
X8845679Y8910000D01*
X8934321Y8910000D01*
X9021260Y8927294D01*
X9103155Y8961215D01*
X9176858Y9010462D01*
X9239538Y9073142D01*
X9240325Y9074321D01*
X13360000Y9074321D01*
X13360000Y8985679D01*
X13377294Y8898740D01*
X13411215Y8816845D01*
X13460462Y8743142D01*
X13523142Y8680462D01*
X13596845Y8631215D01*
X13678740Y8597294D01*
X13765679Y8580000D01*
X13854321Y8580000D01*
X13887816Y8586663D01*
X13877294Y8561260D01*
X13860000Y8474321D01*
X13860000Y8385679D01*
X13877294Y8298740D01*
X13911215Y8216845D01*
X13960462Y8143142D01*
X14023142Y8080462D01*
X14023833Y8080000D01*
X14023142Y8079538D01*
X13960462Y8016858D01*
X13911215Y7943155D01*
X13877294Y7861260D01*
X13860000Y7774321D01*
X13860000Y7685679D01*
X13877294Y7598740D01*
X13887816Y7573337D01*
X13854321Y7580000D01*
X13765679Y7580000D01*
X13678740Y7562706D01*
X13596845Y7528785D01*
X13523142Y7479538D01*
X13460462Y7416858D01*
X13411215Y7343155D01*
X13377294Y7261260D01*
X13360000Y7174321D01*
X13360000Y7085679D01*
X13377294Y6998740D01*
X13411215Y6916845D01*
X13460462Y6843142D01*
X13523142Y6780462D01*
X13596845Y6731215D01*
X13678740Y6697294D01*
X13765679Y6680000D01*
X13854321Y6680000D01*
X13941260Y6697294D01*
X14023155Y6731215D01*
X14096858Y6780462D01*
X14159538Y6843142D01*
X14208785Y6916845D01*
X14242706Y6998740D01*
X14260000Y7085679D01*
X14260000Y7174321D01*
X14242706Y7261260D01*
X14232184Y7286663D01*
X14265679Y7280000D01*
X14354321Y7280000D01*
X14441260Y7297294D01*
X14523155Y7331215D01*
X14596858Y7380462D01*
X14659538Y7443142D01*
X14708785Y7516845D01*
X14742706Y7598740D01*
X14760000Y7685679D01*
X14760000Y7774321D01*
X14742706Y7861260D01*
X14708785Y7943155D01*
X14659538Y8016858D01*
X14596858Y8079538D01*
X14596167Y8080000D01*
X14596858Y8080462D01*
X14659538Y8143142D01*
X14708785Y8216845D01*
X14742706Y8298740D01*
X14760000Y8385679D01*
X14760000Y8474321D01*
X14742706Y8561260D01*
X14708785Y8643155D01*
X14659538Y8716858D01*
X14596858Y8779538D01*
X14523155Y8828785D01*
X14441260Y8862706D01*
X14354321Y8880000D01*
X14265679Y8880000D01*
X14232184Y8873337D01*
X14242706Y8898740D01*
X14260000Y8985679D01*
X14260000Y9074321D01*
X14242706Y9161260D01*
X14208785Y9243155D01*
X14159538Y9316858D01*
X14096858Y9379538D01*
X14023155Y9428785D01*
X13941260Y9462706D01*
X13854321Y9480000D01*
X13765679Y9480000D01*
X13678740Y9462706D01*
X13596845Y9428785D01*
X13523142Y9379538D01*
X13460462Y9316858D01*
X13411215Y9243155D01*
X13377294Y9161260D01*
X13360000Y9074321D01*
X9240325Y9074321D01*
X9288785Y9146845D01*
X9322706Y9228740D01*
X9340000Y9315679D01*
X9340000Y9404321D01*
X9322706Y9491260D01*
X9288785Y9573155D01*
X9239538Y9646858D01*
X9176858Y9709538D01*
X9103155Y9758785D01*
X9021260Y9792706D01*
X8934321Y9810000D01*
X8845679Y9810000D01*
X8758740Y9792706D01*
X8676845Y9758785D01*
X8603142Y9709538D01*
X8540462Y9646858D01*
X8491215Y9573155D01*
X8457294Y9491260D01*
X8440000Y9404321D01*
X2159100Y9404321D01*
X2066170Y9543400D01*
X1923400Y9686170D01*
X1755520Y9798344D01*
X1568982Y9875610D01*
X1370954Y9915000D01*
X1169046Y9915000D01*
X971018Y9875610D01*
X784480Y9798344D01*
X616600Y9686170D01*
X475000Y9544570D01*
X475000Y10775430D01*
X616600Y10633830D01*
X784480Y10521656D01*
X971018Y10444390D01*
X1169046Y10405000D01*
X1370954Y10405000D01*
X1568982Y10444390D01*
X1755520Y10521656D01*
X1923400Y10633830D01*
X2066170Y10776600D01*
X2178344Y10944480D01*
X2255610Y11131018D01*
X2295000Y11329046D01*
X2295000Y11530954D01*
X2255610Y11728982D01*
X2178344Y11915520D01*
X2066170Y12083400D01*
X1923400Y12226170D01*
X1755520Y12338344D01*
X1568982Y12415610D01*
X1370954Y12455000D01*
X1169046Y12455000D01*
X971018Y12415610D01*
X784480Y12338344D01*
X616600Y12226170D01*
X475000Y12084570D01*
X475000Y13315430D01*
X616600Y13173830D01*
X784480Y13061656D01*
X971018Y12984390D01*
X1169046Y12945000D01*
X1370954Y12945000D01*
X1568982Y12984390D01*
X1755520Y13061656D01*
X1774474Y13074321D01*
X2520000Y13074321D01*
X2520000Y12985679D01*
X2537294Y12898740D01*
X2571215Y12816845D01*
X2620462Y12743142D01*
X2638604Y12725000D01*
X2620462Y12706858D01*
X2571215Y12633155D01*
X2537294Y12551260D01*
X2520000Y12464321D01*
X2520000Y12375679D01*
X2537294Y12288740D01*
X2571215Y12206845D01*
X2620462Y12133142D01*
X2638604Y12115000D01*
X2620462Y12096858D01*
X2571215Y12023155D01*
X2537294Y11941260D01*
X2520000Y11854321D01*
X2520000Y11765679D01*
X2537294Y11678740D01*
X2571215Y11596845D01*
X2620462Y11523142D01*
X2683142Y11460462D01*
X2756845Y11411215D01*
X2838740Y11377294D01*
X2925679Y11360000D01*
X3014321Y11360000D01*
X3101260Y11377294D01*
X3183155Y11411215D01*
X3256858Y11460462D01*
X3319538Y11523142D01*
X3368785Y11596845D01*
X3402706Y11678740D01*
X3420000Y11765679D01*
X3420000Y11854321D01*
X3402706Y11941260D01*
X3368785Y12023155D01*
X3319538Y12096858D01*
X3301396Y12115000D01*
X3319538Y12133142D01*
X3368785Y12206845D01*
X3402706Y12288740D01*
X3420000Y12375679D01*
X3420000Y12464321D01*
X3402706Y12551260D01*
X3368785Y12633155D01*
X3319538Y12706858D01*
X3301396Y12725000D01*
X3319538Y12743142D01*
X3368785Y12816845D01*
X3402706Y12898740D01*
X3420000Y12985679D01*
X3420000Y13074321D01*
X3402706Y13161260D01*
X3368785Y13243155D01*
X3319538Y13316858D01*
X3256858Y13379538D01*
X3183155Y13428785D01*
X3101260Y13462706D01*
X3014321Y13480000D01*
X2925679Y13480000D01*
X2838740Y13462706D01*
X2756845Y13428785D01*
X2683142Y13379538D01*
X2620462Y13316858D01*
X2571215Y13243155D01*
X2537294Y13161260D01*
X2520000Y13074321D01*
X1774474Y13074321D01*
X1923400Y13173830D01*
X2066170Y13316600D01*
X2178344Y13484480D01*
X2255610Y13671018D01*
X2295000Y13869046D01*
X2295000Y14070954D01*
X2255610Y14268982D01*
X2178344Y14455520D01*
X2066170Y14623400D01*
X1923400Y14766170D01*
X1755520Y14878344D01*
X1568982Y14955610D01*
X1370954Y14995000D01*
X1169046Y14995000D01*
X971018Y14955610D01*
X784480Y14878344D01*
X616600Y14766170D01*
X475000Y14624570D01*
X475000Y15284321D01*
X2930000Y15284321D01*
X2930000Y15195679D01*
X2947294Y15108740D01*
X2981215Y15026845D01*
X3030462Y14953142D01*
X3093142Y14890462D01*
X3166845Y14841215D01*
X3248740Y14807294D01*
X3335679Y14790000D01*
X3424321Y14790000D01*
X3511260Y14807294D01*
X3593155Y14841215D01*
X3666858Y14890462D01*
X3729538Y14953142D01*
X3778785Y15026845D01*
X3812706Y15108740D01*
X3828870Y15190000D01*
X3884321Y15190000D01*
X3971260Y15207294D01*
X4041772Y15236500D01*
X4047294Y15208740D01*
X4081215Y15126845D01*
X4130462Y15053142D01*
X4193142Y14990462D01*
X4266845Y14941215D01*
X4348740Y14907294D01*
X4435679Y14890000D01*
X4524321Y14890000D01*
X4611260Y14907294D01*
X4693155Y14941215D01*
X4724456Y14962130D01*
X4730462Y14953142D01*
X4793142Y14890462D01*
X4866845Y14841215D01*
X4910509Y14823129D01*
X4856477Y14769097D01*
X4844079Y14758922D01*
X4803465Y14709435D01*
X4797773Y14698785D01*
X4773286Y14652974D01*
X4754702Y14591712D01*
X4748428Y14528001D01*
X4750000Y14512038D01*
X4749999Y14047953D01*
X4748428Y14031999D01*
X4749999Y14016046D01*
X4749999Y14016039D01*
X4753668Y13978785D01*
X4754702Y13968288D01*
X4760110Y13950462D01*
X4773286Y13907026D01*
X4803464Y13850566D01*
X4844078Y13801078D01*
X4856482Y13790898D01*
X7261721Y11385657D01*
X7196845Y11358785D01*
X7123142Y11309538D01*
X7105000Y11291396D01*
X7096858Y11299538D01*
X7023155Y11348785D01*
X6941260Y11382706D01*
X6854321Y11400000D01*
X6765679Y11400000D01*
X6678740Y11382706D01*
X6596845Y11348785D01*
X6523142Y11299538D01*
X6460462Y11236858D01*
X6411215Y11163155D01*
X6377294Y11081260D01*
X6360000Y10994321D01*
X6360000Y10905679D01*
X6377294Y10818740D01*
X6411215Y10736845D01*
X6460462Y10663142D01*
X6523142Y10600462D01*
X6596845Y10551215D01*
X6678740Y10517294D01*
X6765679Y10500000D01*
X6854321Y10500000D01*
X6941260Y10517294D01*
X7023155Y10551215D01*
X7096858Y10600462D01*
X7115000Y10618604D01*
X7123142Y10610462D01*
X7196845Y10561215D01*
X7278740Y10527294D01*
X7365679Y10510000D01*
X7454321Y10510000D01*
X7541260Y10527294D01*
X7623155Y10561215D01*
X7696858Y10610462D01*
X7759538Y10673142D01*
X7808785Y10746845D01*
X7842706Y10828740D01*
X7852903Y10880000D01*
X7934321Y10880000D01*
X8021260Y10897294D01*
X8103155Y10931215D01*
X8176858Y10980462D01*
X8200717Y11004321D01*
X8900000Y11004321D01*
X8900000Y10915679D01*
X8917294Y10828740D01*
X8951215Y10746845D01*
X9000462Y10673142D01*
X9063142Y10610462D01*
X9136845Y10561215D01*
X9218740Y10527294D01*
X9305679Y10510000D01*
X9394321Y10510000D01*
X9481260Y10527294D01*
X9563155Y10561215D01*
X9636858Y10610462D01*
X9699538Y10673142D01*
X9748785Y10746845D01*
X9782706Y10828740D01*
X9796881Y10900000D01*
X9854321Y10900000D01*
X9941260Y10917294D01*
X10023155Y10951215D01*
X10096858Y11000462D01*
X10110000Y11013604D01*
X10123142Y11000462D01*
X10196845Y10951215D01*
X10278740Y10917294D01*
X10365679Y10900000D01*
X10454321Y10900000D01*
X10541260Y10917294D01*
X10623155Y10951215D01*
X10696858Y11000462D01*
X10759538Y11063142D01*
X10808785Y11136845D01*
X10842706Y11218740D01*
X10860000Y11305679D01*
X10860000Y11394321D01*
X10842706Y11481260D01*
X10808785Y11563155D01*
X10759538Y11636858D01*
X10696858Y11699538D01*
X10623155Y11748785D01*
X10541260Y11782706D01*
X10454321Y11800000D01*
X10365679Y11800000D01*
X10278740Y11782706D01*
X10196845Y11748785D01*
X10123142Y11699538D01*
X10110000Y11686396D01*
X10096858Y11699538D01*
X10023155Y11748785D01*
X9941260Y11782706D01*
X9854321Y11800000D01*
X9765679Y11800000D01*
X9678740Y11782706D01*
X9596845Y11748785D01*
X9523142Y11699538D01*
X9460462Y11636858D01*
X9411215Y11563155D01*
X9377294Y11481260D01*
X9363119Y11410000D01*
X9305679Y11410000D01*
X9218740Y11392706D01*
X9136845Y11358785D01*
X9063142Y11309538D01*
X9000462Y11246858D01*
X8951215Y11173155D01*
X8917294Y11091260D01*
X8900000Y11004321D01*
X8200717Y11004321D01*
X8239538Y11043142D01*
X8288785Y11116845D01*
X8322706Y11198740D01*
X8340000Y11285679D01*
X8340000Y11374321D01*
X8322706Y11461260D01*
X8288785Y11543155D01*
X8239538Y11616858D01*
X8176858Y11679538D01*
X8103155Y11728785D01*
X8021260Y11762706D01*
X7934321Y11780000D01*
X7845679Y11780000D01*
X7796417Y11770201D01*
X6822297Y12744321D01*
X15290000Y12744321D01*
X15290000Y12655679D01*
X15307294Y12568740D01*
X15341215Y12486845D01*
X15390462Y12413142D01*
X15453142Y12350462D01*
X15526845Y12301215D01*
X15608740Y12267294D01*
X15695679Y12250000D01*
X15784321Y12250000D01*
X15871260Y12267294D01*
X15953155Y12301215D01*
X16026858Y12350462D01*
X16089538Y12413142D01*
X16138785Y12486845D01*
X16172706Y12568740D01*
X16190000Y12655679D01*
X16190000Y12744321D01*
X16172706Y12831260D01*
X16138785Y12913155D01*
X16089538Y12986858D01*
X16026858Y13049538D01*
X15953155Y13098785D01*
X15871260Y13132706D01*
X15784321Y13150000D01*
X15695679Y13150000D01*
X15608740Y13132706D01*
X15526845Y13098785D01*
X15453142Y13049538D01*
X15390462Y12986858D01*
X15341215Y12913155D01*
X15307294Y12831260D01*
X15290000Y12744321D01*
X6822297Y12744321D01*
X6402317Y13164300D01*
X6443155Y13181215D01*
X6516858Y13230462D01*
X6579538Y13293142D01*
X6628785Y13366845D01*
X6662706Y13448740D01*
X6680000Y13535679D01*
X6680000Y13624321D01*
X6662706Y13711260D01*
X6628785Y13793155D01*
X6579538Y13866858D01*
X6516858Y13929538D01*
X6514783Y13930924D01*
X6538785Y13966845D01*
X6572706Y14048740D01*
X6590000Y14135679D01*
X6590000Y14137781D01*
X7402883Y13321160D01*
X7424976Y13301697D01*
X7528390Y13221976D01*
X7579211Y13192485D01*
X7699740Y13142257D01*
X7756466Y13126930D01*
X7885889Y13109622D01*
X7944646Y13109505D01*
X8074137Y13126296D01*
X8130925Y13141397D01*
X8251653Y13191144D01*
X8302591Y13220431D01*
X8406322Y13299739D01*
X8428492Y13319114D01*
X8975553Y13864321D01*
X10840000Y13864321D01*
X10840000Y13775679D01*
X10857294Y13688740D01*
X10891215Y13606845D01*
X10940462Y13533142D01*
X11003142Y13470462D01*
X11076845Y13421215D01*
X11158740Y13387294D01*
X11245679Y13370000D01*
X11334321Y13370000D01*
X11421260Y13387294D01*
X11503155Y13421215D01*
X11576858Y13470462D01*
X11639538Y13533142D01*
X11688785Y13606845D01*
X11722706Y13688740D01*
X11740000Y13775679D01*
X11740000Y13864321D01*
X11722706Y13951260D01*
X11688785Y14033155D01*
X11639538Y14106858D01*
X11576858Y14169538D01*
X11503155Y14218785D01*
X11421260Y14252706D01*
X11334321Y14270000D01*
X11245679Y14270000D01*
X11158740Y14252706D01*
X11076845Y14218785D01*
X11003142Y14169538D01*
X10940462Y14106858D01*
X10891215Y14033155D01*
X10857294Y13951260D01*
X10840000Y13864321D01*
X8975553Y13864321D01*
X9447152Y14334321D01*
X11780000Y14334321D01*
X11780000Y14245679D01*
X11797294Y14158740D01*
X11831215Y14076845D01*
X11880462Y14003142D01*
X11943142Y13940462D01*
X12016845Y13891215D01*
X12098740Y13857294D01*
X12185679Y13840000D01*
X12274321Y13840000D01*
X12361260Y13857294D01*
X12443155Y13891215D01*
X12516858Y13940462D01*
X12579538Y14003142D01*
X12628785Y14076845D01*
X12662706Y14158740D01*
X12680000Y14245679D01*
X12680000Y14334321D01*
X12662706Y14421260D01*
X12628785Y14503155D01*
X12618663Y14518304D01*
X12636858Y14530462D01*
X12699538Y14593142D01*
X12711696Y14611337D01*
X12726845Y14601215D01*
X12808740Y14567294D01*
X12895679Y14550000D01*
X12984321Y14550000D01*
X13071260Y14567294D01*
X13153155Y14601215D01*
X13226858Y14650462D01*
X13289538Y14713142D01*
X13298630Y14726749D01*
X13336845Y14701215D01*
X13418740Y14667294D01*
X13505679Y14650000D01*
X13594321Y14650000D01*
X13681260Y14667294D01*
X13763155Y14701215D01*
X13836858Y14750462D01*
X13899538Y14813142D01*
X13948785Y14886845D01*
X13982706Y14968740D01*
X14000000Y15055679D01*
X14000000Y15144321D01*
X13982706Y15231260D01*
X13948785Y15313155D01*
X13927870Y15344456D01*
X13936858Y15350462D01*
X13999538Y15413142D01*
X14048785Y15486845D01*
X14082706Y15568740D01*
X14100000Y15655679D01*
X14100000Y15744321D01*
X14082706Y15831260D01*
X14048785Y15913155D01*
X14035576Y15932924D01*
X14046858Y15940462D01*
X14109538Y16003142D01*
X14158785Y16076845D01*
X14192706Y16158740D01*
X14210000Y16245679D01*
X14210000Y16334321D01*
X14192706Y16421260D01*
X14158785Y16503155D01*
X14109538Y16576858D01*
X14046858Y16639538D01*
X13973155Y16688785D01*
X13891260Y16722706D01*
X13804321Y16740000D01*
X13715679Y16740000D01*
X13628740Y16722706D01*
X13546845Y16688785D01*
X13473142Y16639538D01*
X13410462Y16576858D01*
X13361215Y16503155D01*
X13327294Y16421260D01*
X13310000Y16334321D01*
X13310000Y16245679D01*
X13327294Y16158740D01*
X13361215Y16076845D01*
X13374424Y16057076D01*
X13363142Y16049538D01*
X13300462Y15986858D01*
X13292924Y15975576D01*
X13273155Y15988785D01*
X13191260Y16022706D01*
X13104321Y16040000D01*
X13015679Y16040000D01*
X12928740Y16022706D01*
X12846845Y15988785D01*
X12773142Y15939538D01*
X12710462Y15876858D01*
X12661215Y15803155D01*
X12627294Y15721260D01*
X12610000Y15634321D01*
X12610000Y15545679D01*
X12627294Y15458740D01*
X12661215Y15376845D01*
X12671337Y15361696D01*
X12653142Y15349538D01*
X12590462Y15286858D01*
X12578304Y15268663D01*
X12563155Y15278785D01*
X12481260Y15312706D01*
X12394321Y15330000D01*
X12305679Y15330000D01*
X12218740Y15312706D01*
X12136845Y15278785D01*
X12063142Y15229538D01*
X12000462Y15166858D01*
X11951215Y15093155D01*
X11917294Y15011260D01*
X11900000Y14924321D01*
X11900000Y14835679D01*
X11917294Y14748740D01*
X11951215Y14666845D01*
X11961337Y14651696D01*
X11943142Y14639538D01*
X11880462Y14576858D01*
X11831215Y14503155D01*
X11797294Y14421260D01*
X11780000Y14334321D01*
X9447152Y14334321D01*
X13621901Y18494914D01*
X13641433Y18517124D01*
X13721394Y18621105D01*
X13750928Y18672213D01*
X13801094Y18793411D01*
X13816319Y18850439D01*
X13833239Y18980515D01*
X13833109Y19039544D01*
X13815616Y19169543D01*
X13800139Y19226504D01*
X13794881Y19239050D01*
X13856858Y19280462D01*
X13919538Y19343142D01*
X13968785Y19416845D01*
X14002706Y19498740D01*
X14020000Y19585679D01*
X14020000Y19674321D01*
X14002706Y19761260D01*
X13968785Y19843155D01*
X13919538Y19916858D01*
X13856858Y19979538D01*
X13783155Y20028785D01*
X13701260Y20062706D01*
X13614321Y20080000D01*
X13525679Y20080000D01*
X13438740Y20062706D01*
X13428937Y20058646D01*
X13418785Y20083155D01*
X13369538Y20156858D01*
X13308146Y20218250D01*
X13358740Y20197294D01*
X13445679Y20180000D01*
X13534321Y20180000D01*
X13621260Y20197294D01*
X13703155Y20231215D01*
X13776858Y20280462D01*
X13839538Y20343142D01*
X13853689Y20364321D01*
X15290000Y20364321D01*
X15290000Y20275679D01*
X15307294Y20188740D01*
X15341215Y20106845D01*
X15390462Y20033142D01*
X15453142Y19970462D01*
X15526845Y19921215D01*
X15608740Y19887294D01*
X15695679Y19870000D01*
X15784321Y19870000D01*
X15871260Y19887294D01*
X15953155Y19921215D01*
X16026858Y19970462D01*
X16089538Y20033142D01*
X16138785Y20106845D01*
X16172706Y20188740D01*
X16190000Y20275679D01*
X16190000Y20364321D01*
X16172706Y20451260D01*
X16138785Y20533155D01*
X16089538Y20606858D01*
X16026858Y20669538D01*
X15953155Y20718785D01*
X15871260Y20752706D01*
X15784321Y20770000D01*
X15695679Y20770000D01*
X15608740Y20752706D01*
X15526845Y20718785D01*
X15453142Y20669538D01*
X15390462Y20606858D01*
X15341215Y20533155D01*
X15307294Y20451260D01*
X15290000Y20364321D01*
X13853689Y20364321D01*
X13888785Y20416845D01*
X13922706Y20498740D01*
X13940000Y20585679D01*
X13940000Y20674321D01*
X13922706Y20761260D01*
X13888785Y20843155D01*
X13839538Y20916858D01*
X13776858Y20979538D01*
X13703155Y21028785D01*
X13645478Y21052675D01*
X13660000Y21125679D01*
X13660000Y21214321D01*
X13642706Y21301260D01*
X13608785Y21383155D01*
X13559538Y21456858D01*
X13496858Y21519538D01*
X13423155Y21568785D01*
X13341260Y21602706D01*
X13254321Y21620000D01*
X13165679Y21620000D01*
X13078740Y21602706D01*
X12996845Y21568785D01*
X12923142Y21519538D01*
X12860462Y21456858D01*
X12811215Y21383155D01*
X12777294Y21301260D01*
X12760000Y21214321D01*
X12760000Y21125679D01*
X12777294Y21038740D01*
X12811215Y20956845D01*
X12848522Y20901011D01*
X12821317Y20878685D01*
X12810353Y20865325D01*
X12646182Y20701154D01*
X12628785Y20743155D01*
X12579538Y20816858D01*
X12516858Y20879538D01*
X12443155Y20928785D01*
X12361260Y20962706D01*
X12274321Y20980000D01*
X12210000Y20980000D01*
X12210000Y21014321D01*
X12192706Y21101260D01*
X12158785Y21183155D01*
X12109538Y21256858D01*
X12046858Y21319538D01*
X11973155Y21368785D01*
X11891260Y21402706D01*
X11804321Y21420000D01*
X11715679Y21420000D01*
X11703087Y21417495D01*
X10977455Y22134321D01*
X13830000Y22134321D01*
X13830000Y22045679D01*
X13847294Y21958740D01*
X13881215Y21876845D01*
X13930462Y21803142D01*
X13993142Y21740462D01*
X14066845Y21691215D01*
X14148740Y21657294D01*
X14235679Y21640000D01*
X14324321Y21640000D01*
X14411260Y21657294D01*
X14493155Y21691215D01*
X14566858Y21740462D01*
X14629538Y21803142D01*
X14678785Y21876845D01*
X14712706Y21958740D01*
X14730000Y22045679D01*
X14730000Y22134321D01*
X14712706Y22221260D01*
X14678785Y22303155D01*
X14629538Y22376858D01*
X14566858Y22439538D01*
X14493155Y22488785D01*
X14411260Y22522706D01*
X14324321Y22540000D01*
X14235679Y22540000D01*
X14148740Y22522706D01*
X14066845Y22488785D01*
X13993142Y22439538D01*
X13930462Y22376858D01*
X13881215Y22303155D01*
X13847294Y22221260D01*
X13830000Y22134321D01*
X10977455Y22134321D01*
X10140009Y22961604D01*
X10113785Y22983820D01*
X10011828Y23057597D01*
X9991128Y23070914D01*
X9950831Y23088850D01*
X9831394Y23128509D01*
X9807646Y23134976D01*
X9763819Y23139948D01*
X9637983Y23141810D01*
X9613389Y23140828D01*
X9570099Y23132375D01*
X9449540Y23096267D01*
X9426383Y23087926D01*
X9387646Y23066833D01*
X9283803Y22996277D01*
X9209074Y22945650D01*
X9156054Y22930004D01*
X9100787Y22931196D01*
X9074914Y22940060D01*
X8290653Y23724321D01*
X11400000Y23724321D01*
X11400000Y23635679D01*
X11417294Y23548740D01*
X11451215Y23466845D01*
X11500462Y23393142D01*
X11563142Y23330462D01*
X11636845Y23281215D01*
X11700136Y23255000D01*
X11636845Y23228785D01*
X11563142Y23179538D01*
X11500462Y23116858D01*
X11451215Y23043155D01*
X11417294Y22961260D01*
X11400000Y22874321D01*
X11400000Y22785679D01*
X11417294Y22698740D01*
X11451215Y22616845D01*
X11500462Y22543142D01*
X11563142Y22480462D01*
X11636845Y22431215D01*
X11718740Y22397294D01*
X11805679Y22380000D01*
X11894321Y22380000D01*
X11981260Y22397294D01*
X12063155Y22431215D01*
X12136858Y22480462D01*
X12199538Y22543142D01*
X12248785Y22616845D01*
X12275000Y22680136D01*
X12301215Y22616845D01*
X12350462Y22543142D01*
X12413142Y22480462D01*
X12486845Y22431215D01*
X12568740Y22397294D01*
X12655679Y22380000D01*
X12744321Y22380000D01*
X12831260Y22397294D01*
X12913155Y22431215D01*
X12986858Y22480462D01*
X13049538Y22543142D01*
X13098785Y22616845D01*
X13132706Y22698740D01*
X13150000Y22785679D01*
X13150000Y22874321D01*
X13132706Y22961260D01*
X13098785Y23043155D01*
X13049538Y23116858D01*
X12986858Y23179538D01*
X12913155Y23228785D01*
X12861936Y23250000D01*
X12913155Y23271215D01*
X12986858Y23320462D01*
X13049538Y23383142D01*
X13098785Y23456845D01*
X13132706Y23538740D01*
X13150000Y23625679D01*
X13150000Y23714321D01*
X13132706Y23801260D01*
X13098785Y23883155D01*
X13049538Y23956858D01*
X12986858Y24019538D01*
X12913155Y24068785D01*
X12831260Y24102706D01*
X12744321Y24120000D01*
X12655679Y24120000D01*
X12568740Y24102706D01*
X12486845Y24068785D01*
X12413142Y24019538D01*
X12350462Y23956858D01*
X12301215Y23883155D01*
X12277071Y23824864D01*
X12248785Y23893155D01*
X12199538Y23966858D01*
X12136858Y24029538D01*
X12063155Y24078785D01*
X11981260Y24112706D01*
X11894321Y24130000D01*
X11805679Y24130000D01*
X11718740Y24112706D01*
X11636845Y24078785D01*
X11563142Y24029538D01*
X11500462Y23966858D01*
X11451215Y23893155D01*
X11417294Y23811260D01*
X11400000Y23724321D01*
X8290653Y23724321D01*
X7540653Y24474321D01*
X8010000Y24474321D01*
X8010000Y24385679D01*
X8027294Y24298740D01*
X8061215Y24216845D01*
X8110462Y24143142D01*
X8173142Y24080462D01*
X8246845Y24031215D01*
X8328740Y23997294D01*
X8415679Y23980000D01*
X8504321Y23980000D01*
X8591260Y23997294D01*
X8673155Y24031215D01*
X8746858Y24080462D01*
X8809538Y24143142D01*
X8858785Y24216845D01*
X8892706Y24298740D01*
X8910000Y24385679D01*
X8910000Y24474321D01*
X8892706Y24561260D01*
X8858785Y24643155D01*
X8809538Y24716858D01*
X8746858Y24779538D01*
X8673155Y24828785D01*
X8591260Y24862706D01*
X8504321Y24880000D01*
X8415679Y24880000D01*
X8328740Y24862706D01*
X8246845Y24828785D01*
X8173142Y24779538D01*
X8110462Y24716858D01*
X8061215Y24643155D01*
X8027294Y24561260D01*
X8010000Y24474321D01*
X7540653Y24474321D01*
X6600653Y25414321D01*
X8010000Y25414321D01*
X8010000Y25325679D01*
X8027294Y25238740D01*
X8061215Y25156845D01*
X8110462Y25083142D01*
X8173142Y25020462D01*
X8246845Y24971215D01*
X8328740Y24937294D01*
X8415679Y24920000D01*
X8504321Y24920000D01*
X8591260Y24937294D01*
X8673155Y24971215D01*
X8746858Y25020462D01*
X8809538Y25083142D01*
X8858785Y25156845D01*
X8892706Y25238740D01*
X8910000Y25325679D01*
X8910000Y25414321D01*
X8892706Y25501260D01*
X8858785Y25583155D01*
X8809538Y25656858D01*
X8746858Y25719538D01*
X8673155Y25768785D01*
X8591260Y25802706D01*
X8504321Y25820000D01*
X8415679Y25820000D01*
X8328740Y25802706D01*
X8246845Y25768785D01*
X8173142Y25719538D01*
X8110462Y25656858D01*
X8061215Y25583155D01*
X8027294Y25501260D01*
X8010000Y25414321D01*
X6600653Y25414321D01*
X6069654Y25945319D01*
X6058685Y25958685D01*
X6005390Y26002422D01*
X5944587Y26034922D01*
X5878612Y26054935D01*
X5837402Y26058994D01*
X5836858Y26059538D01*
X5763155Y26108785D01*
X5681260Y26142706D01*
X5594321Y26160000D01*
X5505679Y26160000D01*
X5418740Y26142706D01*
X5336845Y26108785D01*
X5263142Y26059538D01*
X5250000Y26046396D01*
X5236858Y26059538D01*
X5163155Y26108785D01*
X5081260Y26142706D01*
X4994321Y26160000D01*
X4905679Y26160000D01*
X4818740Y26142706D01*
X4736845Y26108785D01*
X4663142Y26059538D01*
X4650000Y26046396D01*
X4636858Y26059538D01*
X4563155Y26108785D01*
X4481260Y26142706D01*
X4394321Y26160000D01*
X4305679Y26160000D01*
X4218740Y26142706D01*
X4136845Y26108785D01*
X4063142Y26059538D01*
X4000462Y25996858D01*
X3951215Y25923155D01*
X3917294Y25841260D01*
X3900000Y25754321D01*
X3900000Y25665679D01*
X3917294Y25578740D01*
X3951215Y25496845D01*
X4000462Y25423142D01*
X4063142Y25360462D01*
X4136845Y25311215D01*
X4218740Y25277294D01*
X4305679Y25260000D01*
X4394321Y25260000D01*
X4481260Y25277294D01*
X4563155Y25311215D01*
X4636858Y25360462D01*
X4650000Y25373604D01*
X4663142Y25360462D01*
X4736845Y25311215D01*
X4818740Y25277294D01*
X4820420Y25276960D01*
X5080902Y25016477D01*
X5091078Y25004078D01*
X5140565Y24963464D01*
X5197025Y24933286D01*
X5258287Y24914702D01*
X5264361Y24914104D01*
X5306038Y24909999D01*
X5306045Y24909999D01*
X5321998Y24908428D01*
X5337951Y24909999D01*
X5583385Y24909999D01*
X6005634Y24487750D01*
X5994321Y24490000D01*
X5905679Y24490000D01*
X5818740Y24472706D01*
X5736845Y24438785D01*
X5663142Y24389538D01*
X5650000Y24376396D01*
X5636858Y24389538D01*
X5563155Y24438785D01*
X5481260Y24472706D01*
X5394321Y24490000D01*
X5305679Y24490000D01*
X5218740Y24472706D01*
X5136845Y24438785D01*
X5063142Y24389538D01*
X5050000Y24376396D01*
X5036858Y24389538D01*
X4963155Y24438785D01*
X4881260Y24472706D01*
X4794321Y24490000D01*
X4705679Y24490000D01*
X4618740Y24472706D01*
X4536845Y24438785D01*
X4463142Y24389538D01*
X4450000Y24376396D01*
X4436858Y24389538D01*
X4363155Y24438785D01*
X4281260Y24472706D01*
X4194321Y24490000D01*
X4105679Y24490000D01*
X4018740Y24472706D01*
X3936845Y24438785D01*
X3863142Y24389538D01*
X3850000Y24376396D01*
X3836858Y24389538D01*
X3763155Y24438785D01*
X3681260Y24472706D01*
X3594321Y24490000D01*
X3505679Y24490000D01*
X3418740Y24472706D01*
X3336845Y24438785D01*
X3263142Y24389538D01*
X3200462Y24326858D01*
X3151215Y24253155D01*
X3117294Y24171260D01*
X3100000Y24084321D01*
X3100000Y23995679D01*
X3117294Y23908740D01*
X3151215Y23826845D01*
X3200462Y23753142D01*
X3263142Y23690462D01*
X3336845Y23641215D01*
X3409324Y23611194D01*
X3400000Y23564321D01*
X3400000Y23475679D01*
X3417294Y23388740D01*
X3451215Y23306845D01*
X3500462Y23233142D01*
X3563142Y23170462D01*
X3636845Y23121215D01*
X3718740Y23087294D01*
X3805679Y23070000D01*
X3894321Y23070000D01*
X3981260Y23087294D01*
X4063155Y23121215D01*
X4136858Y23170462D01*
X4150000Y23183604D01*
X4163142Y23170462D01*
X4236845Y23121215D01*
X4318740Y23087294D01*
X4405679Y23070000D01*
X4494321Y23070000D01*
X4581260Y23087294D01*
X4663155Y23121215D01*
X4736858Y23170462D01*
X4750000Y23183604D01*
X4763142Y23170462D01*
X4836845Y23121215D01*
X4918740Y23087294D01*
X5005679Y23070000D01*
X5094321Y23070000D01*
X5181260Y23087294D01*
X5263155Y23121215D01*
X5336858Y23170462D01*
X5350000Y23183604D01*
X5363142Y23170462D01*
X5436845Y23121215D01*
X5518740Y23087294D01*
X5605679Y23070000D01*
X5694321Y23070000D01*
X5781260Y23087294D01*
X5863155Y23121215D01*
X5936858Y23170462D01*
X5999538Y23233142D01*
X6048785Y23306845D01*
X6082706Y23388740D01*
X6100000Y23475679D01*
X6100000Y23564321D01*
X6090676Y23611194D01*
X6163155Y23641215D01*
X6236858Y23690462D01*
X6299538Y23753142D01*
X6348785Y23826845D01*
X6382706Y23908740D01*
X6400000Y23995679D01*
X6400000Y24084321D01*
X6397750Y24095634D01*
X7677683Y22815700D01*
X7636845Y22798785D01*
X7563142Y22749538D01*
X7500462Y22686858D01*
X7451215Y22613155D01*
X7417294Y22531260D01*
X7400000Y22444321D01*
X7400000Y22355679D01*
X7417294Y22268740D01*
X7431193Y22235183D01*
X7418740Y22232706D01*
X7336845Y22198785D01*
X7263142Y22149538D01*
X7200462Y22086858D01*
X7151215Y22013155D01*
X7117294Y21931260D01*
X7100000Y21844321D01*
X7100000Y21755679D01*
X7117294Y21668740D01*
X7151215Y21586845D01*
X7200462Y21513142D01*
X7263142Y21450462D01*
X7336845Y21401215D01*
X7384754Y21381371D01*
X6908629Y20905246D01*
X6888785Y20953155D01*
X6867870Y20984456D01*
X6876858Y20990462D01*
X6939538Y21053142D01*
X6988785Y21126845D01*
X7022706Y21208740D01*
X7040000Y21295679D01*
X7040000Y21384321D01*
X7022706Y21471260D01*
X6988785Y21553155D01*
X6939538Y21626858D01*
X6876858Y21689538D01*
X6803155Y21738785D01*
X6721260Y21772706D01*
X6634321Y21790000D01*
X6545679Y21790000D01*
X6458740Y21772706D01*
X6376845Y21738785D01*
X6303142Y21689538D01*
X6240462Y21626858D01*
X6191215Y21553155D01*
X6157294Y21471260D01*
X6140000Y21384321D01*
X6140000Y21295679D01*
X6157294Y21208740D01*
X6191215Y21126845D01*
X6212130Y21095544D01*
X6203142Y21089538D01*
X6140462Y21026858D01*
X6134456Y21017870D01*
X6103155Y21038785D01*
X6021260Y21072706D01*
X5934321Y21090000D01*
X5845679Y21090000D01*
X5758740Y21072706D01*
X5676845Y21038785D01*
X5603142Y20989538D01*
X5540462Y20926858D01*
X5491215Y20853155D01*
X5457294Y20771260D01*
X5440000Y20684321D01*
X5440000Y20595679D01*
X5457294Y20508740D01*
X5491215Y20426845D01*
X5516749Y20388630D01*
X5503142Y20379538D01*
X5440462Y20316858D01*
X5391215Y20243155D01*
X5357294Y20161260D01*
X5340000Y20074321D01*
X5340000Y19985679D01*
X5357294Y19898740D01*
X5391215Y19816845D01*
X5440462Y19743142D01*
X5503142Y19680462D01*
X5576845Y19631215D01*
X5617683Y19614300D01*
X5440000Y19436616D01*
X5440000Y19464321D01*
X5422706Y19551260D01*
X5388785Y19633155D01*
X5339538Y19706858D01*
X5276858Y19769538D01*
X5203155Y19818785D01*
X5121260Y19852706D01*
X5034321Y19870000D01*
X4945679Y19870000D01*
X4858740Y19852706D01*
X4776845Y19818785D01*
X4703142Y19769538D01*
X4640462Y19706858D01*
X4591215Y19633155D01*
X4557294Y19551260D01*
X4540000Y19464321D01*
X4540000Y19375679D01*
X4557294Y19288740D01*
X4591215Y19206845D01*
X4640462Y19133142D01*
X4703142Y19070462D01*
X4776845Y19021215D01*
X4858740Y18987294D01*
X4945679Y18970000D01*
X4973384Y18970000D01*
X4324480Y18321096D01*
X4312082Y18310921D01*
X4271468Y18261434D01*
X4271340Y18261194D01*
X4241289Y18204973D01*
X4222705Y18143711D01*
X4216431Y18080000D01*
X4218003Y18064037D01*
X4218002Y16472951D01*
X4216431Y16456998D01*
X4218002Y16441045D01*
X4218002Y16441038D01*
X4219950Y16421260D01*
X4222705Y16393287D01*
X4230041Y16369103D01*
X4156845Y16338785D01*
X4083142Y16289538D01*
X4020462Y16226858D01*
X3971215Y16153155D01*
X3940433Y16078838D01*
X3884321Y16090000D01*
X3795679Y16090000D01*
X3708740Y16072706D01*
X3626845Y16038785D01*
X3553142Y15989538D01*
X3490462Y15926858D01*
X3441215Y15853155D01*
X3407294Y15771260D01*
X3391130Y15690000D01*
X3335679Y15690000D01*
X3248740Y15672706D01*
X3166845Y15638785D01*
X3093142Y15589538D01*
X3030462Y15526858D01*
X2981215Y15453155D01*
X2947294Y15371260D01*
X2930000Y15284321D01*
X475000Y15284321D01*
X475000Y15855430D01*
X616600Y15713830D01*
X784480Y15601656D01*
X971018Y15524390D01*
X1169046Y15485000D01*
X1370954Y15485000D01*
X1568982Y15524390D01*
X1755520Y15601656D01*
X1923400Y15713830D01*
X2066170Y15856600D01*
X2178344Y16024480D01*
X2255610Y16211018D01*
X2295000Y16409046D01*
X2295000Y16610954D01*
X2255610Y16808982D01*
X2178344Y16995520D01*
X2066170Y17163400D01*
X1923400Y17306170D01*
X1755520Y17418344D01*
X1568982Y17495610D01*
X1370954Y17535000D01*
X1169046Y17535000D01*
X971018Y17495610D01*
X784480Y17418344D01*
X616600Y17306170D01*
X475000Y17164570D01*
X475000Y18395430D01*
X616600Y18253830D01*
X784480Y18141656D01*
X971018Y18064390D01*
X1169046Y18025000D01*
X1370954Y18025000D01*
X1568982Y18064390D01*
X1755520Y18141656D01*
X1923400Y18253830D01*
X2066170Y18396600D01*
X2178344Y18564480D01*
X2198988Y18614321D01*
X2530000Y18614321D01*
X2530000Y18525679D01*
X2547294Y18438740D01*
X2581215Y18356845D01*
X2630462Y18283142D01*
X2693142Y18220462D01*
X2766845Y18171215D01*
X2848740Y18137294D01*
X2935679Y18120000D01*
X3024321Y18120000D01*
X3111260Y18137294D01*
X3193155Y18171215D01*
X3266858Y18220462D01*
X3329538Y18283142D01*
X3378785Y18356845D01*
X3412706Y18438740D01*
X3430000Y18525679D01*
X3430000Y18614321D01*
X3412706Y18701260D01*
X3378785Y18783155D01*
X3329538Y18856858D01*
X3266858Y18919538D01*
X3193155Y18968785D01*
X3111260Y19002706D01*
X3024321Y19020000D01*
X2935679Y19020000D01*
X2848740Y19002706D01*
X2766845Y18968785D01*
X2693142Y18919538D01*
X2630462Y18856858D01*
X2581215Y18783155D01*
X2547294Y18701260D01*
X2530000Y18614321D01*
X2198988Y18614321D01*
X2255610Y18751018D01*
X2295000Y18949046D01*
X2295000Y19150954D01*
X2255610Y19348982D01*
X2178344Y19535520D01*
X2066170Y19703400D01*
X1923400Y19846170D01*
X1755520Y19958344D01*
X1568982Y20035610D01*
X1370954Y20075000D01*
X1169046Y20075000D01*
X971018Y20035610D01*
X784480Y19958344D01*
X616600Y19846170D01*
X475000Y19704570D01*
X475000Y20384321D01*
X3990000Y20384321D01*
X3990000Y20295679D01*
X4007294Y20208740D01*
X4041215Y20126845D01*
X4090462Y20053142D01*
X4153142Y19990462D01*
X4226845Y19941215D01*
X4308740Y19907294D01*
X4395679Y19890000D01*
X4484321Y19890000D01*
X4571260Y19907294D01*
X4653155Y19941215D01*
X4726858Y19990462D01*
X4789538Y20053142D01*
X4838785Y20126845D01*
X4872706Y20208740D01*
X4890000Y20295679D01*
X4890000Y20384321D01*
X4872706Y20471260D01*
X4838785Y20553155D01*
X4789538Y20626858D01*
X4726858Y20689538D01*
X4653155Y20738785D01*
X4571260Y20772706D01*
X4484321Y20790000D01*
X4395679Y20790000D01*
X4308740Y20772706D01*
X4226845Y20738785D01*
X4153142Y20689538D01*
X4090462Y20626858D01*
X4041215Y20553155D01*
X4007294Y20471260D01*
X3990000Y20384321D01*
X475000Y20384321D01*
X475000Y20935430D01*
X616600Y20793830D01*
X784480Y20681656D01*
X971018Y20604390D01*
X1169046Y20565000D01*
X1370954Y20565000D01*
X1568982Y20604390D01*
X1755520Y20681656D01*
X1923400Y20793830D01*
X2066170Y20936600D01*
X2178344Y21104480D01*
X2255610Y21291018D01*
X2295000Y21489046D01*
X2295000Y21690954D01*
X2255610Y21888982D01*
X2178344Y22075520D01*
X2066170Y22243400D01*
X1923400Y22386170D01*
X1755520Y22498344D01*
X1568982Y22575610D01*
X1370954Y22615000D01*
X1169046Y22615000D01*
X971018Y22575610D01*
X784480Y22498344D01*
X616600Y22386170D01*
X475000Y22244570D01*
X475000Y23475430D01*
X616600Y23333830D01*
X784480Y23221656D01*
X971018Y23144390D01*
X1169046Y23105000D01*
X1370954Y23105000D01*
X1568982Y23144390D01*
X1755520Y23221656D01*
X1923400Y23333830D01*
X2066170Y23476600D01*
X2178344Y23644480D01*
X2255610Y23831018D01*
X2295000Y24029046D01*
X2295000Y24230954D01*
X2255610Y24428982D01*
X2178344Y24615520D01*
X2066170Y24783400D01*
X1923400Y24926170D01*
X1755520Y25038344D01*
X1568982Y25115610D01*
X1370954Y25155000D01*
X1169046Y25155000D01*
X971018Y25115610D01*
X784480Y25038344D01*
X616600Y24926170D01*
X475000Y24784570D01*
X475000Y26015430D01*
X616600Y25873830D01*
X784480Y25761656D01*
X971018Y25684390D01*
X1169046Y25645000D01*
X1370954Y25645000D01*
X1568982Y25684390D01*
X1755520Y25761656D01*
X1923400Y25873830D01*
X2066170Y26016600D01*
X2164874Y26164321D01*
X6750000Y26164321D01*
X6750000Y26075679D01*
X6767294Y25988740D01*
X6801215Y25906845D01*
X6850462Y25833142D01*
X6913142Y25770462D01*
X6986845Y25721215D01*
X7068740Y25687294D01*
X7155679Y25670000D01*
X7244321Y25670000D01*
X7331260Y25687294D01*
X7413155Y25721215D01*
X7486858Y25770462D01*
X7549538Y25833142D01*
X7598785Y25906845D01*
X7632706Y25988740D01*
X7650000Y26075679D01*
X7650000Y26164321D01*
X7632706Y26251260D01*
X7598785Y26333155D01*
X7549538Y26406858D01*
X7486858Y26469538D01*
X7413155Y26518785D01*
X7331260Y26552706D01*
X7244321Y26570000D01*
X7155679Y26570000D01*
X7068740Y26552706D01*
X6986845Y26518785D01*
X6913142Y26469538D01*
X6850462Y26406858D01*
X6801215Y26333155D01*
X6767294Y26251260D01*
X6750000Y26164321D01*
X2164874Y26164321D01*
X2178344Y26184480D01*
X2255610Y26371018D01*
X2295000Y26569046D01*
X2295000Y26770954D01*
X2255610Y26968982D01*
X2178344Y27155520D01*
X2066170Y27323400D01*
X1923400Y27466170D01*
X1755520Y27578344D01*
X1568982Y27655610D01*
X1370954Y27695000D01*
X1169046Y27695000D01*
X971018Y27655610D01*
X784480Y27578344D01*
X616600Y27466170D01*
X475000Y27324570D01*
X475000Y28555430D01*
X616600Y28413830D01*
X784480Y28301656D01*
X971018Y28224390D01*
X1169046Y28185000D01*
X1370954Y28185000D01*
X1568982Y28224390D01*
X1755520Y28301656D01*
X1923400Y28413830D01*
X2066170Y28556600D01*
X2178344Y28724480D01*
X2255610Y28911018D01*
X2295000Y29109046D01*
X2295000Y29310954D01*
X2255610Y29508982D01*
X2178344Y29695520D01*
X2066170Y29863400D01*
X1923400Y30006170D01*
X1755520Y30118344D01*
X1568982Y30195610D01*
X1370954Y30235000D01*
X1169046Y30235000D01*
X971018Y30195610D01*
X784480Y30118344D01*
X616600Y30006170D01*
X475000Y29864570D01*
X475000Y31095430D01*
X616600Y30953830D01*
X784480Y30841656D01*
X971018Y30764390D01*
X1169046Y30725000D01*
X1370954Y30725000D01*
X1568982Y30764390D01*
X1755520Y30841656D01*
X1923400Y30953830D01*
X2066170Y31096600D01*
X2178344Y31264480D01*
X2255610Y31451018D01*
X2295000Y31649046D01*
X2295000Y31850954D01*
X2255610Y32048982D01*
X2178344Y32235520D01*
X2066170Y32403400D01*
X1923400Y32546170D01*
X1755520Y32658344D01*
X1568982Y32735610D01*
X1370954Y32775000D01*
X1169046Y32775000D01*
X971018Y32735610D01*
X784480Y32658344D01*
X616600Y32546170D01*
X475000Y32404570D01*
X475000Y33567036D01*
X617747Y33567036D01*
X705769Y33428337D01*
X884712Y33334818D01*
X1078462Y33278006D01*
X1279573Y33260083D01*
X1480316Y33281741D01*
X1672977Y33342145D01*
X1834231Y33428337D01*
X1922253Y33567036D01*
X1270000Y34219289D01*
X617747Y33567036D01*
X475000Y33567036D01*
X475000Y33683463D01*
X547036Y33637747D01*
X1199289Y34290000D01*
X1340711Y34290000D01*
X1992964Y33637747D01*
X2131663Y33725769D01*
X2225182Y33904712D01*
X2281994Y34098462D01*
X2299917Y34299573D01*
X2299266Y34305607D01*
X3845000Y34305607D01*
X3845000Y33634394D01*
X3855491Y33527876D01*
X3896947Y33391213D01*
X3964269Y33265264D01*
X4054868Y33154869D01*
X4165263Y33064269D01*
X4291212Y32996947D01*
X4427875Y32955491D01*
X4570000Y32941493D01*
X4712124Y32955491D01*
X4848787Y32996947D01*
X4974736Y33064269D01*
X5085131Y33154868D01*
X5175731Y33265263D01*
X5243053Y33391212D01*
X5284509Y33527875D01*
X5295000Y33634393D01*
X5295000Y34305607D01*
X12485000Y34305607D01*
X12485000Y33634394D01*
X12495491Y33527876D01*
X12536947Y33391213D01*
X12604269Y33265264D01*
X12694868Y33154869D01*
X12805263Y33064269D01*
X12931212Y32996947D01*
X13067875Y32955491D01*
X13210000Y32941493D01*
X13352124Y32955491D01*
X13488787Y32996947D01*
X13614736Y33064269D01*
X13725131Y33154868D01*
X13815731Y33265263D01*
X13883053Y33391212D01*
X13924509Y33527875D01*
X13935000Y33634393D01*
X13935000Y34305607D01*
X13924509Y34412125D01*
X13883053Y34548788D01*
X13815731Y34674737D01*
X13725132Y34785132D01*
X13614737Y34875731D01*
X13488788Y34943053D01*
X13352125Y34984509D01*
X13210000Y34998507D01*
X13067876Y34984509D01*
X12931213Y34943053D01*
X12805264Y34875731D01*
X12694869Y34785132D01*
X12604270Y34674737D01*
X12536947Y34548788D01*
X12495491Y34412125D01*
X12485000Y34305607D01*
X5295000Y34305607D01*
X5284509Y34412125D01*
X5243053Y34548788D01*
X5175731Y34674737D01*
X5085132Y34785132D01*
X4974737Y34875731D01*
X4848788Y34943053D01*
X4712125Y34984509D01*
X4570000Y34998507D01*
X4427876Y34984509D01*
X4291213Y34943053D01*
X4165264Y34875731D01*
X4054869Y34785132D01*
X3964270Y34674737D01*
X3896947Y34548788D01*
X3855491Y34412125D01*
X3845000Y34305607D01*
X2299266Y34305607D01*
X2278259Y34500316D01*
X2217855Y34692977D01*
X2131663Y34854231D01*
X1992964Y34942253D01*
X1340711Y34290000D01*
X1199289Y34290000D01*
X547036Y34942253D01*
X475000Y34896537D01*
X475000Y35036772D01*
X477710Y35064413D01*
X478992Y35068659D01*
X481074Y35072574D01*
X483877Y35076010D01*
X487295Y35078838D01*
X491197Y35080948D01*
X495429Y35082258D01*
X521517Y35085000D01*
X663463Y35085000D01*
X617747Y35012964D01*
G04 #@! TA.AperFunction,Conductor*
D17*
G36*
X617747Y35012964D02*
G01*
X1270000Y34360711D01*
X1922253Y35012964D01*
X1876537Y35085000D01*
X15855430Y35085000D01*
X15713830Y34943400D01*
X15601656Y34775520D01*
X15524390Y34588982D01*
X15485000Y34390954D01*
X15485000Y34189046D01*
X15524390Y33991018D01*
X15601656Y33804480D01*
X15713830Y33636600D01*
X15856600Y33493830D01*
X16024480Y33381656D01*
X16211018Y33304390D01*
X16409046Y33265000D01*
X16610954Y33265000D01*
X16808982Y33304390D01*
X16995520Y33381656D01*
X17163400Y33493830D01*
X17305001Y33635431D01*
X17305001Y32404569D01*
X17163400Y32546170D01*
X16995520Y32658344D01*
X16808982Y32735610D01*
X16610954Y32775000D01*
X16409046Y32775000D01*
X16211018Y32735610D01*
X16024480Y32658344D01*
X15856600Y32546170D01*
X15713830Y32403400D01*
X15601656Y32235520D01*
X15524390Y32048982D01*
X15485000Y31850954D01*
X15485000Y31649046D01*
X15524390Y31451018D01*
X15601656Y31264480D01*
X15713830Y31096600D01*
X15856600Y30953830D01*
X16024480Y30841656D01*
X16211018Y30764390D01*
X16409046Y30725000D01*
X16610954Y30725000D01*
X16808982Y30764390D01*
X16995520Y30841656D01*
X17163400Y30953830D01*
X17305001Y31095431D01*
X17305001Y29864569D01*
X17163400Y30006170D01*
X16995520Y30118344D01*
X16808982Y30195610D01*
X16610954Y30235000D01*
X16409046Y30235000D01*
X16211018Y30195610D01*
X16024480Y30118344D01*
X15856600Y30006170D01*
X15713830Y29863400D01*
X15601656Y29695520D01*
X15524390Y29508982D01*
X15485000Y29310954D01*
X15485000Y29109046D01*
X15524390Y28911018D01*
X15601656Y28724480D01*
X15713830Y28556600D01*
X15856600Y28413830D01*
X16024480Y28301656D01*
X16211018Y28224390D01*
X16409046Y28185000D01*
X16610954Y28185000D01*
X16808982Y28224390D01*
X16995520Y28301656D01*
X17163400Y28413830D01*
X17305001Y28555431D01*
X17305001Y28154860D01*
X17280285Y28156558D01*
X15085257Y28163396D01*
X14999898Y28174902D01*
X14934136Y28202375D01*
X14877727Y28245925D01*
X14834508Y28302589D01*
X14807422Y28368512D01*
X14800000Y28426128D01*
X14800000Y29754620D01*
X14803618Y31068003D01*
X14801767Y31097429D01*
X14785027Y31227106D01*
X14769930Y31283973D01*
X14720143Y31404877D01*
X14690817Y31455888D01*
X14611386Y31559750D01*
X14569837Y31601413D01*
X14466194Y31681130D01*
X14415264Y31710597D01*
X14294498Y31760717D01*
X14237672Y31775971D01*
X14108041Y31793068D01*
X14078621Y31795000D01*
X3710000Y31795000D01*
X3680632Y31793075D01*
X3551222Y31776038D01*
X3494486Y31760836D01*
X3373896Y31710886D01*
X3323028Y31681517D01*
X3219475Y31602057D01*
X3177943Y31560525D01*
X3098483Y31456972D01*
X3069114Y31406104D01*
X3019164Y31285514D01*
X3003962Y31228778D01*
X2986925Y31099368D01*
X2985000Y31070000D01*
X2985000Y28111396D01*
X2930462Y28056858D01*
X2881215Y27983155D01*
X2847294Y27901260D01*
X2830000Y27814321D01*
X2830000Y27725679D01*
X2847294Y27638740D01*
X2881215Y27556845D01*
X2930462Y27483142D01*
X2993142Y27420462D01*
X3066845Y27371215D01*
X3148740Y27337294D01*
X3199767Y27327144D01*
X3219194Y27307697D01*
X3322635Y27228228D01*
X3373448Y27198846D01*
X3493924Y27148836D01*
X3550613Y27133595D01*
X3679924Y27116450D01*
X3709271Y27114498D01*
X9394815Y27108784D01*
X10448236Y27106221D01*
X10471663Y27107701D01*
X12648154Y27105514D01*
X12733241Y27094269D01*
X12798858Y27067131D01*
X12855258Y27023994D01*
X12898632Y26967770D01*
X12926043Y26902265D01*
X12937640Y26817226D01*
X12942433Y25887345D01*
X12944502Y25858041D01*
X12962141Y25728961D01*
X12977578Y25672406D01*
X13027964Y25552264D01*
X13057488Y25501615D01*
X13137201Y25398568D01*
X13178808Y25357264D01*
X13282437Y25278308D01*
X13333301Y25249156D01*
X13453809Y25199652D01*
X13510477Y25184630D01*
X13639683Y25167938D01*
X13669000Y25166085D01*
X15352641Y25169745D01*
X15390462Y25113142D01*
X15453142Y25050462D01*
X15526845Y25001215D01*
X15608740Y24967294D01*
X15695679Y24950000D01*
X15784321Y24950000D01*
X15871260Y24967294D01*
X15953155Y25001215D01*
X16026858Y25050462D01*
X16089538Y25113142D01*
X16128486Y25171432D01*
X17273544Y25173921D01*
X17302794Y25175894D01*
X17305001Y25176188D01*
X17305001Y24784569D01*
X17163400Y24926170D01*
X16995520Y25038344D01*
X16808982Y25115610D01*
X16610954Y25155000D01*
X16409046Y25155000D01*
X16211018Y25115610D01*
X16024480Y25038344D01*
X15856600Y24926170D01*
X15713830Y24783400D01*
X15601656Y24615520D01*
X15524390Y24428982D01*
X15485000Y24230954D01*
X15485000Y24029046D01*
X15524390Y23831018D01*
X15601656Y23644480D01*
X15713830Y23476600D01*
X15856600Y23333830D01*
X16024480Y23221656D01*
X16211018Y23144390D01*
X16409046Y23105000D01*
X16610954Y23105000D01*
X16808982Y23144390D01*
X16995520Y23221656D01*
X17163400Y23333830D01*
X17305001Y23475431D01*
X17305001Y22244569D01*
X17163400Y22386170D01*
X16995520Y22498344D01*
X16808982Y22575610D01*
X16610954Y22615000D01*
X16409046Y22615000D01*
X16211018Y22575610D01*
X16024480Y22498344D01*
X15856600Y22386170D01*
X15713830Y22243400D01*
X15601656Y22075520D01*
X15524390Y21888982D01*
X15485000Y21690954D01*
X15485000Y21489046D01*
X15524390Y21291018D01*
X15601656Y21104480D01*
X15713830Y20936600D01*
X15856600Y20793830D01*
X16024480Y20681656D01*
X16211018Y20604390D01*
X16409046Y20565000D01*
X16610954Y20565000D01*
X16808982Y20604390D01*
X16995520Y20681656D01*
X17163400Y20793830D01*
X17305001Y20935431D01*
X17305001Y19704569D01*
X17163400Y19846170D01*
X16995520Y19958344D01*
X16808982Y20035610D01*
X16610954Y20075000D01*
X16409046Y20075000D01*
X16211018Y20035610D01*
X16024480Y19958344D01*
X15856600Y19846170D01*
X15713830Y19703400D01*
X15601656Y19535520D01*
X15524390Y19348982D01*
X15485000Y19150954D01*
X15485000Y18949046D01*
X15524390Y18751018D01*
X15601656Y18564480D01*
X15713830Y18396600D01*
X15856600Y18253830D01*
X16024480Y18141656D01*
X16211018Y18064390D01*
X16409046Y18025000D01*
X16610954Y18025000D01*
X16808982Y18064390D01*
X16995520Y18141656D01*
X17163400Y18253830D01*
X17305001Y18395431D01*
X17305000Y17164570D01*
X17163400Y17306170D01*
X16995520Y17418344D01*
X16808982Y17495610D01*
X16610954Y17535000D01*
X16409046Y17535000D01*
X16211018Y17495610D01*
X16024480Y17418344D01*
X15856600Y17306170D01*
X15713830Y17163400D01*
X15601656Y16995520D01*
X15524390Y16808982D01*
X15485000Y16610954D01*
X15485000Y16409046D01*
X15524390Y16211018D01*
X15601656Y16024480D01*
X15713830Y15856600D01*
X15856600Y15713830D01*
X16024480Y15601656D01*
X16211018Y15524390D01*
X16409046Y15485000D01*
X16610954Y15485000D01*
X16808982Y15524390D01*
X16995520Y15601656D01*
X17163400Y15713830D01*
X17305000Y15855430D01*
X17305000Y14624570D01*
X17163400Y14766170D01*
X16995520Y14878344D01*
X16808982Y14955610D01*
X16610954Y14995000D01*
X16409046Y14995000D01*
X16211018Y14955610D01*
X16024480Y14878344D01*
X15856600Y14766170D01*
X15713830Y14623400D01*
X15601656Y14455520D01*
X15524390Y14268982D01*
X15485000Y14070954D01*
X15485000Y13869046D01*
X15524390Y13671018D01*
X15601656Y13484480D01*
X15713830Y13316600D01*
X15856600Y13173830D01*
X16024480Y13061656D01*
X16211018Y12984390D01*
X16409046Y12945000D01*
X16610954Y12945000D01*
X16808982Y12984390D01*
X16995520Y13061656D01*
X17163400Y13173830D01*
X17305000Y13315430D01*
X17305000Y12084570D01*
X17163400Y12226170D01*
X16995520Y12338344D01*
X16808982Y12415610D01*
X16610954Y12455000D01*
X16409046Y12455000D01*
X16211018Y12415610D01*
X16024480Y12338344D01*
X15856600Y12226170D01*
X15713830Y12083400D01*
X15601656Y11915520D01*
X15524390Y11728982D01*
X15485000Y11530954D01*
X15485000Y11329046D01*
X15524390Y11131018D01*
X15601656Y10944480D01*
X15713830Y10776600D01*
X15856600Y10633830D01*
X16024480Y10521656D01*
X16211018Y10444390D01*
X16409046Y10405000D01*
X16610954Y10405000D01*
X16808982Y10444390D01*
X16995520Y10521656D01*
X17163400Y10633830D01*
X17305000Y10775430D01*
X17305000Y9544570D01*
X17163400Y9686170D01*
X16995520Y9798344D01*
X16808982Y9875610D01*
X16610954Y9915000D01*
X16409046Y9915000D01*
X16211018Y9875610D01*
X16024480Y9798344D01*
X15856600Y9686170D01*
X15713830Y9543400D01*
X15601656Y9375520D01*
X15524390Y9188982D01*
X15485000Y8990954D01*
X15485000Y8789046D01*
X15524390Y8591018D01*
X15601656Y8404480D01*
X15713830Y8236600D01*
X15856600Y8093830D01*
X16024480Y7981656D01*
X16211018Y7904390D01*
X16409046Y7865000D01*
X16610954Y7865000D01*
X16808982Y7904390D01*
X16995520Y7981656D01*
X17163400Y8093830D01*
X17305000Y8235430D01*
X17305000Y7004570D01*
X17163400Y7146170D01*
X16995520Y7258344D01*
X16808982Y7335610D01*
X16610954Y7375000D01*
X16409046Y7375000D01*
X16211018Y7335610D01*
X16024480Y7258344D01*
X15856600Y7146170D01*
X15713830Y7003400D01*
X15601656Y6835520D01*
X15524390Y6648982D01*
X15485000Y6450954D01*
X15485000Y6249046D01*
X15524390Y6051018D01*
X15601656Y5864480D01*
X15713830Y5696600D01*
X15856600Y5553830D01*
X16024480Y5441656D01*
X16211018Y5364390D01*
X16409046Y5325000D01*
X16610954Y5325000D01*
X16808982Y5364390D01*
X16995520Y5441656D01*
X17163400Y5553830D01*
X17305000Y5695430D01*
X17305000Y4464570D01*
X17163400Y4606170D01*
X16995520Y4718344D01*
X16808982Y4795610D01*
X16610954Y4835000D01*
X16409046Y4835000D01*
X16211018Y4795610D01*
X16024480Y4718344D01*
X15856600Y4606170D01*
X15713830Y4463400D01*
X15601656Y4295520D01*
X15524390Y4108982D01*
X15485000Y3910954D01*
X15485000Y3709046D01*
X15524390Y3511018D01*
X15601656Y3324480D01*
X15713830Y3156600D01*
X15856600Y3013830D01*
X16024480Y2901656D01*
X16211018Y2824390D01*
X16409046Y2785000D01*
X16610954Y2785000D01*
X16808982Y2824390D01*
X16995520Y2901656D01*
X17163400Y3013830D01*
X17305000Y3155430D01*
X17305000Y1924570D01*
X17163400Y2066170D01*
X16995520Y2178344D01*
X16808982Y2255610D01*
X16610954Y2295000D01*
X16409046Y2295000D01*
X16211018Y2255610D01*
X16024480Y2178344D01*
X15856600Y2066170D01*
X15713830Y1923400D01*
X15601656Y1755520D01*
X15524390Y1568982D01*
X15485000Y1370954D01*
X15485000Y1169046D01*
X15524390Y971018D01*
X15601656Y784480D01*
X15713830Y616600D01*
X15855430Y475000D01*
X14624570Y475000D01*
X14766170Y616600D01*
X14878344Y784480D01*
X14955610Y971018D01*
X14995000Y1169046D01*
X14995000Y1370954D01*
X14955610Y1568982D01*
X14878344Y1755520D01*
X14766170Y1923400D01*
X14623400Y2066170D01*
X14455520Y2178344D01*
X14268982Y2255610D01*
X14070954Y2295000D01*
X13869046Y2295000D01*
X13671018Y2255610D01*
X13484480Y2178344D01*
X13316600Y2066170D01*
X13173830Y1923400D01*
X13061656Y1755520D01*
X12984390Y1568982D01*
X12945000Y1370954D01*
X12945000Y1169046D01*
X12984390Y971018D01*
X13061656Y784480D01*
X13173830Y616600D01*
X13315430Y475000D01*
X12084570Y475000D01*
X12226170Y616600D01*
X12338344Y784480D01*
X12415610Y971018D01*
X12455000Y1169046D01*
X12455000Y1370954D01*
X12415610Y1568982D01*
X12338344Y1755520D01*
X12226170Y1923400D01*
X12083400Y2066170D01*
X11915520Y2178344D01*
X11728982Y2255610D01*
X11530954Y2295000D01*
X11329046Y2295000D01*
X11131018Y2255610D01*
X10944480Y2178344D01*
X10776600Y2066170D01*
X10633830Y1923400D01*
X10521656Y1755520D01*
X10444390Y1568982D01*
X10405000Y1370954D01*
X10405000Y1169046D01*
X10444390Y971018D01*
X10521656Y784480D01*
X10633830Y616600D01*
X10775430Y475000D01*
X9544570Y475000D01*
X9686170Y616600D01*
X9798344Y784480D01*
X9875610Y971018D01*
X9915000Y1169046D01*
X9915000Y1370954D01*
X9875610Y1568982D01*
X9798344Y1755520D01*
X9686170Y1923400D01*
X9543400Y2066170D01*
X9375520Y2178344D01*
X9188982Y2255610D01*
X8990954Y2295000D01*
X8789046Y2295000D01*
X8591018Y2255610D01*
X8404480Y2178344D01*
X8236600Y2066170D01*
X8093830Y1923400D01*
X7981656Y1755520D01*
X7904390Y1568982D01*
X7865000Y1370954D01*
X7865000Y1169046D01*
X7904390Y971018D01*
X7981656Y784480D01*
X8093830Y616600D01*
X8235430Y475000D01*
X6956537Y475000D01*
X7002253Y547036D01*
X6350000Y1199289D01*
X5697747Y547036D01*
X5743463Y475000D01*
X4464570Y475000D01*
X4606170Y616600D01*
X4718344Y784480D01*
X4795610Y971018D01*
X4835000Y1169046D01*
X4835000Y1260427D01*
X5320083Y1260427D01*
X5341741Y1059684D01*
X5402145Y867023D01*
X5488337Y705769D01*
X5627036Y617747D01*
X6279289Y1270000D01*
X6420711Y1270000D01*
X7072964Y617747D01*
X7211663Y705769D01*
X7305182Y884712D01*
X7361994Y1078462D01*
X7379917Y1279573D01*
X7358259Y1480316D01*
X7297855Y1672977D01*
X7211663Y1834231D01*
X7072964Y1922253D01*
X6420711Y1270000D01*
X6279289Y1270000D01*
X5627036Y1922253D01*
X5488337Y1834231D01*
X5394818Y1655288D01*
X5338006Y1461538D01*
X5320083Y1260427D01*
X4835000Y1260427D01*
X4835000Y1370954D01*
X4795610Y1568982D01*
X4718344Y1755520D01*
X4606170Y1923400D01*
X4536606Y1992964D01*
X5697747Y1992964D01*
X6350000Y1340711D01*
X7002253Y1992964D01*
X6914231Y2131663D01*
X6735288Y2225182D01*
X6541538Y2281994D01*
X6340427Y2299917D01*
X6139684Y2278259D01*
X5947023Y2217855D01*
X5785769Y2131663D01*
X5697747Y1992964D01*
X4536606Y1992964D01*
X4463400Y2066170D01*
X4295520Y2178344D01*
X4108982Y2255610D01*
X3910954Y2295000D01*
X3709046Y2295000D01*
X3511018Y2255610D01*
X3324480Y2178344D01*
X3156600Y2066170D01*
X3013830Y1923400D01*
X2901656Y1755520D01*
X2824390Y1568982D01*
X2785000Y1370954D01*
X2785000Y1169046D01*
X2824390Y971018D01*
X2901656Y784480D01*
X3013830Y616600D01*
X3155430Y475000D01*
X1924570Y475000D01*
X2066170Y616600D01*
X2178344Y784480D01*
X2255610Y971018D01*
X2295000Y1169046D01*
X2295000Y1370954D01*
X2255610Y1568982D01*
X2178344Y1755520D01*
X2066170Y1923400D01*
X1923400Y2066170D01*
X1755520Y2178344D01*
X1568982Y2255610D01*
X1370954Y2295000D01*
X1169046Y2295000D01*
X971018Y2255610D01*
X784480Y2178344D01*
X616600Y2066170D01*
X475000Y1924570D01*
X475000Y2584321D01*
X9710000Y2584321D01*
X9710000Y2495679D01*
X9727294Y2408740D01*
X9761215Y2326845D01*
X9810462Y2253142D01*
X9873142Y2190462D01*
X9946845Y2141215D01*
X10028740Y2107294D01*
X10115679Y2090000D01*
X10204321Y2090000D01*
X10291260Y2107294D01*
X10373155Y2141215D01*
X10446858Y2190462D01*
X10509538Y2253142D01*
X10558785Y2326845D01*
X10592706Y2408740D01*
X10610000Y2495679D01*
X10610000Y2584321D01*
X10592706Y2671260D01*
X10558785Y2753155D01*
X10509538Y2826858D01*
X10446858Y2889538D01*
X10373155Y2938785D01*
X10291260Y2972706D01*
X10204321Y2990000D01*
X10115679Y2990000D01*
X10028740Y2972706D01*
X9946845Y2938785D01*
X9873142Y2889538D01*
X9810462Y2826858D01*
X9761215Y2753155D01*
X9727294Y2671260D01*
X9710000Y2584321D01*
X475000Y2584321D01*
X475000Y3155430D01*
X616600Y3013830D01*
X784480Y2901656D01*
X971018Y2824390D01*
X1169046Y2785000D01*
X1370954Y2785000D01*
X1568982Y2824390D01*
X1755520Y2901656D01*
X1923400Y3013830D01*
X2066170Y3156600D01*
X2178344Y3324480D01*
X2255610Y3511018D01*
X2295000Y3709046D01*
X2295000Y3910954D01*
X2785000Y3910954D01*
X2785000Y3709046D01*
X2824390Y3511018D01*
X2901656Y3324480D01*
X3013830Y3156600D01*
X3156600Y3013830D01*
X3324480Y2901656D01*
X3511018Y2824390D01*
X3709046Y2785000D01*
X3910954Y2785000D01*
X4108982Y2824390D01*
X4295520Y2901656D01*
X4463400Y3013830D01*
X4606170Y3156600D01*
X4718344Y3324480D01*
X4795610Y3511018D01*
X4835000Y3709046D01*
X4835000Y3910954D01*
X5325000Y3910954D01*
X5325000Y3709046D01*
X5364390Y3511018D01*
X5441656Y3324480D01*
X5553830Y3156600D01*
X5696600Y3013830D01*
X5864480Y2901656D01*
X6051018Y2824390D01*
X6249046Y2785000D01*
X6450954Y2785000D01*
X6648982Y2824390D01*
X6835520Y2901656D01*
X7003400Y3013830D01*
X7146170Y3156600D01*
X7258344Y3324480D01*
X7335610Y3511018D01*
X7375000Y3709046D01*
X7375000Y3910954D01*
X7865000Y3910954D01*
X7865000Y3709046D01*
X7904390Y3511018D01*
X7981656Y3324480D01*
X8093830Y3156600D01*
X8236600Y3013830D01*
X8404480Y2901656D01*
X8591018Y2824390D01*
X8789046Y2785000D01*
X8990954Y2785000D01*
X9188982Y2824390D01*
X9375520Y2901656D01*
X9543400Y3013830D01*
X9686170Y3156600D01*
X9798344Y3324480D01*
X9875610Y3511018D01*
X9915000Y3709046D01*
X9915000Y3910954D01*
X10405000Y3910954D01*
X10405000Y3709046D01*
X10444390Y3511018D01*
X10521656Y3324480D01*
X10633830Y3156600D01*
X10776600Y3013830D01*
X10944480Y2901656D01*
X11131018Y2824390D01*
X11329046Y2785000D01*
X11530954Y2785000D01*
X11728982Y2824390D01*
X11915520Y2901656D01*
X12083400Y3013830D01*
X12226170Y3156600D01*
X12338344Y3324480D01*
X12415610Y3511018D01*
X12455000Y3709046D01*
X12455000Y3910954D01*
X12945000Y3910954D01*
X12945000Y3709046D01*
X12984390Y3511018D01*
X13061656Y3324480D01*
X13173830Y3156600D01*
X13316600Y3013830D01*
X13484480Y2901656D01*
X13671018Y2824390D01*
X13869046Y2785000D01*
X14070954Y2785000D01*
X14268982Y2824390D01*
X14455520Y2901656D01*
X14623400Y3013830D01*
X14766170Y3156600D01*
X14878344Y3324480D01*
X14955610Y3511018D01*
X14995000Y3709046D01*
X14995000Y3910954D01*
X14955610Y4108982D01*
X14878344Y4295520D01*
X14766170Y4463400D01*
X14623400Y4606170D01*
X14455520Y4718344D01*
X14268982Y4795610D01*
X14070954Y4835000D01*
X13869046Y4835000D01*
X13671018Y4795610D01*
X13484480Y4718344D01*
X13316600Y4606170D01*
X13173830Y4463400D01*
X13061656Y4295520D01*
X12984390Y4108982D01*
X12945000Y3910954D01*
X12455000Y3910954D01*
X12415610Y4108982D01*
X12338344Y4295520D01*
X12226170Y4463400D01*
X12083400Y4606170D01*
X11915520Y4718344D01*
X11728982Y4795610D01*
X11530954Y4835000D01*
X11329046Y4835000D01*
X11131018Y4795610D01*
X10944480Y4718344D01*
X10776600Y4606170D01*
X10633830Y4463400D01*
X10521656Y4295520D01*
X10444390Y4108982D01*
X10405000Y3910954D01*
X9915000Y3910954D01*
X9875610Y4108982D01*
X9798344Y4295520D01*
X9686170Y4463400D01*
X9543400Y4606170D01*
X9375520Y4718344D01*
X9188982Y4795610D01*
X8990954Y4835000D01*
X8789046Y4835000D01*
X8591018Y4795610D01*
X8404480Y4718344D01*
X8236600Y4606170D01*
X8093830Y4463400D01*
X7981656Y4295520D01*
X7904390Y4108982D01*
X7865000Y3910954D01*
X7375000Y3910954D01*
X7335610Y4108982D01*
X7258344Y4295520D01*
X7146170Y4463400D01*
X7003400Y4606170D01*
X6835520Y4718344D01*
X6648982Y4795610D01*
X6530091Y4819259D01*
X6546858Y4830462D01*
X6609538Y4893142D01*
X6658785Y4966845D01*
X6692706Y5048740D01*
X6710000Y5135679D01*
X6710000Y5224321D01*
X6692706Y5311260D01*
X6658785Y5393155D01*
X6609538Y5466858D01*
X6546858Y5529538D01*
X6473155Y5578785D01*
X6391260Y5612706D01*
X6304321Y5630000D01*
X6215679Y5630000D01*
X6128740Y5612706D01*
X6046845Y5578785D01*
X5973142Y5529538D01*
X5910462Y5466858D01*
X5861215Y5393155D01*
X5827294Y5311260D01*
X5810000Y5224321D01*
X5810000Y5135679D01*
X5827294Y5048740D01*
X5861215Y4966845D01*
X5910462Y4893142D01*
X5973142Y4830462D01*
X6035143Y4789034D01*
X5864480Y4718344D01*
X5696600Y4606170D01*
X5553830Y4463400D01*
X5441656Y4295520D01*
X5364390Y4108982D01*
X5325000Y3910954D01*
X4835000Y3910954D01*
X4795610Y4108982D01*
X4718344Y4295520D01*
X4606170Y4463400D01*
X4463400Y4606170D01*
X4295520Y4718344D01*
X4108982Y4795610D01*
X3910954Y4835000D01*
X3709046Y4835000D01*
X3511018Y4795610D01*
X3324480Y4718344D01*
X3156600Y4606170D01*
X3013830Y4463400D01*
X2901656Y4295520D01*
X2824390Y4108982D01*
X2785000Y3910954D01*
X2295000Y3910954D01*
X2255610Y4108982D01*
X2178344Y4295520D01*
X2066170Y4463400D01*
X1923400Y4606170D01*
X1755520Y4718344D01*
X1568982Y4795610D01*
X1370954Y4835000D01*
X1169046Y4835000D01*
X971018Y4795610D01*
X784480Y4718344D01*
X616600Y4606170D01*
X475000Y4464570D01*
X475000Y5695430D01*
X616600Y5553830D01*
X784480Y5441656D01*
X971018Y5364390D01*
X1169046Y5325000D01*
X1370954Y5325000D01*
X1568982Y5364390D01*
X1755520Y5441656D01*
X1923400Y5553830D01*
X2066170Y5696600D01*
X2178344Y5864480D01*
X2255610Y6051018D01*
X2295000Y6249046D01*
X2295000Y6450954D01*
X2294331Y6454321D01*
X4620000Y6454321D01*
X4620000Y6365679D01*
X4637294Y6278740D01*
X4671215Y6196845D01*
X4720462Y6123142D01*
X4783142Y6060462D01*
X4856845Y6011215D01*
X4938740Y5977294D01*
X5025679Y5960000D01*
X5114321Y5960000D01*
X5201260Y5977294D01*
X5283155Y6011215D01*
X5356858Y6060462D01*
X5419538Y6123142D01*
X5468785Y6196845D01*
X5502706Y6278740D01*
X5520000Y6365679D01*
X5520000Y6454321D01*
X5502706Y6541260D01*
X5468785Y6623155D01*
X5419538Y6696858D01*
X5356858Y6759538D01*
X5283155Y6808785D01*
X5201260Y6842706D01*
X5114321Y6860000D01*
X5025679Y6860000D01*
X4938740Y6842706D01*
X4856845Y6808785D01*
X4783142Y6759538D01*
X4720462Y6696858D01*
X4671215Y6623155D01*
X4637294Y6541260D01*
X4620000Y6454321D01*
X2294331Y6454321D01*
X2255610Y6648982D01*
X2178344Y6835520D01*
X2066170Y7003400D01*
X1923400Y7146170D01*
X1755520Y7258344D01*
X1568982Y7335610D01*
X1370954Y7375000D01*
X1169046Y7375000D01*
X971018Y7335610D01*
X784480Y7258344D01*
X616600Y7146170D01*
X475000Y7004570D01*
X475000Y7404321D01*
X8440000Y7404321D01*
X8440000Y7315679D01*
X8457294Y7228740D01*
X8491215Y7146845D01*
X8540462Y7073142D01*
X8603142Y7010462D01*
X8676845Y6961215D01*
X8758740Y6927294D01*
X8845679Y6910000D01*
X8934321Y6910000D01*
X9021260Y6927294D01*
X9103155Y6961215D01*
X9176858Y7010462D01*
X9239538Y7073142D01*
X9288785Y7146845D01*
X9322706Y7228740D01*
X9340000Y7315679D01*
X9340000Y7404321D01*
X9322706Y7491260D01*
X9288785Y7573155D01*
X9239538Y7646858D01*
X9176858Y7709538D01*
X9103155Y7758785D01*
X9021260Y7792706D01*
X8934321Y7810000D01*
X8845679Y7810000D01*
X8758740Y7792706D01*
X8676845Y7758785D01*
X8603142Y7709538D01*
X8540462Y7646858D01*
X8491215Y7573155D01*
X8457294Y7491260D01*
X8440000Y7404321D01*
X475000Y7404321D01*
X475000Y8235430D01*
X616600Y8093830D01*
X784480Y7981656D01*
X971018Y7904390D01*
X1169046Y7865000D01*
X1370954Y7865000D01*
X1568982Y7904390D01*
X1755520Y7981656D01*
X1923400Y8093830D01*
X2066170Y8236600D01*
X2178237Y8404321D01*
X11960000Y8404321D01*
X11960000Y8315679D01*
X11977294Y8228740D01*
X12011215Y8146845D01*
X12060462Y8073142D01*
X12123142Y8010462D01*
X12196845Y7961215D01*
X12278740Y7927294D01*
X12365679Y7910000D01*
X12454321Y7910000D01*
X12541260Y7927294D01*
X12623155Y7961215D01*
X12696858Y8010462D01*
X12759538Y8073142D01*
X12808785Y8146845D01*
X12842706Y8228740D01*
X12860000Y8315679D01*
X12860000Y8404321D01*
X12842706Y8491260D01*
X12808785Y8573155D01*
X12759538Y8646858D01*
X12696858Y8709538D01*
X12623155Y8758785D01*
X12541260Y8792706D01*
X12454321Y8810000D01*
X12365679Y8810000D01*
X12278740Y8792706D01*
X12196845Y8758785D01*
X12123142Y8709538D01*
X12060462Y8646858D01*
X12011215Y8573155D01*
X11977294Y8491260D01*
X11960000Y8404321D01*
X2178237Y8404321D01*
X2178344Y8404480D01*
X2255610Y8591018D01*
X2295000Y8789046D01*
X2295000Y8990954D01*
X2255610Y9188982D01*
X2178344Y9375520D01*
X2159100Y9404321D01*
X8440000Y9404321D01*
X8440000Y9315679D01*
X8457294Y9228740D01*
X8491215Y9146845D01*
X8540462Y9073142D01*
X8603142Y9010462D01*
X8676845Y8961215D01*
X8758740Y8927294D01*
X8845679Y8910000D01*
X8934321Y8910000D01*
X9021260Y8927294D01*
X9103155Y8961215D01*
X9176858Y9010462D01*
X9239538Y9073142D01*
X9240325Y9074321D01*
X13360000Y9074321D01*
X13360000Y8985679D01*
X13377294Y8898740D01*
X13411215Y8816845D01*
X13460462Y8743142D01*
X13523142Y8680462D01*
X13596845Y8631215D01*
X13678740Y8597294D01*
X13765679Y8580000D01*
X13854321Y8580000D01*
X13887816Y8586663D01*
X13877294Y8561260D01*
X13860000Y8474321D01*
X13860000Y8385679D01*
X13877294Y8298740D01*
X13911215Y8216845D01*
X13960462Y8143142D01*
X14023142Y8080462D01*
X14023833Y8080000D01*
X14023142Y8079538D01*
X13960462Y8016858D01*
X13911215Y7943155D01*
X13877294Y7861260D01*
X13860000Y7774321D01*
X13860000Y7685679D01*
X13877294Y7598740D01*
X13887816Y7573337D01*
X13854321Y7580000D01*
X13765679Y7580000D01*
X13678740Y7562706D01*
X13596845Y7528785D01*
X13523142Y7479538D01*
X13460462Y7416858D01*
X13411215Y7343155D01*
X13377294Y7261260D01*
X13360000Y7174321D01*
X13360000Y7085679D01*
X13377294Y6998740D01*
X13411215Y6916845D01*
X13460462Y6843142D01*
X13523142Y6780462D01*
X13596845Y6731215D01*
X13678740Y6697294D01*
X13765679Y6680000D01*
X13854321Y6680000D01*
X13941260Y6697294D01*
X14023155Y6731215D01*
X14096858Y6780462D01*
X14159538Y6843142D01*
X14208785Y6916845D01*
X14242706Y6998740D01*
X14260000Y7085679D01*
X14260000Y7174321D01*
X14242706Y7261260D01*
X14232184Y7286663D01*
X14265679Y7280000D01*
X14354321Y7280000D01*
X14441260Y7297294D01*
X14523155Y7331215D01*
X14596858Y7380462D01*
X14659538Y7443142D01*
X14708785Y7516845D01*
X14742706Y7598740D01*
X14760000Y7685679D01*
X14760000Y7774321D01*
X14742706Y7861260D01*
X14708785Y7943155D01*
X14659538Y8016858D01*
X14596858Y8079538D01*
X14596167Y8080000D01*
X14596858Y8080462D01*
X14659538Y8143142D01*
X14708785Y8216845D01*
X14742706Y8298740D01*
X14760000Y8385679D01*
X14760000Y8474321D01*
X14742706Y8561260D01*
X14708785Y8643155D01*
X14659538Y8716858D01*
X14596858Y8779538D01*
X14523155Y8828785D01*
X14441260Y8862706D01*
X14354321Y8880000D01*
X14265679Y8880000D01*
X14232184Y8873337D01*
X14242706Y8898740D01*
X14260000Y8985679D01*
X14260000Y9074321D01*
X14242706Y9161260D01*
X14208785Y9243155D01*
X14159538Y9316858D01*
X14096858Y9379538D01*
X14023155Y9428785D01*
X13941260Y9462706D01*
X13854321Y9480000D01*
X13765679Y9480000D01*
X13678740Y9462706D01*
X13596845Y9428785D01*
X13523142Y9379538D01*
X13460462Y9316858D01*
X13411215Y9243155D01*
X13377294Y9161260D01*
X13360000Y9074321D01*
X9240325Y9074321D01*
X9288785Y9146845D01*
X9322706Y9228740D01*
X9340000Y9315679D01*
X9340000Y9404321D01*
X9322706Y9491260D01*
X9288785Y9573155D01*
X9239538Y9646858D01*
X9176858Y9709538D01*
X9103155Y9758785D01*
X9021260Y9792706D01*
X8934321Y9810000D01*
X8845679Y9810000D01*
X8758740Y9792706D01*
X8676845Y9758785D01*
X8603142Y9709538D01*
X8540462Y9646858D01*
X8491215Y9573155D01*
X8457294Y9491260D01*
X8440000Y9404321D01*
X2159100Y9404321D01*
X2066170Y9543400D01*
X1923400Y9686170D01*
X1755520Y9798344D01*
X1568982Y9875610D01*
X1370954Y9915000D01*
X1169046Y9915000D01*
X971018Y9875610D01*
X784480Y9798344D01*
X616600Y9686170D01*
X475000Y9544570D01*
X475000Y10775430D01*
X616600Y10633830D01*
X784480Y10521656D01*
X971018Y10444390D01*
X1169046Y10405000D01*
X1370954Y10405000D01*
X1568982Y10444390D01*
X1755520Y10521656D01*
X1923400Y10633830D01*
X2066170Y10776600D01*
X2178344Y10944480D01*
X2255610Y11131018D01*
X2295000Y11329046D01*
X2295000Y11530954D01*
X2255610Y11728982D01*
X2178344Y11915520D01*
X2066170Y12083400D01*
X1923400Y12226170D01*
X1755520Y12338344D01*
X1568982Y12415610D01*
X1370954Y12455000D01*
X1169046Y12455000D01*
X971018Y12415610D01*
X784480Y12338344D01*
X616600Y12226170D01*
X475000Y12084570D01*
X475000Y13315430D01*
X616600Y13173830D01*
X784480Y13061656D01*
X971018Y12984390D01*
X1169046Y12945000D01*
X1370954Y12945000D01*
X1568982Y12984390D01*
X1755520Y13061656D01*
X1774474Y13074321D01*
X2520000Y13074321D01*
X2520000Y12985679D01*
X2537294Y12898740D01*
X2571215Y12816845D01*
X2620462Y12743142D01*
X2638604Y12725000D01*
X2620462Y12706858D01*
X2571215Y12633155D01*
X2537294Y12551260D01*
X2520000Y12464321D01*
X2520000Y12375679D01*
X2537294Y12288740D01*
X2571215Y12206845D01*
X2620462Y12133142D01*
X2638604Y12115000D01*
X2620462Y12096858D01*
X2571215Y12023155D01*
X2537294Y11941260D01*
X2520000Y11854321D01*
X2520000Y11765679D01*
X2537294Y11678740D01*
X2571215Y11596845D01*
X2620462Y11523142D01*
X2683142Y11460462D01*
X2756845Y11411215D01*
X2838740Y11377294D01*
X2925679Y11360000D01*
X3014321Y11360000D01*
X3101260Y11377294D01*
X3183155Y11411215D01*
X3256858Y11460462D01*
X3319538Y11523142D01*
X3368785Y11596845D01*
X3402706Y11678740D01*
X3420000Y11765679D01*
X3420000Y11854321D01*
X3402706Y11941260D01*
X3368785Y12023155D01*
X3319538Y12096858D01*
X3301396Y12115000D01*
X3319538Y12133142D01*
X3368785Y12206845D01*
X3402706Y12288740D01*
X3420000Y12375679D01*
X3420000Y12464321D01*
X3402706Y12551260D01*
X3368785Y12633155D01*
X3319538Y12706858D01*
X3301396Y12725000D01*
X3319538Y12743142D01*
X3368785Y12816845D01*
X3402706Y12898740D01*
X3420000Y12985679D01*
X3420000Y13074321D01*
X3402706Y13161260D01*
X3368785Y13243155D01*
X3319538Y13316858D01*
X3256858Y13379538D01*
X3183155Y13428785D01*
X3101260Y13462706D01*
X3014321Y13480000D01*
X2925679Y13480000D01*
X2838740Y13462706D01*
X2756845Y13428785D01*
X2683142Y13379538D01*
X2620462Y13316858D01*
X2571215Y13243155D01*
X2537294Y13161260D01*
X2520000Y13074321D01*
X1774474Y13074321D01*
X1923400Y13173830D01*
X2066170Y13316600D01*
X2178344Y13484480D01*
X2255610Y13671018D01*
X2295000Y13869046D01*
X2295000Y14070954D01*
X2255610Y14268982D01*
X2178344Y14455520D01*
X2066170Y14623400D01*
X1923400Y14766170D01*
X1755520Y14878344D01*
X1568982Y14955610D01*
X1370954Y14995000D01*
X1169046Y14995000D01*
X971018Y14955610D01*
X784480Y14878344D01*
X616600Y14766170D01*
X475000Y14624570D01*
X475000Y15284321D01*
X2930000Y15284321D01*
X2930000Y15195679D01*
X2947294Y15108740D01*
X2981215Y15026845D01*
X3030462Y14953142D01*
X3093142Y14890462D01*
X3166845Y14841215D01*
X3248740Y14807294D01*
X3335679Y14790000D01*
X3424321Y14790000D01*
X3511260Y14807294D01*
X3593155Y14841215D01*
X3666858Y14890462D01*
X3729538Y14953142D01*
X3778785Y15026845D01*
X3812706Y15108740D01*
X3828870Y15190000D01*
X3884321Y15190000D01*
X3971260Y15207294D01*
X4041772Y15236500D01*
X4047294Y15208740D01*
X4081215Y15126845D01*
X4130462Y15053142D01*
X4193142Y14990462D01*
X4266845Y14941215D01*
X4348740Y14907294D01*
X4435679Y14890000D01*
X4524321Y14890000D01*
X4611260Y14907294D01*
X4693155Y14941215D01*
X4724456Y14962130D01*
X4730462Y14953142D01*
X4793142Y14890462D01*
X4866845Y14841215D01*
X4910509Y14823129D01*
X4856477Y14769097D01*
X4844079Y14758922D01*
X4803465Y14709435D01*
X4797773Y14698785D01*
X4773286Y14652974D01*
X4754702Y14591712D01*
X4748428Y14528001D01*
X4750000Y14512038D01*
X4749999Y14047953D01*
X4748428Y14031999D01*
X4749999Y14016046D01*
X4749999Y14016039D01*
X4753668Y13978785D01*
X4754702Y13968288D01*
X4760110Y13950462D01*
X4773286Y13907026D01*
X4803464Y13850566D01*
X4844078Y13801078D01*
X4856482Y13790898D01*
X7261721Y11385657D01*
X7196845Y11358785D01*
X7123142Y11309538D01*
X7105000Y11291396D01*
X7096858Y11299538D01*
X7023155Y11348785D01*
X6941260Y11382706D01*
X6854321Y11400000D01*
X6765679Y11400000D01*
X6678740Y11382706D01*
X6596845Y11348785D01*
X6523142Y11299538D01*
X6460462Y11236858D01*
X6411215Y11163155D01*
X6377294Y11081260D01*
X6360000Y10994321D01*
X6360000Y10905679D01*
X6377294Y10818740D01*
X6411215Y10736845D01*
X6460462Y10663142D01*
X6523142Y10600462D01*
X6596845Y10551215D01*
X6678740Y10517294D01*
X6765679Y10500000D01*
X6854321Y10500000D01*
X6941260Y10517294D01*
X7023155Y10551215D01*
X7096858Y10600462D01*
X7115000Y10618604D01*
X7123142Y10610462D01*
X7196845Y10561215D01*
X7278740Y10527294D01*
X7365679Y10510000D01*
X7454321Y10510000D01*
X7541260Y10527294D01*
X7623155Y10561215D01*
X7696858Y10610462D01*
X7759538Y10673142D01*
X7808785Y10746845D01*
X7842706Y10828740D01*
X7852903Y10880000D01*
X7934321Y10880000D01*
X8021260Y10897294D01*
X8103155Y10931215D01*
X8176858Y10980462D01*
X8200717Y11004321D01*
X8900000Y11004321D01*
X8900000Y10915679D01*
X8917294Y10828740D01*
X8951215Y10746845D01*
X9000462Y10673142D01*
X9063142Y10610462D01*
X9136845Y10561215D01*
X9218740Y10527294D01*
X9305679Y10510000D01*
X9394321Y10510000D01*
X9481260Y10527294D01*
X9563155Y10561215D01*
X9636858Y10610462D01*
X9699538Y10673142D01*
X9748785Y10746845D01*
X9782706Y10828740D01*
X9796881Y10900000D01*
X9854321Y10900000D01*
X9941260Y10917294D01*
X10023155Y10951215D01*
X10096858Y11000462D01*
X10110000Y11013604D01*
X10123142Y11000462D01*
X10196845Y10951215D01*
X10278740Y10917294D01*
X10365679Y10900000D01*
X10454321Y10900000D01*
X10541260Y10917294D01*
X10623155Y10951215D01*
X10696858Y11000462D01*
X10759538Y11063142D01*
X10808785Y11136845D01*
X10842706Y11218740D01*
X10860000Y11305679D01*
X10860000Y11394321D01*
X10842706Y11481260D01*
X10808785Y11563155D01*
X10759538Y11636858D01*
X10696858Y11699538D01*
X10623155Y11748785D01*
X10541260Y11782706D01*
X10454321Y11800000D01*
X10365679Y11800000D01*
X10278740Y11782706D01*
X10196845Y11748785D01*
X10123142Y11699538D01*
X10110000Y11686396D01*
X10096858Y11699538D01*
X10023155Y11748785D01*
X9941260Y11782706D01*
X9854321Y11800000D01*
X9765679Y11800000D01*
X9678740Y11782706D01*
X9596845Y11748785D01*
X9523142Y11699538D01*
X9460462Y11636858D01*
X9411215Y11563155D01*
X9377294Y11481260D01*
X9363119Y11410000D01*
X9305679Y11410000D01*
X9218740Y11392706D01*
X9136845Y11358785D01*
X9063142Y11309538D01*
X9000462Y11246858D01*
X8951215Y11173155D01*
X8917294Y11091260D01*
X8900000Y11004321D01*
X8200717Y11004321D01*
X8239538Y11043142D01*
X8288785Y11116845D01*
X8322706Y11198740D01*
X8340000Y11285679D01*
X8340000Y11374321D01*
X8322706Y11461260D01*
X8288785Y11543155D01*
X8239538Y11616858D01*
X8176858Y11679538D01*
X8103155Y11728785D01*
X8021260Y11762706D01*
X7934321Y11780000D01*
X7845679Y11780000D01*
X7796417Y11770201D01*
X6822297Y12744321D01*
X15290000Y12744321D01*
X15290000Y12655679D01*
X15307294Y12568740D01*
X15341215Y12486845D01*
X15390462Y12413142D01*
X15453142Y12350462D01*
X15526845Y12301215D01*
X15608740Y12267294D01*
X15695679Y12250000D01*
X15784321Y12250000D01*
X15871260Y12267294D01*
X15953155Y12301215D01*
X16026858Y12350462D01*
X16089538Y12413142D01*
X16138785Y12486845D01*
X16172706Y12568740D01*
X16190000Y12655679D01*
X16190000Y12744321D01*
X16172706Y12831260D01*
X16138785Y12913155D01*
X16089538Y12986858D01*
X16026858Y13049538D01*
X15953155Y13098785D01*
X15871260Y13132706D01*
X15784321Y13150000D01*
X15695679Y13150000D01*
X15608740Y13132706D01*
X15526845Y13098785D01*
X15453142Y13049538D01*
X15390462Y12986858D01*
X15341215Y12913155D01*
X15307294Y12831260D01*
X15290000Y12744321D01*
X6822297Y12744321D01*
X6402317Y13164300D01*
X6443155Y13181215D01*
X6516858Y13230462D01*
X6579538Y13293142D01*
X6628785Y13366845D01*
X6662706Y13448740D01*
X6680000Y13535679D01*
X6680000Y13624321D01*
X6662706Y13711260D01*
X6628785Y13793155D01*
X6579538Y13866858D01*
X6516858Y13929538D01*
X6514783Y13930924D01*
X6538785Y13966845D01*
X6572706Y14048740D01*
X6590000Y14135679D01*
X6590000Y14137781D01*
X7402883Y13321160D01*
X7424976Y13301697D01*
X7528390Y13221976D01*
X7579211Y13192485D01*
X7699740Y13142257D01*
X7756466Y13126930D01*
X7885889Y13109622D01*
X7944646Y13109505D01*
X8074137Y13126296D01*
X8130925Y13141397D01*
X8251653Y13191144D01*
X8302591Y13220431D01*
X8406322Y13299739D01*
X8428492Y13319114D01*
X8975553Y13864321D01*
X10840000Y13864321D01*
X10840000Y13775679D01*
X10857294Y13688740D01*
X10891215Y13606845D01*
X10940462Y13533142D01*
X11003142Y13470462D01*
X11076845Y13421215D01*
X11158740Y13387294D01*
X11245679Y13370000D01*
X11334321Y13370000D01*
X11421260Y13387294D01*
X11503155Y13421215D01*
X11576858Y13470462D01*
X11639538Y13533142D01*
X11688785Y13606845D01*
X11722706Y13688740D01*
X11740000Y13775679D01*
X11740000Y13864321D01*
X11722706Y13951260D01*
X11688785Y14033155D01*
X11639538Y14106858D01*
X11576858Y14169538D01*
X11503155Y14218785D01*
X11421260Y14252706D01*
X11334321Y14270000D01*
X11245679Y14270000D01*
X11158740Y14252706D01*
X11076845Y14218785D01*
X11003142Y14169538D01*
X10940462Y14106858D01*
X10891215Y14033155D01*
X10857294Y13951260D01*
X10840000Y13864321D01*
X8975553Y13864321D01*
X9447152Y14334321D01*
X11780000Y14334321D01*
X11780000Y14245679D01*
X11797294Y14158740D01*
X11831215Y14076845D01*
X11880462Y14003142D01*
X11943142Y13940462D01*
X12016845Y13891215D01*
X12098740Y13857294D01*
X12185679Y13840000D01*
X12274321Y13840000D01*
X12361260Y13857294D01*
X12443155Y13891215D01*
X12516858Y13940462D01*
X12579538Y14003142D01*
X12628785Y14076845D01*
X12662706Y14158740D01*
X12680000Y14245679D01*
X12680000Y14334321D01*
X12662706Y14421260D01*
X12628785Y14503155D01*
X12618663Y14518304D01*
X12636858Y14530462D01*
X12699538Y14593142D01*
X12711696Y14611337D01*
X12726845Y14601215D01*
X12808740Y14567294D01*
X12895679Y14550000D01*
X12984321Y14550000D01*
X13071260Y14567294D01*
X13153155Y14601215D01*
X13226858Y14650462D01*
X13289538Y14713142D01*
X13298630Y14726749D01*
X13336845Y14701215D01*
X13418740Y14667294D01*
X13505679Y14650000D01*
X13594321Y14650000D01*
X13681260Y14667294D01*
X13763155Y14701215D01*
X13836858Y14750462D01*
X13899538Y14813142D01*
X13948785Y14886845D01*
X13982706Y14968740D01*
X14000000Y15055679D01*
X14000000Y15144321D01*
X13982706Y15231260D01*
X13948785Y15313155D01*
X13927870Y15344456D01*
X13936858Y15350462D01*
X13999538Y15413142D01*
X14048785Y15486845D01*
X14082706Y15568740D01*
X14100000Y15655679D01*
X14100000Y15744321D01*
X14082706Y15831260D01*
X14048785Y15913155D01*
X14035576Y15932924D01*
X14046858Y15940462D01*
X14109538Y16003142D01*
X14158785Y16076845D01*
X14192706Y16158740D01*
X14210000Y16245679D01*
X14210000Y16334321D01*
X14192706Y16421260D01*
X14158785Y16503155D01*
X14109538Y16576858D01*
X14046858Y16639538D01*
X13973155Y16688785D01*
X13891260Y16722706D01*
X13804321Y16740000D01*
X13715679Y16740000D01*
X13628740Y16722706D01*
X13546845Y16688785D01*
X13473142Y16639538D01*
X13410462Y16576858D01*
X13361215Y16503155D01*
X13327294Y16421260D01*
X13310000Y16334321D01*
X13310000Y16245679D01*
X13327294Y16158740D01*
X13361215Y16076845D01*
X13374424Y16057076D01*
X13363142Y16049538D01*
X13300462Y15986858D01*
X13292924Y15975576D01*
X13273155Y15988785D01*
X13191260Y16022706D01*
X13104321Y16040000D01*
X13015679Y16040000D01*
X12928740Y16022706D01*
X12846845Y15988785D01*
X12773142Y15939538D01*
X12710462Y15876858D01*
X12661215Y15803155D01*
X12627294Y15721260D01*
X12610000Y15634321D01*
X12610000Y15545679D01*
X12627294Y15458740D01*
X12661215Y15376845D01*
X12671337Y15361696D01*
X12653142Y15349538D01*
X12590462Y15286858D01*
X12578304Y15268663D01*
X12563155Y15278785D01*
X12481260Y15312706D01*
X12394321Y15330000D01*
X12305679Y15330000D01*
X12218740Y15312706D01*
X12136845Y15278785D01*
X12063142Y15229538D01*
X12000462Y15166858D01*
X11951215Y15093155D01*
X11917294Y15011260D01*
X11900000Y14924321D01*
X11900000Y14835679D01*
X11917294Y14748740D01*
X11951215Y14666845D01*
X11961337Y14651696D01*
X11943142Y14639538D01*
X11880462Y14576858D01*
X11831215Y14503155D01*
X11797294Y14421260D01*
X11780000Y14334321D01*
X9447152Y14334321D01*
X13621901Y18494914D01*
X13641433Y18517124D01*
X13721394Y18621105D01*
X13750928Y18672213D01*
X13801094Y18793411D01*
X13816319Y18850439D01*
X13833239Y18980515D01*
X13833109Y19039544D01*
X13815616Y19169543D01*
X13800139Y19226504D01*
X13794881Y19239050D01*
X13856858Y19280462D01*
X13919538Y19343142D01*
X13968785Y19416845D01*
X14002706Y19498740D01*
X14020000Y19585679D01*
X14020000Y19674321D01*
X14002706Y19761260D01*
X13968785Y19843155D01*
X13919538Y19916858D01*
X13856858Y19979538D01*
X13783155Y20028785D01*
X13701260Y20062706D01*
X13614321Y20080000D01*
X13525679Y20080000D01*
X13438740Y20062706D01*
X13428937Y20058646D01*
X13418785Y20083155D01*
X13369538Y20156858D01*
X13308146Y20218250D01*
X13358740Y20197294D01*
X13445679Y20180000D01*
X13534321Y20180000D01*
X13621260Y20197294D01*
X13703155Y20231215D01*
X13776858Y20280462D01*
X13839538Y20343142D01*
X13853689Y20364321D01*
X15290000Y20364321D01*
X15290000Y20275679D01*
X15307294Y20188740D01*
X15341215Y20106845D01*
X15390462Y20033142D01*
X15453142Y19970462D01*
X15526845Y19921215D01*
X15608740Y19887294D01*
X15695679Y19870000D01*
X15784321Y19870000D01*
X15871260Y19887294D01*
X15953155Y19921215D01*
X16026858Y19970462D01*
X16089538Y20033142D01*
X16138785Y20106845D01*
X16172706Y20188740D01*
X16190000Y20275679D01*
X16190000Y20364321D01*
X16172706Y20451260D01*
X16138785Y20533155D01*
X16089538Y20606858D01*
X16026858Y20669538D01*
X15953155Y20718785D01*
X15871260Y20752706D01*
X15784321Y20770000D01*
X15695679Y20770000D01*
X15608740Y20752706D01*
X15526845Y20718785D01*
X15453142Y20669538D01*
X15390462Y20606858D01*
X15341215Y20533155D01*
X15307294Y20451260D01*
X15290000Y20364321D01*
X13853689Y20364321D01*
X13888785Y20416845D01*
X13922706Y20498740D01*
X13940000Y20585679D01*
X13940000Y20674321D01*
X13922706Y20761260D01*
X13888785Y20843155D01*
X13839538Y20916858D01*
X13776858Y20979538D01*
X13703155Y21028785D01*
X13645478Y21052675D01*
X13660000Y21125679D01*
X13660000Y21214321D01*
X13642706Y21301260D01*
X13608785Y21383155D01*
X13559538Y21456858D01*
X13496858Y21519538D01*
X13423155Y21568785D01*
X13341260Y21602706D01*
X13254321Y21620000D01*
X13165679Y21620000D01*
X13078740Y21602706D01*
X12996845Y21568785D01*
X12923142Y21519538D01*
X12860462Y21456858D01*
X12811215Y21383155D01*
X12777294Y21301260D01*
X12760000Y21214321D01*
X12760000Y21125679D01*
X12777294Y21038740D01*
X12811215Y20956845D01*
X12848522Y20901011D01*
X12821317Y20878685D01*
X12810353Y20865325D01*
X12646182Y20701154D01*
X12628785Y20743155D01*
X12579538Y20816858D01*
X12516858Y20879538D01*
X12443155Y20928785D01*
X12361260Y20962706D01*
X12274321Y20980000D01*
X12210000Y20980000D01*
X12210000Y21014321D01*
X12192706Y21101260D01*
X12158785Y21183155D01*
X12109538Y21256858D01*
X12046858Y21319538D01*
X11973155Y21368785D01*
X11891260Y21402706D01*
X11804321Y21420000D01*
X11715679Y21420000D01*
X11703087Y21417495D01*
X10977455Y22134321D01*
X13830000Y22134321D01*
X13830000Y22045679D01*
X13847294Y21958740D01*
X13881215Y21876845D01*
X13930462Y21803142D01*
X13993142Y21740462D01*
X14066845Y21691215D01*
X14148740Y21657294D01*
X14235679Y21640000D01*
X14324321Y21640000D01*
X14411260Y21657294D01*
X14493155Y21691215D01*
X14566858Y21740462D01*
X14629538Y21803142D01*
X14678785Y21876845D01*
X14712706Y21958740D01*
X14730000Y22045679D01*
X14730000Y22134321D01*
X14712706Y22221260D01*
X14678785Y22303155D01*
X14629538Y22376858D01*
X14566858Y22439538D01*
X14493155Y22488785D01*
X14411260Y22522706D01*
X14324321Y22540000D01*
X14235679Y22540000D01*
X14148740Y22522706D01*
X14066845Y22488785D01*
X13993142Y22439538D01*
X13930462Y22376858D01*
X13881215Y22303155D01*
X13847294Y22221260D01*
X13830000Y22134321D01*
X10977455Y22134321D01*
X10140009Y22961604D01*
X10113785Y22983820D01*
X10011828Y23057597D01*
X9991128Y23070914D01*
X9950831Y23088850D01*
X9831394Y23128509D01*
X9807646Y23134976D01*
X9763819Y23139948D01*
X9637983Y23141810D01*
X9613389Y23140828D01*
X9570099Y23132375D01*
X9449540Y23096267D01*
X9426383Y23087926D01*
X9387646Y23066833D01*
X9283803Y22996277D01*
X9209074Y22945650D01*
X9156054Y22930004D01*
X9100787Y22931196D01*
X9074914Y22940060D01*
X8290653Y23724321D01*
X11400000Y23724321D01*
X11400000Y23635679D01*
X11417294Y23548740D01*
X11451215Y23466845D01*
X11500462Y23393142D01*
X11563142Y23330462D01*
X11636845Y23281215D01*
X11700136Y23255000D01*
X11636845Y23228785D01*
X11563142Y23179538D01*
X11500462Y23116858D01*
X11451215Y23043155D01*
X11417294Y22961260D01*
X11400000Y22874321D01*
X11400000Y22785679D01*
X11417294Y22698740D01*
X11451215Y22616845D01*
X11500462Y22543142D01*
X11563142Y22480462D01*
X11636845Y22431215D01*
X11718740Y22397294D01*
X11805679Y22380000D01*
X11894321Y22380000D01*
X11981260Y22397294D01*
X12063155Y22431215D01*
X12136858Y22480462D01*
X12199538Y22543142D01*
X12248785Y22616845D01*
X12275000Y22680136D01*
X12301215Y22616845D01*
X12350462Y22543142D01*
X12413142Y22480462D01*
X12486845Y22431215D01*
X12568740Y22397294D01*
X12655679Y22380000D01*
X12744321Y22380000D01*
X12831260Y22397294D01*
X12913155Y22431215D01*
X12986858Y22480462D01*
X13049538Y22543142D01*
X13098785Y22616845D01*
X13132706Y22698740D01*
X13150000Y22785679D01*
X13150000Y22874321D01*
X13132706Y22961260D01*
X13098785Y23043155D01*
X13049538Y23116858D01*
X12986858Y23179538D01*
X12913155Y23228785D01*
X12861936Y23250000D01*
X12913155Y23271215D01*
X12986858Y23320462D01*
X13049538Y23383142D01*
X13098785Y23456845D01*
X13132706Y23538740D01*
X13150000Y23625679D01*
X13150000Y23714321D01*
X13132706Y23801260D01*
X13098785Y23883155D01*
X13049538Y23956858D01*
X12986858Y24019538D01*
X12913155Y24068785D01*
X12831260Y24102706D01*
X12744321Y24120000D01*
X12655679Y24120000D01*
X12568740Y24102706D01*
X12486845Y24068785D01*
X12413142Y24019538D01*
X12350462Y23956858D01*
X12301215Y23883155D01*
X12277071Y23824864D01*
X12248785Y23893155D01*
X12199538Y23966858D01*
X12136858Y24029538D01*
X12063155Y24078785D01*
X11981260Y24112706D01*
X11894321Y24130000D01*
X11805679Y24130000D01*
X11718740Y24112706D01*
X11636845Y24078785D01*
X11563142Y24029538D01*
X11500462Y23966858D01*
X11451215Y23893155D01*
X11417294Y23811260D01*
X11400000Y23724321D01*
X8290653Y23724321D01*
X7540653Y24474321D01*
X8010000Y24474321D01*
X8010000Y24385679D01*
X8027294Y24298740D01*
X8061215Y24216845D01*
X8110462Y24143142D01*
X8173142Y24080462D01*
X8246845Y24031215D01*
X8328740Y23997294D01*
X8415679Y23980000D01*
X8504321Y23980000D01*
X8591260Y23997294D01*
X8673155Y24031215D01*
X8746858Y24080462D01*
X8809538Y24143142D01*
X8858785Y24216845D01*
X8892706Y24298740D01*
X8910000Y24385679D01*
X8910000Y24474321D01*
X8892706Y24561260D01*
X8858785Y24643155D01*
X8809538Y24716858D01*
X8746858Y24779538D01*
X8673155Y24828785D01*
X8591260Y24862706D01*
X8504321Y24880000D01*
X8415679Y24880000D01*
X8328740Y24862706D01*
X8246845Y24828785D01*
X8173142Y24779538D01*
X8110462Y24716858D01*
X8061215Y24643155D01*
X8027294Y24561260D01*
X8010000Y24474321D01*
X7540653Y24474321D01*
X6600653Y25414321D01*
X8010000Y25414321D01*
X8010000Y25325679D01*
X8027294Y25238740D01*
X8061215Y25156845D01*
X8110462Y25083142D01*
X8173142Y25020462D01*
X8246845Y24971215D01*
X8328740Y24937294D01*
X8415679Y24920000D01*
X8504321Y24920000D01*
X8591260Y24937294D01*
X8673155Y24971215D01*
X8746858Y25020462D01*
X8809538Y25083142D01*
X8858785Y25156845D01*
X8892706Y25238740D01*
X8910000Y25325679D01*
X8910000Y25414321D01*
X8892706Y25501260D01*
X8858785Y25583155D01*
X8809538Y25656858D01*
X8746858Y25719538D01*
X8673155Y25768785D01*
X8591260Y25802706D01*
X8504321Y25820000D01*
X8415679Y25820000D01*
X8328740Y25802706D01*
X8246845Y25768785D01*
X8173142Y25719538D01*
X8110462Y25656858D01*
X8061215Y25583155D01*
X8027294Y25501260D01*
X8010000Y25414321D01*
X6600653Y25414321D01*
X6069654Y25945319D01*
X6058685Y25958685D01*
X6005390Y26002422D01*
X5944587Y26034922D01*
X5878612Y26054935D01*
X5837402Y26058994D01*
X5836858Y26059538D01*
X5763155Y26108785D01*
X5681260Y26142706D01*
X5594321Y26160000D01*
X5505679Y26160000D01*
X5418740Y26142706D01*
X5336845Y26108785D01*
X5263142Y26059538D01*
X5250000Y26046396D01*
X5236858Y26059538D01*
X5163155Y26108785D01*
X5081260Y26142706D01*
X4994321Y26160000D01*
X4905679Y26160000D01*
X4818740Y26142706D01*
X4736845Y26108785D01*
X4663142Y26059538D01*
X4650000Y26046396D01*
X4636858Y26059538D01*
X4563155Y26108785D01*
X4481260Y26142706D01*
X4394321Y26160000D01*
X4305679Y26160000D01*
X4218740Y26142706D01*
X4136845Y26108785D01*
X4063142Y26059538D01*
X4000462Y25996858D01*
X3951215Y25923155D01*
X3917294Y25841260D01*
X3900000Y25754321D01*
X3900000Y25665679D01*
X3917294Y25578740D01*
X3951215Y25496845D01*
X4000462Y25423142D01*
X4063142Y25360462D01*
X4136845Y25311215D01*
X4218740Y25277294D01*
X4305679Y25260000D01*
X4394321Y25260000D01*
X4481260Y25277294D01*
X4563155Y25311215D01*
X4636858Y25360462D01*
X4650000Y25373604D01*
X4663142Y25360462D01*
X4736845Y25311215D01*
X4818740Y25277294D01*
X4820420Y25276960D01*
X5080902Y25016477D01*
X5091078Y25004078D01*
X5140565Y24963464D01*
X5197025Y24933286D01*
X5258287Y24914702D01*
X5264361Y24914104D01*
X5306038Y24909999D01*
X5306045Y24909999D01*
X5321998Y24908428D01*
X5337951Y24909999D01*
X5583385Y24909999D01*
X6005634Y24487750D01*
X5994321Y24490000D01*
X5905679Y24490000D01*
X5818740Y24472706D01*
X5736845Y24438785D01*
X5663142Y24389538D01*
X5650000Y24376396D01*
X5636858Y24389538D01*
X5563155Y24438785D01*
X5481260Y24472706D01*
X5394321Y24490000D01*
X5305679Y24490000D01*
X5218740Y24472706D01*
X5136845Y24438785D01*
X5063142Y24389538D01*
X5050000Y24376396D01*
X5036858Y24389538D01*
X4963155Y24438785D01*
X4881260Y24472706D01*
X4794321Y24490000D01*
X4705679Y24490000D01*
X4618740Y24472706D01*
X4536845Y24438785D01*
X4463142Y24389538D01*
X4450000Y24376396D01*
X4436858Y24389538D01*
X4363155Y24438785D01*
X4281260Y24472706D01*
X4194321Y24490000D01*
X4105679Y24490000D01*
X4018740Y24472706D01*
X3936845Y24438785D01*
X3863142Y24389538D01*
X3850000Y24376396D01*
X3836858Y24389538D01*
X3763155Y24438785D01*
X3681260Y24472706D01*
X3594321Y24490000D01*
X3505679Y24490000D01*
X3418740Y24472706D01*
X3336845Y24438785D01*
X3263142Y24389538D01*
X3200462Y24326858D01*
X3151215Y24253155D01*
X3117294Y24171260D01*
X3100000Y24084321D01*
X3100000Y23995679D01*
X3117294Y23908740D01*
X3151215Y23826845D01*
X3200462Y23753142D01*
X3263142Y23690462D01*
X3336845Y23641215D01*
X3409324Y23611194D01*
X3400000Y23564321D01*
X3400000Y23475679D01*
X3417294Y23388740D01*
X3451215Y23306845D01*
X3500462Y23233142D01*
X3563142Y23170462D01*
X3636845Y23121215D01*
X3718740Y23087294D01*
X3805679Y23070000D01*
X3894321Y23070000D01*
X3981260Y23087294D01*
X4063155Y23121215D01*
X4136858Y23170462D01*
X4150000Y23183604D01*
X4163142Y23170462D01*
X4236845Y23121215D01*
X4318740Y23087294D01*
X4405679Y23070000D01*
X4494321Y23070000D01*
X4581260Y23087294D01*
X4663155Y23121215D01*
X4736858Y23170462D01*
X4750000Y23183604D01*
X4763142Y23170462D01*
X4836845Y23121215D01*
X4918740Y23087294D01*
X5005679Y23070000D01*
X5094321Y23070000D01*
X5181260Y23087294D01*
X5263155Y23121215D01*
X5336858Y23170462D01*
X5350000Y23183604D01*
X5363142Y23170462D01*
X5436845Y23121215D01*
X5518740Y23087294D01*
X5605679Y23070000D01*
X5694321Y23070000D01*
X5781260Y23087294D01*
X5863155Y23121215D01*
X5936858Y23170462D01*
X5999538Y23233142D01*
X6048785Y23306845D01*
X6082706Y23388740D01*
X6100000Y23475679D01*
X6100000Y23564321D01*
X6090676Y23611194D01*
X6163155Y23641215D01*
X6236858Y23690462D01*
X6299538Y23753142D01*
X6348785Y23826845D01*
X6382706Y23908740D01*
X6400000Y23995679D01*
X6400000Y24084321D01*
X6397750Y24095634D01*
X7677683Y22815700D01*
X7636845Y22798785D01*
X7563142Y22749538D01*
X7500462Y22686858D01*
X7451215Y22613155D01*
X7417294Y22531260D01*
X7400000Y22444321D01*
X7400000Y22355679D01*
X7417294Y22268740D01*
X7431193Y22235183D01*
X7418740Y22232706D01*
X7336845Y22198785D01*
X7263142Y22149538D01*
X7200462Y22086858D01*
X7151215Y22013155D01*
X7117294Y21931260D01*
X7100000Y21844321D01*
X7100000Y21755679D01*
X7117294Y21668740D01*
X7151215Y21586845D01*
X7200462Y21513142D01*
X7263142Y21450462D01*
X7336845Y21401215D01*
X7384754Y21381371D01*
X6908629Y20905246D01*
X6888785Y20953155D01*
X6867870Y20984456D01*
X6876858Y20990462D01*
X6939538Y21053142D01*
X6988785Y21126845D01*
X7022706Y21208740D01*
X7040000Y21295679D01*
X7040000Y21384321D01*
X7022706Y21471260D01*
X6988785Y21553155D01*
X6939538Y21626858D01*
X6876858Y21689538D01*
X6803155Y21738785D01*
X6721260Y21772706D01*
X6634321Y21790000D01*
X6545679Y21790000D01*
X6458740Y21772706D01*
X6376845Y21738785D01*
X6303142Y21689538D01*
X6240462Y21626858D01*
X6191215Y21553155D01*
X6157294Y21471260D01*
X6140000Y21384321D01*
X6140000Y21295679D01*
X6157294Y21208740D01*
X6191215Y21126845D01*
X6212130Y21095544D01*
X6203142Y21089538D01*
X6140462Y21026858D01*
X6134456Y21017870D01*
X6103155Y21038785D01*
X6021260Y21072706D01*
X5934321Y21090000D01*
X5845679Y21090000D01*
X5758740Y21072706D01*
X5676845Y21038785D01*
X5603142Y20989538D01*
X5540462Y20926858D01*
X5491215Y20853155D01*
X5457294Y20771260D01*
X5440000Y20684321D01*
X5440000Y20595679D01*
X5457294Y20508740D01*
X5491215Y20426845D01*
X5516749Y20388630D01*
X5503142Y20379538D01*
X5440462Y20316858D01*
X5391215Y20243155D01*
X5357294Y20161260D01*
X5340000Y20074321D01*
X5340000Y19985679D01*
X5357294Y19898740D01*
X5391215Y19816845D01*
X5440462Y19743142D01*
X5503142Y19680462D01*
X5576845Y19631215D01*
X5617683Y19614300D01*
X5440000Y19436616D01*
X5440000Y19464321D01*
X5422706Y19551260D01*
X5388785Y19633155D01*
X5339538Y19706858D01*
X5276858Y19769538D01*
X5203155Y19818785D01*
X5121260Y19852706D01*
X5034321Y19870000D01*
X4945679Y19870000D01*
X4858740Y19852706D01*
X4776845Y19818785D01*
X4703142Y19769538D01*
X4640462Y19706858D01*
X4591215Y19633155D01*
X4557294Y19551260D01*
X4540000Y19464321D01*
X4540000Y19375679D01*
X4557294Y19288740D01*
X4591215Y19206845D01*
X4640462Y19133142D01*
X4703142Y19070462D01*
X4776845Y19021215D01*
X4858740Y18987294D01*
X4945679Y18970000D01*
X4973384Y18970000D01*
X4324480Y18321096D01*
X4312082Y18310921D01*
X4271468Y18261434D01*
X4271340Y18261194D01*
X4241289Y18204973D01*
X4222705Y18143711D01*
X4216431Y18080000D01*
X4218003Y18064037D01*
X4218002Y16472951D01*
X4216431Y16456998D01*
X4218002Y16441045D01*
X4218002Y16441038D01*
X4219950Y16421260D01*
X4222705Y16393287D01*
X4230041Y16369103D01*
X4156845Y16338785D01*
X4083142Y16289538D01*
X4020462Y16226858D01*
X3971215Y16153155D01*
X3940433Y16078838D01*
X3884321Y16090000D01*
X3795679Y16090000D01*
X3708740Y16072706D01*
X3626845Y16038785D01*
X3553142Y15989538D01*
X3490462Y15926858D01*
X3441215Y15853155D01*
X3407294Y15771260D01*
X3391130Y15690000D01*
X3335679Y15690000D01*
X3248740Y15672706D01*
X3166845Y15638785D01*
X3093142Y15589538D01*
X3030462Y15526858D01*
X2981215Y15453155D01*
X2947294Y15371260D01*
X2930000Y15284321D01*
X475000Y15284321D01*
X475000Y15855430D01*
X616600Y15713830D01*
X784480Y15601656D01*
X971018Y15524390D01*
X1169046Y15485000D01*
X1370954Y15485000D01*
X1568982Y15524390D01*
X1755520Y15601656D01*
X1923400Y15713830D01*
X2066170Y15856600D01*
X2178344Y16024480D01*
X2255610Y16211018D01*
X2295000Y16409046D01*
X2295000Y16610954D01*
X2255610Y16808982D01*
X2178344Y16995520D01*
X2066170Y17163400D01*
X1923400Y17306170D01*
X1755520Y17418344D01*
X1568982Y17495610D01*
X1370954Y17535000D01*
X1169046Y17535000D01*
X971018Y17495610D01*
X784480Y17418344D01*
X616600Y17306170D01*
X475000Y17164570D01*
X475000Y18395430D01*
X616600Y18253830D01*
X784480Y18141656D01*
X971018Y18064390D01*
X1169046Y18025000D01*
X1370954Y18025000D01*
X1568982Y18064390D01*
X1755520Y18141656D01*
X1923400Y18253830D01*
X2066170Y18396600D01*
X2178344Y18564480D01*
X2198988Y18614321D01*
X2530000Y18614321D01*
X2530000Y18525679D01*
X2547294Y18438740D01*
X2581215Y18356845D01*
X2630462Y18283142D01*
X2693142Y18220462D01*
X2766845Y18171215D01*
X2848740Y18137294D01*
X2935679Y18120000D01*
X3024321Y18120000D01*
X3111260Y18137294D01*
X3193155Y18171215D01*
X3266858Y18220462D01*
X3329538Y18283142D01*
X3378785Y18356845D01*
X3412706Y18438740D01*
X3430000Y18525679D01*
X3430000Y18614321D01*
X3412706Y18701260D01*
X3378785Y18783155D01*
X3329538Y18856858D01*
X3266858Y18919538D01*
X3193155Y18968785D01*
X3111260Y19002706D01*
X3024321Y19020000D01*
X2935679Y19020000D01*
X2848740Y19002706D01*
X2766845Y18968785D01*
X2693142Y18919538D01*
X2630462Y18856858D01*
X2581215Y18783155D01*
X2547294Y18701260D01*
X2530000Y18614321D01*
X2198988Y18614321D01*
X2255610Y18751018D01*
X2295000Y18949046D01*
X2295000Y19150954D01*
X2255610Y19348982D01*
X2178344Y19535520D01*
X2066170Y19703400D01*
X1923400Y19846170D01*
X1755520Y19958344D01*
X1568982Y20035610D01*
X1370954Y20075000D01*
X1169046Y20075000D01*
X971018Y20035610D01*
X784480Y19958344D01*
X616600Y19846170D01*
X475000Y19704570D01*
X475000Y20384321D01*
X3990000Y20384321D01*
X3990000Y20295679D01*
X4007294Y20208740D01*
X4041215Y20126845D01*
X4090462Y20053142D01*
X4153142Y19990462D01*
X4226845Y19941215D01*
X4308740Y19907294D01*
X4395679Y19890000D01*
X4484321Y19890000D01*
X4571260Y19907294D01*
X4653155Y19941215D01*
X4726858Y19990462D01*
X4789538Y20053142D01*
X4838785Y20126845D01*
X4872706Y20208740D01*
X4890000Y20295679D01*
X4890000Y20384321D01*
X4872706Y20471260D01*
X4838785Y20553155D01*
X4789538Y20626858D01*
X4726858Y20689538D01*
X4653155Y20738785D01*
X4571260Y20772706D01*
X4484321Y20790000D01*
X4395679Y20790000D01*
X4308740Y20772706D01*
X4226845Y20738785D01*
X4153142Y20689538D01*
X4090462Y20626858D01*
X4041215Y20553155D01*
X4007294Y20471260D01*
X3990000Y20384321D01*
X475000Y20384321D01*
X475000Y20935430D01*
X616600Y20793830D01*
X784480Y20681656D01*
X971018Y20604390D01*
X1169046Y20565000D01*
X1370954Y20565000D01*
X1568982Y20604390D01*
X1755520Y20681656D01*
X1923400Y20793830D01*
X2066170Y20936600D01*
X2178344Y21104480D01*
X2255610Y21291018D01*
X2295000Y21489046D01*
X2295000Y21690954D01*
X2255610Y21888982D01*
X2178344Y22075520D01*
X2066170Y22243400D01*
X1923400Y22386170D01*
X1755520Y22498344D01*
X1568982Y22575610D01*
X1370954Y22615000D01*
X1169046Y22615000D01*
X971018Y22575610D01*
X784480Y22498344D01*
X616600Y22386170D01*
X475000Y22244570D01*
X475000Y23475430D01*
X616600Y23333830D01*
X784480Y23221656D01*
X971018Y23144390D01*
X1169046Y23105000D01*
X1370954Y23105000D01*
X1568982Y23144390D01*
X1755520Y23221656D01*
X1923400Y23333830D01*
X2066170Y23476600D01*
X2178344Y23644480D01*
X2255610Y23831018D01*
X2295000Y24029046D01*
X2295000Y24230954D01*
X2255610Y24428982D01*
X2178344Y24615520D01*
X2066170Y24783400D01*
X1923400Y24926170D01*
X1755520Y25038344D01*
X1568982Y25115610D01*
X1370954Y25155000D01*
X1169046Y25155000D01*
X971018Y25115610D01*
X784480Y25038344D01*
X616600Y24926170D01*
X475000Y24784570D01*
X475000Y26015430D01*
X616600Y25873830D01*
X784480Y25761656D01*
X971018Y25684390D01*
X1169046Y25645000D01*
X1370954Y25645000D01*
X1568982Y25684390D01*
X1755520Y25761656D01*
X1923400Y25873830D01*
X2066170Y26016600D01*
X2164874Y26164321D01*
X6750000Y26164321D01*
X6750000Y26075679D01*
X6767294Y25988740D01*
X6801215Y25906845D01*
X6850462Y25833142D01*
X6913142Y25770462D01*
X6986845Y25721215D01*
X7068740Y25687294D01*
X7155679Y25670000D01*
X7244321Y25670000D01*
X7331260Y25687294D01*
X7413155Y25721215D01*
X7486858Y25770462D01*
X7549538Y25833142D01*
X7598785Y25906845D01*
X7632706Y25988740D01*
X7650000Y26075679D01*
X7650000Y26164321D01*
X7632706Y26251260D01*
X7598785Y26333155D01*
X7549538Y26406858D01*
X7486858Y26469538D01*
X7413155Y26518785D01*
X7331260Y26552706D01*
X7244321Y26570000D01*
X7155679Y26570000D01*
X7068740Y26552706D01*
X6986845Y26518785D01*
X6913142Y26469538D01*
X6850462Y26406858D01*
X6801215Y26333155D01*
X6767294Y26251260D01*
X6750000Y26164321D01*
X2164874Y26164321D01*
X2178344Y26184480D01*
X2255610Y26371018D01*
X2295000Y26569046D01*
X2295000Y26770954D01*
X2255610Y26968982D01*
X2178344Y27155520D01*
X2066170Y27323400D01*
X1923400Y27466170D01*
X1755520Y27578344D01*
X1568982Y27655610D01*
X1370954Y27695000D01*
X1169046Y27695000D01*
X971018Y27655610D01*
X784480Y27578344D01*
X616600Y27466170D01*
X475000Y27324570D01*
X475000Y28555430D01*
X616600Y28413830D01*
X784480Y28301656D01*
X971018Y28224390D01*
X1169046Y28185000D01*
X1370954Y28185000D01*
X1568982Y28224390D01*
X1755520Y28301656D01*
X1923400Y28413830D01*
X2066170Y28556600D01*
X2178344Y28724480D01*
X2255610Y28911018D01*
X2295000Y29109046D01*
X2295000Y29310954D01*
X2255610Y29508982D01*
X2178344Y29695520D01*
X2066170Y29863400D01*
X1923400Y30006170D01*
X1755520Y30118344D01*
X1568982Y30195610D01*
X1370954Y30235000D01*
X1169046Y30235000D01*
X971018Y30195610D01*
X784480Y30118344D01*
X616600Y30006170D01*
X475000Y29864570D01*
X475000Y31095430D01*
X616600Y30953830D01*
X784480Y30841656D01*
X971018Y30764390D01*
X1169046Y30725000D01*
X1370954Y30725000D01*
X1568982Y30764390D01*
X1755520Y30841656D01*
X1923400Y30953830D01*
X2066170Y31096600D01*
X2178344Y31264480D01*
X2255610Y31451018D01*
X2295000Y31649046D01*
X2295000Y31850954D01*
X2255610Y32048982D01*
X2178344Y32235520D01*
X2066170Y32403400D01*
X1923400Y32546170D01*
X1755520Y32658344D01*
X1568982Y32735610D01*
X1370954Y32775000D01*
X1169046Y32775000D01*
X971018Y32735610D01*
X784480Y32658344D01*
X616600Y32546170D01*
X475000Y32404570D01*
X475000Y33567036D01*
X617747Y33567036D01*
X705769Y33428337D01*
X884712Y33334818D01*
X1078462Y33278006D01*
X1279573Y33260083D01*
X1480316Y33281741D01*
X1672977Y33342145D01*
X1834231Y33428337D01*
X1922253Y33567036D01*
X1270000Y34219289D01*
X617747Y33567036D01*
X475000Y33567036D01*
X475000Y33683463D01*
X547036Y33637747D01*
X1199289Y34290000D01*
X1340711Y34290000D01*
X1992964Y33637747D01*
X2131663Y33725769D01*
X2225182Y33904712D01*
X2281994Y34098462D01*
X2299917Y34299573D01*
X2299266Y34305607D01*
X3845000Y34305607D01*
X3845000Y33634394D01*
X3855491Y33527876D01*
X3896947Y33391213D01*
X3964269Y33265264D01*
X4054868Y33154869D01*
X4165263Y33064269D01*
X4291212Y32996947D01*
X4427875Y32955491D01*
X4570000Y32941493D01*
X4712124Y32955491D01*
X4848787Y32996947D01*
X4974736Y33064269D01*
X5085131Y33154868D01*
X5175731Y33265263D01*
X5243053Y33391212D01*
X5284509Y33527875D01*
X5295000Y33634393D01*
X5295000Y34305607D01*
X12485000Y34305607D01*
X12485000Y33634394D01*
X12495491Y33527876D01*
X12536947Y33391213D01*
X12604269Y33265264D01*
X12694868Y33154869D01*
X12805263Y33064269D01*
X12931212Y32996947D01*
X13067875Y32955491D01*
X13210000Y32941493D01*
X13352124Y32955491D01*
X13488787Y32996947D01*
X13614736Y33064269D01*
X13725131Y33154868D01*
X13815731Y33265263D01*
X13883053Y33391212D01*
X13924509Y33527875D01*
X13935000Y33634393D01*
X13935000Y34305607D01*
X13924509Y34412125D01*
X13883053Y34548788D01*
X13815731Y34674737D01*
X13725132Y34785132D01*
X13614737Y34875731D01*
X13488788Y34943053D01*
X13352125Y34984509D01*
X13210000Y34998507D01*
X13067876Y34984509D01*
X12931213Y34943053D01*
X12805264Y34875731D01*
X12694869Y34785132D01*
X12604270Y34674737D01*
X12536947Y34548788D01*
X12495491Y34412125D01*
X12485000Y34305607D01*
X5295000Y34305607D01*
X5284509Y34412125D01*
X5243053Y34548788D01*
X5175731Y34674737D01*
X5085132Y34785132D01*
X4974737Y34875731D01*
X4848788Y34943053D01*
X4712125Y34984509D01*
X4570000Y34998507D01*
X4427876Y34984509D01*
X4291213Y34943053D01*
X4165264Y34875731D01*
X4054869Y34785132D01*
X3964270Y34674737D01*
X3896947Y34548788D01*
X3855491Y34412125D01*
X3845000Y34305607D01*
X2299266Y34305607D01*
X2278259Y34500316D01*
X2217855Y34692977D01*
X2131663Y34854231D01*
X1992964Y34942253D01*
X1340711Y34290000D01*
X1199289Y34290000D01*
X547036Y34942253D01*
X475000Y34896537D01*
X475000Y35036772D01*
X477710Y35064413D01*
X478992Y35068659D01*
X481074Y35072574D01*
X483877Y35076010D01*
X487295Y35078838D01*
X491197Y35080948D01*
X495429Y35082258D01*
X521517Y35085000D01*
X663463Y35085000D01*
X617747Y35012964D01*
G37*
G04 #@! TD.AperFunction*
D16*
X14188639Y31479840D02*
X14291134Y31437303D01*
X14379095Y31369648D01*
X14446508Y31281500D01*
X14488762Y31178889D01*
X14503605Y31063906D01*
X14496377Y28440025D01*
X14496992Y28430236D01*
X14513665Y28300809D01*
X14518677Y28281887D01*
X14568272Y28161182D01*
X14578011Y28144202D01*
X14657151Y28040442D01*
X14670952Y28026560D01*
X14774246Y27946813D01*
X14791168Y27936975D01*
X14911580Y27886671D01*
X14930472Y27881547D01*
X15059798Y27864115D01*
X15069583Y27863443D01*
X17274434Y27856574D01*
X17305001Y27852451D01*
X17305001Y27276537D01*
X17232964Y27322253D01*
X16580711Y26670000D01*
X17232964Y26017747D01*
X17305001Y26063463D01*
X17305001Y25478843D01*
X17267997Y25473909D01*
X16184583Y25471554D01*
X16172706Y25531260D01*
X16138785Y25613155D01*
X16089538Y25686858D01*
X16026858Y25749538D01*
X15953155Y25798785D01*
X15871260Y25832706D01*
X15784321Y25850000D01*
X15695679Y25850000D01*
X15608740Y25832706D01*
X15526845Y25798785D01*
X15453142Y25749538D01*
X15390462Y25686858D01*
X15341215Y25613155D01*
X15307294Y25531260D01*
X15295033Y25469620D01*
X13673254Y25466095D01*
X13558690Y25480895D01*
X13456408Y25522912D01*
X13368460Y25589921D01*
X13300808Y25677375D01*
X13258044Y25779345D01*
X13242404Y25893796D01*
X13242130Y25947036D01*
X15857747Y25947036D01*
X15945769Y25808337D01*
X16124712Y25714818D01*
X16318462Y25658006D01*
X16519573Y25640083D01*
X16720316Y25661741D01*
X16912977Y25722145D01*
X17074231Y25808337D01*
X17162253Y25947036D01*
X16510000Y26599289D01*
X15857747Y25947036D01*
X13242130Y25947036D01*
X13240397Y26283207D01*
X13273142Y26250462D01*
X13346845Y26201215D01*
X13428740Y26167294D01*
X13515679Y26150000D01*
X13604321Y26150000D01*
X13691260Y26167294D01*
X13773155Y26201215D01*
X13846858Y26250462D01*
X13909538Y26313142D01*
X13958785Y26386845D01*
X13992706Y26468740D01*
X14010000Y26555679D01*
X14010000Y26644321D01*
X14006797Y26660427D01*
X15480083Y26660427D01*
X15501741Y26459684D01*
X15562145Y26267023D01*
X15648337Y26105769D01*
X15787036Y26017747D01*
X16439289Y26670000D01*
X15787036Y27322253D01*
X15648337Y27234231D01*
X15554818Y27055288D01*
X15498006Y26861538D01*
X15480083Y26660427D01*
X14006797Y26660427D01*
X13992706Y26731260D01*
X13958785Y26813155D01*
X13909538Y26886858D01*
X13846858Y26949538D01*
X13846167Y26950000D01*
X13846858Y26950462D01*
X13909538Y27013142D01*
X13958785Y27086845D01*
X13992706Y27168740D01*
X14010000Y27255679D01*
X14010000Y27344321D01*
X14000324Y27392964D01*
X15857747Y27392964D01*
X16510000Y26740711D01*
X17162253Y27392964D01*
X17074231Y27531663D01*
X16895288Y27625182D01*
X16701538Y27681994D01*
X16500427Y27699917D01*
X16299684Y27678259D01*
X16107023Y27617855D01*
X15945769Y27531663D01*
X15857747Y27392964D01*
X14000324Y27392964D01*
X13992706Y27431260D01*
X13958785Y27513155D01*
X13909538Y27586858D01*
X13846858Y27649538D01*
X13773155Y27698785D01*
X13691260Y27732706D01*
X13604321Y27750000D01*
X13515679Y27750000D01*
X13428740Y27732706D01*
X13346845Y27698785D01*
X13273142Y27649538D01*
X13210462Y27586858D01*
X13161215Y27513155D01*
X13127294Y27431260D01*
X13110000Y27344321D01*
X13110000Y27255679D01*
X13127294Y27168740D01*
X13132865Y27155290D01*
X13074770Y27230597D01*
X13060951Y27244359D01*
X12957678Y27323347D01*
X12940778Y27333080D01*
X12820631Y27382771D01*
X12801793Y27387819D01*
X12672897Y27404853D01*
X12663146Y27405499D01*
X11033050Y27407137D01*
X11061175Y27443714D01*
X11090631Y27494638D01*
X11140731Y27615384D01*
X11155979Y27672199D01*
X11173069Y27801804D01*
X11175000Y27831218D01*
X11175000Y29204394D01*
X12485000Y29204394D01*
X12495491Y29097876D01*
X12536947Y28961213D01*
X12604269Y28835264D01*
X12694868Y28724869D01*
X12805263Y28634269D01*
X12931212Y28566947D01*
X13067875Y28525491D01*
X13210000Y28511493D01*
X13352124Y28525491D01*
X13488787Y28566947D01*
X13614736Y28634269D01*
X13725131Y28724868D01*
X13815731Y28835263D01*
X13883053Y28961212D01*
X13924509Y29097875D01*
X13935000Y29204393D01*
X13935000Y30375607D01*
X13924509Y30482125D01*
X13883053Y30618788D01*
X13815731Y30744737D01*
X13725132Y30855132D01*
X13614737Y30945731D01*
X13488788Y31013053D01*
X13352125Y31054509D01*
X13210000Y31068507D01*
X13067876Y31054509D01*
X12931213Y31013053D01*
X12805264Y30945731D01*
X12694869Y30855132D01*
X12604270Y30744737D01*
X12536948Y30618788D01*
X12495492Y30482125D01*
X12485001Y30375607D01*
X12485000Y29204394D01*
X11175000Y29204394D01*
X11175000Y30060000D01*
X11173075Y30089368D01*
X11156038Y30218778D01*
X11140836Y30275514D01*
X11099972Y30374170D01*
X11230000Y30374170D01*
X11230000Y30265830D01*
X11251136Y30159571D01*
X11292597Y30059477D01*
X11352787Y29969396D01*
X11429396Y29892787D01*
X11519477Y29832597D01*
X11619571Y29791136D01*
X11725830Y29770000D01*
X11834170Y29770000D01*
X11940429Y29791136D01*
X12040523Y29832597D01*
X12130604Y29892787D01*
X12207213Y29969396D01*
X12267403Y30059477D01*
X12308864Y30159571D01*
X12330000Y30265830D01*
X12330000Y30374170D01*
X12308864Y30480429D01*
X12267403Y30580523D01*
X12207213Y30670604D01*
X12130604Y30747213D01*
X12040523Y30807403D01*
X11940429Y30848864D01*
X11834170Y30870000D01*
X11725830Y30870000D01*
X11619571Y30848864D01*
X11519477Y30807403D01*
X11429396Y30747213D01*
X11352787Y30670604D01*
X11292597Y30580523D01*
X11251136Y30480429D01*
X11230000Y30374170D01*
X11099972Y30374170D01*
X11090886Y30396104D01*
X11061517Y30446972D01*
X10982057Y30550525D01*
X10940525Y30592057D01*
X10836972Y30671517D01*
X10786104Y30700886D01*
X10665514Y30750836D01*
X10608778Y30766038D01*
X10479368Y30783075D01*
X10450000Y30785000D01*
X7340000Y30785000D01*
X7310632Y30783075D01*
X7181222Y30766038D01*
X7124486Y30750836D01*
X7003896Y30700886D01*
X6953028Y30671517D01*
X6849475Y30592057D01*
X6807943Y30550525D01*
X6728483Y30446972D01*
X6699114Y30396104D01*
X6649164Y30275514D01*
X6633962Y30218778D01*
X6616925Y30089368D01*
X6615000Y30060000D01*
X6615000Y28205887D01*
X6548740Y28192706D01*
X6466845Y28158785D01*
X6393142Y28109538D01*
X6330462Y28046858D01*
X6281215Y27973155D01*
X6247294Y27891260D01*
X6230000Y27804321D01*
X6230000Y27715679D01*
X6247294Y27628740D01*
X6281215Y27546845D01*
X6330462Y27473142D01*
X6391802Y27411802D01*
X3714482Y27414493D01*
X3599827Y27429695D01*
X3497578Y27472139D01*
X3409786Y27539585D01*
X3342428Y27627445D01*
X3300087Y27729736D01*
X3285000Y27844409D01*
X3285000Y29204394D01*
X3845000Y29204394D01*
X3855491Y29097876D01*
X3896947Y28961213D01*
X3964269Y28835264D01*
X4054868Y28724869D01*
X4165263Y28634269D01*
X4291212Y28566947D01*
X4427875Y28525491D01*
X4570000Y28511493D01*
X4712124Y28525491D01*
X4848787Y28566947D01*
X4974736Y28634269D01*
X5085131Y28724868D01*
X5175731Y28835263D01*
X5243053Y28961212D01*
X5284509Y29097875D01*
X5295000Y29204393D01*
X5295000Y30374170D01*
X5450000Y30374170D01*
X5450000Y30265830D01*
X5471136Y30159571D01*
X5512597Y30059477D01*
X5572787Y29969396D01*
X5649396Y29892787D01*
X5739477Y29832597D01*
X5839571Y29791136D01*
X5945830Y29770000D01*
X6054170Y29770000D01*
X6160429Y29791136D01*
X6260523Y29832597D01*
X6350604Y29892787D01*
X6427213Y29969396D01*
X6487403Y30059477D01*
X6528864Y30159571D01*
X6550000Y30265830D01*
X6550000Y30374170D01*
X6528864Y30480429D01*
X6487403Y30580523D01*
X6427213Y30670604D01*
X6350604Y30747213D01*
X6260523Y30807403D01*
X6160429Y30848864D01*
X6054170Y30870000D01*
X5945830Y30870000D01*
X5839571Y30848864D01*
X5739477Y30807403D01*
X5649396Y30747213D01*
X5572787Y30670604D01*
X5512597Y30580523D01*
X5471136Y30480429D01*
X5450000Y30374170D01*
X5295000Y30374170D01*
X5295000Y30375607D01*
X5284509Y30482125D01*
X5243053Y30618788D01*
X5175731Y30744737D01*
X5085132Y30855132D01*
X4974737Y30945731D01*
X4848788Y31013053D01*
X4712125Y31054509D01*
X4570000Y31068507D01*
X4427876Y31054509D01*
X4291213Y31013053D01*
X4165264Y30945731D01*
X4054869Y30855132D01*
X3964270Y30744737D01*
X3896948Y30618788D01*
X3855492Y30482125D01*
X3845001Y30375607D01*
X3845000Y29204394D01*
X3285000Y29204394D01*
X3285000Y31065088D01*
X3300106Y31179830D01*
X3342500Y31282178D01*
X3409937Y31370063D01*
X3497822Y31437500D01*
X3600170Y31479894D01*
X3714912Y31495000D01*
X14073697Y31495000D01*
X14188639Y31479840D01*
G04 #@! TA.AperFunction,Conductor*
D17*
G36*
X14188639Y31479840D02*
G01*
X14291134Y31437303D01*
X14379095Y31369648D01*
X14446508Y31281500D01*
X14488762Y31178889D01*
X14503605Y31063906D01*
X14496377Y28440025D01*
X14496992Y28430236D01*
X14513665Y28300809D01*
X14518677Y28281887D01*
X14568272Y28161182D01*
X14578011Y28144202D01*
X14657151Y28040442D01*
X14670952Y28026560D01*
X14774246Y27946813D01*
X14791168Y27936975D01*
X14911580Y27886671D01*
X14930472Y27881547D01*
X15059798Y27864115D01*
X15069583Y27863443D01*
X17274434Y27856574D01*
X17305001Y27852451D01*
X17305001Y27276537D01*
X17232964Y27322253D01*
X16580711Y26670000D01*
X17232964Y26017747D01*
X17305001Y26063463D01*
X17305001Y25478843D01*
X17267997Y25473909D01*
X16184583Y25471554D01*
X16172706Y25531260D01*
X16138785Y25613155D01*
X16089538Y25686858D01*
X16026858Y25749538D01*
X15953155Y25798785D01*
X15871260Y25832706D01*
X15784321Y25850000D01*
X15695679Y25850000D01*
X15608740Y25832706D01*
X15526845Y25798785D01*
X15453142Y25749538D01*
X15390462Y25686858D01*
X15341215Y25613155D01*
X15307294Y25531260D01*
X15295033Y25469620D01*
X13673254Y25466095D01*
X13558690Y25480895D01*
X13456408Y25522912D01*
X13368460Y25589921D01*
X13300808Y25677375D01*
X13258044Y25779345D01*
X13242404Y25893796D01*
X13242130Y25947036D01*
X15857747Y25947036D01*
X15945769Y25808337D01*
X16124712Y25714818D01*
X16318462Y25658006D01*
X16519573Y25640083D01*
X16720316Y25661741D01*
X16912977Y25722145D01*
X17074231Y25808337D01*
X17162253Y25947036D01*
X16510000Y26599289D01*
X15857747Y25947036D01*
X13242130Y25947036D01*
X13240397Y26283207D01*
X13273142Y26250462D01*
X13346845Y26201215D01*
X13428740Y26167294D01*
X13515679Y26150000D01*
X13604321Y26150000D01*
X13691260Y26167294D01*
X13773155Y26201215D01*
X13846858Y26250462D01*
X13909538Y26313142D01*
X13958785Y26386845D01*
X13992706Y26468740D01*
X14010000Y26555679D01*
X14010000Y26644321D01*
X14006797Y26660427D01*
X15480083Y26660427D01*
X15501741Y26459684D01*
X15562145Y26267023D01*
X15648337Y26105769D01*
X15787036Y26017747D01*
X16439289Y26670000D01*
X15787036Y27322253D01*
X15648337Y27234231D01*
X15554818Y27055288D01*
X15498006Y26861538D01*
X15480083Y26660427D01*
X14006797Y26660427D01*
X13992706Y26731260D01*
X13958785Y26813155D01*
X13909538Y26886858D01*
X13846858Y26949538D01*
X13846167Y26950000D01*
X13846858Y26950462D01*
X13909538Y27013142D01*
X13958785Y27086845D01*
X13992706Y27168740D01*
X14010000Y27255679D01*
X14010000Y27344321D01*
X14000324Y27392964D01*
X15857747Y27392964D01*
X16510000Y26740711D01*
X17162253Y27392964D01*
X17074231Y27531663D01*
X16895288Y27625182D01*
X16701538Y27681994D01*
X16500427Y27699917D01*
X16299684Y27678259D01*
X16107023Y27617855D01*
X15945769Y27531663D01*
X15857747Y27392964D01*
X14000324Y27392964D01*
X13992706Y27431260D01*
X13958785Y27513155D01*
X13909538Y27586858D01*
X13846858Y27649538D01*
X13773155Y27698785D01*
X13691260Y27732706D01*
X13604321Y27750000D01*
X13515679Y27750000D01*
X13428740Y27732706D01*
X13346845Y27698785D01*
X13273142Y27649538D01*
X13210462Y27586858D01*
X13161215Y27513155D01*
X13127294Y27431260D01*
X13110000Y27344321D01*
X13110000Y27255679D01*
X13127294Y27168740D01*
X13132865Y27155290D01*
X13074770Y27230597D01*
X13060951Y27244359D01*
X12957678Y27323347D01*
X12940778Y27333080D01*
X12820631Y27382771D01*
X12801793Y27387819D01*
X12672897Y27404853D01*
X12663146Y27405499D01*
X11033050Y27407137D01*
X11061175Y27443714D01*
X11090631Y27494638D01*
X11140731Y27615384D01*
X11155979Y27672199D01*
X11173069Y27801804D01*
X11175000Y27831218D01*
X11175000Y29204394D01*
X12485000Y29204394D01*
X12495491Y29097876D01*
X12536947Y28961213D01*
X12604269Y28835264D01*
X12694868Y28724869D01*
X12805263Y28634269D01*
X12931212Y28566947D01*
X13067875Y28525491D01*
X13210000Y28511493D01*
X13352124Y28525491D01*
X13488787Y28566947D01*
X13614736Y28634269D01*
X13725131Y28724868D01*
X13815731Y28835263D01*
X13883053Y28961212D01*
X13924509Y29097875D01*
X13935000Y29204393D01*
X13935000Y30375607D01*
X13924509Y30482125D01*
X13883053Y30618788D01*
X13815731Y30744737D01*
X13725132Y30855132D01*
X13614737Y30945731D01*
X13488788Y31013053D01*
X13352125Y31054509D01*
X13210000Y31068507D01*
X13067876Y31054509D01*
X12931213Y31013053D01*
X12805264Y30945731D01*
X12694869Y30855132D01*
X12604270Y30744737D01*
X12536948Y30618788D01*
X12495492Y30482125D01*
X12485001Y30375607D01*
X12485000Y29204394D01*
X11175000Y29204394D01*
X11175000Y30060000D01*
X11173075Y30089368D01*
X11156038Y30218778D01*
X11140836Y30275514D01*
X11099972Y30374170D01*
X11230000Y30374170D01*
X11230000Y30265830D01*
X11251136Y30159571D01*
X11292597Y30059477D01*
X11352787Y29969396D01*
X11429396Y29892787D01*
X11519477Y29832597D01*
X11619571Y29791136D01*
X11725830Y29770000D01*
X11834170Y29770000D01*
X11940429Y29791136D01*
X12040523Y29832597D01*
X12130604Y29892787D01*
X12207213Y29969396D01*
X12267403Y30059477D01*
X12308864Y30159571D01*
X12330000Y30265830D01*
X12330000Y30374170D01*
X12308864Y30480429D01*
X12267403Y30580523D01*
X12207213Y30670604D01*
X12130604Y30747213D01*
X12040523Y30807403D01*
X11940429Y30848864D01*
X11834170Y30870000D01*
X11725830Y30870000D01*
X11619571Y30848864D01*
X11519477Y30807403D01*
X11429396Y30747213D01*
X11352787Y30670604D01*
X11292597Y30580523D01*
X11251136Y30480429D01*
X11230000Y30374170D01*
X11099972Y30374170D01*
X11090886Y30396104D01*
X11061517Y30446972D01*
X10982057Y30550525D01*
X10940525Y30592057D01*
X10836972Y30671517D01*
X10786104Y30700886D01*
X10665514Y30750836D01*
X10608778Y30766038D01*
X10479368Y30783075D01*
X10450000Y30785000D01*
X7340000Y30785000D01*
X7310632Y30783075D01*
X7181222Y30766038D01*
X7124486Y30750836D01*
X7003896Y30700886D01*
X6953028Y30671517D01*
X6849475Y30592057D01*
X6807943Y30550525D01*
X6728483Y30446972D01*
X6699114Y30396104D01*
X6649164Y30275514D01*
X6633962Y30218778D01*
X6616925Y30089368D01*
X6615000Y30060000D01*
X6615000Y28205887D01*
X6548740Y28192706D01*
X6466845Y28158785D01*
X6393142Y28109538D01*
X6330462Y28046858D01*
X6281215Y27973155D01*
X6247294Y27891260D01*
X6230000Y27804321D01*
X6230000Y27715679D01*
X6247294Y27628740D01*
X6281215Y27546845D01*
X6330462Y27473142D01*
X6391802Y27411802D01*
X3714482Y27414493D01*
X3599827Y27429695D01*
X3497578Y27472139D01*
X3409786Y27539585D01*
X3342428Y27627445D01*
X3300087Y27729736D01*
X3285000Y27844409D01*
X3285000Y29204394D01*
X3845000Y29204394D01*
X3855491Y29097876D01*
X3896947Y28961213D01*
X3964269Y28835264D01*
X4054868Y28724869D01*
X4165263Y28634269D01*
X4291212Y28566947D01*
X4427875Y28525491D01*
X4570000Y28511493D01*
X4712124Y28525491D01*
X4848787Y28566947D01*
X4974736Y28634269D01*
X5085131Y28724868D01*
X5175731Y28835263D01*
X5243053Y28961212D01*
X5284509Y29097875D01*
X5295000Y29204393D01*
X5295000Y30374170D01*
X5450000Y30374170D01*
X5450000Y30265830D01*
X5471136Y30159571D01*
X5512597Y30059477D01*
X5572787Y29969396D01*
X5649396Y29892787D01*
X5739477Y29832597D01*
X5839571Y29791136D01*
X5945830Y29770000D01*
X6054170Y29770000D01*
X6160429Y29791136D01*
X6260523Y29832597D01*
X6350604Y29892787D01*
X6427213Y29969396D01*
X6487403Y30059477D01*
X6528864Y30159571D01*
X6550000Y30265830D01*
X6550000Y30374170D01*
X6528864Y30480429D01*
X6487403Y30580523D01*
X6427213Y30670604D01*
X6350604Y30747213D01*
X6260523Y30807403D01*
X6160429Y30848864D01*
X6054170Y30870000D01*
X5945830Y30870000D01*
X5839571Y30848864D01*
X5739477Y30807403D01*
X5649396Y30747213D01*
X5572787Y30670604D01*
X5512597Y30580523D01*
X5471136Y30480429D01*
X5450000Y30374170D01*
X5295000Y30374170D01*
X5295000Y30375607D01*
X5284509Y30482125D01*
X5243053Y30618788D01*
X5175731Y30744737D01*
X5085132Y30855132D01*
X4974737Y30945731D01*
X4848788Y31013053D01*
X4712125Y31054509D01*
X4570000Y31068507D01*
X4427876Y31054509D01*
X4291213Y31013053D01*
X4165264Y30945731D01*
X4054869Y30855132D01*
X3964270Y30744737D01*
X3896948Y30618788D01*
X3855492Y30482125D01*
X3845001Y30375607D01*
X3845000Y29204394D01*
X3285000Y29204394D01*
X3285000Y31065088D01*
X3300106Y31179830D01*
X3342500Y31282178D01*
X3409937Y31370063D01*
X3497822Y31437500D01*
X3600170Y31479894D01*
X3714912Y31495000D01*
X14073697Y31495000D01*
X14188639Y31479840D01*
G37*
G04 #@! TD.AperFunction*
D16*
X10559830Y30469894D02*
X10662178Y30427500D01*
X10750063Y30360063D01*
X10817500Y30272178D01*
X10859894Y30169830D01*
X10875000Y30055088D01*
X10875000Y27836139D01*
X10859847Y27721224D01*
X10817326Y27618744D01*
X10749696Y27530792D01*
X10661577Y27463374D01*
X10559001Y27421105D01*
X10444045Y27406232D01*
X10258586Y27406683D01*
X10298785Y27466845D01*
X10332706Y27548740D01*
X10350000Y27635679D01*
X10350000Y27724321D01*
X10332706Y27811260D01*
X10298785Y27893155D01*
X10249538Y27966858D01*
X10186858Y28029538D01*
X10113155Y28078785D01*
X10031260Y28112706D01*
X9944321Y28130000D01*
X9855679Y28130000D01*
X9768740Y28112706D01*
X9686845Y28078785D01*
X9613142Y28029538D01*
X9550462Y27966858D01*
X9501215Y27893155D01*
X9467294Y27811260D01*
X9450000Y27724321D01*
X9450000Y27635679D01*
X9467294Y27548740D01*
X9501215Y27466845D01*
X9540246Y27408431D01*
X7343869Y27413774D01*
X7229339Y27429112D01*
X7127227Y27471627D01*
X7062044Y27521791D01*
X7078785Y27546845D01*
X7112706Y27628740D01*
X7130000Y27715679D01*
X7130000Y27804321D01*
X7112706Y27891260D01*
X7078785Y27973155D01*
X7029538Y28046858D01*
X6966858Y28109538D01*
X6915000Y28144189D01*
X6915000Y30055088D01*
X6930106Y30169830D01*
X6972500Y30272178D01*
X7039937Y30360063D01*
X7127822Y30427500D01*
X7230170Y30469894D01*
X7344912Y30485000D01*
X10445088Y30485000D01*
X10559830Y30469894D01*
G04 #@! TA.AperFunction,Conductor*
D17*
G36*
X10559830Y30469894D02*
G01*
X10662178Y30427500D01*
X10750063Y30360063D01*
X10817500Y30272178D01*
X10859894Y30169830D01*
X10875000Y30055088D01*
X10875000Y27836139D01*
X10859847Y27721224D01*
X10817326Y27618744D01*
X10749696Y27530792D01*
X10661577Y27463374D01*
X10559001Y27421105D01*
X10444045Y27406232D01*
X10258586Y27406683D01*
X10298785Y27466845D01*
X10332706Y27548740D01*
X10350000Y27635679D01*
X10350000Y27724321D01*
X10332706Y27811260D01*
X10298785Y27893155D01*
X10249538Y27966858D01*
X10186858Y28029538D01*
X10113155Y28078785D01*
X10031260Y28112706D01*
X9944321Y28130000D01*
X9855679Y28130000D01*
X9768740Y28112706D01*
X9686845Y28078785D01*
X9613142Y28029538D01*
X9550462Y27966858D01*
X9501215Y27893155D01*
X9467294Y27811260D01*
X9450000Y27724321D01*
X9450000Y27635679D01*
X9467294Y27548740D01*
X9501215Y27466845D01*
X9540246Y27408431D01*
X7343869Y27413774D01*
X7229339Y27429112D01*
X7127227Y27471627D01*
X7062044Y27521791D01*
X7078785Y27546845D01*
X7112706Y27628740D01*
X7130000Y27715679D01*
X7130000Y27804321D01*
X7112706Y27891260D01*
X7078785Y27973155D01*
X7029538Y28046858D01*
X6966858Y28109538D01*
X6915000Y28144189D01*
X6915000Y30055088D01*
X6930106Y30169830D01*
X6972500Y30272178D01*
X7039937Y30360063D01*
X7127822Y30427500D01*
X7230170Y30469894D01*
X7344912Y30485000D01*
X10445088Y30485000D01*
X10559830Y30469894D01*
G37*
G04 #@! TD.AperFunction*
D16*
X8454156Y23097347D02*
X8483009Y23079637D01*
X8788481Y22769607D01*
X8797202Y22762024D01*
X8897770Y22687372D01*
X8910378Y22679808D01*
X8918166Y22676642D01*
X9036654Y22636050D01*
X9050963Y22632671D01*
X9059344Y22632019D01*
X9184563Y22629319D01*
X9199223Y22630445D01*
X9207407Y22632369D01*
X9327534Y22667818D01*
X9341160Y22673341D01*
X9348373Y22677659D01*
X9452066Y22747908D01*
X9452150Y22747965D01*
X9546684Y22812196D01*
X9645100Y22841672D01*
X9747823Y22840152D01*
X9845325Y22807777D01*
X9933263Y22744144D01*
X10587861Y22097490D01*
X10566845Y22088785D01*
X10493142Y22039538D01*
X10430462Y21976858D01*
X10381215Y21903155D01*
X10347294Y21821260D01*
X10330000Y21734321D01*
X10330000Y21645679D01*
X10347294Y21558740D01*
X10381215Y21476845D01*
X10430462Y21403142D01*
X10493142Y21340462D01*
X10566845Y21291215D01*
X10648740Y21257294D01*
X10690000Y21249087D01*
X10690000Y21165679D01*
X10707294Y21078740D01*
X10741215Y20996845D01*
X10790462Y20923142D01*
X10853142Y20860462D01*
X10926845Y20811215D01*
X11008740Y20777294D01*
X11095679Y20760000D01*
X11184321Y20760000D01*
X11271260Y20777294D01*
X11340812Y20806103D01*
X11361215Y20756845D01*
X11371337Y20741696D01*
X11353142Y20729538D01*
X11290462Y20666858D01*
X11241215Y20593155D01*
X11207294Y20511260D01*
X11190000Y20424321D01*
X11190000Y20335679D01*
X11207294Y20248740D01*
X11241215Y20166845D01*
X11290462Y20093142D01*
X11353142Y20030462D01*
X11426845Y19981215D01*
X11508740Y19947294D01*
X11595679Y19930000D01*
X11684321Y19930000D01*
X11771260Y19947294D01*
X11853155Y19981215D01*
X11926858Y20030462D01*
X11989538Y20093142D01*
X12015554Y20132078D01*
X12016845Y20131215D01*
X12098740Y20097294D01*
X12185679Y20080000D01*
X12274321Y20080000D01*
X12361260Y20097294D01*
X12443155Y20131215D01*
X12516858Y20180462D01*
X12522613Y20186217D01*
X12623492Y20086563D01*
X12621215Y20083155D01*
X12587294Y20001260D01*
X12570000Y19914321D01*
X12570000Y19825679D01*
X12587294Y19738740D01*
X12621215Y19656845D01*
X12670462Y19583142D01*
X12722952Y19530652D01*
X12691215Y19483155D01*
X12657294Y19401260D01*
X12640000Y19314321D01*
X12640000Y19225679D01*
X12657294Y19138740D01*
X12691215Y19056845D01*
X12740462Y18983142D01*
X12803142Y18920462D01*
X12876845Y18871215D01*
X12958740Y18837294D01*
X13045679Y18820000D01*
X13134321Y18820000D01*
X13221260Y18837294D01*
X13303155Y18871215D01*
X13376858Y18920462D01*
X13439538Y18983142D01*
X13488785Y19056845D01*
X13517205Y19125460D01*
X13519619Y19119700D01*
X13534466Y19009370D01*
X13520106Y18898978D01*
X13477531Y18796120D01*
X13406627Y18703916D01*
X8220202Y13535076D01*
X8128228Y13464757D01*
X8025761Y13422534D01*
X7915864Y13408284D01*
X7806022Y13422974D01*
X7703728Y13465603D01*
X7612034Y13536288D01*
X5880001Y15276286D01*
X5880001Y15334321D01*
X8440000Y15334321D01*
X8440000Y15245679D01*
X8457294Y15158740D01*
X8491215Y15076845D01*
X8540462Y15003142D01*
X8603142Y14940462D01*
X8676845Y14891215D01*
X8758740Y14857294D01*
X8845679Y14840000D01*
X8934321Y14840000D01*
X9021260Y14857294D01*
X9103155Y14891215D01*
X9176858Y14940462D01*
X9239538Y15003142D01*
X9288785Y15076845D01*
X9322706Y15158740D01*
X9340000Y15245679D01*
X9340000Y15334321D01*
X9322706Y15421260D01*
X9288785Y15503155D01*
X9239538Y15576858D01*
X9176858Y15639538D01*
X9103155Y15688785D01*
X9021260Y15722706D01*
X8934321Y15740000D01*
X8845679Y15740000D01*
X8758740Y15722706D01*
X8676845Y15688785D01*
X8603142Y15639538D01*
X8540462Y15576858D01*
X8491215Y15503155D01*
X8457294Y15421260D01*
X8440000Y15334321D01*
X5880001Y15334321D01*
X5880001Y15429046D01*
X5881572Y15444999D01*
X5880001Y15460952D01*
X5880001Y15460960D01*
X5875298Y15508710D01*
X5856714Y15569973D01*
X5826536Y15626433D01*
X5802534Y15655679D01*
X5796097Y15663523D01*
X5796093Y15663527D01*
X5785922Y15675920D01*
X5773529Y15686091D01*
X5115298Y16344321D01*
X7450000Y16344321D01*
X7450000Y16255679D01*
X7467294Y16168740D01*
X7501215Y16086845D01*
X7550462Y16013142D01*
X7613142Y15950462D01*
X7686845Y15901215D01*
X7768740Y15867294D01*
X7855679Y15850000D01*
X7944321Y15850000D01*
X8031260Y15867294D01*
X8113155Y15901215D01*
X8186858Y15950462D01*
X8249538Y16013142D01*
X8298785Y16086845D01*
X8332706Y16168740D01*
X8350000Y16255679D01*
X8350000Y16344321D01*
X9440000Y16344321D01*
X9440000Y16255679D01*
X9457294Y16168740D01*
X9491215Y16086845D01*
X9540462Y16013142D01*
X9603142Y15950462D01*
X9676845Y15901215D01*
X9758740Y15867294D01*
X9845679Y15850000D01*
X9934321Y15850000D01*
X10021260Y15867294D01*
X10103155Y15901215D01*
X10176858Y15950462D01*
X10239538Y16013142D01*
X10288785Y16086845D01*
X10322706Y16168740D01*
X10340000Y16255679D01*
X10340000Y16344321D01*
X10322706Y16431260D01*
X10288785Y16513155D01*
X10239538Y16586858D01*
X10176858Y16649538D01*
X10103155Y16698785D01*
X10021260Y16732706D01*
X9934321Y16750000D01*
X9845679Y16750000D01*
X9758740Y16732706D01*
X9676845Y16698785D01*
X9603142Y16649538D01*
X9540462Y16586858D01*
X9491215Y16513155D01*
X9457294Y16431260D01*
X9440000Y16344321D01*
X8350000Y16344321D01*
X8332706Y16431260D01*
X8298785Y16513155D01*
X8249538Y16586858D01*
X8186858Y16649538D01*
X8113155Y16698785D01*
X8031260Y16732706D01*
X7944321Y16750000D01*
X7855679Y16750000D01*
X7768740Y16732706D01*
X7686845Y16698785D01*
X7613142Y16649538D01*
X7550462Y16586858D01*
X7501215Y16513155D01*
X7467294Y16431260D01*
X7450000Y16344321D01*
X5115298Y16344321D01*
X4868002Y16591616D01*
X4868002Y17224321D01*
X6550000Y17224321D01*
X6550000Y17135679D01*
X6567294Y17048740D01*
X6601215Y16966845D01*
X6650462Y16893142D01*
X6713142Y16830462D01*
X6786845Y16781215D01*
X6868740Y16747294D01*
X6955679Y16730000D01*
X7044321Y16730000D01*
X7131260Y16747294D01*
X7213155Y16781215D01*
X7286858Y16830462D01*
X7349538Y16893142D01*
X7398785Y16966845D01*
X7432706Y17048740D01*
X7450000Y17135679D01*
X7450000Y17224321D01*
X7432706Y17311260D01*
X7427297Y17324321D01*
X8440000Y17324321D01*
X8440000Y17235679D01*
X8457294Y17148740D01*
X8491215Y17066845D01*
X8540462Y16993142D01*
X8603142Y16930462D01*
X8676845Y16881215D01*
X8758740Y16847294D01*
X8845679Y16830000D01*
X8934321Y16830000D01*
X9021260Y16847294D01*
X9103155Y16881215D01*
X9176858Y16930462D01*
X9239538Y16993142D01*
X9288785Y17066845D01*
X9322706Y17148740D01*
X9337740Y17224321D01*
X10450000Y17224321D01*
X10450000Y17135679D01*
X10467294Y17048740D01*
X10501215Y16966845D01*
X10550462Y16893142D01*
X10613142Y16830462D01*
X10686845Y16781215D01*
X10768740Y16747294D01*
X10855679Y16730000D01*
X10944321Y16730000D01*
X11031260Y16747294D01*
X11113155Y16781215D01*
X11186858Y16830462D01*
X11249538Y16893142D01*
X11298785Y16966845D01*
X11332706Y17048740D01*
X11350000Y17135679D01*
X11350000Y17224321D01*
X11332706Y17311260D01*
X11298785Y17393155D01*
X11249538Y17466858D01*
X11186858Y17529538D01*
X11113155Y17578785D01*
X11031260Y17612706D01*
X10944321Y17630000D01*
X10855679Y17630000D01*
X10768740Y17612706D01*
X10686845Y17578785D01*
X10613142Y17529538D01*
X10550462Y17466858D01*
X10501215Y17393155D01*
X10467294Y17311260D01*
X10450000Y17224321D01*
X9337740Y17224321D01*
X9340000Y17235679D01*
X9340000Y17324321D01*
X9322706Y17411260D01*
X9288785Y17493155D01*
X9239538Y17566858D01*
X9176858Y17629538D01*
X9103155Y17678785D01*
X9021260Y17712706D01*
X8934321Y17730000D01*
X8845679Y17730000D01*
X8758740Y17712706D01*
X8676845Y17678785D01*
X8603142Y17629538D01*
X8540462Y17566858D01*
X8491215Y17493155D01*
X8457294Y17411260D01*
X8440000Y17324321D01*
X7427297Y17324321D01*
X7398785Y17393155D01*
X7349538Y17466858D01*
X7286858Y17529538D01*
X7213155Y17578785D01*
X7131260Y17612706D01*
X7044321Y17630000D01*
X6955679Y17630000D01*
X6868740Y17612706D01*
X6786845Y17578785D01*
X6713142Y17529538D01*
X6650462Y17466858D01*
X6601215Y17393155D01*
X6567294Y17311260D01*
X6550000Y17224321D01*
X4868002Y17224321D01*
X4868002Y17945382D01*
X6416941Y19494321D01*
X8290000Y19494321D01*
X8290000Y19405679D01*
X8307294Y19318740D01*
X8341215Y19236845D01*
X8390462Y19163142D01*
X8453142Y19100462D01*
X8526845Y19051215D01*
X8608740Y19017294D01*
X8695679Y19000000D01*
X8784321Y19000000D01*
X8871260Y19017294D01*
X8953155Y19051215D01*
X9026858Y19100462D01*
X9089538Y19163142D01*
X9138785Y19236845D01*
X9172706Y19318740D01*
X9190000Y19405679D01*
X9190000Y19494321D01*
X9172706Y19581260D01*
X9138785Y19663155D01*
X9089538Y19736858D01*
X9026858Y19799538D01*
X8953155Y19848785D01*
X8871260Y19882706D01*
X8784321Y19900000D01*
X8695679Y19900000D01*
X8608740Y19882706D01*
X8526845Y19848785D01*
X8453142Y19799538D01*
X8390462Y19736858D01*
X8341215Y19663155D01*
X8307294Y19581260D01*
X8290000Y19494321D01*
X6416941Y19494321D01*
X8543525Y21620904D01*
X8555922Y21631078D01*
X8596536Y21680565D01*
X8626714Y21737025D01*
X8645298Y21798288D01*
X8650001Y21846038D01*
X8650001Y21846045D01*
X8651572Y21861998D01*
X8650001Y21877951D01*
X8650001Y22612048D01*
X8651572Y22628001D01*
X8650001Y22643954D01*
X8650001Y22643962D01*
X8645298Y22691712D01*
X8626714Y22752975D01*
X8596536Y22809435D01*
X8555922Y22858922D01*
X8543524Y22869097D01*
X8369545Y23043076D01*
X8406813Y23088743D01*
X8429764Y23098957D01*
X8454156Y23097347D01*
G04 #@! TA.AperFunction,Conductor*
D17*
G36*
X8454156Y23097347D02*
G01*
X8483009Y23079637D01*
X8788481Y22769607D01*
X8797202Y22762024D01*
X8897770Y22687372D01*
X8910378Y22679808D01*
X8918166Y22676642D01*
X9036654Y22636050D01*
X9050963Y22632671D01*
X9059344Y22632019D01*
X9184563Y22629319D01*
X9199223Y22630445D01*
X9207407Y22632369D01*
X9327534Y22667818D01*
X9341160Y22673341D01*
X9348373Y22677659D01*
X9452066Y22747908D01*
X9452150Y22747965D01*
X9546684Y22812196D01*
X9645100Y22841672D01*
X9747823Y22840152D01*
X9845325Y22807777D01*
X9933263Y22744144D01*
X10587861Y22097490D01*
X10566845Y22088785D01*
X10493142Y22039538D01*
X10430462Y21976858D01*
X10381215Y21903155D01*
X10347294Y21821260D01*
X10330000Y21734321D01*
X10330000Y21645679D01*
X10347294Y21558740D01*
X10381215Y21476845D01*
X10430462Y21403142D01*
X10493142Y21340462D01*
X10566845Y21291215D01*
X10648740Y21257294D01*
X10690000Y21249087D01*
X10690000Y21165679D01*
X10707294Y21078740D01*
X10741215Y20996845D01*
X10790462Y20923142D01*
X10853142Y20860462D01*
X10926845Y20811215D01*
X11008740Y20777294D01*
X11095679Y20760000D01*
X11184321Y20760000D01*
X11271260Y20777294D01*
X11340812Y20806103D01*
X11361215Y20756845D01*
X11371337Y20741696D01*
X11353142Y20729538D01*
X11290462Y20666858D01*
X11241215Y20593155D01*
X11207294Y20511260D01*
X11190000Y20424321D01*
X11190000Y20335679D01*
X11207294Y20248740D01*
X11241215Y20166845D01*
X11290462Y20093142D01*
X11353142Y20030462D01*
X11426845Y19981215D01*
X11508740Y19947294D01*
X11595679Y19930000D01*
X11684321Y19930000D01*
X11771260Y19947294D01*
X11853155Y19981215D01*
X11926858Y20030462D01*
X11989538Y20093142D01*
X12015554Y20132078D01*
X12016845Y20131215D01*
X12098740Y20097294D01*
X12185679Y20080000D01*
X12274321Y20080000D01*
X12361260Y20097294D01*
X12443155Y20131215D01*
X12516858Y20180462D01*
X12522613Y20186217D01*
X12623492Y20086563D01*
X12621215Y20083155D01*
X12587294Y20001260D01*
X12570000Y19914321D01*
X12570000Y19825679D01*
X12587294Y19738740D01*
X12621215Y19656845D01*
X12670462Y19583142D01*
X12722952Y19530652D01*
X12691215Y19483155D01*
X12657294Y19401260D01*
X12640000Y19314321D01*
X12640000Y19225679D01*
X12657294Y19138740D01*
X12691215Y19056845D01*
X12740462Y18983142D01*
X12803142Y18920462D01*
X12876845Y18871215D01*
X12958740Y18837294D01*
X13045679Y18820000D01*
X13134321Y18820000D01*
X13221260Y18837294D01*
X13303155Y18871215D01*
X13376858Y18920462D01*
X13439538Y18983142D01*
X13488785Y19056845D01*
X13517205Y19125460D01*
X13519619Y19119700D01*
X13534466Y19009370D01*
X13520106Y18898978D01*
X13477531Y18796120D01*
X13406627Y18703916D01*
X8220202Y13535076D01*
X8128228Y13464757D01*
X8025761Y13422534D01*
X7915864Y13408284D01*
X7806022Y13422974D01*
X7703728Y13465603D01*
X7612034Y13536288D01*
X5880001Y15276286D01*
X5880001Y15334321D01*
X8440000Y15334321D01*
X8440000Y15245679D01*
X8457294Y15158740D01*
X8491215Y15076845D01*
X8540462Y15003142D01*
X8603142Y14940462D01*
X8676845Y14891215D01*
X8758740Y14857294D01*
X8845679Y14840000D01*
X8934321Y14840000D01*
X9021260Y14857294D01*
X9103155Y14891215D01*
X9176858Y14940462D01*
X9239538Y15003142D01*
X9288785Y15076845D01*
X9322706Y15158740D01*
X9340000Y15245679D01*
X9340000Y15334321D01*
X9322706Y15421260D01*
X9288785Y15503155D01*
X9239538Y15576858D01*
X9176858Y15639538D01*
X9103155Y15688785D01*
X9021260Y15722706D01*
X8934321Y15740000D01*
X8845679Y15740000D01*
X8758740Y15722706D01*
X8676845Y15688785D01*
X8603142Y15639538D01*
X8540462Y15576858D01*
X8491215Y15503155D01*
X8457294Y15421260D01*
X8440000Y15334321D01*
X5880001Y15334321D01*
X5880001Y15429046D01*
X5881572Y15444999D01*
X5880001Y15460952D01*
X5880001Y15460960D01*
X5875298Y15508710D01*
X5856714Y15569973D01*
X5826536Y15626433D01*
X5802534Y15655679D01*
X5796097Y15663523D01*
X5796093Y15663527D01*
X5785922Y15675920D01*
X5773529Y15686091D01*
X5115298Y16344321D01*
X7450000Y16344321D01*
X7450000Y16255679D01*
X7467294Y16168740D01*
X7501215Y16086845D01*
X7550462Y16013142D01*
X7613142Y15950462D01*
X7686845Y15901215D01*
X7768740Y15867294D01*
X7855679Y15850000D01*
X7944321Y15850000D01*
X8031260Y15867294D01*
X8113155Y15901215D01*
X8186858Y15950462D01*
X8249538Y16013142D01*
X8298785Y16086845D01*
X8332706Y16168740D01*
X8350000Y16255679D01*
X8350000Y16344321D01*
X9440000Y16344321D01*
X9440000Y16255679D01*
X9457294Y16168740D01*
X9491215Y16086845D01*
X9540462Y16013142D01*
X9603142Y15950462D01*
X9676845Y15901215D01*
X9758740Y15867294D01*
X9845679Y15850000D01*
X9934321Y15850000D01*
X10021260Y15867294D01*
X10103155Y15901215D01*
X10176858Y15950462D01*
X10239538Y16013142D01*
X10288785Y16086845D01*
X10322706Y16168740D01*
X10340000Y16255679D01*
X10340000Y16344321D01*
X10322706Y16431260D01*
X10288785Y16513155D01*
X10239538Y16586858D01*
X10176858Y16649538D01*
X10103155Y16698785D01*
X10021260Y16732706D01*
X9934321Y16750000D01*
X9845679Y16750000D01*
X9758740Y16732706D01*
X9676845Y16698785D01*
X9603142Y16649538D01*
X9540462Y16586858D01*
X9491215Y16513155D01*
X9457294Y16431260D01*
X9440000Y16344321D01*
X8350000Y16344321D01*
X8332706Y16431260D01*
X8298785Y16513155D01*
X8249538Y16586858D01*
X8186858Y16649538D01*
X8113155Y16698785D01*
X8031260Y16732706D01*
X7944321Y16750000D01*
X7855679Y16750000D01*
X7768740Y16732706D01*
X7686845Y16698785D01*
X7613142Y16649538D01*
X7550462Y16586858D01*
X7501215Y16513155D01*
X7467294Y16431260D01*
X7450000Y16344321D01*
X5115298Y16344321D01*
X4868002Y16591616D01*
X4868002Y17224321D01*
X6550000Y17224321D01*
X6550000Y17135679D01*
X6567294Y17048740D01*
X6601215Y16966845D01*
X6650462Y16893142D01*
X6713142Y16830462D01*
X6786845Y16781215D01*
X6868740Y16747294D01*
X6955679Y16730000D01*
X7044321Y16730000D01*
X7131260Y16747294D01*
X7213155Y16781215D01*
X7286858Y16830462D01*
X7349538Y16893142D01*
X7398785Y16966845D01*
X7432706Y17048740D01*
X7450000Y17135679D01*
X7450000Y17224321D01*
X7432706Y17311260D01*
X7427297Y17324321D01*
X8440000Y17324321D01*
X8440000Y17235679D01*
X8457294Y17148740D01*
X8491215Y17066845D01*
X8540462Y16993142D01*
X8603142Y16930462D01*
X8676845Y16881215D01*
X8758740Y16847294D01*
X8845679Y16830000D01*
X8934321Y16830000D01*
X9021260Y16847294D01*
X9103155Y16881215D01*
X9176858Y16930462D01*
X9239538Y16993142D01*
X9288785Y17066845D01*
X9322706Y17148740D01*
X9337740Y17224321D01*
X10450000Y17224321D01*
X10450000Y17135679D01*
X10467294Y17048740D01*
X10501215Y16966845D01*
X10550462Y16893142D01*
X10613142Y16830462D01*
X10686845Y16781215D01*
X10768740Y16747294D01*
X10855679Y16730000D01*
X10944321Y16730000D01*
X11031260Y16747294D01*
X11113155Y16781215D01*
X11186858Y16830462D01*
X11249538Y16893142D01*
X11298785Y16966845D01*
X11332706Y17048740D01*
X11350000Y17135679D01*
X11350000Y17224321D01*
X11332706Y17311260D01*
X11298785Y17393155D01*
X11249538Y17466858D01*
X11186858Y17529538D01*
X11113155Y17578785D01*
X11031260Y17612706D01*
X10944321Y17630000D01*
X10855679Y17630000D01*
X10768740Y17612706D01*
X10686845Y17578785D01*
X10613142Y17529538D01*
X10550462Y17466858D01*
X10501215Y17393155D01*
X10467294Y17311260D01*
X10450000Y17224321D01*
X9337740Y17224321D01*
X9340000Y17235679D01*
X9340000Y17324321D01*
X9322706Y17411260D01*
X9288785Y17493155D01*
X9239538Y17566858D01*
X9176858Y17629538D01*
X9103155Y17678785D01*
X9021260Y17712706D01*
X8934321Y17730000D01*
X8845679Y17730000D01*
X8758740Y17712706D01*
X8676845Y17678785D01*
X8603142Y17629538D01*
X8540462Y17566858D01*
X8491215Y17493155D01*
X8457294Y17411260D01*
X8440000Y17324321D01*
X7427297Y17324321D01*
X7398785Y17393155D01*
X7349538Y17466858D01*
X7286858Y17529538D01*
X7213155Y17578785D01*
X7131260Y17612706D01*
X7044321Y17630000D01*
X6955679Y17630000D01*
X6868740Y17612706D01*
X6786845Y17578785D01*
X6713142Y17529538D01*
X6650462Y17466858D01*
X6601215Y17393155D01*
X6567294Y17311260D01*
X6550000Y17224321D01*
X4868002Y17224321D01*
X4868002Y17945382D01*
X6416941Y19494321D01*
X8290000Y19494321D01*
X8290000Y19405679D01*
X8307294Y19318740D01*
X8341215Y19236845D01*
X8390462Y19163142D01*
X8453142Y19100462D01*
X8526845Y19051215D01*
X8608740Y19017294D01*
X8695679Y19000000D01*
X8784321Y19000000D01*
X8871260Y19017294D01*
X8953155Y19051215D01*
X9026858Y19100462D01*
X9089538Y19163142D01*
X9138785Y19236845D01*
X9172706Y19318740D01*
X9190000Y19405679D01*
X9190000Y19494321D01*
X9172706Y19581260D01*
X9138785Y19663155D01*
X9089538Y19736858D01*
X9026858Y19799538D01*
X8953155Y19848785D01*
X8871260Y19882706D01*
X8784321Y19900000D01*
X8695679Y19900000D01*
X8608740Y19882706D01*
X8526845Y19848785D01*
X8453142Y19799538D01*
X8390462Y19736858D01*
X8341215Y19663155D01*
X8307294Y19581260D01*
X8290000Y19494321D01*
X6416941Y19494321D01*
X8543525Y21620904D01*
X8555922Y21631078D01*
X8596536Y21680565D01*
X8626714Y21737025D01*
X8645298Y21798288D01*
X8650001Y21846038D01*
X8650001Y21846045D01*
X8651572Y21861998D01*
X8650001Y21877951D01*
X8650001Y22612048D01*
X8651572Y22628001D01*
X8650001Y22643954D01*
X8650001Y22643962D01*
X8645298Y22691712D01*
X8626714Y22752975D01*
X8596536Y22809435D01*
X8555922Y22858922D01*
X8543524Y22869097D01*
X8369545Y23043076D01*
X8406813Y23088743D01*
X8429764Y23098957D01*
X8454156Y23097347D01*
G37*
G04 #@! TD.AperFunction*
M02*
