G04 #@! TF.GenerationSoftware,KiCad,Pcbnew,5.1.9-1.fc33*
G04 #@! TF.CreationDate,2021-04-27T07:11:35+02:00*
G04 #@! TF.ProjectId,reDIP-SID,72654449-502d-4534-9944-2e6b69636164,0.2*
G04 #@! TF.SameCoordinates,PX5e28010PY8011a50*
G04 #@! TF.FileFunction,Other,Fab,Top*
%FSLAX46Y46*%
G04 Gerber Fmt 4.6, Leading zero omitted, Abs format (unit mm)*
G04 Created by KiCad (PCBNEW 5.1.9-1.fc33) date 2021-04-27 07:11:35*
%MOMM*%
%LPD*%
G01*
G04 APERTURE LIST*
%ADD10C,0.100000*%
%ADD11C,0.040000*%
%ADD12C,0.050000*%
%ADD13C,0.075000*%
%ADD14C,0.150000*%
%ADD15C,0.062500*%
%ADD16C,0.110000*%
G04 APERTURE END LIST*
D10*
X4041802Y14003934D02*
X4466066Y14428198D01*
X4253934Y13791802D02*
X4041802Y14003934D01*
X4678198Y14216066D02*
X4253934Y13791802D01*
X4466066Y14428198D02*
X4678198Y14216066D01*
X11550000Y27050000D02*
X11250000Y27350000D01*
X11550000Y27050000D02*
X11550000Y26150000D01*
X9950000Y27350000D02*
X11250000Y27350000D01*
X9950000Y26150000D02*
X9950000Y27350000D01*
X11550000Y26150000D02*
X9950000Y26150000D01*
X12560000Y11220000D02*
X12560000Y14220000D01*
X12560000Y14220000D02*
X14560000Y14220000D01*
X14560000Y14220000D02*
X14560000Y11220000D01*
X14560000Y11220000D02*
X12560000Y11220000D01*
X12910000Y14220000D02*
X12910000Y14470000D01*
X12910000Y14470000D02*
X13160000Y14470000D01*
X13160000Y14470000D02*
X13410000Y14220000D01*
X13710000Y14220000D02*
X13960000Y14470000D01*
X13960000Y14470000D02*
X14210000Y14470000D01*
X14210000Y14470000D02*
X14210000Y14220000D01*
X12910000Y11220000D02*
X12910000Y10970000D01*
X12910000Y10970000D02*
X13160000Y10970000D01*
X13160000Y10970000D02*
X13410000Y11220000D01*
X13710000Y11220000D02*
X13960000Y10970000D01*
X13960000Y10970000D02*
X14210000Y10970000D01*
X14210000Y10970000D02*
X14210000Y11220000D01*
X4198198Y18993934D02*
X3986066Y18781802D01*
X3986066Y18781802D02*
X3561802Y19206066D01*
X3561802Y19206066D02*
X3773934Y19418198D01*
X3773934Y19418198D02*
X4198198Y18993934D01*
X3698198Y16353934D02*
X3486066Y16141802D01*
X3486066Y16141802D02*
X3061802Y16566066D01*
X3061802Y16566066D02*
X3273934Y16778198D01*
X3273934Y16778198D02*
X3698198Y16353934D01*
X6696066Y22948198D02*
X6908198Y22736066D01*
X6908198Y22736066D02*
X6483934Y22311802D01*
X6483934Y22311802D02*
X6271802Y22523934D01*
X6271802Y22523934D02*
X6696066Y22948198D01*
X4420000Y29270000D02*
X4420000Y36570000D01*
X13360000Y36570000D02*
X4420000Y36570000D01*
X13360000Y29270000D02*
X13360000Y36570000D01*
X13360000Y29270000D02*
X4420000Y29270000D01*
X14390000Y9105000D02*
X14770000Y9105000D01*
X14390000Y9655000D02*
X14390000Y9005000D01*
X14770000Y9655000D02*
X14390000Y9655000D01*
X14770000Y9005000D02*
X14770000Y9655000D01*
X14390000Y9005000D02*
X14770000Y9005000D01*
X14770000Y7055000D02*
X14390000Y7055000D01*
X14770000Y6505000D02*
X14770000Y7155000D01*
X14390000Y6505000D02*
X14770000Y6505000D01*
X14390000Y7155000D02*
X14390000Y6505000D01*
X14770000Y7155000D02*
X14390000Y7155000D01*
X13190000Y10050000D02*
X13190000Y10350000D01*
X13190000Y10350000D02*
X13790000Y10350000D01*
X13790000Y10350000D02*
X13790000Y10050000D01*
X13790000Y10050000D02*
X13190000Y10050000D01*
X6983934Y21821802D02*
X6771802Y22033934D01*
X6771802Y22033934D02*
X7196066Y22458198D01*
X7196066Y22458198D02*
X7408198Y22246066D01*
X7408198Y22246066D02*
X6983934Y21821802D01*
X6890000Y10860000D02*
X11890000Y10860000D01*
X11890000Y10860000D02*
X11890000Y5860000D01*
X11890000Y5860000D02*
X5890000Y5860000D01*
X5890000Y5860000D02*
X5890000Y9860000D01*
X5890000Y9860000D02*
X6890000Y10860000D01*
X13790000Y5810000D02*
X13190000Y5810000D01*
X13790000Y6110000D02*
X13790000Y5810000D01*
X13190000Y6110000D02*
X13790000Y6110000D01*
X13190000Y5810000D02*
X13190000Y6110000D01*
X6150000Y25220000D02*
X6150000Y24470000D01*
X6150000Y24470000D02*
X7150000Y24470000D01*
X7150000Y24470000D02*
X7150000Y25470000D01*
X7150000Y25470000D02*
X6400000Y25470000D01*
X6150000Y25220000D02*
X6400000Y25470000D01*
X3850000Y25220000D02*
X3850000Y24470000D01*
X3850000Y24470000D02*
X4850000Y24470000D01*
X4850000Y24470000D02*
X4850000Y25470000D01*
X4850000Y25470000D02*
X4100000Y25470000D01*
X3850000Y25220000D02*
X4100000Y25470000D01*
X13132641Y17987107D02*
X13132641Y16572893D01*
X8890000Y22229747D02*
X13132641Y17987107D01*
X3940253Y17280000D02*
X8890000Y22229747D01*
X8890000Y12330253D02*
X3940253Y17280000D01*
X13132641Y16572893D02*
X8890000Y12330253D01*
X13790000Y6510000D02*
X13190000Y6510000D01*
X13790000Y6810000D02*
X13790000Y6510000D01*
X13190000Y6810000D02*
X13790000Y6810000D01*
X13190000Y6510000D02*
X13190000Y6810000D01*
X7750000Y27150000D02*
X7750000Y26250000D01*
X9350000Y27150000D02*
X7750000Y27150000D01*
X9350000Y25950000D02*
X9350000Y27150000D01*
X8050000Y25950000D02*
X9350000Y25950000D01*
X8050000Y25950000D02*
X7750000Y26250000D01*
X13970000Y5080000D02*
X15240000Y3810000D01*
X2540000Y5080000D02*
X13970000Y5080000D01*
X2540000Y0D02*
X2540000Y5080000D01*
X15240000Y0D02*
X2540000Y0D01*
X15240000Y3810000D02*
X15240000Y0D01*
X5070000Y10240000D02*
X5370000Y10240000D01*
X5370000Y10240000D02*
X5370000Y9640000D01*
X5370000Y9640000D02*
X5070000Y9640000D01*
X5070000Y9640000D02*
X5070000Y10240000D01*
X12850000Y27450000D02*
X12850000Y27150000D01*
X12850000Y27150000D02*
X12250000Y27150000D01*
X12250000Y27150000D02*
X12250000Y27450000D01*
X12250000Y27450000D02*
X12850000Y27450000D01*
X7250000Y26650000D02*
X6950000Y26650000D01*
X6950000Y26650000D02*
X6950000Y27250000D01*
X6950000Y27250000D02*
X7250000Y27250000D01*
X7250000Y27250000D02*
X7250000Y26650000D01*
X3482340Y13001802D02*
X3058076Y13426066D01*
X3694472Y13213934D02*
X3482340Y13001802D01*
X3270208Y13638198D02*
X3694472Y13213934D01*
X3058076Y13426066D02*
X3270208Y13638198D01*
X13790000Y8580000D02*
X13790000Y8280000D01*
X13790000Y8280000D02*
X13190000Y8280000D01*
X13190000Y8280000D02*
X13190000Y8580000D01*
X13190000Y8580000D02*
X13790000Y8580000D01*
X13790000Y7880000D02*
X13790000Y7580000D01*
X13790000Y7580000D02*
X13190000Y7580000D01*
X13190000Y7580000D02*
X13190000Y7880000D01*
X13190000Y7880000D02*
X13790000Y7880000D01*
X13190000Y9350000D02*
X13190000Y9650000D01*
X13190000Y9650000D02*
X13790000Y9650000D01*
X13790000Y9650000D02*
X13790000Y9350000D01*
X13790000Y9350000D02*
X13190000Y9350000D01*
X5350000Y25170000D02*
X5650000Y25170000D01*
X5650000Y25170000D02*
X5650000Y24570000D01*
X5650000Y24570000D02*
X5350000Y24570000D01*
X5350000Y24570000D02*
X5350000Y25170000D01*
X3050000Y25170000D02*
X3350000Y25170000D01*
X3350000Y25170000D02*
X3350000Y24570000D01*
X3350000Y24570000D02*
X3050000Y24570000D01*
X3050000Y24570000D02*
X3050000Y25170000D01*
X12800330Y21659010D02*
X11739670Y21659010D01*
X14391320Y23250000D02*
X12800330Y21659010D01*
X12270000Y25371320D02*
X14391320Y23250000D01*
X10148680Y23250000D02*
X12270000Y25371320D01*
X11739670Y21659010D02*
X10148680Y23250000D01*
X3710000Y26550000D02*
X3110000Y26550000D01*
X3710000Y26450000D02*
X3110000Y26450000D01*
X3710000Y27350000D02*
X3710000Y26350000D01*
X3110000Y27350000D02*
X3710000Y27350000D01*
X3110000Y26350000D02*
X3110000Y27350000D01*
X3710000Y26350000D02*
X3110000Y26350000D01*
X5630000Y26550000D02*
X5030000Y26550000D01*
X5630000Y26450000D02*
X5030000Y26450000D01*
X5630000Y27350000D02*
X5630000Y26350000D01*
X5030000Y27350000D02*
X5630000Y27350000D01*
X5030000Y26350000D02*
X5030000Y27350000D01*
X5630000Y26350000D02*
X5030000Y26350000D01*
X12250000Y26450000D02*
X12250000Y26750000D01*
X12250000Y26750000D02*
X12850000Y26750000D01*
X12850000Y26750000D02*
X12850000Y26450000D01*
X12850000Y26450000D02*
X12250000Y26450000D01*
X14080000Y25750000D02*
X14080000Y26050000D01*
X14080000Y26050000D02*
X14680000Y26050000D01*
X14680000Y26050000D02*
X14680000Y25750000D01*
X14680000Y25750000D02*
X14080000Y25750000D01*
X5370000Y8230000D02*
X5070000Y8230000D01*
X5070000Y8230000D02*
X5070000Y8830000D01*
X5070000Y8830000D02*
X5370000Y8830000D01*
X5370000Y8830000D02*
X5370000Y8230000D01*
X6540000Y27240000D02*
X6540000Y26240000D01*
X6040000Y27240000D02*
X6540000Y27240000D01*
X6040000Y26240000D02*
X6040000Y27240000D01*
X6540000Y26240000D02*
X6040000Y26240000D01*
X4620000Y27240000D02*
X4620000Y26240000D01*
X4120000Y27240000D02*
X4620000Y27240000D01*
X4120000Y26240000D02*
X4120000Y27240000D01*
X4620000Y26240000D02*
X4120000Y26240000D01*
X5678198Y13503934D02*
X5466066Y13291802D01*
X5466066Y13291802D02*
X5041802Y13716066D01*
X5041802Y13716066D02*
X5253934Y13928198D01*
X5253934Y13928198D02*
X5678198Y13503934D01*
X14170000Y18430000D02*
X14170000Y18730000D01*
X14170000Y18730000D02*
X14770000Y18730000D01*
X14770000Y18730000D02*
X14770000Y18430000D01*
X14770000Y18430000D02*
X14170000Y18430000D01*
X4513934Y19531802D02*
X4301802Y19743934D01*
X4301802Y19743934D02*
X4726066Y20168198D01*
X4726066Y20168198D02*
X4938198Y19956066D01*
X4938198Y19956066D02*
X4513934Y19531802D01*
X5178198Y13013934D02*
X4966066Y12801802D01*
X4966066Y12801802D02*
X4541802Y13226066D01*
X4541802Y13226066D02*
X4753934Y13438198D01*
X4753934Y13438198D02*
X5178198Y13013934D01*
X3976066Y14928198D02*
X4188198Y14716066D01*
X4188198Y14716066D02*
X3763934Y14291802D01*
X3763934Y14291802D02*
X3551802Y14503934D01*
X3551802Y14503934D02*
X3976066Y14928198D01*
X14770000Y20490000D02*
X14170000Y20490000D01*
X14770000Y20790000D02*
X14770000Y20490000D01*
X14170000Y20790000D02*
X14770000Y20790000D01*
X14170000Y20490000D02*
X14170000Y20790000D01*
X14770000Y19790000D02*
X14170000Y19790000D01*
X14770000Y20090000D02*
X14770000Y19790000D01*
X14170000Y20090000D02*
X14770000Y20090000D01*
X14170000Y19790000D02*
X14170000Y20090000D01*
X14080000Y25050000D02*
X14080000Y25350000D01*
X14080000Y25350000D02*
X14680000Y25350000D01*
X14680000Y25350000D02*
X14680000Y25050000D01*
X14680000Y25050000D02*
X14080000Y25050000D01*
X14680000Y26750000D02*
X14680000Y26450000D01*
X14680000Y26450000D02*
X14080000Y26450000D01*
X14080000Y26450000D02*
X14080000Y26750000D01*
X14080000Y26750000D02*
X14680000Y26750000D01*
X14680000Y27450000D02*
X14680000Y27150000D01*
X14680000Y27150000D02*
X14080000Y27150000D01*
X14080000Y27150000D02*
X14080000Y27450000D01*
X14080000Y27450000D02*
X14680000Y27450000D01*
X14770000Y21190000D02*
X14170000Y21190000D01*
X14770000Y21490000D02*
X14770000Y21190000D01*
X14170000Y21490000D02*
X14770000Y21490000D01*
X14170000Y21190000D02*
X14170000Y21490000D01*
X3486066Y18418198D02*
X3698198Y18206066D01*
X3698198Y18206066D02*
X3273934Y17781802D01*
X3273934Y17781802D02*
X3061802Y17993934D01*
X3061802Y17993934D02*
X3486066Y18418198D01*
D11*
X4889492Y14533224D02*
X4889492Y14516388D01*
X4872656Y14482716D01*
X4855820Y14465880D01*
X4822148Y14449044D01*
X4788477Y14449044D01*
X4763223Y14457462D01*
X4721133Y14482716D01*
X4695879Y14507970D01*
X4670625Y14550060D01*
X4662208Y14575313D01*
X4662208Y14608985D01*
X4679043Y14642657D01*
X4695879Y14659493D01*
X4729551Y14676329D01*
X4746387Y14676329D01*
X5074687Y14684747D02*
X4973671Y14583731D01*
X5024179Y14634239D02*
X4847402Y14811016D01*
X4855820Y14768926D01*
X4855820Y14735254D01*
X4847402Y14710000D01*
X5158866Y14768926D02*
X5192538Y14802598D01*
X5200956Y14827852D01*
X5200956Y14844688D01*
X5192538Y14886777D01*
X5167284Y14928867D01*
X5099940Y14996210D01*
X5074687Y15004628D01*
X5057851Y15004628D01*
X5032597Y14996210D01*
X4998925Y14962539D01*
X4990507Y14937285D01*
X4990507Y14920449D01*
X4998925Y14895195D01*
X5041015Y14853105D01*
X5066269Y14844688D01*
X5083104Y14844688D01*
X5108358Y14853105D01*
X5142030Y14886777D01*
X5150448Y14912031D01*
X5150448Y14928867D01*
X5142030Y14954121D01*
D12*
X10466666Y26941667D02*
X10700000Y26591667D01*
X10700000Y26941667D02*
X10466666Y26591667D01*
X11016666Y26591667D02*
X10816666Y26591667D01*
X10916666Y26591667D02*
X10916666Y26941667D01*
X10883333Y26891667D01*
X10850000Y26858334D01*
X10816666Y26841667D01*
D13*
X13762380Y12053334D02*
X13786190Y12124762D01*
X13786190Y12243810D01*
X13762380Y12291429D01*
X13738571Y12315239D01*
X13690952Y12339048D01*
X13643333Y12339048D01*
X13595714Y12315239D01*
X13571904Y12291429D01*
X13548095Y12243810D01*
X13524285Y12148572D01*
X13500476Y12100953D01*
X13476666Y12077143D01*
X13429047Y12053334D01*
X13381428Y12053334D01*
X13333809Y12077143D01*
X13310000Y12100953D01*
X13286190Y12148572D01*
X13286190Y12267620D01*
X13310000Y12339048D01*
X13286190Y12505715D02*
X13786190Y12624762D01*
X13429047Y12720000D01*
X13786190Y12815239D01*
X13286190Y12934286D01*
X13786190Y13386667D02*
X13786190Y13100953D01*
X13786190Y13243810D02*
X13286190Y13243810D01*
X13357619Y13196191D01*
X13405238Y13148572D01*
X13429047Y13100953D01*
D11*
X3046387Y19743672D02*
X3071641Y19886777D01*
X2945372Y19844688D02*
X3122148Y20021464D01*
X3189492Y19954121D01*
X3197910Y19928867D01*
X3197910Y19912031D01*
X3189492Y19886777D01*
X3164238Y19861523D01*
X3138984Y19853105D01*
X3122148Y19853105D01*
X3096895Y19861523D01*
X3029551Y19928867D01*
X3214746Y19575313D02*
X3113730Y19676329D01*
X3164238Y19625821D02*
X3341015Y19802598D01*
X3298925Y19794180D01*
X3265253Y19794180D01*
X3240000Y19802598D01*
X3450448Y19693165D02*
X3559881Y19583731D01*
X3433612Y19575313D01*
X3458866Y19550060D01*
X3467284Y19524806D01*
X3467284Y19507970D01*
X3458866Y19482716D01*
X3416776Y19440626D01*
X3391522Y19432209D01*
X3374687Y19432209D01*
X3349433Y19440626D01*
X3298925Y19491134D01*
X3290507Y19516388D01*
X3290507Y19533224D01*
X2536387Y17153672D02*
X2561641Y17296777D01*
X2435372Y17254688D02*
X2612148Y17431464D01*
X2679492Y17364121D01*
X2687910Y17338867D01*
X2687910Y17322031D01*
X2679492Y17296777D01*
X2654238Y17271523D01*
X2628984Y17263105D01*
X2612148Y17263105D01*
X2586895Y17271523D01*
X2519551Y17338867D01*
X2704746Y16985313D02*
X2603730Y17086329D01*
X2654238Y17035821D02*
X2831015Y17212598D01*
X2788925Y17204180D01*
X2755253Y17204180D01*
X2730000Y17212598D01*
X2932030Y17077911D02*
X2948866Y17077911D01*
X2974120Y17069493D01*
X3016209Y17027403D01*
X3024627Y17002149D01*
X3024627Y16985313D01*
X3016209Y16960060D01*
X2999374Y16943224D01*
X2965702Y16926388D01*
X2763671Y16926388D01*
X2873104Y16816955D01*
X7160507Y23060567D02*
X7017402Y23085821D01*
X7059492Y22959552D02*
X6882715Y23136329D01*
X6950059Y23203672D01*
X6975312Y23212090D01*
X6992148Y23212090D01*
X7017402Y23203672D01*
X7042656Y23178418D01*
X7051074Y23153165D01*
X7051074Y23136329D01*
X7042656Y23111075D01*
X6975312Y23043731D01*
X7042656Y23296270D02*
X7160507Y23414121D01*
X7261522Y23161583D01*
D14*
X8556666Y33467620D02*
X8556666Y32753334D01*
X8509047Y32610477D01*
X8413809Y32515239D01*
X8270952Y32467620D01*
X8175714Y32467620D01*
X9509047Y33467620D02*
X9032857Y33467620D01*
X8985238Y32991429D01*
X9032857Y33039048D01*
X9128095Y33086667D01*
X9366190Y33086667D01*
X9461428Y33039048D01*
X9509047Y32991429D01*
X9556666Y32896191D01*
X9556666Y32658096D01*
X9509047Y32562858D01*
X9461428Y32515239D01*
X9366190Y32467620D01*
X9128095Y32467620D01*
X9032857Y32515239D01*
X8985238Y32562858D01*
D11*
X14713095Y8435477D02*
X14463095Y8435477D01*
X14463095Y8495000D01*
X14475000Y8530715D01*
X14498809Y8554524D01*
X14522619Y8566429D01*
X14570238Y8578334D01*
X14605952Y8578334D01*
X14653571Y8566429D01*
X14677380Y8554524D01*
X14701190Y8530715D01*
X14713095Y8495000D01*
X14713095Y8435477D01*
X14546428Y8792620D02*
X14713095Y8792620D01*
X14451190Y8733096D02*
X14629761Y8673572D01*
X14629761Y8828334D01*
X14683095Y7395477D02*
X14433095Y7395477D01*
X14433095Y7455000D01*
X14445000Y7490715D01*
X14468809Y7514524D01*
X14492619Y7526429D01*
X14540238Y7538334D01*
X14575952Y7538334D01*
X14623571Y7526429D01*
X14647380Y7514524D01*
X14671190Y7490715D01*
X14683095Y7455000D01*
X14683095Y7395477D01*
X14433095Y7621667D02*
X14433095Y7776429D01*
X14528333Y7693096D01*
X14528333Y7728810D01*
X14540238Y7752620D01*
X14552142Y7764524D01*
X14575952Y7776429D01*
X14635476Y7776429D01*
X14659285Y7764524D01*
X14671190Y7752620D01*
X14683095Y7728810D01*
X14683095Y7657381D01*
X14671190Y7633572D01*
X14659285Y7621667D01*
X12748333Y10066905D02*
X12665000Y10185953D01*
X12605476Y10066905D02*
X12605476Y10316905D01*
X12700714Y10316905D01*
X12724523Y10305000D01*
X12736428Y10293096D01*
X12748333Y10269286D01*
X12748333Y10233572D01*
X12736428Y10209762D01*
X12724523Y10197858D01*
X12700714Y10185953D01*
X12605476Y10185953D01*
X12867380Y10066905D02*
X12915000Y10066905D01*
X12938809Y10078810D01*
X12950714Y10090715D01*
X12974523Y10126429D01*
X12986428Y10174048D01*
X12986428Y10269286D01*
X12974523Y10293096D01*
X12962619Y10305000D01*
X12938809Y10316905D01*
X12891190Y10316905D01*
X12867380Y10305000D01*
X12855476Y10293096D01*
X12843571Y10269286D01*
X12843571Y10209762D01*
X12855476Y10185953D01*
X12867380Y10174048D01*
X12891190Y10162143D01*
X12938809Y10162143D01*
X12962619Y10174048D01*
X12974523Y10185953D01*
X12986428Y10209762D01*
X7646328Y22566388D02*
X7503223Y22591642D01*
X7545312Y22465373D02*
X7368536Y22642149D01*
X7435879Y22709493D01*
X7461133Y22717911D01*
X7477969Y22717911D01*
X7503223Y22709493D01*
X7528477Y22684239D01*
X7536895Y22658985D01*
X7536895Y22642149D01*
X7528477Y22616896D01*
X7461133Y22549552D01*
X7814687Y22734747D02*
X7713671Y22633731D01*
X7764179Y22684239D02*
X7587402Y22861016D01*
X7595820Y22818926D01*
X7595820Y22785254D01*
X7587402Y22760000D01*
X7848358Y23004121D02*
X7966209Y22886270D01*
X7738925Y23029375D02*
X7823104Y22861016D01*
X7932538Y22970449D01*
D14*
X8128095Y8907620D02*
X8128095Y8098096D01*
X8175714Y8002858D01*
X8223333Y7955239D01*
X8318571Y7907620D01*
X8509047Y7907620D01*
X8604285Y7955239D01*
X8651904Y8002858D01*
X8699523Y8098096D01*
X8699523Y8907620D01*
X9080476Y8907620D02*
X9747142Y8907620D01*
X9318571Y7907620D01*
D11*
X12738333Y5816905D02*
X12655000Y5935953D01*
X12595476Y5816905D02*
X12595476Y6066905D01*
X12690714Y6066905D01*
X12714523Y6055000D01*
X12726428Y6043096D01*
X12738333Y6019286D01*
X12738333Y5983572D01*
X12726428Y5959762D01*
X12714523Y5947858D01*
X12690714Y5935953D01*
X12595476Y5935953D01*
X12881190Y5959762D02*
X12857380Y5971667D01*
X12845476Y5983572D01*
X12833571Y6007381D01*
X12833571Y6019286D01*
X12845476Y6043096D01*
X12857380Y6055000D01*
X12881190Y6066905D01*
X12928809Y6066905D01*
X12952619Y6055000D01*
X12964523Y6043096D01*
X12976428Y6019286D01*
X12976428Y6007381D01*
X12964523Y5983572D01*
X12952619Y5971667D01*
X12928809Y5959762D01*
X12881190Y5959762D01*
X12857380Y5947858D01*
X12845476Y5935953D01*
X12833571Y5912143D01*
X12833571Y5864524D01*
X12845476Y5840715D01*
X12857380Y5828810D01*
X12881190Y5816905D01*
X12928809Y5816905D01*
X12952619Y5828810D01*
X12964523Y5840715D01*
X12976428Y5864524D01*
X12976428Y5912143D01*
X12964523Y5935953D01*
X12952619Y5947858D01*
X12928809Y5959762D01*
X6459523Y25106905D02*
X6459523Y24904524D01*
X6471428Y24880715D01*
X6483333Y24868810D01*
X6507142Y24856905D01*
X6554761Y24856905D01*
X6578571Y24868810D01*
X6590476Y24880715D01*
X6602380Y24904524D01*
X6602380Y25106905D01*
X6852380Y24856905D02*
X6709523Y24856905D01*
X6780952Y24856905D02*
X6780952Y25106905D01*
X6757142Y25071191D01*
X6733333Y25047381D01*
X6709523Y25035477D01*
X4159523Y25106905D02*
X4159523Y24904524D01*
X4171428Y24880715D01*
X4183333Y24868810D01*
X4207142Y24856905D01*
X4254761Y24856905D01*
X4278571Y24868810D01*
X4290476Y24880715D01*
X4302380Y24904524D01*
X4302380Y25106905D01*
X4409523Y25083096D02*
X4421428Y25095000D01*
X4445238Y25106905D01*
X4504761Y25106905D01*
X4528571Y25095000D01*
X4540476Y25083096D01*
X4552380Y25059286D01*
X4552380Y25035477D01*
X4540476Y24999762D01*
X4397619Y24856905D01*
X4552380Y24856905D01*
D14*
X7964026Y17128478D02*
X8536446Y16556058D01*
X8637461Y16522386D01*
X8704805Y16522386D01*
X8805820Y16556058D01*
X8940507Y16690745D01*
X8974179Y16791760D01*
X8974179Y16859104D01*
X8940507Y16960119D01*
X8368087Y17532539D01*
X9108866Y17667226D02*
X9007851Y17633554D01*
X8940507Y17633554D01*
X8839492Y17667226D01*
X8805820Y17700897D01*
X8772148Y17801913D01*
X8772148Y17869256D01*
X8805820Y17970271D01*
X8940507Y18104958D01*
X9041522Y18138630D01*
X9108866Y18138630D01*
X9209881Y18104958D01*
X9243553Y18071287D01*
X9277225Y17970271D01*
X9277225Y17902928D01*
X9243553Y17801913D01*
X9108866Y17667226D01*
X9075194Y17566210D01*
X9075194Y17498867D01*
X9108866Y17397852D01*
X9243553Y17263165D01*
X9344568Y17229493D01*
X9411912Y17229493D01*
X9512927Y17263165D01*
X9647614Y17397852D01*
X9681286Y17498867D01*
X9681286Y17566210D01*
X9647614Y17667226D01*
X9512927Y17801913D01*
X9411912Y17835584D01*
X9344568Y17835584D01*
X9243553Y17801913D01*
D11*
X12529285Y6550715D02*
X12517380Y6538810D01*
X12481666Y6526905D01*
X12457857Y6526905D01*
X12422142Y6538810D01*
X12398333Y6562620D01*
X12386428Y6586429D01*
X12374523Y6634048D01*
X12374523Y6669762D01*
X12386428Y6717381D01*
X12398333Y6741191D01*
X12422142Y6765000D01*
X12457857Y6776905D01*
X12481666Y6776905D01*
X12517380Y6765000D01*
X12529285Y6753096D01*
X12767380Y6526905D02*
X12624523Y6526905D01*
X12695952Y6526905D02*
X12695952Y6776905D01*
X12672142Y6741191D01*
X12648333Y6717381D01*
X12624523Y6705477D01*
X13005476Y6526905D02*
X12862619Y6526905D01*
X12934047Y6526905D02*
X12934047Y6776905D01*
X12910238Y6741191D01*
X12886428Y6717381D01*
X12862619Y6705477D01*
D15*
X8245238Y26769048D02*
X8245238Y26445239D01*
X8264285Y26407143D01*
X8283333Y26388096D01*
X8321428Y26369048D01*
X8397619Y26369048D01*
X8435714Y26388096D01*
X8454761Y26407143D01*
X8473809Y26445239D01*
X8473809Y26769048D01*
X8854761Y26769048D02*
X8664285Y26769048D01*
X8645238Y26578572D01*
X8664285Y26597620D01*
X8702380Y26616667D01*
X8797619Y26616667D01*
X8835714Y26597620D01*
X8854761Y26578572D01*
X8873809Y26540477D01*
X8873809Y26445239D01*
X8854761Y26407143D01*
X8835714Y26388096D01*
X8797619Y26369048D01*
X8702380Y26369048D01*
X8664285Y26388096D01*
X8645238Y26407143D01*
D14*
X8556666Y3087620D02*
X8556666Y2373334D01*
X8509047Y2230477D01*
X8413809Y2135239D01*
X8270952Y2087620D01*
X8175714Y2087620D01*
X9461428Y3087620D02*
X9270952Y3087620D01*
X9175714Y3040000D01*
X9128095Y2992381D01*
X9032857Y2849524D01*
X8985238Y2659048D01*
X8985238Y2278096D01*
X9032857Y2182858D01*
X9080476Y2135239D01*
X9175714Y2087620D01*
X9366190Y2087620D01*
X9461428Y2135239D01*
X9509047Y2182858D01*
X9556666Y2278096D01*
X9556666Y2516191D01*
X9509047Y2611429D01*
X9461428Y2659048D01*
X9366190Y2706667D01*
X9175714Y2706667D01*
X9080476Y2659048D01*
X9032857Y2611429D01*
X8985238Y2516191D01*
D11*
X4863095Y9779286D02*
X4744047Y9695953D01*
X4863095Y9636429D02*
X4613095Y9636429D01*
X4613095Y9731667D01*
X4625000Y9755477D01*
X4636904Y9767381D01*
X4660714Y9779286D01*
X4696428Y9779286D01*
X4720238Y9767381D01*
X4732142Y9755477D01*
X4744047Y9731667D01*
X4744047Y9636429D01*
X4863095Y10017381D02*
X4863095Y9874524D01*
X4863095Y9945953D02*
X4613095Y9945953D01*
X4648809Y9922143D01*
X4672619Y9898334D01*
X4684523Y9874524D01*
X4863095Y10255477D02*
X4863095Y10112620D01*
X4863095Y10184048D02*
X4613095Y10184048D01*
X4648809Y10160239D01*
X4672619Y10136429D01*
X4684523Y10112620D01*
X13248333Y27186905D02*
X13165000Y27305953D01*
X13105476Y27186905D02*
X13105476Y27436905D01*
X13200714Y27436905D01*
X13224523Y27425000D01*
X13236428Y27413096D01*
X13248333Y27389286D01*
X13248333Y27353572D01*
X13236428Y27329762D01*
X13224523Y27317858D01*
X13200714Y27305953D01*
X13105476Y27305953D01*
X13474523Y27436905D02*
X13355476Y27436905D01*
X13343571Y27317858D01*
X13355476Y27329762D01*
X13379285Y27341667D01*
X13438809Y27341667D01*
X13462619Y27329762D01*
X13474523Y27317858D01*
X13486428Y27294048D01*
X13486428Y27234524D01*
X13474523Y27210715D01*
X13462619Y27198810D01*
X13438809Y27186905D01*
X13379285Y27186905D01*
X13355476Y27198810D01*
X13343571Y27210715D01*
X7213095Y27608334D02*
X7094047Y27525000D01*
X7213095Y27465477D02*
X6963095Y27465477D01*
X6963095Y27560715D01*
X6975000Y27584524D01*
X6986904Y27596429D01*
X7010714Y27608334D01*
X7046428Y27608334D01*
X7070238Y27596429D01*
X7082142Y27584524D01*
X7094047Y27560715D01*
X7094047Y27465477D01*
X7046428Y27822620D02*
X7213095Y27822620D01*
X6951190Y27763096D02*
X7129761Y27703572D01*
X7129761Y27858334D01*
X2764794Y13771539D02*
X2790048Y13914644D01*
X2663779Y13872554D02*
X2840556Y14049331D01*
X2907899Y13981987D01*
X2916317Y13956734D01*
X2916317Y13939898D01*
X2907899Y13914644D01*
X2882645Y13889390D01*
X2857392Y13880972D01*
X2840556Y13880972D01*
X2815302Y13889390D01*
X2747958Y13956734D01*
X3000497Y13889390D02*
X3109930Y13779957D01*
X2983661Y13771539D01*
X3008915Y13746285D01*
X3017332Y13721031D01*
X3017332Y13704195D01*
X3008915Y13678942D01*
X2966825Y13636852D01*
X2941571Y13628434D01*
X2924735Y13628434D01*
X2899481Y13636852D01*
X2848974Y13687359D01*
X2840556Y13712613D01*
X2840556Y13729449D01*
X12728333Y8326905D02*
X12645000Y8445953D01*
X12585476Y8326905D02*
X12585476Y8576905D01*
X12680714Y8576905D01*
X12704523Y8565000D01*
X12716428Y8553096D01*
X12728333Y8529286D01*
X12728333Y8493572D01*
X12716428Y8469762D01*
X12704523Y8457858D01*
X12680714Y8445953D01*
X12585476Y8445953D01*
X12823571Y8553096D02*
X12835476Y8565000D01*
X12859285Y8576905D01*
X12918809Y8576905D01*
X12942619Y8565000D01*
X12954523Y8553096D01*
X12966428Y8529286D01*
X12966428Y8505477D01*
X12954523Y8469762D01*
X12811666Y8326905D01*
X12966428Y8326905D01*
X12758333Y7616905D02*
X12675000Y7735953D01*
X12615476Y7616905D02*
X12615476Y7866905D01*
X12710714Y7866905D01*
X12734523Y7855000D01*
X12746428Y7843096D01*
X12758333Y7819286D01*
X12758333Y7783572D01*
X12746428Y7759762D01*
X12734523Y7747858D01*
X12710714Y7735953D01*
X12615476Y7735953D01*
X12996428Y7616905D02*
X12853571Y7616905D01*
X12925000Y7616905D02*
X12925000Y7866905D01*
X12901190Y7831191D01*
X12877380Y7807381D01*
X12853571Y7795477D01*
X12499285Y9400715D02*
X12487380Y9388810D01*
X12451666Y9376905D01*
X12427857Y9376905D01*
X12392142Y9388810D01*
X12368333Y9412620D01*
X12356428Y9436429D01*
X12344523Y9484048D01*
X12344523Y9519762D01*
X12356428Y9567381D01*
X12368333Y9591191D01*
X12392142Y9615000D01*
X12427857Y9626905D01*
X12451666Y9626905D01*
X12487380Y9615000D01*
X12499285Y9603096D01*
X12737380Y9376905D02*
X12594523Y9376905D01*
X12665952Y9376905D02*
X12665952Y9626905D01*
X12642142Y9591191D01*
X12618333Y9567381D01*
X12594523Y9555477D01*
X12832619Y9603096D02*
X12844523Y9615000D01*
X12868333Y9626905D01*
X12927857Y9626905D01*
X12951666Y9615000D01*
X12963571Y9603096D01*
X12975476Y9579286D01*
X12975476Y9555477D01*
X12963571Y9519762D01*
X12820714Y9376905D01*
X12975476Y9376905D01*
X5589285Y25528334D02*
X5601190Y25516429D01*
X5613095Y25480715D01*
X5613095Y25456905D01*
X5601190Y25421191D01*
X5577380Y25397381D01*
X5553571Y25385477D01*
X5505952Y25373572D01*
X5470238Y25373572D01*
X5422619Y25385477D01*
X5398809Y25397381D01*
X5375000Y25421191D01*
X5363095Y25456905D01*
X5363095Y25480715D01*
X5375000Y25516429D01*
X5386904Y25528334D01*
X5386904Y25623572D02*
X5375000Y25635477D01*
X5363095Y25659286D01*
X5363095Y25718810D01*
X5375000Y25742620D01*
X5386904Y25754524D01*
X5410714Y25766429D01*
X5434523Y25766429D01*
X5470238Y25754524D01*
X5613095Y25611667D01*
X5613095Y25766429D01*
X3289285Y25538334D02*
X3301190Y25526429D01*
X3313095Y25490715D01*
X3313095Y25466905D01*
X3301190Y25431191D01*
X3277380Y25407381D01*
X3253571Y25395477D01*
X3205952Y25383572D01*
X3170238Y25383572D01*
X3122619Y25395477D01*
X3098809Y25407381D01*
X3075000Y25431191D01*
X3063095Y25466905D01*
X3063095Y25490715D01*
X3075000Y25526429D01*
X3086904Y25538334D01*
X3146428Y25752620D02*
X3313095Y25752620D01*
X3051190Y25693096D02*
X3229761Y25633572D01*
X3229761Y25788334D01*
D16*
X12156357Y23944480D02*
X11727043Y23515166D01*
X11701789Y23439404D01*
X11701789Y23388896D01*
X11727043Y23313135D01*
X11828058Y23212120D01*
X11903819Y23186866D01*
X11954327Y23186866D01*
X12030088Y23212120D01*
X12459403Y23641435D01*
X12762449Y22984835D02*
X12408895Y22631282D01*
X12838210Y23313135D02*
X12333134Y23060597D01*
X12661434Y22732297D01*
D11*
X3523095Y26735477D02*
X3273095Y26735477D01*
X3273095Y26795000D01*
X3285000Y26830715D01*
X3308809Y26854524D01*
X3332619Y26866429D01*
X3380238Y26878334D01*
X3415952Y26878334D01*
X3463571Y26866429D01*
X3487380Y26854524D01*
X3511190Y26830715D01*
X3523095Y26795000D01*
X3523095Y26735477D01*
X3296904Y26973572D02*
X3285000Y26985477D01*
X3273095Y27009286D01*
X3273095Y27068810D01*
X3285000Y27092620D01*
X3296904Y27104524D01*
X3320714Y27116429D01*
X3344523Y27116429D01*
X3380238Y27104524D01*
X3523095Y26961667D01*
X3523095Y27116429D01*
X5443095Y26755477D02*
X5193095Y26755477D01*
X5193095Y26815000D01*
X5205000Y26850715D01*
X5228809Y26874524D01*
X5252619Y26886429D01*
X5300238Y26898334D01*
X5335952Y26898334D01*
X5383571Y26886429D01*
X5407380Y26874524D01*
X5431190Y26850715D01*
X5443095Y26815000D01*
X5443095Y26755477D01*
X5443095Y27136429D02*
X5443095Y26993572D01*
X5443095Y27065000D02*
X5193095Y27065000D01*
X5228809Y27041191D01*
X5252619Y27017381D01*
X5264523Y26993572D01*
X13248333Y26510715D02*
X13236428Y26498810D01*
X13200714Y26486905D01*
X13176904Y26486905D01*
X13141190Y26498810D01*
X13117380Y26522620D01*
X13105476Y26546429D01*
X13093571Y26594048D01*
X13093571Y26629762D01*
X13105476Y26677381D01*
X13117380Y26701191D01*
X13141190Y26725000D01*
X13176904Y26736905D01*
X13200714Y26736905D01*
X13236428Y26725000D01*
X13248333Y26713096D01*
X13474523Y26736905D02*
X13355476Y26736905D01*
X13343571Y26617858D01*
X13355476Y26629762D01*
X13379285Y26641667D01*
X13438809Y26641667D01*
X13462619Y26629762D01*
X13474523Y26617858D01*
X13486428Y26594048D01*
X13486428Y26534524D01*
X13474523Y26510715D01*
X13462619Y26498810D01*
X13438809Y26486905D01*
X13379285Y26486905D01*
X13355476Y26498810D01*
X13343571Y26510715D01*
X15198333Y25820715D02*
X15186428Y25808810D01*
X15150714Y25796905D01*
X15126904Y25796905D01*
X15091190Y25808810D01*
X15067380Y25832620D01*
X15055476Y25856429D01*
X15043571Y25904048D01*
X15043571Y25939762D01*
X15055476Y25987381D01*
X15067380Y26011191D01*
X15091190Y26035000D01*
X15126904Y26046905D01*
X15150714Y26046905D01*
X15186428Y26035000D01*
X15198333Y26023096D01*
X15341190Y25939762D02*
X15317380Y25951667D01*
X15305476Y25963572D01*
X15293571Y25987381D01*
X15293571Y25999286D01*
X15305476Y26023096D01*
X15317380Y26035000D01*
X15341190Y26046905D01*
X15388809Y26046905D01*
X15412619Y26035000D01*
X15424523Y26023096D01*
X15436428Y25999286D01*
X15436428Y25987381D01*
X15424523Y25963572D01*
X15412619Y25951667D01*
X15388809Y25939762D01*
X15341190Y25939762D01*
X15317380Y25927858D01*
X15305476Y25915953D01*
X15293571Y25892143D01*
X15293571Y25844524D01*
X15305476Y25820715D01*
X15317380Y25808810D01*
X15341190Y25796905D01*
X15388809Y25796905D01*
X15412619Y25808810D01*
X15424523Y25820715D01*
X15436428Y25844524D01*
X15436428Y25892143D01*
X15424523Y25915953D01*
X15412619Y25927858D01*
X15388809Y25939762D01*
X4853095Y8369286D02*
X4734047Y8285953D01*
X4853095Y8226429D02*
X4603095Y8226429D01*
X4603095Y8321667D01*
X4615000Y8345477D01*
X4626904Y8357381D01*
X4650714Y8369286D01*
X4686428Y8369286D01*
X4710238Y8357381D01*
X4722142Y8345477D01*
X4734047Y8321667D01*
X4734047Y8226429D01*
X4853095Y8607381D02*
X4853095Y8464524D01*
X4853095Y8535953D02*
X4603095Y8535953D01*
X4638809Y8512143D01*
X4662619Y8488334D01*
X4674523Y8464524D01*
X4603095Y8762143D02*
X4603095Y8785953D01*
X4615000Y8809762D01*
X4626904Y8821667D01*
X4650714Y8833572D01*
X4698333Y8845477D01*
X4757857Y8845477D01*
X4805476Y8833572D01*
X4829285Y8821667D01*
X4841190Y8809762D01*
X4853095Y8785953D01*
X4853095Y8762143D01*
X4841190Y8738334D01*
X4829285Y8726429D01*
X4805476Y8714524D01*
X4757857Y8702620D01*
X4698333Y8702620D01*
X4650714Y8714524D01*
X4626904Y8726429D01*
X4615000Y8738334D01*
X4603095Y8762143D01*
X6379285Y26698334D02*
X6391190Y26686429D01*
X6403095Y26650715D01*
X6403095Y26626905D01*
X6391190Y26591191D01*
X6367380Y26567381D01*
X6343571Y26555477D01*
X6295952Y26543572D01*
X6260238Y26543572D01*
X6212619Y26555477D01*
X6188809Y26567381D01*
X6165000Y26591191D01*
X6153095Y26626905D01*
X6153095Y26650715D01*
X6165000Y26686429D01*
X6176904Y26698334D01*
X6403095Y26936429D02*
X6403095Y26793572D01*
X6403095Y26865000D02*
X6153095Y26865000D01*
X6188809Y26841191D01*
X6212619Y26817381D01*
X6224523Y26793572D01*
X4459285Y26698334D02*
X4471190Y26686429D01*
X4483095Y26650715D01*
X4483095Y26626905D01*
X4471190Y26591191D01*
X4447380Y26567381D01*
X4423571Y26555477D01*
X4375952Y26543572D01*
X4340238Y26543572D01*
X4292619Y26555477D01*
X4268809Y26567381D01*
X4245000Y26591191D01*
X4233095Y26626905D01*
X4233095Y26650715D01*
X4245000Y26686429D01*
X4256904Y26698334D01*
X4233095Y26781667D02*
X4233095Y26936429D01*
X4328333Y26853096D01*
X4328333Y26888810D01*
X4340238Y26912620D01*
X4352142Y26924524D01*
X4375952Y26936429D01*
X4435476Y26936429D01*
X4459285Y26924524D01*
X4471190Y26912620D01*
X4483095Y26888810D01*
X4483095Y26817381D01*
X4471190Y26793572D01*
X4459285Y26781667D01*
X5820566Y13019493D02*
X5845820Y13162598D01*
X5719551Y13120508D02*
X5896328Y13297285D01*
X5963671Y13229941D01*
X5972089Y13204688D01*
X5972089Y13187852D01*
X5963671Y13162598D01*
X5938417Y13137344D01*
X5913164Y13128926D01*
X5896328Y13128926D01*
X5871074Y13137344D01*
X5803730Y13204688D01*
X6148866Y13044747D02*
X6115194Y13078418D01*
X6089940Y13086836D01*
X6073104Y13086836D01*
X6031015Y13078418D01*
X5988925Y13053165D01*
X5921582Y12985821D01*
X5913164Y12960567D01*
X5913164Y12943731D01*
X5921582Y12918478D01*
X5955253Y12884806D01*
X5980507Y12876388D01*
X5997343Y12876388D01*
X6022597Y12884806D01*
X6064687Y12926896D01*
X6073104Y12952149D01*
X6073104Y12968985D01*
X6064687Y12994239D01*
X6031015Y13027911D01*
X6005761Y13036329D01*
X5988925Y13036329D01*
X5963671Y13027911D01*
X15189285Y18510715D02*
X15177380Y18498810D01*
X15141666Y18486905D01*
X15117857Y18486905D01*
X15082142Y18498810D01*
X15058333Y18522620D01*
X15046428Y18546429D01*
X15034523Y18594048D01*
X15034523Y18629762D01*
X15046428Y18677381D01*
X15058333Y18701191D01*
X15082142Y18725000D01*
X15117857Y18736905D01*
X15141666Y18736905D01*
X15177380Y18725000D01*
X15189285Y18713096D01*
X15284523Y18713096D02*
X15296428Y18725000D01*
X15320238Y18736905D01*
X15379761Y18736905D01*
X15403571Y18725000D01*
X15415476Y18713096D01*
X15427380Y18689286D01*
X15427380Y18665477D01*
X15415476Y18629762D01*
X15272619Y18486905D01*
X15427380Y18486905D01*
X15582142Y18736905D02*
X15605952Y18736905D01*
X15629761Y18725000D01*
X15641666Y18713096D01*
X15653571Y18689286D01*
X15665476Y18641667D01*
X15665476Y18582143D01*
X15653571Y18534524D01*
X15641666Y18510715D01*
X15629761Y18498810D01*
X15605952Y18486905D01*
X15582142Y18486905D01*
X15558333Y18498810D01*
X15546428Y18510715D01*
X15534523Y18534524D01*
X15522619Y18582143D01*
X15522619Y18641667D01*
X15534523Y18689286D01*
X15546428Y18713096D01*
X15558333Y18725000D01*
X15582142Y18736905D01*
X4183218Y20059498D02*
X4183218Y20042662D01*
X4166382Y20008990D01*
X4149546Y19992154D01*
X4115874Y19975318D01*
X4082203Y19975318D01*
X4056949Y19983736D01*
X4014859Y20008990D01*
X3989605Y20034244D01*
X3964351Y20076334D01*
X3955934Y20101587D01*
X3955934Y20135259D01*
X3972769Y20168931D01*
X3989605Y20185767D01*
X4023277Y20202603D01*
X4040113Y20202603D01*
X4368413Y20211021D02*
X4267397Y20110005D01*
X4317905Y20160513D02*
X4141128Y20337290D01*
X4149546Y20295200D01*
X4149546Y20261528D01*
X4141128Y20236274D01*
X4402084Y20480395D02*
X4519935Y20362544D01*
X4292651Y20505649D02*
X4376830Y20337290D01*
X4486264Y20446723D01*
X5303223Y12560508D02*
X5286387Y12560508D01*
X5252715Y12577344D01*
X5235879Y12594180D01*
X5219043Y12627852D01*
X5219043Y12661523D01*
X5227461Y12686777D01*
X5252715Y12728867D01*
X5277969Y12754121D01*
X5320059Y12779375D01*
X5345312Y12787792D01*
X5378984Y12787792D01*
X5412656Y12770957D01*
X5429492Y12754121D01*
X5446328Y12720449D01*
X5446328Y12703613D01*
X5454746Y12375313D02*
X5353730Y12476329D01*
X5404238Y12425821D02*
X5581015Y12602598D01*
X5538925Y12594180D01*
X5505253Y12594180D01*
X5480000Y12602598D01*
X5690448Y12493165D02*
X5799881Y12383731D01*
X5673612Y12375313D01*
X5698866Y12350060D01*
X5707284Y12324806D01*
X5707284Y12307970D01*
X5698866Y12282716D01*
X5656776Y12240626D01*
X5631522Y12232209D01*
X5614687Y12232209D01*
X5589433Y12240626D01*
X5538925Y12291134D01*
X5530507Y12316388D01*
X5530507Y12333224D01*
X4399492Y15053224D02*
X4399492Y15036388D01*
X4382656Y15002716D01*
X4365820Y14985880D01*
X4332148Y14969044D01*
X4298477Y14969044D01*
X4273223Y14977462D01*
X4231133Y15002716D01*
X4205879Y15027970D01*
X4180625Y15070060D01*
X4172208Y15095313D01*
X4172208Y15128985D01*
X4189043Y15162657D01*
X4205879Y15179493D01*
X4239551Y15196329D01*
X4256387Y15196329D01*
X4584687Y15204747D02*
X4483671Y15103731D01*
X4534179Y15154239D02*
X4357402Y15331016D01*
X4365820Y15288926D01*
X4365820Y15255254D01*
X4357402Y15230000D01*
X4584687Y15406777D02*
X4559433Y15398359D01*
X4542597Y15398359D01*
X4517343Y15406777D01*
X4508925Y15415195D01*
X4500507Y15440449D01*
X4500507Y15457285D01*
X4508925Y15482539D01*
X4542597Y15516210D01*
X4567851Y15524628D01*
X4584687Y15524628D01*
X4609940Y15516210D01*
X4618358Y15507792D01*
X4626776Y15482539D01*
X4626776Y15465703D01*
X4618358Y15440449D01*
X4584687Y15406777D01*
X4576269Y15381523D01*
X4576269Y15364688D01*
X4584687Y15339434D01*
X4618358Y15305762D01*
X4643612Y15297344D01*
X4660448Y15297344D01*
X4685702Y15305762D01*
X4719374Y15339434D01*
X4727791Y15364688D01*
X4727791Y15381523D01*
X4719374Y15406777D01*
X4685702Y15440449D01*
X4660448Y15448867D01*
X4643612Y15448867D01*
X4618358Y15440449D01*
X15159285Y20530715D02*
X15147380Y20518810D01*
X15111666Y20506905D01*
X15087857Y20506905D01*
X15052142Y20518810D01*
X15028333Y20542620D01*
X15016428Y20566429D01*
X15004523Y20614048D01*
X15004523Y20649762D01*
X15016428Y20697381D01*
X15028333Y20721191D01*
X15052142Y20745000D01*
X15087857Y20756905D01*
X15111666Y20756905D01*
X15147380Y20745000D01*
X15159285Y20733096D01*
X15397380Y20506905D02*
X15254523Y20506905D01*
X15325952Y20506905D02*
X15325952Y20756905D01*
X15302142Y20721191D01*
X15278333Y20697381D01*
X15254523Y20685477D01*
X15611666Y20756905D02*
X15564047Y20756905D01*
X15540238Y20745000D01*
X15528333Y20733096D01*
X15504523Y20697381D01*
X15492619Y20649762D01*
X15492619Y20554524D01*
X15504523Y20530715D01*
X15516428Y20518810D01*
X15540238Y20506905D01*
X15587857Y20506905D01*
X15611666Y20518810D01*
X15623571Y20530715D01*
X15635476Y20554524D01*
X15635476Y20614048D01*
X15623571Y20637858D01*
X15611666Y20649762D01*
X15587857Y20661667D01*
X15540238Y20661667D01*
X15516428Y20649762D01*
X15504523Y20637858D01*
X15492619Y20614048D01*
X15169285Y19850715D02*
X15157380Y19838810D01*
X15121666Y19826905D01*
X15097857Y19826905D01*
X15062142Y19838810D01*
X15038333Y19862620D01*
X15026428Y19886429D01*
X15014523Y19934048D01*
X15014523Y19969762D01*
X15026428Y20017381D01*
X15038333Y20041191D01*
X15062142Y20065000D01*
X15097857Y20076905D01*
X15121666Y20076905D01*
X15157380Y20065000D01*
X15169285Y20053096D01*
X15407380Y19826905D02*
X15264523Y19826905D01*
X15335952Y19826905D02*
X15335952Y20076905D01*
X15312142Y20041191D01*
X15288333Y20017381D01*
X15264523Y20005477D01*
X15633571Y20076905D02*
X15514523Y20076905D01*
X15502619Y19957858D01*
X15514523Y19969762D01*
X15538333Y19981667D01*
X15597857Y19981667D01*
X15621666Y19969762D01*
X15633571Y19957858D01*
X15645476Y19934048D01*
X15645476Y19874524D01*
X15633571Y19850715D01*
X15621666Y19838810D01*
X15597857Y19826905D01*
X15538333Y19826905D01*
X15514523Y19838810D01*
X15502619Y19850715D01*
X15198333Y25110715D02*
X15186428Y25098810D01*
X15150714Y25086905D01*
X15126904Y25086905D01*
X15091190Y25098810D01*
X15067380Y25122620D01*
X15055476Y25146429D01*
X15043571Y25194048D01*
X15043571Y25229762D01*
X15055476Y25277381D01*
X15067380Y25301191D01*
X15091190Y25325000D01*
X15126904Y25336905D01*
X15150714Y25336905D01*
X15186428Y25325000D01*
X15198333Y25313096D01*
X15281666Y25336905D02*
X15448333Y25336905D01*
X15341190Y25086905D01*
X15079285Y26520715D02*
X15067380Y26508810D01*
X15031666Y26496905D01*
X15007857Y26496905D01*
X14972142Y26508810D01*
X14948333Y26532620D01*
X14936428Y26556429D01*
X14924523Y26604048D01*
X14924523Y26639762D01*
X14936428Y26687381D01*
X14948333Y26711191D01*
X14972142Y26735000D01*
X15007857Y26746905D01*
X15031666Y26746905D01*
X15067380Y26735000D01*
X15079285Y26723096D01*
X15317380Y26496905D02*
X15174523Y26496905D01*
X15245952Y26496905D02*
X15245952Y26746905D01*
X15222142Y26711191D01*
X15198333Y26687381D01*
X15174523Y26675477D01*
X15472142Y26746905D02*
X15495952Y26746905D01*
X15519761Y26735000D01*
X15531666Y26723096D01*
X15543571Y26699286D01*
X15555476Y26651667D01*
X15555476Y26592143D01*
X15543571Y26544524D01*
X15531666Y26520715D01*
X15519761Y26508810D01*
X15495952Y26496905D01*
X15472142Y26496905D01*
X15448333Y26508810D01*
X15436428Y26520715D01*
X15424523Y26544524D01*
X15412619Y26592143D01*
X15412619Y26651667D01*
X15424523Y26699286D01*
X15436428Y26723096D01*
X15448333Y26735000D01*
X15472142Y26746905D01*
X15218333Y27210715D02*
X15206428Y27198810D01*
X15170714Y27186905D01*
X15146904Y27186905D01*
X15111190Y27198810D01*
X15087380Y27222620D01*
X15075476Y27246429D01*
X15063571Y27294048D01*
X15063571Y27329762D01*
X15075476Y27377381D01*
X15087380Y27401191D01*
X15111190Y27425000D01*
X15146904Y27436905D01*
X15170714Y27436905D01*
X15206428Y27425000D01*
X15218333Y27413096D01*
X15337380Y27186905D02*
X15385000Y27186905D01*
X15408809Y27198810D01*
X15420714Y27210715D01*
X15444523Y27246429D01*
X15456428Y27294048D01*
X15456428Y27389286D01*
X15444523Y27413096D01*
X15432619Y27425000D01*
X15408809Y27436905D01*
X15361190Y27436905D01*
X15337380Y27425000D01*
X15325476Y27413096D01*
X15313571Y27389286D01*
X15313571Y27329762D01*
X15325476Y27305953D01*
X15337380Y27294048D01*
X15361190Y27282143D01*
X15408809Y27282143D01*
X15432619Y27294048D01*
X15444523Y27305953D01*
X15456428Y27329762D01*
X15268333Y21250715D02*
X15256428Y21238810D01*
X15220714Y21226905D01*
X15196904Y21226905D01*
X15161190Y21238810D01*
X15137380Y21262620D01*
X15125476Y21286429D01*
X15113571Y21334048D01*
X15113571Y21369762D01*
X15125476Y21417381D01*
X15137380Y21441191D01*
X15161190Y21465000D01*
X15196904Y21476905D01*
X15220714Y21476905D01*
X15256428Y21465000D01*
X15268333Y21453096D01*
X15482619Y21476905D02*
X15435000Y21476905D01*
X15411190Y21465000D01*
X15399285Y21453096D01*
X15375476Y21417381D01*
X15363571Y21369762D01*
X15363571Y21274524D01*
X15375476Y21250715D01*
X15387380Y21238810D01*
X15411190Y21226905D01*
X15458809Y21226905D01*
X15482619Y21238810D01*
X15494523Y21250715D01*
X15506428Y21274524D01*
X15506428Y21334048D01*
X15494523Y21357858D01*
X15482619Y21369762D01*
X15458809Y21381667D01*
X15411190Y21381667D01*
X15387380Y21369762D01*
X15375476Y21357858D01*
X15363571Y21334048D01*
X2899492Y18333224D02*
X2899492Y18316388D01*
X2882656Y18282716D01*
X2865820Y18265880D01*
X2832148Y18249044D01*
X2798477Y18249044D01*
X2773223Y18257462D01*
X2731133Y18282716D01*
X2705879Y18307970D01*
X2680625Y18350060D01*
X2672208Y18375313D01*
X2672208Y18408985D01*
X2689043Y18442657D01*
X2705879Y18459493D01*
X2739551Y18476329D01*
X2756387Y18476329D01*
X3084687Y18484747D02*
X2983671Y18383731D01*
X3034179Y18434239D02*
X2857402Y18611016D01*
X2865820Y18568926D01*
X2865820Y18535254D01*
X2857402Y18510000D01*
X2966835Y18720449D02*
X3084687Y18838300D01*
X3185702Y18585762D01*
M02*
