M48
; DRILL file {KiCad 5.1.9-1.fc33} date Sun Apr 25 18:50:11 2021
; FORMAT={-:-/ absolute / metric / decimal}
; #@! TF.CreationDate,2021-04-25T18:50:11+02:00
; #@! TF.GenerationSoftware,Kicad,Pcbnew,5.1.9-1.fc33
; #@! TF.FileFunction,Plated,1,4,PTH
FMAT,2
METRIC
T1C0.200
T2C0.600
T3C1.000
%
G90
G05
T1
X2.93Y21.59
X2.97Y12.32
X2.97Y11.51
X2.98Y19.17
X2.98Y18.57
X3.15Y25.8
X3.28Y27.77
X3.38Y15.24
X3.41Y2.54
X3.62Y22.09
X3.75Y25.8
X3.75Y24.04
X3.84Y15.64
X3.88Y27.77
X3.99Y19.89
X4.05Y23.52
X4.05Y8.13
X4.06Y10.11
X4.35Y25.71
X4.35Y24.04
X4.37Y15.94
X4.44Y20.34
X4.48Y15.34
X4.65Y23.52
X4.74Y9.62
X4.95Y25.71
X4.95Y24.04
X4.99Y19.42
X5.07Y6.41
X5.08Y15.24
X5.25Y23.52
X5.55Y25.71
X5.55Y24.04
X5.55Y14.3
X5.79Y20.03
X5.89Y20.64
X5.99Y21.99
X6.14Y14.18
X6.23Y13.58
X6.26Y5.18
X6.49Y20.74
X6.59Y21.34
X6.68Y27.76
X6.81Y10.95
X6.83Y13.52
X7.0Y17.18
X7.2Y26.12
X7.22Y30.17
X7.55Y21.8
X7.71Y10.95
X7.85Y22.4
X7.9Y16.3
X8.49Y27.73
X8.55Y26.55
X8.74Y19.45
X8.8Y11.35
X8.89Y17.28
X8.89Y15.29
X8.89Y9.36
X8.89Y7.36
X9.79Y11.35
X9.89Y16.3
X9.9Y27.68
X10.39Y11.35
X10.56Y30.17
X10.78Y21.69
X10.9Y17.18
X11.14Y21.21
X11.29Y13.68
X11.64Y20.38
X11.64Y14.17
X11.76Y20.97
X11.85Y23.68
X11.85Y22.83
X12.23Y26.13
X12.23Y20.53
X12.23Y14.29
X12.27Y23.25
X12.35Y14.88
X12.41Y8.36
X12.7Y23.67
X12.7Y22.83
X12.94Y15.02
X13.02Y19.87
X13.08Y15.61
X13.09Y19.27
X13.17Y7.13
X13.21Y21.17
X13.49Y20.58
X13.56Y27.3
X13.56Y26.6
X13.57Y19.63
X13.68Y15.7
X13.77Y16.3
X13.78Y21.74
X13.81Y9.03
X13.81Y7.13
X14.0Y17.22
X14.28Y22.09
X14.29Y5.08
X14.31Y8.43
X14.31Y7.73
X14.45Y15.1
X15.74Y25.4
X15.74Y20.32
X15.99Y5.08
T3
X1.27Y34.29
X1.27Y31.75
X1.27Y29.21
X1.27Y26.67
X1.27Y24.13
X1.27Y21.59
X1.27Y19.05
X1.27Y16.51
X1.27Y13.97
X1.27Y11.43
X1.27Y8.89
X1.27Y6.35
X1.27Y3.81
X1.27Y1.27
X3.81Y3.81
X3.81Y1.27
X6.35Y3.81
X6.35Y1.27
X8.89Y3.81
X8.89Y1.27
X11.43Y3.81
X11.43Y1.27
X13.97Y3.81
X13.97Y1.27
X16.51Y34.29
X16.51Y31.75
X16.51Y29.21
X16.51Y26.67
X16.51Y24.13
X16.51Y21.59
X16.51Y19.05
X16.51Y16.51
X16.51Y13.97
X16.51Y11.43
X16.51Y8.89
X16.51Y6.35
X16.51Y3.81
X16.51Y1.27
T2
G00X4.57Y33.67
M15
G01X4.57Y34.27
M16
G05
G00X4.57Y29.24
M15
G01X4.57Y30.34
M16
G05
G00X13.21Y33.67
M15
G01X13.21Y34.27
M16
G05
G00X13.21Y29.24
M15
G01X13.21Y30.34
M16
G05
T0
M30
