G04 #@! TF.GenerationSoftware,KiCad,Pcbnew,5.1.9-1.fc33*
G04 #@! TF.CreationDate,2021-04-21T18:28:19+02:00*
G04 #@! TF.ProjectId,reDIP-SID,72654449-502d-4534-9944-2e6b69636164,0.2*
G04 #@! TF.SameCoordinates,PX5e28010PY8011a50*
G04 #@! TF.FileFunction,Copper,L4,Bot*
G04 #@! TF.FilePolarity,Positive*
%FSLAX46Y46*%
G04 Gerber Fmt 4.6, Leading zero omitted, Abs format (unit mm)*
G04 Created by KiCad (PCBNEW 5.1.9-1.fc33) date 2021-04-21 18:28:19*
%MOMM*%
%LPD*%
G01*
G04 APERTURE LIST*
G04 #@! TA.AperFunction,ComponentPad*
%ADD10O,1.000000X2.100000*%
G04 #@! TD*
G04 #@! TA.AperFunction,ComponentPad*
%ADD11O,1.000000X1.600000*%
G04 #@! TD*
G04 #@! TA.AperFunction,ComponentPad*
%ADD12C,1.600000*%
G04 #@! TD*
G04 #@! TA.AperFunction,SMDPad,CuDef*
%ADD13C,0.750000*%
G04 #@! TD*
G04 #@! TA.AperFunction,ViaPad*
%ADD14C,0.450000*%
G04 #@! TD*
G04 #@! TA.AperFunction,Conductor*
%ADD15C,0.150000*%
G04 #@! TD*
G04 #@! TA.AperFunction,Conductor*
%ADD16C,0.200000*%
G04 #@! TD*
G04 #@! TA.AperFunction,Conductor*
%ADD17C,0.250000*%
G04 #@! TD*
G04 #@! TA.AperFunction,Conductor*
%ADD18C,0.100000*%
G04 #@! TD*
G04 APERTURE END LIST*
G04 #@! TA.AperFunction,SMDPad,CuDef*
G36*
G01*
X3590000Y13090000D02*
X3590000Y11790000D01*
G75*
G02*
X3540000Y11740000I-50000J0D01*
G01*
X3440000Y11740000D01*
G75*
G02*
X3390000Y11790000I0J50000D01*
G01*
X3390000Y13090000D01*
G75*
G02*
X3440000Y13140000I50000J0D01*
G01*
X3540000Y13140000D01*
G75*
G02*
X3590000Y13090000I0J-50000D01*
G01*
G37*
G04 #@! TD.AperFunction*
G04 #@! TA.AperFunction,SMDPad,CuDef*
G36*
G01*
X3590000Y18990000D02*
X3590000Y17690000D01*
G75*
G02*
X3540000Y17640000I-50000J0D01*
G01*
X3440000Y17640000D01*
G75*
G02*
X3390000Y17690000I0J50000D01*
G01*
X3390000Y18990000D01*
G75*
G02*
X3440000Y19040000I50000J0D01*
G01*
X3540000Y19040000D01*
G75*
G02*
X3590000Y18990000I0J-50000D01*
G01*
G37*
G04 #@! TD.AperFunction*
G04 #@! TA.AperFunction,SMDPad,CuDef*
G36*
G01*
X3990000Y13090000D02*
X3990000Y11790000D01*
G75*
G02*
X3940000Y11740000I-50000J0D01*
G01*
X3840000Y11740000D01*
G75*
G02*
X3790000Y11790000I0J50000D01*
G01*
X3790000Y13090000D01*
G75*
G02*
X3840000Y13140000I50000J0D01*
G01*
X3940000Y13140000D01*
G75*
G02*
X3990000Y13090000I0J-50000D01*
G01*
G37*
G04 #@! TD.AperFunction*
G04 #@! TA.AperFunction,SMDPad,CuDef*
G36*
G01*
X3990000Y18990000D02*
X3990000Y17690000D01*
G75*
G02*
X3940000Y17640000I-50000J0D01*
G01*
X3840000Y17640000D01*
G75*
G02*
X3790000Y17690000I0J50000D01*
G01*
X3790000Y18990000D01*
G75*
G02*
X3840000Y19040000I50000J0D01*
G01*
X3940000Y19040000D01*
G75*
G02*
X3990000Y18990000I0J-50000D01*
G01*
G37*
G04 #@! TD.AperFunction*
G04 #@! TA.AperFunction,SMDPad,CuDef*
G36*
G01*
X4390000Y13090000D02*
X4390000Y11790000D01*
G75*
G02*
X4340000Y11740000I-50000J0D01*
G01*
X4240000Y11740000D01*
G75*
G02*
X4190000Y11790000I0J50000D01*
G01*
X4190000Y13090000D01*
G75*
G02*
X4240000Y13140000I50000J0D01*
G01*
X4340000Y13140000D01*
G75*
G02*
X4390000Y13090000I0J-50000D01*
G01*
G37*
G04 #@! TD.AperFunction*
G04 #@! TA.AperFunction,SMDPad,CuDef*
G36*
G01*
X4390000Y18990000D02*
X4390000Y17690000D01*
G75*
G02*
X4340000Y17640000I-50000J0D01*
G01*
X4240000Y17640000D01*
G75*
G02*
X4190000Y17690000I0J50000D01*
G01*
X4190000Y18990000D01*
G75*
G02*
X4240000Y19040000I50000J0D01*
G01*
X4340000Y19040000D01*
G75*
G02*
X4390000Y18990000I0J-50000D01*
G01*
G37*
G04 #@! TD.AperFunction*
G04 #@! TA.AperFunction,SMDPad,CuDef*
G36*
G01*
X4790000Y13090000D02*
X4790000Y11790000D01*
G75*
G02*
X4740000Y11740000I-50000J0D01*
G01*
X4640000Y11740000D01*
G75*
G02*
X4590000Y11790000I0J50000D01*
G01*
X4590000Y13090000D01*
G75*
G02*
X4640000Y13140000I50000J0D01*
G01*
X4740000Y13140000D01*
G75*
G02*
X4790000Y13090000I0J-50000D01*
G01*
G37*
G04 #@! TD.AperFunction*
G04 #@! TA.AperFunction,SMDPad,CuDef*
G36*
G01*
X4790000Y18990000D02*
X4790000Y17690000D01*
G75*
G02*
X4740000Y17640000I-50000J0D01*
G01*
X4640000Y17640000D01*
G75*
G02*
X4590000Y17690000I0J50000D01*
G01*
X4590000Y18990000D01*
G75*
G02*
X4640000Y19040000I50000J0D01*
G01*
X4740000Y19040000D01*
G75*
G02*
X4790000Y18990000I0J-50000D01*
G01*
G37*
G04 #@! TD.AperFunction*
G04 #@! TA.AperFunction,SMDPad,CuDef*
G36*
G01*
X5190000Y13090000D02*
X5190000Y11790000D01*
G75*
G02*
X5140000Y11740000I-50000J0D01*
G01*
X5040000Y11740000D01*
G75*
G02*
X4990000Y11790000I0J50000D01*
G01*
X4990000Y13090000D01*
G75*
G02*
X5040000Y13140000I50000J0D01*
G01*
X5140000Y13140000D01*
G75*
G02*
X5190000Y13090000I0J-50000D01*
G01*
G37*
G04 #@! TD.AperFunction*
G04 #@! TA.AperFunction,SMDPad,CuDef*
G36*
G01*
X5190000Y18990000D02*
X5190000Y17690000D01*
G75*
G02*
X5140000Y17640000I-50000J0D01*
G01*
X5040000Y17640000D01*
G75*
G02*
X4990000Y17690000I0J50000D01*
G01*
X4990000Y18990000D01*
G75*
G02*
X5040000Y19040000I50000J0D01*
G01*
X5140000Y19040000D01*
G75*
G02*
X5190000Y18990000I0J-50000D01*
G01*
G37*
G04 #@! TD.AperFunction*
G04 #@! TA.AperFunction,SMDPad,CuDef*
G36*
G01*
X5590000Y13090000D02*
X5590000Y11790000D01*
G75*
G02*
X5540000Y11740000I-50000J0D01*
G01*
X5440000Y11740000D01*
G75*
G02*
X5390000Y11790000I0J50000D01*
G01*
X5390000Y13090000D01*
G75*
G02*
X5440000Y13140000I50000J0D01*
G01*
X5540000Y13140000D01*
G75*
G02*
X5590000Y13090000I0J-50000D01*
G01*
G37*
G04 #@! TD.AperFunction*
G04 #@! TA.AperFunction,SMDPad,CuDef*
G36*
G01*
X5590000Y18990000D02*
X5590000Y17690000D01*
G75*
G02*
X5540000Y17640000I-50000J0D01*
G01*
X5440000Y17640000D01*
G75*
G02*
X5390000Y17690000I0J50000D01*
G01*
X5390000Y18990000D01*
G75*
G02*
X5440000Y19040000I50000J0D01*
G01*
X5540000Y19040000D01*
G75*
G02*
X5590000Y18990000I0J-50000D01*
G01*
G37*
G04 #@! TD.AperFunction*
G04 #@! TA.AperFunction,SMDPad,CuDef*
G36*
G01*
X5990000Y13090000D02*
X5990000Y11790000D01*
G75*
G02*
X5940000Y11740000I-50000J0D01*
G01*
X5840000Y11740000D01*
G75*
G02*
X5790000Y11790000I0J50000D01*
G01*
X5790000Y13090000D01*
G75*
G02*
X5840000Y13140000I50000J0D01*
G01*
X5940000Y13140000D01*
G75*
G02*
X5990000Y13090000I0J-50000D01*
G01*
G37*
G04 #@! TD.AperFunction*
G04 #@! TA.AperFunction,SMDPad,CuDef*
G36*
G01*
X5990000Y18990000D02*
X5990000Y17690000D01*
G75*
G02*
X5940000Y17640000I-50000J0D01*
G01*
X5840000Y17640000D01*
G75*
G02*
X5790000Y17690000I0J50000D01*
G01*
X5790000Y18990000D01*
G75*
G02*
X5840000Y19040000I50000J0D01*
G01*
X5940000Y19040000D01*
G75*
G02*
X5990000Y18990000I0J-50000D01*
G01*
G37*
G04 #@! TD.AperFunction*
G04 #@! TA.AperFunction,SMDPad,CuDef*
G36*
G01*
X6390000Y13090000D02*
X6390000Y11790000D01*
G75*
G02*
X6340000Y11740000I-50000J0D01*
G01*
X6240000Y11740000D01*
G75*
G02*
X6190000Y11790000I0J50000D01*
G01*
X6190000Y13090000D01*
G75*
G02*
X6240000Y13140000I50000J0D01*
G01*
X6340000Y13140000D01*
G75*
G02*
X6390000Y13090000I0J-50000D01*
G01*
G37*
G04 #@! TD.AperFunction*
G04 #@! TA.AperFunction,SMDPad,CuDef*
G36*
G01*
X6390000Y18990000D02*
X6390000Y17690000D01*
G75*
G02*
X6340000Y17640000I-50000J0D01*
G01*
X6240000Y17640000D01*
G75*
G02*
X6190000Y17690000I0J50000D01*
G01*
X6190000Y18990000D01*
G75*
G02*
X6240000Y19040000I50000J0D01*
G01*
X6340000Y19040000D01*
G75*
G02*
X6390000Y18990000I0J-50000D01*
G01*
G37*
G04 #@! TD.AperFunction*
G04 #@! TA.AperFunction,SMDPad,CuDef*
G36*
G01*
X6790000Y13090000D02*
X6790000Y11790000D01*
G75*
G02*
X6740000Y11740000I-50000J0D01*
G01*
X6640000Y11740000D01*
G75*
G02*
X6590000Y11790000I0J50000D01*
G01*
X6590000Y13090000D01*
G75*
G02*
X6640000Y13140000I50000J0D01*
G01*
X6740000Y13140000D01*
G75*
G02*
X6790000Y13090000I0J-50000D01*
G01*
G37*
G04 #@! TD.AperFunction*
G04 #@! TA.AperFunction,SMDPad,CuDef*
G36*
G01*
X6790000Y18990000D02*
X6790000Y17690000D01*
G75*
G02*
X6740000Y17640000I-50000J0D01*
G01*
X6640000Y17640000D01*
G75*
G02*
X6590000Y17690000I0J50000D01*
G01*
X6590000Y18990000D01*
G75*
G02*
X6640000Y19040000I50000J0D01*
G01*
X6740000Y19040000D01*
G75*
G02*
X6790000Y18990000I0J-50000D01*
G01*
G37*
G04 #@! TD.AperFunction*
G04 #@! TA.AperFunction,SMDPad,CuDef*
G36*
G01*
X7190000Y13090000D02*
X7190000Y11790000D01*
G75*
G02*
X7140000Y11740000I-50000J0D01*
G01*
X7040000Y11740000D01*
G75*
G02*
X6990000Y11790000I0J50000D01*
G01*
X6990000Y13090000D01*
G75*
G02*
X7040000Y13140000I50000J0D01*
G01*
X7140000Y13140000D01*
G75*
G02*
X7190000Y13090000I0J-50000D01*
G01*
G37*
G04 #@! TD.AperFunction*
G04 #@! TA.AperFunction,SMDPad,CuDef*
G36*
G01*
X7190000Y18990000D02*
X7190000Y17690000D01*
G75*
G02*
X7140000Y17640000I-50000J0D01*
G01*
X7040000Y17640000D01*
G75*
G02*
X6990000Y17690000I0J50000D01*
G01*
X6990000Y18990000D01*
G75*
G02*
X7040000Y19040000I50000J0D01*
G01*
X7140000Y19040000D01*
G75*
G02*
X7190000Y18990000I0J-50000D01*
G01*
G37*
G04 #@! TD.AperFunction*
G04 #@! TA.AperFunction,SMDPad,CuDef*
G36*
G01*
X7590000Y13090000D02*
X7590000Y11790000D01*
G75*
G02*
X7540000Y11740000I-50000J0D01*
G01*
X7440000Y11740000D01*
G75*
G02*
X7390000Y11790000I0J50000D01*
G01*
X7390000Y13090000D01*
G75*
G02*
X7440000Y13140000I50000J0D01*
G01*
X7540000Y13140000D01*
G75*
G02*
X7590000Y13090000I0J-50000D01*
G01*
G37*
G04 #@! TD.AperFunction*
G04 #@! TA.AperFunction,SMDPad,CuDef*
G36*
G01*
X7590000Y18990000D02*
X7590000Y17690000D01*
G75*
G02*
X7540000Y17640000I-50000J0D01*
G01*
X7440000Y17640000D01*
G75*
G02*
X7390000Y17690000I0J50000D01*
G01*
X7390000Y18990000D01*
G75*
G02*
X7440000Y19040000I50000J0D01*
G01*
X7540000Y19040000D01*
G75*
G02*
X7590000Y18990000I0J-50000D01*
G01*
G37*
G04 #@! TD.AperFunction*
G04 #@! TA.AperFunction,SMDPad,CuDef*
G36*
G01*
X7990000Y13090000D02*
X7990000Y11790000D01*
G75*
G02*
X7940000Y11740000I-50000J0D01*
G01*
X7840000Y11740000D01*
G75*
G02*
X7790000Y11790000I0J50000D01*
G01*
X7790000Y13090000D01*
G75*
G02*
X7840000Y13140000I50000J0D01*
G01*
X7940000Y13140000D01*
G75*
G02*
X7990000Y13090000I0J-50000D01*
G01*
G37*
G04 #@! TD.AperFunction*
G04 #@! TA.AperFunction,SMDPad,CuDef*
G36*
G01*
X7990000Y18990000D02*
X7990000Y17690000D01*
G75*
G02*
X7940000Y17640000I-50000J0D01*
G01*
X7840000Y17640000D01*
G75*
G02*
X7790000Y17690000I0J50000D01*
G01*
X7790000Y18990000D01*
G75*
G02*
X7840000Y19040000I50000J0D01*
G01*
X7940000Y19040000D01*
G75*
G02*
X7990000Y18990000I0J-50000D01*
G01*
G37*
G04 #@! TD.AperFunction*
G04 #@! TA.AperFunction,SMDPad,CuDef*
G36*
G01*
X8390000Y13090000D02*
X8390000Y11790000D01*
G75*
G02*
X8340000Y11740000I-50000J0D01*
G01*
X8240000Y11740000D01*
G75*
G02*
X8190000Y11790000I0J50000D01*
G01*
X8190000Y13090000D01*
G75*
G02*
X8240000Y13140000I50000J0D01*
G01*
X8340000Y13140000D01*
G75*
G02*
X8390000Y13090000I0J-50000D01*
G01*
G37*
G04 #@! TD.AperFunction*
G04 #@! TA.AperFunction,SMDPad,CuDef*
G36*
G01*
X8390000Y18990000D02*
X8390000Y17690000D01*
G75*
G02*
X8340000Y17640000I-50000J0D01*
G01*
X8240000Y17640000D01*
G75*
G02*
X8190000Y17690000I0J50000D01*
G01*
X8190000Y18990000D01*
G75*
G02*
X8240000Y19040000I50000J0D01*
G01*
X8340000Y19040000D01*
G75*
G02*
X8390000Y18990000I0J-50000D01*
G01*
G37*
G04 #@! TD.AperFunction*
G04 #@! TA.AperFunction,SMDPad,CuDef*
G36*
G01*
X8790000Y13090000D02*
X8790000Y11790000D01*
G75*
G02*
X8740000Y11740000I-50000J0D01*
G01*
X8640000Y11740000D01*
G75*
G02*
X8590000Y11790000I0J50000D01*
G01*
X8590000Y13090000D01*
G75*
G02*
X8640000Y13140000I50000J0D01*
G01*
X8740000Y13140000D01*
G75*
G02*
X8790000Y13090000I0J-50000D01*
G01*
G37*
G04 #@! TD.AperFunction*
G04 #@! TA.AperFunction,SMDPad,CuDef*
G36*
G01*
X8790000Y18990000D02*
X8790000Y17690000D01*
G75*
G02*
X8740000Y17640000I-50000J0D01*
G01*
X8640000Y17640000D01*
G75*
G02*
X8590000Y17690000I0J50000D01*
G01*
X8590000Y18990000D01*
G75*
G02*
X8640000Y19040000I50000J0D01*
G01*
X8740000Y19040000D01*
G75*
G02*
X8790000Y18990000I0J-50000D01*
G01*
G37*
G04 #@! TD.AperFunction*
G04 #@! TA.AperFunction,SMDPad,CuDef*
G36*
G01*
X9190000Y13090000D02*
X9190000Y11790000D01*
G75*
G02*
X9140000Y11740000I-50000J0D01*
G01*
X9040000Y11740000D01*
G75*
G02*
X8990000Y11790000I0J50000D01*
G01*
X8990000Y13090000D01*
G75*
G02*
X9040000Y13140000I50000J0D01*
G01*
X9140000Y13140000D01*
G75*
G02*
X9190000Y13090000I0J-50000D01*
G01*
G37*
G04 #@! TD.AperFunction*
G04 #@! TA.AperFunction,SMDPad,CuDef*
G36*
G01*
X9190000Y18990000D02*
X9190000Y17690000D01*
G75*
G02*
X9140000Y17640000I-50000J0D01*
G01*
X9040000Y17640000D01*
G75*
G02*
X8990000Y17690000I0J50000D01*
G01*
X8990000Y18990000D01*
G75*
G02*
X9040000Y19040000I50000J0D01*
G01*
X9140000Y19040000D01*
G75*
G02*
X9190000Y18990000I0J-50000D01*
G01*
G37*
G04 #@! TD.AperFunction*
G04 #@! TA.AperFunction,SMDPad,CuDef*
G36*
G01*
X9590000Y13090000D02*
X9590000Y11790000D01*
G75*
G02*
X9540000Y11740000I-50000J0D01*
G01*
X9440000Y11740000D01*
G75*
G02*
X9390000Y11790000I0J50000D01*
G01*
X9390000Y13090000D01*
G75*
G02*
X9440000Y13140000I50000J0D01*
G01*
X9540000Y13140000D01*
G75*
G02*
X9590000Y13090000I0J-50000D01*
G01*
G37*
G04 #@! TD.AperFunction*
G04 #@! TA.AperFunction,SMDPad,CuDef*
G36*
G01*
X9590000Y18990000D02*
X9590000Y17690000D01*
G75*
G02*
X9540000Y17640000I-50000J0D01*
G01*
X9440000Y17640000D01*
G75*
G02*
X9390000Y17690000I0J50000D01*
G01*
X9390000Y18990000D01*
G75*
G02*
X9440000Y19040000I50000J0D01*
G01*
X9540000Y19040000D01*
G75*
G02*
X9590000Y18990000I0J-50000D01*
G01*
G37*
G04 #@! TD.AperFunction*
G04 #@! TA.AperFunction,SMDPad,CuDef*
G36*
G01*
X9990000Y13090000D02*
X9990000Y11790000D01*
G75*
G02*
X9940000Y11740000I-50000J0D01*
G01*
X9840000Y11740000D01*
G75*
G02*
X9790000Y11790000I0J50000D01*
G01*
X9790000Y13090000D01*
G75*
G02*
X9840000Y13140000I50000J0D01*
G01*
X9940000Y13140000D01*
G75*
G02*
X9990000Y13090000I0J-50000D01*
G01*
G37*
G04 #@! TD.AperFunction*
G04 #@! TA.AperFunction,SMDPad,CuDef*
G36*
G01*
X9990000Y18990000D02*
X9990000Y17690000D01*
G75*
G02*
X9940000Y17640000I-50000J0D01*
G01*
X9840000Y17640000D01*
G75*
G02*
X9790000Y17690000I0J50000D01*
G01*
X9790000Y18990000D01*
G75*
G02*
X9840000Y19040000I50000J0D01*
G01*
X9940000Y19040000D01*
G75*
G02*
X9990000Y18990000I0J-50000D01*
G01*
G37*
G04 #@! TD.AperFunction*
G04 #@! TA.AperFunction,SMDPad,CuDef*
G36*
G01*
X10390000Y13090000D02*
X10390000Y11790000D01*
G75*
G02*
X10340000Y11740000I-50000J0D01*
G01*
X10240000Y11740000D01*
G75*
G02*
X10190000Y11790000I0J50000D01*
G01*
X10190000Y13090000D01*
G75*
G02*
X10240000Y13140000I50000J0D01*
G01*
X10340000Y13140000D01*
G75*
G02*
X10390000Y13090000I0J-50000D01*
G01*
G37*
G04 #@! TD.AperFunction*
G04 #@! TA.AperFunction,SMDPad,CuDef*
G36*
G01*
X10390000Y18990000D02*
X10390000Y17690000D01*
G75*
G02*
X10340000Y17640000I-50000J0D01*
G01*
X10240000Y17640000D01*
G75*
G02*
X10190000Y17690000I0J50000D01*
G01*
X10190000Y18990000D01*
G75*
G02*
X10240000Y19040000I50000J0D01*
G01*
X10340000Y19040000D01*
G75*
G02*
X10390000Y18990000I0J-50000D01*
G01*
G37*
G04 #@! TD.AperFunction*
G04 #@! TA.AperFunction,SMDPad,CuDef*
G36*
G01*
X10790000Y13090000D02*
X10790000Y11790000D01*
G75*
G02*
X10740000Y11740000I-50000J0D01*
G01*
X10640000Y11740000D01*
G75*
G02*
X10590000Y11790000I0J50000D01*
G01*
X10590000Y13090000D01*
G75*
G02*
X10640000Y13140000I50000J0D01*
G01*
X10740000Y13140000D01*
G75*
G02*
X10790000Y13090000I0J-50000D01*
G01*
G37*
G04 #@! TD.AperFunction*
G04 #@! TA.AperFunction,SMDPad,CuDef*
G36*
G01*
X10790000Y18990000D02*
X10790000Y17690000D01*
G75*
G02*
X10740000Y17640000I-50000J0D01*
G01*
X10640000Y17640000D01*
G75*
G02*
X10590000Y17690000I0J50000D01*
G01*
X10590000Y18990000D01*
G75*
G02*
X10640000Y19040000I50000J0D01*
G01*
X10740000Y19040000D01*
G75*
G02*
X10790000Y18990000I0J-50000D01*
G01*
G37*
G04 #@! TD.AperFunction*
G04 #@! TA.AperFunction,SMDPad,CuDef*
G36*
G01*
X11190000Y13090000D02*
X11190000Y11790000D01*
G75*
G02*
X11140000Y11740000I-50000J0D01*
G01*
X11040000Y11740000D01*
G75*
G02*
X10990000Y11790000I0J50000D01*
G01*
X10990000Y13090000D01*
G75*
G02*
X11040000Y13140000I50000J0D01*
G01*
X11140000Y13140000D01*
G75*
G02*
X11190000Y13090000I0J-50000D01*
G01*
G37*
G04 #@! TD.AperFunction*
G04 #@! TA.AperFunction,SMDPad,CuDef*
G36*
G01*
X11190000Y18990000D02*
X11190000Y17690000D01*
G75*
G02*
X11140000Y17640000I-50000J0D01*
G01*
X11040000Y17640000D01*
G75*
G02*
X10990000Y17690000I0J50000D01*
G01*
X10990000Y18990000D01*
G75*
G02*
X11040000Y19040000I50000J0D01*
G01*
X11140000Y19040000D01*
G75*
G02*
X11190000Y18990000I0J-50000D01*
G01*
G37*
G04 #@! TD.AperFunction*
G04 #@! TA.AperFunction,SMDPad,CuDef*
G36*
G01*
X11590000Y13090000D02*
X11590000Y11790000D01*
G75*
G02*
X11540000Y11740000I-50000J0D01*
G01*
X11440000Y11740000D01*
G75*
G02*
X11390000Y11790000I0J50000D01*
G01*
X11390000Y13090000D01*
G75*
G02*
X11440000Y13140000I50000J0D01*
G01*
X11540000Y13140000D01*
G75*
G02*
X11590000Y13090000I0J-50000D01*
G01*
G37*
G04 #@! TD.AperFunction*
G04 #@! TA.AperFunction,SMDPad,CuDef*
G36*
G01*
X11590000Y18990000D02*
X11590000Y17690000D01*
G75*
G02*
X11540000Y17640000I-50000J0D01*
G01*
X11440000Y17640000D01*
G75*
G02*
X11390000Y17690000I0J50000D01*
G01*
X11390000Y18990000D01*
G75*
G02*
X11440000Y19040000I50000J0D01*
G01*
X11540000Y19040000D01*
G75*
G02*
X11590000Y18990000I0J-50000D01*
G01*
G37*
G04 #@! TD.AperFunction*
G04 #@! TA.AperFunction,SMDPad,CuDef*
G36*
G01*
X11990000Y13090000D02*
X11990000Y11790000D01*
G75*
G02*
X11940000Y11740000I-50000J0D01*
G01*
X11840000Y11740000D01*
G75*
G02*
X11790000Y11790000I0J50000D01*
G01*
X11790000Y13090000D01*
G75*
G02*
X11840000Y13140000I50000J0D01*
G01*
X11940000Y13140000D01*
G75*
G02*
X11990000Y13090000I0J-50000D01*
G01*
G37*
G04 #@! TD.AperFunction*
G04 #@! TA.AperFunction,SMDPad,CuDef*
G36*
G01*
X11990000Y18990000D02*
X11990000Y17690000D01*
G75*
G02*
X11940000Y17640000I-50000J0D01*
G01*
X11840000Y17640000D01*
G75*
G02*
X11790000Y17690000I0J50000D01*
G01*
X11790000Y18990000D01*
G75*
G02*
X11840000Y19040000I50000J0D01*
G01*
X11940000Y19040000D01*
G75*
G02*
X11990000Y18990000I0J-50000D01*
G01*
G37*
G04 #@! TD.AperFunction*
G04 #@! TA.AperFunction,SMDPad,CuDef*
G36*
G01*
X12390000Y13090000D02*
X12390000Y11790000D01*
G75*
G02*
X12340000Y11740000I-50000J0D01*
G01*
X12240000Y11740000D01*
G75*
G02*
X12190000Y11790000I0J50000D01*
G01*
X12190000Y13090000D01*
G75*
G02*
X12240000Y13140000I50000J0D01*
G01*
X12340000Y13140000D01*
G75*
G02*
X12390000Y13090000I0J-50000D01*
G01*
G37*
G04 #@! TD.AperFunction*
G04 #@! TA.AperFunction,SMDPad,CuDef*
G36*
G01*
X12390000Y18990000D02*
X12390000Y17690000D01*
G75*
G02*
X12340000Y17640000I-50000J0D01*
G01*
X12240000Y17640000D01*
G75*
G02*
X12190000Y17690000I0J50000D01*
G01*
X12190000Y18990000D01*
G75*
G02*
X12240000Y19040000I50000J0D01*
G01*
X12340000Y19040000D01*
G75*
G02*
X12390000Y18990000I0J-50000D01*
G01*
G37*
G04 #@! TD.AperFunction*
G04 #@! TA.AperFunction,SMDPad,CuDef*
G36*
G01*
X12790000Y13090000D02*
X12790000Y11790000D01*
G75*
G02*
X12740000Y11740000I-50000J0D01*
G01*
X12640000Y11740000D01*
G75*
G02*
X12590000Y11790000I0J50000D01*
G01*
X12590000Y13090000D01*
G75*
G02*
X12640000Y13140000I50000J0D01*
G01*
X12740000Y13140000D01*
G75*
G02*
X12790000Y13090000I0J-50000D01*
G01*
G37*
G04 #@! TD.AperFunction*
G04 #@! TA.AperFunction,SMDPad,CuDef*
G36*
G01*
X12790000Y18990000D02*
X12790000Y17690000D01*
G75*
G02*
X12740000Y17640000I-50000J0D01*
G01*
X12640000Y17640000D01*
G75*
G02*
X12590000Y17690000I0J50000D01*
G01*
X12590000Y18990000D01*
G75*
G02*
X12640000Y19040000I50000J0D01*
G01*
X12740000Y19040000D01*
G75*
G02*
X12790000Y18990000I0J-50000D01*
G01*
G37*
G04 #@! TD.AperFunction*
G04 #@! TA.AperFunction,SMDPad,CuDef*
G36*
G01*
X13190000Y13090000D02*
X13190000Y11790000D01*
G75*
G02*
X13140000Y11740000I-50000J0D01*
G01*
X13040000Y11740000D01*
G75*
G02*
X12990000Y11790000I0J50000D01*
G01*
X12990000Y13090000D01*
G75*
G02*
X13040000Y13140000I50000J0D01*
G01*
X13140000Y13140000D01*
G75*
G02*
X13190000Y13090000I0J-50000D01*
G01*
G37*
G04 #@! TD.AperFunction*
G04 #@! TA.AperFunction,SMDPad,CuDef*
G36*
G01*
X13190000Y18990000D02*
X13190000Y17690000D01*
G75*
G02*
X13140000Y17640000I-50000J0D01*
G01*
X13040000Y17640000D01*
G75*
G02*
X12990000Y17690000I0J50000D01*
G01*
X12990000Y18990000D01*
G75*
G02*
X13040000Y19040000I50000J0D01*
G01*
X13140000Y19040000D01*
G75*
G02*
X13190000Y18990000I0J-50000D01*
G01*
G37*
G04 #@! TD.AperFunction*
G04 #@! TA.AperFunction,SMDPad,CuDef*
G36*
G01*
X13590000Y13090000D02*
X13590000Y11790000D01*
G75*
G02*
X13540000Y11740000I-50000J0D01*
G01*
X13440000Y11740000D01*
G75*
G02*
X13390000Y11790000I0J50000D01*
G01*
X13390000Y13090000D01*
G75*
G02*
X13440000Y13140000I50000J0D01*
G01*
X13540000Y13140000D01*
G75*
G02*
X13590000Y13090000I0J-50000D01*
G01*
G37*
G04 #@! TD.AperFunction*
G04 #@! TA.AperFunction,SMDPad,CuDef*
G36*
G01*
X13590000Y18990000D02*
X13590000Y17690000D01*
G75*
G02*
X13540000Y17640000I-50000J0D01*
G01*
X13440000Y17640000D01*
G75*
G02*
X13390000Y17690000I0J50000D01*
G01*
X13390000Y18990000D01*
G75*
G02*
X13440000Y19040000I50000J0D01*
G01*
X13540000Y19040000D01*
G75*
G02*
X13590000Y18990000I0J-50000D01*
G01*
G37*
G04 #@! TD.AperFunction*
G04 #@! TA.AperFunction,SMDPad,CuDef*
G36*
G01*
X13990000Y13090000D02*
X13990000Y11790000D01*
G75*
G02*
X13940000Y11740000I-50000J0D01*
G01*
X13840000Y11740000D01*
G75*
G02*
X13790000Y11790000I0J50000D01*
G01*
X13790000Y13090000D01*
G75*
G02*
X13840000Y13140000I50000J0D01*
G01*
X13940000Y13140000D01*
G75*
G02*
X13990000Y13090000I0J-50000D01*
G01*
G37*
G04 #@! TD.AperFunction*
G04 #@! TA.AperFunction,SMDPad,CuDef*
G36*
G01*
X13990000Y18990000D02*
X13990000Y17690000D01*
G75*
G02*
X13940000Y17640000I-50000J0D01*
G01*
X13840000Y17640000D01*
G75*
G02*
X13790000Y17690000I0J50000D01*
G01*
X13790000Y18990000D01*
G75*
G02*
X13840000Y19040000I50000J0D01*
G01*
X13940000Y19040000D01*
G75*
G02*
X13990000Y18990000I0J-50000D01*
G01*
G37*
G04 #@! TD.AperFunction*
G04 #@! TA.AperFunction,SMDPad,CuDef*
G36*
G01*
X14390000Y13090000D02*
X14390000Y11790000D01*
G75*
G02*
X14340000Y11740000I-50000J0D01*
G01*
X14240000Y11740000D01*
G75*
G02*
X14190000Y11790000I0J50000D01*
G01*
X14190000Y13090000D01*
G75*
G02*
X14240000Y13140000I50000J0D01*
G01*
X14340000Y13140000D01*
G75*
G02*
X14390000Y13090000I0J-50000D01*
G01*
G37*
G04 #@! TD.AperFunction*
G04 #@! TA.AperFunction,SMDPad,CuDef*
G36*
G01*
X14390000Y18990000D02*
X14390000Y17690000D01*
G75*
G02*
X14340000Y17640000I-50000J0D01*
G01*
X14240000Y17640000D01*
G75*
G02*
X14190000Y17690000I0J50000D01*
G01*
X14190000Y18990000D01*
G75*
G02*
X14240000Y19040000I50000J0D01*
G01*
X14340000Y19040000D01*
G75*
G02*
X14390000Y18990000I0J-50000D01*
G01*
G37*
G04 #@! TD.AperFunction*
G04 #@! TA.AperFunction,SMDPad,CuDef*
G36*
G01*
X4185000Y26520000D02*
X4555000Y26520000D01*
G75*
G02*
X4690000Y26385000I0J-135000D01*
G01*
X4690000Y26115000D01*
G75*
G02*
X4555000Y25980000I-135000J0D01*
G01*
X4185000Y25980000D01*
G75*
G02*
X4050000Y26115000I0J135000D01*
G01*
X4050000Y26385000D01*
G75*
G02*
X4185000Y26520000I135000J0D01*
G01*
G37*
G04 #@! TD.AperFunction*
G04 #@! TA.AperFunction,SMDPad,CuDef*
G36*
G01*
X4185000Y27540000D02*
X4555000Y27540000D01*
G75*
G02*
X4690000Y27405000I0J-135000D01*
G01*
X4690000Y27135000D01*
G75*
G02*
X4555000Y27000000I-135000J0D01*
G01*
X4185000Y27000000D01*
G75*
G02*
X4050000Y27135000I0J135000D01*
G01*
X4050000Y27405000D01*
G75*
G02*
X4185000Y27540000I135000J0D01*
G01*
G37*
G04 #@! TD.AperFunction*
D10*
X4570000Y29790000D03*
X13210000Y29790000D03*
D11*
X13210000Y33970000D03*
X4570000Y33970000D03*
D12*
X16510000Y1270000D03*
X16510000Y3810000D03*
X16510000Y6350000D03*
X16510000Y8890000D03*
X16510000Y11430000D03*
X16510000Y13970000D03*
X16510000Y16510000D03*
X16510000Y19050000D03*
X16510000Y21590000D03*
X16510000Y24130000D03*
X3810000Y1270000D03*
X3810000Y3810000D03*
X6350000Y1270000D03*
X6350000Y3810000D03*
X8890000Y1270000D03*
X8890000Y3810000D03*
X11430000Y1270000D03*
X11430000Y3810000D03*
X13970000Y1270000D03*
X13970000Y3810000D03*
X1270000Y1270000D03*
X1270000Y3810000D03*
X1270000Y6350000D03*
X1270000Y8890000D03*
X1270000Y11430000D03*
X1270000Y13970000D03*
X1270000Y16510000D03*
X1270000Y19050000D03*
X1270000Y21590000D03*
X1270000Y24130000D03*
G04 #@! TA.AperFunction,SMDPad,CuDef*
G36*
G01*
X10690000Y6305000D02*
X10690000Y6605000D01*
G75*
G02*
X10840000Y6755000I150000J0D01*
G01*
X12190000Y6755000D01*
G75*
G02*
X12340000Y6605000I0J-150000D01*
G01*
X12340000Y6305000D01*
G75*
G02*
X12190000Y6155000I-150000J0D01*
G01*
X10840000Y6155000D01*
G75*
G02*
X10690000Y6305000I0J150000D01*
G01*
G37*
G04 #@! TD.AperFunction*
G04 #@! TA.AperFunction,SMDPad,CuDef*
G36*
G01*
X10690000Y7575000D02*
X10690000Y7875000D01*
G75*
G02*
X10840000Y8025000I150000J0D01*
G01*
X12190000Y8025000D01*
G75*
G02*
X12340000Y7875000I0J-150000D01*
G01*
X12340000Y7575000D01*
G75*
G02*
X12190000Y7425000I-150000J0D01*
G01*
X10840000Y7425000D01*
G75*
G02*
X10690000Y7575000I0J150000D01*
G01*
G37*
G04 #@! TD.AperFunction*
G04 #@! TA.AperFunction,SMDPad,CuDef*
G36*
G01*
X10690000Y8845000D02*
X10690000Y9145000D01*
G75*
G02*
X10840000Y9295000I150000J0D01*
G01*
X12190000Y9295000D01*
G75*
G02*
X12340000Y9145000I0J-150000D01*
G01*
X12340000Y8845000D01*
G75*
G02*
X12190000Y8695000I-150000J0D01*
G01*
X10840000Y8695000D01*
G75*
G02*
X10690000Y8845000I0J150000D01*
G01*
G37*
G04 #@! TD.AperFunction*
G04 #@! TA.AperFunction,SMDPad,CuDef*
G36*
G01*
X10690000Y10115000D02*
X10690000Y10415000D01*
G75*
G02*
X10840000Y10565000I150000J0D01*
G01*
X12190000Y10565000D01*
G75*
G02*
X12340000Y10415000I0J-150000D01*
G01*
X12340000Y10115000D01*
G75*
G02*
X12190000Y9965000I-150000J0D01*
G01*
X10840000Y9965000D01*
G75*
G02*
X10690000Y10115000I0J150000D01*
G01*
G37*
G04 #@! TD.AperFunction*
G04 #@! TA.AperFunction,SMDPad,CuDef*
G36*
G01*
X5440000Y10115000D02*
X5440000Y10415000D01*
G75*
G02*
X5590000Y10565000I150000J0D01*
G01*
X6940000Y10565000D01*
G75*
G02*
X7090000Y10415000I0J-150000D01*
G01*
X7090000Y10115000D01*
G75*
G02*
X6940000Y9965000I-150000J0D01*
G01*
X5590000Y9965000D01*
G75*
G02*
X5440000Y10115000I0J150000D01*
G01*
G37*
G04 #@! TD.AperFunction*
G04 #@! TA.AperFunction,SMDPad,CuDef*
G36*
G01*
X5440000Y8845000D02*
X5440000Y9145000D01*
G75*
G02*
X5590000Y9295000I150000J0D01*
G01*
X6940000Y9295000D01*
G75*
G02*
X7090000Y9145000I0J-150000D01*
G01*
X7090000Y8845000D01*
G75*
G02*
X6940000Y8695000I-150000J0D01*
G01*
X5590000Y8695000D01*
G75*
G02*
X5440000Y8845000I0J150000D01*
G01*
G37*
G04 #@! TD.AperFunction*
G04 #@! TA.AperFunction,SMDPad,CuDef*
G36*
G01*
X5440000Y7575000D02*
X5440000Y7875000D01*
G75*
G02*
X5590000Y8025000I150000J0D01*
G01*
X6940000Y8025000D01*
G75*
G02*
X7090000Y7875000I0J-150000D01*
G01*
X7090000Y7575000D01*
G75*
G02*
X6940000Y7425000I-150000J0D01*
G01*
X5590000Y7425000D01*
G75*
G02*
X5440000Y7575000I0J150000D01*
G01*
G37*
G04 #@! TD.AperFunction*
G04 #@! TA.AperFunction,SMDPad,CuDef*
G36*
G01*
X5440000Y6305000D02*
X5440000Y6605000D01*
G75*
G02*
X5590000Y6755000I150000J0D01*
G01*
X6940000Y6755000D01*
G75*
G02*
X7090000Y6605000I0J-150000D01*
G01*
X7090000Y6305000D01*
G75*
G02*
X6940000Y6155000I-150000J0D01*
G01*
X5590000Y6155000D01*
G75*
G02*
X5440000Y6305000I0J150000D01*
G01*
G37*
G04 #@! TD.AperFunction*
X16510000Y26670000D03*
X16510000Y29210000D03*
X16510000Y31750000D03*
X16510000Y34290000D03*
X1270000Y26670000D03*
X1270000Y29210000D03*
X1270000Y31750000D03*
X1270000Y34290000D03*
D13*
X10590000Y22670000D03*
X10590000Y20670000D03*
X6190000Y25070000D03*
D14*
X12270000Y23250000D03*
X8890000Y7360000D03*
X7200000Y26120000D03*
X8890000Y9360000D03*
X12700000Y23670000D03*
X11850000Y22830000D03*
X12700000Y22830000D03*
X11850000Y23680000D03*
X9890000Y16300000D03*
X10900000Y17180000D03*
X8890000Y15290000D03*
X7900000Y16300000D03*
X7000000Y17180000D03*
X6260000Y5180000D03*
X15740000Y25400000D03*
X8740000Y19450000D03*
X3380000Y15240000D03*
X13550000Y15100000D03*
X15740000Y20320000D03*
X8890000Y17280000D03*
X2980000Y18570000D03*
X8550000Y26550000D03*
X4440000Y20340000D03*
X9900000Y27680000D03*
X13810000Y7130000D03*
X6680000Y27760000D03*
X13810000Y9030000D03*
X5550000Y24040000D03*
X4950000Y24040000D03*
X4350000Y24040000D03*
X3750000Y24040000D03*
X4050000Y23520000D03*
X4650000Y23520000D03*
X5250000Y23520000D03*
X14290000Y5080000D03*
X15990000Y5080000D03*
X3410000Y2540000D03*
X5990000Y21990000D03*
X4740000Y9620000D03*
X13170000Y7130000D03*
X12230000Y26130000D03*
X6830000Y13520000D03*
X13780000Y21740000D03*
X14000000Y17220000D03*
X3990000Y19890000D03*
X3750000Y25800000D03*
X3150000Y25800000D03*
X2980000Y19170000D03*
X13490000Y20580000D03*
X5550000Y14300000D03*
X5550000Y25710000D03*
X8490000Y27730000D03*
X10560000Y30170000D03*
X7220000Y30170000D03*
X11760000Y20970000D03*
X11640000Y20380000D03*
X9810000Y11350000D03*
X10410000Y11350000D03*
X12230000Y14290000D03*
X7410000Y10960000D03*
X2970000Y13030000D03*
X13570000Y19630000D03*
X13090000Y19270000D03*
X13060000Y15590000D03*
X12940000Y15000000D03*
X12350000Y14880000D03*
X6230000Y13580000D03*
X6140000Y14180000D03*
X2970000Y11810000D03*
X3840000Y15640000D03*
X4370000Y15940000D03*
X4480000Y15340000D03*
X5080000Y15240000D03*
X2970000Y12420000D03*
X13650000Y15700000D03*
X13760000Y16290000D03*
X13020000Y19870000D03*
X4350000Y25710000D03*
X4060000Y8360000D03*
X4950000Y25710000D03*
X11290000Y13820000D03*
X5070000Y6410000D03*
X4990000Y19420000D03*
X5790000Y20030000D03*
X5890000Y20640000D03*
X7550000Y21800000D03*
X6490000Y20740000D03*
X12410000Y8360000D03*
X7850000Y22400000D03*
X14280000Y22090000D03*
X13560000Y26600000D03*
X6810000Y10950000D03*
X6590000Y21340000D03*
X10160000Y2540000D03*
X9350000Y10960000D03*
X13560000Y27300000D03*
X13210000Y21170000D03*
X15740000Y12700000D03*
X8550000Y24630000D03*
X14310000Y8430000D03*
X12230000Y20530000D03*
X11140000Y21210000D03*
X14310000Y7730000D03*
X10780000Y21690000D03*
X3280000Y27770000D03*
X3880000Y27770000D03*
D15*
X14290000Y18300000D02*
X13890000Y18300000D01*
X8890000Y14939532D02*
X8890000Y15290000D01*
X7090000Y13139532D02*
X8890000Y14939532D01*
X7090000Y12440000D02*
X7090000Y13139532D01*
D16*
X7090000Y17270000D02*
X7000000Y17180000D01*
X7090000Y18340000D02*
X7090000Y17270000D01*
X11490000Y19074886D02*
X11490000Y18340000D01*
X12705001Y22824999D02*
X12700000Y22830000D01*
X12705001Y20289887D02*
X12705001Y22824999D01*
X11490000Y19074886D02*
X12705001Y20289887D01*
D15*
X14290000Y18870000D02*
X15740000Y20320000D01*
X14290000Y18340000D02*
X14290000Y18870000D01*
D16*
X7985000Y10265000D02*
X8890000Y9360000D01*
X6265000Y10265000D02*
X7985000Y10265000D01*
X13550000Y14907720D02*
X13550000Y15100000D01*
X12032289Y13390010D02*
X13550000Y14907720D01*
X11705124Y13390010D02*
X12032289Y13390010D01*
X11490000Y13174886D02*
X11705124Y13390010D01*
X11490000Y12440000D02*
X11490000Y13174886D01*
X12495000Y6455000D02*
X13170000Y7130000D01*
X11515000Y6455000D02*
X12495000Y6455000D01*
D17*
X3990000Y19890000D02*
X3780000Y20100000D01*
X3780000Y20100000D02*
X3780000Y20610000D01*
X5160000Y21990000D02*
X5990000Y21990000D01*
X3780000Y20610000D02*
X5160000Y21990000D01*
X5550000Y25710000D02*
X6190000Y25070000D01*
D16*
X9090000Y18340000D02*
X9090000Y19123443D01*
X8490000Y27730000D02*
X9215001Y27004999D01*
X9215001Y19248444D02*
X9090000Y19123443D01*
X9215001Y27004999D02*
X9215001Y19248444D01*
D15*
X15320000Y24130000D02*
X16510000Y24130000D01*
X14690010Y24759990D02*
X15320000Y24130000D01*
X14690010Y27534268D02*
X14690010Y24759990D01*
X13964269Y28260009D02*
X14690010Y27534268D01*
X13149730Y28260010D02*
X13964269Y28260009D01*
X9589990Y24700270D02*
X13149730Y28260010D01*
X9589990Y19163800D02*
X9589990Y24700270D01*
X9490000Y19063810D02*
X9589990Y19163800D01*
X9490000Y18340000D02*
X9490000Y19063810D01*
X14390000Y23710000D02*
X16510000Y21590000D01*
X14390000Y27410000D02*
X14390000Y23710000D01*
X13840000Y27960000D02*
X14390000Y27410000D01*
X13273998Y27960000D02*
X13840000Y27960000D01*
X9890000Y24576002D02*
X13273998Y27960000D01*
X9890000Y18340000D02*
X9890000Y24576002D01*
X2699999Y27780001D02*
X1270000Y29210000D01*
X2699999Y23548557D02*
X2699999Y27780001D01*
X8130010Y22909990D02*
X3338566Y22909990D01*
X8589981Y22450019D02*
X8130010Y22909990D01*
X8589981Y20408539D02*
X8589981Y22450019D01*
X7890000Y19708558D02*
X8589981Y20408539D01*
X3338566Y22909990D02*
X2699999Y23548557D01*
X7890000Y18340000D02*
X7890000Y19708558D01*
X2399989Y25540011D02*
X1270000Y26670000D01*
X2399989Y23424289D02*
X2399989Y25540011D01*
X6020020Y22609980D02*
X3214298Y22609980D01*
X3214298Y22609980D02*
X2399989Y23424289D01*
X7490000Y21140000D02*
X6020020Y22609980D01*
X7490000Y18340000D02*
X7490000Y21140000D01*
X3115000Y22285000D02*
X1270000Y24130000D01*
X3115000Y20098998D02*
X3115000Y22285000D01*
X3890000Y19323998D02*
X3115000Y20098998D01*
X3890000Y18340000D02*
X3890000Y19323998D01*
X14200468Y11430000D02*
X16510000Y11430000D01*
X13890000Y11740468D02*
X14200468Y11430000D01*
X13890000Y12440000D02*
X13890000Y11740468D01*
X13490000Y11716190D02*
X13490000Y12440000D01*
X16316190Y8890000D02*
X13490000Y11716190D01*
X16510000Y8890000D02*
X16316190Y8890000D01*
X15380000Y7480000D02*
X16510000Y6350000D01*
X11890000Y11610000D02*
X11985010Y11514990D01*
X11890000Y12440000D02*
X11890000Y11610000D01*
X15380000Y9401912D02*
X15380000Y7480000D01*
X13266922Y11514990D02*
X15380000Y9401912D01*
X11985010Y11514990D02*
X13266922Y11514990D01*
X11090000Y11740468D02*
X11090000Y12440000D01*
X11615488Y11214980D02*
X11090000Y11740468D01*
X13142654Y11214980D02*
X11615488Y11214980D01*
X15079990Y9277644D02*
X13142654Y11214980D01*
X15079991Y5240009D02*
X15079990Y9277644D01*
X16510000Y3810000D02*
X15079991Y5240009D01*
X14779982Y9153374D02*
X13018386Y10914970D01*
X13018386Y10914970D02*
X11491220Y10914970D01*
X14779982Y5115740D02*
X14779982Y9153374D01*
X10690000Y11716190D02*
X10690000Y12440000D01*
X15237861Y4657861D02*
X14779982Y5115740D01*
X11491220Y10914970D02*
X10690000Y11716190D01*
X15237861Y2542139D02*
X15237861Y4657861D01*
X16510000Y1270000D02*
X15237861Y2542139D01*
X2700000Y5240000D02*
X1270000Y3810000D01*
X2700000Y9471444D02*
X2700000Y5240000D01*
X4128536Y10899980D02*
X2700000Y9471444D01*
X5898068Y10899980D02*
X4128536Y10899980D01*
X6690000Y11691912D02*
X5898068Y10899980D01*
X6690000Y12440000D02*
X6690000Y11691912D01*
X2400000Y9595722D02*
X2400000Y7480000D01*
X4019258Y11214980D02*
X2400000Y9595722D01*
X5788790Y11214980D02*
X4019258Y11214980D01*
X6290000Y11716190D02*
X5788790Y11214980D01*
X6290000Y12440000D02*
X6290000Y11716190D01*
X1270000Y6350000D02*
X2400000Y7480000D01*
X1270000Y21519720D02*
X1270000Y21590000D01*
X3490000Y19299720D02*
X1270000Y21519720D01*
X3490000Y18340000D02*
X3490000Y19299720D01*
X5890000Y11740468D02*
X5664522Y11514990D01*
X5890000Y12440000D02*
X5890000Y11740468D01*
X5664522Y11514990D02*
X3894990Y11514990D01*
X3894990Y11514990D02*
X1270000Y8890000D01*
X2219989Y12379989D02*
X1270000Y11430000D01*
X2219989Y13370269D02*
X2219989Y12379989D01*
X2814749Y13965029D02*
X2219989Y13370269D01*
X3913058Y13965030D02*
X2814749Y13965029D01*
X4690000Y13188088D02*
X3913058Y13965030D01*
X4690000Y12440000D02*
X4690000Y13188088D01*
X1274970Y13965030D02*
X1270000Y13970000D01*
X4037325Y14265039D02*
X2690480Y14265038D01*
X2690480Y14265038D02*
X2395442Y13970000D01*
X5090000Y13212366D02*
X4037325Y14265039D01*
X5090000Y12440000D02*
X5090000Y13212366D01*
X2395442Y13970000D02*
X1270000Y13970000D01*
X5490000Y13239720D02*
X4164670Y14565050D01*
X5490000Y12440000D02*
X5490000Y13239720D01*
X3214950Y14565050D02*
X1270000Y16510000D01*
X4164670Y14565050D02*
X3214950Y14565050D01*
X2905010Y17414990D02*
X1270000Y19050000D01*
X4064522Y17414990D02*
X2905010Y17414990D01*
X4290000Y17640468D02*
X4064522Y17414990D01*
X4290000Y18340000D02*
X4290000Y17640468D01*
X14980000Y17520000D02*
X16510000Y19050000D01*
X14980000Y15878088D02*
X14980000Y17520000D01*
X12290000Y13188088D02*
X14980000Y15878088D01*
X12290000Y12440000D02*
X12290000Y13188088D01*
X15753820Y15753820D02*
X16510000Y16510000D01*
X15280010Y15753820D02*
X15753820Y15753820D01*
X12690000Y13163810D02*
X15280010Y15753820D01*
X12690000Y12440000D02*
X12690000Y13163810D01*
X13090000Y13139532D02*
X13920468Y13970000D01*
X13090000Y12440000D02*
X13090000Y13139532D01*
X13920468Y13970000D02*
X16510000Y13970000D01*
X9890000Y11430000D02*
X9810000Y11350000D01*
X9890000Y12440000D02*
X9890000Y11430000D01*
X10290000Y11470000D02*
X10410000Y11350000D01*
X10290000Y12440000D02*
X10290000Y11470000D01*
X8290000Y13284278D02*
X8290000Y12440000D01*
X9295722Y14290000D02*
X12230000Y14290000D01*
X8290000Y13284278D02*
X9295722Y14290000D01*
X7410000Y10960000D02*
X7410000Y11516002D01*
X7490000Y11596002D02*
X7490000Y12440000D01*
X7410000Y11516002D02*
X7490000Y11596002D01*
X3890000Y13139532D02*
X3890000Y12440000D01*
X3664522Y13365010D02*
X3890000Y13139532D01*
X3305010Y13365010D02*
X3664522Y13365010D01*
X2970000Y13030000D02*
X3305010Y13365010D01*
X13490000Y19039532D02*
X13600000Y19149532D01*
X13490000Y18340000D02*
X13490000Y19039532D01*
X13600000Y19600000D02*
X13570000Y19630000D01*
X13600000Y19149532D02*
X13600000Y19600000D01*
X13090000Y18340000D02*
X13090000Y19270000D01*
X13060000Y15670468D02*
X13060000Y15590000D01*
X11090000Y17640468D02*
X13060000Y15670468D01*
X11090000Y18340000D02*
X11090000Y17640468D01*
X10449999Y16963999D02*
X12078998Y15335000D01*
X10450000Y17376190D02*
X10449999Y16963999D01*
X10690000Y17616190D02*
X10450000Y17376190D01*
X10690000Y18340000D02*
X10690000Y17616190D01*
X12605000Y15335000D02*
X12940000Y15000000D01*
X12078998Y15335000D02*
X12605000Y15335000D01*
X10149990Y16839730D02*
X12109720Y14880000D01*
X10149991Y17500457D02*
X10149990Y16839730D01*
X10290000Y17640468D02*
X10149991Y17500457D01*
X10290000Y18340000D02*
X10290000Y17640468D01*
X12109720Y14880000D02*
X12350000Y14880000D01*
X6630000Y13980000D02*
X6230000Y13580000D01*
X6630000Y14356002D02*
X6630000Y13980000D01*
X6490020Y14495982D02*
X6630000Y14356002D01*
X6490020Y17405742D02*
X6490020Y14495982D01*
X6690000Y17605722D02*
X6490020Y17405742D01*
X6690000Y18340000D02*
X6690000Y17605722D01*
X6190000Y14210000D02*
X6260000Y14280000D01*
X6190010Y17530010D02*
X6190010Y14230010D01*
X6190010Y14230010D02*
X6140000Y14180000D01*
X6290000Y17630000D02*
X6190010Y17530010D01*
X6290000Y18340000D02*
X6290000Y17630000D01*
X3490000Y12440000D02*
X3490000Y11810000D01*
X3490000Y11810000D02*
X2970000Y11810000D01*
X5890000Y15383998D02*
X5890000Y18340000D01*
X5296001Y14789999D02*
X5890000Y15383998D01*
X4363999Y14789999D02*
X5296001Y14789999D01*
X3840000Y15313998D02*
X4363999Y14789999D01*
X3840000Y15640000D02*
X3840000Y15313998D01*
X4690000Y16260000D02*
X4690000Y18300000D01*
X4410000Y15980000D02*
X4690000Y16260000D01*
X5090000Y15950000D02*
X5090000Y18300000D01*
X4480000Y15340000D02*
X5090000Y15950000D01*
X5490000Y15650000D02*
X5490000Y18300000D01*
X5110000Y15270000D02*
X5490000Y15650000D01*
X4290000Y13163810D02*
X3788790Y13665020D01*
X4290000Y12440000D02*
X4290000Y13163810D01*
X2939018Y13665020D02*
X2519999Y13246001D01*
X3788790Y13665020D02*
X2939018Y13665020D01*
X2913998Y12420000D02*
X2970000Y12420000D01*
X2519999Y12813999D02*
X2913998Y12420000D01*
X2519999Y13246001D02*
X2519999Y12813999D01*
X11890000Y18300000D02*
X11890000Y17460000D01*
X13650000Y15700000D02*
X11890000Y17460000D01*
X12290000Y17484278D02*
X13484278Y16290000D01*
X13484278Y16290000D02*
X13760000Y16290000D01*
X12290000Y18300000D02*
X12290000Y17484278D01*
X12639999Y19489999D02*
X13020000Y19870000D01*
X12639999Y19053999D02*
X12639999Y19489999D01*
X12690000Y19003998D02*
X12639999Y19053999D01*
X12690000Y18340000D02*
X12690000Y19003998D01*
D17*
X4370000Y25730000D02*
X4350000Y25710000D01*
X4370000Y26250000D02*
X4370000Y25730000D01*
X4350000Y25710000D02*
X4950000Y25710000D01*
D16*
X7890000Y12440000D02*
X7890000Y11330000D01*
X7890000Y11330000D02*
X9550000Y9670000D01*
X9550000Y9670000D02*
X9550000Y9070000D01*
X8840000Y8360000D02*
X4060000Y8360000D01*
X9550000Y9070000D02*
X8840000Y8360000D01*
D15*
X8290000Y18300000D02*
X8290000Y18850000D01*
X8889991Y20284271D02*
X8290000Y19684280D01*
X8889991Y23320009D02*
X8889991Y20284271D01*
X8290000Y19684280D02*
X8290000Y18340000D01*
X5580000Y26630000D02*
X8889991Y23320009D01*
X5580000Y27000000D02*
X5580000Y26630000D01*
X3010020Y29569980D02*
X5580000Y27000000D01*
X3010020Y30009980D02*
X3010020Y29569980D01*
X1270000Y31750000D02*
X3010020Y30009980D01*
X8690000Y13260000D02*
X9250000Y13820000D01*
X9250000Y13820000D02*
X11290000Y13820000D01*
X8690000Y12400000D02*
X8690000Y13260000D01*
X6260000Y6410000D02*
X6265000Y6405000D01*
X5090000Y6410000D02*
X6260000Y6410000D01*
X10495000Y7715000D02*
X11515000Y7715000D01*
X10310009Y3335731D02*
X10310009Y7530009D01*
X9344268Y2369990D02*
X10310009Y3335731D01*
X10310009Y7530009D02*
X10495000Y7715000D01*
X5250010Y2369990D02*
X9344268Y2369990D01*
X3810000Y3810000D02*
X5250010Y2369990D01*
X2540000Y2540000D02*
X3810000Y1270000D01*
X2540000Y4655722D02*
X2540000Y2540000D01*
X3000009Y5115731D02*
X2540000Y4655722D01*
X3000010Y8210010D02*
X3000009Y5115731D01*
X3775000Y8985000D02*
X3000010Y8210010D01*
X6265000Y8985000D02*
X3775000Y8985000D01*
X9220000Y2670000D02*
X7490000Y2670000D01*
X7490000Y2670000D02*
X6350000Y3810000D01*
X10009999Y9769999D02*
X10010000Y3460000D01*
X10010000Y3460000D02*
X9220000Y2670000D01*
X10495000Y10255000D02*
X10009999Y9769999D01*
X11515000Y10255000D02*
X10495000Y10255000D01*
X8890000Y6410000D02*
X8890000Y3810000D01*
X7585000Y7715000D02*
X8890000Y6410000D01*
X6265000Y7715000D02*
X7585000Y7715000D01*
X12410000Y8360000D02*
X12410000Y8630000D01*
X12045000Y8995000D02*
X11515000Y8995000D01*
X12410000Y8630000D02*
X12045000Y8995000D01*
X13560000Y22810000D02*
X14280000Y22090000D01*
X13560000Y26600000D02*
X13560000Y22810000D01*
X12700000Y2540000D02*
X13970000Y3810000D01*
X10160000Y2540000D02*
X12700000Y2540000D01*
D16*
X9490000Y11705114D02*
X9320000Y11535114D01*
X9490000Y12440000D02*
X9490000Y11705114D01*
X9320000Y10990000D02*
X9350000Y10960000D01*
X9320000Y11535114D02*
X9320000Y10990000D01*
D15*
X13210000Y26283998D02*
X13210000Y21170000D01*
X13109999Y26383999D02*
X13210000Y26283998D01*
X13109999Y26849999D02*
X13109999Y26383999D01*
X13560000Y27300000D02*
X13109999Y26849999D01*
X11350001Y21420001D02*
X11140000Y21210000D01*
X11976001Y21420001D02*
X11350001Y21420001D01*
X12230000Y21166002D02*
X11976001Y21420001D01*
X12230000Y20530000D02*
X12230000Y21166002D01*
X11130000Y21210000D02*
X10590000Y20670000D01*
X11140000Y21210000D02*
X11130000Y21210000D01*
X10590000Y21880000D02*
X10780000Y21690000D01*
X10590000Y22670000D02*
X10590000Y21880000D01*
D17*
X3280000Y27770000D02*
X3880000Y27770000D01*
X4370000Y27280000D02*
X3880000Y27770000D01*
X4370000Y27270000D02*
X4370000Y27280000D01*
D15*
X2240001Y2554733D02*
X2238550Y2540000D01*
X2244342Y2481190D01*
X2261497Y2424640D01*
X2289353Y2372523D01*
X2315696Y2340425D01*
X2326843Y2326842D01*
X2338285Y2317452D01*
X2901234Y1754502D01*
X2824390Y1568982D01*
X2785000Y1370954D01*
X2785000Y1169046D01*
X2824390Y971018D01*
X2901656Y784480D01*
X3013830Y616600D01*
X3155430Y475000D01*
X1876537Y475000D01*
X1922253Y547036D01*
X1270000Y1199289D01*
X617747Y547036D01*
X663463Y475000D01*
X523228Y475000D01*
X495587Y477710D01*
X491341Y478992D01*
X487426Y481074D01*
X483990Y483877D01*
X481163Y487294D01*
X479051Y491198D01*
X477742Y495429D01*
X475000Y521516D01*
X475000Y663463D01*
X547036Y617747D01*
X1199289Y1270000D01*
X1340711Y1270000D01*
X1992964Y617747D01*
X2131663Y705769D01*
X2225182Y884712D01*
X2281994Y1078462D01*
X2299917Y1279573D01*
X2278259Y1480316D01*
X2217855Y1672977D01*
X2131663Y1834231D01*
X1992964Y1922253D01*
X1340711Y1270000D01*
X1199289Y1270000D01*
X547036Y1922253D01*
X475000Y1876537D01*
X475000Y1992964D01*
X617747Y1992964D01*
X1270000Y1340711D01*
X1922253Y1992964D01*
X1834231Y2131663D01*
X1655288Y2225182D01*
X1461538Y2281994D01*
X1260427Y2299917D01*
X1059684Y2278259D01*
X867023Y2217855D01*
X705769Y2131663D01*
X617747Y1992964D01*
X475000Y1992964D01*
X475000Y3155430D01*
X616600Y3013830D01*
X784480Y2901656D01*
X971018Y2824390D01*
X1169046Y2785000D01*
X1370954Y2785000D01*
X1568982Y2824390D01*
X1755520Y2901656D01*
X1923400Y3013830D01*
X2066170Y3156600D01*
X2178344Y3324480D01*
X2240001Y3473332D01*
X2240001Y2554733D01*
G04 #@! TA.AperFunction,Conductor*
D18*
G36*
X2240001Y2554733D02*
G01*
X2238550Y2540000D01*
X2244342Y2481190D01*
X2261497Y2424640D01*
X2289353Y2372523D01*
X2315696Y2340425D01*
X2326843Y2326842D01*
X2338285Y2317452D01*
X2901234Y1754502D01*
X2824390Y1568982D01*
X2785000Y1370954D01*
X2785000Y1169046D01*
X2824390Y971018D01*
X2901656Y784480D01*
X3013830Y616600D01*
X3155430Y475000D01*
X1876537Y475000D01*
X1922253Y547036D01*
X1270000Y1199289D01*
X617747Y547036D01*
X663463Y475000D01*
X523228Y475000D01*
X495587Y477710D01*
X491341Y478992D01*
X487426Y481074D01*
X483990Y483877D01*
X481163Y487294D01*
X479051Y491198D01*
X477742Y495429D01*
X475000Y521516D01*
X475000Y663463D01*
X547036Y617747D01*
X1199289Y1270000D01*
X1340711Y1270000D01*
X1992964Y617747D01*
X2131663Y705769D01*
X2225182Y884712D01*
X2281994Y1078462D01*
X2299917Y1279573D01*
X2278259Y1480316D01*
X2217855Y1672977D01*
X2131663Y1834231D01*
X1992964Y1922253D01*
X1340711Y1270000D01*
X1199289Y1270000D01*
X547036Y1922253D01*
X475000Y1876537D01*
X475000Y1992964D01*
X617747Y1992964D01*
X1270000Y1340711D01*
X1922253Y1992964D01*
X1834231Y2131663D01*
X1655288Y2225182D01*
X1461538Y2281994D01*
X1260427Y2299917D01*
X1059684Y2278259D01*
X867023Y2217855D01*
X705769Y2131663D01*
X617747Y1992964D01*
X475000Y1992964D01*
X475000Y3155430D01*
X616600Y3013830D01*
X784480Y2901656D01*
X971018Y2824390D01*
X1169046Y2785000D01*
X1370954Y2785000D01*
X1568982Y2824390D01*
X1755520Y2901656D01*
X1923400Y3013830D01*
X2066170Y3156600D01*
X2178344Y3324480D01*
X2240001Y3473332D01*
X2240001Y2554733D01*
G37*
G04 #@! TD.AperFunction*
D15*
X9761215Y2326845D02*
X9810462Y2253142D01*
X9873142Y2190462D01*
X9946845Y2141215D01*
X10028740Y2107294D01*
X10115679Y2090000D01*
X10204321Y2090000D01*
X10291260Y2107294D01*
X10373155Y2141215D01*
X10446858Y2190462D01*
X10496396Y2240000D01*
X11093332Y2240000D01*
X10944480Y2178344D01*
X10776600Y2066170D01*
X10633830Y1923400D01*
X10521656Y1755520D01*
X10444390Y1568982D01*
X10405000Y1370954D01*
X10405000Y1169046D01*
X10444390Y971018D01*
X10521656Y784480D01*
X10633830Y616600D01*
X10775430Y475000D01*
X9496537Y475000D01*
X9542253Y547036D01*
X8890000Y1199289D01*
X8237747Y547036D01*
X8283463Y475000D01*
X7004570Y475000D01*
X7146170Y616600D01*
X7258344Y784480D01*
X7335610Y971018D01*
X7375000Y1169046D01*
X7375000Y1260427D01*
X7860083Y1260427D01*
X7881741Y1059684D01*
X7942145Y867023D01*
X8028337Y705769D01*
X8167036Y617747D01*
X8819289Y1270000D01*
X8960711Y1270000D01*
X9612964Y617747D01*
X9751663Y705769D01*
X9845182Y884712D01*
X9901994Y1078462D01*
X9919917Y1279573D01*
X9898259Y1480316D01*
X9837855Y1672977D01*
X9751663Y1834231D01*
X9612964Y1922253D01*
X8960711Y1270000D01*
X8819289Y1270000D01*
X8167036Y1922253D01*
X8028337Y1834231D01*
X7934818Y1655288D01*
X7878006Y1461538D01*
X7860083Y1260427D01*
X7375000Y1260427D01*
X7375000Y1370954D01*
X7335610Y1568982D01*
X7258344Y1755520D01*
X7146170Y1923400D01*
X7003400Y2066170D01*
X6997683Y2069990D01*
X8286630Y2069990D01*
X8237747Y1992964D01*
X8890000Y1340711D01*
X9542253Y1992964D01*
X9474637Y2099508D01*
X9511745Y2119343D01*
X9557426Y2156832D01*
X9566821Y2168280D01*
X9750721Y2352180D01*
X9761215Y2326845D01*
G04 #@! TA.AperFunction,Conductor*
D18*
G36*
X9761215Y2326845D02*
G01*
X9810462Y2253142D01*
X9873142Y2190462D01*
X9946845Y2141215D01*
X10028740Y2107294D01*
X10115679Y2090000D01*
X10204321Y2090000D01*
X10291260Y2107294D01*
X10373155Y2141215D01*
X10446858Y2190462D01*
X10496396Y2240000D01*
X11093332Y2240000D01*
X10944480Y2178344D01*
X10776600Y2066170D01*
X10633830Y1923400D01*
X10521656Y1755520D01*
X10444390Y1568982D01*
X10405000Y1370954D01*
X10405000Y1169046D01*
X10444390Y971018D01*
X10521656Y784480D01*
X10633830Y616600D01*
X10775430Y475000D01*
X9496537Y475000D01*
X9542253Y547036D01*
X8890000Y1199289D01*
X8237747Y547036D01*
X8283463Y475000D01*
X7004570Y475000D01*
X7146170Y616600D01*
X7258344Y784480D01*
X7335610Y971018D01*
X7375000Y1169046D01*
X7375000Y1260427D01*
X7860083Y1260427D01*
X7881741Y1059684D01*
X7942145Y867023D01*
X8028337Y705769D01*
X8167036Y617747D01*
X8819289Y1270000D01*
X8960711Y1270000D01*
X9612964Y617747D01*
X9751663Y705769D01*
X9845182Y884712D01*
X9901994Y1078462D01*
X9919917Y1279573D01*
X9898259Y1480316D01*
X9837855Y1672977D01*
X9751663Y1834231D01*
X9612964Y1922253D01*
X8960711Y1270000D01*
X8819289Y1270000D01*
X8167036Y1922253D01*
X8028337Y1834231D01*
X7934818Y1655288D01*
X7878006Y1461538D01*
X7860083Y1260427D01*
X7375000Y1260427D01*
X7375000Y1370954D01*
X7335610Y1568982D01*
X7258344Y1755520D01*
X7146170Y1923400D01*
X7003400Y2066170D01*
X6997683Y2069990D01*
X8286630Y2069990D01*
X8237747Y1992964D01*
X8890000Y1340711D01*
X9542253Y1992964D01*
X9474637Y2099508D01*
X9511745Y2119343D01*
X9557426Y2156832D01*
X9566821Y2168280D01*
X9750721Y2352180D01*
X9761215Y2326845D01*
G37*
G04 #@! TD.AperFunction*
D15*
X3610000Y8315679D02*
X3627294Y8228740D01*
X3661215Y8146845D01*
X3710462Y8073142D01*
X3773142Y8010462D01*
X3846845Y7961215D01*
X3928740Y7927294D01*
X4015679Y7910000D01*
X4104321Y7910000D01*
X4191260Y7927294D01*
X4273155Y7961215D01*
X4346858Y8010462D01*
X4371396Y8035000D01*
X5251133Y8035000D01*
X5242540Y8018923D01*
X5221138Y7948371D01*
X5213912Y7875000D01*
X5213912Y7575000D01*
X5221138Y7501629D01*
X5242540Y7431077D01*
X5277294Y7366057D01*
X5324066Y7309066D01*
X5381057Y7262294D01*
X5446077Y7227540D01*
X5516629Y7206138D01*
X5590000Y7198912D01*
X6940000Y7198912D01*
X7013371Y7206138D01*
X7083923Y7227540D01*
X7148943Y7262294D01*
X7205934Y7309066D01*
X7252706Y7366057D01*
X7278867Y7415000D01*
X7460737Y7415000D01*
X8590000Y6285735D01*
X8590001Y4795189D01*
X8404480Y4718344D01*
X8236600Y4606170D01*
X8093830Y4463400D01*
X7981656Y4295520D01*
X7904390Y4108982D01*
X7865000Y3910954D01*
X7865000Y3709046D01*
X7904390Y3511018D01*
X7981656Y3324480D01*
X8093830Y3156600D01*
X8236600Y3013830D01*
X8302196Y2970000D01*
X7614264Y2970000D01*
X7258766Y3325498D01*
X7335610Y3511018D01*
X7375000Y3709046D01*
X7375000Y3910954D01*
X7335610Y4108982D01*
X7258344Y4295520D01*
X7146170Y4463400D01*
X7003400Y4606170D01*
X6835520Y4718344D01*
X6648982Y4795610D01*
X6450954Y4835000D01*
X6249046Y4835000D01*
X6051018Y4795610D01*
X5864480Y4718344D01*
X5696600Y4606170D01*
X5553830Y4463400D01*
X5441656Y4295520D01*
X5364390Y4108982D01*
X5325000Y3910954D01*
X5325000Y3709046D01*
X5364390Y3511018D01*
X5441656Y3324480D01*
X5553830Y3156600D01*
X5696600Y3013830D01*
X5864480Y2901656D01*
X6051018Y2824390D01*
X6249046Y2785000D01*
X6450954Y2785000D01*
X6648982Y2824390D01*
X6834502Y2901234D01*
X7065746Y2669990D01*
X5374274Y2669990D01*
X4718766Y3325498D01*
X4795610Y3511018D01*
X4835000Y3709046D01*
X4835000Y3910954D01*
X4795610Y4108982D01*
X4718344Y4295520D01*
X4606170Y4463400D01*
X4463400Y4606170D01*
X4295520Y4718344D01*
X4108982Y4795610D01*
X3910954Y4835000D01*
X3709046Y4835000D01*
X3511018Y4795610D01*
X3324480Y4718344D01*
X3156600Y4606170D01*
X3013830Y4463400D01*
X2901656Y4295520D01*
X2840000Y4146668D01*
X2840000Y4531459D01*
X3201729Y4893187D01*
X3213166Y4902573D01*
X3222552Y4914010D01*
X3222558Y4914016D01*
X3250656Y4948253D01*
X3278512Y5000370D01*
X3295667Y5056920D01*
X3301459Y5115731D01*
X3300008Y5130464D01*
X3300008Y6454321D01*
X4620000Y6454321D01*
X4620000Y6365679D01*
X4637294Y6278740D01*
X4671215Y6196845D01*
X4720462Y6123142D01*
X4783142Y6060462D01*
X4856845Y6011215D01*
X4938740Y5977294D01*
X5025679Y5960000D01*
X5114321Y5960000D01*
X5201260Y5977294D01*
X5283155Y6011215D01*
X5324412Y6038782D01*
X5381057Y5992294D01*
X5446077Y5957540D01*
X5516629Y5936138D01*
X5590000Y5928912D01*
X6940000Y5928912D01*
X7013371Y5936138D01*
X7083923Y5957540D01*
X7148943Y5992294D01*
X7205934Y6039066D01*
X7252706Y6096057D01*
X7287460Y6161077D01*
X7308862Y6231629D01*
X7316088Y6305000D01*
X7316088Y6605000D01*
X7308862Y6678371D01*
X7287460Y6748923D01*
X7252706Y6813943D01*
X7205934Y6870934D01*
X7148943Y6917706D01*
X7083923Y6952460D01*
X7013371Y6973862D01*
X6940000Y6981088D01*
X5590000Y6981088D01*
X5516629Y6973862D01*
X5446077Y6952460D01*
X5381057Y6917706D01*
X5324066Y6870934D01*
X5277294Y6813943D01*
X5276099Y6811708D01*
X5201260Y6842706D01*
X5114321Y6860000D01*
X5025679Y6860000D01*
X4938740Y6842706D01*
X4856845Y6808785D01*
X4783142Y6759538D01*
X4720462Y6696858D01*
X4671215Y6623155D01*
X4637294Y6541260D01*
X4620000Y6454321D01*
X3300008Y6454321D01*
X3300010Y8085747D01*
X3610000Y8395736D01*
X3610000Y8315679D01*
G04 #@! TA.AperFunction,Conductor*
D18*
G36*
X3610000Y8315679D02*
G01*
X3627294Y8228740D01*
X3661215Y8146845D01*
X3710462Y8073142D01*
X3773142Y8010462D01*
X3846845Y7961215D01*
X3928740Y7927294D01*
X4015679Y7910000D01*
X4104321Y7910000D01*
X4191260Y7927294D01*
X4273155Y7961215D01*
X4346858Y8010462D01*
X4371396Y8035000D01*
X5251133Y8035000D01*
X5242540Y8018923D01*
X5221138Y7948371D01*
X5213912Y7875000D01*
X5213912Y7575000D01*
X5221138Y7501629D01*
X5242540Y7431077D01*
X5277294Y7366057D01*
X5324066Y7309066D01*
X5381057Y7262294D01*
X5446077Y7227540D01*
X5516629Y7206138D01*
X5590000Y7198912D01*
X6940000Y7198912D01*
X7013371Y7206138D01*
X7083923Y7227540D01*
X7148943Y7262294D01*
X7205934Y7309066D01*
X7252706Y7366057D01*
X7278867Y7415000D01*
X7460737Y7415000D01*
X8590000Y6285735D01*
X8590001Y4795189D01*
X8404480Y4718344D01*
X8236600Y4606170D01*
X8093830Y4463400D01*
X7981656Y4295520D01*
X7904390Y4108982D01*
X7865000Y3910954D01*
X7865000Y3709046D01*
X7904390Y3511018D01*
X7981656Y3324480D01*
X8093830Y3156600D01*
X8236600Y3013830D01*
X8302196Y2970000D01*
X7614264Y2970000D01*
X7258766Y3325498D01*
X7335610Y3511018D01*
X7375000Y3709046D01*
X7375000Y3910954D01*
X7335610Y4108982D01*
X7258344Y4295520D01*
X7146170Y4463400D01*
X7003400Y4606170D01*
X6835520Y4718344D01*
X6648982Y4795610D01*
X6450954Y4835000D01*
X6249046Y4835000D01*
X6051018Y4795610D01*
X5864480Y4718344D01*
X5696600Y4606170D01*
X5553830Y4463400D01*
X5441656Y4295520D01*
X5364390Y4108982D01*
X5325000Y3910954D01*
X5325000Y3709046D01*
X5364390Y3511018D01*
X5441656Y3324480D01*
X5553830Y3156600D01*
X5696600Y3013830D01*
X5864480Y2901656D01*
X6051018Y2824390D01*
X6249046Y2785000D01*
X6450954Y2785000D01*
X6648982Y2824390D01*
X6834502Y2901234D01*
X7065746Y2669990D01*
X5374274Y2669990D01*
X4718766Y3325498D01*
X4795610Y3511018D01*
X4835000Y3709046D01*
X4835000Y3910954D01*
X4795610Y4108982D01*
X4718344Y4295520D01*
X4606170Y4463400D01*
X4463400Y4606170D01*
X4295520Y4718344D01*
X4108982Y4795610D01*
X3910954Y4835000D01*
X3709046Y4835000D01*
X3511018Y4795610D01*
X3324480Y4718344D01*
X3156600Y4606170D01*
X3013830Y4463400D01*
X2901656Y4295520D01*
X2840000Y4146668D01*
X2840000Y4531459D01*
X3201729Y4893187D01*
X3213166Y4902573D01*
X3222552Y4914010D01*
X3222558Y4914016D01*
X3250656Y4948253D01*
X3278512Y5000370D01*
X3295667Y5056920D01*
X3301459Y5115731D01*
X3300008Y5130464D01*
X3300008Y6454321D01*
X4620000Y6454321D01*
X4620000Y6365679D01*
X4637294Y6278740D01*
X4671215Y6196845D01*
X4720462Y6123142D01*
X4783142Y6060462D01*
X4856845Y6011215D01*
X4938740Y5977294D01*
X5025679Y5960000D01*
X5114321Y5960000D01*
X5201260Y5977294D01*
X5283155Y6011215D01*
X5324412Y6038782D01*
X5381057Y5992294D01*
X5446077Y5957540D01*
X5516629Y5936138D01*
X5590000Y5928912D01*
X6940000Y5928912D01*
X7013371Y5936138D01*
X7083923Y5957540D01*
X7148943Y5992294D01*
X7205934Y6039066D01*
X7252706Y6096057D01*
X7287460Y6161077D01*
X7308862Y6231629D01*
X7316088Y6305000D01*
X7316088Y6605000D01*
X7308862Y6678371D01*
X7287460Y6748923D01*
X7252706Y6813943D01*
X7205934Y6870934D01*
X7148943Y6917706D01*
X7083923Y6952460D01*
X7013371Y6973862D01*
X6940000Y6981088D01*
X5590000Y6981088D01*
X5516629Y6973862D01*
X5446077Y6952460D01*
X5381057Y6917706D01*
X5324066Y6870934D01*
X5277294Y6813943D01*
X5276099Y6811708D01*
X5201260Y6842706D01*
X5114321Y6860000D01*
X5025679Y6860000D01*
X4938740Y6842706D01*
X4856845Y6808785D01*
X4783142Y6759538D01*
X4720462Y6696858D01*
X4671215Y6623155D01*
X4637294Y6541260D01*
X4620000Y6454321D01*
X3300008Y6454321D01*
X3300010Y8085747D01*
X3610000Y8395736D01*
X3610000Y8315679D01*
G37*
G04 #@! TD.AperFunction*
D15*
X14479983Y9029109D02*
X14479983Y8846667D01*
X14441260Y8862706D01*
X14354321Y8880000D01*
X14265679Y8880000D01*
X14178740Y8862706D01*
X14096845Y8828785D01*
X14023142Y8779538D01*
X13960462Y8716858D01*
X13911215Y8643155D01*
X13877294Y8561260D01*
X13860000Y8474321D01*
X13860000Y8385679D01*
X13877294Y8298740D01*
X13911215Y8216845D01*
X13960462Y8143142D01*
X14023142Y8080462D01*
X14023833Y8080000D01*
X14023142Y8079538D01*
X13960462Y8016858D01*
X13911215Y7943155D01*
X13877294Y7861260D01*
X13860000Y7774321D01*
X13860000Y7685679D01*
X13877294Y7598740D01*
X13911215Y7516845D01*
X13960462Y7443142D01*
X14023142Y7380462D01*
X14096845Y7331215D01*
X14178740Y7297294D01*
X14265679Y7280000D01*
X14354321Y7280000D01*
X14441260Y7297294D01*
X14479983Y7313333D01*
X14479982Y5488383D01*
X14421260Y5512706D01*
X14334321Y5530000D01*
X14245679Y5530000D01*
X14158740Y5512706D01*
X14076845Y5478785D01*
X14003142Y5429538D01*
X13940462Y5366858D01*
X13891215Y5293155D01*
X13857294Y5211260D01*
X13840000Y5124321D01*
X13840000Y5035679D01*
X13857294Y4948740D01*
X13891215Y4866845D01*
X13912493Y4835000D01*
X13869046Y4835000D01*
X13671018Y4795610D01*
X13484480Y4718344D01*
X13316600Y4606170D01*
X13173830Y4463400D01*
X13061656Y4295520D01*
X12984390Y4108982D01*
X12945000Y3910954D01*
X12945000Y3709046D01*
X12984390Y3511018D01*
X13061234Y3325498D01*
X12575737Y2840000D01*
X11766668Y2840000D01*
X11915520Y2901656D01*
X12083400Y3013830D01*
X12226170Y3156600D01*
X12338344Y3324480D01*
X12415610Y3511018D01*
X12455000Y3709046D01*
X12455000Y3910954D01*
X12415610Y4108982D01*
X12338344Y4295520D01*
X12226170Y4463400D01*
X12083400Y4606170D01*
X11915520Y4718344D01*
X11728982Y4795610D01*
X11530954Y4835000D01*
X11329046Y4835000D01*
X11131018Y4795610D01*
X10944480Y4718344D01*
X10776600Y4606170D01*
X10633830Y4463400D01*
X10610009Y4427749D01*
X10610009Y6009568D01*
X10631057Y5992294D01*
X10696077Y5957540D01*
X10766629Y5936138D01*
X10840000Y5928912D01*
X12190000Y5928912D01*
X12263371Y5936138D01*
X12333923Y5957540D01*
X12398943Y5992294D01*
X12455934Y6039066D01*
X12502706Y6096057D01*
X12521398Y6131028D01*
X12558711Y6134703D01*
X12619974Y6153287D01*
X12676434Y6183465D01*
X12725921Y6224079D01*
X12736101Y6236483D01*
X13179619Y6680000D01*
X13214321Y6680000D01*
X13301260Y6697294D01*
X13383155Y6731215D01*
X13456858Y6780462D01*
X13519538Y6843142D01*
X13568785Y6916845D01*
X13602706Y6998740D01*
X13620000Y7085679D01*
X13620000Y7174321D01*
X13602706Y7261260D01*
X13568785Y7343155D01*
X13519538Y7416858D01*
X13456858Y7479538D01*
X13383155Y7528785D01*
X13301260Y7562706D01*
X13214321Y7580000D01*
X13125679Y7580000D01*
X13038740Y7562706D01*
X12956845Y7528785D01*
X12883142Y7479538D01*
X12820462Y7416858D01*
X12771215Y7343155D01*
X12737294Y7261260D01*
X12720000Y7174321D01*
X12720000Y7139619D01*
X12453397Y6873016D01*
X12398943Y6917706D01*
X12333923Y6952460D01*
X12263371Y6973862D01*
X12190000Y6981088D01*
X10840000Y6981088D01*
X10766629Y6973862D01*
X10696077Y6952460D01*
X10631057Y6917706D01*
X10610009Y6900432D01*
X10610009Y7279568D01*
X10631057Y7262294D01*
X10696077Y7227540D01*
X10766629Y7206138D01*
X10840000Y7198912D01*
X12190000Y7198912D01*
X12263371Y7206138D01*
X12333923Y7227540D01*
X12398943Y7262294D01*
X12455934Y7309066D01*
X12502706Y7366057D01*
X12537460Y7431077D01*
X12558862Y7501629D01*
X12566088Y7575000D01*
X12566088Y7875000D01*
X12560167Y7935125D01*
X12623155Y7961215D01*
X12696858Y8010462D01*
X12759538Y8073142D01*
X12808785Y8146845D01*
X12842706Y8228740D01*
X12860000Y8315679D01*
X12860000Y8404321D01*
X12842706Y8491260D01*
X12808785Y8573155D01*
X12759538Y8646858D01*
X12700465Y8705931D01*
X12688504Y8745360D01*
X12668233Y8783285D01*
X12660647Y8797478D01*
X12632549Y8831715D01*
X12623158Y8843158D01*
X12611715Y8852549D01*
X12566088Y8898176D01*
X12566088Y9145000D01*
X12558862Y9218371D01*
X12537460Y9288923D01*
X12502706Y9353943D01*
X12455934Y9410934D01*
X12398943Y9457706D01*
X12333923Y9492460D01*
X12263371Y9513862D01*
X12190000Y9521088D01*
X10840000Y9521088D01*
X10766629Y9513862D01*
X10696077Y9492460D01*
X10631057Y9457706D01*
X10574066Y9410934D01*
X10527294Y9353943D01*
X10492540Y9288923D01*
X10471138Y9218371D01*
X10463912Y9145000D01*
X10463912Y8845000D01*
X10471138Y8771629D01*
X10492540Y8701077D01*
X10527294Y8636057D01*
X10574066Y8579066D01*
X10631057Y8532294D01*
X10696077Y8497540D01*
X10766629Y8476138D01*
X10840000Y8468912D01*
X11972849Y8468912D01*
X11960000Y8404321D01*
X11960000Y8315679D01*
X11972849Y8251088D01*
X10840000Y8251088D01*
X10766629Y8243862D01*
X10696077Y8222460D01*
X10631057Y8187706D01*
X10574066Y8140934D01*
X10527294Y8083943D01*
X10492540Y8018923D01*
X10491691Y8016125D01*
X10480270Y8015000D01*
X10480267Y8015000D01*
X10436190Y8010659D01*
X10392801Y7997497D01*
X10379639Y7993504D01*
X10327522Y7965647D01*
X10309999Y7951265D01*
X10309998Y9645735D01*
X10546689Y9882425D01*
X10574066Y9849066D01*
X10631057Y9802294D01*
X10696077Y9767540D01*
X10766629Y9746138D01*
X10840000Y9738912D01*
X12190000Y9738912D01*
X12263371Y9746138D01*
X12333923Y9767540D01*
X12398943Y9802294D01*
X12455934Y9849066D01*
X12502706Y9906057D01*
X12537460Y9971077D01*
X12558862Y10041629D01*
X12566088Y10115000D01*
X12566088Y10415000D01*
X12558862Y10488371D01*
X12537460Y10558923D01*
X12507502Y10614970D01*
X12894123Y10614970D01*
X14479983Y9029109D01*
G04 #@! TA.AperFunction,Conductor*
D18*
G36*
X14479983Y9029109D02*
G01*
X14479983Y8846667D01*
X14441260Y8862706D01*
X14354321Y8880000D01*
X14265679Y8880000D01*
X14178740Y8862706D01*
X14096845Y8828785D01*
X14023142Y8779538D01*
X13960462Y8716858D01*
X13911215Y8643155D01*
X13877294Y8561260D01*
X13860000Y8474321D01*
X13860000Y8385679D01*
X13877294Y8298740D01*
X13911215Y8216845D01*
X13960462Y8143142D01*
X14023142Y8080462D01*
X14023833Y8080000D01*
X14023142Y8079538D01*
X13960462Y8016858D01*
X13911215Y7943155D01*
X13877294Y7861260D01*
X13860000Y7774321D01*
X13860000Y7685679D01*
X13877294Y7598740D01*
X13911215Y7516845D01*
X13960462Y7443142D01*
X14023142Y7380462D01*
X14096845Y7331215D01*
X14178740Y7297294D01*
X14265679Y7280000D01*
X14354321Y7280000D01*
X14441260Y7297294D01*
X14479983Y7313333D01*
X14479982Y5488383D01*
X14421260Y5512706D01*
X14334321Y5530000D01*
X14245679Y5530000D01*
X14158740Y5512706D01*
X14076845Y5478785D01*
X14003142Y5429538D01*
X13940462Y5366858D01*
X13891215Y5293155D01*
X13857294Y5211260D01*
X13840000Y5124321D01*
X13840000Y5035679D01*
X13857294Y4948740D01*
X13891215Y4866845D01*
X13912493Y4835000D01*
X13869046Y4835000D01*
X13671018Y4795610D01*
X13484480Y4718344D01*
X13316600Y4606170D01*
X13173830Y4463400D01*
X13061656Y4295520D01*
X12984390Y4108982D01*
X12945000Y3910954D01*
X12945000Y3709046D01*
X12984390Y3511018D01*
X13061234Y3325498D01*
X12575737Y2840000D01*
X11766668Y2840000D01*
X11915520Y2901656D01*
X12083400Y3013830D01*
X12226170Y3156600D01*
X12338344Y3324480D01*
X12415610Y3511018D01*
X12455000Y3709046D01*
X12455000Y3910954D01*
X12415610Y4108982D01*
X12338344Y4295520D01*
X12226170Y4463400D01*
X12083400Y4606170D01*
X11915520Y4718344D01*
X11728982Y4795610D01*
X11530954Y4835000D01*
X11329046Y4835000D01*
X11131018Y4795610D01*
X10944480Y4718344D01*
X10776600Y4606170D01*
X10633830Y4463400D01*
X10610009Y4427749D01*
X10610009Y6009568D01*
X10631057Y5992294D01*
X10696077Y5957540D01*
X10766629Y5936138D01*
X10840000Y5928912D01*
X12190000Y5928912D01*
X12263371Y5936138D01*
X12333923Y5957540D01*
X12398943Y5992294D01*
X12455934Y6039066D01*
X12502706Y6096057D01*
X12521398Y6131028D01*
X12558711Y6134703D01*
X12619974Y6153287D01*
X12676434Y6183465D01*
X12725921Y6224079D01*
X12736101Y6236483D01*
X13179619Y6680000D01*
X13214321Y6680000D01*
X13301260Y6697294D01*
X13383155Y6731215D01*
X13456858Y6780462D01*
X13519538Y6843142D01*
X13568785Y6916845D01*
X13602706Y6998740D01*
X13620000Y7085679D01*
X13620000Y7174321D01*
X13602706Y7261260D01*
X13568785Y7343155D01*
X13519538Y7416858D01*
X13456858Y7479538D01*
X13383155Y7528785D01*
X13301260Y7562706D01*
X13214321Y7580000D01*
X13125679Y7580000D01*
X13038740Y7562706D01*
X12956845Y7528785D01*
X12883142Y7479538D01*
X12820462Y7416858D01*
X12771215Y7343155D01*
X12737294Y7261260D01*
X12720000Y7174321D01*
X12720000Y7139619D01*
X12453397Y6873016D01*
X12398943Y6917706D01*
X12333923Y6952460D01*
X12263371Y6973862D01*
X12190000Y6981088D01*
X10840000Y6981088D01*
X10766629Y6973862D01*
X10696077Y6952460D01*
X10631057Y6917706D01*
X10610009Y6900432D01*
X10610009Y7279568D01*
X10631057Y7262294D01*
X10696077Y7227540D01*
X10766629Y7206138D01*
X10840000Y7198912D01*
X12190000Y7198912D01*
X12263371Y7206138D01*
X12333923Y7227540D01*
X12398943Y7262294D01*
X12455934Y7309066D01*
X12502706Y7366057D01*
X12537460Y7431077D01*
X12558862Y7501629D01*
X12566088Y7575000D01*
X12566088Y7875000D01*
X12560167Y7935125D01*
X12623155Y7961215D01*
X12696858Y8010462D01*
X12759538Y8073142D01*
X12808785Y8146845D01*
X12842706Y8228740D01*
X12860000Y8315679D01*
X12860000Y8404321D01*
X12842706Y8491260D01*
X12808785Y8573155D01*
X12759538Y8646858D01*
X12700465Y8705931D01*
X12688504Y8745360D01*
X12668233Y8783285D01*
X12660647Y8797478D01*
X12632549Y8831715D01*
X12623158Y8843158D01*
X12611715Y8852549D01*
X12566088Y8898176D01*
X12566088Y9145000D01*
X12558862Y9218371D01*
X12537460Y9288923D01*
X12502706Y9353943D01*
X12455934Y9410934D01*
X12398943Y9457706D01*
X12333923Y9492460D01*
X12263371Y9513862D01*
X12190000Y9521088D01*
X10840000Y9521088D01*
X10766629Y9513862D01*
X10696077Y9492460D01*
X10631057Y9457706D01*
X10574066Y9410934D01*
X10527294Y9353943D01*
X10492540Y9288923D01*
X10471138Y9218371D01*
X10463912Y9145000D01*
X10463912Y8845000D01*
X10471138Y8771629D01*
X10492540Y8701077D01*
X10527294Y8636057D01*
X10574066Y8579066D01*
X10631057Y8532294D01*
X10696077Y8497540D01*
X10766629Y8476138D01*
X10840000Y8468912D01*
X11972849Y8468912D01*
X11960000Y8404321D01*
X11960000Y8315679D01*
X11972849Y8251088D01*
X10840000Y8251088D01*
X10766629Y8243862D01*
X10696077Y8222460D01*
X10631057Y8187706D01*
X10574066Y8140934D01*
X10527294Y8083943D01*
X10492540Y8018923D01*
X10491691Y8016125D01*
X10480270Y8015000D01*
X10480267Y8015000D01*
X10436190Y8010659D01*
X10392801Y7997497D01*
X10379639Y7993504D01*
X10327522Y7965647D01*
X10309999Y7951265D01*
X10309998Y9645735D01*
X10546689Y9882425D01*
X10574066Y9849066D01*
X10631057Y9802294D01*
X10696077Y9767540D01*
X10766629Y9746138D01*
X10840000Y9738912D01*
X12190000Y9738912D01*
X12263371Y9746138D01*
X12333923Y9767540D01*
X12398943Y9802294D01*
X12455934Y9849066D01*
X12502706Y9906057D01*
X12537460Y9971077D01*
X12558862Y10041629D01*
X12566088Y10115000D01*
X12566088Y10415000D01*
X12558862Y10488371D01*
X12537460Y10558923D01*
X12507502Y10614970D01*
X12894123Y10614970D01*
X14479983Y9029109D01*
G37*
G04 #@! TD.AperFunction*
D15*
X9710001Y4427735D02*
X9686170Y4463400D01*
X9543400Y4606170D01*
X9375520Y4718344D01*
X9190000Y4795188D01*
X9190000Y6395270D01*
X9191451Y6410000D01*
X9190000Y6424733D01*
X9185659Y6468810D01*
X9172497Y6512199D01*
X9168504Y6525361D01*
X9140647Y6577478D01*
X9112550Y6611715D01*
X9112544Y6611721D01*
X9103158Y6623158D01*
X9091722Y6632543D01*
X7807553Y7916710D01*
X7798158Y7928158D01*
X7752477Y7965647D01*
X7700360Y7993504D01*
X7643810Y8010659D01*
X7599733Y8015000D01*
X7599723Y8015000D01*
X7585000Y8016450D01*
X7570277Y8015000D01*
X7288650Y8015000D01*
X7287460Y8018923D01*
X7278867Y8035000D01*
X8824047Y8035000D01*
X8840000Y8033429D01*
X8855953Y8035000D01*
X8855961Y8035000D01*
X8903711Y8039703D01*
X8964974Y8058287D01*
X9021434Y8088465D01*
X9070921Y8129079D01*
X9081101Y8141482D01*
X9709999Y8770380D01*
X9710001Y4427735D01*
G04 #@! TA.AperFunction,Conductor*
D18*
G36*
X9710001Y4427735D02*
G01*
X9686170Y4463400D01*
X9543400Y4606170D01*
X9375520Y4718344D01*
X9190000Y4795188D01*
X9190000Y6395270D01*
X9191451Y6410000D01*
X9190000Y6424733D01*
X9185659Y6468810D01*
X9172497Y6512199D01*
X9168504Y6525361D01*
X9140647Y6577478D01*
X9112550Y6611715D01*
X9112544Y6611721D01*
X9103158Y6623158D01*
X9091722Y6632543D01*
X7807553Y7916710D01*
X7798158Y7928158D01*
X7752477Y7965647D01*
X7700360Y7993504D01*
X7643810Y8010659D01*
X7599733Y8015000D01*
X7599723Y8015000D01*
X7585000Y8016450D01*
X7570277Y8015000D01*
X7288650Y8015000D01*
X7287460Y8018923D01*
X7278867Y8035000D01*
X8824047Y8035000D01*
X8840000Y8033429D01*
X8855953Y8035000D01*
X8855961Y8035000D01*
X8903711Y8039703D01*
X8964974Y8058287D01*
X9021434Y8088465D01*
X9070921Y8129079D01*
X9081101Y8141482D01*
X9709999Y8770380D01*
X9710001Y4427735D01*
G37*
G04 #@! TD.AperFunction*
D15*
X6360000Y10905679D02*
X6377294Y10818740D01*
X6389187Y10790027D01*
X6371250Y10790000D01*
X6315000Y10733750D01*
X6315000Y10315000D01*
X7258750Y10315000D01*
X7315000Y10371250D01*
X7315836Y10519915D01*
X7365679Y10510000D01*
X7454321Y10510000D01*
X7541260Y10527294D01*
X7623155Y10561215D01*
X7696858Y10610462D01*
X7759538Y10673142D01*
X7808785Y10746845D01*
X7842706Y10828740D01*
X7857462Y10902920D01*
X9225000Y9535380D01*
X9225001Y9204620D01*
X8705382Y8685000D01*
X7278867Y8685000D01*
X7287460Y8701077D01*
X7308862Y8771629D01*
X7316088Y8845000D01*
X7316088Y9145000D01*
X7308862Y9218371D01*
X7287460Y9288923D01*
X7252706Y9353943D01*
X7205934Y9410934D01*
X7148943Y9457706D01*
X7083923Y9492460D01*
X7013371Y9513862D01*
X6940000Y9521088D01*
X5590000Y9521088D01*
X5516629Y9513862D01*
X5446077Y9492460D01*
X5381057Y9457706D01*
X5324066Y9410934D01*
X5277294Y9353943D01*
X5242540Y9288923D01*
X5241350Y9285000D01*
X5041396Y9285000D01*
X5089538Y9333142D01*
X5138785Y9406845D01*
X5172706Y9488740D01*
X5190000Y9575679D01*
X5190000Y9664321D01*
X5172706Y9751260D01*
X5138785Y9833155D01*
X5089538Y9906858D01*
X5031396Y9965000D01*
X5213911Y9965000D01*
X5218255Y9920892D01*
X5231121Y9878479D01*
X5252014Y9839392D01*
X5280131Y9805131D01*
X5314392Y9777014D01*
X5353479Y9756121D01*
X5395892Y9743255D01*
X5440000Y9738911D01*
X6158750Y9740000D01*
X6215000Y9796250D01*
X6215000Y10215000D01*
X6315000Y10215000D01*
X6315000Y9796250D01*
X6371250Y9740000D01*
X7090000Y9738911D01*
X7134108Y9743255D01*
X7176521Y9756121D01*
X7215608Y9777014D01*
X7249869Y9805131D01*
X7277986Y9839392D01*
X7298879Y9878479D01*
X7311745Y9920892D01*
X7316089Y9965000D01*
X7315000Y10158750D01*
X7258750Y10215000D01*
X6315000Y10215000D01*
X6215000Y10215000D01*
X5271250Y10215000D01*
X5215000Y10158750D01*
X5213911Y9965000D01*
X5031396Y9965000D01*
X5026858Y9969538D01*
X4953155Y10018785D01*
X4871260Y10052706D01*
X4784321Y10070000D01*
X4695679Y10070000D01*
X4608740Y10052706D01*
X4526845Y10018785D01*
X4453142Y9969538D01*
X4390462Y9906858D01*
X4341215Y9833155D01*
X4307294Y9751260D01*
X4290000Y9664321D01*
X4290000Y9575679D01*
X4307294Y9488740D01*
X4341215Y9406845D01*
X4390462Y9333142D01*
X4438604Y9285000D01*
X3789722Y9285000D01*
X3774999Y9286450D01*
X3760276Y9285000D01*
X3760267Y9285000D01*
X3716190Y9280659D01*
X3659640Y9263504D01*
X3649878Y9258286D01*
X3607522Y9235647D01*
X3585470Y9217549D01*
X3561842Y9198158D01*
X3552451Y9186715D01*
X3000000Y8634263D01*
X3000000Y9347181D01*
X4252800Y10599980D01*
X5217356Y10599980D01*
X5213911Y10565000D01*
X5215000Y10371250D01*
X5271250Y10315000D01*
X6215000Y10315000D01*
X6215000Y10733750D01*
X6185551Y10763199D01*
X6360000Y10937649D01*
X6360000Y10905679D01*
G04 #@! TA.AperFunction,Conductor*
D18*
G36*
X6360000Y10905679D02*
G01*
X6377294Y10818740D01*
X6389187Y10790027D01*
X6371250Y10790000D01*
X6315000Y10733750D01*
X6315000Y10315000D01*
X7258750Y10315000D01*
X7315000Y10371250D01*
X7315836Y10519915D01*
X7365679Y10510000D01*
X7454321Y10510000D01*
X7541260Y10527294D01*
X7623155Y10561215D01*
X7696858Y10610462D01*
X7759538Y10673142D01*
X7808785Y10746845D01*
X7842706Y10828740D01*
X7857462Y10902920D01*
X9225000Y9535380D01*
X9225001Y9204620D01*
X8705382Y8685000D01*
X7278867Y8685000D01*
X7287460Y8701077D01*
X7308862Y8771629D01*
X7316088Y8845000D01*
X7316088Y9145000D01*
X7308862Y9218371D01*
X7287460Y9288923D01*
X7252706Y9353943D01*
X7205934Y9410934D01*
X7148943Y9457706D01*
X7083923Y9492460D01*
X7013371Y9513862D01*
X6940000Y9521088D01*
X5590000Y9521088D01*
X5516629Y9513862D01*
X5446077Y9492460D01*
X5381057Y9457706D01*
X5324066Y9410934D01*
X5277294Y9353943D01*
X5242540Y9288923D01*
X5241350Y9285000D01*
X5041396Y9285000D01*
X5089538Y9333142D01*
X5138785Y9406845D01*
X5172706Y9488740D01*
X5190000Y9575679D01*
X5190000Y9664321D01*
X5172706Y9751260D01*
X5138785Y9833155D01*
X5089538Y9906858D01*
X5031396Y9965000D01*
X5213911Y9965000D01*
X5218255Y9920892D01*
X5231121Y9878479D01*
X5252014Y9839392D01*
X5280131Y9805131D01*
X5314392Y9777014D01*
X5353479Y9756121D01*
X5395892Y9743255D01*
X5440000Y9738911D01*
X6158750Y9740000D01*
X6215000Y9796250D01*
X6215000Y10215000D01*
X6315000Y10215000D01*
X6315000Y9796250D01*
X6371250Y9740000D01*
X7090000Y9738911D01*
X7134108Y9743255D01*
X7176521Y9756121D01*
X7215608Y9777014D01*
X7249869Y9805131D01*
X7277986Y9839392D01*
X7298879Y9878479D01*
X7311745Y9920892D01*
X7316089Y9965000D01*
X7315000Y10158750D01*
X7258750Y10215000D01*
X6315000Y10215000D01*
X6215000Y10215000D01*
X5271250Y10215000D01*
X5215000Y10158750D01*
X5213911Y9965000D01*
X5031396Y9965000D01*
X5026858Y9969538D01*
X4953155Y10018785D01*
X4871260Y10052706D01*
X4784321Y10070000D01*
X4695679Y10070000D01*
X4608740Y10052706D01*
X4526845Y10018785D01*
X4453142Y9969538D01*
X4390462Y9906858D01*
X4341215Y9833155D01*
X4307294Y9751260D01*
X4290000Y9664321D01*
X4290000Y9575679D01*
X4307294Y9488740D01*
X4341215Y9406845D01*
X4390462Y9333142D01*
X4438604Y9285000D01*
X3789722Y9285000D01*
X3774999Y9286450D01*
X3760276Y9285000D01*
X3760267Y9285000D01*
X3716190Y9280659D01*
X3659640Y9263504D01*
X3649878Y9258286D01*
X3607522Y9235647D01*
X3585470Y9217549D01*
X3561842Y9198158D01*
X3552451Y9186715D01*
X3000000Y8634263D01*
X3000000Y9347181D01*
X4252800Y10599980D01*
X5217356Y10599980D01*
X5213911Y10565000D01*
X5215000Y10371250D01*
X5271250Y10315000D01*
X6215000Y10315000D01*
X6215000Y10733750D01*
X6185551Y10763199D01*
X6360000Y10937649D01*
X6360000Y10905679D01*
G37*
G04 #@! TD.AperFunction*
D15*
X7115000Y12490000D02*
X7160000Y12490000D01*
X7160000Y12390000D01*
X7115000Y12390000D01*
X7115000Y11576981D01*
X7114342Y11574812D01*
X7108550Y11516002D01*
X7110001Y11501270D01*
X7110001Y11296397D01*
X7105000Y11291396D01*
X7096858Y11299538D01*
X7023155Y11348785D01*
X6941260Y11382706D01*
X6854321Y11400000D01*
X6822352Y11400000D01*
X6891715Y11469363D01*
X6903158Y11478754D01*
X6915246Y11493483D01*
X6937632Y11520761D01*
X6945892Y11518255D01*
X6990000Y11513911D01*
X7008750Y11515000D01*
X7065000Y11571250D01*
X7065000Y12390000D01*
X7020000Y12390000D01*
X7020000Y12490000D01*
X7065000Y12490000D01*
X7065000Y12510000D01*
X7115000Y12510000D01*
X7115000Y12490000D01*
G04 #@! TA.AperFunction,Conductor*
D18*
G36*
X7115000Y12490000D02*
G01*
X7160000Y12490000D01*
X7160000Y12390000D01*
X7115000Y12390000D01*
X7115000Y11576981D01*
X7114342Y11574812D01*
X7108550Y11516002D01*
X7110001Y11501270D01*
X7110001Y11296397D01*
X7105000Y11291396D01*
X7096858Y11299538D01*
X7023155Y11348785D01*
X6941260Y11382706D01*
X6854321Y11400000D01*
X6822352Y11400000D01*
X6891715Y11469363D01*
X6903158Y11478754D01*
X6915246Y11493483D01*
X6937632Y11520761D01*
X6945892Y11518255D01*
X6990000Y11513911D01*
X7008750Y11515000D01*
X7065000Y11571250D01*
X7065000Y12390000D01*
X7020000Y12390000D01*
X7020000Y12490000D01*
X7065000Y12490000D01*
X7065000Y12510000D01*
X7115000Y12510000D01*
X7115000Y12490000D01*
G37*
G04 #@! TD.AperFunction*
D15*
X14090000Y27285736D02*
X14090001Y23724733D01*
X14088550Y23710000D01*
X14094342Y23651190D01*
X14111497Y23594640D01*
X14139353Y23542523D01*
X14156423Y23521724D01*
X14176843Y23496842D01*
X14188285Y23487452D01*
X15601234Y22074502D01*
X15524390Y21888982D01*
X15485000Y21690954D01*
X15485000Y21489046D01*
X15524390Y21291018D01*
X15601656Y21104480D01*
X15713830Y20936600D01*
X15856600Y20793830D01*
X16024480Y20681656D01*
X16211018Y20604390D01*
X16409046Y20565000D01*
X16610954Y20565000D01*
X16808982Y20604390D01*
X16995520Y20681656D01*
X17163400Y20793830D01*
X17305001Y20935431D01*
X17305001Y19704569D01*
X17163400Y19846170D01*
X16995520Y19958344D01*
X16808982Y20035610D01*
X16610954Y20075000D01*
X16409046Y20075000D01*
X16211018Y20035610D01*
X16024480Y19958344D01*
X15856600Y19846170D01*
X15713830Y19703400D01*
X15601656Y19535520D01*
X15524390Y19348982D01*
X15485000Y19150954D01*
X15485000Y18949046D01*
X15524390Y18751018D01*
X15601234Y18565498D01*
X14778285Y17742548D01*
X14766843Y17733158D01*
X14757452Y17721715D01*
X14757451Y17721714D01*
X14729353Y17687477D01*
X14701497Y17635360D01*
X14684342Y17578810D01*
X14678550Y17520000D01*
X14680001Y17505267D01*
X14680000Y16002352D01*
X12088286Y13410637D01*
X12076843Y13401246D01*
X12067452Y13389803D01*
X12067451Y13389802D01*
X12039353Y13355565D01*
X12035406Y13348181D01*
X11993862Y13360783D01*
X11940000Y13366088D01*
X11840000Y13366088D01*
X11786138Y13360783D01*
X11734346Y13345072D01*
X11708994Y13331521D01*
X11676521Y13348879D01*
X11634108Y13361745D01*
X11590000Y13366089D01*
X11571250Y13365000D01*
X11515000Y13308750D01*
X11515000Y12490000D01*
X11560000Y12490000D01*
X11560000Y12390000D01*
X11515000Y12390000D01*
X11515000Y12370000D01*
X11465000Y12370000D01*
X11465000Y12390000D01*
X11420000Y12390000D01*
X11420000Y12490000D01*
X11465000Y12490000D01*
X11465000Y13308750D01*
X11408750Y13365000D01*
X11390000Y13366089D01*
X11345892Y13361745D01*
X11303479Y13348879D01*
X11271006Y13331521D01*
X11245654Y13345072D01*
X11193862Y13360783D01*
X11140000Y13366088D01*
X11040000Y13366088D01*
X10986138Y13360783D01*
X10934346Y13345072D01*
X10890000Y13321369D01*
X10845654Y13345072D01*
X10793862Y13360783D01*
X10740000Y13366088D01*
X10640000Y13366088D01*
X10586138Y13360783D01*
X10534346Y13345072D01*
X10490000Y13321369D01*
X10445654Y13345072D01*
X10393862Y13360783D01*
X10340000Y13366088D01*
X10240000Y13366088D01*
X10186138Y13360783D01*
X10134346Y13345072D01*
X10090000Y13321369D01*
X10045654Y13345072D01*
X9993862Y13360783D01*
X9940000Y13366088D01*
X9840000Y13366088D01*
X9786138Y13360783D01*
X9734346Y13345072D01*
X9690000Y13321369D01*
X9645654Y13345072D01*
X9593862Y13360783D01*
X9540000Y13366088D01*
X9440000Y13366088D01*
X9386138Y13360783D01*
X9334346Y13345072D01*
X9290000Y13321369D01*
X9245654Y13345072D01*
X9210116Y13355852D01*
X9374264Y13520000D01*
X10953604Y13520000D01*
X11003142Y13470462D01*
X11076845Y13421215D01*
X11158740Y13387294D01*
X11245679Y13370000D01*
X11334321Y13370000D01*
X11421260Y13387294D01*
X11503155Y13421215D01*
X11576858Y13470462D01*
X11639538Y13533142D01*
X11688785Y13606845D01*
X11722706Y13688740D01*
X11740000Y13775679D01*
X11740000Y13864321D01*
X11722706Y13951260D01*
X11706660Y13990000D01*
X11893604Y13990000D01*
X11943142Y13940462D01*
X12016845Y13891215D01*
X12098740Y13857294D01*
X12185679Y13840000D01*
X12274321Y13840000D01*
X12361260Y13857294D01*
X12443155Y13891215D01*
X12516858Y13940462D01*
X12579538Y14003142D01*
X12628785Y14076845D01*
X12662706Y14158740D01*
X12680000Y14245679D01*
X12680000Y14334321D01*
X12662706Y14421260D01*
X12628785Y14503155D01*
X12618663Y14518304D01*
X12636858Y14530462D01*
X12699538Y14593142D01*
X12711696Y14611337D01*
X12726845Y14601215D01*
X12808740Y14567294D01*
X12895679Y14550000D01*
X12984321Y14550000D01*
X13071260Y14567294D01*
X13153155Y14601215D01*
X13226858Y14650462D01*
X13289538Y14713142D01*
X13338785Y14786845D01*
X13372706Y14868740D01*
X13390000Y14955679D01*
X13390000Y15044321D01*
X13372706Y15131260D01*
X13338785Y15213155D01*
X13328663Y15228304D01*
X13346858Y15240462D01*
X13409538Y15303142D01*
X13417076Y15314424D01*
X13436845Y15301215D01*
X13518740Y15267294D01*
X13605679Y15250000D01*
X13694321Y15250000D01*
X13781260Y15267294D01*
X13863155Y15301215D01*
X13936858Y15350462D01*
X13999538Y15413142D01*
X14048785Y15486845D01*
X14082706Y15568740D01*
X14100000Y15655679D01*
X14100000Y15744321D01*
X14082706Y15831260D01*
X14048785Y15913155D01*
X14035576Y15932924D01*
X14046858Y15940462D01*
X14109538Y16003142D01*
X14158785Y16076845D01*
X14192706Y16158740D01*
X14210000Y16245679D01*
X14210000Y16334321D01*
X14192706Y16421260D01*
X14158785Y16503155D01*
X14109538Y16576858D01*
X14046858Y16639538D01*
X13973155Y16688785D01*
X13891260Y16722706D01*
X13804321Y16740000D01*
X13715679Y16740000D01*
X13628740Y16722706D01*
X13546845Y16688785D01*
X13524612Y16673930D01*
X12780628Y17417914D01*
X12793862Y17419217D01*
X12845654Y17434928D01*
X12890000Y17458631D01*
X12934346Y17434928D01*
X12986138Y17419217D01*
X13040000Y17413912D01*
X13140000Y17413912D01*
X13193862Y17419217D01*
X13245654Y17434928D01*
X13290000Y17458631D01*
X13334346Y17434928D01*
X13386138Y17419217D01*
X13440000Y17413912D01*
X13540000Y17413912D01*
X13593862Y17419217D01*
X13595669Y17419765D01*
X13567294Y17351260D01*
X13550000Y17264321D01*
X13550000Y17175679D01*
X13567294Y17088740D01*
X13601215Y17006845D01*
X13650462Y16933142D01*
X13713142Y16870462D01*
X13786845Y16821215D01*
X13868740Y16787294D01*
X13955679Y16770000D01*
X14044321Y16770000D01*
X14131260Y16787294D01*
X14213155Y16821215D01*
X14286858Y16870462D01*
X14349538Y16933142D01*
X14398785Y17006845D01*
X14432706Y17088740D01*
X14450000Y17175679D01*
X14450000Y17264321D01*
X14432706Y17351260D01*
X14406099Y17415497D01*
X14434108Y17418255D01*
X14476521Y17431121D01*
X14515608Y17452014D01*
X14549869Y17480131D01*
X14577986Y17514392D01*
X14598879Y17553479D01*
X14611745Y17595892D01*
X14616089Y17640000D01*
X14615000Y18233750D01*
X14558750Y18290000D01*
X14315000Y18290000D01*
X14315000Y18270000D01*
X14265000Y18270000D01*
X14265000Y18290000D01*
X13915000Y18290000D01*
X13915000Y18270000D01*
X13865000Y18270000D01*
X13865000Y18290000D01*
X13820000Y18290000D01*
X13820000Y18390000D01*
X13865000Y18390000D01*
X13865000Y18410000D01*
X13915000Y18410000D01*
X13915000Y18390000D01*
X14265000Y18390000D01*
X14265000Y19208750D01*
X14315000Y19208750D01*
X14315000Y18390000D01*
X14558750Y18390000D01*
X14615000Y18446250D01*
X14616089Y19040000D01*
X14611745Y19084108D01*
X14598879Y19126521D01*
X14577986Y19165608D01*
X14549869Y19199869D01*
X14515608Y19227986D01*
X14476521Y19248879D01*
X14434108Y19261745D01*
X14390000Y19266089D01*
X14371250Y19265000D01*
X14315000Y19208750D01*
X14265000Y19208750D01*
X14208750Y19265000D01*
X14190000Y19266089D01*
X14145892Y19261745D01*
X14103479Y19248879D01*
X14090000Y19241674D01*
X14076521Y19248879D01*
X14034108Y19261745D01*
X13990000Y19266089D01*
X13971250Y19265000D01*
X13940002Y19233752D01*
X13940002Y19265000D01*
X13900000Y19265000D01*
X13900000Y19323604D01*
X13919538Y19343142D01*
X13968785Y19416845D01*
X14002706Y19498740D01*
X14020000Y19585679D01*
X14020000Y19674321D01*
X14002706Y19761260D01*
X13968785Y19843155D01*
X13919538Y19916858D01*
X13856858Y19979538D01*
X13783155Y20028785D01*
X13701260Y20062706D01*
X13614321Y20080000D01*
X13525679Y20080000D01*
X13438740Y20062706D01*
X13428937Y20058646D01*
X13418785Y20083155D01*
X13378563Y20143351D01*
X13445679Y20130000D01*
X13534321Y20130000D01*
X13621260Y20147294D01*
X13703155Y20181215D01*
X13776858Y20230462D01*
X13839538Y20293142D01*
X13888785Y20366845D01*
X13922706Y20448740D01*
X13940000Y20535679D01*
X13940000Y20624321D01*
X13922706Y20711260D01*
X13888785Y20793155D01*
X13839538Y20866858D01*
X13776858Y20929538D01*
X13703155Y20978785D01*
X13630361Y21008936D01*
X13642706Y21038740D01*
X13660000Y21125679D01*
X13660000Y21214321D01*
X13642706Y21301260D01*
X13638440Y21311560D01*
X13648740Y21307294D01*
X13735679Y21290000D01*
X13824321Y21290000D01*
X13911260Y21307294D01*
X13993155Y21341215D01*
X14066858Y21390462D01*
X14129538Y21453142D01*
X14178785Y21526845D01*
X14212706Y21608740D01*
X14219562Y21643206D01*
X14235679Y21640000D01*
X14324321Y21640000D01*
X14411260Y21657294D01*
X14493155Y21691215D01*
X14566858Y21740462D01*
X14629538Y21803142D01*
X14678785Y21876845D01*
X14712706Y21958740D01*
X14730000Y22045679D01*
X14730000Y22134321D01*
X14712706Y22221260D01*
X14678785Y22303155D01*
X14629538Y22376858D01*
X14566858Y22439538D01*
X14493155Y22488785D01*
X14411260Y22522706D01*
X14324321Y22540000D01*
X14254264Y22540000D01*
X13860000Y22934263D01*
X13860000Y26263604D01*
X13909538Y26313142D01*
X13958785Y26386845D01*
X13992706Y26468740D01*
X14010000Y26555679D01*
X14010000Y26644321D01*
X13992706Y26731260D01*
X13958785Y26813155D01*
X13909538Y26886858D01*
X13846858Y26949538D01*
X13846167Y26950000D01*
X13846858Y26950462D01*
X13909538Y27013142D01*
X13958785Y27086845D01*
X13992706Y27168740D01*
X14010000Y27255679D01*
X14010000Y27344321D01*
X14004682Y27371054D01*
X14090000Y27285736D01*
G04 #@! TA.AperFunction,Conductor*
D18*
G36*
X14090000Y27285736D02*
G01*
X14090001Y23724733D01*
X14088550Y23710000D01*
X14094342Y23651190D01*
X14111497Y23594640D01*
X14139353Y23542523D01*
X14156423Y23521724D01*
X14176843Y23496842D01*
X14188285Y23487452D01*
X15601234Y22074502D01*
X15524390Y21888982D01*
X15485000Y21690954D01*
X15485000Y21489046D01*
X15524390Y21291018D01*
X15601656Y21104480D01*
X15713830Y20936600D01*
X15856600Y20793830D01*
X16024480Y20681656D01*
X16211018Y20604390D01*
X16409046Y20565000D01*
X16610954Y20565000D01*
X16808982Y20604390D01*
X16995520Y20681656D01*
X17163400Y20793830D01*
X17305001Y20935431D01*
X17305001Y19704569D01*
X17163400Y19846170D01*
X16995520Y19958344D01*
X16808982Y20035610D01*
X16610954Y20075000D01*
X16409046Y20075000D01*
X16211018Y20035610D01*
X16024480Y19958344D01*
X15856600Y19846170D01*
X15713830Y19703400D01*
X15601656Y19535520D01*
X15524390Y19348982D01*
X15485000Y19150954D01*
X15485000Y18949046D01*
X15524390Y18751018D01*
X15601234Y18565498D01*
X14778285Y17742548D01*
X14766843Y17733158D01*
X14757452Y17721715D01*
X14757451Y17721714D01*
X14729353Y17687477D01*
X14701497Y17635360D01*
X14684342Y17578810D01*
X14678550Y17520000D01*
X14680001Y17505267D01*
X14680000Y16002352D01*
X12088286Y13410637D01*
X12076843Y13401246D01*
X12067452Y13389803D01*
X12067451Y13389802D01*
X12039353Y13355565D01*
X12035406Y13348181D01*
X11993862Y13360783D01*
X11940000Y13366088D01*
X11840000Y13366088D01*
X11786138Y13360783D01*
X11734346Y13345072D01*
X11708994Y13331521D01*
X11676521Y13348879D01*
X11634108Y13361745D01*
X11590000Y13366089D01*
X11571250Y13365000D01*
X11515000Y13308750D01*
X11515000Y12490000D01*
X11560000Y12490000D01*
X11560000Y12390000D01*
X11515000Y12390000D01*
X11515000Y12370000D01*
X11465000Y12370000D01*
X11465000Y12390000D01*
X11420000Y12390000D01*
X11420000Y12490000D01*
X11465000Y12490000D01*
X11465000Y13308750D01*
X11408750Y13365000D01*
X11390000Y13366089D01*
X11345892Y13361745D01*
X11303479Y13348879D01*
X11271006Y13331521D01*
X11245654Y13345072D01*
X11193862Y13360783D01*
X11140000Y13366088D01*
X11040000Y13366088D01*
X10986138Y13360783D01*
X10934346Y13345072D01*
X10890000Y13321369D01*
X10845654Y13345072D01*
X10793862Y13360783D01*
X10740000Y13366088D01*
X10640000Y13366088D01*
X10586138Y13360783D01*
X10534346Y13345072D01*
X10490000Y13321369D01*
X10445654Y13345072D01*
X10393862Y13360783D01*
X10340000Y13366088D01*
X10240000Y13366088D01*
X10186138Y13360783D01*
X10134346Y13345072D01*
X10090000Y13321369D01*
X10045654Y13345072D01*
X9993862Y13360783D01*
X9940000Y13366088D01*
X9840000Y13366088D01*
X9786138Y13360783D01*
X9734346Y13345072D01*
X9690000Y13321369D01*
X9645654Y13345072D01*
X9593862Y13360783D01*
X9540000Y13366088D01*
X9440000Y13366088D01*
X9386138Y13360783D01*
X9334346Y13345072D01*
X9290000Y13321369D01*
X9245654Y13345072D01*
X9210116Y13355852D01*
X9374264Y13520000D01*
X10953604Y13520000D01*
X11003142Y13470462D01*
X11076845Y13421215D01*
X11158740Y13387294D01*
X11245679Y13370000D01*
X11334321Y13370000D01*
X11421260Y13387294D01*
X11503155Y13421215D01*
X11576858Y13470462D01*
X11639538Y13533142D01*
X11688785Y13606845D01*
X11722706Y13688740D01*
X11740000Y13775679D01*
X11740000Y13864321D01*
X11722706Y13951260D01*
X11706660Y13990000D01*
X11893604Y13990000D01*
X11943142Y13940462D01*
X12016845Y13891215D01*
X12098740Y13857294D01*
X12185679Y13840000D01*
X12274321Y13840000D01*
X12361260Y13857294D01*
X12443155Y13891215D01*
X12516858Y13940462D01*
X12579538Y14003142D01*
X12628785Y14076845D01*
X12662706Y14158740D01*
X12680000Y14245679D01*
X12680000Y14334321D01*
X12662706Y14421260D01*
X12628785Y14503155D01*
X12618663Y14518304D01*
X12636858Y14530462D01*
X12699538Y14593142D01*
X12711696Y14611337D01*
X12726845Y14601215D01*
X12808740Y14567294D01*
X12895679Y14550000D01*
X12984321Y14550000D01*
X13071260Y14567294D01*
X13153155Y14601215D01*
X13226858Y14650462D01*
X13289538Y14713142D01*
X13338785Y14786845D01*
X13372706Y14868740D01*
X13390000Y14955679D01*
X13390000Y15044321D01*
X13372706Y15131260D01*
X13338785Y15213155D01*
X13328663Y15228304D01*
X13346858Y15240462D01*
X13409538Y15303142D01*
X13417076Y15314424D01*
X13436845Y15301215D01*
X13518740Y15267294D01*
X13605679Y15250000D01*
X13694321Y15250000D01*
X13781260Y15267294D01*
X13863155Y15301215D01*
X13936858Y15350462D01*
X13999538Y15413142D01*
X14048785Y15486845D01*
X14082706Y15568740D01*
X14100000Y15655679D01*
X14100000Y15744321D01*
X14082706Y15831260D01*
X14048785Y15913155D01*
X14035576Y15932924D01*
X14046858Y15940462D01*
X14109538Y16003142D01*
X14158785Y16076845D01*
X14192706Y16158740D01*
X14210000Y16245679D01*
X14210000Y16334321D01*
X14192706Y16421260D01*
X14158785Y16503155D01*
X14109538Y16576858D01*
X14046858Y16639538D01*
X13973155Y16688785D01*
X13891260Y16722706D01*
X13804321Y16740000D01*
X13715679Y16740000D01*
X13628740Y16722706D01*
X13546845Y16688785D01*
X13524612Y16673930D01*
X12780628Y17417914D01*
X12793862Y17419217D01*
X12845654Y17434928D01*
X12890000Y17458631D01*
X12934346Y17434928D01*
X12986138Y17419217D01*
X13040000Y17413912D01*
X13140000Y17413912D01*
X13193862Y17419217D01*
X13245654Y17434928D01*
X13290000Y17458631D01*
X13334346Y17434928D01*
X13386138Y17419217D01*
X13440000Y17413912D01*
X13540000Y17413912D01*
X13593862Y17419217D01*
X13595669Y17419765D01*
X13567294Y17351260D01*
X13550000Y17264321D01*
X13550000Y17175679D01*
X13567294Y17088740D01*
X13601215Y17006845D01*
X13650462Y16933142D01*
X13713142Y16870462D01*
X13786845Y16821215D01*
X13868740Y16787294D01*
X13955679Y16770000D01*
X14044321Y16770000D01*
X14131260Y16787294D01*
X14213155Y16821215D01*
X14286858Y16870462D01*
X14349538Y16933142D01*
X14398785Y17006845D01*
X14432706Y17088740D01*
X14450000Y17175679D01*
X14450000Y17264321D01*
X14432706Y17351260D01*
X14406099Y17415497D01*
X14434108Y17418255D01*
X14476521Y17431121D01*
X14515608Y17452014D01*
X14549869Y17480131D01*
X14577986Y17514392D01*
X14598879Y17553479D01*
X14611745Y17595892D01*
X14616089Y17640000D01*
X14615000Y18233750D01*
X14558750Y18290000D01*
X14315000Y18290000D01*
X14315000Y18270000D01*
X14265000Y18270000D01*
X14265000Y18290000D01*
X13915000Y18290000D01*
X13915000Y18270000D01*
X13865000Y18270000D01*
X13865000Y18290000D01*
X13820000Y18290000D01*
X13820000Y18390000D01*
X13865000Y18390000D01*
X13865000Y18410000D01*
X13915000Y18410000D01*
X13915000Y18390000D01*
X14265000Y18390000D01*
X14265000Y19208750D01*
X14315000Y19208750D01*
X14315000Y18390000D01*
X14558750Y18390000D01*
X14615000Y18446250D01*
X14616089Y19040000D01*
X14611745Y19084108D01*
X14598879Y19126521D01*
X14577986Y19165608D01*
X14549869Y19199869D01*
X14515608Y19227986D01*
X14476521Y19248879D01*
X14434108Y19261745D01*
X14390000Y19266089D01*
X14371250Y19265000D01*
X14315000Y19208750D01*
X14265000Y19208750D01*
X14208750Y19265000D01*
X14190000Y19266089D01*
X14145892Y19261745D01*
X14103479Y19248879D01*
X14090000Y19241674D01*
X14076521Y19248879D01*
X14034108Y19261745D01*
X13990000Y19266089D01*
X13971250Y19265000D01*
X13940002Y19233752D01*
X13940002Y19265000D01*
X13900000Y19265000D01*
X13900000Y19323604D01*
X13919538Y19343142D01*
X13968785Y19416845D01*
X14002706Y19498740D01*
X14020000Y19585679D01*
X14020000Y19674321D01*
X14002706Y19761260D01*
X13968785Y19843155D01*
X13919538Y19916858D01*
X13856858Y19979538D01*
X13783155Y20028785D01*
X13701260Y20062706D01*
X13614321Y20080000D01*
X13525679Y20080000D01*
X13438740Y20062706D01*
X13428937Y20058646D01*
X13418785Y20083155D01*
X13378563Y20143351D01*
X13445679Y20130000D01*
X13534321Y20130000D01*
X13621260Y20147294D01*
X13703155Y20181215D01*
X13776858Y20230462D01*
X13839538Y20293142D01*
X13888785Y20366845D01*
X13922706Y20448740D01*
X13940000Y20535679D01*
X13940000Y20624321D01*
X13922706Y20711260D01*
X13888785Y20793155D01*
X13839538Y20866858D01*
X13776858Y20929538D01*
X13703155Y20978785D01*
X13630361Y21008936D01*
X13642706Y21038740D01*
X13660000Y21125679D01*
X13660000Y21214321D01*
X13642706Y21301260D01*
X13638440Y21311560D01*
X13648740Y21307294D01*
X13735679Y21290000D01*
X13824321Y21290000D01*
X13911260Y21307294D01*
X13993155Y21341215D01*
X14066858Y21390462D01*
X14129538Y21453142D01*
X14178785Y21526845D01*
X14212706Y21608740D01*
X14219562Y21643206D01*
X14235679Y21640000D01*
X14324321Y21640000D01*
X14411260Y21657294D01*
X14493155Y21691215D01*
X14566858Y21740462D01*
X14629538Y21803142D01*
X14678785Y21876845D01*
X14712706Y21958740D01*
X14730000Y22045679D01*
X14730000Y22134321D01*
X14712706Y22221260D01*
X14678785Y22303155D01*
X14629538Y22376858D01*
X14566858Y22439538D01*
X14493155Y22488785D01*
X14411260Y22522706D01*
X14324321Y22540000D01*
X14254264Y22540000D01*
X13860000Y22934263D01*
X13860000Y26263604D01*
X13909538Y26313142D01*
X13958785Y26386845D01*
X13992706Y26468740D01*
X14010000Y26555679D01*
X14010000Y26644321D01*
X13992706Y26731260D01*
X13958785Y26813155D01*
X13909538Y26886858D01*
X13846858Y26949538D01*
X13846167Y26950000D01*
X13846858Y26950462D01*
X13909538Y27013142D01*
X13958785Y27086845D01*
X13992706Y27168740D01*
X14010000Y27255679D01*
X14010000Y27344321D01*
X14004682Y27371054D01*
X14090000Y27285736D01*
G37*
G04 #@! TD.AperFunction*
D15*
X5776845Y21591215D02*
X5858740Y21557294D01*
X5945679Y21540000D01*
X6034321Y21540000D01*
X6121260Y21557294D01*
X6203155Y21591215D01*
X6227528Y21607500D01*
X6191215Y21553155D01*
X6157294Y21471260D01*
X6140000Y21384321D01*
X6140000Y21295679D01*
X6157294Y21208740D01*
X6191215Y21126845D01*
X6212130Y21095544D01*
X6203142Y21089538D01*
X6140462Y21026858D01*
X6134456Y21017870D01*
X6103155Y21038785D01*
X6021260Y21072706D01*
X5934321Y21090000D01*
X5845679Y21090000D01*
X5758740Y21072706D01*
X5676845Y21038785D01*
X5603142Y20989538D01*
X5540462Y20926858D01*
X5491215Y20853155D01*
X5457294Y20771260D01*
X5440000Y20684321D01*
X5440000Y20595679D01*
X5457294Y20508740D01*
X5491215Y20426845D01*
X5516749Y20388630D01*
X5503142Y20379538D01*
X5440462Y20316858D01*
X5391215Y20243155D01*
X5357294Y20161260D01*
X5340000Y20074321D01*
X5340000Y19985679D01*
X5357294Y19898740D01*
X5391215Y19816845D01*
X5440462Y19743142D01*
X5503142Y19680462D01*
X5576845Y19631215D01*
X5658740Y19597294D01*
X5745679Y19580000D01*
X5834321Y19580000D01*
X5921260Y19597294D01*
X6003155Y19631215D01*
X6076858Y19680462D01*
X6139538Y19743142D01*
X6188785Y19816845D01*
X6222706Y19898740D01*
X6240000Y19985679D01*
X6240000Y20074321D01*
X6222706Y20161260D01*
X6188785Y20243155D01*
X6163251Y20281370D01*
X6176858Y20290462D01*
X6239538Y20353142D01*
X6245544Y20362130D01*
X6276845Y20341215D01*
X6358740Y20307294D01*
X6445679Y20290000D01*
X6534321Y20290000D01*
X6621260Y20307294D01*
X6703155Y20341215D01*
X6776858Y20390462D01*
X6839538Y20453142D01*
X6888785Y20526845D01*
X6922706Y20608740D01*
X6940000Y20695679D01*
X6940000Y20784321D01*
X6922706Y20871260D01*
X6888785Y20953155D01*
X6867870Y20984456D01*
X6876858Y20990462D01*
X6939538Y21053142D01*
X6988785Y21126845D01*
X7015176Y21190560D01*
X7190001Y21015735D01*
X7190000Y19266089D01*
X7171250Y19265000D01*
X7115000Y19208750D01*
X7115000Y18390000D01*
X7160000Y18390000D01*
X7160000Y18290000D01*
X7115000Y18290000D01*
X7115000Y17471250D01*
X7171250Y17415000D01*
X7190000Y17413911D01*
X7234108Y17418255D01*
X7276521Y17431121D01*
X7308994Y17448479D01*
X7334346Y17434928D01*
X7386138Y17419217D01*
X7440000Y17413912D01*
X7540000Y17413912D01*
X7593862Y17419217D01*
X7645654Y17434928D01*
X7690000Y17458631D01*
X7734346Y17434928D01*
X7786138Y17419217D01*
X7840000Y17413912D01*
X7940000Y17413912D01*
X7993862Y17419217D01*
X8045654Y17434928D01*
X8090000Y17458631D01*
X8134346Y17434928D01*
X8186138Y17419217D01*
X8240000Y17413912D01*
X8340000Y17413912D01*
X8393862Y17419217D01*
X8445654Y17434928D01*
X8490000Y17458631D01*
X8534346Y17434928D01*
X8586138Y17419217D01*
X8640000Y17413912D01*
X8740000Y17413912D01*
X8793862Y17419217D01*
X8845654Y17434928D01*
X8890000Y17458631D01*
X8934346Y17434928D01*
X8986138Y17419217D01*
X9040000Y17413912D01*
X9140000Y17413912D01*
X9193862Y17419217D01*
X9245654Y17434928D01*
X9290000Y17458631D01*
X9334346Y17434928D01*
X9386138Y17419217D01*
X9440000Y17413912D01*
X9540000Y17413912D01*
X9593862Y17419217D01*
X9645654Y17434928D01*
X9690000Y17458631D01*
X9734346Y17434928D01*
X9786138Y17419217D01*
X9840000Y17413912D01*
X9849992Y17413912D01*
X9849990Y16854454D01*
X9848540Y16839730D01*
X9849990Y16825007D01*
X9849990Y16824998D01*
X9854331Y16780921D01*
X9871486Y16724371D01*
X9872376Y16722706D01*
X9899343Y16672253D01*
X9926192Y16639538D01*
X9936832Y16626573D01*
X9948274Y16617183D01*
X11887176Y14678279D01*
X11896562Y14666842D01*
X11907999Y14657456D01*
X11908005Y14657450D01*
X11937142Y14633538D01*
X11893604Y14590000D01*
X9310452Y14590000D01*
X9295722Y14591451D01*
X9280992Y14590000D01*
X9280989Y14590000D01*
X9236912Y14585659D01*
X9203945Y14575658D01*
X9180361Y14568504D01*
X9128244Y14540647D01*
X9094007Y14512550D01*
X9094001Y14512544D01*
X9082564Y14503158D01*
X9073178Y14491721D01*
X8088290Y13506831D01*
X8076842Y13497436D01*
X8062837Y13480370D01*
X8039353Y13451755D01*
X8032394Y13438735D01*
X8011496Y13399637D01*
X7999217Y13359159D01*
X7993862Y13360783D01*
X7940000Y13366088D01*
X7840000Y13366088D01*
X7786138Y13360783D01*
X7734346Y13345072D01*
X7690000Y13321369D01*
X7645654Y13345072D01*
X7593862Y13360783D01*
X7540000Y13366088D01*
X7440000Y13366088D01*
X7386138Y13360783D01*
X7334346Y13345072D01*
X7308994Y13331521D01*
X7276521Y13348879D01*
X7249581Y13357051D01*
X7262706Y13388740D01*
X7280000Y13475679D01*
X7280000Y13564321D01*
X7262706Y13651260D01*
X7228785Y13733155D01*
X7179538Y13806858D01*
X7116858Y13869538D01*
X7043155Y13918785D01*
X6961260Y13952706D01*
X6929387Y13959046D01*
X6930000Y13965267D01*
X6930000Y13965276D01*
X6931450Y13979999D01*
X6930000Y13994722D01*
X6930000Y14341272D01*
X6931451Y14356002D01*
X6929026Y14380622D01*
X6925659Y14414812D01*
X6908504Y14471362D01*
X6880647Y14523479D01*
X6843158Y14569160D01*
X6831711Y14578554D01*
X6790020Y14620245D01*
X6790020Y17281479D01*
X6891710Y17383169D01*
X6903158Y17392564D01*
X6926064Y17420475D01*
X6928557Y17423513D01*
X6945892Y17418255D01*
X6990000Y17413911D01*
X7008750Y17415000D01*
X7065000Y17471250D01*
X7065000Y18290000D01*
X7020000Y18290000D01*
X7020000Y18390000D01*
X7065000Y18390000D01*
X7065000Y19208750D01*
X7008750Y19265000D01*
X6990000Y19266089D01*
X6945892Y19261745D01*
X6903479Y19248879D01*
X6871006Y19231521D01*
X6845654Y19245072D01*
X6793862Y19260783D01*
X6740000Y19266088D01*
X6640000Y19266088D01*
X6586138Y19260783D01*
X6534346Y19245072D01*
X6490000Y19221369D01*
X6445654Y19245072D01*
X6393862Y19260783D01*
X6340000Y19266088D01*
X6240000Y19266088D01*
X6186138Y19260783D01*
X6134346Y19245072D01*
X6090000Y19221369D01*
X6045654Y19245072D01*
X5993862Y19260783D01*
X5940000Y19266088D01*
X5840000Y19266088D01*
X5786138Y19260783D01*
X5734346Y19245072D01*
X5690000Y19221369D01*
X5645654Y19245072D01*
X5593862Y19260783D01*
X5540000Y19266088D01*
X5440000Y19266088D01*
X5412189Y19263349D01*
X5422706Y19288740D01*
X5440000Y19375679D01*
X5440000Y19464321D01*
X5422706Y19551260D01*
X5388785Y19633155D01*
X5339538Y19706858D01*
X5276858Y19769538D01*
X5203155Y19818785D01*
X5121260Y19852706D01*
X5034321Y19870000D01*
X4945679Y19870000D01*
X4858740Y19852706D01*
X4776845Y19818785D01*
X4703142Y19769538D01*
X4640462Y19706858D01*
X4591215Y19633155D01*
X4557294Y19551260D01*
X4540000Y19464321D01*
X4540000Y19375679D01*
X4557294Y19288740D01*
X4570801Y19256131D01*
X4534346Y19245072D01*
X4490000Y19221369D01*
X4445654Y19245072D01*
X4393862Y19260783D01*
X4340000Y19266088D01*
X4240000Y19266088D01*
X4190000Y19261163D01*
X4190000Y19309268D01*
X4191451Y19323998D01*
X4189647Y19342314D01*
X4185659Y19382808D01*
X4168504Y19439358D01*
X4158587Y19457911D01*
X4152091Y19470064D01*
X4203155Y19491215D01*
X4276858Y19540462D01*
X4339538Y19603142D01*
X4388785Y19676845D01*
X4422706Y19758740D01*
X4440000Y19845679D01*
X4440000Y19934321D01*
X4422706Y20021260D01*
X4388785Y20103155D01*
X4339538Y20176858D01*
X4276858Y20239538D01*
X4203155Y20288785D01*
X4130000Y20319086D01*
X4130000Y20465027D01*
X5304975Y21640000D01*
X5703833Y21640000D01*
X5776845Y21591215D01*
G04 #@! TA.AperFunction,Conductor*
D18*
G36*
X5776845Y21591215D02*
G01*
X5858740Y21557294D01*
X5945679Y21540000D01*
X6034321Y21540000D01*
X6121260Y21557294D01*
X6203155Y21591215D01*
X6227528Y21607500D01*
X6191215Y21553155D01*
X6157294Y21471260D01*
X6140000Y21384321D01*
X6140000Y21295679D01*
X6157294Y21208740D01*
X6191215Y21126845D01*
X6212130Y21095544D01*
X6203142Y21089538D01*
X6140462Y21026858D01*
X6134456Y21017870D01*
X6103155Y21038785D01*
X6021260Y21072706D01*
X5934321Y21090000D01*
X5845679Y21090000D01*
X5758740Y21072706D01*
X5676845Y21038785D01*
X5603142Y20989538D01*
X5540462Y20926858D01*
X5491215Y20853155D01*
X5457294Y20771260D01*
X5440000Y20684321D01*
X5440000Y20595679D01*
X5457294Y20508740D01*
X5491215Y20426845D01*
X5516749Y20388630D01*
X5503142Y20379538D01*
X5440462Y20316858D01*
X5391215Y20243155D01*
X5357294Y20161260D01*
X5340000Y20074321D01*
X5340000Y19985679D01*
X5357294Y19898740D01*
X5391215Y19816845D01*
X5440462Y19743142D01*
X5503142Y19680462D01*
X5576845Y19631215D01*
X5658740Y19597294D01*
X5745679Y19580000D01*
X5834321Y19580000D01*
X5921260Y19597294D01*
X6003155Y19631215D01*
X6076858Y19680462D01*
X6139538Y19743142D01*
X6188785Y19816845D01*
X6222706Y19898740D01*
X6240000Y19985679D01*
X6240000Y20074321D01*
X6222706Y20161260D01*
X6188785Y20243155D01*
X6163251Y20281370D01*
X6176858Y20290462D01*
X6239538Y20353142D01*
X6245544Y20362130D01*
X6276845Y20341215D01*
X6358740Y20307294D01*
X6445679Y20290000D01*
X6534321Y20290000D01*
X6621260Y20307294D01*
X6703155Y20341215D01*
X6776858Y20390462D01*
X6839538Y20453142D01*
X6888785Y20526845D01*
X6922706Y20608740D01*
X6940000Y20695679D01*
X6940000Y20784321D01*
X6922706Y20871260D01*
X6888785Y20953155D01*
X6867870Y20984456D01*
X6876858Y20990462D01*
X6939538Y21053142D01*
X6988785Y21126845D01*
X7015176Y21190560D01*
X7190001Y21015735D01*
X7190000Y19266089D01*
X7171250Y19265000D01*
X7115000Y19208750D01*
X7115000Y18390000D01*
X7160000Y18390000D01*
X7160000Y18290000D01*
X7115000Y18290000D01*
X7115000Y17471250D01*
X7171250Y17415000D01*
X7190000Y17413911D01*
X7234108Y17418255D01*
X7276521Y17431121D01*
X7308994Y17448479D01*
X7334346Y17434928D01*
X7386138Y17419217D01*
X7440000Y17413912D01*
X7540000Y17413912D01*
X7593862Y17419217D01*
X7645654Y17434928D01*
X7690000Y17458631D01*
X7734346Y17434928D01*
X7786138Y17419217D01*
X7840000Y17413912D01*
X7940000Y17413912D01*
X7993862Y17419217D01*
X8045654Y17434928D01*
X8090000Y17458631D01*
X8134346Y17434928D01*
X8186138Y17419217D01*
X8240000Y17413912D01*
X8340000Y17413912D01*
X8393862Y17419217D01*
X8445654Y17434928D01*
X8490000Y17458631D01*
X8534346Y17434928D01*
X8586138Y17419217D01*
X8640000Y17413912D01*
X8740000Y17413912D01*
X8793862Y17419217D01*
X8845654Y17434928D01*
X8890000Y17458631D01*
X8934346Y17434928D01*
X8986138Y17419217D01*
X9040000Y17413912D01*
X9140000Y17413912D01*
X9193862Y17419217D01*
X9245654Y17434928D01*
X9290000Y17458631D01*
X9334346Y17434928D01*
X9386138Y17419217D01*
X9440000Y17413912D01*
X9540000Y17413912D01*
X9593862Y17419217D01*
X9645654Y17434928D01*
X9690000Y17458631D01*
X9734346Y17434928D01*
X9786138Y17419217D01*
X9840000Y17413912D01*
X9849992Y17413912D01*
X9849990Y16854454D01*
X9848540Y16839730D01*
X9849990Y16825007D01*
X9849990Y16824998D01*
X9854331Y16780921D01*
X9871486Y16724371D01*
X9872376Y16722706D01*
X9899343Y16672253D01*
X9926192Y16639538D01*
X9936832Y16626573D01*
X9948274Y16617183D01*
X11887176Y14678279D01*
X11896562Y14666842D01*
X11907999Y14657456D01*
X11908005Y14657450D01*
X11937142Y14633538D01*
X11893604Y14590000D01*
X9310452Y14590000D01*
X9295722Y14591451D01*
X9280992Y14590000D01*
X9280989Y14590000D01*
X9236912Y14585659D01*
X9203945Y14575658D01*
X9180361Y14568504D01*
X9128244Y14540647D01*
X9094007Y14512550D01*
X9094001Y14512544D01*
X9082564Y14503158D01*
X9073178Y14491721D01*
X8088290Y13506831D01*
X8076842Y13497436D01*
X8062837Y13480370D01*
X8039353Y13451755D01*
X8032394Y13438735D01*
X8011496Y13399637D01*
X7999217Y13359159D01*
X7993862Y13360783D01*
X7940000Y13366088D01*
X7840000Y13366088D01*
X7786138Y13360783D01*
X7734346Y13345072D01*
X7690000Y13321369D01*
X7645654Y13345072D01*
X7593862Y13360783D01*
X7540000Y13366088D01*
X7440000Y13366088D01*
X7386138Y13360783D01*
X7334346Y13345072D01*
X7308994Y13331521D01*
X7276521Y13348879D01*
X7249581Y13357051D01*
X7262706Y13388740D01*
X7280000Y13475679D01*
X7280000Y13564321D01*
X7262706Y13651260D01*
X7228785Y13733155D01*
X7179538Y13806858D01*
X7116858Y13869538D01*
X7043155Y13918785D01*
X6961260Y13952706D01*
X6929387Y13959046D01*
X6930000Y13965267D01*
X6930000Y13965276D01*
X6931450Y13979999D01*
X6930000Y13994722D01*
X6930000Y14341272D01*
X6931451Y14356002D01*
X6929026Y14380622D01*
X6925659Y14414812D01*
X6908504Y14471362D01*
X6880647Y14523479D01*
X6843158Y14569160D01*
X6831711Y14578554D01*
X6790020Y14620245D01*
X6790020Y17281479D01*
X6891710Y17383169D01*
X6903158Y17392564D01*
X6926064Y17420475D01*
X6928557Y17423513D01*
X6945892Y17418255D01*
X6990000Y17413911D01*
X7008750Y17415000D01*
X7065000Y17471250D01*
X7065000Y18290000D01*
X7020000Y18290000D01*
X7020000Y18390000D01*
X7065000Y18390000D01*
X7065000Y19208750D01*
X7008750Y19265000D01*
X6990000Y19266089D01*
X6945892Y19261745D01*
X6903479Y19248879D01*
X6871006Y19231521D01*
X6845654Y19245072D01*
X6793862Y19260783D01*
X6740000Y19266088D01*
X6640000Y19266088D01*
X6586138Y19260783D01*
X6534346Y19245072D01*
X6490000Y19221369D01*
X6445654Y19245072D01*
X6393862Y19260783D01*
X6340000Y19266088D01*
X6240000Y19266088D01*
X6186138Y19260783D01*
X6134346Y19245072D01*
X6090000Y19221369D01*
X6045654Y19245072D01*
X5993862Y19260783D01*
X5940000Y19266088D01*
X5840000Y19266088D01*
X5786138Y19260783D01*
X5734346Y19245072D01*
X5690000Y19221369D01*
X5645654Y19245072D01*
X5593862Y19260783D01*
X5540000Y19266088D01*
X5440000Y19266088D01*
X5412189Y19263349D01*
X5422706Y19288740D01*
X5440000Y19375679D01*
X5440000Y19464321D01*
X5422706Y19551260D01*
X5388785Y19633155D01*
X5339538Y19706858D01*
X5276858Y19769538D01*
X5203155Y19818785D01*
X5121260Y19852706D01*
X5034321Y19870000D01*
X4945679Y19870000D01*
X4858740Y19852706D01*
X4776845Y19818785D01*
X4703142Y19769538D01*
X4640462Y19706858D01*
X4591215Y19633155D01*
X4557294Y19551260D01*
X4540000Y19464321D01*
X4540000Y19375679D01*
X4557294Y19288740D01*
X4570801Y19256131D01*
X4534346Y19245072D01*
X4490000Y19221369D01*
X4445654Y19245072D01*
X4393862Y19260783D01*
X4340000Y19266088D01*
X4240000Y19266088D01*
X4190000Y19261163D01*
X4190000Y19309268D01*
X4191451Y19323998D01*
X4189647Y19342314D01*
X4185659Y19382808D01*
X4168504Y19439358D01*
X4158587Y19457911D01*
X4152091Y19470064D01*
X4203155Y19491215D01*
X4276858Y19540462D01*
X4339538Y19603142D01*
X4388785Y19676845D01*
X4422706Y19758740D01*
X4440000Y19845679D01*
X4440000Y19934321D01*
X4422706Y20021260D01*
X4388785Y20103155D01*
X4339538Y20176858D01*
X4276858Y20239538D01*
X4203155Y20288785D01*
X4130000Y20319086D01*
X4130000Y20465027D01*
X5304975Y21640000D01*
X5703833Y21640000D01*
X5776845Y21591215D01*
G37*
G04 #@! TD.AperFunction*
D15*
X616600Y18253830D02*
X784480Y18141656D01*
X971018Y18064390D01*
X1169046Y18025000D01*
X1370954Y18025000D01*
X1568982Y18064390D01*
X1754502Y18141234D01*
X2682461Y17213275D01*
X2691852Y17201832D01*
X2703295Y17192441D01*
X2737532Y17164343D01*
X2757555Y17153641D01*
X2789650Y17136486D01*
X2846200Y17119331D01*
X2890277Y17114990D01*
X2890286Y17114990D01*
X2905009Y17113540D01*
X2919732Y17114990D01*
X4049799Y17114990D01*
X4064522Y17113540D01*
X4079245Y17114990D01*
X4079255Y17114990D01*
X4123332Y17119331D01*
X4179882Y17136486D01*
X4231999Y17164343D01*
X4277680Y17201832D01*
X4287075Y17213280D01*
X4390001Y17316205D01*
X4390000Y16390000D01*
X4325679Y16390000D01*
X4238740Y16372706D01*
X4156845Y16338785D01*
X4083142Y16289538D01*
X4020462Y16226858D01*
X3971215Y16153155D01*
X3940433Y16078838D01*
X3884321Y16090000D01*
X3795679Y16090000D01*
X3708740Y16072706D01*
X3626845Y16038785D01*
X3553142Y15989538D01*
X3490462Y15926858D01*
X3441215Y15853155D01*
X3407294Y15771260D01*
X3390000Y15684321D01*
X3390000Y15595679D01*
X3407294Y15508740D01*
X3441215Y15426845D01*
X3490462Y15353142D01*
X3539527Y15304077D01*
X3540000Y15299275D01*
X3540000Y15299265D01*
X3544341Y15255188D01*
X3561496Y15198638D01*
X3571459Y15180000D01*
X3589353Y15146521D01*
X3614927Y15115360D01*
X3626843Y15100840D01*
X3638285Y15091450D01*
X3864685Y14865050D01*
X3339214Y14865050D01*
X2178766Y16025498D01*
X2255610Y16211018D01*
X2295000Y16409046D01*
X2295000Y16610954D01*
X2255610Y16808982D01*
X2178344Y16995520D01*
X2066170Y17163400D01*
X1923400Y17306170D01*
X1755520Y17418344D01*
X1568982Y17495610D01*
X1370954Y17535000D01*
X1169046Y17535000D01*
X971018Y17495610D01*
X784480Y17418344D01*
X616600Y17306170D01*
X475000Y17164570D01*
X475000Y18395430D01*
X616600Y18253830D01*
G04 #@! TA.AperFunction,Conductor*
D18*
G36*
X616600Y18253830D02*
G01*
X784480Y18141656D01*
X971018Y18064390D01*
X1169046Y18025000D01*
X1370954Y18025000D01*
X1568982Y18064390D01*
X1754502Y18141234D01*
X2682461Y17213275D01*
X2691852Y17201832D01*
X2703295Y17192441D01*
X2737532Y17164343D01*
X2757555Y17153641D01*
X2789650Y17136486D01*
X2846200Y17119331D01*
X2890277Y17114990D01*
X2890286Y17114990D01*
X2905009Y17113540D01*
X2919732Y17114990D01*
X4049799Y17114990D01*
X4064522Y17113540D01*
X4079245Y17114990D01*
X4079255Y17114990D01*
X4123332Y17119331D01*
X4179882Y17136486D01*
X4231999Y17164343D01*
X4277680Y17201832D01*
X4287075Y17213280D01*
X4390001Y17316205D01*
X4390000Y16390000D01*
X4325679Y16390000D01*
X4238740Y16372706D01*
X4156845Y16338785D01*
X4083142Y16289538D01*
X4020462Y16226858D01*
X3971215Y16153155D01*
X3940433Y16078838D01*
X3884321Y16090000D01*
X3795679Y16090000D01*
X3708740Y16072706D01*
X3626845Y16038785D01*
X3553142Y15989538D01*
X3490462Y15926858D01*
X3441215Y15853155D01*
X3407294Y15771260D01*
X3390000Y15684321D01*
X3390000Y15595679D01*
X3407294Y15508740D01*
X3441215Y15426845D01*
X3490462Y15353142D01*
X3539527Y15304077D01*
X3540000Y15299275D01*
X3540000Y15299265D01*
X3544341Y15255188D01*
X3561496Y15198638D01*
X3571459Y15180000D01*
X3589353Y15146521D01*
X3614927Y15115360D01*
X3626843Y15100840D01*
X3638285Y15091450D01*
X3864685Y14865050D01*
X3339214Y14865050D01*
X2178766Y16025498D01*
X2255610Y16211018D01*
X2295000Y16409046D01*
X2295000Y16610954D01*
X2255610Y16808982D01*
X2178344Y16995520D01*
X2066170Y17163400D01*
X1923400Y17306170D01*
X1755520Y17418344D01*
X1568982Y17495610D01*
X1370954Y17535000D01*
X1169046Y17535000D01*
X971018Y17495610D01*
X784480Y17418344D01*
X616600Y17306170D01*
X475000Y17164570D01*
X475000Y18395430D01*
X616600Y18253830D01*
G37*
G04 #@! TD.AperFunction*
D15*
X12620267Y15685936D02*
X12610319Y15635926D01*
X12605000Y15636450D01*
X12590277Y15635000D01*
X12203262Y15635000D01*
X10749999Y17088262D01*
X10749999Y17251926D01*
X10891715Y17393641D01*
X10903158Y17403032D01*
X10903165Y17403040D01*
X12620267Y15685936D01*
G04 #@! TA.AperFunction,Conductor*
D18*
G36*
X12620267Y15685936D02*
G01*
X12610319Y15635926D01*
X12605000Y15636450D01*
X12590277Y15635000D01*
X12203262Y15635000D01*
X10749999Y17088262D01*
X10749999Y17251926D01*
X10891715Y17393641D01*
X10903158Y17403032D01*
X10903165Y17403040D01*
X12620267Y15685936D01*
G37*
G04 #@! TD.AperFunction*
D15*
X616600Y20793830D02*
X784480Y20681656D01*
X971018Y20604390D01*
X1169046Y20565000D01*
X1370954Y20565000D01*
X1568982Y20604390D01*
X1704807Y20660650D01*
X2787936Y19577521D01*
X2766845Y19568785D01*
X2693142Y19519538D01*
X2630462Y19456858D01*
X2581215Y19383155D01*
X2547294Y19301260D01*
X2530000Y19214321D01*
X2530000Y19125679D01*
X2547294Y19038740D01*
X2581215Y18956845D01*
X2630462Y18883142D01*
X2693142Y18820462D01*
X2766845Y18771215D01*
X2848740Y18737294D01*
X2935679Y18720000D01*
X3024321Y18720000D01*
X3111260Y18737294D01*
X3163912Y18759103D01*
X3163912Y17714990D01*
X3029274Y17714990D01*
X2178766Y18565498D01*
X2255610Y18751018D01*
X2295000Y18949046D01*
X2295000Y19150954D01*
X2255610Y19348982D01*
X2178344Y19535520D01*
X2066170Y19703400D01*
X1923400Y19846170D01*
X1755520Y19958344D01*
X1568982Y20035610D01*
X1370954Y20075000D01*
X1169046Y20075000D01*
X971018Y20035610D01*
X784480Y19958344D01*
X616600Y19846170D01*
X475000Y19704570D01*
X475000Y20935430D01*
X616600Y20793830D01*
G04 #@! TA.AperFunction,Conductor*
D18*
G36*
X616600Y20793830D02*
G01*
X784480Y20681656D01*
X971018Y20604390D01*
X1169046Y20565000D01*
X1370954Y20565000D01*
X1568982Y20604390D01*
X1704807Y20660650D01*
X2787936Y19577521D01*
X2766845Y19568785D01*
X2693142Y19519538D01*
X2630462Y19456858D01*
X2581215Y19383155D01*
X2547294Y19301260D01*
X2530000Y19214321D01*
X2530000Y19125679D01*
X2547294Y19038740D01*
X2581215Y18956845D01*
X2630462Y18883142D01*
X2693142Y18820462D01*
X2766845Y18771215D01*
X2848740Y18737294D01*
X2935679Y18720000D01*
X3024321Y18720000D01*
X3111260Y18737294D01*
X3163912Y18759103D01*
X3163912Y17714990D01*
X3029274Y17714990D01*
X2178766Y18565498D01*
X2255610Y18751018D01*
X2295000Y18949046D01*
X2295000Y19150954D01*
X2255610Y19348982D01*
X2178344Y19535520D01*
X2066170Y19703400D01*
X1923400Y19846170D01*
X1755520Y19958344D01*
X1568982Y20035610D01*
X1370954Y20075000D01*
X1169046Y20075000D01*
X971018Y20035610D01*
X784480Y19958344D01*
X616600Y19846170D01*
X475000Y19704570D01*
X475000Y20935430D01*
X616600Y20793830D01*
G37*
G04 #@! TD.AperFunction*
D15*
X13110000Y27344321D02*
X13110000Y27274263D01*
X12908289Y27072552D01*
X12896841Y27063157D01*
X12886044Y27050000D01*
X12859352Y27017476D01*
X12857036Y27013142D01*
X12831495Y26965358D01*
X12814340Y26908808D01*
X12809999Y26864731D01*
X12809999Y26864722D01*
X12808549Y26849999D01*
X12809999Y26835276D01*
X12810000Y26398731D01*
X12808549Y26383999D01*
X12814341Y26325189D01*
X12831496Y26268639D01*
X12859352Y26216522D01*
X12873909Y26198785D01*
X12896842Y26170841D01*
X12908284Y26161451D01*
X12910000Y26159735D01*
X12910001Y21506397D01*
X12860462Y21456858D01*
X12811215Y21383155D01*
X12777294Y21301260D01*
X12760000Y21214321D01*
X12760000Y21125679D01*
X12777294Y21038740D01*
X12811215Y20956845D01*
X12860462Y20883142D01*
X12923142Y20820462D01*
X12996845Y20771215D01*
X13069639Y20741064D01*
X13057294Y20711260D01*
X13040000Y20624321D01*
X13040000Y20535679D01*
X13057294Y20448740D01*
X13091215Y20366845D01*
X13131437Y20306649D01*
X13064321Y20320000D01*
X12975679Y20320000D01*
X12888740Y20302706D01*
X12806845Y20268785D01*
X12733142Y20219538D01*
X12670462Y20156858D01*
X12621215Y20083155D01*
X12587294Y20001260D01*
X12570000Y19914321D01*
X12570000Y19844263D01*
X12438284Y19712547D01*
X12426842Y19703157D01*
X12417451Y19691714D01*
X12417450Y19691713D01*
X12389352Y19657476D01*
X12369138Y19619657D01*
X12361496Y19605359D01*
X12344341Y19548809D01*
X12339999Y19504732D01*
X12339999Y19504722D01*
X12338549Y19489999D01*
X12339999Y19475276D01*
X12339999Y19266088D01*
X12240000Y19266088D01*
X12186138Y19260783D01*
X12134346Y19245072D01*
X12090000Y19221369D01*
X12045654Y19245072D01*
X11993862Y19260783D01*
X11940000Y19266088D01*
X11840000Y19266088D01*
X11786138Y19260783D01*
X11734346Y19245072D01*
X11708994Y19231521D01*
X11676521Y19248879D01*
X11634108Y19261745D01*
X11590000Y19266089D01*
X11571250Y19265000D01*
X11515000Y19208750D01*
X11515000Y18390000D01*
X11560000Y18390000D01*
X11560000Y18290000D01*
X11515000Y18290000D01*
X11515000Y18270000D01*
X11465000Y18270000D01*
X11465000Y18290000D01*
X11420000Y18290000D01*
X11420000Y18390000D01*
X11465000Y18390000D01*
X11465000Y19208750D01*
X11408750Y19265000D01*
X11390000Y19266089D01*
X11345892Y19261745D01*
X11303479Y19248879D01*
X11271006Y19231521D01*
X11245654Y19245072D01*
X11193862Y19260783D01*
X11140000Y19266088D01*
X11040000Y19266088D01*
X10986138Y19260783D01*
X10934346Y19245072D01*
X10890000Y19221369D01*
X10845654Y19245072D01*
X10793862Y19260783D01*
X10740000Y19266088D01*
X10640000Y19266088D01*
X10586138Y19260783D01*
X10534346Y19245072D01*
X10490000Y19221369D01*
X10445654Y19245072D01*
X10393862Y19260783D01*
X10340000Y19266088D01*
X10240000Y19266088D01*
X10190000Y19261163D01*
X10190000Y20221472D01*
X10207522Y20203950D01*
X10305793Y20138287D01*
X10414986Y20093058D01*
X10530905Y20070000D01*
X10649095Y20070000D01*
X10765014Y20093058D01*
X10874207Y20138287D01*
X10972478Y20203950D01*
X11056050Y20287522D01*
X11121713Y20385793D01*
X11166942Y20494986D01*
X11190000Y20610905D01*
X11190000Y20729095D01*
X11183853Y20760000D01*
X11184321Y20760000D01*
X11271260Y20777294D01*
X11340812Y20806103D01*
X11361215Y20756845D01*
X11371337Y20741696D01*
X11353142Y20729538D01*
X11290462Y20666858D01*
X11241215Y20593155D01*
X11207294Y20511260D01*
X11190000Y20424321D01*
X11190000Y20335679D01*
X11207294Y20248740D01*
X11241215Y20166845D01*
X11290462Y20093142D01*
X11353142Y20030462D01*
X11426845Y19981215D01*
X11508740Y19947294D01*
X11595679Y19930000D01*
X11684321Y19930000D01*
X11771260Y19947294D01*
X11853155Y19981215D01*
X11926858Y20030462D01*
X11989538Y20093142D01*
X12015554Y20132078D01*
X12016845Y20131215D01*
X12098740Y20097294D01*
X12185679Y20080000D01*
X12274321Y20080000D01*
X12361260Y20097294D01*
X12443155Y20131215D01*
X12516858Y20180462D01*
X12579538Y20243142D01*
X12628785Y20316845D01*
X12662706Y20398740D01*
X12680000Y20485679D01*
X12680000Y20574321D01*
X12662706Y20661260D01*
X12628785Y20743155D01*
X12579538Y20816858D01*
X12530000Y20866396D01*
X12530000Y21151272D01*
X12531451Y21166002D01*
X12530000Y21180735D01*
X12525659Y21224812D01*
X12508504Y21281362D01*
X12508504Y21281363D01*
X12480647Y21333480D01*
X12452549Y21367717D01*
X12443158Y21379160D01*
X12431715Y21388551D01*
X12198554Y21621711D01*
X12189159Y21633159D01*
X12143478Y21670648D01*
X12091361Y21698505D01*
X12034811Y21715660D01*
X11990734Y21720001D01*
X11990724Y21720001D01*
X11976001Y21721451D01*
X11961278Y21720001D01*
X11364723Y21720001D01*
X11350000Y21721451D01*
X11335277Y21720001D01*
X11335268Y21720001D01*
X11291191Y21715660D01*
X11234641Y21698505D01*
X11230000Y21696024D01*
X11230000Y21734321D01*
X11212706Y21821260D01*
X11178785Y21903155D01*
X11129538Y21976858D01*
X11066858Y22039538D01*
X10993155Y22088785D01*
X10911260Y22122706D01*
X10890000Y22126935D01*
X10890000Y22148840D01*
X10972478Y22203950D01*
X11056050Y22287522D01*
X11121713Y22385793D01*
X11166942Y22494986D01*
X11190000Y22610905D01*
X11190000Y22729095D01*
X11166942Y22845014D01*
X11121713Y22954207D01*
X11056050Y23052478D01*
X10972478Y23136050D01*
X10874207Y23201713D01*
X10765014Y23246942D01*
X10649095Y23270000D01*
X10530905Y23270000D01*
X10414986Y23246942D01*
X10305793Y23201713D01*
X10207522Y23136050D01*
X10190000Y23118528D01*
X10190000Y24451739D01*
X11787290Y26049029D01*
X11797294Y25998740D01*
X11831215Y25916845D01*
X11880462Y25843142D01*
X11943142Y25780462D01*
X12016845Y25731215D01*
X12098740Y25697294D01*
X12185679Y25680000D01*
X12274321Y25680000D01*
X12361260Y25697294D01*
X12443155Y25731215D01*
X12516858Y25780462D01*
X12579538Y25843142D01*
X12628785Y25916845D01*
X12662706Y25998740D01*
X12680000Y26085679D01*
X12680000Y26174321D01*
X12662706Y26261260D01*
X12628785Y26343155D01*
X12579538Y26416858D01*
X12516858Y26479538D01*
X12443155Y26528785D01*
X12361260Y26562706D01*
X12310971Y26572710D01*
X13116808Y27378546D01*
X13110000Y27344321D01*
G04 #@! TA.AperFunction,Conductor*
D18*
G36*
X13110000Y27344321D02*
G01*
X13110000Y27274263D01*
X12908289Y27072552D01*
X12896841Y27063157D01*
X12886044Y27050000D01*
X12859352Y27017476D01*
X12857036Y27013142D01*
X12831495Y26965358D01*
X12814340Y26908808D01*
X12809999Y26864731D01*
X12809999Y26864722D01*
X12808549Y26849999D01*
X12809999Y26835276D01*
X12810000Y26398731D01*
X12808549Y26383999D01*
X12814341Y26325189D01*
X12831496Y26268639D01*
X12859352Y26216522D01*
X12873909Y26198785D01*
X12896842Y26170841D01*
X12908284Y26161451D01*
X12910000Y26159735D01*
X12910001Y21506397D01*
X12860462Y21456858D01*
X12811215Y21383155D01*
X12777294Y21301260D01*
X12760000Y21214321D01*
X12760000Y21125679D01*
X12777294Y21038740D01*
X12811215Y20956845D01*
X12860462Y20883142D01*
X12923142Y20820462D01*
X12996845Y20771215D01*
X13069639Y20741064D01*
X13057294Y20711260D01*
X13040000Y20624321D01*
X13040000Y20535679D01*
X13057294Y20448740D01*
X13091215Y20366845D01*
X13131437Y20306649D01*
X13064321Y20320000D01*
X12975679Y20320000D01*
X12888740Y20302706D01*
X12806845Y20268785D01*
X12733142Y20219538D01*
X12670462Y20156858D01*
X12621215Y20083155D01*
X12587294Y20001260D01*
X12570000Y19914321D01*
X12570000Y19844263D01*
X12438284Y19712547D01*
X12426842Y19703157D01*
X12417451Y19691714D01*
X12417450Y19691713D01*
X12389352Y19657476D01*
X12369138Y19619657D01*
X12361496Y19605359D01*
X12344341Y19548809D01*
X12339999Y19504732D01*
X12339999Y19504722D01*
X12338549Y19489999D01*
X12339999Y19475276D01*
X12339999Y19266088D01*
X12240000Y19266088D01*
X12186138Y19260783D01*
X12134346Y19245072D01*
X12090000Y19221369D01*
X12045654Y19245072D01*
X11993862Y19260783D01*
X11940000Y19266088D01*
X11840000Y19266088D01*
X11786138Y19260783D01*
X11734346Y19245072D01*
X11708994Y19231521D01*
X11676521Y19248879D01*
X11634108Y19261745D01*
X11590000Y19266089D01*
X11571250Y19265000D01*
X11515000Y19208750D01*
X11515000Y18390000D01*
X11560000Y18390000D01*
X11560000Y18290000D01*
X11515000Y18290000D01*
X11515000Y18270000D01*
X11465000Y18270000D01*
X11465000Y18290000D01*
X11420000Y18290000D01*
X11420000Y18390000D01*
X11465000Y18390000D01*
X11465000Y19208750D01*
X11408750Y19265000D01*
X11390000Y19266089D01*
X11345892Y19261745D01*
X11303479Y19248879D01*
X11271006Y19231521D01*
X11245654Y19245072D01*
X11193862Y19260783D01*
X11140000Y19266088D01*
X11040000Y19266088D01*
X10986138Y19260783D01*
X10934346Y19245072D01*
X10890000Y19221369D01*
X10845654Y19245072D01*
X10793862Y19260783D01*
X10740000Y19266088D01*
X10640000Y19266088D01*
X10586138Y19260783D01*
X10534346Y19245072D01*
X10490000Y19221369D01*
X10445654Y19245072D01*
X10393862Y19260783D01*
X10340000Y19266088D01*
X10240000Y19266088D01*
X10190000Y19261163D01*
X10190000Y20221472D01*
X10207522Y20203950D01*
X10305793Y20138287D01*
X10414986Y20093058D01*
X10530905Y20070000D01*
X10649095Y20070000D01*
X10765014Y20093058D01*
X10874207Y20138287D01*
X10972478Y20203950D01*
X11056050Y20287522D01*
X11121713Y20385793D01*
X11166942Y20494986D01*
X11190000Y20610905D01*
X11190000Y20729095D01*
X11183853Y20760000D01*
X11184321Y20760000D01*
X11271260Y20777294D01*
X11340812Y20806103D01*
X11361215Y20756845D01*
X11371337Y20741696D01*
X11353142Y20729538D01*
X11290462Y20666858D01*
X11241215Y20593155D01*
X11207294Y20511260D01*
X11190000Y20424321D01*
X11190000Y20335679D01*
X11207294Y20248740D01*
X11241215Y20166845D01*
X11290462Y20093142D01*
X11353142Y20030462D01*
X11426845Y19981215D01*
X11508740Y19947294D01*
X11595679Y19930000D01*
X11684321Y19930000D01*
X11771260Y19947294D01*
X11853155Y19981215D01*
X11926858Y20030462D01*
X11989538Y20093142D01*
X12015554Y20132078D01*
X12016845Y20131215D01*
X12098740Y20097294D01*
X12185679Y20080000D01*
X12274321Y20080000D01*
X12361260Y20097294D01*
X12443155Y20131215D01*
X12516858Y20180462D01*
X12579538Y20243142D01*
X12628785Y20316845D01*
X12662706Y20398740D01*
X12680000Y20485679D01*
X12680000Y20574321D01*
X12662706Y20661260D01*
X12628785Y20743155D01*
X12579538Y20816858D01*
X12530000Y20866396D01*
X12530000Y21151272D01*
X12531451Y21166002D01*
X12530000Y21180735D01*
X12525659Y21224812D01*
X12508504Y21281362D01*
X12508504Y21281363D01*
X12480647Y21333480D01*
X12452549Y21367717D01*
X12443158Y21379160D01*
X12431715Y21388551D01*
X12198554Y21621711D01*
X12189159Y21633159D01*
X12143478Y21670648D01*
X12091361Y21698505D01*
X12034811Y21715660D01*
X11990734Y21720001D01*
X11990724Y21720001D01*
X11976001Y21721451D01*
X11961278Y21720001D01*
X11364723Y21720001D01*
X11350000Y21721451D01*
X11335277Y21720001D01*
X11335268Y21720001D01*
X11291191Y21715660D01*
X11234641Y21698505D01*
X11230000Y21696024D01*
X11230000Y21734321D01*
X11212706Y21821260D01*
X11178785Y21903155D01*
X11129538Y21976858D01*
X11066858Y22039538D01*
X10993155Y22088785D01*
X10911260Y22122706D01*
X10890000Y22126935D01*
X10890000Y22148840D01*
X10972478Y22203950D01*
X11056050Y22287522D01*
X11121713Y22385793D01*
X11166942Y22494986D01*
X11190000Y22610905D01*
X11190000Y22729095D01*
X11166942Y22845014D01*
X11121713Y22954207D01*
X11056050Y23052478D01*
X10972478Y23136050D01*
X10874207Y23201713D01*
X10765014Y23246942D01*
X10649095Y23270000D01*
X10530905Y23270000D01*
X10414986Y23246942D01*
X10305793Y23201713D01*
X10207522Y23136050D01*
X10190000Y23118528D01*
X10190000Y24451739D01*
X11787290Y26049029D01*
X11797294Y25998740D01*
X11831215Y25916845D01*
X11880462Y25843142D01*
X11943142Y25780462D01*
X12016845Y25731215D01*
X12098740Y25697294D01*
X12185679Y25680000D01*
X12274321Y25680000D01*
X12361260Y25697294D01*
X12443155Y25731215D01*
X12516858Y25780462D01*
X12579538Y25843142D01*
X12628785Y25916845D01*
X12662706Y25998740D01*
X12680000Y26085679D01*
X12680000Y26174321D01*
X12662706Y26261260D01*
X12628785Y26343155D01*
X12579538Y26416858D01*
X12516858Y26479538D01*
X12443155Y26528785D01*
X12361260Y26562706D01*
X12310971Y26572710D01*
X13116808Y27378546D01*
X13110000Y27344321D01*
G37*
G04 #@! TD.AperFunction*
D15*
X8890002Y19383063D02*
X8871478Y19364539D01*
X8859080Y19354364D01*
X8818466Y19304877D01*
X8810610Y19290179D01*
X8794753Y19260513D01*
X8793862Y19260783D01*
X8740000Y19266088D01*
X8640000Y19266088D01*
X8590000Y19261163D01*
X8590000Y19560017D01*
X8890002Y19860018D01*
X8890002Y19383063D01*
G04 #@! TA.AperFunction,Conductor*
D18*
G36*
X8890002Y19383063D02*
G01*
X8871478Y19364539D01*
X8859080Y19354364D01*
X8818466Y19304877D01*
X8810610Y19290179D01*
X8794753Y19260513D01*
X8793862Y19260783D01*
X8740000Y19266088D01*
X8640000Y19266088D01*
X8590000Y19261163D01*
X8590000Y19560017D01*
X8890002Y19860018D01*
X8890002Y19383063D01*
G37*
G04 #@! TD.AperFunction*
D15*
X3463142Y25450462D02*
X3536845Y25401215D01*
X3618740Y25367294D01*
X3705679Y25350000D01*
X3794321Y25350000D01*
X3881260Y25367294D01*
X3963155Y25401215D01*
X3999076Y25425217D01*
X4000462Y25423142D01*
X4063142Y25360462D01*
X4136845Y25311215D01*
X4218740Y25277294D01*
X4305679Y25260000D01*
X4394321Y25260000D01*
X4481260Y25277294D01*
X4563155Y25311215D01*
X4636167Y25360000D01*
X4663833Y25360000D01*
X4736845Y25311215D01*
X4818740Y25277294D01*
X4905679Y25260000D01*
X4994321Y25260000D01*
X5081260Y25277294D01*
X5163155Y25311215D01*
X5236858Y25360462D01*
X5250000Y25373604D01*
X5263142Y25360462D01*
X5336845Y25311215D01*
X5418740Y25277294D01*
X5504864Y25260162D01*
X5597621Y25167406D01*
X5590000Y25129095D01*
X5590000Y25010905D01*
X5613058Y24894986D01*
X5658287Y24785793D01*
X5723950Y24687522D01*
X5807522Y24603950D01*
X5905793Y24538287D01*
X6014986Y24493058D01*
X6130905Y24470000D01*
X6249095Y24470000D01*
X6365014Y24493058D01*
X6474207Y24538287D01*
X6572478Y24603950D01*
X6656050Y24687522D01*
X6721713Y24785793D01*
X6766942Y24894986D01*
X6787483Y24998253D01*
X8589991Y23195745D01*
X8589991Y22874272D01*
X8352563Y23111700D01*
X8343168Y23123148D01*
X8297487Y23160637D01*
X8245370Y23188494D01*
X8188820Y23205649D01*
X8144743Y23209990D01*
X8144733Y23209990D01*
X8130010Y23211440D01*
X8115287Y23209990D01*
X3462830Y23209990D01*
X2999999Y23672820D01*
X2999999Y25375057D01*
X3018740Y25367294D01*
X3105679Y25350000D01*
X3194321Y25350000D01*
X3281260Y25367294D01*
X3363155Y25401215D01*
X3436858Y25450462D01*
X3450000Y25463604D01*
X3463142Y25450462D01*
G04 #@! TA.AperFunction,Conductor*
D18*
G36*
X3463142Y25450462D02*
G01*
X3536845Y25401215D01*
X3618740Y25367294D01*
X3705679Y25350000D01*
X3794321Y25350000D01*
X3881260Y25367294D01*
X3963155Y25401215D01*
X3999076Y25425217D01*
X4000462Y25423142D01*
X4063142Y25360462D01*
X4136845Y25311215D01*
X4218740Y25277294D01*
X4305679Y25260000D01*
X4394321Y25260000D01*
X4481260Y25277294D01*
X4563155Y25311215D01*
X4636167Y25360000D01*
X4663833Y25360000D01*
X4736845Y25311215D01*
X4818740Y25277294D01*
X4905679Y25260000D01*
X4994321Y25260000D01*
X5081260Y25277294D01*
X5163155Y25311215D01*
X5236858Y25360462D01*
X5250000Y25373604D01*
X5263142Y25360462D01*
X5336845Y25311215D01*
X5418740Y25277294D01*
X5504864Y25260162D01*
X5597621Y25167406D01*
X5590000Y25129095D01*
X5590000Y25010905D01*
X5613058Y24894986D01*
X5658287Y24785793D01*
X5723950Y24687522D01*
X5807522Y24603950D01*
X5905793Y24538287D01*
X6014986Y24493058D01*
X6130905Y24470000D01*
X6249095Y24470000D01*
X6365014Y24493058D01*
X6474207Y24538287D01*
X6572478Y24603950D01*
X6656050Y24687522D01*
X6721713Y24785793D01*
X6766942Y24894986D01*
X6787483Y24998253D01*
X8589991Y23195745D01*
X8589991Y22874272D01*
X8352563Y23111700D01*
X8343168Y23123148D01*
X8297487Y23160637D01*
X8245370Y23188494D01*
X8188820Y23205649D01*
X8144743Y23209990D01*
X8144733Y23209990D01*
X8130010Y23211440D01*
X8115287Y23209990D01*
X3462830Y23209990D01*
X2999999Y23672820D01*
X2999999Y25375057D01*
X3018740Y25367294D01*
X3105679Y25350000D01*
X3194321Y25350000D01*
X3281260Y25367294D01*
X3363155Y25401215D01*
X3436858Y25450462D01*
X3450000Y25463604D01*
X3463142Y25450462D01*
G37*
G04 #@! TD.AperFunction*
D15*
X15713830Y34943400D02*
X15601656Y34775520D01*
X15524390Y34588982D01*
X15485000Y34390954D01*
X15485000Y34189046D01*
X15524390Y33991018D01*
X15601656Y33804480D01*
X15713830Y33636600D01*
X15856600Y33493830D01*
X16024480Y33381656D01*
X16211018Y33304390D01*
X16409046Y33265000D01*
X16610954Y33265000D01*
X16808982Y33304390D01*
X16995520Y33381656D01*
X17163400Y33493830D01*
X17305001Y33635431D01*
X17305001Y32404569D01*
X17163400Y32546170D01*
X16995520Y32658344D01*
X16808982Y32735610D01*
X16610954Y32775000D01*
X16409046Y32775000D01*
X16211018Y32735610D01*
X16024480Y32658344D01*
X15856600Y32546170D01*
X15713830Y32403400D01*
X15601656Y32235520D01*
X15524390Y32048982D01*
X15485000Y31850954D01*
X15485000Y31649046D01*
X15524390Y31451018D01*
X15601656Y31264480D01*
X15713830Y31096600D01*
X15856600Y30953830D01*
X16024480Y30841656D01*
X16211018Y30764390D01*
X16409046Y30725000D01*
X16610954Y30725000D01*
X16808982Y30764390D01*
X16995520Y30841656D01*
X17163400Y30953830D01*
X17305001Y31095431D01*
X17305001Y29864569D01*
X17163400Y30006170D01*
X16995520Y30118344D01*
X16808982Y30195610D01*
X16610954Y30235000D01*
X16409046Y30235000D01*
X16211018Y30195610D01*
X16024480Y30118344D01*
X15856600Y30006170D01*
X15713830Y29863400D01*
X15601656Y29695520D01*
X15524390Y29508982D01*
X15485000Y29310954D01*
X15485000Y29109046D01*
X15524390Y28911018D01*
X15601656Y28724480D01*
X15713830Y28556600D01*
X15856600Y28413830D01*
X16024480Y28301656D01*
X16211018Y28224390D01*
X16409046Y28185000D01*
X16610954Y28185000D01*
X16808982Y28224390D01*
X16995520Y28301656D01*
X17163400Y28413830D01*
X17305001Y28555431D01*
X17305001Y27324569D01*
X17163400Y27466170D01*
X16995520Y27578344D01*
X16808982Y27655610D01*
X16610954Y27695000D01*
X16409046Y27695000D01*
X16211018Y27655610D01*
X16024480Y27578344D01*
X15856600Y27466170D01*
X15713830Y27323400D01*
X15601656Y27155520D01*
X15524390Y26968982D01*
X15485000Y26770954D01*
X15485000Y26569046D01*
X15524390Y26371018D01*
X15601656Y26184480D01*
X15713830Y26016600D01*
X15856600Y25873830D01*
X16024480Y25761656D01*
X16211018Y25684390D01*
X16409046Y25645000D01*
X16610954Y25645000D01*
X16808982Y25684390D01*
X16995520Y25761656D01*
X17163400Y25873830D01*
X17305001Y26015431D01*
X17305001Y24784569D01*
X17163400Y24926170D01*
X16995520Y25038344D01*
X16808982Y25115610D01*
X16610954Y25155000D01*
X16409046Y25155000D01*
X16211018Y25115610D01*
X16024480Y25038344D01*
X15856600Y24926170D01*
X15713830Y24783400D01*
X15601656Y24615520D01*
X15524812Y24430000D01*
X15444264Y24430000D01*
X14990010Y24884253D01*
X14990010Y27519538D01*
X14991461Y27534268D01*
X14989237Y27556845D01*
X14985669Y27593078D01*
X14971817Y27638740D01*
X14968514Y27649629D01*
X14940657Y27701746D01*
X14912560Y27735983D01*
X14912554Y27735989D01*
X14903168Y27747426D01*
X14891732Y27756811D01*
X14186817Y28461724D01*
X14177427Y28473166D01*
X14165983Y28482558D01*
X14131746Y28510656D01*
X14079629Y28538512D01*
X14023079Y28555667D01*
X13964269Y28561459D01*
X13949537Y28560008D01*
X13461201Y28560009D01*
X13571215Y28609405D01*
X13687297Y28691991D01*
X13785037Y28795637D01*
X13860679Y28916360D01*
X13911315Y29049520D01*
X13935000Y29190000D01*
X13935000Y29740000D01*
X13260000Y29740000D01*
X13260000Y29720000D01*
X13160000Y29720000D01*
X13160000Y29740000D01*
X12485000Y29740000D01*
X12485000Y29190000D01*
X12508685Y29049520D01*
X12559321Y28916360D01*
X12634963Y28795637D01*
X12732703Y28691991D01*
X12848785Y28609405D01*
X12978749Y28551052D01*
X13032211Y28537360D01*
X12982252Y28510657D01*
X12948016Y28482560D01*
X12948010Y28482554D01*
X12936573Y28473168D01*
X12927187Y28461731D01*
X9540001Y25074544D01*
X9540001Y26989047D01*
X9541572Y27005000D01*
X9540001Y27020953D01*
X9540001Y27020960D01*
X9535298Y27068710D01*
X9533509Y27074610D01*
X9516714Y27129973D01*
X9501010Y27159353D01*
X9486536Y27186433D01*
X9445922Y27235920D01*
X9433525Y27246094D01*
X8940000Y27739618D01*
X8940000Y27774321D01*
X8922706Y27861260D01*
X8888785Y27943155D01*
X8839538Y28016858D01*
X8776858Y28079538D01*
X8703155Y28128785D01*
X8621260Y28162706D01*
X8534321Y28180000D01*
X8445679Y28180000D01*
X8358740Y28162706D01*
X8276845Y28128785D01*
X8203142Y28079538D01*
X8140462Y28016858D01*
X8091215Y27943155D01*
X8057294Y27861260D01*
X8040000Y27774321D01*
X8040000Y27685679D01*
X8057294Y27598740D01*
X8091215Y27516845D01*
X8140462Y27443142D01*
X8203142Y27380462D01*
X8276845Y27331215D01*
X8358740Y27297294D01*
X8445679Y27280000D01*
X8480382Y27280000D01*
X8890001Y26870380D01*
X8890001Y24926395D01*
X8836858Y24979538D01*
X8763155Y25028785D01*
X8681260Y25062706D01*
X8594321Y25080000D01*
X8505679Y25080000D01*
X8418740Y25062706D01*
X8336845Y25028785D01*
X8263142Y24979538D01*
X8200462Y24916858D01*
X8151215Y24843155D01*
X8117294Y24761260D01*
X8100000Y24674321D01*
X8100000Y24585679D01*
X8112767Y24521496D01*
X5880000Y26754263D01*
X5880000Y26985270D01*
X5881451Y27000000D01*
X5879446Y27020358D01*
X5875659Y27058810D01*
X5858504Y27115360D01*
X5848006Y27135000D01*
X5830647Y27167478D01*
X5802550Y27201714D01*
X5802549Y27201715D01*
X5793158Y27213158D01*
X5781717Y27222547D01*
X4454302Y28549961D01*
X4520000Y28573122D01*
X4520000Y29740000D01*
X4620000Y29740000D01*
X4620000Y28573122D01*
X4732529Y28533452D01*
X4801251Y28551052D01*
X4931215Y28609405D01*
X5047297Y28691991D01*
X5145037Y28795637D01*
X5220679Y28916360D01*
X5271315Y29049520D01*
X5295000Y29190000D01*
X5295000Y29740000D01*
X4620000Y29740000D01*
X4520000Y29740000D01*
X3845000Y29740000D01*
X3845000Y29190000D01*
X3851233Y29153030D01*
X3310020Y29694243D01*
X3310020Y29995250D01*
X3311471Y30009980D01*
X3310020Y30024713D01*
X3305679Y30068790D01*
X3288524Y30125340D01*
X3260668Y30177456D01*
X3260667Y30177458D01*
X3232569Y30211695D01*
X3223178Y30223138D01*
X3211737Y30232527D01*
X3054264Y30390000D01*
X3845000Y30390000D01*
X3845000Y29840000D01*
X4520000Y29840000D01*
X4520000Y31006878D01*
X4620000Y31006878D01*
X4620000Y29840000D01*
X5295000Y29840000D01*
X5295000Y30374170D01*
X5450000Y30374170D01*
X5450000Y30265830D01*
X5471136Y30159571D01*
X5512597Y30059477D01*
X5572787Y29969396D01*
X5649396Y29892787D01*
X5739477Y29832597D01*
X5839571Y29791136D01*
X5945830Y29770000D01*
X6054170Y29770000D01*
X6160429Y29791136D01*
X6260523Y29832597D01*
X6350604Y29892787D01*
X6427213Y29969396D01*
X6487403Y30059477D01*
X6528864Y30159571D01*
X6539754Y30214321D01*
X6770000Y30214321D01*
X6770000Y30125679D01*
X6787294Y30038740D01*
X6821215Y29956845D01*
X6870462Y29883142D01*
X6933142Y29820462D01*
X7006845Y29771215D01*
X7088740Y29737294D01*
X7175679Y29720000D01*
X7264321Y29720000D01*
X7351260Y29737294D01*
X7433155Y29771215D01*
X7506858Y29820462D01*
X7569538Y29883142D01*
X7618785Y29956845D01*
X7652706Y30038740D01*
X7670000Y30125679D01*
X7670000Y30214321D01*
X10110000Y30214321D01*
X10110000Y30125679D01*
X10127294Y30038740D01*
X10161215Y29956845D01*
X10210462Y29883142D01*
X10273142Y29820462D01*
X10346845Y29771215D01*
X10428740Y29737294D01*
X10515679Y29720000D01*
X10604321Y29720000D01*
X10691260Y29737294D01*
X10773155Y29771215D01*
X10846858Y29820462D01*
X10909538Y29883142D01*
X10958785Y29956845D01*
X10992706Y30038740D01*
X11010000Y30125679D01*
X11010000Y30214321D01*
X10992706Y30301260D01*
X10962507Y30374170D01*
X11230000Y30374170D01*
X11230000Y30265830D01*
X11251136Y30159571D01*
X11292597Y30059477D01*
X11352787Y29969396D01*
X11429396Y29892787D01*
X11519477Y29832597D01*
X11619571Y29791136D01*
X11725830Y29770000D01*
X11834170Y29770000D01*
X11940429Y29791136D01*
X12040523Y29832597D01*
X12130604Y29892787D01*
X12207213Y29969396D01*
X12267403Y30059477D01*
X12308864Y30159571D01*
X12330000Y30265830D01*
X12330000Y30374170D01*
X12326852Y30390000D01*
X12485000Y30390000D01*
X12485000Y29840000D01*
X13160000Y29840000D01*
X13160000Y31006878D01*
X13260000Y31006878D01*
X13260000Y29840000D01*
X13935000Y29840000D01*
X13935000Y30390000D01*
X13911315Y30530480D01*
X13860679Y30663640D01*
X13785037Y30784363D01*
X13687297Y30888009D01*
X13571215Y30970595D01*
X13441251Y31028948D01*
X13372529Y31046548D01*
X13260000Y31006878D01*
X13160000Y31006878D01*
X13047471Y31046548D01*
X12978749Y31028948D01*
X12848785Y30970595D01*
X12732703Y30888009D01*
X12634963Y30784363D01*
X12559321Y30663640D01*
X12508685Y30530480D01*
X12485000Y30390000D01*
X12326852Y30390000D01*
X12308864Y30480429D01*
X12267403Y30580523D01*
X12207213Y30670604D01*
X12130604Y30747213D01*
X12040523Y30807403D01*
X11940429Y30848864D01*
X11834170Y30870000D01*
X11725830Y30870000D01*
X11619571Y30848864D01*
X11519477Y30807403D01*
X11429396Y30747213D01*
X11352787Y30670604D01*
X11292597Y30580523D01*
X11251136Y30480429D01*
X11230000Y30374170D01*
X10962507Y30374170D01*
X10958785Y30383155D01*
X10909538Y30456858D01*
X10846858Y30519538D01*
X10773155Y30568785D01*
X10691260Y30602706D01*
X10604321Y30620000D01*
X10515679Y30620000D01*
X10428740Y30602706D01*
X10346845Y30568785D01*
X10273142Y30519538D01*
X10210462Y30456858D01*
X10161215Y30383155D01*
X10127294Y30301260D01*
X10110000Y30214321D01*
X7670000Y30214321D01*
X7652706Y30301260D01*
X7618785Y30383155D01*
X7569538Y30456858D01*
X7506858Y30519538D01*
X7433155Y30568785D01*
X7351260Y30602706D01*
X7264321Y30620000D01*
X7175679Y30620000D01*
X7088740Y30602706D01*
X7006845Y30568785D01*
X6933142Y30519538D01*
X6870462Y30456858D01*
X6821215Y30383155D01*
X6787294Y30301260D01*
X6770000Y30214321D01*
X6539754Y30214321D01*
X6550000Y30265830D01*
X6550000Y30374170D01*
X6528864Y30480429D01*
X6487403Y30580523D01*
X6427213Y30670604D01*
X6350604Y30747213D01*
X6260523Y30807403D01*
X6160429Y30848864D01*
X6054170Y30870000D01*
X5945830Y30870000D01*
X5839571Y30848864D01*
X5739477Y30807403D01*
X5649396Y30747213D01*
X5572787Y30670604D01*
X5512597Y30580523D01*
X5471136Y30480429D01*
X5450000Y30374170D01*
X5295000Y30374170D01*
X5295000Y30390000D01*
X5271315Y30530480D01*
X5220679Y30663640D01*
X5145037Y30784363D01*
X5047297Y30888009D01*
X4931215Y30970595D01*
X4801251Y31028948D01*
X4732529Y31046548D01*
X4620000Y31006878D01*
X4520000Y31006878D01*
X4407471Y31046548D01*
X4338749Y31028948D01*
X4208785Y30970595D01*
X4092703Y30888009D01*
X3994963Y30784363D01*
X3919321Y30663640D01*
X3868685Y30530480D01*
X3845000Y30390000D01*
X3054264Y30390000D01*
X2178766Y31265498D01*
X2255610Y31451018D01*
X2295000Y31649046D01*
X2295000Y31850954D01*
X2255610Y32048982D01*
X2178344Y32235520D01*
X2066170Y32403400D01*
X1923400Y32546170D01*
X1755520Y32658344D01*
X1568982Y32735610D01*
X1370954Y32775000D01*
X1169046Y32775000D01*
X971018Y32735610D01*
X784480Y32658344D01*
X616600Y32546170D01*
X475000Y32404570D01*
X475000Y33635430D01*
X616600Y33493830D01*
X784480Y33381656D01*
X971018Y33304390D01*
X1169046Y33265000D01*
X1370954Y33265000D01*
X1568982Y33304390D01*
X1755520Y33381656D01*
X1923400Y33493830D01*
X2066170Y33636600D01*
X2178344Y33804480D01*
X2226193Y33920000D01*
X3845000Y33920000D01*
X3845000Y33620000D01*
X3868685Y33479520D01*
X3919321Y33346360D01*
X3994963Y33225637D01*
X4092703Y33121991D01*
X4208785Y33039405D01*
X4338749Y32981052D01*
X4407471Y32963452D01*
X4520000Y33003122D01*
X4520000Y33920000D01*
X4620000Y33920000D01*
X4620000Y33003122D01*
X4732529Y32963452D01*
X4801251Y32981052D01*
X4931215Y33039405D01*
X5047297Y33121991D01*
X5145037Y33225637D01*
X5220679Y33346360D01*
X5271315Y33479520D01*
X5295000Y33620000D01*
X5295000Y33920000D01*
X12485000Y33920000D01*
X12485000Y33620000D01*
X12508685Y33479520D01*
X12559321Y33346360D01*
X12634963Y33225637D01*
X12732703Y33121991D01*
X12848785Y33039405D01*
X12978749Y32981052D01*
X13047471Y32963452D01*
X13160000Y33003122D01*
X13160000Y33920000D01*
X13260000Y33920000D01*
X13260000Y33003122D01*
X13372529Y32963452D01*
X13441251Y32981052D01*
X13571215Y33039405D01*
X13687297Y33121991D01*
X13785037Y33225637D01*
X13860679Y33346360D01*
X13911315Y33479520D01*
X13935000Y33620000D01*
X13935000Y33920000D01*
X13260000Y33920000D01*
X13160000Y33920000D01*
X12485000Y33920000D01*
X5295000Y33920000D01*
X4620000Y33920000D01*
X4520000Y33920000D01*
X3845000Y33920000D01*
X2226193Y33920000D01*
X2255610Y33991018D01*
X2295000Y34189046D01*
X2295000Y34320000D01*
X3845000Y34320000D01*
X3845000Y34020000D01*
X4520000Y34020000D01*
X4520000Y34936878D01*
X4620000Y34936878D01*
X4620000Y34020000D01*
X5295000Y34020000D01*
X5295000Y34320000D01*
X12485000Y34320000D01*
X12485000Y34020000D01*
X13160000Y34020000D01*
X13160000Y34936878D01*
X13260000Y34936878D01*
X13260000Y34020000D01*
X13935000Y34020000D01*
X13935000Y34320000D01*
X13911315Y34460480D01*
X13860679Y34593640D01*
X13785037Y34714363D01*
X13687297Y34818009D01*
X13571215Y34900595D01*
X13441251Y34958948D01*
X13372529Y34976548D01*
X13260000Y34936878D01*
X13160000Y34936878D01*
X13047471Y34976548D01*
X12978749Y34958948D01*
X12848785Y34900595D01*
X12732703Y34818009D01*
X12634963Y34714363D01*
X12559321Y34593640D01*
X12508685Y34460480D01*
X12485000Y34320000D01*
X5295000Y34320000D01*
X5271315Y34460480D01*
X5220679Y34593640D01*
X5145037Y34714363D01*
X5047297Y34818009D01*
X4931215Y34900595D01*
X4801251Y34958948D01*
X4732529Y34976548D01*
X4620000Y34936878D01*
X4520000Y34936878D01*
X4407471Y34976548D01*
X4338749Y34958948D01*
X4208785Y34900595D01*
X4092703Y34818009D01*
X3994963Y34714363D01*
X3919321Y34593640D01*
X3868685Y34460480D01*
X3845000Y34320000D01*
X2295000Y34320000D01*
X2295000Y34390954D01*
X2255610Y34588982D01*
X2178344Y34775520D01*
X2066170Y34943400D01*
X1924570Y35085000D01*
X15855430Y35085000D01*
X15713830Y34943400D01*
G04 #@! TA.AperFunction,Conductor*
D18*
G36*
X15713830Y34943400D02*
G01*
X15601656Y34775520D01*
X15524390Y34588982D01*
X15485000Y34390954D01*
X15485000Y34189046D01*
X15524390Y33991018D01*
X15601656Y33804480D01*
X15713830Y33636600D01*
X15856600Y33493830D01*
X16024480Y33381656D01*
X16211018Y33304390D01*
X16409046Y33265000D01*
X16610954Y33265000D01*
X16808982Y33304390D01*
X16995520Y33381656D01*
X17163400Y33493830D01*
X17305001Y33635431D01*
X17305001Y32404569D01*
X17163400Y32546170D01*
X16995520Y32658344D01*
X16808982Y32735610D01*
X16610954Y32775000D01*
X16409046Y32775000D01*
X16211018Y32735610D01*
X16024480Y32658344D01*
X15856600Y32546170D01*
X15713830Y32403400D01*
X15601656Y32235520D01*
X15524390Y32048982D01*
X15485000Y31850954D01*
X15485000Y31649046D01*
X15524390Y31451018D01*
X15601656Y31264480D01*
X15713830Y31096600D01*
X15856600Y30953830D01*
X16024480Y30841656D01*
X16211018Y30764390D01*
X16409046Y30725000D01*
X16610954Y30725000D01*
X16808982Y30764390D01*
X16995520Y30841656D01*
X17163400Y30953830D01*
X17305001Y31095431D01*
X17305001Y29864569D01*
X17163400Y30006170D01*
X16995520Y30118344D01*
X16808982Y30195610D01*
X16610954Y30235000D01*
X16409046Y30235000D01*
X16211018Y30195610D01*
X16024480Y30118344D01*
X15856600Y30006170D01*
X15713830Y29863400D01*
X15601656Y29695520D01*
X15524390Y29508982D01*
X15485000Y29310954D01*
X15485000Y29109046D01*
X15524390Y28911018D01*
X15601656Y28724480D01*
X15713830Y28556600D01*
X15856600Y28413830D01*
X16024480Y28301656D01*
X16211018Y28224390D01*
X16409046Y28185000D01*
X16610954Y28185000D01*
X16808982Y28224390D01*
X16995520Y28301656D01*
X17163400Y28413830D01*
X17305001Y28555431D01*
X17305001Y27324569D01*
X17163400Y27466170D01*
X16995520Y27578344D01*
X16808982Y27655610D01*
X16610954Y27695000D01*
X16409046Y27695000D01*
X16211018Y27655610D01*
X16024480Y27578344D01*
X15856600Y27466170D01*
X15713830Y27323400D01*
X15601656Y27155520D01*
X15524390Y26968982D01*
X15485000Y26770954D01*
X15485000Y26569046D01*
X15524390Y26371018D01*
X15601656Y26184480D01*
X15713830Y26016600D01*
X15856600Y25873830D01*
X16024480Y25761656D01*
X16211018Y25684390D01*
X16409046Y25645000D01*
X16610954Y25645000D01*
X16808982Y25684390D01*
X16995520Y25761656D01*
X17163400Y25873830D01*
X17305001Y26015431D01*
X17305001Y24784569D01*
X17163400Y24926170D01*
X16995520Y25038344D01*
X16808982Y25115610D01*
X16610954Y25155000D01*
X16409046Y25155000D01*
X16211018Y25115610D01*
X16024480Y25038344D01*
X15856600Y24926170D01*
X15713830Y24783400D01*
X15601656Y24615520D01*
X15524812Y24430000D01*
X15444264Y24430000D01*
X14990010Y24884253D01*
X14990010Y27519538D01*
X14991461Y27534268D01*
X14989237Y27556845D01*
X14985669Y27593078D01*
X14971817Y27638740D01*
X14968514Y27649629D01*
X14940657Y27701746D01*
X14912560Y27735983D01*
X14912554Y27735989D01*
X14903168Y27747426D01*
X14891732Y27756811D01*
X14186817Y28461724D01*
X14177427Y28473166D01*
X14165983Y28482558D01*
X14131746Y28510656D01*
X14079629Y28538512D01*
X14023079Y28555667D01*
X13964269Y28561459D01*
X13949537Y28560008D01*
X13461201Y28560009D01*
X13571215Y28609405D01*
X13687297Y28691991D01*
X13785037Y28795637D01*
X13860679Y28916360D01*
X13911315Y29049520D01*
X13935000Y29190000D01*
X13935000Y29740000D01*
X13260000Y29740000D01*
X13260000Y29720000D01*
X13160000Y29720000D01*
X13160000Y29740000D01*
X12485000Y29740000D01*
X12485000Y29190000D01*
X12508685Y29049520D01*
X12559321Y28916360D01*
X12634963Y28795637D01*
X12732703Y28691991D01*
X12848785Y28609405D01*
X12978749Y28551052D01*
X13032211Y28537360D01*
X12982252Y28510657D01*
X12948016Y28482560D01*
X12948010Y28482554D01*
X12936573Y28473168D01*
X12927187Y28461731D01*
X9540001Y25074544D01*
X9540001Y26989047D01*
X9541572Y27005000D01*
X9540001Y27020953D01*
X9540001Y27020960D01*
X9535298Y27068710D01*
X9533509Y27074610D01*
X9516714Y27129973D01*
X9501010Y27159353D01*
X9486536Y27186433D01*
X9445922Y27235920D01*
X9433525Y27246094D01*
X8940000Y27739618D01*
X8940000Y27774321D01*
X8922706Y27861260D01*
X8888785Y27943155D01*
X8839538Y28016858D01*
X8776858Y28079538D01*
X8703155Y28128785D01*
X8621260Y28162706D01*
X8534321Y28180000D01*
X8445679Y28180000D01*
X8358740Y28162706D01*
X8276845Y28128785D01*
X8203142Y28079538D01*
X8140462Y28016858D01*
X8091215Y27943155D01*
X8057294Y27861260D01*
X8040000Y27774321D01*
X8040000Y27685679D01*
X8057294Y27598740D01*
X8091215Y27516845D01*
X8140462Y27443142D01*
X8203142Y27380462D01*
X8276845Y27331215D01*
X8358740Y27297294D01*
X8445679Y27280000D01*
X8480382Y27280000D01*
X8890001Y26870380D01*
X8890001Y24926395D01*
X8836858Y24979538D01*
X8763155Y25028785D01*
X8681260Y25062706D01*
X8594321Y25080000D01*
X8505679Y25080000D01*
X8418740Y25062706D01*
X8336845Y25028785D01*
X8263142Y24979538D01*
X8200462Y24916858D01*
X8151215Y24843155D01*
X8117294Y24761260D01*
X8100000Y24674321D01*
X8100000Y24585679D01*
X8112767Y24521496D01*
X5880000Y26754263D01*
X5880000Y26985270D01*
X5881451Y27000000D01*
X5879446Y27020358D01*
X5875659Y27058810D01*
X5858504Y27115360D01*
X5848006Y27135000D01*
X5830647Y27167478D01*
X5802550Y27201714D01*
X5802549Y27201715D01*
X5793158Y27213158D01*
X5781717Y27222547D01*
X4454302Y28549961D01*
X4520000Y28573122D01*
X4520000Y29740000D01*
X4620000Y29740000D01*
X4620000Y28573122D01*
X4732529Y28533452D01*
X4801251Y28551052D01*
X4931215Y28609405D01*
X5047297Y28691991D01*
X5145037Y28795637D01*
X5220679Y28916360D01*
X5271315Y29049520D01*
X5295000Y29190000D01*
X5295000Y29740000D01*
X4620000Y29740000D01*
X4520000Y29740000D01*
X3845000Y29740000D01*
X3845000Y29190000D01*
X3851233Y29153030D01*
X3310020Y29694243D01*
X3310020Y29995250D01*
X3311471Y30009980D01*
X3310020Y30024713D01*
X3305679Y30068790D01*
X3288524Y30125340D01*
X3260668Y30177456D01*
X3260667Y30177458D01*
X3232569Y30211695D01*
X3223178Y30223138D01*
X3211737Y30232527D01*
X3054264Y30390000D01*
X3845000Y30390000D01*
X3845000Y29840000D01*
X4520000Y29840000D01*
X4520000Y31006878D01*
X4620000Y31006878D01*
X4620000Y29840000D01*
X5295000Y29840000D01*
X5295000Y30374170D01*
X5450000Y30374170D01*
X5450000Y30265830D01*
X5471136Y30159571D01*
X5512597Y30059477D01*
X5572787Y29969396D01*
X5649396Y29892787D01*
X5739477Y29832597D01*
X5839571Y29791136D01*
X5945830Y29770000D01*
X6054170Y29770000D01*
X6160429Y29791136D01*
X6260523Y29832597D01*
X6350604Y29892787D01*
X6427213Y29969396D01*
X6487403Y30059477D01*
X6528864Y30159571D01*
X6539754Y30214321D01*
X6770000Y30214321D01*
X6770000Y30125679D01*
X6787294Y30038740D01*
X6821215Y29956845D01*
X6870462Y29883142D01*
X6933142Y29820462D01*
X7006845Y29771215D01*
X7088740Y29737294D01*
X7175679Y29720000D01*
X7264321Y29720000D01*
X7351260Y29737294D01*
X7433155Y29771215D01*
X7506858Y29820462D01*
X7569538Y29883142D01*
X7618785Y29956845D01*
X7652706Y30038740D01*
X7670000Y30125679D01*
X7670000Y30214321D01*
X10110000Y30214321D01*
X10110000Y30125679D01*
X10127294Y30038740D01*
X10161215Y29956845D01*
X10210462Y29883142D01*
X10273142Y29820462D01*
X10346845Y29771215D01*
X10428740Y29737294D01*
X10515679Y29720000D01*
X10604321Y29720000D01*
X10691260Y29737294D01*
X10773155Y29771215D01*
X10846858Y29820462D01*
X10909538Y29883142D01*
X10958785Y29956845D01*
X10992706Y30038740D01*
X11010000Y30125679D01*
X11010000Y30214321D01*
X10992706Y30301260D01*
X10962507Y30374170D01*
X11230000Y30374170D01*
X11230000Y30265830D01*
X11251136Y30159571D01*
X11292597Y30059477D01*
X11352787Y29969396D01*
X11429396Y29892787D01*
X11519477Y29832597D01*
X11619571Y29791136D01*
X11725830Y29770000D01*
X11834170Y29770000D01*
X11940429Y29791136D01*
X12040523Y29832597D01*
X12130604Y29892787D01*
X12207213Y29969396D01*
X12267403Y30059477D01*
X12308864Y30159571D01*
X12330000Y30265830D01*
X12330000Y30374170D01*
X12326852Y30390000D01*
X12485000Y30390000D01*
X12485000Y29840000D01*
X13160000Y29840000D01*
X13160000Y31006878D01*
X13260000Y31006878D01*
X13260000Y29840000D01*
X13935000Y29840000D01*
X13935000Y30390000D01*
X13911315Y30530480D01*
X13860679Y30663640D01*
X13785037Y30784363D01*
X13687297Y30888009D01*
X13571215Y30970595D01*
X13441251Y31028948D01*
X13372529Y31046548D01*
X13260000Y31006878D01*
X13160000Y31006878D01*
X13047471Y31046548D01*
X12978749Y31028948D01*
X12848785Y30970595D01*
X12732703Y30888009D01*
X12634963Y30784363D01*
X12559321Y30663640D01*
X12508685Y30530480D01*
X12485000Y30390000D01*
X12326852Y30390000D01*
X12308864Y30480429D01*
X12267403Y30580523D01*
X12207213Y30670604D01*
X12130604Y30747213D01*
X12040523Y30807403D01*
X11940429Y30848864D01*
X11834170Y30870000D01*
X11725830Y30870000D01*
X11619571Y30848864D01*
X11519477Y30807403D01*
X11429396Y30747213D01*
X11352787Y30670604D01*
X11292597Y30580523D01*
X11251136Y30480429D01*
X11230000Y30374170D01*
X10962507Y30374170D01*
X10958785Y30383155D01*
X10909538Y30456858D01*
X10846858Y30519538D01*
X10773155Y30568785D01*
X10691260Y30602706D01*
X10604321Y30620000D01*
X10515679Y30620000D01*
X10428740Y30602706D01*
X10346845Y30568785D01*
X10273142Y30519538D01*
X10210462Y30456858D01*
X10161215Y30383155D01*
X10127294Y30301260D01*
X10110000Y30214321D01*
X7670000Y30214321D01*
X7652706Y30301260D01*
X7618785Y30383155D01*
X7569538Y30456858D01*
X7506858Y30519538D01*
X7433155Y30568785D01*
X7351260Y30602706D01*
X7264321Y30620000D01*
X7175679Y30620000D01*
X7088740Y30602706D01*
X7006845Y30568785D01*
X6933142Y30519538D01*
X6870462Y30456858D01*
X6821215Y30383155D01*
X6787294Y30301260D01*
X6770000Y30214321D01*
X6539754Y30214321D01*
X6550000Y30265830D01*
X6550000Y30374170D01*
X6528864Y30480429D01*
X6487403Y30580523D01*
X6427213Y30670604D01*
X6350604Y30747213D01*
X6260523Y30807403D01*
X6160429Y30848864D01*
X6054170Y30870000D01*
X5945830Y30870000D01*
X5839571Y30848864D01*
X5739477Y30807403D01*
X5649396Y30747213D01*
X5572787Y30670604D01*
X5512597Y30580523D01*
X5471136Y30480429D01*
X5450000Y30374170D01*
X5295000Y30374170D01*
X5295000Y30390000D01*
X5271315Y30530480D01*
X5220679Y30663640D01*
X5145037Y30784363D01*
X5047297Y30888009D01*
X4931215Y30970595D01*
X4801251Y31028948D01*
X4732529Y31046548D01*
X4620000Y31006878D01*
X4520000Y31006878D01*
X4407471Y31046548D01*
X4338749Y31028948D01*
X4208785Y30970595D01*
X4092703Y30888009D01*
X3994963Y30784363D01*
X3919321Y30663640D01*
X3868685Y30530480D01*
X3845000Y30390000D01*
X3054264Y30390000D01*
X2178766Y31265498D01*
X2255610Y31451018D01*
X2295000Y31649046D01*
X2295000Y31850954D01*
X2255610Y32048982D01*
X2178344Y32235520D01*
X2066170Y32403400D01*
X1923400Y32546170D01*
X1755520Y32658344D01*
X1568982Y32735610D01*
X1370954Y32775000D01*
X1169046Y32775000D01*
X971018Y32735610D01*
X784480Y32658344D01*
X616600Y32546170D01*
X475000Y32404570D01*
X475000Y33635430D01*
X616600Y33493830D01*
X784480Y33381656D01*
X971018Y33304390D01*
X1169046Y33265000D01*
X1370954Y33265000D01*
X1568982Y33304390D01*
X1755520Y33381656D01*
X1923400Y33493830D01*
X2066170Y33636600D01*
X2178344Y33804480D01*
X2226193Y33920000D01*
X3845000Y33920000D01*
X3845000Y33620000D01*
X3868685Y33479520D01*
X3919321Y33346360D01*
X3994963Y33225637D01*
X4092703Y33121991D01*
X4208785Y33039405D01*
X4338749Y32981052D01*
X4407471Y32963452D01*
X4520000Y33003122D01*
X4520000Y33920000D01*
X4620000Y33920000D01*
X4620000Y33003122D01*
X4732529Y32963452D01*
X4801251Y32981052D01*
X4931215Y33039405D01*
X5047297Y33121991D01*
X5145037Y33225637D01*
X5220679Y33346360D01*
X5271315Y33479520D01*
X5295000Y33620000D01*
X5295000Y33920000D01*
X12485000Y33920000D01*
X12485000Y33620000D01*
X12508685Y33479520D01*
X12559321Y33346360D01*
X12634963Y33225637D01*
X12732703Y33121991D01*
X12848785Y33039405D01*
X12978749Y32981052D01*
X13047471Y32963452D01*
X13160000Y33003122D01*
X13160000Y33920000D01*
X13260000Y33920000D01*
X13260000Y33003122D01*
X13372529Y32963452D01*
X13441251Y32981052D01*
X13571215Y33039405D01*
X13687297Y33121991D01*
X13785037Y33225637D01*
X13860679Y33346360D01*
X13911315Y33479520D01*
X13935000Y33620000D01*
X13935000Y33920000D01*
X13260000Y33920000D01*
X13160000Y33920000D01*
X12485000Y33920000D01*
X5295000Y33920000D01*
X4620000Y33920000D01*
X4520000Y33920000D01*
X3845000Y33920000D01*
X2226193Y33920000D01*
X2255610Y33991018D01*
X2295000Y34189046D01*
X2295000Y34320000D01*
X3845000Y34320000D01*
X3845000Y34020000D01*
X4520000Y34020000D01*
X4520000Y34936878D01*
X4620000Y34936878D01*
X4620000Y34020000D01*
X5295000Y34020000D01*
X5295000Y34320000D01*
X12485000Y34320000D01*
X12485000Y34020000D01*
X13160000Y34020000D01*
X13160000Y34936878D01*
X13260000Y34936878D01*
X13260000Y34020000D01*
X13935000Y34020000D01*
X13935000Y34320000D01*
X13911315Y34460480D01*
X13860679Y34593640D01*
X13785037Y34714363D01*
X13687297Y34818009D01*
X13571215Y34900595D01*
X13441251Y34958948D01*
X13372529Y34976548D01*
X13260000Y34936878D01*
X13160000Y34936878D01*
X13047471Y34976548D01*
X12978749Y34958948D01*
X12848785Y34900595D01*
X12732703Y34818009D01*
X12634963Y34714363D01*
X12559321Y34593640D01*
X12508685Y34460480D01*
X12485000Y34320000D01*
X5295000Y34320000D01*
X5271315Y34460480D01*
X5220679Y34593640D01*
X5145037Y34714363D01*
X5047297Y34818009D01*
X4931215Y34900595D01*
X4801251Y34958948D01*
X4732529Y34976548D01*
X4620000Y34936878D01*
X4520000Y34936878D01*
X4407471Y34976548D01*
X4338749Y34958948D01*
X4208785Y34900595D01*
X4092703Y34818009D01*
X3994963Y34714363D01*
X3919321Y34593640D01*
X3868685Y34460480D01*
X3845000Y34320000D01*
X2295000Y34320000D01*
X2295000Y34390954D01*
X2255610Y34588982D01*
X2178344Y34775520D01*
X2066170Y34943400D01*
X1924570Y35085000D01*
X15855430Y35085000D01*
X15713830Y34943400D01*
G37*
G04 #@! TD.AperFunction*
M02*
