G04 #@! TF.GenerationSoftware,KiCad,Pcbnew,5.1.9-1.fc33*
G04 #@! TF.CreationDate,2021-01-17T22:01:28+01:00*
G04 #@! TF.ProjectId,reDIP-SID,72654449-502d-4534-9944-2e6b69636164,0.1*
G04 #@! TF.SameCoordinates,PX5e28010PY8011a50*
G04 #@! TF.FileFunction,Soldermask,Bot*
G04 #@! TF.FilePolarity,Negative*
%FSLAX46Y46*%
G04 Gerber Fmt 4.6, Leading zero omitted, Abs format (unit mm)*
G04 Created by KiCad (PCBNEW 5.1.9-1.fc33) date 2021-01-17 22:01:28*
%MOMM*%
%LPD*%
G01*
G04 APERTURE LIST*
%ADD10C,0.500000*%
%ADD11O,1.100000X2.200000*%
%ADD12C,0.750000*%
%ADD13O,1.100000X1.700000*%
%ADD14C,1.700000*%
%ADD15C,0.850000*%
G04 APERTURE END LIST*
D10*
X12270000Y23250000D03*
G36*
G01*
X4160000Y26570000D02*
X4580000Y26570000D01*
G75*
G02*
X4740000Y26410000I0J-160000D01*
G01*
X4740000Y26090000D01*
G75*
G02*
X4580000Y25930000I-160000J0D01*
G01*
X4160000Y25930000D01*
G75*
G02*
X4000000Y26090000I0J160000D01*
G01*
X4000000Y26410000D01*
G75*
G02*
X4160000Y26570000I160000J0D01*
G01*
G37*
G36*
G01*
X4160000Y27590000D02*
X4580000Y27590000D01*
G75*
G02*
X4740000Y27430000I0J-160000D01*
G01*
X4740000Y27110000D01*
G75*
G02*
X4580000Y26950000I-160000J0D01*
G01*
X4160000Y26950000D01*
G75*
G02*
X4000000Y27110000I0J160000D01*
G01*
X4000000Y27430000D01*
G75*
G02*
X4160000Y27590000I160000J0D01*
G01*
G37*
D11*
X4570000Y29790000D03*
X13210000Y29790000D03*
D12*
X11780000Y30320000D03*
D13*
X13210000Y33970000D03*
D12*
X6000000Y30320000D03*
D13*
X4570000Y33970000D03*
D10*
X5950000Y24040000D03*
X8890000Y7360000D03*
X4450000Y23520000D03*
X3850000Y23520000D03*
X3550000Y24040000D03*
X4150000Y24040000D03*
X4750000Y24040000D03*
X5050000Y23520000D03*
X5350000Y24040000D03*
X5650000Y23520000D03*
G36*
G01*
X3630000Y13095000D02*
X3630000Y11785000D01*
G75*
G02*
X3560000Y11715000I-70000J0D01*
G01*
X3420000Y11715000D01*
G75*
G02*
X3350000Y11785000I0J70000D01*
G01*
X3350000Y13095000D01*
G75*
G02*
X3420000Y13165000I70000J0D01*
G01*
X3560000Y13165000D01*
G75*
G02*
X3630000Y13095000I0J-70000D01*
G01*
G37*
G36*
G01*
X3630000Y18995000D02*
X3630000Y17685000D01*
G75*
G02*
X3560000Y17615000I-70000J0D01*
G01*
X3420000Y17615000D01*
G75*
G02*
X3350000Y17685000I0J70000D01*
G01*
X3350000Y18995000D01*
G75*
G02*
X3420000Y19065000I70000J0D01*
G01*
X3560000Y19065000D01*
G75*
G02*
X3630000Y18995000I0J-70000D01*
G01*
G37*
G36*
G01*
X4030000Y13095000D02*
X4030000Y11785000D01*
G75*
G02*
X3960000Y11715000I-70000J0D01*
G01*
X3820000Y11715000D01*
G75*
G02*
X3750000Y11785000I0J70000D01*
G01*
X3750000Y13095000D01*
G75*
G02*
X3820000Y13165000I70000J0D01*
G01*
X3960000Y13165000D01*
G75*
G02*
X4030000Y13095000I0J-70000D01*
G01*
G37*
G36*
G01*
X4030000Y18995000D02*
X4030000Y17685000D01*
G75*
G02*
X3960000Y17615000I-70000J0D01*
G01*
X3820000Y17615000D01*
G75*
G02*
X3750000Y17685000I0J70000D01*
G01*
X3750000Y18995000D01*
G75*
G02*
X3820000Y19065000I70000J0D01*
G01*
X3960000Y19065000D01*
G75*
G02*
X4030000Y18995000I0J-70000D01*
G01*
G37*
G36*
G01*
X4430000Y13095000D02*
X4430000Y11785000D01*
G75*
G02*
X4360000Y11715000I-70000J0D01*
G01*
X4220000Y11715000D01*
G75*
G02*
X4150000Y11785000I0J70000D01*
G01*
X4150000Y13095000D01*
G75*
G02*
X4220000Y13165000I70000J0D01*
G01*
X4360000Y13165000D01*
G75*
G02*
X4430000Y13095000I0J-70000D01*
G01*
G37*
G36*
G01*
X4430000Y18995000D02*
X4430000Y17685000D01*
G75*
G02*
X4360000Y17615000I-70000J0D01*
G01*
X4220000Y17615000D01*
G75*
G02*
X4150000Y17685000I0J70000D01*
G01*
X4150000Y18995000D01*
G75*
G02*
X4220000Y19065000I70000J0D01*
G01*
X4360000Y19065000D01*
G75*
G02*
X4430000Y18995000I0J-70000D01*
G01*
G37*
G36*
G01*
X4830000Y13095000D02*
X4830000Y11785000D01*
G75*
G02*
X4760000Y11715000I-70000J0D01*
G01*
X4620000Y11715000D01*
G75*
G02*
X4550000Y11785000I0J70000D01*
G01*
X4550000Y13095000D01*
G75*
G02*
X4620000Y13165000I70000J0D01*
G01*
X4760000Y13165000D01*
G75*
G02*
X4830000Y13095000I0J-70000D01*
G01*
G37*
G36*
G01*
X4830000Y18995000D02*
X4830000Y17685000D01*
G75*
G02*
X4760000Y17615000I-70000J0D01*
G01*
X4620000Y17615000D01*
G75*
G02*
X4550000Y17685000I0J70000D01*
G01*
X4550000Y18995000D01*
G75*
G02*
X4620000Y19065000I70000J0D01*
G01*
X4760000Y19065000D01*
G75*
G02*
X4830000Y18995000I0J-70000D01*
G01*
G37*
G36*
G01*
X5230000Y13095000D02*
X5230000Y11785000D01*
G75*
G02*
X5160000Y11715000I-70000J0D01*
G01*
X5020000Y11715000D01*
G75*
G02*
X4950000Y11785000I0J70000D01*
G01*
X4950000Y13095000D01*
G75*
G02*
X5020000Y13165000I70000J0D01*
G01*
X5160000Y13165000D01*
G75*
G02*
X5230000Y13095000I0J-70000D01*
G01*
G37*
G36*
G01*
X5230000Y18995000D02*
X5230000Y17685000D01*
G75*
G02*
X5160000Y17615000I-70000J0D01*
G01*
X5020000Y17615000D01*
G75*
G02*
X4950000Y17685000I0J70000D01*
G01*
X4950000Y18995000D01*
G75*
G02*
X5020000Y19065000I70000J0D01*
G01*
X5160000Y19065000D01*
G75*
G02*
X5230000Y18995000I0J-70000D01*
G01*
G37*
G36*
G01*
X5630000Y13095000D02*
X5630000Y11785000D01*
G75*
G02*
X5560000Y11715000I-70000J0D01*
G01*
X5420000Y11715000D01*
G75*
G02*
X5350000Y11785000I0J70000D01*
G01*
X5350000Y13095000D01*
G75*
G02*
X5420000Y13165000I70000J0D01*
G01*
X5560000Y13165000D01*
G75*
G02*
X5630000Y13095000I0J-70000D01*
G01*
G37*
G36*
G01*
X5630000Y18995000D02*
X5630000Y17685000D01*
G75*
G02*
X5560000Y17615000I-70000J0D01*
G01*
X5420000Y17615000D01*
G75*
G02*
X5350000Y17685000I0J70000D01*
G01*
X5350000Y18995000D01*
G75*
G02*
X5420000Y19065000I70000J0D01*
G01*
X5560000Y19065000D01*
G75*
G02*
X5630000Y18995000I0J-70000D01*
G01*
G37*
G36*
G01*
X6030000Y13095000D02*
X6030000Y11785000D01*
G75*
G02*
X5960000Y11715000I-70000J0D01*
G01*
X5820000Y11715000D01*
G75*
G02*
X5750000Y11785000I0J70000D01*
G01*
X5750000Y13095000D01*
G75*
G02*
X5820000Y13165000I70000J0D01*
G01*
X5960000Y13165000D01*
G75*
G02*
X6030000Y13095000I0J-70000D01*
G01*
G37*
G36*
G01*
X6030000Y18995000D02*
X6030000Y17685000D01*
G75*
G02*
X5960000Y17615000I-70000J0D01*
G01*
X5820000Y17615000D01*
G75*
G02*
X5750000Y17685000I0J70000D01*
G01*
X5750000Y18995000D01*
G75*
G02*
X5820000Y19065000I70000J0D01*
G01*
X5960000Y19065000D01*
G75*
G02*
X6030000Y18995000I0J-70000D01*
G01*
G37*
G36*
G01*
X6430000Y13095000D02*
X6430000Y11785000D01*
G75*
G02*
X6360000Y11715000I-70000J0D01*
G01*
X6220000Y11715000D01*
G75*
G02*
X6150000Y11785000I0J70000D01*
G01*
X6150000Y13095000D01*
G75*
G02*
X6220000Y13165000I70000J0D01*
G01*
X6360000Y13165000D01*
G75*
G02*
X6430000Y13095000I0J-70000D01*
G01*
G37*
G36*
G01*
X6430000Y18995000D02*
X6430000Y17685000D01*
G75*
G02*
X6360000Y17615000I-70000J0D01*
G01*
X6220000Y17615000D01*
G75*
G02*
X6150000Y17685000I0J70000D01*
G01*
X6150000Y18995000D01*
G75*
G02*
X6220000Y19065000I70000J0D01*
G01*
X6360000Y19065000D01*
G75*
G02*
X6430000Y18995000I0J-70000D01*
G01*
G37*
G36*
G01*
X6830000Y13095000D02*
X6830000Y11785000D01*
G75*
G02*
X6760000Y11715000I-70000J0D01*
G01*
X6620000Y11715000D01*
G75*
G02*
X6550000Y11785000I0J70000D01*
G01*
X6550000Y13095000D01*
G75*
G02*
X6620000Y13165000I70000J0D01*
G01*
X6760000Y13165000D01*
G75*
G02*
X6830000Y13095000I0J-70000D01*
G01*
G37*
G36*
G01*
X6830000Y18995000D02*
X6830000Y17685000D01*
G75*
G02*
X6760000Y17615000I-70000J0D01*
G01*
X6620000Y17615000D01*
G75*
G02*
X6550000Y17685000I0J70000D01*
G01*
X6550000Y18995000D01*
G75*
G02*
X6620000Y19065000I70000J0D01*
G01*
X6760000Y19065000D01*
G75*
G02*
X6830000Y18995000I0J-70000D01*
G01*
G37*
G36*
G01*
X7230000Y13095000D02*
X7230000Y11785000D01*
G75*
G02*
X7160000Y11715000I-70000J0D01*
G01*
X7020000Y11715000D01*
G75*
G02*
X6950000Y11785000I0J70000D01*
G01*
X6950000Y13095000D01*
G75*
G02*
X7020000Y13165000I70000J0D01*
G01*
X7160000Y13165000D01*
G75*
G02*
X7230000Y13095000I0J-70000D01*
G01*
G37*
G36*
G01*
X7230000Y18995000D02*
X7230000Y17685000D01*
G75*
G02*
X7160000Y17615000I-70000J0D01*
G01*
X7020000Y17615000D01*
G75*
G02*
X6950000Y17685000I0J70000D01*
G01*
X6950000Y18995000D01*
G75*
G02*
X7020000Y19065000I70000J0D01*
G01*
X7160000Y19065000D01*
G75*
G02*
X7230000Y18995000I0J-70000D01*
G01*
G37*
G36*
G01*
X7630000Y13095000D02*
X7630000Y11785000D01*
G75*
G02*
X7560000Y11715000I-70000J0D01*
G01*
X7420000Y11715000D01*
G75*
G02*
X7350000Y11785000I0J70000D01*
G01*
X7350000Y13095000D01*
G75*
G02*
X7420000Y13165000I70000J0D01*
G01*
X7560000Y13165000D01*
G75*
G02*
X7630000Y13095000I0J-70000D01*
G01*
G37*
G36*
G01*
X7630000Y18995000D02*
X7630000Y17685000D01*
G75*
G02*
X7560000Y17615000I-70000J0D01*
G01*
X7420000Y17615000D01*
G75*
G02*
X7350000Y17685000I0J70000D01*
G01*
X7350000Y18995000D01*
G75*
G02*
X7420000Y19065000I70000J0D01*
G01*
X7560000Y19065000D01*
G75*
G02*
X7630000Y18995000I0J-70000D01*
G01*
G37*
G36*
G01*
X8030000Y13095000D02*
X8030000Y11785000D01*
G75*
G02*
X7960000Y11715000I-70000J0D01*
G01*
X7820000Y11715000D01*
G75*
G02*
X7750000Y11785000I0J70000D01*
G01*
X7750000Y13095000D01*
G75*
G02*
X7820000Y13165000I70000J0D01*
G01*
X7960000Y13165000D01*
G75*
G02*
X8030000Y13095000I0J-70000D01*
G01*
G37*
G36*
G01*
X8030000Y18995000D02*
X8030000Y17685000D01*
G75*
G02*
X7960000Y17615000I-70000J0D01*
G01*
X7820000Y17615000D01*
G75*
G02*
X7750000Y17685000I0J70000D01*
G01*
X7750000Y18995000D01*
G75*
G02*
X7820000Y19065000I70000J0D01*
G01*
X7960000Y19065000D01*
G75*
G02*
X8030000Y18995000I0J-70000D01*
G01*
G37*
G36*
G01*
X8430000Y13095000D02*
X8430000Y11785000D01*
G75*
G02*
X8360000Y11715000I-70000J0D01*
G01*
X8220000Y11715000D01*
G75*
G02*
X8150000Y11785000I0J70000D01*
G01*
X8150000Y13095000D01*
G75*
G02*
X8220000Y13165000I70000J0D01*
G01*
X8360000Y13165000D01*
G75*
G02*
X8430000Y13095000I0J-70000D01*
G01*
G37*
G36*
G01*
X8430000Y18995000D02*
X8430000Y17685000D01*
G75*
G02*
X8360000Y17615000I-70000J0D01*
G01*
X8220000Y17615000D01*
G75*
G02*
X8150000Y17685000I0J70000D01*
G01*
X8150000Y18995000D01*
G75*
G02*
X8220000Y19065000I70000J0D01*
G01*
X8360000Y19065000D01*
G75*
G02*
X8430000Y18995000I0J-70000D01*
G01*
G37*
G36*
G01*
X8830000Y13095000D02*
X8830000Y11785000D01*
G75*
G02*
X8760000Y11715000I-70000J0D01*
G01*
X8620000Y11715000D01*
G75*
G02*
X8550000Y11785000I0J70000D01*
G01*
X8550000Y13095000D01*
G75*
G02*
X8620000Y13165000I70000J0D01*
G01*
X8760000Y13165000D01*
G75*
G02*
X8830000Y13095000I0J-70000D01*
G01*
G37*
G36*
G01*
X8830000Y18995000D02*
X8830000Y17685000D01*
G75*
G02*
X8760000Y17615000I-70000J0D01*
G01*
X8620000Y17615000D01*
G75*
G02*
X8550000Y17685000I0J70000D01*
G01*
X8550000Y18995000D01*
G75*
G02*
X8620000Y19065000I70000J0D01*
G01*
X8760000Y19065000D01*
G75*
G02*
X8830000Y18995000I0J-70000D01*
G01*
G37*
G36*
G01*
X9230000Y13095000D02*
X9230000Y11785000D01*
G75*
G02*
X9160000Y11715000I-70000J0D01*
G01*
X9020000Y11715000D01*
G75*
G02*
X8950000Y11785000I0J70000D01*
G01*
X8950000Y13095000D01*
G75*
G02*
X9020000Y13165000I70000J0D01*
G01*
X9160000Y13165000D01*
G75*
G02*
X9230000Y13095000I0J-70000D01*
G01*
G37*
G36*
G01*
X9230000Y18995000D02*
X9230000Y17685000D01*
G75*
G02*
X9160000Y17615000I-70000J0D01*
G01*
X9020000Y17615000D01*
G75*
G02*
X8950000Y17685000I0J70000D01*
G01*
X8950000Y18995000D01*
G75*
G02*
X9020000Y19065000I70000J0D01*
G01*
X9160000Y19065000D01*
G75*
G02*
X9230000Y18995000I0J-70000D01*
G01*
G37*
G36*
G01*
X9630000Y13095000D02*
X9630000Y11785000D01*
G75*
G02*
X9560000Y11715000I-70000J0D01*
G01*
X9420000Y11715000D01*
G75*
G02*
X9350000Y11785000I0J70000D01*
G01*
X9350000Y13095000D01*
G75*
G02*
X9420000Y13165000I70000J0D01*
G01*
X9560000Y13165000D01*
G75*
G02*
X9630000Y13095000I0J-70000D01*
G01*
G37*
G36*
G01*
X9630000Y18995000D02*
X9630000Y17685000D01*
G75*
G02*
X9560000Y17615000I-70000J0D01*
G01*
X9420000Y17615000D01*
G75*
G02*
X9350000Y17685000I0J70000D01*
G01*
X9350000Y18995000D01*
G75*
G02*
X9420000Y19065000I70000J0D01*
G01*
X9560000Y19065000D01*
G75*
G02*
X9630000Y18995000I0J-70000D01*
G01*
G37*
G36*
G01*
X10030000Y13095000D02*
X10030000Y11785000D01*
G75*
G02*
X9960000Y11715000I-70000J0D01*
G01*
X9820000Y11715000D01*
G75*
G02*
X9750000Y11785000I0J70000D01*
G01*
X9750000Y13095000D01*
G75*
G02*
X9820000Y13165000I70000J0D01*
G01*
X9960000Y13165000D01*
G75*
G02*
X10030000Y13095000I0J-70000D01*
G01*
G37*
G36*
G01*
X10030000Y18995000D02*
X10030000Y17685000D01*
G75*
G02*
X9960000Y17615000I-70000J0D01*
G01*
X9820000Y17615000D01*
G75*
G02*
X9750000Y17685000I0J70000D01*
G01*
X9750000Y18995000D01*
G75*
G02*
X9820000Y19065000I70000J0D01*
G01*
X9960000Y19065000D01*
G75*
G02*
X10030000Y18995000I0J-70000D01*
G01*
G37*
G36*
G01*
X10430000Y13095000D02*
X10430000Y11785000D01*
G75*
G02*
X10360000Y11715000I-70000J0D01*
G01*
X10220000Y11715000D01*
G75*
G02*
X10150000Y11785000I0J70000D01*
G01*
X10150000Y13095000D01*
G75*
G02*
X10220000Y13165000I70000J0D01*
G01*
X10360000Y13165000D01*
G75*
G02*
X10430000Y13095000I0J-70000D01*
G01*
G37*
G36*
G01*
X10430000Y18995000D02*
X10430000Y17685000D01*
G75*
G02*
X10360000Y17615000I-70000J0D01*
G01*
X10220000Y17615000D01*
G75*
G02*
X10150000Y17685000I0J70000D01*
G01*
X10150000Y18995000D01*
G75*
G02*
X10220000Y19065000I70000J0D01*
G01*
X10360000Y19065000D01*
G75*
G02*
X10430000Y18995000I0J-70000D01*
G01*
G37*
G36*
G01*
X10830000Y13095000D02*
X10830000Y11785000D01*
G75*
G02*
X10760000Y11715000I-70000J0D01*
G01*
X10620000Y11715000D01*
G75*
G02*
X10550000Y11785000I0J70000D01*
G01*
X10550000Y13095000D01*
G75*
G02*
X10620000Y13165000I70000J0D01*
G01*
X10760000Y13165000D01*
G75*
G02*
X10830000Y13095000I0J-70000D01*
G01*
G37*
G36*
G01*
X10830000Y18995000D02*
X10830000Y17685000D01*
G75*
G02*
X10760000Y17615000I-70000J0D01*
G01*
X10620000Y17615000D01*
G75*
G02*
X10550000Y17685000I0J70000D01*
G01*
X10550000Y18995000D01*
G75*
G02*
X10620000Y19065000I70000J0D01*
G01*
X10760000Y19065000D01*
G75*
G02*
X10830000Y18995000I0J-70000D01*
G01*
G37*
G36*
G01*
X11230000Y13095000D02*
X11230000Y11785000D01*
G75*
G02*
X11160000Y11715000I-70000J0D01*
G01*
X11020000Y11715000D01*
G75*
G02*
X10950000Y11785000I0J70000D01*
G01*
X10950000Y13095000D01*
G75*
G02*
X11020000Y13165000I70000J0D01*
G01*
X11160000Y13165000D01*
G75*
G02*
X11230000Y13095000I0J-70000D01*
G01*
G37*
G36*
G01*
X11230000Y18995000D02*
X11230000Y17685000D01*
G75*
G02*
X11160000Y17615000I-70000J0D01*
G01*
X11020000Y17615000D01*
G75*
G02*
X10950000Y17685000I0J70000D01*
G01*
X10950000Y18995000D01*
G75*
G02*
X11020000Y19065000I70000J0D01*
G01*
X11160000Y19065000D01*
G75*
G02*
X11230000Y18995000I0J-70000D01*
G01*
G37*
G36*
G01*
X11630000Y13095000D02*
X11630000Y11785000D01*
G75*
G02*
X11560000Y11715000I-70000J0D01*
G01*
X11420000Y11715000D01*
G75*
G02*
X11350000Y11785000I0J70000D01*
G01*
X11350000Y13095000D01*
G75*
G02*
X11420000Y13165000I70000J0D01*
G01*
X11560000Y13165000D01*
G75*
G02*
X11630000Y13095000I0J-70000D01*
G01*
G37*
G36*
G01*
X11630000Y18995000D02*
X11630000Y17685000D01*
G75*
G02*
X11560000Y17615000I-70000J0D01*
G01*
X11420000Y17615000D01*
G75*
G02*
X11350000Y17685000I0J70000D01*
G01*
X11350000Y18995000D01*
G75*
G02*
X11420000Y19065000I70000J0D01*
G01*
X11560000Y19065000D01*
G75*
G02*
X11630000Y18995000I0J-70000D01*
G01*
G37*
G36*
G01*
X12030000Y13095000D02*
X12030000Y11785000D01*
G75*
G02*
X11960000Y11715000I-70000J0D01*
G01*
X11820000Y11715000D01*
G75*
G02*
X11750000Y11785000I0J70000D01*
G01*
X11750000Y13095000D01*
G75*
G02*
X11820000Y13165000I70000J0D01*
G01*
X11960000Y13165000D01*
G75*
G02*
X12030000Y13095000I0J-70000D01*
G01*
G37*
G36*
G01*
X12030000Y18995000D02*
X12030000Y17685000D01*
G75*
G02*
X11960000Y17615000I-70000J0D01*
G01*
X11820000Y17615000D01*
G75*
G02*
X11750000Y17685000I0J70000D01*
G01*
X11750000Y18995000D01*
G75*
G02*
X11820000Y19065000I70000J0D01*
G01*
X11960000Y19065000D01*
G75*
G02*
X12030000Y18995000I0J-70000D01*
G01*
G37*
G36*
G01*
X12430000Y13095000D02*
X12430000Y11785000D01*
G75*
G02*
X12360000Y11715000I-70000J0D01*
G01*
X12220000Y11715000D01*
G75*
G02*
X12150000Y11785000I0J70000D01*
G01*
X12150000Y13095000D01*
G75*
G02*
X12220000Y13165000I70000J0D01*
G01*
X12360000Y13165000D01*
G75*
G02*
X12430000Y13095000I0J-70000D01*
G01*
G37*
G36*
G01*
X12430000Y18995000D02*
X12430000Y17685000D01*
G75*
G02*
X12360000Y17615000I-70000J0D01*
G01*
X12220000Y17615000D01*
G75*
G02*
X12150000Y17685000I0J70000D01*
G01*
X12150000Y18995000D01*
G75*
G02*
X12220000Y19065000I70000J0D01*
G01*
X12360000Y19065000D01*
G75*
G02*
X12430000Y18995000I0J-70000D01*
G01*
G37*
G36*
G01*
X12830000Y13095000D02*
X12830000Y11785000D01*
G75*
G02*
X12760000Y11715000I-70000J0D01*
G01*
X12620000Y11715000D01*
G75*
G02*
X12550000Y11785000I0J70000D01*
G01*
X12550000Y13095000D01*
G75*
G02*
X12620000Y13165000I70000J0D01*
G01*
X12760000Y13165000D01*
G75*
G02*
X12830000Y13095000I0J-70000D01*
G01*
G37*
G36*
G01*
X12830000Y18995000D02*
X12830000Y17685000D01*
G75*
G02*
X12760000Y17615000I-70000J0D01*
G01*
X12620000Y17615000D01*
G75*
G02*
X12550000Y17685000I0J70000D01*
G01*
X12550000Y18995000D01*
G75*
G02*
X12620000Y19065000I70000J0D01*
G01*
X12760000Y19065000D01*
G75*
G02*
X12830000Y18995000I0J-70000D01*
G01*
G37*
G36*
G01*
X13230000Y13095000D02*
X13230000Y11785000D01*
G75*
G02*
X13160000Y11715000I-70000J0D01*
G01*
X13020000Y11715000D01*
G75*
G02*
X12950000Y11785000I0J70000D01*
G01*
X12950000Y13095000D01*
G75*
G02*
X13020000Y13165000I70000J0D01*
G01*
X13160000Y13165000D01*
G75*
G02*
X13230000Y13095000I0J-70000D01*
G01*
G37*
G36*
G01*
X13230000Y18995000D02*
X13230000Y17685000D01*
G75*
G02*
X13160000Y17615000I-70000J0D01*
G01*
X13020000Y17615000D01*
G75*
G02*
X12950000Y17685000I0J70000D01*
G01*
X12950000Y18995000D01*
G75*
G02*
X13020000Y19065000I70000J0D01*
G01*
X13160000Y19065000D01*
G75*
G02*
X13230000Y18995000I0J-70000D01*
G01*
G37*
G36*
G01*
X13630000Y13095000D02*
X13630000Y11785000D01*
G75*
G02*
X13560000Y11715000I-70000J0D01*
G01*
X13420000Y11715000D01*
G75*
G02*
X13350000Y11785000I0J70000D01*
G01*
X13350000Y13095000D01*
G75*
G02*
X13420000Y13165000I70000J0D01*
G01*
X13560000Y13165000D01*
G75*
G02*
X13630000Y13095000I0J-70000D01*
G01*
G37*
G36*
G01*
X13630000Y18995000D02*
X13630000Y17685000D01*
G75*
G02*
X13560000Y17615000I-70000J0D01*
G01*
X13420000Y17615000D01*
G75*
G02*
X13350000Y17685000I0J70000D01*
G01*
X13350000Y18995000D01*
G75*
G02*
X13420000Y19065000I70000J0D01*
G01*
X13560000Y19065000D01*
G75*
G02*
X13630000Y18995000I0J-70000D01*
G01*
G37*
G36*
G01*
X14030000Y13095000D02*
X14030000Y11785000D01*
G75*
G02*
X13960000Y11715000I-70000J0D01*
G01*
X13820000Y11715000D01*
G75*
G02*
X13750000Y11785000I0J70000D01*
G01*
X13750000Y13095000D01*
G75*
G02*
X13820000Y13165000I70000J0D01*
G01*
X13960000Y13165000D01*
G75*
G02*
X14030000Y13095000I0J-70000D01*
G01*
G37*
G36*
G01*
X14030000Y18995000D02*
X14030000Y17685000D01*
G75*
G02*
X13960000Y17615000I-70000J0D01*
G01*
X13820000Y17615000D01*
G75*
G02*
X13750000Y17685000I0J70000D01*
G01*
X13750000Y18995000D01*
G75*
G02*
X13820000Y19065000I70000J0D01*
G01*
X13960000Y19065000D01*
G75*
G02*
X14030000Y18995000I0J-70000D01*
G01*
G37*
G36*
G01*
X14430000Y13095000D02*
X14430000Y11785000D01*
G75*
G02*
X14360000Y11715000I-70000J0D01*
G01*
X14220000Y11715000D01*
G75*
G02*
X14150000Y11785000I0J70000D01*
G01*
X14150000Y13095000D01*
G75*
G02*
X14220000Y13165000I70000J0D01*
G01*
X14360000Y13165000D01*
G75*
G02*
X14430000Y13095000I0J-70000D01*
G01*
G37*
G36*
G01*
X14430000Y18995000D02*
X14430000Y17685000D01*
G75*
G02*
X14360000Y17615000I-70000J0D01*
G01*
X14220000Y17615000D01*
G75*
G02*
X14150000Y17685000I0J70000D01*
G01*
X14150000Y18995000D01*
G75*
G02*
X14220000Y19065000I70000J0D01*
G01*
X14360000Y19065000D01*
G75*
G02*
X14430000Y18995000I0J-70000D01*
G01*
G37*
X7000000Y17180000D03*
X8890000Y9360000D03*
X12700000Y23670000D03*
X11850000Y23680000D03*
X12700000Y22830000D03*
X11850000Y22830000D03*
X8890000Y15290000D03*
X9890000Y16300000D03*
X10900000Y17180000D03*
X8740000Y19450000D03*
X8890000Y17280000D03*
X7900000Y16300000D03*
D14*
X16510000Y1270000D03*
X16510000Y3810000D03*
X16510000Y6350000D03*
X16510000Y8890000D03*
X16510000Y11430000D03*
X16510000Y13970000D03*
X16510000Y16510000D03*
X16510000Y19050000D03*
X16510000Y21590000D03*
X16510000Y24130000D03*
X3810000Y1270000D03*
X3810000Y3810000D03*
X6350000Y1270000D03*
X6350000Y3810000D03*
X8890000Y1270000D03*
X8890000Y3810000D03*
X11430000Y1270000D03*
X11430000Y3810000D03*
X13970000Y1270000D03*
X13970000Y3810000D03*
X1270000Y1270000D03*
X1270000Y3810000D03*
X1270000Y6350000D03*
X1270000Y8890000D03*
X1270000Y11430000D03*
X1270000Y13970000D03*
X1270000Y16510000D03*
X1270000Y19050000D03*
X1270000Y21590000D03*
X1270000Y24130000D03*
G36*
G01*
X10640000Y6280000D02*
X10640000Y6630000D01*
G75*
G02*
X10815000Y6805000I175000J0D01*
G01*
X12215000Y6805000D01*
G75*
G02*
X12390000Y6630000I0J-175000D01*
G01*
X12390000Y6280000D01*
G75*
G02*
X12215000Y6105000I-175000J0D01*
G01*
X10815000Y6105000D01*
G75*
G02*
X10640000Y6280000I0J175000D01*
G01*
G37*
G36*
G01*
X10640000Y7550000D02*
X10640000Y7900000D01*
G75*
G02*
X10815000Y8075000I175000J0D01*
G01*
X12215000Y8075000D01*
G75*
G02*
X12390000Y7900000I0J-175000D01*
G01*
X12390000Y7550000D01*
G75*
G02*
X12215000Y7375000I-175000J0D01*
G01*
X10815000Y7375000D01*
G75*
G02*
X10640000Y7550000I0J175000D01*
G01*
G37*
G36*
G01*
X10640000Y8820000D02*
X10640000Y9170000D01*
G75*
G02*
X10815000Y9345000I175000J0D01*
G01*
X12215000Y9345000D01*
G75*
G02*
X12390000Y9170000I0J-175000D01*
G01*
X12390000Y8820000D01*
G75*
G02*
X12215000Y8645000I-175000J0D01*
G01*
X10815000Y8645000D01*
G75*
G02*
X10640000Y8820000I0J175000D01*
G01*
G37*
G36*
G01*
X10640000Y10090000D02*
X10640000Y10440000D01*
G75*
G02*
X10815000Y10615000I175000J0D01*
G01*
X12215000Y10615000D01*
G75*
G02*
X12390000Y10440000I0J-175000D01*
G01*
X12390000Y10090000D01*
G75*
G02*
X12215000Y9915000I-175000J0D01*
G01*
X10815000Y9915000D01*
G75*
G02*
X10640000Y10090000I0J175000D01*
G01*
G37*
G36*
G01*
X5390000Y10090000D02*
X5390000Y10440000D01*
G75*
G02*
X5565000Y10615000I175000J0D01*
G01*
X6965000Y10615000D01*
G75*
G02*
X7140000Y10440000I0J-175000D01*
G01*
X7140000Y10090000D01*
G75*
G02*
X6965000Y9915000I-175000J0D01*
G01*
X5565000Y9915000D01*
G75*
G02*
X5390000Y10090000I0J175000D01*
G01*
G37*
G36*
G01*
X5390000Y8820000D02*
X5390000Y9170000D01*
G75*
G02*
X5565000Y9345000I175000J0D01*
G01*
X6965000Y9345000D01*
G75*
G02*
X7140000Y9170000I0J-175000D01*
G01*
X7140000Y8820000D01*
G75*
G02*
X6965000Y8645000I-175000J0D01*
G01*
X5565000Y8645000D01*
G75*
G02*
X5390000Y8820000I0J175000D01*
G01*
G37*
G36*
G01*
X5390000Y7550000D02*
X5390000Y7900000D01*
G75*
G02*
X5565000Y8075000I175000J0D01*
G01*
X6965000Y8075000D01*
G75*
G02*
X7140000Y7900000I0J-175000D01*
G01*
X7140000Y7550000D01*
G75*
G02*
X6965000Y7375000I-175000J0D01*
G01*
X5565000Y7375000D01*
G75*
G02*
X5390000Y7550000I0J175000D01*
G01*
G37*
G36*
G01*
X5390000Y6280000D02*
X5390000Y6630000D01*
G75*
G02*
X5565000Y6805000I175000J0D01*
G01*
X6965000Y6805000D01*
G75*
G02*
X7140000Y6630000I0J-175000D01*
G01*
X7140000Y6280000D01*
G75*
G02*
X6965000Y6105000I-175000J0D01*
G01*
X5565000Y6105000D01*
G75*
G02*
X5390000Y6280000I0J175000D01*
G01*
G37*
X16510000Y26670000D03*
X16510000Y29210000D03*
X16510000Y31750000D03*
X16510000Y34290000D03*
X1270000Y26670000D03*
X1270000Y29210000D03*
X1270000Y31750000D03*
X1270000Y34290000D03*
D15*
X10590000Y22670000D03*
X10590000Y20670000D03*
X6190000Y25070000D03*
M02*
