G04 #@! TF.GenerationSoftware,KiCad,Pcbnew,5.1.9-1.fc33*
G04 #@! TF.CreationDate,2021-01-17T22:01:28+01:00*
G04 #@! TF.ProjectId,reDIP-SID,72654449-502d-4534-9944-2e6b69636164,0.1*
G04 #@! TF.SameCoordinates,PX5e28010PY8011a50*
G04 #@! TF.FileFunction,Paste,Bot*
G04 #@! TF.FilePolarity,Positive*
%FSLAX46Y46*%
G04 Gerber Fmt 4.6, Leading zero omitted, Abs format (unit mm)*
G04 Created by KiCad (PCBNEW 5.1.9-1.fc33) date 2021-01-17 22:01:28*
%MOMM*%
%LPD*%
G01*
G04 APERTURE LIST*
G04 APERTURE END LIST*
G36*
G01*
X3580000Y13070000D02*
X3580000Y11810000D01*
G75*
G02*
X3535000Y11765000I-45000J0D01*
G01*
X3445000Y11765000D01*
G75*
G02*
X3400000Y11810000I0J45000D01*
G01*
X3400000Y13070000D01*
G75*
G02*
X3445000Y13115000I45000J0D01*
G01*
X3535000Y13115000D01*
G75*
G02*
X3580000Y13070000I0J-45000D01*
G01*
G37*
G36*
G01*
X3580000Y18970000D02*
X3580000Y17710000D01*
G75*
G02*
X3535000Y17665000I-45000J0D01*
G01*
X3445000Y17665000D01*
G75*
G02*
X3400000Y17710000I0J45000D01*
G01*
X3400000Y18970000D01*
G75*
G02*
X3445000Y19015000I45000J0D01*
G01*
X3535000Y19015000D01*
G75*
G02*
X3580000Y18970000I0J-45000D01*
G01*
G37*
G36*
G01*
X3980000Y13070000D02*
X3980000Y11810000D01*
G75*
G02*
X3935000Y11765000I-45000J0D01*
G01*
X3845000Y11765000D01*
G75*
G02*
X3800000Y11810000I0J45000D01*
G01*
X3800000Y13070000D01*
G75*
G02*
X3845000Y13115000I45000J0D01*
G01*
X3935000Y13115000D01*
G75*
G02*
X3980000Y13070000I0J-45000D01*
G01*
G37*
G36*
G01*
X3980000Y18970000D02*
X3980000Y17710000D01*
G75*
G02*
X3935000Y17665000I-45000J0D01*
G01*
X3845000Y17665000D01*
G75*
G02*
X3800000Y17710000I0J45000D01*
G01*
X3800000Y18970000D01*
G75*
G02*
X3845000Y19015000I45000J0D01*
G01*
X3935000Y19015000D01*
G75*
G02*
X3980000Y18970000I0J-45000D01*
G01*
G37*
G36*
G01*
X4380000Y13070000D02*
X4380000Y11810000D01*
G75*
G02*
X4335000Y11765000I-45000J0D01*
G01*
X4245000Y11765000D01*
G75*
G02*
X4200000Y11810000I0J45000D01*
G01*
X4200000Y13070000D01*
G75*
G02*
X4245000Y13115000I45000J0D01*
G01*
X4335000Y13115000D01*
G75*
G02*
X4380000Y13070000I0J-45000D01*
G01*
G37*
G36*
G01*
X4380000Y18970000D02*
X4380000Y17710000D01*
G75*
G02*
X4335000Y17665000I-45000J0D01*
G01*
X4245000Y17665000D01*
G75*
G02*
X4200000Y17710000I0J45000D01*
G01*
X4200000Y18970000D01*
G75*
G02*
X4245000Y19015000I45000J0D01*
G01*
X4335000Y19015000D01*
G75*
G02*
X4380000Y18970000I0J-45000D01*
G01*
G37*
G36*
G01*
X4780000Y13070000D02*
X4780000Y11810000D01*
G75*
G02*
X4735000Y11765000I-45000J0D01*
G01*
X4645000Y11765000D01*
G75*
G02*
X4600000Y11810000I0J45000D01*
G01*
X4600000Y13070000D01*
G75*
G02*
X4645000Y13115000I45000J0D01*
G01*
X4735000Y13115000D01*
G75*
G02*
X4780000Y13070000I0J-45000D01*
G01*
G37*
G36*
G01*
X4780000Y18970000D02*
X4780000Y17710000D01*
G75*
G02*
X4735000Y17665000I-45000J0D01*
G01*
X4645000Y17665000D01*
G75*
G02*
X4600000Y17710000I0J45000D01*
G01*
X4600000Y18970000D01*
G75*
G02*
X4645000Y19015000I45000J0D01*
G01*
X4735000Y19015000D01*
G75*
G02*
X4780000Y18970000I0J-45000D01*
G01*
G37*
G36*
G01*
X5180000Y13070000D02*
X5180000Y11810000D01*
G75*
G02*
X5135000Y11765000I-45000J0D01*
G01*
X5045000Y11765000D01*
G75*
G02*
X5000000Y11810000I0J45000D01*
G01*
X5000000Y13070000D01*
G75*
G02*
X5045000Y13115000I45000J0D01*
G01*
X5135000Y13115000D01*
G75*
G02*
X5180000Y13070000I0J-45000D01*
G01*
G37*
G36*
G01*
X5180000Y18970000D02*
X5180000Y17710000D01*
G75*
G02*
X5135000Y17665000I-45000J0D01*
G01*
X5045000Y17665000D01*
G75*
G02*
X5000000Y17710000I0J45000D01*
G01*
X5000000Y18970000D01*
G75*
G02*
X5045000Y19015000I45000J0D01*
G01*
X5135000Y19015000D01*
G75*
G02*
X5180000Y18970000I0J-45000D01*
G01*
G37*
G36*
G01*
X5580000Y13070000D02*
X5580000Y11810000D01*
G75*
G02*
X5535000Y11765000I-45000J0D01*
G01*
X5445000Y11765000D01*
G75*
G02*
X5400000Y11810000I0J45000D01*
G01*
X5400000Y13070000D01*
G75*
G02*
X5445000Y13115000I45000J0D01*
G01*
X5535000Y13115000D01*
G75*
G02*
X5580000Y13070000I0J-45000D01*
G01*
G37*
G36*
G01*
X5580000Y18970000D02*
X5580000Y17710000D01*
G75*
G02*
X5535000Y17665000I-45000J0D01*
G01*
X5445000Y17665000D01*
G75*
G02*
X5400000Y17710000I0J45000D01*
G01*
X5400000Y18970000D01*
G75*
G02*
X5445000Y19015000I45000J0D01*
G01*
X5535000Y19015000D01*
G75*
G02*
X5580000Y18970000I0J-45000D01*
G01*
G37*
G36*
G01*
X5980000Y13070000D02*
X5980000Y11810000D01*
G75*
G02*
X5935000Y11765000I-45000J0D01*
G01*
X5845000Y11765000D01*
G75*
G02*
X5800000Y11810000I0J45000D01*
G01*
X5800000Y13070000D01*
G75*
G02*
X5845000Y13115000I45000J0D01*
G01*
X5935000Y13115000D01*
G75*
G02*
X5980000Y13070000I0J-45000D01*
G01*
G37*
G36*
G01*
X5980000Y18970000D02*
X5980000Y17710000D01*
G75*
G02*
X5935000Y17665000I-45000J0D01*
G01*
X5845000Y17665000D01*
G75*
G02*
X5800000Y17710000I0J45000D01*
G01*
X5800000Y18970000D01*
G75*
G02*
X5845000Y19015000I45000J0D01*
G01*
X5935000Y19015000D01*
G75*
G02*
X5980000Y18970000I0J-45000D01*
G01*
G37*
G36*
G01*
X6380000Y13070000D02*
X6380000Y11810000D01*
G75*
G02*
X6335000Y11765000I-45000J0D01*
G01*
X6245000Y11765000D01*
G75*
G02*
X6200000Y11810000I0J45000D01*
G01*
X6200000Y13070000D01*
G75*
G02*
X6245000Y13115000I45000J0D01*
G01*
X6335000Y13115000D01*
G75*
G02*
X6380000Y13070000I0J-45000D01*
G01*
G37*
G36*
G01*
X6380000Y18970000D02*
X6380000Y17710000D01*
G75*
G02*
X6335000Y17665000I-45000J0D01*
G01*
X6245000Y17665000D01*
G75*
G02*
X6200000Y17710000I0J45000D01*
G01*
X6200000Y18970000D01*
G75*
G02*
X6245000Y19015000I45000J0D01*
G01*
X6335000Y19015000D01*
G75*
G02*
X6380000Y18970000I0J-45000D01*
G01*
G37*
G36*
G01*
X6780000Y13070000D02*
X6780000Y11810000D01*
G75*
G02*
X6735000Y11765000I-45000J0D01*
G01*
X6645000Y11765000D01*
G75*
G02*
X6600000Y11810000I0J45000D01*
G01*
X6600000Y13070000D01*
G75*
G02*
X6645000Y13115000I45000J0D01*
G01*
X6735000Y13115000D01*
G75*
G02*
X6780000Y13070000I0J-45000D01*
G01*
G37*
G36*
G01*
X6780000Y18970000D02*
X6780000Y17710000D01*
G75*
G02*
X6735000Y17665000I-45000J0D01*
G01*
X6645000Y17665000D01*
G75*
G02*
X6600000Y17710000I0J45000D01*
G01*
X6600000Y18970000D01*
G75*
G02*
X6645000Y19015000I45000J0D01*
G01*
X6735000Y19015000D01*
G75*
G02*
X6780000Y18970000I0J-45000D01*
G01*
G37*
G36*
G01*
X7180000Y13070000D02*
X7180000Y11810000D01*
G75*
G02*
X7135000Y11765000I-45000J0D01*
G01*
X7045000Y11765000D01*
G75*
G02*
X7000000Y11810000I0J45000D01*
G01*
X7000000Y13070000D01*
G75*
G02*
X7045000Y13115000I45000J0D01*
G01*
X7135000Y13115000D01*
G75*
G02*
X7180000Y13070000I0J-45000D01*
G01*
G37*
G36*
G01*
X7180000Y18970000D02*
X7180000Y17710000D01*
G75*
G02*
X7135000Y17665000I-45000J0D01*
G01*
X7045000Y17665000D01*
G75*
G02*
X7000000Y17710000I0J45000D01*
G01*
X7000000Y18970000D01*
G75*
G02*
X7045000Y19015000I45000J0D01*
G01*
X7135000Y19015000D01*
G75*
G02*
X7180000Y18970000I0J-45000D01*
G01*
G37*
G36*
G01*
X7580000Y13070000D02*
X7580000Y11810000D01*
G75*
G02*
X7535000Y11765000I-45000J0D01*
G01*
X7445000Y11765000D01*
G75*
G02*
X7400000Y11810000I0J45000D01*
G01*
X7400000Y13070000D01*
G75*
G02*
X7445000Y13115000I45000J0D01*
G01*
X7535000Y13115000D01*
G75*
G02*
X7580000Y13070000I0J-45000D01*
G01*
G37*
G36*
G01*
X7580000Y18970000D02*
X7580000Y17710000D01*
G75*
G02*
X7535000Y17665000I-45000J0D01*
G01*
X7445000Y17665000D01*
G75*
G02*
X7400000Y17710000I0J45000D01*
G01*
X7400000Y18970000D01*
G75*
G02*
X7445000Y19015000I45000J0D01*
G01*
X7535000Y19015000D01*
G75*
G02*
X7580000Y18970000I0J-45000D01*
G01*
G37*
G36*
G01*
X7980000Y13070000D02*
X7980000Y11810000D01*
G75*
G02*
X7935000Y11765000I-45000J0D01*
G01*
X7845000Y11765000D01*
G75*
G02*
X7800000Y11810000I0J45000D01*
G01*
X7800000Y13070000D01*
G75*
G02*
X7845000Y13115000I45000J0D01*
G01*
X7935000Y13115000D01*
G75*
G02*
X7980000Y13070000I0J-45000D01*
G01*
G37*
G36*
G01*
X7980000Y18970000D02*
X7980000Y17710000D01*
G75*
G02*
X7935000Y17665000I-45000J0D01*
G01*
X7845000Y17665000D01*
G75*
G02*
X7800000Y17710000I0J45000D01*
G01*
X7800000Y18970000D01*
G75*
G02*
X7845000Y19015000I45000J0D01*
G01*
X7935000Y19015000D01*
G75*
G02*
X7980000Y18970000I0J-45000D01*
G01*
G37*
G36*
G01*
X8380000Y13070000D02*
X8380000Y11810000D01*
G75*
G02*
X8335000Y11765000I-45000J0D01*
G01*
X8245000Y11765000D01*
G75*
G02*
X8200000Y11810000I0J45000D01*
G01*
X8200000Y13070000D01*
G75*
G02*
X8245000Y13115000I45000J0D01*
G01*
X8335000Y13115000D01*
G75*
G02*
X8380000Y13070000I0J-45000D01*
G01*
G37*
G36*
G01*
X8380000Y18970000D02*
X8380000Y17710000D01*
G75*
G02*
X8335000Y17665000I-45000J0D01*
G01*
X8245000Y17665000D01*
G75*
G02*
X8200000Y17710000I0J45000D01*
G01*
X8200000Y18970000D01*
G75*
G02*
X8245000Y19015000I45000J0D01*
G01*
X8335000Y19015000D01*
G75*
G02*
X8380000Y18970000I0J-45000D01*
G01*
G37*
G36*
G01*
X8780000Y13070000D02*
X8780000Y11810000D01*
G75*
G02*
X8735000Y11765000I-45000J0D01*
G01*
X8645000Y11765000D01*
G75*
G02*
X8600000Y11810000I0J45000D01*
G01*
X8600000Y13070000D01*
G75*
G02*
X8645000Y13115000I45000J0D01*
G01*
X8735000Y13115000D01*
G75*
G02*
X8780000Y13070000I0J-45000D01*
G01*
G37*
G36*
G01*
X8780000Y18970000D02*
X8780000Y17710000D01*
G75*
G02*
X8735000Y17665000I-45000J0D01*
G01*
X8645000Y17665000D01*
G75*
G02*
X8600000Y17710000I0J45000D01*
G01*
X8600000Y18970000D01*
G75*
G02*
X8645000Y19015000I45000J0D01*
G01*
X8735000Y19015000D01*
G75*
G02*
X8780000Y18970000I0J-45000D01*
G01*
G37*
G36*
G01*
X9180000Y13070000D02*
X9180000Y11810000D01*
G75*
G02*
X9135000Y11765000I-45000J0D01*
G01*
X9045000Y11765000D01*
G75*
G02*
X9000000Y11810000I0J45000D01*
G01*
X9000000Y13070000D01*
G75*
G02*
X9045000Y13115000I45000J0D01*
G01*
X9135000Y13115000D01*
G75*
G02*
X9180000Y13070000I0J-45000D01*
G01*
G37*
G36*
G01*
X9180000Y18970000D02*
X9180000Y17710000D01*
G75*
G02*
X9135000Y17665000I-45000J0D01*
G01*
X9045000Y17665000D01*
G75*
G02*
X9000000Y17710000I0J45000D01*
G01*
X9000000Y18970000D01*
G75*
G02*
X9045000Y19015000I45000J0D01*
G01*
X9135000Y19015000D01*
G75*
G02*
X9180000Y18970000I0J-45000D01*
G01*
G37*
G36*
G01*
X9580000Y13070000D02*
X9580000Y11810000D01*
G75*
G02*
X9535000Y11765000I-45000J0D01*
G01*
X9445000Y11765000D01*
G75*
G02*
X9400000Y11810000I0J45000D01*
G01*
X9400000Y13070000D01*
G75*
G02*
X9445000Y13115000I45000J0D01*
G01*
X9535000Y13115000D01*
G75*
G02*
X9580000Y13070000I0J-45000D01*
G01*
G37*
G36*
G01*
X9580000Y18970000D02*
X9580000Y17710000D01*
G75*
G02*
X9535000Y17665000I-45000J0D01*
G01*
X9445000Y17665000D01*
G75*
G02*
X9400000Y17710000I0J45000D01*
G01*
X9400000Y18970000D01*
G75*
G02*
X9445000Y19015000I45000J0D01*
G01*
X9535000Y19015000D01*
G75*
G02*
X9580000Y18970000I0J-45000D01*
G01*
G37*
G36*
G01*
X9980000Y13070000D02*
X9980000Y11810000D01*
G75*
G02*
X9935000Y11765000I-45000J0D01*
G01*
X9845000Y11765000D01*
G75*
G02*
X9800000Y11810000I0J45000D01*
G01*
X9800000Y13070000D01*
G75*
G02*
X9845000Y13115000I45000J0D01*
G01*
X9935000Y13115000D01*
G75*
G02*
X9980000Y13070000I0J-45000D01*
G01*
G37*
G36*
G01*
X9980000Y18970000D02*
X9980000Y17710000D01*
G75*
G02*
X9935000Y17665000I-45000J0D01*
G01*
X9845000Y17665000D01*
G75*
G02*
X9800000Y17710000I0J45000D01*
G01*
X9800000Y18970000D01*
G75*
G02*
X9845000Y19015000I45000J0D01*
G01*
X9935000Y19015000D01*
G75*
G02*
X9980000Y18970000I0J-45000D01*
G01*
G37*
G36*
G01*
X10380000Y13070000D02*
X10380000Y11810000D01*
G75*
G02*
X10335000Y11765000I-45000J0D01*
G01*
X10245000Y11765000D01*
G75*
G02*
X10200000Y11810000I0J45000D01*
G01*
X10200000Y13070000D01*
G75*
G02*
X10245000Y13115000I45000J0D01*
G01*
X10335000Y13115000D01*
G75*
G02*
X10380000Y13070000I0J-45000D01*
G01*
G37*
G36*
G01*
X10380000Y18970000D02*
X10380000Y17710000D01*
G75*
G02*
X10335000Y17665000I-45000J0D01*
G01*
X10245000Y17665000D01*
G75*
G02*
X10200000Y17710000I0J45000D01*
G01*
X10200000Y18970000D01*
G75*
G02*
X10245000Y19015000I45000J0D01*
G01*
X10335000Y19015000D01*
G75*
G02*
X10380000Y18970000I0J-45000D01*
G01*
G37*
G36*
G01*
X10780000Y13070000D02*
X10780000Y11810000D01*
G75*
G02*
X10735000Y11765000I-45000J0D01*
G01*
X10645000Y11765000D01*
G75*
G02*
X10600000Y11810000I0J45000D01*
G01*
X10600000Y13070000D01*
G75*
G02*
X10645000Y13115000I45000J0D01*
G01*
X10735000Y13115000D01*
G75*
G02*
X10780000Y13070000I0J-45000D01*
G01*
G37*
G36*
G01*
X10780000Y18970000D02*
X10780000Y17710000D01*
G75*
G02*
X10735000Y17665000I-45000J0D01*
G01*
X10645000Y17665000D01*
G75*
G02*
X10600000Y17710000I0J45000D01*
G01*
X10600000Y18970000D01*
G75*
G02*
X10645000Y19015000I45000J0D01*
G01*
X10735000Y19015000D01*
G75*
G02*
X10780000Y18970000I0J-45000D01*
G01*
G37*
G36*
G01*
X11180000Y13070000D02*
X11180000Y11810000D01*
G75*
G02*
X11135000Y11765000I-45000J0D01*
G01*
X11045000Y11765000D01*
G75*
G02*
X11000000Y11810000I0J45000D01*
G01*
X11000000Y13070000D01*
G75*
G02*
X11045000Y13115000I45000J0D01*
G01*
X11135000Y13115000D01*
G75*
G02*
X11180000Y13070000I0J-45000D01*
G01*
G37*
G36*
G01*
X11180000Y18970000D02*
X11180000Y17710000D01*
G75*
G02*
X11135000Y17665000I-45000J0D01*
G01*
X11045000Y17665000D01*
G75*
G02*
X11000000Y17710000I0J45000D01*
G01*
X11000000Y18970000D01*
G75*
G02*
X11045000Y19015000I45000J0D01*
G01*
X11135000Y19015000D01*
G75*
G02*
X11180000Y18970000I0J-45000D01*
G01*
G37*
G36*
G01*
X11580000Y13070000D02*
X11580000Y11810000D01*
G75*
G02*
X11535000Y11765000I-45000J0D01*
G01*
X11445000Y11765000D01*
G75*
G02*
X11400000Y11810000I0J45000D01*
G01*
X11400000Y13070000D01*
G75*
G02*
X11445000Y13115000I45000J0D01*
G01*
X11535000Y13115000D01*
G75*
G02*
X11580000Y13070000I0J-45000D01*
G01*
G37*
G36*
G01*
X11580000Y18970000D02*
X11580000Y17710000D01*
G75*
G02*
X11535000Y17665000I-45000J0D01*
G01*
X11445000Y17665000D01*
G75*
G02*
X11400000Y17710000I0J45000D01*
G01*
X11400000Y18970000D01*
G75*
G02*
X11445000Y19015000I45000J0D01*
G01*
X11535000Y19015000D01*
G75*
G02*
X11580000Y18970000I0J-45000D01*
G01*
G37*
G36*
G01*
X11980000Y13070000D02*
X11980000Y11810000D01*
G75*
G02*
X11935000Y11765000I-45000J0D01*
G01*
X11845000Y11765000D01*
G75*
G02*
X11800000Y11810000I0J45000D01*
G01*
X11800000Y13070000D01*
G75*
G02*
X11845000Y13115000I45000J0D01*
G01*
X11935000Y13115000D01*
G75*
G02*
X11980000Y13070000I0J-45000D01*
G01*
G37*
G36*
G01*
X11980000Y18970000D02*
X11980000Y17710000D01*
G75*
G02*
X11935000Y17665000I-45000J0D01*
G01*
X11845000Y17665000D01*
G75*
G02*
X11800000Y17710000I0J45000D01*
G01*
X11800000Y18970000D01*
G75*
G02*
X11845000Y19015000I45000J0D01*
G01*
X11935000Y19015000D01*
G75*
G02*
X11980000Y18970000I0J-45000D01*
G01*
G37*
G36*
G01*
X12380000Y13070000D02*
X12380000Y11810000D01*
G75*
G02*
X12335000Y11765000I-45000J0D01*
G01*
X12245000Y11765000D01*
G75*
G02*
X12200000Y11810000I0J45000D01*
G01*
X12200000Y13070000D01*
G75*
G02*
X12245000Y13115000I45000J0D01*
G01*
X12335000Y13115000D01*
G75*
G02*
X12380000Y13070000I0J-45000D01*
G01*
G37*
G36*
G01*
X12380000Y18970000D02*
X12380000Y17710000D01*
G75*
G02*
X12335000Y17665000I-45000J0D01*
G01*
X12245000Y17665000D01*
G75*
G02*
X12200000Y17710000I0J45000D01*
G01*
X12200000Y18970000D01*
G75*
G02*
X12245000Y19015000I45000J0D01*
G01*
X12335000Y19015000D01*
G75*
G02*
X12380000Y18970000I0J-45000D01*
G01*
G37*
G36*
G01*
X12780000Y13070000D02*
X12780000Y11810000D01*
G75*
G02*
X12735000Y11765000I-45000J0D01*
G01*
X12645000Y11765000D01*
G75*
G02*
X12600000Y11810000I0J45000D01*
G01*
X12600000Y13070000D01*
G75*
G02*
X12645000Y13115000I45000J0D01*
G01*
X12735000Y13115000D01*
G75*
G02*
X12780000Y13070000I0J-45000D01*
G01*
G37*
G36*
G01*
X12780000Y18970000D02*
X12780000Y17710000D01*
G75*
G02*
X12735000Y17665000I-45000J0D01*
G01*
X12645000Y17665000D01*
G75*
G02*
X12600000Y17710000I0J45000D01*
G01*
X12600000Y18970000D01*
G75*
G02*
X12645000Y19015000I45000J0D01*
G01*
X12735000Y19015000D01*
G75*
G02*
X12780000Y18970000I0J-45000D01*
G01*
G37*
G36*
G01*
X13180000Y13070000D02*
X13180000Y11810000D01*
G75*
G02*
X13135000Y11765000I-45000J0D01*
G01*
X13045000Y11765000D01*
G75*
G02*
X13000000Y11810000I0J45000D01*
G01*
X13000000Y13070000D01*
G75*
G02*
X13045000Y13115000I45000J0D01*
G01*
X13135000Y13115000D01*
G75*
G02*
X13180000Y13070000I0J-45000D01*
G01*
G37*
G36*
G01*
X13180000Y18970000D02*
X13180000Y17710000D01*
G75*
G02*
X13135000Y17665000I-45000J0D01*
G01*
X13045000Y17665000D01*
G75*
G02*
X13000000Y17710000I0J45000D01*
G01*
X13000000Y18970000D01*
G75*
G02*
X13045000Y19015000I45000J0D01*
G01*
X13135000Y19015000D01*
G75*
G02*
X13180000Y18970000I0J-45000D01*
G01*
G37*
G36*
G01*
X13580000Y13070000D02*
X13580000Y11810000D01*
G75*
G02*
X13535000Y11765000I-45000J0D01*
G01*
X13445000Y11765000D01*
G75*
G02*
X13400000Y11810000I0J45000D01*
G01*
X13400000Y13070000D01*
G75*
G02*
X13445000Y13115000I45000J0D01*
G01*
X13535000Y13115000D01*
G75*
G02*
X13580000Y13070000I0J-45000D01*
G01*
G37*
G36*
G01*
X13580000Y18970000D02*
X13580000Y17710000D01*
G75*
G02*
X13535000Y17665000I-45000J0D01*
G01*
X13445000Y17665000D01*
G75*
G02*
X13400000Y17710000I0J45000D01*
G01*
X13400000Y18970000D01*
G75*
G02*
X13445000Y19015000I45000J0D01*
G01*
X13535000Y19015000D01*
G75*
G02*
X13580000Y18970000I0J-45000D01*
G01*
G37*
G36*
G01*
X13980000Y13070000D02*
X13980000Y11810000D01*
G75*
G02*
X13935000Y11765000I-45000J0D01*
G01*
X13845000Y11765000D01*
G75*
G02*
X13800000Y11810000I0J45000D01*
G01*
X13800000Y13070000D01*
G75*
G02*
X13845000Y13115000I45000J0D01*
G01*
X13935000Y13115000D01*
G75*
G02*
X13980000Y13070000I0J-45000D01*
G01*
G37*
G36*
G01*
X13980000Y18970000D02*
X13980000Y17710000D01*
G75*
G02*
X13935000Y17665000I-45000J0D01*
G01*
X13845000Y17665000D01*
G75*
G02*
X13800000Y17710000I0J45000D01*
G01*
X13800000Y18970000D01*
G75*
G02*
X13845000Y19015000I45000J0D01*
G01*
X13935000Y19015000D01*
G75*
G02*
X13980000Y18970000I0J-45000D01*
G01*
G37*
G36*
G01*
X14380000Y13070000D02*
X14380000Y11810000D01*
G75*
G02*
X14335000Y11765000I-45000J0D01*
G01*
X14245000Y11765000D01*
G75*
G02*
X14200000Y11810000I0J45000D01*
G01*
X14200000Y13070000D01*
G75*
G02*
X14245000Y13115000I45000J0D01*
G01*
X14335000Y13115000D01*
G75*
G02*
X14380000Y13070000I0J-45000D01*
G01*
G37*
G36*
G01*
X14380000Y18970000D02*
X14380000Y17710000D01*
G75*
G02*
X14335000Y17665000I-45000J0D01*
G01*
X14245000Y17665000D01*
G75*
G02*
X14200000Y17710000I0J45000D01*
G01*
X14200000Y18970000D01*
G75*
G02*
X14245000Y19015000I45000J0D01*
G01*
X14335000Y19015000D01*
G75*
G02*
X14380000Y18970000I0J-45000D01*
G01*
G37*
G36*
G01*
X10690000Y6305000D02*
X10690000Y6605000D01*
G75*
G02*
X10840000Y6755000I150000J0D01*
G01*
X12190000Y6755000D01*
G75*
G02*
X12340000Y6605000I0J-150000D01*
G01*
X12340000Y6305000D01*
G75*
G02*
X12190000Y6155000I-150000J0D01*
G01*
X10840000Y6155000D01*
G75*
G02*
X10690000Y6305000I0J150000D01*
G01*
G37*
G36*
G01*
X10690000Y7575000D02*
X10690000Y7875000D01*
G75*
G02*
X10840000Y8025000I150000J0D01*
G01*
X12190000Y8025000D01*
G75*
G02*
X12340000Y7875000I0J-150000D01*
G01*
X12340000Y7575000D01*
G75*
G02*
X12190000Y7425000I-150000J0D01*
G01*
X10840000Y7425000D01*
G75*
G02*
X10690000Y7575000I0J150000D01*
G01*
G37*
G36*
G01*
X10690000Y8845000D02*
X10690000Y9145000D01*
G75*
G02*
X10840000Y9295000I150000J0D01*
G01*
X12190000Y9295000D01*
G75*
G02*
X12340000Y9145000I0J-150000D01*
G01*
X12340000Y8845000D01*
G75*
G02*
X12190000Y8695000I-150000J0D01*
G01*
X10840000Y8695000D01*
G75*
G02*
X10690000Y8845000I0J150000D01*
G01*
G37*
G36*
G01*
X10690000Y10115000D02*
X10690000Y10415000D01*
G75*
G02*
X10840000Y10565000I150000J0D01*
G01*
X12190000Y10565000D01*
G75*
G02*
X12340000Y10415000I0J-150000D01*
G01*
X12340000Y10115000D01*
G75*
G02*
X12190000Y9965000I-150000J0D01*
G01*
X10840000Y9965000D01*
G75*
G02*
X10690000Y10115000I0J150000D01*
G01*
G37*
G36*
G01*
X5440000Y10115000D02*
X5440000Y10415000D01*
G75*
G02*
X5590000Y10565000I150000J0D01*
G01*
X6940000Y10565000D01*
G75*
G02*
X7090000Y10415000I0J-150000D01*
G01*
X7090000Y10115000D01*
G75*
G02*
X6940000Y9965000I-150000J0D01*
G01*
X5590000Y9965000D01*
G75*
G02*
X5440000Y10115000I0J150000D01*
G01*
G37*
G36*
G01*
X5440000Y8845000D02*
X5440000Y9145000D01*
G75*
G02*
X5590000Y9295000I150000J0D01*
G01*
X6940000Y9295000D01*
G75*
G02*
X7090000Y9145000I0J-150000D01*
G01*
X7090000Y8845000D01*
G75*
G02*
X6940000Y8695000I-150000J0D01*
G01*
X5590000Y8695000D01*
G75*
G02*
X5440000Y8845000I0J150000D01*
G01*
G37*
G36*
G01*
X5440000Y7575000D02*
X5440000Y7875000D01*
G75*
G02*
X5590000Y8025000I150000J0D01*
G01*
X6940000Y8025000D01*
G75*
G02*
X7090000Y7875000I0J-150000D01*
G01*
X7090000Y7575000D01*
G75*
G02*
X6940000Y7425000I-150000J0D01*
G01*
X5590000Y7425000D01*
G75*
G02*
X5440000Y7575000I0J150000D01*
G01*
G37*
G36*
G01*
X5440000Y6305000D02*
X5440000Y6605000D01*
G75*
G02*
X5590000Y6755000I150000J0D01*
G01*
X6940000Y6755000D01*
G75*
G02*
X7090000Y6605000I0J-150000D01*
G01*
X7090000Y6305000D01*
G75*
G02*
X6940000Y6155000I-150000J0D01*
G01*
X5590000Y6155000D01*
G75*
G02*
X5440000Y6305000I0J150000D01*
G01*
G37*
M02*
