M48
; DRILL file {KiCad 5.1.9-1.fc33} date Mon Jan 11 22:03:07 2021
; FORMAT={-:-/ absolute / metric / decimal}
; #@! TF.CreationDate,2021-01-11T22:03:07+01:00
; #@! TF.GenerationSoftware,Kicad,Pcbnew,5.1.9-1.fc33
; #@! TF.FileFunction,Plated,1,6,PTH
FMAT,2
METRIC
T1C0.200
T2C0.600
T3C1.000
%
G90
G05
T1
X2.97Y13.03
X2.97Y12.42
X2.97Y11.81
X2.98Y19.17
X2.98Y18.57
X3.38Y15.24
X3.55Y24.19
X3.75Y25.83
X3.84Y15.64
X3.85Y23.67
X3.89Y27.78
X3.99Y19.89
X4.15Y24.19
X4.37Y15.94
X4.44Y20.34
X4.45Y23.67
X4.48Y15.34
X4.74Y9.62
X4.75Y24.19
X4.92Y25.85
X4.99Y19.42
X5.05Y23.67
X5.07Y6.41
X5.08Y15.24
X5.35Y24.19
X5.55Y14.3
X5.65Y23.67
X5.68Y25.84
X5.79Y20.03
X5.89Y20.64
X5.95Y24.19
X6.14Y14.18
X6.23Y13.58
X6.26Y5.18
X6.49Y20.74
X6.59Y21.34
X6.68Y27.76
X6.81Y10.95
X6.83Y13.52
X7.0Y17.18
X7.2Y26.12
X7.22Y30.17
X7.41Y10.96
X7.55Y21.8
X7.85Y22.4
X7.89Y11.33
X7.9Y16.3
X8.46Y25.37
X8.46Y24.43
X8.49Y27.73
X8.74Y19.45
X8.89Y17.28
X8.89Y15.29
X8.89Y9.36
X8.89Y7.36
X9.35Y10.96
X9.81Y11.35
X9.89Y16.3
X9.9Y27.68
X10.16Y2.54
X10.41Y11.35
X10.56Y30.17
X10.78Y21.69
X10.9Y17.18
X11.14Y21.21
X11.64Y20.38
X11.64Y14.18
X11.76Y20.97
X11.85Y23.68
X11.85Y22.83
X12.03Y13.71
X12.23Y26.13
X12.23Y20.53
X12.24Y14.28
X12.35Y14.88
X12.41Y8.36
X12.7Y23.67
X12.7Y22.83
X12.94Y15.0
X13.02Y19.87
X13.06Y15.59
X13.09Y19.27
X13.17Y7.13
X13.21Y21.17
X13.49Y20.63
X13.56Y27.3
X13.56Y26.6
X13.57Y19.63
X13.65Y15.7
X13.76Y16.29
X13.78Y21.74
X13.81Y9.03
X13.81Y7.13
X14.0Y17.22
X14.28Y22.09
X14.31Y8.43
X14.31Y7.73
X15.74Y25.4
X15.74Y20.32
X15.74Y12.7
T3
X1.27Y34.29
X1.27Y31.75
X1.27Y29.21
X1.27Y26.67
X1.27Y24.13
X1.27Y21.59
X1.27Y19.05
X1.27Y16.51
X1.27Y13.97
X1.27Y11.43
X1.27Y8.89
X1.27Y6.35
X1.27Y3.81
X1.27Y1.27
X3.81Y3.81
X3.81Y1.27
X6.35Y3.81
X6.35Y1.27
X8.89Y3.81
X8.89Y1.27
X11.43Y3.81
X11.43Y1.27
X13.97Y3.81
X13.97Y1.27
X16.51Y34.29
X16.51Y31.75
X16.51Y29.21
X16.51Y26.67
X16.51Y24.13
X16.51Y21.59
X16.51Y19.05
X16.51Y16.51
X16.51Y13.97
X16.51Y11.43
X16.51Y8.89
X16.51Y6.35
X16.51Y3.81
X16.51Y1.27
T2
G00X4.57Y33.67
M15
G01X4.57Y34.27
M16
G05
G00X4.57Y29.24
M15
G01X4.57Y30.34
M16
G05
G00X13.21Y33.67
M15
G01X13.21Y34.27
M16
G05
G00X13.21Y29.24
M15
G01X13.21Y30.34
M16
G05
T0
M30
