G04 #@! TF.GenerationSoftware,KiCad,Pcbnew,5.1.9-1.fc33*
G04 #@! TF.CreationDate,2021-01-31T22:08:49+01:00*
G04 #@! TF.ProjectId,reDIP-SID,72654449-502d-4534-9944-2e6b69636164,0.1*
G04 #@! TF.SameCoordinates,PX5e28010PY8011a50*
G04 #@! TF.FileFunction,Copper,L6,Bot*
G04 #@! TF.FilePolarity,Positive*
%FSLAX46Y46*%
G04 Gerber Fmt 4.6, Leading zero omitted, Abs format (unit mm)*
G04 Created by KiCad (PCBNEW 5.1.9-1.fc33) date 2021-01-31 22:08:49*
%MOMM*%
%LPD*%
G01*
G04 APERTURE LIST*
G04 #@! TA.AperFunction,ComponentPad*
%ADD10O,1.000000X2.100000*%
G04 #@! TD*
G04 #@! TA.AperFunction,ComponentPad*
%ADD11O,1.000000X1.600000*%
G04 #@! TD*
G04 #@! TA.AperFunction,ComponentPad*
%ADD12C,1.600000*%
G04 #@! TD*
G04 #@! TA.AperFunction,SMDPad,CuDef*
%ADD13C,0.750000*%
G04 #@! TD*
G04 #@! TA.AperFunction,ViaPad*
%ADD14C,0.450000*%
G04 #@! TD*
G04 #@! TA.AperFunction,Conductor*
%ADD15C,0.150000*%
G04 #@! TD*
G04 #@! TA.AperFunction,Conductor*
%ADD16C,0.200000*%
G04 #@! TD*
G04 #@! TA.AperFunction,Conductor*
%ADD17C,0.250000*%
G04 #@! TD*
G04 APERTURE END LIST*
G04 #@! TA.AperFunction,SMDPad,CuDef*
G36*
G01*
X3590000Y13090000D02*
X3590000Y11790000D01*
G75*
G02*
X3540000Y11740000I-50000J0D01*
G01*
X3440000Y11740000D01*
G75*
G02*
X3390000Y11790000I0J50000D01*
G01*
X3390000Y13090000D01*
G75*
G02*
X3440000Y13140000I50000J0D01*
G01*
X3540000Y13140000D01*
G75*
G02*
X3590000Y13090000I0J-50000D01*
G01*
G37*
G04 #@! TD.AperFunction*
G04 #@! TA.AperFunction,SMDPad,CuDef*
G36*
G01*
X3590000Y18990000D02*
X3590000Y17690000D01*
G75*
G02*
X3540000Y17640000I-50000J0D01*
G01*
X3440000Y17640000D01*
G75*
G02*
X3390000Y17690000I0J50000D01*
G01*
X3390000Y18990000D01*
G75*
G02*
X3440000Y19040000I50000J0D01*
G01*
X3540000Y19040000D01*
G75*
G02*
X3590000Y18990000I0J-50000D01*
G01*
G37*
G04 #@! TD.AperFunction*
G04 #@! TA.AperFunction,SMDPad,CuDef*
G36*
G01*
X3990000Y13090000D02*
X3990000Y11790000D01*
G75*
G02*
X3940000Y11740000I-50000J0D01*
G01*
X3840000Y11740000D01*
G75*
G02*
X3790000Y11790000I0J50000D01*
G01*
X3790000Y13090000D01*
G75*
G02*
X3840000Y13140000I50000J0D01*
G01*
X3940000Y13140000D01*
G75*
G02*
X3990000Y13090000I0J-50000D01*
G01*
G37*
G04 #@! TD.AperFunction*
G04 #@! TA.AperFunction,SMDPad,CuDef*
G36*
G01*
X3990000Y18990000D02*
X3990000Y17690000D01*
G75*
G02*
X3940000Y17640000I-50000J0D01*
G01*
X3840000Y17640000D01*
G75*
G02*
X3790000Y17690000I0J50000D01*
G01*
X3790000Y18990000D01*
G75*
G02*
X3840000Y19040000I50000J0D01*
G01*
X3940000Y19040000D01*
G75*
G02*
X3990000Y18990000I0J-50000D01*
G01*
G37*
G04 #@! TD.AperFunction*
G04 #@! TA.AperFunction,SMDPad,CuDef*
G36*
G01*
X4390000Y13090000D02*
X4390000Y11790000D01*
G75*
G02*
X4340000Y11740000I-50000J0D01*
G01*
X4240000Y11740000D01*
G75*
G02*
X4190000Y11790000I0J50000D01*
G01*
X4190000Y13090000D01*
G75*
G02*
X4240000Y13140000I50000J0D01*
G01*
X4340000Y13140000D01*
G75*
G02*
X4390000Y13090000I0J-50000D01*
G01*
G37*
G04 #@! TD.AperFunction*
G04 #@! TA.AperFunction,SMDPad,CuDef*
G36*
G01*
X4390000Y18990000D02*
X4390000Y17690000D01*
G75*
G02*
X4340000Y17640000I-50000J0D01*
G01*
X4240000Y17640000D01*
G75*
G02*
X4190000Y17690000I0J50000D01*
G01*
X4190000Y18990000D01*
G75*
G02*
X4240000Y19040000I50000J0D01*
G01*
X4340000Y19040000D01*
G75*
G02*
X4390000Y18990000I0J-50000D01*
G01*
G37*
G04 #@! TD.AperFunction*
G04 #@! TA.AperFunction,SMDPad,CuDef*
G36*
G01*
X4790000Y13090000D02*
X4790000Y11790000D01*
G75*
G02*
X4740000Y11740000I-50000J0D01*
G01*
X4640000Y11740000D01*
G75*
G02*
X4590000Y11790000I0J50000D01*
G01*
X4590000Y13090000D01*
G75*
G02*
X4640000Y13140000I50000J0D01*
G01*
X4740000Y13140000D01*
G75*
G02*
X4790000Y13090000I0J-50000D01*
G01*
G37*
G04 #@! TD.AperFunction*
G04 #@! TA.AperFunction,SMDPad,CuDef*
G36*
G01*
X4790000Y18990000D02*
X4790000Y17690000D01*
G75*
G02*
X4740000Y17640000I-50000J0D01*
G01*
X4640000Y17640000D01*
G75*
G02*
X4590000Y17690000I0J50000D01*
G01*
X4590000Y18990000D01*
G75*
G02*
X4640000Y19040000I50000J0D01*
G01*
X4740000Y19040000D01*
G75*
G02*
X4790000Y18990000I0J-50000D01*
G01*
G37*
G04 #@! TD.AperFunction*
G04 #@! TA.AperFunction,SMDPad,CuDef*
G36*
G01*
X5190000Y13090000D02*
X5190000Y11790000D01*
G75*
G02*
X5140000Y11740000I-50000J0D01*
G01*
X5040000Y11740000D01*
G75*
G02*
X4990000Y11790000I0J50000D01*
G01*
X4990000Y13090000D01*
G75*
G02*
X5040000Y13140000I50000J0D01*
G01*
X5140000Y13140000D01*
G75*
G02*
X5190000Y13090000I0J-50000D01*
G01*
G37*
G04 #@! TD.AperFunction*
G04 #@! TA.AperFunction,SMDPad,CuDef*
G36*
G01*
X5190000Y18990000D02*
X5190000Y17690000D01*
G75*
G02*
X5140000Y17640000I-50000J0D01*
G01*
X5040000Y17640000D01*
G75*
G02*
X4990000Y17690000I0J50000D01*
G01*
X4990000Y18990000D01*
G75*
G02*
X5040000Y19040000I50000J0D01*
G01*
X5140000Y19040000D01*
G75*
G02*
X5190000Y18990000I0J-50000D01*
G01*
G37*
G04 #@! TD.AperFunction*
G04 #@! TA.AperFunction,SMDPad,CuDef*
G36*
G01*
X5590000Y13090000D02*
X5590000Y11790000D01*
G75*
G02*
X5540000Y11740000I-50000J0D01*
G01*
X5440000Y11740000D01*
G75*
G02*
X5390000Y11790000I0J50000D01*
G01*
X5390000Y13090000D01*
G75*
G02*
X5440000Y13140000I50000J0D01*
G01*
X5540000Y13140000D01*
G75*
G02*
X5590000Y13090000I0J-50000D01*
G01*
G37*
G04 #@! TD.AperFunction*
G04 #@! TA.AperFunction,SMDPad,CuDef*
G36*
G01*
X5590000Y18990000D02*
X5590000Y17690000D01*
G75*
G02*
X5540000Y17640000I-50000J0D01*
G01*
X5440000Y17640000D01*
G75*
G02*
X5390000Y17690000I0J50000D01*
G01*
X5390000Y18990000D01*
G75*
G02*
X5440000Y19040000I50000J0D01*
G01*
X5540000Y19040000D01*
G75*
G02*
X5590000Y18990000I0J-50000D01*
G01*
G37*
G04 #@! TD.AperFunction*
G04 #@! TA.AperFunction,SMDPad,CuDef*
G36*
G01*
X5990000Y13090000D02*
X5990000Y11790000D01*
G75*
G02*
X5940000Y11740000I-50000J0D01*
G01*
X5840000Y11740000D01*
G75*
G02*
X5790000Y11790000I0J50000D01*
G01*
X5790000Y13090000D01*
G75*
G02*
X5840000Y13140000I50000J0D01*
G01*
X5940000Y13140000D01*
G75*
G02*
X5990000Y13090000I0J-50000D01*
G01*
G37*
G04 #@! TD.AperFunction*
G04 #@! TA.AperFunction,SMDPad,CuDef*
G36*
G01*
X5990000Y18990000D02*
X5990000Y17690000D01*
G75*
G02*
X5940000Y17640000I-50000J0D01*
G01*
X5840000Y17640000D01*
G75*
G02*
X5790000Y17690000I0J50000D01*
G01*
X5790000Y18990000D01*
G75*
G02*
X5840000Y19040000I50000J0D01*
G01*
X5940000Y19040000D01*
G75*
G02*
X5990000Y18990000I0J-50000D01*
G01*
G37*
G04 #@! TD.AperFunction*
G04 #@! TA.AperFunction,SMDPad,CuDef*
G36*
G01*
X6390000Y13090000D02*
X6390000Y11790000D01*
G75*
G02*
X6340000Y11740000I-50000J0D01*
G01*
X6240000Y11740000D01*
G75*
G02*
X6190000Y11790000I0J50000D01*
G01*
X6190000Y13090000D01*
G75*
G02*
X6240000Y13140000I50000J0D01*
G01*
X6340000Y13140000D01*
G75*
G02*
X6390000Y13090000I0J-50000D01*
G01*
G37*
G04 #@! TD.AperFunction*
G04 #@! TA.AperFunction,SMDPad,CuDef*
G36*
G01*
X6390000Y18990000D02*
X6390000Y17690000D01*
G75*
G02*
X6340000Y17640000I-50000J0D01*
G01*
X6240000Y17640000D01*
G75*
G02*
X6190000Y17690000I0J50000D01*
G01*
X6190000Y18990000D01*
G75*
G02*
X6240000Y19040000I50000J0D01*
G01*
X6340000Y19040000D01*
G75*
G02*
X6390000Y18990000I0J-50000D01*
G01*
G37*
G04 #@! TD.AperFunction*
G04 #@! TA.AperFunction,SMDPad,CuDef*
G36*
G01*
X6790000Y13090000D02*
X6790000Y11790000D01*
G75*
G02*
X6740000Y11740000I-50000J0D01*
G01*
X6640000Y11740000D01*
G75*
G02*
X6590000Y11790000I0J50000D01*
G01*
X6590000Y13090000D01*
G75*
G02*
X6640000Y13140000I50000J0D01*
G01*
X6740000Y13140000D01*
G75*
G02*
X6790000Y13090000I0J-50000D01*
G01*
G37*
G04 #@! TD.AperFunction*
G04 #@! TA.AperFunction,SMDPad,CuDef*
G36*
G01*
X6790000Y18990000D02*
X6790000Y17690000D01*
G75*
G02*
X6740000Y17640000I-50000J0D01*
G01*
X6640000Y17640000D01*
G75*
G02*
X6590000Y17690000I0J50000D01*
G01*
X6590000Y18990000D01*
G75*
G02*
X6640000Y19040000I50000J0D01*
G01*
X6740000Y19040000D01*
G75*
G02*
X6790000Y18990000I0J-50000D01*
G01*
G37*
G04 #@! TD.AperFunction*
G04 #@! TA.AperFunction,SMDPad,CuDef*
G36*
G01*
X7190000Y13090000D02*
X7190000Y11790000D01*
G75*
G02*
X7140000Y11740000I-50000J0D01*
G01*
X7040000Y11740000D01*
G75*
G02*
X6990000Y11790000I0J50000D01*
G01*
X6990000Y13090000D01*
G75*
G02*
X7040000Y13140000I50000J0D01*
G01*
X7140000Y13140000D01*
G75*
G02*
X7190000Y13090000I0J-50000D01*
G01*
G37*
G04 #@! TD.AperFunction*
G04 #@! TA.AperFunction,SMDPad,CuDef*
G36*
G01*
X7190000Y18990000D02*
X7190000Y17690000D01*
G75*
G02*
X7140000Y17640000I-50000J0D01*
G01*
X7040000Y17640000D01*
G75*
G02*
X6990000Y17690000I0J50000D01*
G01*
X6990000Y18990000D01*
G75*
G02*
X7040000Y19040000I50000J0D01*
G01*
X7140000Y19040000D01*
G75*
G02*
X7190000Y18990000I0J-50000D01*
G01*
G37*
G04 #@! TD.AperFunction*
G04 #@! TA.AperFunction,SMDPad,CuDef*
G36*
G01*
X7590000Y13090000D02*
X7590000Y11790000D01*
G75*
G02*
X7540000Y11740000I-50000J0D01*
G01*
X7440000Y11740000D01*
G75*
G02*
X7390000Y11790000I0J50000D01*
G01*
X7390000Y13090000D01*
G75*
G02*
X7440000Y13140000I50000J0D01*
G01*
X7540000Y13140000D01*
G75*
G02*
X7590000Y13090000I0J-50000D01*
G01*
G37*
G04 #@! TD.AperFunction*
G04 #@! TA.AperFunction,SMDPad,CuDef*
G36*
G01*
X7590000Y18990000D02*
X7590000Y17690000D01*
G75*
G02*
X7540000Y17640000I-50000J0D01*
G01*
X7440000Y17640000D01*
G75*
G02*
X7390000Y17690000I0J50000D01*
G01*
X7390000Y18990000D01*
G75*
G02*
X7440000Y19040000I50000J0D01*
G01*
X7540000Y19040000D01*
G75*
G02*
X7590000Y18990000I0J-50000D01*
G01*
G37*
G04 #@! TD.AperFunction*
G04 #@! TA.AperFunction,SMDPad,CuDef*
G36*
G01*
X7990000Y13090000D02*
X7990000Y11790000D01*
G75*
G02*
X7940000Y11740000I-50000J0D01*
G01*
X7840000Y11740000D01*
G75*
G02*
X7790000Y11790000I0J50000D01*
G01*
X7790000Y13090000D01*
G75*
G02*
X7840000Y13140000I50000J0D01*
G01*
X7940000Y13140000D01*
G75*
G02*
X7990000Y13090000I0J-50000D01*
G01*
G37*
G04 #@! TD.AperFunction*
G04 #@! TA.AperFunction,SMDPad,CuDef*
G36*
G01*
X7990000Y18990000D02*
X7990000Y17690000D01*
G75*
G02*
X7940000Y17640000I-50000J0D01*
G01*
X7840000Y17640000D01*
G75*
G02*
X7790000Y17690000I0J50000D01*
G01*
X7790000Y18990000D01*
G75*
G02*
X7840000Y19040000I50000J0D01*
G01*
X7940000Y19040000D01*
G75*
G02*
X7990000Y18990000I0J-50000D01*
G01*
G37*
G04 #@! TD.AperFunction*
G04 #@! TA.AperFunction,SMDPad,CuDef*
G36*
G01*
X8390000Y13090000D02*
X8390000Y11790000D01*
G75*
G02*
X8340000Y11740000I-50000J0D01*
G01*
X8240000Y11740000D01*
G75*
G02*
X8190000Y11790000I0J50000D01*
G01*
X8190000Y13090000D01*
G75*
G02*
X8240000Y13140000I50000J0D01*
G01*
X8340000Y13140000D01*
G75*
G02*
X8390000Y13090000I0J-50000D01*
G01*
G37*
G04 #@! TD.AperFunction*
G04 #@! TA.AperFunction,SMDPad,CuDef*
G36*
G01*
X8390000Y18990000D02*
X8390000Y17690000D01*
G75*
G02*
X8340000Y17640000I-50000J0D01*
G01*
X8240000Y17640000D01*
G75*
G02*
X8190000Y17690000I0J50000D01*
G01*
X8190000Y18990000D01*
G75*
G02*
X8240000Y19040000I50000J0D01*
G01*
X8340000Y19040000D01*
G75*
G02*
X8390000Y18990000I0J-50000D01*
G01*
G37*
G04 #@! TD.AperFunction*
G04 #@! TA.AperFunction,SMDPad,CuDef*
G36*
G01*
X8790000Y13090000D02*
X8790000Y11790000D01*
G75*
G02*
X8740000Y11740000I-50000J0D01*
G01*
X8640000Y11740000D01*
G75*
G02*
X8590000Y11790000I0J50000D01*
G01*
X8590000Y13090000D01*
G75*
G02*
X8640000Y13140000I50000J0D01*
G01*
X8740000Y13140000D01*
G75*
G02*
X8790000Y13090000I0J-50000D01*
G01*
G37*
G04 #@! TD.AperFunction*
G04 #@! TA.AperFunction,SMDPad,CuDef*
G36*
G01*
X8790000Y18990000D02*
X8790000Y17690000D01*
G75*
G02*
X8740000Y17640000I-50000J0D01*
G01*
X8640000Y17640000D01*
G75*
G02*
X8590000Y17690000I0J50000D01*
G01*
X8590000Y18990000D01*
G75*
G02*
X8640000Y19040000I50000J0D01*
G01*
X8740000Y19040000D01*
G75*
G02*
X8790000Y18990000I0J-50000D01*
G01*
G37*
G04 #@! TD.AperFunction*
G04 #@! TA.AperFunction,SMDPad,CuDef*
G36*
G01*
X9190000Y13090000D02*
X9190000Y11790000D01*
G75*
G02*
X9140000Y11740000I-50000J0D01*
G01*
X9040000Y11740000D01*
G75*
G02*
X8990000Y11790000I0J50000D01*
G01*
X8990000Y13090000D01*
G75*
G02*
X9040000Y13140000I50000J0D01*
G01*
X9140000Y13140000D01*
G75*
G02*
X9190000Y13090000I0J-50000D01*
G01*
G37*
G04 #@! TD.AperFunction*
G04 #@! TA.AperFunction,SMDPad,CuDef*
G36*
G01*
X9190000Y18990000D02*
X9190000Y17690000D01*
G75*
G02*
X9140000Y17640000I-50000J0D01*
G01*
X9040000Y17640000D01*
G75*
G02*
X8990000Y17690000I0J50000D01*
G01*
X8990000Y18990000D01*
G75*
G02*
X9040000Y19040000I50000J0D01*
G01*
X9140000Y19040000D01*
G75*
G02*
X9190000Y18990000I0J-50000D01*
G01*
G37*
G04 #@! TD.AperFunction*
G04 #@! TA.AperFunction,SMDPad,CuDef*
G36*
G01*
X9590000Y13090000D02*
X9590000Y11790000D01*
G75*
G02*
X9540000Y11740000I-50000J0D01*
G01*
X9440000Y11740000D01*
G75*
G02*
X9390000Y11790000I0J50000D01*
G01*
X9390000Y13090000D01*
G75*
G02*
X9440000Y13140000I50000J0D01*
G01*
X9540000Y13140000D01*
G75*
G02*
X9590000Y13090000I0J-50000D01*
G01*
G37*
G04 #@! TD.AperFunction*
G04 #@! TA.AperFunction,SMDPad,CuDef*
G36*
G01*
X9590000Y18990000D02*
X9590000Y17690000D01*
G75*
G02*
X9540000Y17640000I-50000J0D01*
G01*
X9440000Y17640000D01*
G75*
G02*
X9390000Y17690000I0J50000D01*
G01*
X9390000Y18990000D01*
G75*
G02*
X9440000Y19040000I50000J0D01*
G01*
X9540000Y19040000D01*
G75*
G02*
X9590000Y18990000I0J-50000D01*
G01*
G37*
G04 #@! TD.AperFunction*
G04 #@! TA.AperFunction,SMDPad,CuDef*
G36*
G01*
X9990000Y13090000D02*
X9990000Y11790000D01*
G75*
G02*
X9940000Y11740000I-50000J0D01*
G01*
X9840000Y11740000D01*
G75*
G02*
X9790000Y11790000I0J50000D01*
G01*
X9790000Y13090000D01*
G75*
G02*
X9840000Y13140000I50000J0D01*
G01*
X9940000Y13140000D01*
G75*
G02*
X9990000Y13090000I0J-50000D01*
G01*
G37*
G04 #@! TD.AperFunction*
G04 #@! TA.AperFunction,SMDPad,CuDef*
G36*
G01*
X9990000Y18990000D02*
X9990000Y17690000D01*
G75*
G02*
X9940000Y17640000I-50000J0D01*
G01*
X9840000Y17640000D01*
G75*
G02*
X9790000Y17690000I0J50000D01*
G01*
X9790000Y18990000D01*
G75*
G02*
X9840000Y19040000I50000J0D01*
G01*
X9940000Y19040000D01*
G75*
G02*
X9990000Y18990000I0J-50000D01*
G01*
G37*
G04 #@! TD.AperFunction*
G04 #@! TA.AperFunction,SMDPad,CuDef*
G36*
G01*
X10390000Y13090000D02*
X10390000Y11790000D01*
G75*
G02*
X10340000Y11740000I-50000J0D01*
G01*
X10240000Y11740000D01*
G75*
G02*
X10190000Y11790000I0J50000D01*
G01*
X10190000Y13090000D01*
G75*
G02*
X10240000Y13140000I50000J0D01*
G01*
X10340000Y13140000D01*
G75*
G02*
X10390000Y13090000I0J-50000D01*
G01*
G37*
G04 #@! TD.AperFunction*
G04 #@! TA.AperFunction,SMDPad,CuDef*
G36*
G01*
X10390000Y18990000D02*
X10390000Y17690000D01*
G75*
G02*
X10340000Y17640000I-50000J0D01*
G01*
X10240000Y17640000D01*
G75*
G02*
X10190000Y17690000I0J50000D01*
G01*
X10190000Y18990000D01*
G75*
G02*
X10240000Y19040000I50000J0D01*
G01*
X10340000Y19040000D01*
G75*
G02*
X10390000Y18990000I0J-50000D01*
G01*
G37*
G04 #@! TD.AperFunction*
G04 #@! TA.AperFunction,SMDPad,CuDef*
G36*
G01*
X10790000Y13090000D02*
X10790000Y11790000D01*
G75*
G02*
X10740000Y11740000I-50000J0D01*
G01*
X10640000Y11740000D01*
G75*
G02*
X10590000Y11790000I0J50000D01*
G01*
X10590000Y13090000D01*
G75*
G02*
X10640000Y13140000I50000J0D01*
G01*
X10740000Y13140000D01*
G75*
G02*
X10790000Y13090000I0J-50000D01*
G01*
G37*
G04 #@! TD.AperFunction*
G04 #@! TA.AperFunction,SMDPad,CuDef*
G36*
G01*
X10790000Y18990000D02*
X10790000Y17690000D01*
G75*
G02*
X10740000Y17640000I-50000J0D01*
G01*
X10640000Y17640000D01*
G75*
G02*
X10590000Y17690000I0J50000D01*
G01*
X10590000Y18990000D01*
G75*
G02*
X10640000Y19040000I50000J0D01*
G01*
X10740000Y19040000D01*
G75*
G02*
X10790000Y18990000I0J-50000D01*
G01*
G37*
G04 #@! TD.AperFunction*
G04 #@! TA.AperFunction,SMDPad,CuDef*
G36*
G01*
X11190000Y13090000D02*
X11190000Y11790000D01*
G75*
G02*
X11140000Y11740000I-50000J0D01*
G01*
X11040000Y11740000D01*
G75*
G02*
X10990000Y11790000I0J50000D01*
G01*
X10990000Y13090000D01*
G75*
G02*
X11040000Y13140000I50000J0D01*
G01*
X11140000Y13140000D01*
G75*
G02*
X11190000Y13090000I0J-50000D01*
G01*
G37*
G04 #@! TD.AperFunction*
G04 #@! TA.AperFunction,SMDPad,CuDef*
G36*
G01*
X11190000Y18990000D02*
X11190000Y17690000D01*
G75*
G02*
X11140000Y17640000I-50000J0D01*
G01*
X11040000Y17640000D01*
G75*
G02*
X10990000Y17690000I0J50000D01*
G01*
X10990000Y18990000D01*
G75*
G02*
X11040000Y19040000I50000J0D01*
G01*
X11140000Y19040000D01*
G75*
G02*
X11190000Y18990000I0J-50000D01*
G01*
G37*
G04 #@! TD.AperFunction*
G04 #@! TA.AperFunction,SMDPad,CuDef*
G36*
G01*
X11590000Y13090000D02*
X11590000Y11790000D01*
G75*
G02*
X11540000Y11740000I-50000J0D01*
G01*
X11440000Y11740000D01*
G75*
G02*
X11390000Y11790000I0J50000D01*
G01*
X11390000Y13090000D01*
G75*
G02*
X11440000Y13140000I50000J0D01*
G01*
X11540000Y13140000D01*
G75*
G02*
X11590000Y13090000I0J-50000D01*
G01*
G37*
G04 #@! TD.AperFunction*
G04 #@! TA.AperFunction,SMDPad,CuDef*
G36*
G01*
X11590000Y18990000D02*
X11590000Y17690000D01*
G75*
G02*
X11540000Y17640000I-50000J0D01*
G01*
X11440000Y17640000D01*
G75*
G02*
X11390000Y17690000I0J50000D01*
G01*
X11390000Y18990000D01*
G75*
G02*
X11440000Y19040000I50000J0D01*
G01*
X11540000Y19040000D01*
G75*
G02*
X11590000Y18990000I0J-50000D01*
G01*
G37*
G04 #@! TD.AperFunction*
G04 #@! TA.AperFunction,SMDPad,CuDef*
G36*
G01*
X11990000Y13090000D02*
X11990000Y11790000D01*
G75*
G02*
X11940000Y11740000I-50000J0D01*
G01*
X11840000Y11740000D01*
G75*
G02*
X11790000Y11790000I0J50000D01*
G01*
X11790000Y13090000D01*
G75*
G02*
X11840000Y13140000I50000J0D01*
G01*
X11940000Y13140000D01*
G75*
G02*
X11990000Y13090000I0J-50000D01*
G01*
G37*
G04 #@! TD.AperFunction*
G04 #@! TA.AperFunction,SMDPad,CuDef*
G36*
G01*
X11990000Y18990000D02*
X11990000Y17690000D01*
G75*
G02*
X11940000Y17640000I-50000J0D01*
G01*
X11840000Y17640000D01*
G75*
G02*
X11790000Y17690000I0J50000D01*
G01*
X11790000Y18990000D01*
G75*
G02*
X11840000Y19040000I50000J0D01*
G01*
X11940000Y19040000D01*
G75*
G02*
X11990000Y18990000I0J-50000D01*
G01*
G37*
G04 #@! TD.AperFunction*
G04 #@! TA.AperFunction,SMDPad,CuDef*
G36*
G01*
X12390000Y13090000D02*
X12390000Y11790000D01*
G75*
G02*
X12340000Y11740000I-50000J0D01*
G01*
X12240000Y11740000D01*
G75*
G02*
X12190000Y11790000I0J50000D01*
G01*
X12190000Y13090000D01*
G75*
G02*
X12240000Y13140000I50000J0D01*
G01*
X12340000Y13140000D01*
G75*
G02*
X12390000Y13090000I0J-50000D01*
G01*
G37*
G04 #@! TD.AperFunction*
G04 #@! TA.AperFunction,SMDPad,CuDef*
G36*
G01*
X12390000Y18990000D02*
X12390000Y17690000D01*
G75*
G02*
X12340000Y17640000I-50000J0D01*
G01*
X12240000Y17640000D01*
G75*
G02*
X12190000Y17690000I0J50000D01*
G01*
X12190000Y18990000D01*
G75*
G02*
X12240000Y19040000I50000J0D01*
G01*
X12340000Y19040000D01*
G75*
G02*
X12390000Y18990000I0J-50000D01*
G01*
G37*
G04 #@! TD.AperFunction*
G04 #@! TA.AperFunction,SMDPad,CuDef*
G36*
G01*
X12790000Y13090000D02*
X12790000Y11790000D01*
G75*
G02*
X12740000Y11740000I-50000J0D01*
G01*
X12640000Y11740000D01*
G75*
G02*
X12590000Y11790000I0J50000D01*
G01*
X12590000Y13090000D01*
G75*
G02*
X12640000Y13140000I50000J0D01*
G01*
X12740000Y13140000D01*
G75*
G02*
X12790000Y13090000I0J-50000D01*
G01*
G37*
G04 #@! TD.AperFunction*
G04 #@! TA.AperFunction,SMDPad,CuDef*
G36*
G01*
X12790000Y18990000D02*
X12790000Y17690000D01*
G75*
G02*
X12740000Y17640000I-50000J0D01*
G01*
X12640000Y17640000D01*
G75*
G02*
X12590000Y17690000I0J50000D01*
G01*
X12590000Y18990000D01*
G75*
G02*
X12640000Y19040000I50000J0D01*
G01*
X12740000Y19040000D01*
G75*
G02*
X12790000Y18990000I0J-50000D01*
G01*
G37*
G04 #@! TD.AperFunction*
G04 #@! TA.AperFunction,SMDPad,CuDef*
G36*
G01*
X13190000Y13090000D02*
X13190000Y11790000D01*
G75*
G02*
X13140000Y11740000I-50000J0D01*
G01*
X13040000Y11740000D01*
G75*
G02*
X12990000Y11790000I0J50000D01*
G01*
X12990000Y13090000D01*
G75*
G02*
X13040000Y13140000I50000J0D01*
G01*
X13140000Y13140000D01*
G75*
G02*
X13190000Y13090000I0J-50000D01*
G01*
G37*
G04 #@! TD.AperFunction*
G04 #@! TA.AperFunction,SMDPad,CuDef*
G36*
G01*
X13190000Y18990000D02*
X13190000Y17690000D01*
G75*
G02*
X13140000Y17640000I-50000J0D01*
G01*
X13040000Y17640000D01*
G75*
G02*
X12990000Y17690000I0J50000D01*
G01*
X12990000Y18990000D01*
G75*
G02*
X13040000Y19040000I50000J0D01*
G01*
X13140000Y19040000D01*
G75*
G02*
X13190000Y18990000I0J-50000D01*
G01*
G37*
G04 #@! TD.AperFunction*
G04 #@! TA.AperFunction,SMDPad,CuDef*
G36*
G01*
X13590000Y13090000D02*
X13590000Y11790000D01*
G75*
G02*
X13540000Y11740000I-50000J0D01*
G01*
X13440000Y11740000D01*
G75*
G02*
X13390000Y11790000I0J50000D01*
G01*
X13390000Y13090000D01*
G75*
G02*
X13440000Y13140000I50000J0D01*
G01*
X13540000Y13140000D01*
G75*
G02*
X13590000Y13090000I0J-50000D01*
G01*
G37*
G04 #@! TD.AperFunction*
G04 #@! TA.AperFunction,SMDPad,CuDef*
G36*
G01*
X13590000Y18990000D02*
X13590000Y17690000D01*
G75*
G02*
X13540000Y17640000I-50000J0D01*
G01*
X13440000Y17640000D01*
G75*
G02*
X13390000Y17690000I0J50000D01*
G01*
X13390000Y18990000D01*
G75*
G02*
X13440000Y19040000I50000J0D01*
G01*
X13540000Y19040000D01*
G75*
G02*
X13590000Y18990000I0J-50000D01*
G01*
G37*
G04 #@! TD.AperFunction*
G04 #@! TA.AperFunction,SMDPad,CuDef*
G36*
G01*
X13990000Y13090000D02*
X13990000Y11790000D01*
G75*
G02*
X13940000Y11740000I-50000J0D01*
G01*
X13840000Y11740000D01*
G75*
G02*
X13790000Y11790000I0J50000D01*
G01*
X13790000Y13090000D01*
G75*
G02*
X13840000Y13140000I50000J0D01*
G01*
X13940000Y13140000D01*
G75*
G02*
X13990000Y13090000I0J-50000D01*
G01*
G37*
G04 #@! TD.AperFunction*
G04 #@! TA.AperFunction,SMDPad,CuDef*
G36*
G01*
X13990000Y18990000D02*
X13990000Y17690000D01*
G75*
G02*
X13940000Y17640000I-50000J0D01*
G01*
X13840000Y17640000D01*
G75*
G02*
X13790000Y17690000I0J50000D01*
G01*
X13790000Y18990000D01*
G75*
G02*
X13840000Y19040000I50000J0D01*
G01*
X13940000Y19040000D01*
G75*
G02*
X13990000Y18990000I0J-50000D01*
G01*
G37*
G04 #@! TD.AperFunction*
G04 #@! TA.AperFunction,SMDPad,CuDef*
G36*
G01*
X14390000Y13090000D02*
X14390000Y11790000D01*
G75*
G02*
X14340000Y11740000I-50000J0D01*
G01*
X14240000Y11740000D01*
G75*
G02*
X14190000Y11790000I0J50000D01*
G01*
X14190000Y13090000D01*
G75*
G02*
X14240000Y13140000I50000J0D01*
G01*
X14340000Y13140000D01*
G75*
G02*
X14390000Y13090000I0J-50000D01*
G01*
G37*
G04 #@! TD.AperFunction*
G04 #@! TA.AperFunction,SMDPad,CuDef*
G36*
G01*
X14390000Y18990000D02*
X14390000Y17690000D01*
G75*
G02*
X14340000Y17640000I-50000J0D01*
G01*
X14240000Y17640000D01*
G75*
G02*
X14190000Y17690000I0J50000D01*
G01*
X14190000Y18990000D01*
G75*
G02*
X14240000Y19040000I50000J0D01*
G01*
X14340000Y19040000D01*
G75*
G02*
X14390000Y18990000I0J-50000D01*
G01*
G37*
G04 #@! TD.AperFunction*
G04 #@! TA.AperFunction,SMDPad,CuDef*
G36*
G01*
X4185000Y26520000D02*
X4555000Y26520000D01*
G75*
G02*
X4690000Y26385000I0J-135000D01*
G01*
X4690000Y26115000D01*
G75*
G02*
X4555000Y25980000I-135000J0D01*
G01*
X4185000Y25980000D01*
G75*
G02*
X4050000Y26115000I0J135000D01*
G01*
X4050000Y26385000D01*
G75*
G02*
X4185000Y26520000I135000J0D01*
G01*
G37*
G04 #@! TD.AperFunction*
G04 #@! TA.AperFunction,SMDPad,CuDef*
G36*
G01*
X4185000Y27540000D02*
X4555000Y27540000D01*
G75*
G02*
X4690000Y27405000I0J-135000D01*
G01*
X4690000Y27135000D01*
G75*
G02*
X4555000Y27000000I-135000J0D01*
G01*
X4185000Y27000000D01*
G75*
G02*
X4050000Y27135000I0J135000D01*
G01*
X4050000Y27405000D01*
G75*
G02*
X4185000Y27540000I135000J0D01*
G01*
G37*
G04 #@! TD.AperFunction*
D10*
X4570000Y29790000D03*
X13210000Y29790000D03*
D11*
X13210000Y33970000D03*
X4570000Y33970000D03*
D12*
X16510000Y1270000D03*
X16510000Y3810000D03*
X16510000Y6350000D03*
X16510000Y8890000D03*
X16510000Y11430000D03*
X16510000Y13970000D03*
X16510000Y16510000D03*
X16510000Y19050000D03*
X16510000Y21590000D03*
X16510000Y24130000D03*
X3810000Y1270000D03*
X3810000Y3810000D03*
X6350000Y1270000D03*
X6350000Y3810000D03*
X8890000Y1270000D03*
X8890000Y3810000D03*
X11430000Y1270000D03*
X11430000Y3810000D03*
X13970000Y1270000D03*
X13970000Y3810000D03*
X1270000Y1270000D03*
X1270000Y3810000D03*
X1270000Y6350000D03*
X1270000Y8890000D03*
X1270000Y11430000D03*
X1270000Y13970000D03*
X1270000Y16510000D03*
X1270000Y19050000D03*
X1270000Y21590000D03*
X1270000Y24130000D03*
G04 #@! TA.AperFunction,SMDPad,CuDef*
G36*
G01*
X10690000Y6305000D02*
X10690000Y6605000D01*
G75*
G02*
X10840000Y6755000I150000J0D01*
G01*
X12190000Y6755000D01*
G75*
G02*
X12340000Y6605000I0J-150000D01*
G01*
X12340000Y6305000D01*
G75*
G02*
X12190000Y6155000I-150000J0D01*
G01*
X10840000Y6155000D01*
G75*
G02*
X10690000Y6305000I0J150000D01*
G01*
G37*
G04 #@! TD.AperFunction*
G04 #@! TA.AperFunction,SMDPad,CuDef*
G36*
G01*
X10690000Y7575000D02*
X10690000Y7875000D01*
G75*
G02*
X10840000Y8025000I150000J0D01*
G01*
X12190000Y8025000D01*
G75*
G02*
X12340000Y7875000I0J-150000D01*
G01*
X12340000Y7575000D01*
G75*
G02*
X12190000Y7425000I-150000J0D01*
G01*
X10840000Y7425000D01*
G75*
G02*
X10690000Y7575000I0J150000D01*
G01*
G37*
G04 #@! TD.AperFunction*
G04 #@! TA.AperFunction,SMDPad,CuDef*
G36*
G01*
X10690000Y8845000D02*
X10690000Y9145000D01*
G75*
G02*
X10840000Y9295000I150000J0D01*
G01*
X12190000Y9295000D01*
G75*
G02*
X12340000Y9145000I0J-150000D01*
G01*
X12340000Y8845000D01*
G75*
G02*
X12190000Y8695000I-150000J0D01*
G01*
X10840000Y8695000D01*
G75*
G02*
X10690000Y8845000I0J150000D01*
G01*
G37*
G04 #@! TD.AperFunction*
G04 #@! TA.AperFunction,SMDPad,CuDef*
G36*
G01*
X10690000Y10115000D02*
X10690000Y10415000D01*
G75*
G02*
X10840000Y10565000I150000J0D01*
G01*
X12190000Y10565000D01*
G75*
G02*
X12340000Y10415000I0J-150000D01*
G01*
X12340000Y10115000D01*
G75*
G02*
X12190000Y9965000I-150000J0D01*
G01*
X10840000Y9965000D01*
G75*
G02*
X10690000Y10115000I0J150000D01*
G01*
G37*
G04 #@! TD.AperFunction*
G04 #@! TA.AperFunction,SMDPad,CuDef*
G36*
G01*
X5440000Y10115000D02*
X5440000Y10415000D01*
G75*
G02*
X5590000Y10565000I150000J0D01*
G01*
X6940000Y10565000D01*
G75*
G02*
X7090000Y10415000I0J-150000D01*
G01*
X7090000Y10115000D01*
G75*
G02*
X6940000Y9965000I-150000J0D01*
G01*
X5590000Y9965000D01*
G75*
G02*
X5440000Y10115000I0J150000D01*
G01*
G37*
G04 #@! TD.AperFunction*
G04 #@! TA.AperFunction,SMDPad,CuDef*
G36*
G01*
X5440000Y8845000D02*
X5440000Y9145000D01*
G75*
G02*
X5590000Y9295000I150000J0D01*
G01*
X6940000Y9295000D01*
G75*
G02*
X7090000Y9145000I0J-150000D01*
G01*
X7090000Y8845000D01*
G75*
G02*
X6940000Y8695000I-150000J0D01*
G01*
X5590000Y8695000D01*
G75*
G02*
X5440000Y8845000I0J150000D01*
G01*
G37*
G04 #@! TD.AperFunction*
G04 #@! TA.AperFunction,SMDPad,CuDef*
G36*
G01*
X5440000Y7575000D02*
X5440000Y7875000D01*
G75*
G02*
X5590000Y8025000I150000J0D01*
G01*
X6940000Y8025000D01*
G75*
G02*
X7090000Y7875000I0J-150000D01*
G01*
X7090000Y7575000D01*
G75*
G02*
X6940000Y7425000I-150000J0D01*
G01*
X5590000Y7425000D01*
G75*
G02*
X5440000Y7575000I0J150000D01*
G01*
G37*
G04 #@! TD.AperFunction*
G04 #@! TA.AperFunction,SMDPad,CuDef*
G36*
G01*
X5440000Y6305000D02*
X5440000Y6605000D01*
G75*
G02*
X5590000Y6755000I150000J0D01*
G01*
X6940000Y6755000D01*
G75*
G02*
X7090000Y6605000I0J-150000D01*
G01*
X7090000Y6305000D01*
G75*
G02*
X6940000Y6155000I-150000J0D01*
G01*
X5590000Y6155000D01*
G75*
G02*
X5440000Y6305000I0J150000D01*
G01*
G37*
G04 #@! TD.AperFunction*
X16510000Y26670000D03*
X16510000Y29210000D03*
X16510000Y31750000D03*
X16510000Y34290000D03*
X1270000Y26670000D03*
X1270000Y29210000D03*
X1270000Y31750000D03*
X1270000Y34290000D03*
D13*
X10590000Y22670000D03*
X10590000Y20670000D03*
X6190000Y25070000D03*
D14*
X12270000Y23250000D03*
X8890000Y7360000D03*
X7200000Y26120000D03*
X8890000Y9360000D03*
X12700000Y23670000D03*
X11850000Y22830000D03*
X12700000Y22830000D03*
X11850000Y23680000D03*
X9890000Y16300000D03*
X10900000Y17180000D03*
X8890000Y15290000D03*
X7900000Y16300000D03*
X7000000Y17180000D03*
X6260000Y5180000D03*
X15740000Y25400000D03*
X8740000Y19450000D03*
X3380000Y15240000D03*
X13550000Y15100000D03*
X15740000Y20320000D03*
X8890000Y17280000D03*
X2980000Y18570000D03*
X8460000Y25370000D03*
X4440000Y20340000D03*
X9900000Y27680000D03*
X13810000Y7130000D03*
X6680000Y27760000D03*
X13810000Y9030000D03*
X5350000Y24040000D03*
X4750000Y24040000D03*
X4150000Y24040000D03*
X3550000Y24040000D03*
X3850000Y23520000D03*
X4450000Y23520000D03*
X5050000Y23520000D03*
X5650000Y23520000D03*
X5950000Y24040000D03*
X3280000Y27770000D03*
X3880000Y27770000D03*
X4740000Y9620000D03*
X13170000Y7130000D03*
X12230000Y26130000D03*
X6830000Y13520000D03*
X13780000Y21740000D03*
X14000000Y17220000D03*
X3990000Y19890000D03*
X2980000Y19170000D03*
X3750000Y25800000D03*
X3150000Y25800000D03*
X13490000Y20630000D03*
X5550000Y14300000D03*
X5550000Y25710000D03*
X8490000Y27730000D03*
X10560000Y30170000D03*
X7220000Y30170000D03*
X11760000Y20970000D03*
X11640000Y20380000D03*
X9810000Y11350000D03*
X10410000Y11350000D03*
X12230000Y14290000D03*
X7410000Y10960000D03*
X2970000Y13030000D03*
X13570000Y19630000D03*
X13090000Y19270000D03*
X13060000Y15590000D03*
X12940000Y15000000D03*
X12350000Y14880000D03*
X6230000Y13580000D03*
X6140000Y14180000D03*
X2970000Y11810000D03*
X3840000Y15640000D03*
X4370000Y15940000D03*
X4480000Y15340000D03*
X5080000Y15240000D03*
X2970000Y12420000D03*
X13650000Y15700000D03*
X13760000Y16290000D03*
X13020000Y19870000D03*
X4350000Y25710000D03*
X7890000Y11330000D03*
X4950000Y25710000D03*
X11290000Y13820000D03*
X5070000Y6410000D03*
X4990000Y19420000D03*
X5790000Y20030000D03*
X5890000Y20640000D03*
X7550000Y21800000D03*
X6490000Y20740000D03*
X12410000Y8360000D03*
X7850000Y22400000D03*
X14280000Y22090000D03*
X13560000Y26600000D03*
X6810000Y10950000D03*
X6590000Y21340000D03*
X10160000Y2540000D03*
X9350000Y10960000D03*
X13560000Y27300000D03*
X13210000Y21170000D03*
X8460000Y24430000D03*
X15740000Y12700000D03*
X14310000Y8430000D03*
X12230000Y20530000D03*
X11140000Y21210000D03*
X14310000Y7730000D03*
X10780000Y21690000D03*
D15*
X14290000Y18300000D02*
X13890000Y18300000D01*
X8890000Y14939532D02*
X8890000Y15290000D01*
X7090000Y13139532D02*
X8890000Y14939532D01*
X7090000Y12440000D02*
X7090000Y13139532D01*
D16*
X7090000Y17270000D02*
X7000000Y17180000D01*
X7090000Y18340000D02*
X7090000Y17270000D01*
X11490000Y19074886D02*
X11490000Y18340000D01*
X12705001Y22824999D02*
X12700000Y22830000D01*
X12705001Y20289887D02*
X12705001Y22824999D01*
X11490000Y19074886D02*
X12705001Y20289887D01*
D15*
X14290000Y18870000D02*
X15740000Y20320000D01*
X14290000Y18340000D02*
X14290000Y18870000D01*
D16*
X7985000Y10265000D02*
X8890000Y9360000D01*
X6265000Y10265000D02*
X7985000Y10265000D01*
X13550000Y14907720D02*
X13550000Y15100000D01*
X12032289Y13390010D02*
X13550000Y14907720D01*
X11705124Y13390010D02*
X12032289Y13390010D01*
X11490000Y13174886D02*
X11705124Y13390010D01*
X11490000Y12440000D02*
X11490000Y13174886D01*
D17*
X3280000Y27770000D02*
X3880000Y27770000D01*
X4370000Y27280000D02*
X3880000Y27770000D01*
X4370000Y27270000D02*
X4370000Y27280000D01*
D16*
X12495000Y6455000D02*
X13170000Y7130000D01*
X11515000Y6455000D02*
X12495000Y6455000D01*
D17*
X5550000Y25710000D02*
X6190000Y25070000D01*
D16*
X9090000Y18340000D02*
X9090000Y19123443D01*
X8490000Y27730000D02*
X9215001Y27004999D01*
X9215001Y19248444D02*
X9090000Y19123443D01*
X9215001Y27004999D02*
X9215001Y19248444D01*
D15*
X15320000Y24130000D02*
X16510000Y24130000D01*
X14690010Y24759990D02*
X15320000Y24130000D01*
X14690010Y27534268D02*
X14690010Y24759990D01*
X13964269Y28260009D02*
X14690010Y27534268D01*
X13149730Y28260010D02*
X13964269Y28260009D01*
X9589990Y24700270D02*
X13149730Y28260010D01*
X9589990Y19163800D02*
X9589990Y24700270D01*
X9490000Y19063810D02*
X9589990Y19163800D01*
X9490000Y18340000D02*
X9490000Y19063810D01*
X14390000Y23710000D02*
X16510000Y21590000D01*
X14390000Y27410000D02*
X14390000Y23710000D01*
X13840000Y27960000D02*
X14390000Y27410000D01*
X13273998Y27960000D02*
X13840000Y27960000D01*
X9890000Y24576002D02*
X13273998Y27960000D01*
X9890000Y18340000D02*
X9890000Y24576002D01*
X2699999Y27780001D02*
X1270000Y29210000D01*
X2699999Y23548557D02*
X2699999Y27780001D01*
X8130010Y22909990D02*
X3338566Y22909990D01*
X8589981Y22450019D02*
X8130010Y22909990D01*
X8589981Y20408539D02*
X8589981Y22450019D01*
X7890000Y19708558D02*
X8589981Y20408539D01*
X3338566Y22909990D02*
X2699999Y23548557D01*
X7890000Y18340000D02*
X7890000Y19708558D01*
X2399989Y25540011D02*
X1270000Y26670000D01*
X2399989Y23424289D02*
X2399989Y25540011D01*
X6020020Y22609980D02*
X3214298Y22609980D01*
X3214298Y22609980D02*
X2399989Y23424289D01*
X7490000Y21140000D02*
X6020020Y22609980D01*
X7490000Y18340000D02*
X7490000Y21140000D01*
X3115000Y22285000D02*
X1270000Y24130000D01*
X3115000Y20098998D02*
X3115000Y22285000D01*
X3890000Y19323998D02*
X3115000Y20098998D01*
X3890000Y18340000D02*
X3890000Y19323998D01*
X14200468Y11430000D02*
X16510000Y11430000D01*
X13890000Y11740468D02*
X14200468Y11430000D01*
X13890000Y12440000D02*
X13890000Y11740468D01*
X13490000Y11716190D02*
X13490000Y12440000D01*
X16316190Y8890000D02*
X13490000Y11716190D01*
X16510000Y8890000D02*
X16316190Y8890000D01*
X15380000Y7480000D02*
X16510000Y6350000D01*
X11890000Y11610000D02*
X11985010Y11514990D01*
X11890000Y12440000D02*
X11890000Y11610000D01*
X15380000Y9401912D02*
X15380000Y7480000D01*
X13266922Y11514990D02*
X15380000Y9401912D01*
X11985010Y11514990D02*
X13266922Y11514990D01*
X11090000Y11740468D02*
X11090000Y12440000D01*
X11615488Y11214980D02*
X11090000Y11740468D01*
X13142654Y11214980D02*
X11615488Y11214980D01*
X15079990Y9277644D02*
X13142654Y11214980D01*
X15079991Y5240009D02*
X15079990Y9277644D01*
X16510000Y3810000D02*
X15079991Y5240009D01*
X14779982Y9153374D02*
X13018386Y10914970D01*
X13018386Y10914970D02*
X11491220Y10914970D01*
X14779982Y5115740D02*
X14779982Y9153374D01*
X10690000Y11716190D02*
X10690000Y12440000D01*
X15237861Y4657861D02*
X14779982Y5115740D01*
X11491220Y10914970D02*
X10690000Y11716190D01*
X15237861Y2542139D02*
X15237861Y4657861D01*
X16510000Y1270000D02*
X15237861Y2542139D01*
X2700000Y5240000D02*
X1270000Y3810000D01*
X2700000Y9471444D02*
X2700000Y5240000D01*
X4128536Y10899980D02*
X2700000Y9471444D01*
X5898068Y10899980D02*
X4128536Y10899980D01*
X6690000Y11691912D02*
X5898068Y10899980D01*
X6690000Y12440000D02*
X6690000Y11691912D01*
X2400000Y9595722D02*
X2400000Y7480000D01*
X4019258Y11214980D02*
X2400000Y9595722D01*
X5788790Y11214980D02*
X4019258Y11214980D01*
X6290000Y11716190D02*
X5788790Y11214980D01*
X6290000Y12440000D02*
X6290000Y11716190D01*
X1270000Y6350000D02*
X2400000Y7480000D01*
X1270000Y21519720D02*
X1270000Y21590000D01*
X3490000Y19299720D02*
X1270000Y21519720D01*
X3490000Y18340000D02*
X3490000Y19299720D01*
X5890000Y11740468D02*
X5664522Y11514990D01*
X5890000Y12440000D02*
X5890000Y11740468D01*
X5664522Y11514990D02*
X3894990Y11514990D01*
X3894990Y11514990D02*
X1270000Y8890000D01*
X2219989Y12379989D02*
X1270000Y11430000D01*
X2219989Y13370269D02*
X2219989Y12379989D01*
X2814749Y13965029D02*
X2219989Y13370269D01*
X3913058Y13965030D02*
X2814749Y13965029D01*
X4690000Y13188088D02*
X3913058Y13965030D01*
X4690000Y12440000D02*
X4690000Y13188088D01*
X1274970Y13965030D02*
X1270000Y13970000D01*
X4037325Y14265039D02*
X2690480Y14265038D01*
X2690480Y14265038D02*
X2395442Y13970000D01*
X5090000Y13212366D02*
X4037325Y14265039D01*
X5090000Y12440000D02*
X5090000Y13212366D01*
X2395442Y13970000D02*
X1270000Y13970000D01*
X5490000Y13239720D02*
X4164670Y14565050D01*
X5490000Y12440000D02*
X5490000Y13239720D01*
X3214950Y14565050D02*
X1270000Y16510000D01*
X4164670Y14565050D02*
X3214950Y14565050D01*
X2905010Y17414990D02*
X1270000Y19050000D01*
X4064522Y17414990D02*
X2905010Y17414990D01*
X4290000Y17640468D02*
X4064522Y17414990D01*
X4290000Y18340000D02*
X4290000Y17640468D01*
X14980000Y17520000D02*
X16510000Y19050000D01*
X14980000Y15878088D02*
X14980000Y17520000D01*
X12290000Y13188088D02*
X14980000Y15878088D01*
X12290000Y12440000D02*
X12290000Y13188088D01*
X15753820Y15753820D02*
X16510000Y16510000D01*
X15280010Y15753820D02*
X15753820Y15753820D01*
X12690000Y13163810D02*
X15280010Y15753820D01*
X12690000Y12440000D02*
X12690000Y13163810D01*
X13090000Y13139532D02*
X13920468Y13970000D01*
X13090000Y12440000D02*
X13090000Y13139532D01*
X13920468Y13970000D02*
X16510000Y13970000D01*
X9890000Y11430000D02*
X9810000Y11350000D01*
X9890000Y12440000D02*
X9890000Y11430000D01*
X10290000Y11470000D02*
X10410000Y11350000D01*
X10290000Y12440000D02*
X10290000Y11470000D01*
X8290000Y13284278D02*
X8290000Y12440000D01*
X9295722Y14290000D02*
X12230000Y14290000D01*
X8290000Y13284278D02*
X9295722Y14290000D01*
X7410000Y10960000D02*
X7410000Y11516002D01*
X7490000Y11596002D02*
X7490000Y12440000D01*
X7410000Y11516002D02*
X7490000Y11596002D01*
X3890000Y13139532D02*
X3890000Y12440000D01*
X3664522Y13365010D02*
X3890000Y13139532D01*
X3305010Y13365010D02*
X3664522Y13365010D01*
X2970000Y13030000D02*
X3305010Y13365010D01*
X13490000Y19039532D02*
X13600000Y19149532D01*
X13490000Y18340000D02*
X13490000Y19039532D01*
X13600000Y19600000D02*
X13570000Y19630000D01*
X13600000Y19149532D02*
X13600000Y19600000D01*
X13090000Y18340000D02*
X13090000Y19270000D01*
X13060000Y15670468D02*
X13060000Y15590000D01*
X11090000Y17640468D02*
X13060000Y15670468D01*
X11090000Y18340000D02*
X11090000Y17640468D01*
X10449999Y16963999D02*
X12078998Y15335000D01*
X10450000Y17376190D02*
X10449999Y16963999D01*
X10690000Y17616190D02*
X10450000Y17376190D01*
X10690000Y18340000D02*
X10690000Y17616190D01*
X12605000Y15335000D02*
X12940000Y15000000D01*
X12078998Y15335000D02*
X12605000Y15335000D01*
X10149990Y16839730D02*
X12109720Y14880000D01*
X10149991Y17500457D02*
X10149990Y16839730D01*
X10290000Y17640468D02*
X10149991Y17500457D01*
X10290000Y18340000D02*
X10290000Y17640468D01*
X12109720Y14880000D02*
X12350000Y14880000D01*
X6630000Y13980000D02*
X6230000Y13580000D01*
X6630000Y14356002D02*
X6630000Y13980000D01*
X6490020Y14495982D02*
X6630000Y14356002D01*
X6490020Y17405742D02*
X6490020Y14495982D01*
X6690000Y17605722D02*
X6490020Y17405742D01*
X6690000Y18340000D02*
X6690000Y17605722D01*
X6190000Y14210000D02*
X6260000Y14280000D01*
X6190010Y17530010D02*
X6190010Y14230010D01*
X6190010Y14230010D02*
X6140000Y14180000D01*
X6290000Y17630000D02*
X6190010Y17530010D01*
X6290000Y18340000D02*
X6290000Y17630000D01*
X3490000Y12440000D02*
X3490000Y11810000D01*
X3490000Y11810000D02*
X2970000Y11810000D01*
X5890000Y15383998D02*
X5890000Y18340000D01*
X5296001Y14789999D02*
X5890000Y15383998D01*
X4363999Y14789999D02*
X5296001Y14789999D01*
X3840000Y15313998D02*
X4363999Y14789999D01*
X3840000Y15640000D02*
X3840000Y15313998D01*
X4690000Y16260000D02*
X4690000Y18300000D01*
X4410000Y15980000D02*
X4690000Y16260000D01*
X5090000Y15950000D02*
X5090000Y18300000D01*
X4480000Y15340000D02*
X5090000Y15950000D01*
X5490000Y15650000D02*
X5490000Y18300000D01*
X5110000Y15270000D02*
X5490000Y15650000D01*
X4290000Y13163810D02*
X3788790Y13665020D01*
X4290000Y12440000D02*
X4290000Y13163810D01*
X2939018Y13665020D02*
X2519999Y13246001D01*
X3788790Y13665020D02*
X2939018Y13665020D01*
X2913998Y12420000D02*
X2970000Y12420000D01*
X2519999Y12813999D02*
X2913998Y12420000D01*
X2519999Y13246001D02*
X2519999Y12813999D01*
X11890000Y18300000D02*
X11890000Y17460000D01*
X13650000Y15700000D02*
X11890000Y17460000D01*
X12290000Y17484278D02*
X13484278Y16290000D01*
X13484278Y16290000D02*
X13760000Y16290000D01*
X12290000Y18300000D02*
X12290000Y17484278D01*
X12639999Y19489999D02*
X13020000Y19870000D01*
X12639999Y19053999D02*
X12639999Y19489999D01*
X12690000Y19003998D02*
X12639999Y19053999D01*
X12690000Y18340000D02*
X12690000Y19003998D01*
D16*
X7890000Y12440000D02*
X7890000Y11330000D01*
D17*
X4370000Y25730000D02*
X4350000Y25710000D01*
X4370000Y26250000D02*
X4370000Y25730000D01*
X4350000Y25710000D02*
X4950000Y25710000D01*
D15*
X8290000Y18300000D02*
X8290000Y18850000D01*
X8889991Y20284271D02*
X8290000Y19684280D01*
X8889991Y23320009D02*
X8889991Y20284271D01*
X8290000Y19684280D02*
X8290000Y18340000D01*
X5580000Y26630000D02*
X8889991Y23320009D01*
X5580000Y27000000D02*
X5580000Y26630000D01*
X3010020Y29569980D02*
X5580000Y27000000D01*
X3010020Y30009980D02*
X3010020Y29569980D01*
X1270000Y31750000D02*
X3010020Y30009980D01*
X8690000Y13260000D02*
X9250000Y13820000D01*
X9250000Y13820000D02*
X11290000Y13820000D01*
X8690000Y12400000D02*
X8690000Y13260000D01*
X6260000Y6410000D02*
X6265000Y6405000D01*
X5090000Y6410000D02*
X6260000Y6410000D01*
X10495000Y7715000D02*
X11515000Y7715000D01*
X10310009Y3335731D02*
X10310009Y7530009D01*
X9344268Y2369990D02*
X10310009Y3335731D01*
X10310009Y7530009D02*
X10495000Y7715000D01*
X5250010Y2369990D02*
X9344268Y2369990D01*
X3810000Y3810000D02*
X5250010Y2369990D01*
X2540000Y2540000D02*
X3810000Y1270000D01*
X2540000Y4655722D02*
X2540000Y2540000D01*
X3000009Y5115731D02*
X2540000Y4655722D01*
X3000010Y8210010D02*
X3000009Y5115731D01*
X3775000Y8985000D02*
X3000010Y8210010D01*
X6265000Y8985000D02*
X3775000Y8985000D01*
X9220000Y2670000D02*
X7490000Y2670000D01*
X7490000Y2670000D02*
X6350000Y3810000D01*
X10009999Y9769999D02*
X10010000Y3460000D01*
X10010000Y3460000D02*
X9220000Y2670000D01*
X10495000Y10255000D02*
X10009999Y9769999D01*
X11515000Y10255000D02*
X10495000Y10255000D01*
X8890000Y6410000D02*
X8890000Y3810000D01*
X7585000Y7715000D02*
X8890000Y6410000D01*
X6265000Y7715000D02*
X7585000Y7715000D01*
X12410000Y8360000D02*
X12410000Y8630000D01*
X12045000Y8995000D02*
X11515000Y8995000D01*
X12410000Y8630000D02*
X12045000Y8995000D01*
X13560000Y22810000D02*
X14280000Y22090000D01*
X13560000Y26600000D02*
X13560000Y22810000D01*
X12700000Y2540000D02*
X13970000Y3810000D01*
X10160000Y2540000D02*
X12700000Y2540000D01*
D16*
X9490000Y11705114D02*
X9320000Y11535114D01*
X9490000Y12440000D02*
X9490000Y11705114D01*
X9320000Y10990000D02*
X9350000Y10960000D01*
X9320000Y11535114D02*
X9320000Y10990000D01*
D15*
X13210000Y26283998D02*
X13210000Y21170000D01*
X13109999Y26383999D02*
X13210000Y26283998D01*
X13109999Y26849999D02*
X13109999Y26383999D01*
X13560000Y27300000D02*
X13109999Y26849999D01*
X11350001Y21420001D02*
X11140000Y21210000D01*
X11976001Y21420001D02*
X11350001Y21420001D01*
X12230000Y21166002D02*
X11976001Y21420001D01*
X12230000Y20530000D02*
X12230000Y21166002D01*
X11130000Y21210000D02*
X10590000Y20670000D01*
X11140000Y21210000D02*
X11130000Y21210000D01*
X10590000Y21880000D02*
X10780000Y21690000D01*
X10590000Y22670000D02*
X10590000Y21880000D01*
M02*
