M48
METRIC,TZ
T1C0.200
T2C0.600
T3C1.000
%
G90
G05
T1
X2930Y21590
X2970Y12320
X2970Y11510
X2980Y19170
X2980Y18570
X3150Y25800
X3280Y27770
X3410Y2540
X3530Y15080
X3620Y22090
X3750Y25800
X3750Y24040
X3880Y27770
X3910Y15550
X3990Y19890
X4050Y23520
X4050Y8130
X4060Y10110
X4350Y25710
X4350Y24040
X4370Y15940
X4440Y20340
X4480Y15340
X4650Y23520
X4740Y9620
X4950Y25710
X4950Y24040
X4990Y19420
X5070Y6410
X5080Y15240
X5250Y23520
X5550Y25710
X5550Y24040
X5550Y14300
X5790Y20030
X5890Y20640
X5990Y21990
X6140Y14180
X6230Y13580
X6260Y5180
X6490Y20740
X6590Y21340
X6680Y27760
X6810Y10950
X6830Y13520
X7000Y17180
X7200Y26120
X7220Y30170
X7550Y21800
X7710Y10950
X7850Y22400
X7900Y16300
X8490Y27730
X8550Y26550
X8740Y19450
X8800Y11350
X8890Y17280
X8890Y15290
X8890Y9360
X8890Y7360
X9790Y11350
X9890Y16300
X9900Y27680
X10390Y11350
X10560Y30170
X10780Y21690
X10900Y17180
X11140Y21210
X11290Y13680
X11640Y20380
X11640Y14170
X11760Y20970
X11850Y23680
X11850Y22830
X12230Y26130
X12230Y20530
X12230Y14290
X12270Y23250
X12350Y14880
X12410Y8360
X12700Y23670
X12700Y22830
X12940Y15020
X13020Y19870
X13080Y15610
X13090Y19270
X13170Y7130
X13210Y21170
X13560Y27300
X13560Y26600
X13570Y19630
X13680Y15700
X13770Y16300
X13780Y21740
X13810Y9030
X13810Y7130
X14150Y19470
X14270Y22100
X14270Y17220
X14290Y5080
X14310Y8430
X14310Y7730
X14450Y15100
X14700Y24730
X14790Y21800
X14790Y19470
X14790Y18100
X15990Y5080
T3
X1270Y34290
X1270Y31750
X1270Y29210
X1270Y26670
X1270Y24130
X1270Y21590
X1270Y19050
X1270Y16510
X1270Y13970
X1270Y11430
X1270Y8890
X1270Y6350
X1270Y3810
X1270Y1270
X3810Y3810
X3810Y1270
X6350Y3810
X6350Y1270
X8890Y3810
X8890Y1270
X11430Y3810
X11430Y1270
X13970Y3810
X13970Y1270
X16510Y34290
X16510Y31750
X16510Y29210
X16510Y26670
X16510Y24130
X16510Y21590
X16510Y19050
X16510Y16510
X16510Y13970
X16510Y11430
X16510Y8890
X16510Y6350
X16510Y3810
X16510Y1270
T2
X4570Y33670G85X4570Y34270
G05
X4570Y29240G85X4570Y30340
G05
X13210Y33670G85X13210Y34270
G05
X13210Y29240G85X13210Y30340
G05
T0
M30
