G04 #@! TF.GenerationSoftware,KiCad,Pcbnew,5.1.9-1.fc33*
G04 #@! TF.CreationDate,2021-04-27T13:35:09+02:00*
G04 #@! TF.ProjectId,reDIP-SID,72654449-502d-4534-9944-2e6b69636164,0.2*
G04 #@! TF.SameCoordinates,PX5e28010PY8011a50*
G04 #@! TF.FileFunction,Paste,Bot*
G04 #@! TF.FilePolarity,Positive*
%FSLAX46Y46*%
G04 Gerber Fmt 4.6, Leading zero omitted, Abs format (unit mm)*
G04 Created by KiCad (PCBNEW 5.1.9-1.fc33) date 2021-04-27 13:35:09*
%MOMM*%
%LPD*%
G01*
G04 APERTURE LIST*
G04 APERTURE END LIST*
G04 #@! TO.C,U3*
G36*
G01*
X102320000Y-121200000D02*
X102320000Y-122500000D01*
G75*
G02*
X102270000Y-122550000I-50000J0D01*
G01*
X102170000Y-122550000D01*
G75*
G02*
X102120000Y-122500000I0J50000D01*
G01*
X102120000Y-121200000D01*
G75*
G02*
X102170000Y-121150000I50000J0D01*
G01*
X102270000Y-121150000D01*
G75*
G02*
X102320000Y-121200000I0J-50000D01*
G01*
G37*
G36*
G01*
X102320000Y-115300000D02*
X102320000Y-116600000D01*
G75*
G02*
X102270000Y-116650000I-50000J0D01*
G01*
X102170000Y-116650000D01*
G75*
G02*
X102120000Y-116600000I0J50000D01*
G01*
X102120000Y-115300000D01*
G75*
G02*
X102170000Y-115250000I50000J0D01*
G01*
X102270000Y-115250000D01*
G75*
G02*
X102320000Y-115300000I0J-50000D01*
G01*
G37*
G36*
G01*
X102720000Y-121200000D02*
X102720000Y-122500000D01*
G75*
G02*
X102670000Y-122550000I-50000J0D01*
G01*
X102570000Y-122550000D01*
G75*
G02*
X102520000Y-122500000I0J50000D01*
G01*
X102520000Y-121200000D01*
G75*
G02*
X102570000Y-121150000I50000J0D01*
G01*
X102670000Y-121150000D01*
G75*
G02*
X102720000Y-121200000I0J-50000D01*
G01*
G37*
G36*
G01*
X102720000Y-115300000D02*
X102720000Y-116600000D01*
G75*
G02*
X102670000Y-116650000I-50000J0D01*
G01*
X102570000Y-116650000D01*
G75*
G02*
X102520000Y-116600000I0J50000D01*
G01*
X102520000Y-115300000D01*
G75*
G02*
X102570000Y-115250000I50000J0D01*
G01*
X102670000Y-115250000D01*
G75*
G02*
X102720000Y-115300000I0J-50000D01*
G01*
G37*
G36*
G01*
X103120000Y-121200000D02*
X103120000Y-122500000D01*
G75*
G02*
X103070000Y-122550000I-50000J0D01*
G01*
X102970000Y-122550000D01*
G75*
G02*
X102920000Y-122500000I0J50000D01*
G01*
X102920000Y-121200000D01*
G75*
G02*
X102970000Y-121150000I50000J0D01*
G01*
X103070000Y-121150000D01*
G75*
G02*
X103120000Y-121200000I0J-50000D01*
G01*
G37*
G36*
G01*
X103120000Y-115300000D02*
X103120000Y-116600000D01*
G75*
G02*
X103070000Y-116650000I-50000J0D01*
G01*
X102970000Y-116650000D01*
G75*
G02*
X102920000Y-116600000I0J50000D01*
G01*
X102920000Y-115300000D01*
G75*
G02*
X102970000Y-115250000I50000J0D01*
G01*
X103070000Y-115250000D01*
G75*
G02*
X103120000Y-115300000I0J-50000D01*
G01*
G37*
G36*
G01*
X103520000Y-121200000D02*
X103520000Y-122500000D01*
G75*
G02*
X103470000Y-122550000I-50000J0D01*
G01*
X103370000Y-122550000D01*
G75*
G02*
X103320000Y-122500000I0J50000D01*
G01*
X103320000Y-121200000D01*
G75*
G02*
X103370000Y-121150000I50000J0D01*
G01*
X103470000Y-121150000D01*
G75*
G02*
X103520000Y-121200000I0J-50000D01*
G01*
G37*
G36*
G01*
X103520000Y-115300000D02*
X103520000Y-116600000D01*
G75*
G02*
X103470000Y-116650000I-50000J0D01*
G01*
X103370000Y-116650000D01*
G75*
G02*
X103320000Y-116600000I0J50000D01*
G01*
X103320000Y-115300000D01*
G75*
G02*
X103370000Y-115250000I50000J0D01*
G01*
X103470000Y-115250000D01*
G75*
G02*
X103520000Y-115300000I0J-50000D01*
G01*
G37*
G36*
G01*
X103920000Y-121200000D02*
X103920000Y-122500000D01*
G75*
G02*
X103870000Y-122550000I-50000J0D01*
G01*
X103770000Y-122550000D01*
G75*
G02*
X103720000Y-122500000I0J50000D01*
G01*
X103720000Y-121200000D01*
G75*
G02*
X103770000Y-121150000I50000J0D01*
G01*
X103870000Y-121150000D01*
G75*
G02*
X103920000Y-121200000I0J-50000D01*
G01*
G37*
G36*
G01*
X103920000Y-115300000D02*
X103920000Y-116600000D01*
G75*
G02*
X103870000Y-116650000I-50000J0D01*
G01*
X103770000Y-116650000D01*
G75*
G02*
X103720000Y-116600000I0J50000D01*
G01*
X103720000Y-115300000D01*
G75*
G02*
X103770000Y-115250000I50000J0D01*
G01*
X103870000Y-115250000D01*
G75*
G02*
X103920000Y-115300000I0J-50000D01*
G01*
G37*
G36*
G01*
X104320000Y-121200000D02*
X104320000Y-122500000D01*
G75*
G02*
X104270000Y-122550000I-50000J0D01*
G01*
X104170000Y-122550000D01*
G75*
G02*
X104120000Y-122500000I0J50000D01*
G01*
X104120000Y-121200000D01*
G75*
G02*
X104170000Y-121150000I50000J0D01*
G01*
X104270000Y-121150000D01*
G75*
G02*
X104320000Y-121200000I0J-50000D01*
G01*
G37*
G36*
G01*
X104320000Y-115300000D02*
X104320000Y-116600000D01*
G75*
G02*
X104270000Y-116650000I-50000J0D01*
G01*
X104170000Y-116650000D01*
G75*
G02*
X104120000Y-116600000I0J50000D01*
G01*
X104120000Y-115300000D01*
G75*
G02*
X104170000Y-115250000I50000J0D01*
G01*
X104270000Y-115250000D01*
G75*
G02*
X104320000Y-115300000I0J-50000D01*
G01*
G37*
G36*
G01*
X104720000Y-121200000D02*
X104720000Y-122500000D01*
G75*
G02*
X104670000Y-122550000I-50000J0D01*
G01*
X104570000Y-122550000D01*
G75*
G02*
X104520000Y-122500000I0J50000D01*
G01*
X104520000Y-121200000D01*
G75*
G02*
X104570000Y-121150000I50000J0D01*
G01*
X104670000Y-121150000D01*
G75*
G02*
X104720000Y-121200000I0J-50000D01*
G01*
G37*
G36*
G01*
X104720000Y-115300000D02*
X104720000Y-116600000D01*
G75*
G02*
X104670000Y-116650000I-50000J0D01*
G01*
X104570000Y-116650000D01*
G75*
G02*
X104520000Y-116600000I0J50000D01*
G01*
X104520000Y-115300000D01*
G75*
G02*
X104570000Y-115250000I50000J0D01*
G01*
X104670000Y-115250000D01*
G75*
G02*
X104720000Y-115300000I0J-50000D01*
G01*
G37*
G36*
G01*
X105120000Y-121200000D02*
X105120000Y-122500000D01*
G75*
G02*
X105070000Y-122550000I-50000J0D01*
G01*
X104970000Y-122550000D01*
G75*
G02*
X104920000Y-122500000I0J50000D01*
G01*
X104920000Y-121200000D01*
G75*
G02*
X104970000Y-121150000I50000J0D01*
G01*
X105070000Y-121150000D01*
G75*
G02*
X105120000Y-121200000I0J-50000D01*
G01*
G37*
G36*
G01*
X105120000Y-115300000D02*
X105120000Y-116600000D01*
G75*
G02*
X105070000Y-116650000I-50000J0D01*
G01*
X104970000Y-116650000D01*
G75*
G02*
X104920000Y-116600000I0J50000D01*
G01*
X104920000Y-115300000D01*
G75*
G02*
X104970000Y-115250000I50000J0D01*
G01*
X105070000Y-115250000D01*
G75*
G02*
X105120000Y-115300000I0J-50000D01*
G01*
G37*
G36*
G01*
X105520000Y-121200000D02*
X105520000Y-122500000D01*
G75*
G02*
X105470000Y-122550000I-50000J0D01*
G01*
X105370000Y-122550000D01*
G75*
G02*
X105320000Y-122500000I0J50000D01*
G01*
X105320000Y-121200000D01*
G75*
G02*
X105370000Y-121150000I50000J0D01*
G01*
X105470000Y-121150000D01*
G75*
G02*
X105520000Y-121200000I0J-50000D01*
G01*
G37*
G36*
G01*
X105520000Y-115300000D02*
X105520000Y-116600000D01*
G75*
G02*
X105470000Y-116650000I-50000J0D01*
G01*
X105370000Y-116650000D01*
G75*
G02*
X105320000Y-116600000I0J50000D01*
G01*
X105320000Y-115300000D01*
G75*
G02*
X105370000Y-115250000I50000J0D01*
G01*
X105470000Y-115250000D01*
G75*
G02*
X105520000Y-115300000I0J-50000D01*
G01*
G37*
G36*
G01*
X105920000Y-121200000D02*
X105920000Y-122500000D01*
G75*
G02*
X105870000Y-122550000I-50000J0D01*
G01*
X105770000Y-122550000D01*
G75*
G02*
X105720000Y-122500000I0J50000D01*
G01*
X105720000Y-121200000D01*
G75*
G02*
X105770000Y-121150000I50000J0D01*
G01*
X105870000Y-121150000D01*
G75*
G02*
X105920000Y-121200000I0J-50000D01*
G01*
G37*
G36*
G01*
X105920000Y-115300000D02*
X105920000Y-116600000D01*
G75*
G02*
X105870000Y-116650000I-50000J0D01*
G01*
X105770000Y-116650000D01*
G75*
G02*
X105720000Y-116600000I0J50000D01*
G01*
X105720000Y-115300000D01*
G75*
G02*
X105770000Y-115250000I50000J0D01*
G01*
X105870000Y-115250000D01*
G75*
G02*
X105920000Y-115300000I0J-50000D01*
G01*
G37*
G36*
G01*
X106320000Y-121200000D02*
X106320000Y-122500000D01*
G75*
G02*
X106270000Y-122550000I-50000J0D01*
G01*
X106170000Y-122550000D01*
G75*
G02*
X106120000Y-122500000I0J50000D01*
G01*
X106120000Y-121200000D01*
G75*
G02*
X106170000Y-121150000I50000J0D01*
G01*
X106270000Y-121150000D01*
G75*
G02*
X106320000Y-121200000I0J-50000D01*
G01*
G37*
G36*
G01*
X106320000Y-115300000D02*
X106320000Y-116600000D01*
G75*
G02*
X106270000Y-116650000I-50000J0D01*
G01*
X106170000Y-116650000D01*
G75*
G02*
X106120000Y-116600000I0J50000D01*
G01*
X106120000Y-115300000D01*
G75*
G02*
X106170000Y-115250000I50000J0D01*
G01*
X106270000Y-115250000D01*
G75*
G02*
X106320000Y-115300000I0J-50000D01*
G01*
G37*
G36*
G01*
X106720000Y-121200000D02*
X106720000Y-122500000D01*
G75*
G02*
X106670000Y-122550000I-50000J0D01*
G01*
X106570000Y-122550000D01*
G75*
G02*
X106520000Y-122500000I0J50000D01*
G01*
X106520000Y-121200000D01*
G75*
G02*
X106570000Y-121150000I50000J0D01*
G01*
X106670000Y-121150000D01*
G75*
G02*
X106720000Y-121200000I0J-50000D01*
G01*
G37*
G36*
G01*
X106720000Y-115300000D02*
X106720000Y-116600000D01*
G75*
G02*
X106670000Y-116650000I-50000J0D01*
G01*
X106570000Y-116650000D01*
G75*
G02*
X106520000Y-116600000I0J50000D01*
G01*
X106520000Y-115300000D01*
G75*
G02*
X106570000Y-115250000I50000J0D01*
G01*
X106670000Y-115250000D01*
G75*
G02*
X106720000Y-115300000I0J-50000D01*
G01*
G37*
G36*
G01*
X107120000Y-121200000D02*
X107120000Y-122500000D01*
G75*
G02*
X107070000Y-122550000I-50000J0D01*
G01*
X106970000Y-122550000D01*
G75*
G02*
X106920000Y-122500000I0J50000D01*
G01*
X106920000Y-121200000D01*
G75*
G02*
X106970000Y-121150000I50000J0D01*
G01*
X107070000Y-121150000D01*
G75*
G02*
X107120000Y-121200000I0J-50000D01*
G01*
G37*
G36*
G01*
X107120000Y-115300000D02*
X107120000Y-116600000D01*
G75*
G02*
X107070000Y-116650000I-50000J0D01*
G01*
X106970000Y-116650000D01*
G75*
G02*
X106920000Y-116600000I0J50000D01*
G01*
X106920000Y-115300000D01*
G75*
G02*
X106970000Y-115250000I50000J0D01*
G01*
X107070000Y-115250000D01*
G75*
G02*
X107120000Y-115300000I0J-50000D01*
G01*
G37*
G36*
G01*
X107520000Y-121200000D02*
X107520000Y-122500000D01*
G75*
G02*
X107470000Y-122550000I-50000J0D01*
G01*
X107370000Y-122550000D01*
G75*
G02*
X107320000Y-122500000I0J50000D01*
G01*
X107320000Y-121200000D01*
G75*
G02*
X107370000Y-121150000I50000J0D01*
G01*
X107470000Y-121150000D01*
G75*
G02*
X107520000Y-121200000I0J-50000D01*
G01*
G37*
G36*
G01*
X107520000Y-115300000D02*
X107520000Y-116600000D01*
G75*
G02*
X107470000Y-116650000I-50000J0D01*
G01*
X107370000Y-116650000D01*
G75*
G02*
X107320000Y-116600000I0J50000D01*
G01*
X107320000Y-115300000D01*
G75*
G02*
X107370000Y-115250000I50000J0D01*
G01*
X107470000Y-115250000D01*
G75*
G02*
X107520000Y-115300000I0J-50000D01*
G01*
G37*
G36*
G01*
X107920000Y-121200000D02*
X107920000Y-122500000D01*
G75*
G02*
X107870000Y-122550000I-50000J0D01*
G01*
X107770000Y-122550000D01*
G75*
G02*
X107720000Y-122500000I0J50000D01*
G01*
X107720000Y-121200000D01*
G75*
G02*
X107770000Y-121150000I50000J0D01*
G01*
X107870000Y-121150000D01*
G75*
G02*
X107920000Y-121200000I0J-50000D01*
G01*
G37*
G36*
G01*
X107920000Y-115300000D02*
X107920000Y-116600000D01*
G75*
G02*
X107870000Y-116650000I-50000J0D01*
G01*
X107770000Y-116650000D01*
G75*
G02*
X107720000Y-116600000I0J50000D01*
G01*
X107720000Y-115300000D01*
G75*
G02*
X107770000Y-115250000I50000J0D01*
G01*
X107870000Y-115250000D01*
G75*
G02*
X107920000Y-115300000I0J-50000D01*
G01*
G37*
G36*
G01*
X108320000Y-121200000D02*
X108320000Y-122500000D01*
G75*
G02*
X108270000Y-122550000I-50000J0D01*
G01*
X108170000Y-122550000D01*
G75*
G02*
X108120000Y-122500000I0J50000D01*
G01*
X108120000Y-121200000D01*
G75*
G02*
X108170000Y-121150000I50000J0D01*
G01*
X108270000Y-121150000D01*
G75*
G02*
X108320000Y-121200000I0J-50000D01*
G01*
G37*
G36*
G01*
X108320000Y-115300000D02*
X108320000Y-116600000D01*
G75*
G02*
X108270000Y-116650000I-50000J0D01*
G01*
X108170000Y-116650000D01*
G75*
G02*
X108120000Y-116600000I0J50000D01*
G01*
X108120000Y-115300000D01*
G75*
G02*
X108170000Y-115250000I50000J0D01*
G01*
X108270000Y-115250000D01*
G75*
G02*
X108320000Y-115300000I0J-50000D01*
G01*
G37*
G36*
G01*
X108720000Y-121200000D02*
X108720000Y-122500000D01*
G75*
G02*
X108670000Y-122550000I-50000J0D01*
G01*
X108570000Y-122550000D01*
G75*
G02*
X108520000Y-122500000I0J50000D01*
G01*
X108520000Y-121200000D01*
G75*
G02*
X108570000Y-121150000I50000J0D01*
G01*
X108670000Y-121150000D01*
G75*
G02*
X108720000Y-121200000I0J-50000D01*
G01*
G37*
G36*
G01*
X108720000Y-115300000D02*
X108720000Y-116600000D01*
G75*
G02*
X108670000Y-116650000I-50000J0D01*
G01*
X108570000Y-116650000D01*
G75*
G02*
X108520000Y-116600000I0J50000D01*
G01*
X108520000Y-115300000D01*
G75*
G02*
X108570000Y-115250000I50000J0D01*
G01*
X108670000Y-115250000D01*
G75*
G02*
X108720000Y-115300000I0J-50000D01*
G01*
G37*
G36*
G01*
X109120000Y-121200000D02*
X109120000Y-122500000D01*
G75*
G02*
X109070000Y-122550000I-50000J0D01*
G01*
X108970000Y-122550000D01*
G75*
G02*
X108920000Y-122500000I0J50000D01*
G01*
X108920000Y-121200000D01*
G75*
G02*
X108970000Y-121150000I50000J0D01*
G01*
X109070000Y-121150000D01*
G75*
G02*
X109120000Y-121200000I0J-50000D01*
G01*
G37*
G36*
G01*
X109120000Y-115300000D02*
X109120000Y-116600000D01*
G75*
G02*
X109070000Y-116650000I-50000J0D01*
G01*
X108970000Y-116650000D01*
G75*
G02*
X108920000Y-116600000I0J50000D01*
G01*
X108920000Y-115300000D01*
G75*
G02*
X108970000Y-115250000I50000J0D01*
G01*
X109070000Y-115250000D01*
G75*
G02*
X109120000Y-115300000I0J-50000D01*
G01*
G37*
G36*
G01*
X109520000Y-121200000D02*
X109520000Y-122500000D01*
G75*
G02*
X109470000Y-122550000I-50000J0D01*
G01*
X109370000Y-122550000D01*
G75*
G02*
X109320000Y-122500000I0J50000D01*
G01*
X109320000Y-121200000D01*
G75*
G02*
X109370000Y-121150000I50000J0D01*
G01*
X109470000Y-121150000D01*
G75*
G02*
X109520000Y-121200000I0J-50000D01*
G01*
G37*
G36*
G01*
X109520000Y-115300000D02*
X109520000Y-116600000D01*
G75*
G02*
X109470000Y-116650000I-50000J0D01*
G01*
X109370000Y-116650000D01*
G75*
G02*
X109320000Y-116600000I0J50000D01*
G01*
X109320000Y-115300000D01*
G75*
G02*
X109370000Y-115250000I50000J0D01*
G01*
X109470000Y-115250000D01*
G75*
G02*
X109520000Y-115300000I0J-50000D01*
G01*
G37*
G36*
G01*
X109920000Y-121200000D02*
X109920000Y-122500000D01*
G75*
G02*
X109870000Y-122550000I-50000J0D01*
G01*
X109770000Y-122550000D01*
G75*
G02*
X109720000Y-122500000I0J50000D01*
G01*
X109720000Y-121200000D01*
G75*
G02*
X109770000Y-121150000I50000J0D01*
G01*
X109870000Y-121150000D01*
G75*
G02*
X109920000Y-121200000I0J-50000D01*
G01*
G37*
G36*
G01*
X109920000Y-115300000D02*
X109920000Y-116600000D01*
G75*
G02*
X109870000Y-116650000I-50000J0D01*
G01*
X109770000Y-116650000D01*
G75*
G02*
X109720000Y-116600000I0J50000D01*
G01*
X109720000Y-115300000D01*
G75*
G02*
X109770000Y-115250000I50000J0D01*
G01*
X109870000Y-115250000D01*
G75*
G02*
X109920000Y-115300000I0J-50000D01*
G01*
G37*
G36*
G01*
X110320000Y-121200000D02*
X110320000Y-122500000D01*
G75*
G02*
X110270000Y-122550000I-50000J0D01*
G01*
X110170000Y-122550000D01*
G75*
G02*
X110120000Y-122500000I0J50000D01*
G01*
X110120000Y-121200000D01*
G75*
G02*
X110170000Y-121150000I50000J0D01*
G01*
X110270000Y-121150000D01*
G75*
G02*
X110320000Y-121200000I0J-50000D01*
G01*
G37*
G36*
G01*
X110320000Y-115300000D02*
X110320000Y-116600000D01*
G75*
G02*
X110270000Y-116650000I-50000J0D01*
G01*
X110170000Y-116650000D01*
G75*
G02*
X110120000Y-116600000I0J50000D01*
G01*
X110120000Y-115300000D01*
G75*
G02*
X110170000Y-115250000I50000J0D01*
G01*
X110270000Y-115250000D01*
G75*
G02*
X110320000Y-115300000I0J-50000D01*
G01*
G37*
G36*
G01*
X110720000Y-121200000D02*
X110720000Y-122500000D01*
G75*
G02*
X110670000Y-122550000I-50000J0D01*
G01*
X110570000Y-122550000D01*
G75*
G02*
X110520000Y-122500000I0J50000D01*
G01*
X110520000Y-121200000D01*
G75*
G02*
X110570000Y-121150000I50000J0D01*
G01*
X110670000Y-121150000D01*
G75*
G02*
X110720000Y-121200000I0J-50000D01*
G01*
G37*
G36*
G01*
X110720000Y-115300000D02*
X110720000Y-116600000D01*
G75*
G02*
X110670000Y-116650000I-50000J0D01*
G01*
X110570000Y-116650000D01*
G75*
G02*
X110520000Y-116600000I0J50000D01*
G01*
X110520000Y-115300000D01*
G75*
G02*
X110570000Y-115250000I50000J0D01*
G01*
X110670000Y-115250000D01*
G75*
G02*
X110720000Y-115300000I0J-50000D01*
G01*
G37*
G36*
G01*
X111120000Y-121200000D02*
X111120000Y-122500000D01*
G75*
G02*
X111070000Y-122550000I-50000J0D01*
G01*
X110970000Y-122550000D01*
G75*
G02*
X110920000Y-122500000I0J50000D01*
G01*
X110920000Y-121200000D01*
G75*
G02*
X110970000Y-121150000I50000J0D01*
G01*
X111070000Y-121150000D01*
G75*
G02*
X111120000Y-121200000I0J-50000D01*
G01*
G37*
G36*
G01*
X111120000Y-115300000D02*
X111120000Y-116600000D01*
G75*
G02*
X111070000Y-116650000I-50000J0D01*
G01*
X110970000Y-116650000D01*
G75*
G02*
X110920000Y-116600000I0J50000D01*
G01*
X110920000Y-115300000D01*
G75*
G02*
X110970000Y-115250000I50000J0D01*
G01*
X111070000Y-115250000D01*
G75*
G02*
X111120000Y-115300000I0J-50000D01*
G01*
G37*
G36*
G01*
X111520000Y-121200000D02*
X111520000Y-122500000D01*
G75*
G02*
X111470000Y-122550000I-50000J0D01*
G01*
X111370000Y-122550000D01*
G75*
G02*
X111320000Y-122500000I0J50000D01*
G01*
X111320000Y-121200000D01*
G75*
G02*
X111370000Y-121150000I50000J0D01*
G01*
X111470000Y-121150000D01*
G75*
G02*
X111520000Y-121200000I0J-50000D01*
G01*
G37*
G36*
G01*
X111520000Y-115300000D02*
X111520000Y-116600000D01*
G75*
G02*
X111470000Y-116650000I-50000J0D01*
G01*
X111370000Y-116650000D01*
G75*
G02*
X111320000Y-116600000I0J50000D01*
G01*
X111320000Y-115300000D01*
G75*
G02*
X111370000Y-115250000I50000J0D01*
G01*
X111470000Y-115250000D01*
G75*
G02*
X111520000Y-115300000I0J-50000D01*
G01*
G37*
G36*
G01*
X111920000Y-121200000D02*
X111920000Y-122500000D01*
G75*
G02*
X111870000Y-122550000I-50000J0D01*
G01*
X111770000Y-122550000D01*
G75*
G02*
X111720000Y-122500000I0J50000D01*
G01*
X111720000Y-121200000D01*
G75*
G02*
X111770000Y-121150000I50000J0D01*
G01*
X111870000Y-121150000D01*
G75*
G02*
X111920000Y-121200000I0J-50000D01*
G01*
G37*
G36*
G01*
X111920000Y-115300000D02*
X111920000Y-116600000D01*
G75*
G02*
X111870000Y-116650000I-50000J0D01*
G01*
X111770000Y-116650000D01*
G75*
G02*
X111720000Y-116600000I0J50000D01*
G01*
X111720000Y-115300000D01*
G75*
G02*
X111770000Y-115250000I50000J0D01*
G01*
X111870000Y-115250000D01*
G75*
G02*
X111920000Y-115300000I0J-50000D01*
G01*
G37*
G36*
G01*
X112320000Y-121200000D02*
X112320000Y-122500000D01*
G75*
G02*
X112270000Y-122550000I-50000J0D01*
G01*
X112170000Y-122550000D01*
G75*
G02*
X112120000Y-122500000I0J50000D01*
G01*
X112120000Y-121200000D01*
G75*
G02*
X112170000Y-121150000I50000J0D01*
G01*
X112270000Y-121150000D01*
G75*
G02*
X112320000Y-121200000I0J-50000D01*
G01*
G37*
G36*
G01*
X112320000Y-115300000D02*
X112320000Y-116600000D01*
G75*
G02*
X112270000Y-116650000I-50000J0D01*
G01*
X112170000Y-116650000D01*
G75*
G02*
X112120000Y-116600000I0J50000D01*
G01*
X112120000Y-115300000D01*
G75*
G02*
X112170000Y-115250000I50000J0D01*
G01*
X112270000Y-115250000D01*
G75*
G02*
X112320000Y-115300000I0J-50000D01*
G01*
G37*
G36*
G01*
X112720000Y-121200000D02*
X112720000Y-122500000D01*
G75*
G02*
X112670000Y-122550000I-50000J0D01*
G01*
X112570000Y-122550000D01*
G75*
G02*
X112520000Y-122500000I0J50000D01*
G01*
X112520000Y-121200000D01*
G75*
G02*
X112570000Y-121150000I50000J0D01*
G01*
X112670000Y-121150000D01*
G75*
G02*
X112720000Y-121200000I0J-50000D01*
G01*
G37*
G36*
G01*
X112720000Y-115300000D02*
X112720000Y-116600000D01*
G75*
G02*
X112670000Y-116650000I-50000J0D01*
G01*
X112570000Y-116650000D01*
G75*
G02*
X112520000Y-116600000I0J50000D01*
G01*
X112520000Y-115300000D01*
G75*
G02*
X112570000Y-115250000I50000J0D01*
G01*
X112670000Y-115250000D01*
G75*
G02*
X112720000Y-115300000I0J-50000D01*
G01*
G37*
G36*
G01*
X113120000Y-121200000D02*
X113120000Y-122500000D01*
G75*
G02*
X113070000Y-122550000I-50000J0D01*
G01*
X112970000Y-122550000D01*
G75*
G02*
X112920000Y-122500000I0J50000D01*
G01*
X112920000Y-121200000D01*
G75*
G02*
X112970000Y-121150000I50000J0D01*
G01*
X113070000Y-121150000D01*
G75*
G02*
X113120000Y-121200000I0J-50000D01*
G01*
G37*
G36*
G01*
X113120000Y-115300000D02*
X113120000Y-116600000D01*
G75*
G02*
X113070000Y-116650000I-50000J0D01*
G01*
X112970000Y-116650000D01*
G75*
G02*
X112920000Y-116600000I0J50000D01*
G01*
X112920000Y-115300000D01*
G75*
G02*
X112970000Y-115250000I50000J0D01*
G01*
X113070000Y-115250000D01*
G75*
G02*
X113120000Y-115300000I0J-50000D01*
G01*
G37*
G04 #@! TD*
G04 #@! TO.C,U6*
G36*
G01*
X109420000Y-127985000D02*
X109420000Y-127685000D01*
G75*
G02*
X109570000Y-127535000I150000J0D01*
G01*
X110920000Y-127535000D01*
G75*
G02*
X111070000Y-127685000I0J-150000D01*
G01*
X111070000Y-127985000D01*
G75*
G02*
X110920000Y-128135000I-150000J0D01*
G01*
X109570000Y-128135000D01*
G75*
G02*
X109420000Y-127985000I0J150000D01*
G01*
G37*
G36*
G01*
X109420000Y-126715000D02*
X109420000Y-126415000D01*
G75*
G02*
X109570000Y-126265000I150000J0D01*
G01*
X110920000Y-126265000D01*
G75*
G02*
X111070000Y-126415000I0J-150000D01*
G01*
X111070000Y-126715000D01*
G75*
G02*
X110920000Y-126865000I-150000J0D01*
G01*
X109570000Y-126865000D01*
G75*
G02*
X109420000Y-126715000I0J150000D01*
G01*
G37*
G36*
G01*
X109420000Y-125445000D02*
X109420000Y-125145000D01*
G75*
G02*
X109570000Y-124995000I150000J0D01*
G01*
X110920000Y-124995000D01*
G75*
G02*
X111070000Y-125145000I0J-150000D01*
G01*
X111070000Y-125445000D01*
G75*
G02*
X110920000Y-125595000I-150000J0D01*
G01*
X109570000Y-125595000D01*
G75*
G02*
X109420000Y-125445000I0J150000D01*
G01*
G37*
G36*
G01*
X109420000Y-124175000D02*
X109420000Y-123875000D01*
G75*
G02*
X109570000Y-123725000I150000J0D01*
G01*
X110920000Y-123725000D01*
G75*
G02*
X111070000Y-123875000I0J-150000D01*
G01*
X111070000Y-124175000D01*
G75*
G02*
X110920000Y-124325000I-150000J0D01*
G01*
X109570000Y-124325000D01*
G75*
G02*
X109420000Y-124175000I0J150000D01*
G01*
G37*
G36*
G01*
X104170000Y-124175000D02*
X104170000Y-123875000D01*
G75*
G02*
X104320000Y-123725000I150000J0D01*
G01*
X105670000Y-123725000D01*
G75*
G02*
X105820000Y-123875000I0J-150000D01*
G01*
X105820000Y-124175000D01*
G75*
G02*
X105670000Y-124325000I-150000J0D01*
G01*
X104320000Y-124325000D01*
G75*
G02*
X104170000Y-124175000I0J150000D01*
G01*
G37*
G36*
G01*
X104170000Y-125445000D02*
X104170000Y-125145000D01*
G75*
G02*
X104320000Y-124995000I150000J0D01*
G01*
X105670000Y-124995000D01*
G75*
G02*
X105820000Y-125145000I0J-150000D01*
G01*
X105820000Y-125445000D01*
G75*
G02*
X105670000Y-125595000I-150000J0D01*
G01*
X104320000Y-125595000D01*
G75*
G02*
X104170000Y-125445000I0J150000D01*
G01*
G37*
G36*
G01*
X104170000Y-126715000D02*
X104170000Y-126415000D01*
G75*
G02*
X104320000Y-126265000I150000J0D01*
G01*
X105670000Y-126265000D01*
G75*
G02*
X105820000Y-126415000I0J-150000D01*
G01*
X105820000Y-126715000D01*
G75*
G02*
X105670000Y-126865000I-150000J0D01*
G01*
X104320000Y-126865000D01*
G75*
G02*
X104170000Y-126715000I0J150000D01*
G01*
G37*
G36*
G01*
X104170000Y-127985000D02*
X104170000Y-127685000D01*
G75*
G02*
X104320000Y-127535000I150000J0D01*
G01*
X105670000Y-127535000D01*
G75*
G02*
X105820000Y-127685000I0J-150000D01*
G01*
X105820000Y-127985000D01*
G75*
G02*
X105670000Y-128135000I-150000J0D01*
G01*
X104320000Y-128135000D01*
G75*
G02*
X104170000Y-127985000I0J150000D01*
G01*
G37*
G04 #@! TD*
M02*
