G04 #@! TF.GenerationSoftware,KiCad,Pcbnew,5.1.9-1.fc33*
G04 #@! TF.CreationDate,2021-04-27T13:35:09+02:00*
G04 #@! TF.ProjectId,reDIP-SID,72654449-502d-4534-9944-2e6b69636164,0.2*
G04 #@! TF.SameCoordinates,PX5e28010PY8011a50*
G04 #@! TF.FileFunction,Legend,Bot*
G04 #@! TF.FilePolarity,Positive*
%FSLAX46Y46*%
G04 Gerber Fmt 4.6, Leading zero omitted, Abs format (unit mm)*
G04 Created by KiCad (PCBNEW 5.1.9-1.fc33) date 2021-04-27 13:35:09*
%MOMM*%
%LPD*%
G01*
G04 APERTURE LIST*
%ADD10C,0.120000*%
%ADD11C,0.150000*%
%ADD12C,0.350000*%
G04 APERTURE END LIST*
D10*
X104396193Y-129107664D02*
X103971928Y-128683400D01*
X103689086Y-128966243D02*
X103608274Y-129047055D01*
X103588071Y-129107664D01*
X103588071Y-129188477D01*
X103648680Y-129289492D01*
X103790101Y-129430913D01*
X103891116Y-129491522D01*
X103971928Y-129491522D01*
X104032538Y-129471319D01*
X104113350Y-129390507D01*
X104133553Y-129329898D01*
X104133553Y-129249086D01*
X104072944Y-129148071D01*
X103931522Y-129006649D01*
X103830507Y-128946040D01*
X103749695Y-128946040D01*
X103689086Y-128966243D01*
X103365837Y-129289492D02*
X103103197Y-129552132D01*
X103406243Y-129572335D01*
X103345634Y-129632944D01*
X103325431Y-129693553D01*
X103325431Y-129733959D01*
X103345634Y-129794568D01*
X103446649Y-129895583D01*
X103507258Y-129915786D01*
X103547664Y-129915786D01*
X103608274Y-129895583D01*
X103729492Y-129774365D01*
X103749695Y-129713756D01*
X103749695Y-129673350D01*
X104326193Y-131677664D02*
X103901928Y-131253400D01*
X103619086Y-131536243D02*
X103538274Y-131617055D01*
X103518071Y-131677664D01*
X103518071Y-131758477D01*
X103578680Y-131859492D01*
X103720101Y-132000913D01*
X103821116Y-132061522D01*
X103901928Y-132061522D01*
X103962538Y-132041319D01*
X104043350Y-131960507D01*
X104063553Y-131899898D01*
X104063553Y-131819086D01*
X104002944Y-131718071D01*
X103861522Y-131576649D01*
X103760507Y-131516040D01*
X103679695Y-131516040D01*
X103619086Y-131536243D01*
X103316040Y-131920101D02*
X103275634Y-131920101D01*
X103215025Y-131940304D01*
X103114009Y-132041319D01*
X103093806Y-132101928D01*
X103093806Y-132142335D01*
X103114009Y-132202944D01*
X103154416Y-132243350D01*
X103235228Y-132283756D01*
X103720101Y-132283756D01*
X103457461Y-132546396D01*
X106906193Y-129097664D02*
X106481928Y-128673400D01*
X106199086Y-128956243D02*
X106118274Y-129037055D01*
X106098071Y-129097664D01*
X106098071Y-129178477D01*
X106158680Y-129279492D01*
X106300101Y-129420913D01*
X106401116Y-129481522D01*
X106481928Y-129481522D01*
X106542538Y-129461319D01*
X106623350Y-129380507D01*
X106643553Y-129319898D01*
X106643553Y-129239086D01*
X106582944Y-129138071D01*
X106441522Y-128996649D01*
X106340507Y-128936040D01*
X106259695Y-128936040D01*
X106199086Y-128956243D01*
X105754619Y-129400710D02*
X105714213Y-129441116D01*
X105694009Y-129501725D01*
X105694009Y-129542132D01*
X105714213Y-129602741D01*
X105774822Y-129703756D01*
X105875837Y-129804771D01*
X105976852Y-129865380D01*
X106037461Y-129885583D01*
X106077867Y-129885583D01*
X106138477Y-129865380D01*
X106178883Y-129824974D01*
X106199086Y-129764365D01*
X106199086Y-129723959D01*
X106178883Y-129663350D01*
X106118274Y-129562335D01*
X106017258Y-129461319D01*
X105916243Y-129400710D01*
X105855634Y-129380507D01*
X105815228Y-129380507D01*
X105754619Y-129400710D01*
X111784061Y-129188984D02*
X111824467Y-129188984D01*
X111905279Y-129148578D01*
X111945685Y-129108172D01*
X111986091Y-129027360D01*
X111986091Y-128946548D01*
X111965888Y-128885938D01*
X111905279Y-128784923D01*
X111844670Y-128724314D01*
X111743654Y-128663705D01*
X111683045Y-128643502D01*
X111602233Y-128643502D01*
X111521421Y-128683908D01*
X111481015Y-128724314D01*
X111440609Y-128805126D01*
X111440609Y-128845532D01*
X111440609Y-129613248D02*
X111642639Y-129411218D01*
X111218375Y-128986954D01*
X111299187Y-129754670D02*
X110874923Y-129330406D01*
X111056751Y-129997106D02*
X110996142Y-129572842D01*
X110632487Y-129572842D02*
X111117360Y-129572842D01*
X113798383Y-128660058D02*
X113374119Y-129084322D01*
X114022233Y-129570812D02*
X114062639Y-129570812D01*
X114143451Y-129530406D01*
X114183857Y-129490000D01*
X114224264Y-129409187D01*
X114224264Y-129328375D01*
X114204061Y-129267766D01*
X114143451Y-129166751D01*
X114082842Y-129106142D01*
X113981827Y-129045532D01*
X113921218Y-129025329D01*
X113840406Y-129025329D01*
X113759593Y-129065735D01*
X113719187Y-129106142D01*
X113678781Y-129186954D01*
X113678781Y-129227360D01*
X113374119Y-129084322D02*
X112970058Y-129488383D01*
X113880812Y-129752639D02*
X113840406Y-129833451D01*
X113739390Y-129934467D01*
X113678781Y-129954670D01*
X113638375Y-129954670D01*
X113577766Y-129934467D01*
X113537360Y-129894061D01*
X113517157Y-129833451D01*
X113517157Y-129793045D01*
X113537360Y-129732436D01*
X113597969Y-129631421D01*
X113618172Y-129570812D01*
X113618172Y-129530406D01*
X113597969Y-129469796D01*
X113557563Y-129429390D01*
X113496954Y-129409187D01*
X113456548Y-129409187D01*
X113395938Y-129429390D01*
X113294923Y-129530406D01*
X113254517Y-129611218D01*
X106612944Y-131102385D02*
X106350304Y-131365025D01*
X106653350Y-131385228D01*
X106592741Y-131445837D01*
X106572538Y-131506446D01*
X106572538Y-131546852D01*
X106592741Y-131607461D01*
X106693756Y-131708477D01*
X106754365Y-131728680D01*
X106794771Y-131728680D01*
X106855380Y-131708477D01*
X106976599Y-131587258D01*
X106996802Y-131526649D01*
X106996802Y-131486243D01*
X106229086Y-131486243D02*
X106511928Y-132051928D01*
X105946243Y-131769086D01*
X105845228Y-131870101D02*
X105582588Y-132132741D01*
X105885634Y-132152944D01*
X105825025Y-132213553D01*
X105804822Y-132274162D01*
X105804822Y-132314568D01*
X105825025Y-132375177D01*
X105926040Y-132476193D01*
X105986649Y-132496396D01*
X106027055Y-132496396D01*
X106087664Y-132476193D01*
X106208883Y-132354974D01*
X106229086Y-132294365D01*
X106229086Y-132253959D01*
X109021116Y-131264619D02*
X109041319Y-131204009D01*
X109101928Y-131143400D01*
X109182741Y-131102994D01*
X109263553Y-131102994D01*
X109324162Y-131123197D01*
X109425177Y-131183806D01*
X109485786Y-131244416D01*
X109546396Y-131345431D01*
X109566599Y-131406040D01*
X109566599Y-131486852D01*
X109526193Y-131567664D01*
X109485786Y-131608071D01*
X109404974Y-131648477D01*
X109364568Y-131648477D01*
X109223147Y-131507055D01*
X109303959Y-131426243D01*
X109223147Y-131870710D02*
X108798883Y-131446446D01*
X108980710Y-132113147D01*
X108556446Y-131688883D01*
X108778680Y-132315177D02*
X108354416Y-131890913D01*
X108253400Y-131991928D01*
X108212994Y-132072741D01*
X108212994Y-132153553D01*
X108233197Y-132214162D01*
X108293806Y-132315177D01*
X108354416Y-132375786D01*
X108455431Y-132436396D01*
X108516040Y-132456599D01*
X108596852Y-132456599D01*
X108677664Y-132416193D01*
X108778680Y-132315177D01*
X114414568Y-131638477D02*
X114454974Y-131638477D01*
X114535786Y-131598071D01*
X114576193Y-131557664D01*
X114616599Y-131476852D01*
X114616599Y-131396040D01*
X114596396Y-131335431D01*
X114535786Y-131234416D01*
X114475177Y-131173806D01*
X114374162Y-131113197D01*
X114313553Y-131092994D01*
X114232741Y-131092994D01*
X114151928Y-131133400D01*
X114111522Y-131173806D01*
X114071116Y-131254619D01*
X114071116Y-131295025D01*
X114273147Y-131860710D02*
X113848883Y-131436446D01*
X113747867Y-131537461D01*
X113707461Y-131618274D01*
X113707461Y-131699086D01*
X113727664Y-131759695D01*
X113788274Y-131860710D01*
X113848883Y-131921319D01*
X113949898Y-131981928D01*
X114010507Y-132002132D01*
X114091319Y-132002132D01*
X114172132Y-131961725D01*
X114273147Y-131860710D01*
X113848883Y-132284974D02*
X113424619Y-131860710D01*
X113606446Y-132527411D01*
X113182182Y-132103147D01*
X111540008Y-130848434D02*
X111115744Y-131272698D01*
X111804264Y-131799593D02*
X111743654Y-131456142D01*
X112046700Y-131557157D02*
X111622436Y-131132893D01*
X111460812Y-131294517D01*
X111440609Y-131355126D01*
X111440609Y-131395532D01*
X111460812Y-131456142D01*
X111521421Y-131516751D01*
X111582030Y-131536954D01*
X111622436Y-131536954D01*
X111683045Y-131516751D01*
X111844670Y-131355126D01*
X111115744Y-131272698D02*
X110711683Y-131676759D01*
X111622436Y-131941015D02*
X111582030Y-132021827D01*
X111481015Y-132122842D01*
X111420406Y-132143045D01*
X111380000Y-132143045D01*
X111319390Y-132122842D01*
X111278984Y-132082436D01*
X111258781Y-132021827D01*
X111258781Y-131981421D01*
X111278984Y-131920812D01*
X111339593Y-131819796D01*
X111359796Y-131759187D01*
X111359796Y-131718781D01*
X111339593Y-131658172D01*
X111299187Y-131617766D01*
X111238578Y-131597563D01*
X111198172Y-131597563D01*
X111137563Y-131617766D01*
X111036548Y-131718781D01*
X110996142Y-131799593D01*
X110711683Y-131676759D02*
X110388434Y-132000008D01*
X110854720Y-131900609D02*
X110612284Y-132143045D01*
X111157766Y-132446091D02*
X110733502Y-132021827D01*
X109396193Y-129097664D02*
X108971928Y-128673400D01*
X108689086Y-128956243D02*
X108608274Y-129037055D01*
X108588071Y-129097664D01*
X108588071Y-129178477D01*
X108648680Y-129279492D01*
X108790101Y-129420913D01*
X108891116Y-129481522D01*
X108971928Y-129481522D01*
X109032538Y-129461319D01*
X109113350Y-129380507D01*
X109133553Y-129319898D01*
X109133553Y-129239086D01*
X109072944Y-129138071D01*
X108931522Y-128996649D01*
X108830507Y-128936040D01*
X108749695Y-128936040D01*
X108689086Y-128956243D01*
X108527461Y-129966396D02*
X108769898Y-129723959D01*
X108648680Y-129845177D02*
X108224416Y-129420913D01*
X108325431Y-129441116D01*
X108406243Y-129441116D01*
X108466852Y-129420913D01*
X113168571Y-99542857D02*
X113140000Y-99571428D01*
X113111428Y-99628571D01*
X113111428Y-99771428D01*
X113140000Y-99828571D01*
X113168571Y-99857142D01*
X113225714Y-99885714D01*
X113282857Y-99885714D01*
X113368571Y-99857142D01*
X113711428Y-99514285D01*
X113711428Y-99885714D01*
X113368571Y-100228571D02*
X113340000Y-100171428D01*
X113311428Y-100142857D01*
X113254285Y-100114285D01*
X113225714Y-100114285D01*
X113168571Y-100142857D01*
X113140000Y-100171428D01*
X113111428Y-100228571D01*
X113111428Y-100342857D01*
X113140000Y-100400000D01*
X113168571Y-100428571D01*
X113225714Y-100457142D01*
X113254285Y-100457142D01*
X113311428Y-100428571D01*
X113340000Y-100400000D01*
X113368571Y-100342857D01*
X113368571Y-100228571D01*
X113397142Y-100171428D01*
X113425714Y-100142857D01*
X113482857Y-100114285D01*
X113597142Y-100114285D01*
X113654285Y-100142857D01*
X113682857Y-100171428D01*
X113711428Y-100228571D01*
X113711428Y-100342857D01*
X113682857Y-100400000D01*
X113654285Y-100428571D01*
X113597142Y-100457142D01*
X113482857Y-100457142D01*
X113425714Y-100428571D01*
X113397142Y-100400000D01*
X113368571Y-100342857D01*
D11*
X107507619Y-103488095D02*
X107507619Y-103278571D01*
X107560000Y-103173809D01*
X107612380Y-103121428D01*
X107769523Y-103016666D01*
X107979047Y-102964285D01*
X108398095Y-102964285D01*
X108502857Y-103016666D01*
X108555238Y-103069047D01*
X108607619Y-103173809D01*
X108607619Y-103383333D01*
X108555238Y-103488095D01*
X108502857Y-103540476D01*
X108398095Y-103592857D01*
X108136190Y-103592857D01*
X108031428Y-103540476D01*
X107979047Y-103488095D01*
X107926666Y-103383333D01*
X107926666Y-103173809D01*
X107979047Y-103069047D01*
X108031428Y-103016666D01*
X108136190Y-102964285D01*
X107507619Y-104588095D02*
X107507619Y-104064285D01*
X108031428Y-104011904D01*
X107979047Y-104064285D01*
X107926666Y-104169047D01*
X107926666Y-104430952D01*
X107979047Y-104535714D01*
X108031428Y-104588095D01*
X108136190Y-104640476D01*
X108398095Y-104640476D01*
X108502857Y-104588095D01*
X108555238Y-104535714D01*
X108607619Y-104430952D01*
X108607619Y-104169047D01*
X108555238Y-104064285D01*
X108502857Y-104011904D01*
X107979047Y-105269047D02*
X107926666Y-105164285D01*
X107874285Y-105111904D01*
X107769523Y-105059523D01*
X107717142Y-105059523D01*
X107612380Y-105111904D01*
X107560000Y-105164285D01*
X107507619Y-105269047D01*
X107507619Y-105478571D01*
X107560000Y-105583333D01*
X107612380Y-105635714D01*
X107717142Y-105688095D01*
X107769523Y-105688095D01*
X107874285Y-105635714D01*
X107926666Y-105583333D01*
X107979047Y-105478571D01*
X107979047Y-105269047D01*
X108031428Y-105164285D01*
X108083809Y-105111904D01*
X108188571Y-105059523D01*
X108398095Y-105059523D01*
X108502857Y-105111904D01*
X108555238Y-105164285D01*
X108607619Y-105269047D01*
X108607619Y-105478571D01*
X108555238Y-105583333D01*
X108502857Y-105635714D01*
X108398095Y-105688095D01*
X108188571Y-105688095D01*
X108083809Y-105635714D01*
X108031428Y-105583333D01*
X107979047Y-105478571D01*
X108607619Y-106735714D02*
X108607619Y-106107142D01*
X108607619Y-106421428D02*
X107507619Y-106421428D01*
X107664761Y-106316666D01*
X107769523Y-106211904D01*
X107821904Y-106107142D01*
D10*
X110310000Y-100601428D02*
X110310000Y-100001428D01*
X109967142Y-100601428D01*
X109967142Y-100001428D01*
X109595714Y-100601428D02*
X109652857Y-100572857D01*
X109681428Y-100544285D01*
X109710000Y-100487142D01*
X109710000Y-100315714D01*
X109681428Y-100258571D01*
X109652857Y-100230000D01*
X109595714Y-100201428D01*
X109510000Y-100201428D01*
X109452857Y-100230000D01*
X109424285Y-100258571D01*
X109395714Y-100315714D01*
X109395714Y-100487142D01*
X109424285Y-100544285D01*
X109452857Y-100572857D01*
X109510000Y-100601428D01*
X109595714Y-100601428D01*
X108710000Y-100572857D02*
X108624285Y-100601428D01*
X108481428Y-100601428D01*
X108424285Y-100572857D01*
X108395714Y-100544285D01*
X108367142Y-100487142D01*
X108367142Y-100430000D01*
X108395714Y-100372857D01*
X108424285Y-100344285D01*
X108481428Y-100315714D01*
X108595714Y-100287142D01*
X108652857Y-100258571D01*
X108681428Y-100230000D01*
X108710000Y-100172857D01*
X108710000Y-100115714D01*
X108681428Y-100058571D01*
X108652857Y-100030000D01*
X108595714Y-100001428D01*
X108452857Y-100001428D01*
X108367142Y-100030000D01*
X108110000Y-100601428D02*
X108110000Y-100001428D01*
X107824285Y-100601428D02*
X107824285Y-100001428D01*
X107681428Y-100001428D01*
X107595714Y-100030000D01*
X107538571Y-100087142D01*
X107510000Y-100144285D01*
X107481428Y-100258571D01*
X107481428Y-100344285D01*
X107510000Y-100458571D01*
X107538571Y-100515714D01*
X107595714Y-100572857D01*
X107681428Y-100601428D01*
X107824285Y-100601428D01*
X106767142Y-100201428D02*
X106767142Y-100801428D01*
X106767142Y-100230000D02*
X106710000Y-100201428D01*
X106595714Y-100201428D01*
X106538571Y-100230000D01*
X106510000Y-100258571D01*
X106481428Y-100315714D01*
X106481428Y-100487142D01*
X106510000Y-100544285D01*
X106538571Y-100572857D01*
X106595714Y-100601428D01*
X106710000Y-100601428D01*
X106767142Y-100572857D01*
X106224285Y-100601428D02*
X106224285Y-100201428D01*
X106224285Y-100001428D02*
X106252857Y-100030000D01*
X106224285Y-100058571D01*
X106195714Y-100030000D01*
X106224285Y-100001428D01*
X106224285Y-100058571D01*
X105938571Y-100201428D02*
X105938571Y-100601428D01*
X105938571Y-100258571D02*
X105910000Y-100230000D01*
X105852857Y-100201428D01*
X105767142Y-100201428D01*
X105710000Y-100230000D01*
X105681428Y-100287142D01*
X105681428Y-100601428D01*
X105424285Y-100572857D02*
X105367142Y-100601428D01*
X105252857Y-100601428D01*
X105195714Y-100572857D01*
X105167142Y-100515714D01*
X105167142Y-100487142D01*
X105195714Y-100430000D01*
X105252857Y-100401428D01*
X105338571Y-100401428D01*
X105395714Y-100372857D01*
X105424285Y-100315714D01*
X105424285Y-100287142D01*
X105395714Y-100230000D01*
X105338571Y-100201428D01*
X105252857Y-100201428D01*
X105195714Y-100230000D01*
X104910000Y-100544285D02*
X104881428Y-100572857D01*
X104910000Y-100601428D01*
X104938571Y-100572857D01*
X104910000Y-100544285D01*
X104910000Y-100601428D01*
X104910000Y-100372857D02*
X104938571Y-100030000D01*
X104910000Y-100001428D01*
X104881428Y-100030000D01*
X104910000Y-100372857D01*
X104910000Y-100001428D01*
X101270000Y-108890000D02*
X98930000Y-108890000D01*
X116310000Y-101270000D02*
X101270000Y-101270000D01*
X101270000Y-108890000D02*
X101270000Y-101270000D01*
X106394285Y-109180000D02*
X106422857Y-109151428D01*
X106451428Y-109065714D01*
X106451428Y-109008571D01*
X106422857Y-108922857D01*
X106365714Y-108865714D01*
X106308571Y-108837142D01*
X106194285Y-108808571D01*
X106108571Y-108808571D01*
X105994285Y-108837142D01*
X105937142Y-108865714D01*
X105880000Y-108922857D01*
X105851428Y-109008571D01*
X105851428Y-109065714D01*
X105880000Y-109151428D01*
X105908571Y-109180000D01*
X106137142Y-109437142D02*
X106137142Y-109637142D01*
X106451428Y-109722857D02*
X106451428Y-109437142D01*
X105851428Y-109437142D01*
X105851428Y-109722857D01*
X106451428Y-110322857D02*
X106165714Y-110122857D01*
X106451428Y-109980000D02*
X105851428Y-109980000D01*
X105851428Y-110208571D01*
X105880000Y-110265714D01*
X105908571Y-110294285D01*
X105965714Y-110322857D01*
X106051428Y-110322857D01*
X106108571Y-110294285D01*
X106137142Y-110265714D01*
X106165714Y-110208571D01*
X106165714Y-109980000D01*
X106451428Y-110580000D02*
X105851428Y-110580000D01*
X106451428Y-110922857D01*
X105851428Y-110922857D01*
X106222857Y-111208571D02*
X106222857Y-111665714D01*
X105851428Y-112065714D02*
X105851428Y-112180000D01*
X105880000Y-112237142D01*
X105937142Y-112294285D01*
X106051428Y-112322857D01*
X106251428Y-112322857D01*
X106365714Y-112294285D01*
X106422857Y-112237142D01*
X106451428Y-112180000D01*
X106451428Y-112065714D01*
X106422857Y-112008571D01*
X106365714Y-111951428D01*
X106251428Y-111922857D01*
X106051428Y-111922857D01*
X105937142Y-111951428D01*
X105880000Y-112008571D01*
X105851428Y-112065714D01*
X106451428Y-112580000D02*
X105851428Y-112580000D01*
X106137142Y-112580000D02*
X106137142Y-112922857D01*
X106451428Y-112922857D02*
X105851428Y-112922857D01*
X106451428Y-113494285D02*
X106451428Y-113208571D01*
X105851428Y-113208571D01*
X106222857Y-113694285D02*
X106222857Y-114151428D01*
X106422857Y-114408571D02*
X106451428Y-114494285D01*
X106451428Y-114637142D01*
X106422857Y-114694285D01*
X106394285Y-114722857D01*
X106337142Y-114751428D01*
X106280000Y-114751428D01*
X106222857Y-114722857D01*
X106194285Y-114694285D01*
X106165714Y-114637142D01*
X106137142Y-114522857D01*
X106108571Y-114465714D01*
X106080000Y-114437142D01*
X106022857Y-114408571D01*
X105965714Y-114408571D01*
X105908571Y-114437142D01*
X105880000Y-114465714D01*
X105851428Y-114522857D01*
X105851428Y-114665714D01*
X105880000Y-114751428D01*
X107071428Y-111351428D02*
X107471428Y-111494285D01*
X107071428Y-111637142D01*
X106928571Y-111837142D02*
X106900000Y-111865714D01*
X106871428Y-111922857D01*
X106871428Y-112065714D01*
X106900000Y-112122857D01*
X106928571Y-112151428D01*
X106985714Y-112180000D01*
X107042857Y-112180000D01*
X107128571Y-112151428D01*
X107471428Y-111808571D01*
X107471428Y-112180000D01*
X104400000Y-103550000D02*
X104100000Y-103250000D01*
X104700000Y-103250000D02*
X104400000Y-103550000D01*
X104400000Y-101920000D02*
X104400000Y-103550000D01*
X104400000Y-100600000D02*
X104400000Y-99310000D01*
X104400000Y-99310000D02*
X104700000Y-99610000D01*
X104100000Y-99610000D02*
X104400000Y-99310000D01*
X110860000Y-99310000D02*
X111160000Y-99610000D01*
X110560000Y-99610000D02*
X110860000Y-99310000D01*
X110860000Y-100600000D02*
X110860000Y-99310000D01*
X102131428Y-100171428D02*
X102131428Y-99828571D01*
X102131428Y-100000000D02*
X101531428Y-100000000D01*
X101617142Y-99942857D01*
X101674285Y-99885714D01*
X101702857Y-99828571D01*
X111160000Y-103250000D02*
X110860000Y-103550000D01*
X110860000Y-103550000D02*
X110560000Y-103250000D01*
X110860000Y-101920000D02*
X110860000Y-103550000D01*
X109338571Y-103063809D02*
X110138571Y-103063809D01*
X109376666Y-103063809D02*
X109338571Y-103140000D01*
X109338571Y-103292380D01*
X109376666Y-103368571D01*
X109414761Y-103406666D01*
X109490952Y-103444761D01*
X109719523Y-103444761D01*
X109795714Y-103406666D01*
X109833809Y-103368571D01*
X109871904Y-103292380D01*
X109871904Y-103140000D01*
X109833809Y-103063809D01*
X109871904Y-103787619D02*
X109338571Y-103787619D01*
X109071904Y-103787619D02*
X109110000Y-103749523D01*
X109148095Y-103787619D01*
X109110000Y-103825714D01*
X109071904Y-103787619D01*
X109148095Y-103787619D01*
X109338571Y-104168571D02*
X109871904Y-104168571D01*
X109414761Y-104168571D02*
X109376666Y-104206666D01*
X109338571Y-104282857D01*
X109338571Y-104397142D01*
X109376666Y-104473333D01*
X109452857Y-104511428D01*
X109871904Y-104511428D01*
X109871904Y-105006666D02*
X109833809Y-104930476D01*
X109795714Y-104892380D01*
X109719523Y-104854285D01*
X109490952Y-104854285D01*
X109414761Y-104892380D01*
X109376666Y-104930476D01*
X109338571Y-105006666D01*
X109338571Y-105120952D01*
X109376666Y-105197142D01*
X109414761Y-105235238D01*
X109490952Y-105273333D01*
X109719523Y-105273333D01*
X109795714Y-105235238D01*
X109833809Y-105197142D01*
X109871904Y-105120952D01*
X109871904Y-105006666D01*
X109338571Y-105959047D02*
X109871904Y-105959047D01*
X109338571Y-105616190D02*
X109757619Y-105616190D01*
X109833809Y-105654285D01*
X109871904Y-105730476D01*
X109871904Y-105844761D01*
X109833809Y-105920952D01*
X109795714Y-105959047D01*
X109338571Y-106225714D02*
X109338571Y-106530476D01*
X109071904Y-106340000D02*
X109757619Y-106340000D01*
X109833809Y-106378095D01*
X109871904Y-106454285D01*
X109871904Y-106530476D01*
X101000000Y-100000000D02*
G75*
G03*
X101000000Y-100000000I-1000000J0D01*
G01*
D11*
X102532380Y-124203809D02*
X102494285Y-124127619D01*
X102494285Y-123975238D01*
X102532380Y-123899047D01*
X102608571Y-123822857D01*
X102684761Y-123784761D01*
X102837142Y-123784761D01*
X102913333Y-123822857D01*
X102989523Y-123899047D01*
X103027619Y-123975238D01*
X103027619Y-124127619D01*
X102989523Y-124203809D01*
X102227619Y-124051428D02*
X102265714Y-123860952D01*
X102380000Y-123670476D01*
X102570476Y-123556190D01*
X102760952Y-123518095D01*
X102951428Y-123556190D01*
X103141904Y-123670476D01*
X103256190Y-123860952D01*
X103294285Y-124051428D01*
X103256190Y-124241904D01*
X103141904Y-124432380D01*
X102951428Y-124546666D01*
X102760952Y-124584761D01*
X102570476Y-124546666D01*
X102380000Y-124432380D01*
X102265714Y-124241904D01*
X102227619Y-124051428D01*
X102418095Y-125499047D02*
X102380000Y-125537142D01*
X102341904Y-125613333D01*
X102341904Y-125803809D01*
X102380000Y-125880000D01*
X102418095Y-125918095D01*
X102494285Y-125956190D01*
X102570476Y-125956190D01*
X102684761Y-125918095D01*
X103141904Y-125460952D01*
X103141904Y-125956190D01*
X102341904Y-126451428D02*
X102341904Y-126527619D01*
X102380000Y-126603809D01*
X102418095Y-126641904D01*
X102494285Y-126680000D01*
X102646666Y-126718095D01*
X102837142Y-126718095D01*
X102989523Y-126680000D01*
X103065714Y-126641904D01*
X103103809Y-126603809D01*
X103141904Y-126527619D01*
X103141904Y-126451428D01*
X103103809Y-126375238D01*
X103065714Y-126337142D01*
X102989523Y-126299047D01*
X102837142Y-126260952D01*
X102646666Y-126260952D01*
X102494285Y-126299047D01*
X102418095Y-126337142D01*
X102380000Y-126375238D01*
X102341904Y-126451428D01*
X102418095Y-127022857D02*
X102380000Y-127060952D01*
X102341904Y-127137142D01*
X102341904Y-127327619D01*
X102380000Y-127403809D01*
X102418095Y-127441904D01*
X102494285Y-127480000D01*
X102570476Y-127480000D01*
X102684761Y-127441904D01*
X103141904Y-126984761D01*
X103141904Y-127480000D01*
X103141904Y-128241904D02*
X103141904Y-127784761D01*
X103141904Y-128013333D02*
X102341904Y-128013333D01*
X102456190Y-127937142D01*
X102532380Y-127860952D01*
X102570476Y-127784761D01*
X112701904Y-123441904D02*
X111901904Y-123441904D01*
X111901904Y-123632380D01*
X111940000Y-123746666D01*
X112016190Y-123822857D01*
X112092380Y-123860952D01*
X112244761Y-123899047D01*
X112359047Y-123899047D01*
X112511428Y-123860952D01*
X112587619Y-123822857D01*
X112663809Y-123746666D01*
X112701904Y-123632380D01*
X112701904Y-123441904D01*
X112701904Y-124584761D02*
X112282857Y-124584761D01*
X112206666Y-124546666D01*
X112168571Y-124470476D01*
X112168571Y-124318095D01*
X112206666Y-124241904D01*
X112663809Y-124584761D02*
X112701904Y-124508571D01*
X112701904Y-124318095D01*
X112663809Y-124241904D01*
X112587619Y-124203809D01*
X112511428Y-124203809D01*
X112435238Y-124241904D01*
X112397142Y-124318095D01*
X112397142Y-124508571D01*
X112359047Y-124584761D01*
X112168571Y-125308571D02*
X112816190Y-125308571D01*
X112892380Y-125270476D01*
X112930476Y-125232380D01*
X112968571Y-125156190D01*
X112968571Y-125041904D01*
X112930476Y-124965714D01*
X112663809Y-125308571D02*
X112701904Y-125232380D01*
X112701904Y-125080000D01*
X112663809Y-125003809D01*
X112625714Y-124965714D01*
X112549523Y-124927619D01*
X112320952Y-124927619D01*
X112244761Y-124965714D01*
X112206666Y-125003809D01*
X112168571Y-125080000D01*
X112168571Y-125232380D01*
X112206666Y-125308571D01*
X112701904Y-126680000D02*
X112701904Y-126299047D01*
X111901904Y-126299047D01*
X112663809Y-127251428D02*
X112701904Y-127175238D01*
X112701904Y-127022857D01*
X112663809Y-126946666D01*
X112587619Y-126908571D01*
X112282857Y-126908571D01*
X112206666Y-126946666D01*
X112168571Y-127022857D01*
X112168571Y-127175238D01*
X112206666Y-127251428D01*
X112282857Y-127289523D01*
X112359047Y-127289523D01*
X112435238Y-126908571D01*
X112701904Y-127632380D02*
X112168571Y-127632380D01*
X112244761Y-127632380D02*
X112206666Y-127670476D01*
X112168571Y-127746666D01*
X112168571Y-127860952D01*
X112206666Y-127937142D01*
X112282857Y-127975238D01*
X112701904Y-127975238D01*
X112282857Y-127975238D02*
X112206666Y-128013333D01*
X112168571Y-128089523D01*
X112168571Y-128203809D01*
X112206666Y-128280000D01*
X112282857Y-128318095D01*
X112701904Y-128318095D01*
D10*
X108772857Y-112985714D02*
X108801428Y-113071428D01*
X108801428Y-113214285D01*
X108772857Y-113271428D01*
X108744285Y-113300000D01*
X108687142Y-113328571D01*
X108630000Y-113328571D01*
X108572857Y-113300000D01*
X108544285Y-113271428D01*
X108515714Y-113214285D01*
X108487142Y-113100000D01*
X108458571Y-113042857D01*
X108430000Y-113014285D01*
X108372857Y-112985714D01*
X108315714Y-112985714D01*
X108258571Y-113014285D01*
X108230000Y-113042857D01*
X108201428Y-113100000D01*
X108201428Y-113242857D01*
X108230000Y-113328571D01*
X108744285Y-113928571D02*
X108772857Y-113900000D01*
X108801428Y-113814285D01*
X108801428Y-113757142D01*
X108772857Y-113671428D01*
X108715714Y-113614285D01*
X108658571Y-113585714D01*
X108544285Y-113557142D01*
X108458571Y-113557142D01*
X108344285Y-113585714D01*
X108287142Y-113614285D01*
X108230000Y-113671428D01*
X108201428Y-113757142D01*
X108201428Y-113814285D01*
X108230000Y-113900000D01*
X108258571Y-113928571D01*
X108801428Y-114471428D02*
X108801428Y-114185714D01*
X108201428Y-114185714D01*
X108762857Y-110801428D02*
X108791428Y-110887142D01*
X108791428Y-111030000D01*
X108762857Y-111087142D01*
X108734285Y-111115714D01*
X108677142Y-111144285D01*
X108620000Y-111144285D01*
X108562857Y-111115714D01*
X108534285Y-111087142D01*
X108505714Y-111030000D01*
X108477142Y-110915714D01*
X108448571Y-110858571D01*
X108420000Y-110830000D01*
X108362857Y-110801428D01*
X108305714Y-110801428D01*
X108248571Y-110830000D01*
X108220000Y-110858571D01*
X108191428Y-110915714D01*
X108191428Y-111058571D01*
X108220000Y-111144285D01*
X108791428Y-111401428D02*
X108191428Y-111401428D01*
X108191428Y-111544285D01*
X108220000Y-111630000D01*
X108277142Y-111687142D01*
X108334285Y-111715714D01*
X108448571Y-111744285D01*
X108534285Y-111744285D01*
X108648571Y-111715714D01*
X108705714Y-111687142D01*
X108762857Y-111630000D01*
X108791428Y-111544285D01*
X108791428Y-111401428D01*
X108620000Y-111972857D02*
X108620000Y-112258571D01*
X108791428Y-111915714D02*
X108191428Y-112115714D01*
X108791428Y-112315714D01*
X104301428Y-108308571D02*
X104301428Y-107965714D01*
X104301428Y-108137142D02*
X103701428Y-108137142D01*
X103787142Y-108080000D01*
X103844285Y-108022857D01*
X103872857Y-107965714D01*
X103701428Y-108480000D02*
X104301428Y-108680000D01*
X103701428Y-108880000D01*
X103758571Y-109051428D02*
X103730000Y-109080000D01*
X103701428Y-109137142D01*
X103701428Y-109280000D01*
X103730000Y-109337142D01*
X103758571Y-109365714D01*
X103815714Y-109394285D01*
X103872857Y-109394285D01*
X103958571Y-109365714D01*
X104301428Y-109022857D01*
X104301428Y-109394285D01*
G04 #@! TO.C,U3*
X101870000Y-116700000D02*
X101870000Y-121100000D01*
X113370000Y-122550000D02*
X113370000Y-116700000D01*
G04 #@! TO.C,JP1*
X102720000Y-107376359D02*
X102720000Y-107683641D01*
X103480000Y-107376359D02*
X103480000Y-107683641D01*
D12*
G04 #@! TO.C,MOS logo*
G36*
X106422846Y-105954693D02*
G01*
X106422846Y-107703060D01*
X106456712Y-107736927D01*
X106498432Y-107736927D01*
X106603901Y-107716581D01*
X106716269Y-107670121D01*
X106823771Y-107592738D01*
X106914642Y-107479624D01*
X106977115Y-107325972D01*
X106999425Y-107126975D01*
X106999425Y-105954693D01*
X106965559Y-105920827D01*
X106456712Y-105920827D01*
X106422846Y-105954693D01*
G37*
G36*
X105771572Y-105949502D02*
G01*
X105771572Y-107681812D01*
X105805438Y-107715678D01*
X106281707Y-107715678D01*
X106315574Y-107681812D01*
X106315574Y-105949502D01*
X106281707Y-105915635D01*
X105805438Y-105915635D01*
X105771572Y-105949502D01*
G37*
G36*
X105091886Y-106449080D02*
G01*
X105091886Y-107664960D01*
X105125752Y-107698827D01*
X105626979Y-107698827D01*
X105660846Y-107664960D01*
X105660846Y-105948767D01*
X105626979Y-105914900D01*
X105575520Y-105914900D01*
X105442651Y-105941932D01*
X105313150Y-106009438D01*
X105201720Y-106116846D01*
X105123065Y-106263584D01*
X105091886Y-106449080D01*
G37*
G36*
X105090192Y-103252980D02*
G01*
X105090192Y-103297378D01*
X105125944Y-103466470D01*
X105212022Y-103608449D01*
X105334945Y-103717247D01*
X105481236Y-103786795D01*
X105637414Y-103811023D01*
X106965566Y-103811023D01*
X106999432Y-103777156D01*
X106999432Y-103252980D01*
X106965566Y-103219113D01*
X105124059Y-103219113D01*
X105090192Y-103252980D01*
G37*
G36*
X105090700Y-102573741D02*
G01*
X105090700Y-102618248D01*
X105127113Y-102779057D01*
X105207416Y-102919836D01*
X105322340Y-103032072D01*
X105462619Y-103107252D01*
X105618983Y-103136863D01*
X106964268Y-103136863D01*
X106998473Y-103102658D01*
X106998473Y-102573741D01*
X106964268Y-102539536D01*
X105124906Y-102539536D01*
X105090700Y-102573741D01*
G37*
G36*
X105093579Y-101916753D02*
G01*
X105093579Y-102404808D01*
X105127258Y-102438487D01*
X106964900Y-102438487D01*
X106998579Y-102404808D01*
X106998579Y-101916753D01*
X106964900Y-101883073D01*
X105127258Y-101883073D01*
X105093579Y-101916753D01*
G37*
G36*
X106040000Y-105820786D02*
G01*
X106197156Y-105808064D01*
X106346237Y-105771232D01*
X106485251Y-105712292D01*
X106612201Y-105633245D01*
X106725094Y-105536091D01*
X106821933Y-105422833D01*
X106900725Y-105295471D01*
X106959475Y-105156007D01*
X106996188Y-105006441D01*
X107008869Y-104848776D01*
X106996188Y-104691111D01*
X106959475Y-104541546D01*
X106900725Y-104402082D01*
X106821933Y-104274720D01*
X106725094Y-104161462D01*
X106612201Y-104064308D01*
X106485251Y-103985261D01*
X106346237Y-103926321D01*
X106197156Y-103889489D01*
X106040000Y-103876767D01*
X105882844Y-103889489D01*
X105733763Y-103926321D01*
X105594749Y-103985261D01*
X105467799Y-104064308D01*
X105354906Y-104161462D01*
X105258067Y-104274720D01*
X105179275Y-104402082D01*
X105120525Y-104541546D01*
X105083812Y-104691111D01*
X105071131Y-104848776D01*
X105083812Y-105006441D01*
X105120525Y-105156007D01*
X105179275Y-105295471D01*
X105258067Y-105422833D01*
X105354906Y-105536091D01*
X105467799Y-105633245D01*
X105594749Y-105712292D01*
X105733763Y-105771232D01*
X105882844Y-105808064D01*
X106040000Y-105820786D01*
G37*
G04 #@! TO.C,svg2mod*
G36*
X112091168Y-113927679D02*
G01*
X112534474Y-114124328D01*
X112460758Y-114147193D01*
X112380065Y-114160913D01*
X112292396Y-114165486D01*
X112218610Y-114161140D01*
X112141088Y-114148130D01*
X112064508Y-114123155D01*
X111993499Y-114083007D01*
X111943132Y-114039252D01*
X111904476Y-113987367D01*
X111877531Y-113927361D01*
X111863276Y-113863782D01*
X111857687Y-113785968D01*
X111857687Y-113392197D01*
X112771747Y-113392197D01*
X112771747Y-113785968D01*
X112764926Y-113864499D01*
X112744463Y-113934398D01*
X112710358Y-113995668D01*
X112662608Y-114048308D01*
X112601214Y-114092320D01*
X112534474Y-114124328D01*
X112091168Y-113927679D01*
X112148187Y-113951962D01*
X112219603Y-113966531D01*
X112305419Y-113971388D01*
X112399529Y-113964094D01*
X112479671Y-113942249D01*
X112553744Y-113897593D01*
X112598184Y-113834751D01*
X112612997Y-113753724D01*
X112612997Y-113577617D01*
X112016437Y-113577617D01*
X112016437Y-113753724D01*
X112024743Y-113830930D01*
X112049656Y-113888914D01*
X112091168Y-113927679D01*
G37*
G36*
X110565945Y-109458672D02*
G01*
X110595914Y-109389328D01*
X110629912Y-109319503D01*
X110667788Y-109249373D01*
X110709391Y-109179115D01*
X110754571Y-109108905D01*
X110803176Y-109038918D01*
X110855056Y-108969331D01*
X110910060Y-108900320D01*
X110968036Y-108832062D01*
X111028834Y-108764732D01*
X111092304Y-108698507D01*
X111158293Y-108633563D01*
X111226651Y-108570075D01*
X111297227Y-108508221D01*
X111369871Y-108448176D01*
X111444431Y-108390117D01*
X111520757Y-108334219D01*
X111598697Y-108280658D01*
X111678100Y-108229612D01*
X110566510Y-108229612D01*
X110566510Y-107812382D01*
X112769948Y-107812382D01*
X112769948Y-108229612D01*
X112761763Y-108229612D01*
X112681347Y-108233128D01*
X112600603Y-108241733D01*
X112519655Y-108255219D01*
X112438629Y-108273379D01*
X112357647Y-108296004D01*
X112276836Y-108322887D01*
X112196318Y-108353822D01*
X112116218Y-108388599D01*
X112036661Y-108427011D01*
X111957771Y-108468851D01*
X111879672Y-108513911D01*
X111802488Y-108561984D01*
X111726345Y-108612861D01*
X111651366Y-108666336D01*
X111577675Y-108722201D01*
X111505398Y-108780247D01*
X111434658Y-108840268D01*
X111365579Y-108902055D01*
X111298286Y-108965402D01*
X111232904Y-109030100D01*
X111169557Y-109095941D01*
X111108368Y-109162720D01*
X111049463Y-109230226D01*
X110992965Y-109298254D01*
X110939000Y-109366595D01*
X110887691Y-109435042D01*
X110839162Y-109503387D01*
X110793539Y-109571423D01*
X110750945Y-109638941D01*
X110711505Y-109705735D01*
X110675343Y-109771596D01*
X110642584Y-109836317D01*
X110613351Y-109899691D01*
X110587769Y-109961509D01*
X110565963Y-110021565D01*
X110565783Y-109990393D01*
X110565707Y-109909894D01*
X110565708Y-109799814D01*
X110565760Y-109679904D01*
X110565835Y-109569911D01*
X110565906Y-109489585D01*
X110565945Y-109458672D01*
G37*
G36*
X110565857Y-107183168D02*
G01*
X110574059Y-107183168D01*
X110654475Y-107179659D01*
X110735219Y-107171078D01*
X110816167Y-107157629D01*
X110897193Y-107139521D01*
X110978174Y-107116959D01*
X111058986Y-107090150D01*
X111139504Y-107059301D01*
X111219604Y-107024619D01*
X111299161Y-106986311D01*
X111378051Y-106944583D01*
X111456150Y-106899641D01*
X111533333Y-106851693D01*
X111609477Y-106800946D01*
X111684456Y-106747605D01*
X111758146Y-106691878D01*
X111830424Y-106633971D01*
X111901164Y-106574091D01*
X111970242Y-106512445D01*
X112037535Y-106449239D01*
X112102917Y-106384680D01*
X112166264Y-106318976D01*
X112227453Y-106252332D01*
X112286358Y-106184955D01*
X112342855Y-106117052D01*
X112396820Y-106048829D01*
X112448129Y-105980494D01*
X112496657Y-105912253D01*
X112542280Y-105844313D01*
X112584873Y-105776880D01*
X112624313Y-105710161D01*
X112660474Y-105644363D01*
X112693233Y-105579693D01*
X112722465Y-105516357D01*
X112748046Y-105454561D01*
X112769852Y-105394514D01*
X112769721Y-105430195D01*
X112769745Y-105510652D01*
X112769858Y-105617808D01*
X112769993Y-105733588D01*
X112770085Y-105839915D01*
X112770067Y-105918712D01*
X112769873Y-105951903D01*
X112739903Y-106021265D01*
X112705904Y-106091141D01*
X112668027Y-106161351D01*
X112626423Y-106231713D01*
X112581243Y-106302049D01*
X112532638Y-106372179D01*
X112480759Y-106441921D01*
X112425755Y-106511097D01*
X112367780Y-106579527D01*
X112306982Y-106647030D01*
X112243514Y-106713426D01*
X112177525Y-106778536D01*
X112109168Y-106842180D01*
X112038592Y-106904177D01*
X111965949Y-106964348D01*
X111891389Y-107022512D01*
X111815064Y-107078490D01*
X111737124Y-107132102D01*
X111657720Y-107183168D01*
X112769314Y-107183168D01*
X112769314Y-107600398D01*
X110565857Y-107601509D01*
X110565857Y-107183168D01*
G37*
G36*
X112769176Y-109106953D02*
G01*
X111855124Y-109106953D01*
X111855124Y-109307260D01*
X112493225Y-109671256D01*
X111855124Y-109671256D01*
X111855124Y-109849233D01*
X112769176Y-109849233D01*
X112769176Y-109658239D01*
X112119914Y-109284929D01*
X112769176Y-109284929D01*
X112769176Y-109106953D01*
G37*
G36*
X111855124Y-110029661D02*
G01*
X112769176Y-110029661D01*
X112769176Y-110219420D01*
X111855124Y-110219420D01*
X111855124Y-110029661D01*
G37*
G36*
X112573840Y-110855955D02*
G01*
X111855124Y-111020896D01*
X111855124Y-111295604D01*
X112769176Y-111295604D01*
X112769176Y-111117645D01*
X112150920Y-111117645D01*
X112076196Y-111118262D01*
X112002091Y-111118880D01*
X112769176Y-110945860D01*
X112769176Y-110760458D01*
X112002091Y-110588672D01*
X112076196Y-110589290D01*
X112150920Y-110589925D01*
X112769176Y-110589925D01*
X112769176Y-110411948D01*
X111855124Y-110411948D01*
X111855124Y-110689761D01*
X112573840Y-110855955D01*
G37*
G36*
X112029996Y-111996326D02*
G01*
X111855124Y-111494641D01*
X112769176Y-111494641D01*
X112769176Y-111681296D01*
X112410749Y-111681296D01*
X112410749Y-111878499D01*
X112418040Y-111949420D01*
X112439894Y-111993539D01*
X112483615Y-112016865D01*
X112556476Y-112025466D01*
X112641432Y-112026700D01*
X112720187Y-112034761D01*
X112769176Y-112047179D01*
X112769176Y-112257400D01*
X112746232Y-112257400D01*
X112694142Y-112222669D01*
X112609187Y-112217712D01*
X112547795Y-112217712D01*
X112464009Y-112211115D01*
X112404858Y-112191342D01*
X112363395Y-112155766D01*
X112332614Y-112101736D01*
X112297350Y-112166692D01*
X112243628Y-112210268D01*
X112180145Y-112234908D01*
X112115573Y-112243130D01*
X112064571Y-112238784D01*
X112019455Y-112225773D01*
X111942560Y-112178642D01*
X111905516Y-112138714D01*
X111878688Y-112090888D01*
X111861950Y-112028010D01*
X111855124Y-111942986D01*
X111855124Y-111494641D01*
X112029996Y-111996326D01*
X112072175Y-112037714D01*
X112141619Y-112051518D01*
X112205805Y-112037249D01*
X112244557Y-111994457D01*
X112255720Y-111954147D01*
X112259441Y-111897725D01*
X112259441Y-111681296D01*
X112013874Y-111681296D01*
X112013874Y-111903299D01*
X112017910Y-111957565D01*
X112029996Y-111996326D01*
G37*
G36*
X112549035Y-112630409D02*
G01*
X112215462Y-112378614D01*
X112310910Y-112373058D01*
X112404777Y-112378614D01*
X112489412Y-112395283D01*
X112564818Y-112423064D01*
X112630994Y-112461958D01*
X112687941Y-112511964D01*
X112734611Y-112569508D01*
X112767942Y-112638607D01*
X112787937Y-112719262D01*
X112794601Y-112811472D01*
X112787937Y-112903673D01*
X112767942Y-112984327D01*
X112734611Y-113053435D01*
X112687941Y-113110998D01*
X112630994Y-113160778D01*
X112564818Y-113199498D01*
X112489412Y-113227158D01*
X112404777Y-113243754D01*
X112310910Y-113249287D01*
X112215462Y-113243754D01*
X112130036Y-113227158D01*
X112054630Y-113199498D01*
X111989245Y-113160778D01*
X111933878Y-113110998D01*
X111887218Y-113053435D01*
X111853886Y-112984327D01*
X111833885Y-112903673D01*
X111827218Y-112811472D01*
X111833885Y-112719262D01*
X111853886Y-112638607D01*
X111887218Y-112569508D01*
X111933878Y-112511964D01*
X111989245Y-112461958D01*
X112054630Y-112423064D01*
X112130036Y-112395283D01*
X112215462Y-112378614D01*
X112549035Y-112630409D01*
X112485370Y-112592847D01*
X112405995Y-112570322D01*
X112310910Y-112562817D01*
X112215825Y-112570322D01*
X112136450Y-112592847D01*
X112072785Y-112630409D01*
X112026276Y-112680562D01*
X111998371Y-112740917D01*
X111989069Y-112811472D01*
X111998408Y-112881930D01*
X112026420Y-112941974D01*
X112073095Y-112991618D01*
X112136870Y-113028652D01*
X112216143Y-113050881D01*
X112310910Y-113058293D01*
X112405995Y-113050881D01*
X112485370Y-113028652D01*
X112549035Y-112991618D01*
X112595544Y-112941974D01*
X112623449Y-112881930D01*
X112632751Y-112811472D01*
X112623449Y-112740917D01*
X112595544Y-112680562D01*
X112549035Y-112630409D01*
G37*
G04 #@! TO.C,OSHW logo*
G36*
X103696541Y-113983984D02*
G01*
X103635879Y-113657772D01*
X103619269Y-113638464D01*
X103385986Y-113538472D01*
X103360765Y-113540059D01*
X103083746Y-113730123D01*
X103061204Y-113728039D01*
X102823813Y-113490648D01*
X102821729Y-113468126D01*
X103015166Y-113186245D01*
X103016992Y-113160905D01*
X102924421Y-112934765D01*
X102905331Y-112918096D01*
X102567928Y-112855291D01*
X102553462Y-112837888D01*
X102553462Y-112502132D01*
X102567928Y-112484749D01*
X102905331Y-112421963D01*
X102924421Y-112405294D01*
X103016992Y-112179135D01*
X103015166Y-112153795D01*
X102821729Y-111871934D01*
X102823813Y-111849391D01*
X103061204Y-111611981D01*
X103083746Y-111609897D01*
X103360765Y-111799981D01*
X103385986Y-111801548D01*
X103619269Y-111701536D01*
X103635879Y-111682228D01*
X103696541Y-111356036D01*
X103713964Y-111341570D01*
X104049700Y-111341590D01*
X104067123Y-111356056D01*
X104126337Y-111674251D01*
X104143065Y-111693142D01*
X104391211Y-111792480D01*
X104416552Y-111790594D01*
X104679938Y-111609858D01*
X104702500Y-111611941D01*
X104939891Y-111849372D01*
X104941974Y-111871914D01*
X104764393Y-112130637D01*
X104763539Y-112155442D01*
X104824460Y-112269543D01*
X104817554Y-112288296D01*
X104249090Y-112523563D01*
X104227838Y-112516657D01*
X104210355Y-112488102D01*
X104196524Y-112470044D01*
X104115324Y-112379838D01*
X104008596Y-112320227D01*
X103883767Y-112298694D01*
X103766407Y-112317624D01*
X103664482Y-112370337D01*
X103584108Y-112450714D01*
X103531399Y-112552638D01*
X103512470Y-112669990D01*
X103531399Y-112787340D01*
X103584108Y-112889259D01*
X103664482Y-112969630D01*
X103766407Y-113022338D01*
X103883767Y-113041267D01*
X104008596Y-113019738D01*
X104115324Y-112960131D01*
X104196524Y-112869916D01*
X104210355Y-112851898D01*
X104227838Y-112823343D01*
X104249090Y-112816437D01*
X104817574Y-113051685D01*
X104824479Y-113070437D01*
X104763559Y-113184539D01*
X104764412Y-113209343D01*
X104941994Y-113468086D01*
X104939911Y-113490609D01*
X104702520Y-113728039D01*
X104679957Y-113730123D01*
X104416571Y-113549366D01*
X104391231Y-113547501D01*
X104143085Y-113646838D01*
X104126357Y-113665710D01*
X104067143Y-113983904D01*
X104049720Y-113998370D01*
X103713984Y-113998410D01*
X103696541Y-113983984D01*
G37*
D10*
G04 #@! TO.C,U6*
X107620000Y-128490000D02*
X104170000Y-128490000D01*
X107620000Y-128490000D02*
X109570000Y-128490000D01*
X107620000Y-123370000D02*
X105670000Y-123370000D01*
X107620000Y-123370000D02*
X109570000Y-123370000D01*
G04 #@! TO.C,JP1*
X101821428Y-107030000D02*
X102250000Y-107030000D01*
X102335714Y-107001428D01*
X102392857Y-106944285D01*
X102421428Y-106858571D01*
X102421428Y-106801428D01*
X102421428Y-107315714D02*
X101821428Y-107315714D01*
X101821428Y-107544285D01*
X101850000Y-107601428D01*
X101878571Y-107630000D01*
X101935714Y-107658571D01*
X102021428Y-107658571D01*
X102078571Y-107630000D01*
X102107142Y-107601428D01*
X102135714Y-107544285D01*
X102135714Y-107315714D01*
X102421428Y-108230000D02*
X102421428Y-107887142D01*
X102421428Y-108058571D02*
X101821428Y-108058571D01*
X101907142Y-108001428D01*
X101964285Y-107944285D01*
X101992857Y-107887142D01*
G04 #@! TD*
M02*
