G04 #@! TF.GenerationSoftware,KiCad,Pcbnew,5.1.9-1.fc33*
G04 #@! TF.CreationDate,2021-04-27T13:35:09+02:00*
G04 #@! TF.ProjectId,reDIP-SID,72654449-502d-4534-9944-2e6b69636164,0.2*
G04 #@! TF.SameCoordinates,PX5e28010PY8011a50*
G04 #@! TF.FileFunction,Copper,L1,Top*
G04 #@! TF.FilePolarity,Positive*
%FSLAX46Y46*%
G04 Gerber Fmt 4.6, Leading zero omitted, Abs format (unit mm)*
G04 Created by KiCad (PCBNEW 5.1.9-1.fc33) date 2021-04-27 13:35:09*
%MOMM*%
%LPD*%
G01*
G04 APERTURE LIST*
G04 #@! TA.AperFunction,ComponentPad*
%ADD10O,1.000000X2.100000*%
G04 #@! TD*
G04 #@! TA.AperFunction,ComponentPad*
%ADD11O,1.000000X1.600000*%
G04 #@! TD*
G04 #@! TA.AperFunction,SMDPad,CuDef*
%ADD12R,3.400000X4.300000*%
G04 #@! TD*
G04 #@! TA.AperFunction,SMDPad,CuDef*
%ADD13C,0.350000*%
G04 #@! TD*
G04 #@! TA.AperFunction,ComponentPad*
%ADD14C,1.600000*%
G04 #@! TD*
G04 #@! TA.AperFunction,ViaPad*
%ADD15C,0.450000*%
G04 #@! TD*
G04 #@! TA.AperFunction,Conductor*
%ADD16C,0.200000*%
G04 #@! TD*
G04 #@! TA.AperFunction,Conductor*
%ADD17C,0.250000*%
G04 #@! TD*
G04 #@! TA.AperFunction,Conductor*
%ADD18C,0.150000*%
G04 #@! TD*
G04 #@! TA.AperFunction,Conductor*
%ADD19C,0.350000*%
G04 #@! TD*
G04 APERTURE END LIST*
G04 #@! TO.P,C19,2*
G04 #@! TO.N,GND*
G04 #@! TA.AperFunction,SMDPad,CuDef*
G36*
G01*
X102955650Y-120172928D02*
X103097072Y-120314350D01*
G75*
G02*
X103097072Y-120455772I-70711J-70711D01*
G01*
X102913224Y-120639620D01*
G75*
G02*
X102771802Y-120639620I-70711J70711D01*
G01*
X102630380Y-120498198D01*
G75*
G02*
X102630380Y-120356776I70711J70711D01*
G01*
X102814228Y-120172928D01*
G75*
G02*
X102955650Y-120172928I70711J-70711D01*
G01*
G37*
G04 #@! TD.AperFunction*
G04 #@! TO.P,C19,1*
G04 #@! TO.N,Net-(C18-Pad1)*
G04 #@! TA.AperFunction,SMDPad,CuDef*
G36*
G01*
X103408198Y-119720380D02*
X103549620Y-119861802D01*
G75*
G02*
X103549620Y-120003224I-70711J-70711D01*
G01*
X103365772Y-120187072D01*
G75*
G02*
X103224350Y-120187072I-70711J70711D01*
G01*
X103082928Y-120045650D01*
G75*
G02*
X103082928Y-119904228I70711J70711D01*
G01*
X103266776Y-119720380D01*
G75*
G02*
X103408198Y-119720380I70711J-70711D01*
G01*
G37*
G04 #@! TD.AperFunction*
G04 #@! TD*
G04 #@! TO.P,X1,4*
G04 #@! TO.N,+3V3*
G04 #@! TA.AperFunction,SMDPad,CuDef*
G36*
G01*
X109780000Y-107690000D02*
X110280000Y-107690000D01*
G75*
G02*
X110330000Y-107740000I0J-50000D01*
G01*
X110330000Y-108140000D01*
G75*
G02*
X110280000Y-108190000I-50000J0D01*
G01*
X109780000Y-108190000D01*
G75*
G02*
X109730000Y-108140000I0J50000D01*
G01*
X109730000Y-107740000D01*
G75*
G02*
X109780000Y-107690000I50000J0D01*
G01*
G37*
G04 #@! TD.AperFunction*
G04 #@! TO.P,X1,3*
G04 #@! TO.N,/SYS_CLK*
G04 #@! TA.AperFunction,SMDPad,CuDef*
G36*
G01*
X108680000Y-107690000D02*
X109180000Y-107690000D01*
G75*
G02*
X109230000Y-107740000I0J-50000D01*
G01*
X109230000Y-108140000D01*
G75*
G02*
X109180000Y-108190000I-50000J0D01*
G01*
X108680000Y-108190000D01*
G75*
G02*
X108630000Y-108140000I0J50000D01*
G01*
X108630000Y-107740000D01*
G75*
G02*
X108680000Y-107690000I50000J0D01*
G01*
G37*
G04 #@! TD.AperFunction*
G04 #@! TO.P,X1,2*
G04 #@! TO.N,GND*
G04 #@! TA.AperFunction,SMDPad,CuDef*
G36*
G01*
X108680000Y-106890000D02*
X109180000Y-106890000D01*
G75*
G02*
X109230000Y-106940000I0J-50000D01*
G01*
X109230000Y-107340000D01*
G75*
G02*
X109180000Y-107390000I-50000J0D01*
G01*
X108680000Y-107390000D01*
G75*
G02*
X108630000Y-107340000I0J50000D01*
G01*
X108630000Y-106940000D01*
G75*
G02*
X108680000Y-106890000I50000J0D01*
G01*
G37*
G04 #@! TD.AperFunction*
G04 #@! TO.P,X1,1*
G04 #@! TO.N,+3V3*
G04 #@! TA.AperFunction,SMDPad,CuDef*
G36*
G01*
X109780000Y-106890000D02*
X110280000Y-106890000D01*
G75*
G02*
X110330000Y-106940000I0J-50000D01*
G01*
X110330000Y-107340000D01*
G75*
G02*
X110280000Y-107390000I-50000J0D01*
G01*
X109780000Y-107390000D01*
G75*
G02*
X109730000Y-107340000I0J50000D01*
G01*
X109730000Y-106940000D01*
G75*
G02*
X109780000Y-106890000I50000J0D01*
G01*
G37*
G04 #@! TD.AperFunction*
G04 #@! TD*
G04 #@! TO.P,SW1,2*
G04 #@! TO.N,GND*
G04 #@! TA.AperFunction,SMDPad,CuDef*
G36*
G01*
X112985000Y-120220000D02*
X111595000Y-120220000D01*
G75*
G02*
X111540000Y-120165000I0J55000D01*
G01*
X111540000Y-119725000D01*
G75*
G02*
X111595000Y-119670000I55000J0D01*
G01*
X112985000Y-119670000D01*
G75*
G02*
X113040000Y-119725000I0J-55000D01*
G01*
X113040000Y-120165000D01*
G75*
G02*
X112985000Y-120220000I-55000J0D01*
G01*
G37*
G04 #@! TD.AperFunction*
G04 #@! TO.P,SW1,1*
G04 #@! TO.N,/I2C_SDA_~BTN~*
G04 #@! TA.AperFunction,SMDPad,CuDef*
G36*
G01*
X112985000Y-123470000D02*
X111595000Y-123470000D01*
G75*
G02*
X111540000Y-123415000I0J55000D01*
G01*
X111540000Y-122975000D01*
G75*
G02*
X111595000Y-122920000I55000J0D01*
G01*
X112985000Y-122920000D01*
G75*
G02*
X113040000Y-122975000I0J-55000D01*
G01*
X113040000Y-123415000D01*
G75*
G02*
X112985000Y-123470000I-55000J0D01*
G01*
G37*
G04 #@! TD.AperFunction*
G04 #@! TD*
G04 #@! TO.P,R13,2*
G04 #@! TO.N,/USB_D-*
G04 #@! TA.AperFunction,SMDPad,CuDef*
G36*
G01*
X102617072Y-115055650D02*
X102475650Y-115197072D01*
G75*
G02*
X102334228Y-115197072I-70711J70711D01*
G01*
X102150380Y-115013224D01*
G75*
G02*
X102150380Y-114871802I70711J70711D01*
G01*
X102291802Y-114730380D01*
G75*
G02*
X102433224Y-114730380I70711J-70711D01*
G01*
X102617072Y-114914228D01*
G75*
G02*
X102617072Y-115055650I-70711J-70711D01*
G01*
G37*
G04 #@! TD.AperFunction*
G04 #@! TO.P,R13,1*
G04 #@! TO.N,Net-(R13-Pad1)*
G04 #@! TA.AperFunction,SMDPad,CuDef*
G36*
G01*
X103069620Y-115508198D02*
X102928198Y-115649620D01*
G75*
G02*
X102786776Y-115649620I-70711J70711D01*
G01*
X102602928Y-115465772D01*
G75*
G02*
X102602928Y-115324350I70711J70711D01*
G01*
X102744350Y-115182928D01*
G75*
G02*
X102885772Y-115182928I70711J-70711D01*
G01*
X103069620Y-115366776D01*
G75*
G02*
X103069620Y-115508198I-70711J-70711D01*
G01*
G37*
G04 #@! TD.AperFunction*
G04 #@! TD*
G04 #@! TO.P,R12,2*
G04 #@! TO.N,/USB_D+*
G04 #@! TA.AperFunction,SMDPad,CuDef*
G36*
G01*
X102117072Y-117695650D02*
X101975650Y-117837072D01*
G75*
G02*
X101834228Y-117837072I-70711J70711D01*
G01*
X101650380Y-117653224D01*
G75*
G02*
X101650380Y-117511802I70711J70711D01*
G01*
X101791802Y-117370380D01*
G75*
G02*
X101933224Y-117370380I70711J-70711D01*
G01*
X102117072Y-117554228D01*
G75*
G02*
X102117072Y-117695650I-70711J-70711D01*
G01*
G37*
G04 #@! TD.AperFunction*
G04 #@! TO.P,R12,1*
G04 #@! TO.N,Net-(R12-Pad1)*
G04 #@! TA.AperFunction,SMDPad,CuDef*
G36*
G01*
X102569620Y-118148198D02*
X102428198Y-118289620D01*
G75*
G02*
X102286776Y-118289620I-70711J70711D01*
G01*
X102102928Y-118105772D01*
G75*
G02*
X102102928Y-117964350I70711J70711D01*
G01*
X102244350Y-117822928D01*
G75*
G02*
X102385772Y-117822928I70711J-70711D01*
G01*
X102569620Y-118006776D01*
G75*
G02*
X102569620Y-118148198I-70711J-70711D01*
G01*
G37*
G04 #@! TD.AperFunction*
G04 #@! TD*
G04 #@! TO.P,R7,2*
G04 #@! TO.N,+3V3*
G04 #@! TA.AperFunction,SMDPad,CuDef*
G36*
G01*
X105185650Y-111652928D02*
X105327072Y-111794350D01*
G75*
G02*
X105327072Y-111935772I-70711J-70711D01*
G01*
X105143224Y-112119620D01*
G75*
G02*
X105001802Y-112119620I-70711J70711D01*
G01*
X104860380Y-111978198D01*
G75*
G02*
X104860380Y-111836776I70711J70711D01*
G01*
X105044228Y-111652928D01*
G75*
G02*
X105185650Y-111652928I70711J-70711D01*
G01*
G37*
G04 #@! TD.AperFunction*
G04 #@! TO.P,R7,1*
G04 #@! TO.N,/SPI_SCLK*
G04 #@! TA.AperFunction,SMDPad,CuDef*
G36*
G01*
X105638198Y-111200380D02*
X105779620Y-111341802D01*
G75*
G02*
X105779620Y-111483224I-70711J-70711D01*
G01*
X105595772Y-111667072D01*
G75*
G02*
X105454350Y-111667072I-70711J70711D01*
G01*
X105312928Y-111525650D01*
G75*
G02*
X105312928Y-111384228I70711J70711D01*
G01*
X105496776Y-111200380D01*
G75*
G02*
X105638198Y-111200380I70711J-70711D01*
G01*
G37*
G04 #@! TD.AperFunction*
G04 #@! TD*
G04 #@! TO.P,J5,B1*
G04 #@! TO.N,GND*
G04 #@! TA.AperFunction,SMDPad,CuDef*
G36*
G01*
X104670000Y-104765000D02*
X104670000Y-106065000D01*
G75*
G02*
X104595000Y-106140000I-75000J0D01*
G01*
X104145000Y-106140000D01*
G75*
G02*
X104070000Y-106065000I0J75000D01*
G01*
X104070000Y-104765000D01*
G75*
G02*
X104145000Y-104690000I75000J0D01*
G01*
X104595000Y-104690000D01*
G75*
G02*
X104670000Y-104765000I0J-75000D01*
G01*
G37*
G04 #@! TD.AperFunction*
G04 #@! TO.P,J5,A9*
G04 #@! TO.N,VBUS*
G04 #@! TA.AperFunction,SMDPad,CuDef*
G36*
G01*
X105470000Y-104765000D02*
X105470000Y-106065000D01*
G75*
G02*
X105395000Y-106140000I-75000J0D01*
G01*
X104945000Y-106140000D01*
G75*
G02*
X104870000Y-106065000I0J75000D01*
G01*
X104870000Y-104765000D01*
G75*
G02*
X104945000Y-104690000I75000J0D01*
G01*
X105395000Y-104690000D01*
G75*
G02*
X105470000Y-104765000I0J-75000D01*
G01*
G37*
G04 #@! TD.AperFunction*
G04 #@! TO.P,J5,B9*
G04 #@! TA.AperFunction,SMDPad,CuDef*
G36*
G01*
X110370000Y-104765000D02*
X110370000Y-106065000D01*
G75*
G02*
X110295000Y-106140000I-75000J0D01*
G01*
X109845000Y-106140000D01*
G75*
G02*
X109770000Y-106065000I0J75000D01*
G01*
X109770000Y-104765000D01*
G75*
G02*
X109845000Y-104690000I75000J0D01*
G01*
X110295000Y-104690000D01*
G75*
G02*
X110370000Y-104765000I0J-75000D01*
G01*
G37*
G04 #@! TD.AperFunction*
G04 #@! TO.P,J5,B12*
G04 #@! TO.N,GND*
G04 #@! TA.AperFunction,SMDPad,CuDef*
G36*
G01*
X111170000Y-104765000D02*
X111170000Y-106065000D01*
G75*
G02*
X111095000Y-106140000I-75000J0D01*
G01*
X110645000Y-106140000D01*
G75*
G02*
X110570000Y-106065000I0J75000D01*
G01*
X110570000Y-104765000D01*
G75*
G02*
X110645000Y-104690000I75000J0D01*
G01*
X111095000Y-104690000D01*
G75*
G02*
X111170000Y-104765000I0J-75000D01*
G01*
G37*
G04 #@! TD.AperFunction*
G04 #@! TO.P,J5,A1*
G04 #@! TA.AperFunction,SMDPad,CuDef*
G36*
G01*
X111170000Y-104765000D02*
X111170000Y-106065000D01*
G75*
G02*
X111095000Y-106140000I-75000J0D01*
G01*
X110645000Y-106140000D01*
G75*
G02*
X110570000Y-106065000I0J75000D01*
G01*
X110570000Y-104765000D01*
G75*
G02*
X110645000Y-104690000I75000J0D01*
G01*
X111095000Y-104690000D01*
G75*
G02*
X111170000Y-104765000I0J-75000D01*
G01*
G37*
G04 #@! TD.AperFunction*
G04 #@! TO.P,J5,A4*
G04 #@! TO.N,VBUS*
G04 #@! TA.AperFunction,SMDPad,CuDef*
G36*
G01*
X110370000Y-104765000D02*
X110370000Y-106065000D01*
G75*
G02*
X110295000Y-106140000I-75000J0D01*
G01*
X109845000Y-106140000D01*
G75*
G02*
X109770000Y-106065000I0J75000D01*
G01*
X109770000Y-104765000D01*
G75*
G02*
X109845000Y-104690000I75000J0D01*
G01*
X110295000Y-104690000D01*
G75*
G02*
X110370000Y-104765000I0J-75000D01*
G01*
G37*
G04 #@! TD.AperFunction*
G04 #@! TO.P,J5,B4*
G04 #@! TA.AperFunction,SMDPad,CuDef*
G36*
G01*
X105470000Y-104765000D02*
X105470000Y-106065000D01*
G75*
G02*
X105395000Y-106140000I-75000J0D01*
G01*
X104945000Y-106140000D01*
G75*
G02*
X104870000Y-106065000I0J75000D01*
G01*
X104870000Y-104765000D01*
G75*
G02*
X104945000Y-104690000I75000J0D01*
G01*
X105395000Y-104690000D01*
G75*
G02*
X105470000Y-104765000I0J-75000D01*
G01*
G37*
G04 #@! TD.AperFunction*
G04 #@! TO.P,J5,A12*
G04 #@! TO.N,GND*
G04 #@! TA.AperFunction,SMDPad,CuDef*
G36*
G01*
X104670000Y-104765000D02*
X104670000Y-106065000D01*
G75*
G02*
X104595000Y-106140000I-75000J0D01*
G01*
X104145000Y-106140000D01*
G75*
G02*
X104070000Y-106065000I0J75000D01*
G01*
X104070000Y-104765000D01*
G75*
G02*
X104145000Y-104690000I75000J0D01*
G01*
X104595000Y-104690000D01*
G75*
G02*
X104670000Y-104765000I0J-75000D01*
G01*
G37*
G04 #@! TD.AperFunction*
G04 #@! TO.P,J5,B8*
G04 #@! TO.N,N/C*
G04 #@! TA.AperFunction,SMDPad,CuDef*
G36*
G01*
X109520000Y-104765000D02*
X109520000Y-106065000D01*
G75*
G02*
X109445000Y-106140000I-75000J0D01*
G01*
X109295000Y-106140000D01*
G75*
G02*
X109220000Y-106065000I0J75000D01*
G01*
X109220000Y-104765000D01*
G75*
G02*
X109295000Y-104690000I75000J0D01*
G01*
X109445000Y-104690000D01*
G75*
G02*
X109520000Y-104765000I0J-75000D01*
G01*
G37*
G04 #@! TD.AperFunction*
G04 #@! TO.P,J5,A5*
G04 #@! TO.N,Net-(J5-PadA5)*
G04 #@! TA.AperFunction,SMDPad,CuDef*
G36*
G01*
X109020000Y-104765000D02*
X109020000Y-106065000D01*
G75*
G02*
X108945000Y-106140000I-75000J0D01*
G01*
X108795000Y-106140000D01*
G75*
G02*
X108720000Y-106065000I0J75000D01*
G01*
X108720000Y-104765000D01*
G75*
G02*
X108795000Y-104690000I75000J0D01*
G01*
X108945000Y-104690000D01*
G75*
G02*
X109020000Y-104765000I0J-75000D01*
G01*
G37*
G04 #@! TD.AperFunction*
G04 #@! TO.P,J5,B7*
G04 #@! TO.N,/D-*
G04 #@! TA.AperFunction,SMDPad,CuDef*
G36*
G01*
X108520000Y-104765000D02*
X108520000Y-106065000D01*
G75*
G02*
X108445000Y-106140000I-75000J0D01*
G01*
X108295000Y-106140000D01*
G75*
G02*
X108220000Y-106065000I0J75000D01*
G01*
X108220000Y-104765000D01*
G75*
G02*
X108295000Y-104690000I75000J0D01*
G01*
X108445000Y-104690000D01*
G75*
G02*
X108520000Y-104765000I0J-75000D01*
G01*
G37*
G04 #@! TD.AperFunction*
G04 #@! TO.P,J5,A7*
G04 #@! TA.AperFunction,SMDPad,CuDef*
G36*
G01*
X107520000Y-104765000D02*
X107520000Y-106065000D01*
G75*
G02*
X107445000Y-106140000I-75000J0D01*
G01*
X107295000Y-106140000D01*
G75*
G02*
X107220000Y-106065000I0J75000D01*
G01*
X107220000Y-104765000D01*
G75*
G02*
X107295000Y-104690000I75000J0D01*
G01*
X107445000Y-104690000D01*
G75*
G02*
X107520000Y-104765000I0J-75000D01*
G01*
G37*
G04 #@! TD.AperFunction*
G04 #@! TO.P,J5,B6*
G04 #@! TO.N,/D+*
G04 #@! TA.AperFunction,SMDPad,CuDef*
G36*
G01*
X107020000Y-104765000D02*
X107020000Y-106065000D01*
G75*
G02*
X106945000Y-106140000I-75000J0D01*
G01*
X106795000Y-106140000D01*
G75*
G02*
X106720000Y-106065000I0J75000D01*
G01*
X106720000Y-104765000D01*
G75*
G02*
X106795000Y-104690000I75000J0D01*
G01*
X106945000Y-104690000D01*
G75*
G02*
X107020000Y-104765000I0J-75000D01*
G01*
G37*
G04 #@! TD.AperFunction*
G04 #@! TO.P,J5,A8*
G04 #@! TO.N,N/C*
G04 #@! TA.AperFunction,SMDPad,CuDef*
G36*
G01*
X106520000Y-104765000D02*
X106520000Y-106065000D01*
G75*
G02*
X106445000Y-106140000I-75000J0D01*
G01*
X106295000Y-106140000D01*
G75*
G02*
X106220000Y-106065000I0J75000D01*
G01*
X106220000Y-104765000D01*
G75*
G02*
X106295000Y-104690000I75000J0D01*
G01*
X106445000Y-104690000D01*
G75*
G02*
X106520000Y-104765000I0J-75000D01*
G01*
G37*
G04 #@! TD.AperFunction*
G04 #@! TO.P,J5,B5*
G04 #@! TO.N,Net-(J5-PadB5)*
G04 #@! TA.AperFunction,SMDPad,CuDef*
G36*
G01*
X106020000Y-104765000D02*
X106020000Y-106065000D01*
G75*
G02*
X105945000Y-106140000I-75000J0D01*
G01*
X105795000Y-106140000D01*
G75*
G02*
X105720000Y-106065000I0J75000D01*
G01*
X105720000Y-104765000D01*
G75*
G02*
X105795000Y-104690000I75000J0D01*
G01*
X105945000Y-104690000D01*
G75*
G02*
X106020000Y-104765000I0J-75000D01*
G01*
G37*
G04 #@! TD.AperFunction*
G04 #@! TO.P,J5,A6*
G04 #@! TO.N,/D+*
G04 #@! TA.AperFunction,SMDPad,CuDef*
G36*
G01*
X108020000Y-104765000D02*
X108020000Y-106065000D01*
G75*
G02*
X107945000Y-106140000I-75000J0D01*
G01*
X107795000Y-106140000D01*
G75*
G02*
X107720000Y-106065000I0J75000D01*
G01*
X107720000Y-104765000D01*
G75*
G02*
X107795000Y-104690000I75000J0D01*
G01*
X107945000Y-104690000D01*
G75*
G02*
X108020000Y-104765000I0J-75000D01*
G01*
G37*
G04 #@! TD.AperFunction*
D10*
G04 #@! TO.P,J5,S1*
G04 #@! TO.N,GND*
X103300000Y-104500000D03*
X111940000Y-104500000D03*
D11*
X111940000Y-100320000D03*
X103300000Y-100320000D03*
G04 #@! TD*
G04 #@! TO.P,D4,2*
G04 #@! TO.N,Net-(D4-Pad2)*
G04 #@! TA.AperFunction,SMDPad,CuDef*
G36*
G01*
X113482500Y-124835000D02*
X113137500Y-124835000D01*
G75*
G02*
X113110000Y-124807500I0J27500D01*
G01*
X113110000Y-124587500D01*
G75*
G02*
X113137500Y-124560000I27500J0D01*
G01*
X113482500Y-124560000D01*
G75*
G02*
X113510000Y-124587500I0J-27500D01*
G01*
X113510000Y-124807500D01*
G75*
G02*
X113482500Y-124835000I-27500J0D01*
G01*
G37*
G04 #@! TD.AperFunction*
G04 #@! TO.P,D4,1*
G04 #@! TO.N,/I2C_SCL_~LED~*
G04 #@! TA.AperFunction,SMDPad,CuDef*
G36*
G01*
X113482500Y-125360000D02*
X113137500Y-125360000D01*
G75*
G02*
X113110000Y-125332500I0J27500D01*
G01*
X113110000Y-125112500D01*
G75*
G02*
X113137500Y-125085000I27500J0D01*
G01*
X113482500Y-125085000D01*
G75*
G02*
X113510000Y-125112500I0J-27500D01*
G01*
X113510000Y-125332500D01*
G75*
G02*
X113482500Y-125360000I-27500J0D01*
G01*
G37*
G04 #@! TD.AperFunction*
G04 #@! TD*
G04 #@! TO.P,D3,2*
G04 #@! TO.N,/CDONE*
G04 #@! TA.AperFunction,SMDPad,CuDef*
G36*
G01*
X113137500Y-127585000D02*
X113482500Y-127585000D01*
G75*
G02*
X113510000Y-127612500I0J-27500D01*
G01*
X113510000Y-127832500D01*
G75*
G02*
X113482500Y-127860000I-27500J0D01*
G01*
X113137500Y-127860000D01*
G75*
G02*
X113110000Y-127832500I0J27500D01*
G01*
X113110000Y-127612500D01*
G75*
G02*
X113137500Y-127585000I27500J0D01*
G01*
G37*
G04 #@! TD.AperFunction*
G04 #@! TO.P,D3,1*
G04 #@! TO.N,GND*
G04 #@! TA.AperFunction,SMDPad,CuDef*
G36*
G01*
X113137500Y-127060000D02*
X113482500Y-127060000D01*
G75*
G02*
X113510000Y-127087500I0J-27500D01*
G01*
X113510000Y-127307500D01*
G75*
G02*
X113482500Y-127335000I-27500J0D01*
G01*
X113137500Y-127335000D01*
G75*
G02*
X113110000Y-127307500I0J27500D01*
G01*
X113110000Y-127087500D01*
G75*
G02*
X113137500Y-127060000I27500J0D01*
G01*
G37*
G04 #@! TD.AperFunction*
G04 #@! TD*
G04 #@! TO.P,R9,1*
G04 #@! TO.N,+3V3*
G04 #@! TA.AperFunction,SMDPad,CuDef*
G36*
G01*
X111670000Y-124190000D02*
X111670000Y-123990000D01*
G75*
G02*
X111770000Y-123890000I100000J0D01*
G01*
X112030000Y-123890000D01*
G75*
G02*
X112130000Y-123990000I0J-100000D01*
G01*
X112130000Y-124190000D01*
G75*
G02*
X112030000Y-124290000I-100000J0D01*
G01*
X111770000Y-124290000D01*
G75*
G02*
X111670000Y-124190000I0J100000D01*
G01*
G37*
G04 #@! TD.AperFunction*
G04 #@! TO.P,R9,2*
G04 #@! TO.N,Net-(D4-Pad2)*
G04 #@! TA.AperFunction,SMDPad,CuDef*
G36*
G01*
X112310000Y-124190000D02*
X112310000Y-123990000D01*
G75*
G02*
X112410000Y-123890000I100000J0D01*
G01*
X112670000Y-123890000D01*
G75*
G02*
X112770000Y-123990000I0J-100000D01*
G01*
X112770000Y-124190000D01*
G75*
G02*
X112670000Y-124290000I-100000J0D01*
G01*
X112410000Y-124290000D01*
G75*
G02*
X112310000Y-124190000I0J100000D01*
G01*
G37*
G04 #@! TD.AperFunction*
G04 #@! TD*
G04 #@! TO.P,R14,2*
G04 #@! TO.N,/SPI_SCLK*
G04 #@! TA.AperFunction,SMDPad,CuDef*
G36*
G01*
X105954350Y-112157072D02*
X105812928Y-112015650D01*
G75*
G02*
X105812928Y-111874228I70711J70711D01*
G01*
X105996776Y-111690380D01*
G75*
G02*
X106138198Y-111690380I70711J-70711D01*
G01*
X106279620Y-111831802D01*
G75*
G02*
X106279620Y-111973224I-70711J-70711D01*
G01*
X106095772Y-112157072D01*
G75*
G02*
X105954350Y-112157072I-70711J70711D01*
G01*
G37*
G04 #@! TD.AperFunction*
G04 #@! TO.P,R14,1*
G04 #@! TO.N,Net-(R14-Pad1)*
G04 #@! TA.AperFunction,SMDPad,CuDef*
G36*
G01*
X105501802Y-112609620D02*
X105360380Y-112468198D01*
G75*
G02*
X105360380Y-112326776I70711J70711D01*
G01*
X105544228Y-112142928D01*
G75*
G02*
X105685650Y-112142928I70711J-70711D01*
G01*
X105827072Y-112284350D01*
G75*
G02*
X105827072Y-112425772I-70711J-70711D01*
G01*
X105643224Y-112609620D01*
G75*
G02*
X105501802Y-112609620I-70711J70711D01*
G01*
G37*
G04 #@! TD.AperFunction*
G04 #@! TD*
D12*
G04 #@! TO.P,U7,9*
G04 #@! TO.N,GND*
X107620000Y-125930000D03*
G04 #@! TO.P,U7,8*
G04 #@! TO.N,+3V3*
G04 #@! TA.AperFunction,SMDPad,CuDef*
G36*
G01*
X109945000Y-124150000D02*
X109945000Y-123900000D01*
G75*
G02*
X110070000Y-123775000I125000J0D01*
G01*
X110570000Y-123775000D01*
G75*
G02*
X110695000Y-123900000I0J-125000D01*
G01*
X110695000Y-124150000D01*
G75*
G02*
X110570000Y-124275000I-125000J0D01*
G01*
X110070000Y-124275000D01*
G75*
G02*
X109945000Y-124150000I0J125000D01*
G01*
G37*
G04 #@! TD.AperFunction*
G04 #@! TO.P,U7,7*
G04 #@! TO.N,/SPI_SIO3*
G04 #@! TA.AperFunction,SMDPad,CuDef*
G36*
G01*
X109945000Y-125420000D02*
X109945000Y-125170000D01*
G75*
G02*
X110070000Y-125045000I125000J0D01*
G01*
X110570000Y-125045000D01*
G75*
G02*
X110695000Y-125170000I0J-125000D01*
G01*
X110695000Y-125420000D01*
G75*
G02*
X110570000Y-125545000I-125000J0D01*
G01*
X110070000Y-125545000D01*
G75*
G02*
X109945000Y-125420000I0J125000D01*
G01*
G37*
G04 #@! TD.AperFunction*
G04 #@! TO.P,U7,6*
G04 #@! TO.N,/SPI_SCLK*
G04 #@! TA.AperFunction,SMDPad,CuDef*
G36*
G01*
X109945000Y-126690000D02*
X109945000Y-126440000D01*
G75*
G02*
X110070000Y-126315000I125000J0D01*
G01*
X110570000Y-126315000D01*
G75*
G02*
X110695000Y-126440000I0J-125000D01*
G01*
X110695000Y-126690000D01*
G75*
G02*
X110570000Y-126815000I-125000J0D01*
G01*
X110070000Y-126815000D01*
G75*
G02*
X109945000Y-126690000I0J125000D01*
G01*
G37*
G04 #@! TD.AperFunction*
G04 #@! TO.P,U7,5*
G04 #@! TO.N,/SPI_SIO0*
G04 #@! TA.AperFunction,SMDPad,CuDef*
G36*
G01*
X109945000Y-127960000D02*
X109945000Y-127710000D01*
G75*
G02*
X110070000Y-127585000I125000J0D01*
G01*
X110570000Y-127585000D01*
G75*
G02*
X110695000Y-127710000I0J-125000D01*
G01*
X110695000Y-127960000D01*
G75*
G02*
X110570000Y-128085000I-125000J0D01*
G01*
X110070000Y-128085000D01*
G75*
G02*
X109945000Y-127960000I0J125000D01*
G01*
G37*
G04 #@! TD.AperFunction*
G04 #@! TO.P,U7,4*
G04 #@! TO.N,GND*
G04 #@! TA.AperFunction,SMDPad,CuDef*
G36*
G01*
X104545000Y-127960000D02*
X104545000Y-127710000D01*
G75*
G02*
X104670000Y-127585000I125000J0D01*
G01*
X105170000Y-127585000D01*
G75*
G02*
X105295000Y-127710000I0J-125000D01*
G01*
X105295000Y-127960000D01*
G75*
G02*
X105170000Y-128085000I-125000J0D01*
G01*
X104670000Y-128085000D01*
G75*
G02*
X104545000Y-127960000I0J125000D01*
G01*
G37*
G04 #@! TD.AperFunction*
G04 #@! TO.P,U7,3*
G04 #@! TO.N,/SPI_SIO2*
G04 #@! TA.AperFunction,SMDPad,CuDef*
G36*
G01*
X104545000Y-126690000D02*
X104545000Y-126440000D01*
G75*
G02*
X104670000Y-126315000I125000J0D01*
G01*
X105170000Y-126315000D01*
G75*
G02*
X105295000Y-126440000I0J-125000D01*
G01*
X105295000Y-126690000D01*
G75*
G02*
X105170000Y-126815000I-125000J0D01*
G01*
X104670000Y-126815000D01*
G75*
G02*
X104545000Y-126690000I0J125000D01*
G01*
G37*
G04 #@! TD.AperFunction*
G04 #@! TO.P,U7,2*
G04 #@! TO.N,/SPI_SIO1*
G04 #@! TA.AperFunction,SMDPad,CuDef*
G36*
G01*
X104545000Y-125420000D02*
X104545000Y-125170000D01*
G75*
G02*
X104670000Y-125045000I125000J0D01*
G01*
X105170000Y-125045000D01*
G75*
G02*
X105295000Y-125170000I0J-125000D01*
G01*
X105295000Y-125420000D01*
G75*
G02*
X105170000Y-125545000I-125000J0D01*
G01*
X104670000Y-125545000D01*
G75*
G02*
X104545000Y-125420000I0J125000D01*
G01*
G37*
G04 #@! TD.AperFunction*
G04 #@! TO.P,U7,1*
G04 #@! TO.N,/SPI_FLASH_~CS~*
G04 #@! TA.AperFunction,SMDPad,CuDef*
G36*
G01*
X104545000Y-124150000D02*
X104545000Y-123900000D01*
G75*
G02*
X104670000Y-123775000I125000J0D01*
G01*
X105170000Y-123775000D01*
G75*
G02*
X105295000Y-123900000I0J-125000D01*
G01*
X105295000Y-124150000D01*
G75*
G02*
X105170000Y-124275000I-125000J0D01*
G01*
X104670000Y-124275000D01*
G75*
G02*
X104545000Y-124150000I0J125000D01*
G01*
G37*
G04 #@! TD.AperFunction*
G04 #@! TD*
G04 #@! TO.P,R8,1*
G04 #@! TO.N,+3V3*
G04 #@! TA.AperFunction,SMDPad,CuDef*
G36*
G01*
X111670000Y-128430000D02*
X111670000Y-128230000D01*
G75*
G02*
X111770000Y-128130000I100000J0D01*
G01*
X112030000Y-128130000D01*
G75*
G02*
X112130000Y-128230000I0J-100000D01*
G01*
X112130000Y-128430000D01*
G75*
G02*
X112030000Y-128530000I-100000J0D01*
G01*
X111770000Y-128530000D01*
G75*
G02*
X111670000Y-128430000I0J100000D01*
G01*
G37*
G04 #@! TD.AperFunction*
G04 #@! TO.P,R8,2*
G04 #@! TO.N,/CDONE*
G04 #@! TA.AperFunction,SMDPad,CuDef*
G36*
G01*
X112310000Y-128430000D02*
X112310000Y-128230000D01*
G75*
G02*
X112410000Y-128130000I100000J0D01*
G01*
X112670000Y-128130000D01*
G75*
G02*
X112770000Y-128230000I0J-100000D01*
G01*
X112770000Y-128430000D01*
G75*
G02*
X112670000Y-128530000I-100000J0D01*
G01*
X112410000Y-128530000D01*
G75*
G02*
X112310000Y-128430000I0J100000D01*
G01*
G37*
G04 #@! TD.AperFunction*
G04 #@! TD*
G04 #@! TA.AperFunction,SMDPad,CuDef*
D13*
G04 #@! TO.P,U1,4*
G04 #@! TO.N,+5V*
G36*
X105780000Y-109120000D02*
G01*
X105630000Y-108970000D01*
X105630000Y-108870000D01*
X105980000Y-108870000D01*
X105980000Y-109120000D01*
X105780000Y-109120000D01*
G37*
G04 #@! TD.AperFunction*
G04 #@! TA.AperFunction,SMDPad,CuDef*
G04 #@! TO.P,U1,3*
G36*
X105780000Y-109520000D02*
G01*
X105980000Y-109520000D01*
X105980000Y-109770000D01*
X105630000Y-109770000D01*
X105630000Y-109670000D01*
X105780000Y-109520000D01*
G37*
G04 #@! TD.AperFunction*
G04 #@! TA.AperFunction,SMDPad,CuDef*
G04 #@! TO.P,U1,1*
G04 #@! TO.N,+1V2*
G36*
X104980000Y-109120000D02*
G01*
X104780000Y-109120000D01*
X104780000Y-108870000D01*
X105130000Y-108870000D01*
X105130000Y-108970000D01*
X104980000Y-109120000D01*
G37*
G04 #@! TD.AperFunction*
G04 #@! TA.AperFunction,SMDPad,CuDef*
G04 #@! TO.P,U1,2*
G04 #@! TO.N,GND*
G36*
X104980000Y-109520000D02*
G01*
X105130000Y-109670000D01*
X105130000Y-109770000D01*
X104780000Y-109770000D01*
X104780000Y-109520000D01*
X104980000Y-109520000D01*
G37*
G04 #@! TD.AperFunction*
G04 #@! TA.AperFunction,SMDPad,CuDef*
G36*
X105380000Y-109659411D02*
G01*
X105040589Y-109320000D01*
X105380000Y-108980589D01*
X105719411Y-109320000D01*
X105380000Y-109659411D01*
G37*
G04 #@! TD.AperFunction*
G04 #@! TD*
G04 #@! TA.AperFunction,SMDPad,CuDef*
G04 #@! TO.P,U2,4*
G04 #@! TO.N,+5V*
G36*
X103480000Y-109120000D02*
G01*
X103330000Y-108970000D01*
X103330000Y-108870000D01*
X103680000Y-108870000D01*
X103680000Y-109120000D01*
X103480000Y-109120000D01*
G37*
G04 #@! TD.AperFunction*
G04 #@! TA.AperFunction,SMDPad,CuDef*
G04 #@! TO.P,U2,3*
G04 #@! TO.N,+1V2*
G36*
X103480000Y-109520000D02*
G01*
X103680000Y-109520000D01*
X103680000Y-109770000D01*
X103330000Y-109770000D01*
X103330000Y-109670000D01*
X103480000Y-109520000D01*
G37*
G04 #@! TD.AperFunction*
G04 #@! TA.AperFunction,SMDPad,CuDef*
G04 #@! TO.P,U2,1*
G04 #@! TO.N,+3V3*
G36*
X102680000Y-109120000D02*
G01*
X102480000Y-109120000D01*
X102480000Y-108870000D01*
X102830000Y-108870000D01*
X102830000Y-108970000D01*
X102680000Y-109120000D01*
G37*
G04 #@! TD.AperFunction*
G04 #@! TA.AperFunction,SMDPad,CuDef*
G04 #@! TO.P,U2,2*
G04 #@! TO.N,GND*
G36*
X102680000Y-109520000D02*
G01*
X102830000Y-109670000D01*
X102830000Y-109770000D01*
X102480000Y-109770000D01*
X102480000Y-109520000D01*
X102680000Y-109520000D01*
G37*
G04 #@! TD.AperFunction*
G04 #@! TA.AperFunction,SMDPad,CuDef*
G36*
X103080000Y-109659411D02*
G01*
X102740589Y-109320000D01*
X103080000Y-108980589D01*
X103419411Y-109320000D01*
X103080000Y-109659411D01*
G37*
G04 #@! TD.AperFunction*
G04 #@! TD*
G04 #@! TA.AperFunction,SMDPad,CuDef*
G04 #@! TO.P,U8,49*
G04 #@! TO.N,GND*
G36*
X107620000Y-113050202D02*
G01*
X111579798Y-117010000D01*
X107620000Y-120969798D01*
X103660202Y-117010000D01*
X107620000Y-113050202D01*
G37*
G04 #@! TD.AperFunction*
G04 #@! TO.P,U8,48*
G04 #@! TO.N,/ICE_D7*
G04 #@! TA.AperFunction,SMDPad,CuDef*
G36*
G01*
X111818446Y-117142583D02*
X112348776Y-117672913D01*
G75*
G02*
X112348776Y-117761301I-44194J-44194D01*
G01*
X112260388Y-117849689D01*
G75*
G02*
X112172000Y-117849689I-44194J44194D01*
G01*
X111641670Y-117319359D01*
G75*
G02*
X111641670Y-117230971I44194J44194D01*
G01*
X111730058Y-117142583D01*
G75*
G02*
X111818446Y-117142583I44194J-44194D01*
G01*
G37*
G04 #@! TD.AperFunction*
G04 #@! TO.P,U8,47*
G04 #@! TO.N,/ICE_D2*
G04 #@! TA.AperFunction,SMDPad,CuDef*
G36*
G01*
X111464893Y-117496136D02*
X111995223Y-118026466D01*
G75*
G02*
X111995223Y-118114854I-44194J-44194D01*
G01*
X111906835Y-118203242D01*
G75*
G02*
X111818447Y-118203242I-44194J44194D01*
G01*
X111288117Y-117672912D01*
G75*
G02*
X111288117Y-117584524I44194J44194D01*
G01*
X111376505Y-117496136D01*
G75*
G02*
X111464893Y-117496136I44194J-44194D01*
G01*
G37*
G04 #@! TD.AperFunction*
G04 #@! TO.P,U8,46*
G04 #@! TO.N,/ICE_D1*
G04 #@! TA.AperFunction,SMDPad,CuDef*
G36*
G01*
X111111339Y-117849690D02*
X111641669Y-118380020D01*
G75*
G02*
X111641669Y-118468408I-44194J-44194D01*
G01*
X111553281Y-118556796D01*
G75*
G02*
X111464893Y-118556796I-44194J44194D01*
G01*
X110934563Y-118026466D01*
G75*
G02*
X110934563Y-117938078I44194J44194D01*
G01*
X111022951Y-117849690D01*
G75*
G02*
X111111339Y-117849690I44194J-44194D01*
G01*
G37*
G04 #@! TD.AperFunction*
G04 #@! TO.P,U8,45*
G04 #@! TO.N,/ICE_D0*
G04 #@! TA.AperFunction,SMDPad,CuDef*
G36*
G01*
X110757786Y-118203243D02*
X111288116Y-118733573D01*
G75*
G02*
X111288116Y-118821961I-44194J-44194D01*
G01*
X111199728Y-118910349D01*
G75*
G02*
X111111340Y-118910349I-44194J44194D01*
G01*
X110581010Y-118380019D01*
G75*
G02*
X110581010Y-118291631I44194J44194D01*
G01*
X110669398Y-118203243D01*
G75*
G02*
X110757786Y-118203243I44194J-44194D01*
G01*
G37*
G04 #@! TD.AperFunction*
G04 #@! TO.P,U8,44*
G04 #@! TO.N,/ICE_\u00D82*
G04 #@! TA.AperFunction,SMDPad,CuDef*
G36*
G01*
X110404233Y-118556796D02*
X110934563Y-119087126D01*
G75*
G02*
X110934563Y-119175514I-44194J-44194D01*
G01*
X110846175Y-119263902D01*
G75*
G02*
X110757787Y-119263902I-44194J44194D01*
G01*
X110227457Y-118733572D01*
G75*
G02*
X110227457Y-118645184I44194J44194D01*
G01*
X110315845Y-118556796D01*
G75*
G02*
X110404233Y-118556796I44194J-44194D01*
G01*
G37*
G04 #@! TD.AperFunction*
G04 #@! TO.P,U8,43*
G04 #@! TO.N,/ICE_D6*
G04 #@! TA.AperFunction,SMDPad,CuDef*
G36*
G01*
X110050679Y-118910350D02*
X110581009Y-119440680D01*
G75*
G02*
X110581009Y-119529068I-44194J-44194D01*
G01*
X110492621Y-119617456D01*
G75*
G02*
X110404233Y-119617456I-44194J44194D01*
G01*
X109873903Y-119087126D01*
G75*
G02*
X109873903Y-118998738I44194J44194D01*
G01*
X109962291Y-118910350D01*
G75*
G02*
X110050679Y-118910350I44194J-44194D01*
G01*
G37*
G04 #@! TD.AperFunction*
G04 #@! TO.P,U8,42*
G04 #@! TO.N,/ICE_A5*
G04 #@! TA.AperFunction,SMDPad,CuDef*
G36*
G01*
X109697126Y-119263903D02*
X110227456Y-119794233D01*
G75*
G02*
X110227456Y-119882621I-44194J-44194D01*
G01*
X110139068Y-119971009D01*
G75*
G02*
X110050680Y-119971009I-44194J44194D01*
G01*
X109520350Y-119440679D01*
G75*
G02*
X109520350Y-119352291I44194J44194D01*
G01*
X109608738Y-119263903D01*
G75*
G02*
X109697126Y-119263903I44194J-44194D01*
G01*
G37*
G04 #@! TD.AperFunction*
G04 #@! TO.P,U8,41*
G04 #@! TO.N,/ICE_~IO1~*
G04 #@! TA.AperFunction,SMDPad,CuDef*
G36*
G01*
X109343572Y-119617457D02*
X109873902Y-120147787D01*
G75*
G02*
X109873902Y-120236175I-44194J-44194D01*
G01*
X109785514Y-120324563D01*
G75*
G02*
X109697126Y-120324563I-44194J44194D01*
G01*
X109166796Y-119794233D01*
G75*
G02*
X109166796Y-119705845I44194J44194D01*
G01*
X109255184Y-119617457D01*
G75*
G02*
X109343572Y-119617457I44194J-44194D01*
G01*
G37*
G04 #@! TD.AperFunction*
G04 #@! TO.P,U8,40*
G04 #@! TO.N,/ICE_POT_Y*
G04 #@! TA.AperFunction,SMDPad,CuDef*
G36*
G01*
X108990019Y-119971010D02*
X109520349Y-120501340D01*
G75*
G02*
X109520349Y-120589728I-44194J-44194D01*
G01*
X109431961Y-120678116D01*
G75*
G02*
X109343573Y-120678116I-44194J44194D01*
G01*
X108813243Y-120147786D01*
G75*
G02*
X108813243Y-120059398I44194J44194D01*
G01*
X108901631Y-119971010D01*
G75*
G02*
X108990019Y-119971010I44194J-44194D01*
G01*
G37*
G04 #@! TD.AperFunction*
G04 #@! TO.P,U8,39*
G04 #@! TO.N,/ICE_POT_X*
G04 #@! TA.AperFunction,SMDPad,CuDef*
G36*
G01*
X108636466Y-120324563D02*
X109166796Y-120854893D01*
G75*
G02*
X109166796Y-120943281I-44194J-44194D01*
G01*
X109078408Y-121031669D01*
G75*
G02*
X108990020Y-121031669I-44194J44194D01*
G01*
X108459690Y-120501339D01*
G75*
G02*
X108459690Y-120412951I44194J44194D01*
G01*
X108548078Y-120324563D01*
G75*
G02*
X108636466Y-120324563I44194J-44194D01*
G01*
G37*
G04 #@! TD.AperFunction*
G04 #@! TO.P,U8,38*
G04 #@! TO.N,/ICE_A8*
G04 #@! TA.AperFunction,SMDPad,CuDef*
G36*
G01*
X108282912Y-120678117D02*
X108813242Y-121208447D01*
G75*
G02*
X108813242Y-121296835I-44194J-44194D01*
G01*
X108724854Y-121385223D01*
G75*
G02*
X108636466Y-121385223I-44194J44194D01*
G01*
X108106136Y-120854893D01*
G75*
G02*
X108106136Y-120766505I44194J44194D01*
G01*
X108194524Y-120678117D01*
G75*
G02*
X108282912Y-120678117I44194J-44194D01*
G01*
G37*
G04 #@! TD.AperFunction*
G04 #@! TO.P,U8,37*
G04 #@! TO.N,/SPI_RAM_~CS~*
G04 #@! TA.AperFunction,SMDPad,CuDef*
G36*
G01*
X107929359Y-121031670D02*
X108459689Y-121562000D01*
G75*
G02*
X108459689Y-121650388I-44194J-44194D01*
G01*
X108371301Y-121738776D01*
G75*
G02*
X108282913Y-121738776I-44194J44194D01*
G01*
X107752583Y-121208446D01*
G75*
G02*
X107752583Y-121120058I44194J44194D01*
G01*
X107840971Y-121031670D01*
G75*
G02*
X107929359Y-121031670I44194J-44194D01*
G01*
G37*
G04 #@! TD.AperFunction*
G04 #@! TO.P,U8,36*
G04 #@! TO.N,/ICE_R_~W~*
G04 #@! TA.AperFunction,SMDPad,CuDef*
G36*
G01*
X107399029Y-121031670D02*
X107487417Y-121120058D01*
G75*
G02*
X107487417Y-121208446I-44194J-44194D01*
G01*
X106957087Y-121738776D01*
G75*
G02*
X106868699Y-121738776I-44194J44194D01*
G01*
X106780311Y-121650388D01*
G75*
G02*
X106780311Y-121562000I44194J44194D01*
G01*
X107310641Y-121031670D01*
G75*
G02*
X107399029Y-121031670I44194J-44194D01*
G01*
G37*
G04 #@! TD.AperFunction*
G04 #@! TO.P,U8,35*
G04 #@! TO.N,/USB_CONN*
G04 #@! TA.AperFunction,SMDPad,CuDef*
G36*
G01*
X107045476Y-120678117D02*
X107133864Y-120766505D01*
G75*
G02*
X107133864Y-120854893I-44194J-44194D01*
G01*
X106603534Y-121385223D01*
G75*
G02*
X106515146Y-121385223I-44194J44194D01*
G01*
X106426758Y-121296835D01*
G75*
G02*
X106426758Y-121208447I44194J44194D01*
G01*
X106957088Y-120678117D01*
G75*
G02*
X107045476Y-120678117I44194J-44194D01*
G01*
G37*
G04 #@! TD.AperFunction*
G04 #@! TO.P,U8,34*
G04 #@! TO.N,/ICE_A2*
G04 #@! TA.AperFunction,SMDPad,CuDef*
G36*
G01*
X106691922Y-120324563D02*
X106780310Y-120412951D01*
G75*
G02*
X106780310Y-120501339I-44194J-44194D01*
G01*
X106249980Y-121031669D01*
G75*
G02*
X106161592Y-121031669I-44194J44194D01*
G01*
X106073204Y-120943281D01*
G75*
G02*
X106073204Y-120854893I44194J44194D01*
G01*
X106603534Y-120324563D01*
G75*
G02*
X106691922Y-120324563I44194J-44194D01*
G01*
G37*
G04 #@! TD.AperFunction*
G04 #@! TO.P,U8,33*
G04 #@! TO.N,+3V3*
G04 #@! TA.AperFunction,SMDPad,CuDef*
G36*
G01*
X106338369Y-119971010D02*
X106426757Y-120059398D01*
G75*
G02*
X106426757Y-120147786I-44194J-44194D01*
G01*
X105896427Y-120678116D01*
G75*
G02*
X105808039Y-120678116I-44194J44194D01*
G01*
X105719651Y-120589728D01*
G75*
G02*
X105719651Y-120501340I44194J44194D01*
G01*
X106249981Y-119971010D01*
G75*
G02*
X106338369Y-119971010I44194J-44194D01*
G01*
G37*
G04 #@! TD.AperFunction*
G04 #@! TO.P,U8,32*
G04 #@! TO.N,/ICE_A4*
G04 #@! TA.AperFunction,SMDPad,CuDef*
G36*
G01*
X105984816Y-119617457D02*
X106073204Y-119705845D01*
G75*
G02*
X106073204Y-119794233I-44194J-44194D01*
G01*
X105542874Y-120324563D01*
G75*
G02*
X105454486Y-120324563I-44194J44194D01*
G01*
X105366098Y-120236175D01*
G75*
G02*
X105366098Y-120147787I44194J44194D01*
G01*
X105896428Y-119617457D01*
G75*
G02*
X105984816Y-119617457I44194J-44194D01*
G01*
G37*
G04 #@! TD.AperFunction*
G04 #@! TO.P,U8,31*
G04 #@! TO.N,/ICE_A3*
G04 #@! TA.AperFunction,SMDPad,CuDef*
G36*
G01*
X105631262Y-119263903D02*
X105719650Y-119352291D01*
G75*
G02*
X105719650Y-119440679I-44194J-44194D01*
G01*
X105189320Y-119971009D01*
G75*
G02*
X105100932Y-119971009I-44194J44194D01*
G01*
X105012544Y-119882621D01*
G75*
G02*
X105012544Y-119794233I44194J44194D01*
G01*
X105542874Y-119263903D01*
G75*
G02*
X105631262Y-119263903I44194J-44194D01*
G01*
G37*
G04 #@! TD.AperFunction*
G04 #@! TO.P,U8,30*
G04 #@! TO.N,+1V2*
G04 #@! TA.AperFunction,SMDPad,CuDef*
G36*
G01*
X105277709Y-118910350D02*
X105366097Y-118998738D01*
G75*
G02*
X105366097Y-119087126I-44194J-44194D01*
G01*
X104835767Y-119617456D01*
G75*
G02*
X104747379Y-119617456I-44194J44194D01*
G01*
X104658991Y-119529068D01*
G75*
G02*
X104658991Y-119440680I44194J44194D01*
G01*
X105189321Y-118910350D01*
G75*
G02*
X105277709Y-118910350I44194J-44194D01*
G01*
G37*
G04 #@! TD.AperFunction*
G04 #@! TO.P,U8,29*
G04 #@! TO.N,Net-(C18-Pad1)*
G04 #@! TA.AperFunction,SMDPad,CuDef*
G36*
G01*
X104924155Y-118556796D02*
X105012543Y-118645184D01*
G75*
G02*
X105012543Y-118733572I-44194J-44194D01*
G01*
X104482213Y-119263902D01*
G75*
G02*
X104393825Y-119263902I-44194J44194D01*
G01*
X104305437Y-119175514D01*
G75*
G02*
X104305437Y-119087126I44194J44194D01*
G01*
X104835767Y-118556796D01*
G75*
G02*
X104924155Y-118556796I44194J-44194D01*
G01*
G37*
G04 #@! TD.AperFunction*
G04 #@! TO.P,U8,28*
G04 #@! TO.N,/ICE_~CS~*
G04 #@! TA.AperFunction,SMDPad,CuDef*
G36*
G01*
X104570602Y-118203243D02*
X104658990Y-118291631D01*
G75*
G02*
X104658990Y-118380019I-44194J-44194D01*
G01*
X104128660Y-118910349D01*
G75*
G02*
X104040272Y-118910349I-44194J44194D01*
G01*
X103951884Y-118821961D01*
G75*
G02*
X103951884Y-118733573I44194J44194D01*
G01*
X104482214Y-118203243D01*
G75*
G02*
X104570602Y-118203243I44194J-44194D01*
G01*
G37*
G04 #@! TD.AperFunction*
G04 #@! TO.P,U8,27*
G04 #@! TO.N,/ICE_A0*
G04 #@! TA.AperFunction,SMDPad,CuDef*
G36*
G01*
X104217049Y-117849690D02*
X104305437Y-117938078D01*
G75*
G02*
X104305437Y-118026466I-44194J-44194D01*
G01*
X103775107Y-118556796D01*
G75*
G02*
X103686719Y-118556796I-44194J44194D01*
G01*
X103598331Y-118468408D01*
G75*
G02*
X103598331Y-118380020I44194J44194D01*
G01*
X104128661Y-117849690D01*
G75*
G02*
X104217049Y-117849690I44194J-44194D01*
G01*
G37*
G04 #@! TD.AperFunction*
G04 #@! TO.P,U8,26*
G04 #@! TO.N,/ICE_A1*
G04 #@! TA.AperFunction,SMDPad,CuDef*
G36*
G01*
X103863495Y-117496136D02*
X103951883Y-117584524D01*
G75*
G02*
X103951883Y-117672912I-44194J-44194D01*
G01*
X103421553Y-118203242D01*
G75*
G02*
X103333165Y-118203242I-44194J44194D01*
G01*
X103244777Y-118114854D01*
G75*
G02*
X103244777Y-118026466I44194J44194D01*
G01*
X103775107Y-117496136D01*
G75*
G02*
X103863495Y-117496136I44194J-44194D01*
G01*
G37*
G04 #@! TD.AperFunction*
G04 #@! TO.P,U8,25*
G04 #@! TO.N,Net-(R12-Pad1)*
G04 #@! TA.AperFunction,SMDPad,CuDef*
G36*
G01*
X103509942Y-117142583D02*
X103598330Y-117230971D01*
G75*
G02*
X103598330Y-117319359I-44194J-44194D01*
G01*
X103068000Y-117849689D01*
G75*
G02*
X102979612Y-117849689I-44194J44194D01*
G01*
X102891224Y-117761301D01*
G75*
G02*
X102891224Y-117672913I44194J44194D01*
G01*
X103421554Y-117142583D01*
G75*
G02*
X103509942Y-117142583I44194J-44194D01*
G01*
G37*
G04 #@! TD.AperFunction*
G04 #@! TO.P,U8,24*
G04 #@! TO.N,+3V3*
G04 #@! TA.AperFunction,SMDPad,CuDef*
G36*
G01*
X103068000Y-116170311D02*
X103598330Y-116700641D01*
G75*
G02*
X103598330Y-116789029I-44194J-44194D01*
G01*
X103509942Y-116877417D01*
G75*
G02*
X103421554Y-116877417I-44194J44194D01*
G01*
X102891224Y-116347087D01*
G75*
G02*
X102891224Y-116258699I44194J44194D01*
G01*
X102979612Y-116170311D01*
G75*
G02*
X103068000Y-116170311I44194J-44194D01*
G01*
G37*
G04 #@! TD.AperFunction*
G04 #@! TO.P,U8,23*
G04 #@! TO.N,Net-(R13-Pad1)*
G04 #@! TA.AperFunction,SMDPad,CuDef*
G36*
G01*
X103421553Y-115816758D02*
X103951883Y-116347088D01*
G75*
G02*
X103951883Y-116435476I-44194J-44194D01*
G01*
X103863495Y-116523864D01*
G75*
G02*
X103775107Y-116523864I-44194J44194D01*
G01*
X103244777Y-115993534D01*
G75*
G02*
X103244777Y-115905146I44194J44194D01*
G01*
X103333165Y-115816758D01*
G75*
G02*
X103421553Y-115816758I44194J-44194D01*
G01*
G37*
G04 #@! TD.AperFunction*
G04 #@! TO.P,U8,22*
G04 #@! TO.N,+3V3*
G04 #@! TA.AperFunction,SMDPad,CuDef*
G36*
G01*
X103775107Y-115463204D02*
X104305437Y-115993534D01*
G75*
G02*
X104305437Y-116081922I-44194J-44194D01*
G01*
X104217049Y-116170310D01*
G75*
G02*
X104128661Y-116170310I-44194J44194D01*
G01*
X103598331Y-115639980D01*
G75*
G02*
X103598331Y-115551592I44194J44194D01*
G01*
X103686719Y-115463204D01*
G75*
G02*
X103775107Y-115463204I44194J-44194D01*
G01*
G37*
G04 #@! TD.AperFunction*
G04 #@! TO.P,U8,21*
G04 #@! TO.N,/ICE_~RES~*
G04 #@! TA.AperFunction,SMDPad,CuDef*
G36*
G01*
X104128660Y-115109651D02*
X104658990Y-115639981D01*
G75*
G02*
X104658990Y-115728369I-44194J-44194D01*
G01*
X104570602Y-115816757D01*
G75*
G02*
X104482214Y-115816757I-44194J44194D01*
G01*
X103951884Y-115286427D01*
G75*
G02*
X103951884Y-115198039I44194J44194D01*
G01*
X104040272Y-115109651D01*
G75*
G02*
X104128660Y-115109651I44194J-44194D01*
G01*
G37*
G04 #@! TD.AperFunction*
G04 #@! TO.P,U8,20*
G04 #@! TO.N,/SYS_CLK*
G04 #@! TA.AperFunction,SMDPad,CuDef*
G36*
G01*
X104482213Y-114756098D02*
X105012543Y-115286428D01*
G75*
G02*
X105012543Y-115374816I-44194J-44194D01*
G01*
X104924155Y-115463204D01*
G75*
G02*
X104835767Y-115463204I-44194J44194D01*
G01*
X104305437Y-114932874D01*
G75*
G02*
X104305437Y-114844486I44194J44194D01*
G01*
X104393825Y-114756098D01*
G75*
G02*
X104482213Y-114756098I44194J-44194D01*
G01*
G37*
G04 #@! TD.AperFunction*
G04 #@! TO.P,U8,19*
G04 #@! TO.N,/SPI_SIO3*
G04 #@! TA.AperFunction,SMDPad,CuDef*
G36*
G01*
X104835767Y-114402544D02*
X105366097Y-114932874D01*
G75*
G02*
X105366097Y-115021262I-44194J-44194D01*
G01*
X105277709Y-115109650D01*
G75*
G02*
X105189321Y-115109650I-44194J44194D01*
G01*
X104658991Y-114579320D01*
G75*
G02*
X104658991Y-114490932I44194J44194D01*
G01*
X104747379Y-114402544D01*
G75*
G02*
X104835767Y-114402544I44194J-44194D01*
G01*
G37*
G04 #@! TD.AperFunction*
G04 #@! TO.P,U8,18*
G04 #@! TO.N,/SPI_SIO2*
G04 #@! TA.AperFunction,SMDPad,CuDef*
G36*
G01*
X105189320Y-114048991D02*
X105719650Y-114579321D01*
G75*
G02*
X105719650Y-114667709I-44194J-44194D01*
G01*
X105631262Y-114756097D01*
G75*
G02*
X105542874Y-114756097I-44194J44194D01*
G01*
X105012544Y-114225767D01*
G75*
G02*
X105012544Y-114137379I44194J44194D01*
G01*
X105100932Y-114048991D01*
G75*
G02*
X105189320Y-114048991I44194J-44194D01*
G01*
G37*
G04 #@! TD.AperFunction*
G04 #@! TO.P,U8,17*
G04 #@! TO.N,/SPI_SIO1*
G04 #@! TA.AperFunction,SMDPad,CuDef*
G36*
G01*
X105542874Y-113695437D02*
X106073204Y-114225767D01*
G75*
G02*
X106073204Y-114314155I-44194J-44194D01*
G01*
X105984816Y-114402543D01*
G75*
G02*
X105896428Y-114402543I-44194J44194D01*
G01*
X105366098Y-113872213D01*
G75*
G02*
X105366098Y-113783825I44194J44194D01*
G01*
X105454486Y-113695437D01*
G75*
G02*
X105542874Y-113695437I44194J-44194D01*
G01*
G37*
G04 #@! TD.AperFunction*
G04 #@! TO.P,U8,16*
G04 #@! TO.N,/SPI_FLASH_~CS~*
G04 #@! TA.AperFunction,SMDPad,CuDef*
G36*
G01*
X105896427Y-113341884D02*
X106426757Y-113872214D01*
G75*
G02*
X106426757Y-113960602I-44194J-44194D01*
G01*
X106338369Y-114048990D01*
G75*
G02*
X106249981Y-114048990I-44194J44194D01*
G01*
X105719651Y-113518660D01*
G75*
G02*
X105719651Y-113430272I44194J44194D01*
G01*
X105808039Y-113341884D01*
G75*
G02*
X105896427Y-113341884I44194J-44194D01*
G01*
G37*
G04 #@! TD.AperFunction*
G04 #@! TO.P,U8,15*
G04 #@! TO.N,Net-(R14-Pad1)*
G04 #@! TA.AperFunction,SMDPad,CuDef*
G36*
G01*
X106249980Y-112988331D02*
X106780310Y-113518661D01*
G75*
G02*
X106780310Y-113607049I-44194J-44194D01*
G01*
X106691922Y-113695437D01*
G75*
G02*
X106603534Y-113695437I-44194J44194D01*
G01*
X106073204Y-113165107D01*
G75*
G02*
X106073204Y-113076719I44194J44194D01*
G01*
X106161592Y-112988331D01*
G75*
G02*
X106249980Y-112988331I44194J-44194D01*
G01*
G37*
G04 #@! TD.AperFunction*
G04 #@! TO.P,U8,14*
G04 #@! TO.N,/SPI_SIO0*
G04 #@! TA.AperFunction,SMDPad,CuDef*
G36*
G01*
X106603534Y-112634777D02*
X107133864Y-113165107D01*
G75*
G02*
X107133864Y-113253495I-44194J-44194D01*
G01*
X107045476Y-113341883D01*
G75*
G02*
X106957088Y-113341883I-44194J44194D01*
G01*
X106426758Y-112811553D01*
G75*
G02*
X106426758Y-112723165I44194J44194D01*
G01*
X106515146Y-112634777D01*
G75*
G02*
X106603534Y-112634777I44194J-44194D01*
G01*
G37*
G04 #@! TD.AperFunction*
G04 #@! TO.P,U8,13*
G04 #@! TO.N,/I2S_LRCLK*
G04 #@! TA.AperFunction,SMDPad,CuDef*
G36*
G01*
X106957087Y-112281224D02*
X107487417Y-112811554D01*
G75*
G02*
X107487417Y-112899942I-44194J-44194D01*
G01*
X107399029Y-112988330D01*
G75*
G02*
X107310641Y-112988330I-44194J44194D01*
G01*
X106780311Y-112458000D01*
G75*
G02*
X106780311Y-112369612I44194J44194D01*
G01*
X106868699Y-112281224D01*
G75*
G02*
X106957087Y-112281224I44194J-44194D01*
G01*
G37*
G04 #@! TD.AperFunction*
G04 #@! TO.P,U8,12*
G04 #@! TO.N,/I2S_SCLK*
G04 #@! TA.AperFunction,SMDPad,CuDef*
G36*
G01*
X108371301Y-112281224D02*
X108459689Y-112369612D01*
G75*
G02*
X108459689Y-112458000I-44194J-44194D01*
G01*
X107929359Y-112988330D01*
G75*
G02*
X107840971Y-112988330I-44194J44194D01*
G01*
X107752583Y-112899942D01*
G75*
G02*
X107752583Y-112811554I44194J44194D01*
G01*
X108282913Y-112281224D01*
G75*
G02*
X108371301Y-112281224I44194J-44194D01*
G01*
G37*
G04 #@! TD.AperFunction*
G04 #@! TO.P,U8,11*
G04 #@! TO.N,/I2S_DOUT*
G04 #@! TA.AperFunction,SMDPad,CuDef*
G36*
G01*
X108724854Y-112634777D02*
X108813242Y-112723165D01*
G75*
G02*
X108813242Y-112811553I-44194J-44194D01*
G01*
X108282912Y-113341883D01*
G75*
G02*
X108194524Y-113341883I-44194J44194D01*
G01*
X108106136Y-113253495D01*
G75*
G02*
X108106136Y-113165107I44194J44194D01*
G01*
X108636466Y-112634777D01*
G75*
G02*
X108724854Y-112634777I44194J-44194D01*
G01*
G37*
G04 #@! TD.AperFunction*
G04 #@! TO.P,U8,10*
G04 #@! TO.N,/I2S_DIN*
G04 #@! TA.AperFunction,SMDPad,CuDef*
G36*
G01*
X109078408Y-112988331D02*
X109166796Y-113076719D01*
G75*
G02*
X109166796Y-113165107I-44194J-44194D01*
G01*
X108636466Y-113695437D01*
G75*
G02*
X108548078Y-113695437I-44194J44194D01*
G01*
X108459690Y-113607049D01*
G75*
G02*
X108459690Y-113518661I44194J44194D01*
G01*
X108990020Y-112988331D01*
G75*
G02*
X109078408Y-112988331I44194J-44194D01*
G01*
G37*
G04 #@! TD.AperFunction*
G04 #@! TO.P,U8,9*
G04 #@! TO.N,/I2C_SDA_~BTN~*
G04 #@! TA.AperFunction,SMDPad,CuDef*
G36*
G01*
X109431961Y-113341884D02*
X109520349Y-113430272D01*
G75*
G02*
X109520349Y-113518660I-44194J-44194D01*
G01*
X108990019Y-114048990D01*
G75*
G02*
X108901631Y-114048990I-44194J44194D01*
G01*
X108813243Y-113960602D01*
G75*
G02*
X108813243Y-113872214I44194J44194D01*
G01*
X109343573Y-113341884D01*
G75*
G02*
X109431961Y-113341884I44194J-44194D01*
G01*
G37*
G04 #@! TD.AperFunction*
G04 #@! TO.P,U8,8*
G04 #@! TO.N,/~CRESET~*
G04 #@! TA.AperFunction,SMDPad,CuDef*
G36*
G01*
X109785514Y-113695437D02*
X109873902Y-113783825D01*
G75*
G02*
X109873902Y-113872213I-44194J-44194D01*
G01*
X109343572Y-114402543D01*
G75*
G02*
X109255184Y-114402543I-44194J44194D01*
G01*
X109166796Y-114314155D01*
G75*
G02*
X109166796Y-114225767I44194J44194D01*
G01*
X109697126Y-113695437D01*
G75*
G02*
X109785514Y-113695437I44194J-44194D01*
G01*
G37*
G04 #@! TD.AperFunction*
G04 #@! TO.P,U8,7*
G04 #@! TO.N,/CDONE*
G04 #@! TA.AperFunction,SMDPad,CuDef*
G36*
G01*
X110139068Y-114048991D02*
X110227456Y-114137379D01*
G75*
G02*
X110227456Y-114225767I-44194J-44194D01*
G01*
X109697126Y-114756097D01*
G75*
G02*
X109608738Y-114756097I-44194J44194D01*
G01*
X109520350Y-114667709D01*
G75*
G02*
X109520350Y-114579321I44194J44194D01*
G01*
X110050680Y-114048991D01*
G75*
G02*
X110139068Y-114048991I44194J-44194D01*
G01*
G37*
G04 #@! TD.AperFunction*
G04 #@! TO.P,U8,6*
G04 #@! TO.N,/I2C_SCL_~LED~*
G04 #@! TA.AperFunction,SMDPad,CuDef*
G36*
G01*
X110492621Y-114402544D02*
X110581009Y-114490932D01*
G75*
G02*
X110581009Y-114579320I-44194J-44194D01*
G01*
X110050679Y-115109650D01*
G75*
G02*
X109962291Y-115109650I-44194J44194D01*
G01*
X109873903Y-115021262D01*
G75*
G02*
X109873903Y-114932874I44194J44194D01*
G01*
X110404233Y-114402544D01*
G75*
G02*
X110492621Y-114402544I44194J-44194D01*
G01*
G37*
G04 #@! TD.AperFunction*
G04 #@! TO.P,U8,5*
G04 #@! TO.N,+1V2*
G04 #@! TA.AperFunction,SMDPad,CuDef*
G36*
G01*
X110846175Y-114756098D02*
X110934563Y-114844486D01*
G75*
G02*
X110934563Y-114932874I-44194J-44194D01*
G01*
X110404233Y-115463204D01*
G75*
G02*
X110315845Y-115463204I-44194J44194D01*
G01*
X110227457Y-115374816D01*
G75*
G02*
X110227457Y-115286428I44194J44194D01*
G01*
X110757787Y-114756098D01*
G75*
G02*
X110846175Y-114756098I44194J-44194D01*
G01*
G37*
G04 #@! TD.AperFunction*
G04 #@! TO.P,U8,4*
G04 #@! TO.N,/ICE_D5*
G04 #@! TA.AperFunction,SMDPad,CuDef*
G36*
G01*
X111199728Y-115109651D02*
X111288116Y-115198039D01*
G75*
G02*
X111288116Y-115286427I-44194J-44194D01*
G01*
X110757786Y-115816757D01*
G75*
G02*
X110669398Y-115816757I-44194J44194D01*
G01*
X110581010Y-115728369D01*
G75*
G02*
X110581010Y-115639981I44194J44194D01*
G01*
X111111340Y-115109651D01*
G75*
G02*
X111199728Y-115109651I44194J-44194D01*
G01*
G37*
G04 #@! TD.AperFunction*
G04 #@! TO.P,U8,3*
G04 #@! TO.N,/ICE_D3*
G04 #@! TA.AperFunction,SMDPad,CuDef*
G36*
G01*
X111553281Y-115463204D02*
X111641669Y-115551592D01*
G75*
G02*
X111641669Y-115639980I-44194J-44194D01*
G01*
X111111339Y-116170310D01*
G75*
G02*
X111022951Y-116170310I-44194J44194D01*
G01*
X110934563Y-116081922D01*
G75*
G02*
X110934563Y-115993534I44194J44194D01*
G01*
X111464893Y-115463204D01*
G75*
G02*
X111553281Y-115463204I44194J-44194D01*
G01*
G37*
G04 #@! TD.AperFunction*
G04 #@! TO.P,U8,2*
G04 #@! TO.N,/ICE_D4*
G04 #@! TA.AperFunction,SMDPad,CuDef*
G36*
G01*
X111906835Y-115816758D02*
X111995223Y-115905146D01*
G75*
G02*
X111995223Y-115993534I-44194J-44194D01*
G01*
X111464893Y-116523864D01*
G75*
G02*
X111376505Y-116523864I-44194J44194D01*
G01*
X111288117Y-116435476D01*
G75*
G02*
X111288117Y-116347088I44194J44194D01*
G01*
X111818447Y-115816758D01*
G75*
G02*
X111906835Y-115816758I44194J-44194D01*
G01*
G37*
G04 #@! TD.AperFunction*
G04 #@! TO.P,U8,1*
G04 #@! TO.N,+3V3*
G04 #@! TA.AperFunction,SMDPad,CuDef*
G36*
G01*
X112260388Y-116170311D02*
X112348776Y-116258699D01*
G75*
G02*
X112348776Y-116347087I-44194J-44194D01*
G01*
X111818446Y-116877417D01*
G75*
G02*
X111730058Y-116877417I-44194J44194D01*
G01*
X111641670Y-116789029D01*
G75*
G02*
X111641670Y-116700641I44194J44194D01*
G01*
X112172000Y-116170311D01*
G75*
G02*
X112260388Y-116170311I44194J-44194D01*
G01*
G37*
G04 #@! TD.AperFunction*
G04 #@! TD*
G04 #@! TO.P,C11,1*
G04 #@! TO.N,+3V3*
G04 #@! TA.AperFunction,SMDPad,CuDef*
G36*
G01*
X111670000Y-127730000D02*
X111670000Y-127530000D01*
G75*
G02*
X111770000Y-127430000I100000J0D01*
G01*
X112030000Y-127430000D01*
G75*
G02*
X112130000Y-127530000I0J-100000D01*
G01*
X112130000Y-127730000D01*
G75*
G02*
X112030000Y-127830000I-100000J0D01*
G01*
X111770000Y-127830000D01*
G75*
G02*
X111670000Y-127730000I0J100000D01*
G01*
G37*
G04 #@! TD.AperFunction*
G04 #@! TO.P,C11,2*
G04 #@! TO.N,GND*
G04 #@! TA.AperFunction,SMDPad,CuDef*
G36*
G01*
X112310000Y-127730000D02*
X112310000Y-127530000D01*
G75*
G02*
X112410000Y-127430000I100000J0D01*
G01*
X112670000Y-127430000D01*
G75*
G02*
X112770000Y-127530000I0J-100000D01*
G01*
X112770000Y-127730000D01*
G75*
G02*
X112670000Y-127830000I-100000J0D01*
G01*
X112410000Y-127830000D01*
G75*
G02*
X112310000Y-127730000I0J100000D01*
G01*
G37*
G04 #@! TD.AperFunction*
G04 #@! TD*
G04 #@! TO.P,U5,5*
G04 #@! TO.N,VBUS*
G04 #@! TA.AperFunction,SMDPad,CuDef*
G36*
G01*
X107355000Y-107290000D02*
X107205000Y-107290000D01*
G75*
G02*
X107130000Y-107215000I0J75000D01*
G01*
X107130000Y-106915000D01*
G75*
G02*
X107205000Y-106840000I75000J0D01*
G01*
X107355000Y-106840000D01*
G75*
G02*
X107430000Y-106915000I0J-75000D01*
G01*
X107430000Y-107215000D01*
G75*
G02*
X107355000Y-107290000I-75000J0D01*
G01*
G37*
G04 #@! TD.AperFunction*
G04 #@! TO.P,U5,4*
G04 #@! TO.N,/D-*
G04 #@! TA.AperFunction,SMDPad,CuDef*
G36*
G01*
X107855000Y-107290000D02*
X107705000Y-107290000D01*
G75*
G02*
X107630000Y-107215000I0J75000D01*
G01*
X107630000Y-106915000D01*
G75*
G02*
X107705000Y-106840000I75000J0D01*
G01*
X107855000Y-106840000D01*
G75*
G02*
X107930000Y-106915000I0J-75000D01*
G01*
X107930000Y-107215000D01*
G75*
G02*
X107855000Y-107290000I-75000J0D01*
G01*
G37*
G04 #@! TD.AperFunction*
G04 #@! TO.P,U5,2*
G04 #@! TO.N,GND*
G04 #@! TA.AperFunction,SMDPad,CuDef*
G36*
G01*
X107355000Y-108640000D02*
X107205000Y-108640000D01*
G75*
G02*
X107130000Y-108565000I0J75000D01*
G01*
X107130000Y-108265000D01*
G75*
G02*
X107205000Y-108190000I75000J0D01*
G01*
X107355000Y-108190000D01*
G75*
G02*
X107430000Y-108265000I0J-75000D01*
G01*
X107430000Y-108565000D01*
G75*
G02*
X107355000Y-108640000I-75000J0D01*
G01*
G37*
G04 #@! TD.AperFunction*
G04 #@! TO.P,U5,6*
G04 #@! TO.N,/D+*
G04 #@! TA.AperFunction,SMDPad,CuDef*
G36*
G01*
X106855000Y-107290000D02*
X106705000Y-107290000D01*
G75*
G02*
X106630000Y-107215000I0J75000D01*
G01*
X106630000Y-106915000D01*
G75*
G02*
X106705000Y-106840000I75000J0D01*
G01*
X106855000Y-106840000D01*
G75*
G02*
X106930000Y-106915000I0J-75000D01*
G01*
X106930000Y-107215000D01*
G75*
G02*
X106855000Y-107290000I-75000J0D01*
G01*
G37*
G04 #@! TD.AperFunction*
G04 #@! TO.P,U5,3*
G04 #@! TO.N,/USB_D-*
G04 #@! TA.AperFunction,SMDPad,CuDef*
G36*
G01*
X107855000Y-108640000D02*
X107705000Y-108640000D01*
G75*
G02*
X107630000Y-108565000I0J75000D01*
G01*
X107630000Y-108265000D01*
G75*
G02*
X107705000Y-108190000I75000J0D01*
G01*
X107855000Y-108190000D01*
G75*
G02*
X107930000Y-108265000I0J-75000D01*
G01*
X107930000Y-108565000D01*
G75*
G02*
X107855000Y-108640000I-75000J0D01*
G01*
G37*
G04 #@! TD.AperFunction*
G04 #@! TO.P,U5,1*
G04 #@! TO.N,/USB_D+*
G04 #@! TA.AperFunction,SMDPad,CuDef*
G36*
G01*
X106855000Y-108640000D02*
X106705000Y-108640000D01*
G75*
G02*
X106630000Y-108565000I0J75000D01*
G01*
X106630000Y-108265000D01*
G75*
G02*
X106705000Y-108190000I75000J0D01*
G01*
X106855000Y-108190000D01*
G75*
G02*
X106930000Y-108265000I0J-75000D01*
G01*
X106930000Y-108565000D01*
G75*
G02*
X106855000Y-108640000I-75000J0D01*
G01*
G37*
G04 #@! TD.AperFunction*
G04 #@! TD*
D14*
G04 #@! TO.P,J4,10*
G04 #@! TO.N,/D0*
X115240000Y-133020000D03*
G04 #@! TO.P,J4,9*
G04 #@! TO.N,/D1*
X115240000Y-130480000D03*
G04 #@! TO.P,J4,8*
G04 #@! TO.N,/D2*
X115240000Y-127940000D03*
G04 #@! TO.P,J4,7*
G04 #@! TO.N,/D3*
X115240000Y-125400000D03*
G04 #@! TO.P,J4,6*
G04 #@! TO.N,/D4*
X115240000Y-122860000D03*
G04 #@! TO.P,J4,5*
G04 #@! TO.N,/D5*
X115240000Y-120320000D03*
G04 #@! TO.P,J4,4*
G04 #@! TO.N,/D6*
X115240000Y-117780000D03*
G04 #@! TO.P,J4,3*
G04 #@! TO.N,/D7*
X115240000Y-115240000D03*
G04 #@! TO.P,J4,2*
G04 #@! TO.N,/POT_Y*
X115240000Y-112700000D03*
G04 #@! TO.P,J4,1*
G04 #@! TO.N,/POT_X*
X115240000Y-110160000D03*
G04 #@! TD*
G04 #@! TO.P,J6,10*
G04 #@! TO.N,/SPI_SIO2*
X102540000Y-133020000D03*
G04 #@! TO.P,J6,9*
G04 #@! TO.N,/SPI_SIO3*
X102540000Y-130480000D03*
G04 #@! TO.P,J6,8*
G04 #@! TO.N,+3V3*
X105080000Y-133020000D03*
G04 #@! TO.P,J6,7*
G04 #@! TO.N,/SPI_SIO0*
X105080000Y-130480000D03*
G04 #@! TO.P,J6,6*
G04 #@! TO.N,GND*
X107620000Y-133020000D03*
G04 #@! TO.P,J6,5*
G04 #@! TO.N,/SPI_SIO1*
X107620000Y-130480000D03*
G04 #@! TO.P,J6,4*
G04 #@! TO.N,/~CRESET~*
X110160000Y-133020000D03*
G04 #@! TO.P,J6,3*
G04 #@! TO.N,/SPI_SCLK*
X110160000Y-130480000D03*
G04 #@! TO.P,J6,2*
G04 #@! TO.N,/CDONE*
X112700000Y-133020000D03*
G04 #@! TO.P,J6,1*
G04 #@! TO.N,/SPI_FLASH_~CS~*
X112700000Y-130480000D03*
G04 #@! TD*
G04 #@! TO.P,J3,10*
G04 #@! TO.N,GND*
X100000000Y-133020000D03*
G04 #@! TO.P,J3,9*
G04 #@! TO.N,/A4*
X100000000Y-130480000D03*
G04 #@! TO.P,J3,8*
G04 #@! TO.N,/A3*
X100000000Y-127940000D03*
G04 #@! TO.P,J3,7*
G04 #@! TO.N,/A2*
X100000000Y-125400000D03*
G04 #@! TO.P,J3,6*
G04 #@! TO.N,/A1*
X100000000Y-122860000D03*
G04 #@! TO.P,J3,5*
G04 #@! TO.N,/A0*
X100000000Y-120320000D03*
G04 #@! TO.P,J3,4*
G04 #@! TO.N,/~CS~*
X100000000Y-117780000D03*
G04 #@! TO.P,J3,3*
G04 #@! TO.N,/R_~W~*
X100000000Y-115240000D03*
G04 #@! TO.P,J3,2*
G04 #@! TO.N,/\u00D82*
X100000000Y-112700000D03*
G04 #@! TO.P,J3,1*
G04 #@! TO.N,/~RES~*
X100000000Y-110160000D03*
G04 #@! TD*
G04 #@! TO.P,R11,1*
G04 #@! TO.N,/SPI_FLASH_~CS~*
G04 #@! TA.AperFunction,SMDPad,CuDef*
G36*
G01*
X103850000Y-123800000D02*
X104050000Y-123800000D01*
G75*
G02*
X104150000Y-123900000I0J-100000D01*
G01*
X104150000Y-124160000D01*
G75*
G02*
X104050000Y-124260000I-100000J0D01*
G01*
X103850000Y-124260000D01*
G75*
G02*
X103750000Y-124160000I0J100000D01*
G01*
X103750000Y-123900000D01*
G75*
G02*
X103850000Y-123800000I100000J0D01*
G01*
G37*
G04 #@! TD.AperFunction*
G04 #@! TO.P,R11,2*
G04 #@! TO.N,+3V3*
G04 #@! TA.AperFunction,SMDPad,CuDef*
G36*
G01*
X103850000Y-124440000D02*
X104050000Y-124440000D01*
G75*
G02*
X104150000Y-124540000I0J-100000D01*
G01*
X104150000Y-124800000D01*
G75*
G02*
X104050000Y-124900000I-100000J0D01*
G01*
X103850000Y-124900000D01*
G75*
G02*
X103750000Y-124800000I0J100000D01*
G01*
X103750000Y-124540000D01*
G75*
G02*
X103850000Y-124440000I100000J0D01*
G01*
G37*
G04 #@! TD.AperFunction*
G04 #@! TD*
G04 #@! TO.P,R5,1*
G04 #@! TO.N,GND*
G04 #@! TA.AperFunction,SMDPad,CuDef*
G36*
G01*
X111830000Y-106890000D02*
X111830000Y-107090000D01*
G75*
G02*
X111730000Y-107190000I-100000J0D01*
G01*
X111470000Y-107190000D01*
G75*
G02*
X111370000Y-107090000I0J100000D01*
G01*
X111370000Y-106890000D01*
G75*
G02*
X111470000Y-106790000I100000J0D01*
G01*
X111730000Y-106790000D01*
G75*
G02*
X111830000Y-106890000I0J-100000D01*
G01*
G37*
G04 #@! TD.AperFunction*
G04 #@! TO.P,R5,2*
G04 #@! TO.N,Net-(J5-PadA5)*
G04 #@! TA.AperFunction,SMDPad,CuDef*
G36*
G01*
X111190000Y-106890000D02*
X111190000Y-107090000D01*
G75*
G02*
X111090000Y-107190000I-100000J0D01*
G01*
X110830000Y-107190000D01*
G75*
G02*
X110730000Y-107090000I0J100000D01*
G01*
X110730000Y-106890000D01*
G75*
G02*
X110830000Y-106790000I100000J0D01*
G01*
X111090000Y-106790000D01*
G75*
G02*
X111190000Y-106890000I0J-100000D01*
G01*
G37*
G04 #@! TD.AperFunction*
G04 #@! TD*
G04 #@! TO.P,R4,1*
G04 #@! TO.N,GND*
G04 #@! TA.AperFunction,SMDPad,CuDef*
G36*
G01*
X105930000Y-107890000D02*
X105730000Y-107890000D01*
G75*
G02*
X105630000Y-107790000I0J100000D01*
G01*
X105630000Y-107530000D01*
G75*
G02*
X105730000Y-107430000I100000J0D01*
G01*
X105930000Y-107430000D01*
G75*
G02*
X106030000Y-107530000I0J-100000D01*
G01*
X106030000Y-107790000D01*
G75*
G02*
X105930000Y-107890000I-100000J0D01*
G01*
G37*
G04 #@! TD.AperFunction*
G04 #@! TO.P,R4,2*
G04 #@! TO.N,Net-(J5-PadB5)*
G04 #@! TA.AperFunction,SMDPad,CuDef*
G36*
G01*
X105930000Y-107250000D02*
X105730000Y-107250000D01*
G75*
G02*
X105630000Y-107150000I0J100000D01*
G01*
X105630000Y-106890000D01*
G75*
G02*
X105730000Y-106790000I100000J0D01*
G01*
X105930000Y-106790000D01*
G75*
G02*
X106030000Y-106890000I0J-100000D01*
G01*
X106030000Y-107150000D01*
G75*
G02*
X105930000Y-107250000I-100000J0D01*
G01*
G37*
G04 #@! TD.AperFunction*
G04 #@! TD*
G04 #@! TO.P,R3,2*
G04 #@! TO.N,/USB_CONN*
G04 #@! TA.AperFunction,SMDPad,CuDef*
G36*
G01*
X102102928Y-121114350D02*
X102244350Y-120972928D01*
G75*
G02*
X102385772Y-120972928I70711J-70711D01*
G01*
X102569620Y-121156776D01*
G75*
G02*
X102569620Y-121298198I-70711J-70711D01*
G01*
X102428198Y-121439620D01*
G75*
G02*
X102286776Y-121439620I-70711J70711D01*
G01*
X102102928Y-121255772D01*
G75*
G02*
X102102928Y-121114350I70711J70711D01*
G01*
G37*
G04 #@! TD.AperFunction*
G04 #@! TO.P,R3,1*
G04 #@! TO.N,/USB_D+*
G04 #@! TA.AperFunction,SMDPad,CuDef*
G36*
G01*
X101650380Y-120661802D02*
X101791802Y-120520380D01*
G75*
G02*
X101933224Y-120520380I70711J-70711D01*
G01*
X102117072Y-120704228D01*
G75*
G02*
X102117072Y-120845650I-70711J-70711D01*
G01*
X101975650Y-120987072D01*
G75*
G02*
X101834228Y-120987072I-70711J70711D01*
G01*
X101650380Y-120803224D01*
G75*
G02*
X101650380Y-120661802I70711J70711D01*
G01*
G37*
G04 #@! TD.AperFunction*
G04 #@! TD*
G04 #@! TO.P,R2,1*
G04 #@! TO.N,/I2C_SCL_~LED~*
G04 #@! TA.AperFunction,SMDPad,CuDef*
G36*
G01*
X112770000Y-125760000D02*
X112770000Y-125960000D01*
G75*
G02*
X112670000Y-126060000I-100000J0D01*
G01*
X112410000Y-126060000D01*
G75*
G02*
X112310000Y-125960000I0J100000D01*
G01*
X112310000Y-125760000D01*
G75*
G02*
X112410000Y-125660000I100000J0D01*
G01*
X112670000Y-125660000D01*
G75*
G02*
X112770000Y-125760000I0J-100000D01*
G01*
G37*
G04 #@! TD.AperFunction*
G04 #@! TO.P,R2,2*
G04 #@! TO.N,+3V3*
G04 #@! TA.AperFunction,SMDPad,CuDef*
G36*
G01*
X112130000Y-125760000D02*
X112130000Y-125960000D01*
G75*
G02*
X112030000Y-126060000I-100000J0D01*
G01*
X111770000Y-126060000D01*
G75*
G02*
X111670000Y-125960000I0J100000D01*
G01*
X111670000Y-125760000D01*
G75*
G02*
X111770000Y-125660000I100000J0D01*
G01*
X112030000Y-125660000D01*
G75*
G02*
X112130000Y-125760000I0J-100000D01*
G01*
G37*
G04 #@! TD.AperFunction*
G04 #@! TD*
G04 #@! TO.P,R1,1*
G04 #@! TO.N,/I2C_SDA_~BTN~*
G04 #@! TA.AperFunction,SMDPad,CuDef*
G36*
G01*
X112770000Y-126460000D02*
X112770000Y-126660000D01*
G75*
G02*
X112670000Y-126760000I-100000J0D01*
G01*
X112410000Y-126760000D01*
G75*
G02*
X112310000Y-126660000I0J100000D01*
G01*
X112310000Y-126460000D01*
G75*
G02*
X112410000Y-126360000I100000J0D01*
G01*
X112670000Y-126360000D01*
G75*
G02*
X112770000Y-126460000I0J-100000D01*
G01*
G37*
G04 #@! TD.AperFunction*
G04 #@! TO.P,R1,2*
G04 #@! TO.N,+3V3*
G04 #@! TA.AperFunction,SMDPad,CuDef*
G36*
G01*
X112130000Y-126460000D02*
X112130000Y-126660000D01*
G75*
G02*
X112030000Y-126760000I-100000J0D01*
G01*
X111770000Y-126760000D01*
G75*
G02*
X111670000Y-126660000I0J100000D01*
G01*
X111670000Y-126460000D01*
G75*
G02*
X111770000Y-126360000I100000J0D01*
G01*
X112030000Y-126360000D01*
G75*
G02*
X112130000Y-126460000I0J-100000D01*
G01*
G37*
G04 #@! TD.AperFunction*
G04 #@! TD*
G04 #@! TO.P,C12,1*
G04 #@! TO.N,+3V3*
G04 #@! TA.AperFunction,SMDPad,CuDef*
G36*
G01*
X111670000Y-124890000D02*
X111670000Y-124690000D01*
G75*
G02*
X111770000Y-124590000I100000J0D01*
G01*
X112030000Y-124590000D01*
G75*
G02*
X112130000Y-124690000I0J-100000D01*
G01*
X112130000Y-124890000D01*
G75*
G02*
X112030000Y-124990000I-100000J0D01*
G01*
X111770000Y-124990000D01*
G75*
G02*
X111670000Y-124890000I0J100000D01*
G01*
G37*
G04 #@! TD.AperFunction*
G04 #@! TO.P,C12,2*
G04 #@! TO.N,GND*
G04 #@! TA.AperFunction,SMDPad,CuDef*
G36*
G01*
X112310000Y-124890000D02*
X112310000Y-124690000D01*
G75*
G02*
X112410000Y-124590000I100000J0D01*
G01*
X112670000Y-124590000D01*
G75*
G02*
X112770000Y-124690000I0J-100000D01*
G01*
X112770000Y-124890000D01*
G75*
G02*
X112670000Y-124990000I-100000J0D01*
G01*
X112410000Y-124990000D01*
G75*
G02*
X112310000Y-124890000I0J100000D01*
G01*
G37*
G04 #@! TD.AperFunction*
G04 #@! TD*
G04 #@! TO.P,J2,4*
G04 #@! TO.N,VCC*
X115240000Y-107620000D03*
G04 #@! TO.P,J2,3*
G04 #@! TO.N,/EXT_IN*
X115240000Y-105080000D03*
G04 #@! TO.P,J2,2*
G04 #@! TO.N,/AUDIO_OUT*
X115240000Y-102540000D03*
G04 #@! TO.P,J2,1*
G04 #@! TO.N,/AUDIO_OUT_2*
X115240000Y-100000000D03*
G04 #@! TD*
G04 #@! TO.P,J1,4*
G04 #@! TO.N,/A8*
X100000000Y-107620000D03*
G04 #@! TO.P,J1,3*
G04 #@! TO.N,/A5*
X100000000Y-105080000D03*
G04 #@! TO.P,J1,2*
G04 #@! TO.N,/~IO1~*
X100000000Y-102540000D03*
G04 #@! TO.P,J1,1*
G04 #@! TO.N,+3V3*
X100000000Y-100000000D03*
G04 #@! TD*
G04 #@! TO.P,C2,1*
G04 #@! TO.N,+1V2*
G04 #@! TA.AperFunction,SMDPad,CuDef*
G36*
G01*
X104130000Y-108870000D02*
X104330000Y-108870000D01*
G75*
G02*
X104430000Y-108970000I0J-100000D01*
G01*
X104430000Y-109230000D01*
G75*
G02*
X104330000Y-109330000I-100000J0D01*
G01*
X104130000Y-109330000D01*
G75*
G02*
X104030000Y-109230000I0J100000D01*
G01*
X104030000Y-108970000D01*
G75*
G02*
X104130000Y-108870000I100000J0D01*
G01*
G37*
G04 #@! TD.AperFunction*
G04 #@! TO.P,C2,2*
G04 #@! TO.N,GND*
G04 #@! TA.AperFunction,SMDPad,CuDef*
G36*
G01*
X104130000Y-109510000D02*
X104330000Y-109510000D01*
G75*
G02*
X104430000Y-109610000I0J-100000D01*
G01*
X104430000Y-109870000D01*
G75*
G02*
X104330000Y-109970000I-100000J0D01*
G01*
X104130000Y-109970000D01*
G75*
G02*
X104030000Y-109870000I0J100000D01*
G01*
X104030000Y-109610000D01*
G75*
G02*
X104130000Y-109510000I100000J0D01*
G01*
G37*
G04 #@! TD.AperFunction*
G04 #@! TD*
G04 #@! TO.P,C4,1*
G04 #@! TO.N,+3V3*
G04 #@! TA.AperFunction,SMDPad,CuDef*
G36*
G01*
X101830000Y-108870000D02*
X102030000Y-108870000D01*
G75*
G02*
X102130000Y-108970000I0J-100000D01*
G01*
X102130000Y-109230000D01*
G75*
G02*
X102030000Y-109330000I-100000J0D01*
G01*
X101830000Y-109330000D01*
G75*
G02*
X101730000Y-109230000I0J100000D01*
G01*
X101730000Y-108970000D01*
G75*
G02*
X101830000Y-108870000I100000J0D01*
G01*
G37*
G04 #@! TD.AperFunction*
G04 #@! TO.P,C4,2*
G04 #@! TO.N,GND*
G04 #@! TA.AperFunction,SMDPad,CuDef*
G36*
G01*
X101830000Y-109510000D02*
X102030000Y-109510000D01*
G75*
G02*
X102130000Y-109610000I0J-100000D01*
G01*
X102130000Y-109870000D01*
G75*
G02*
X102030000Y-109970000I-100000J0D01*
G01*
X101830000Y-109970000D01*
G75*
G02*
X101730000Y-109870000I0J100000D01*
G01*
X101730000Y-109610000D01*
G75*
G02*
X101830000Y-109510000I100000J0D01*
G01*
G37*
G04 #@! TD.AperFunction*
G04 #@! TD*
G04 #@! TO.P,U4,1*
G04 #@! TO.N,Net-(C9-Pad2)*
G04 #@! TA.AperFunction,SMDPad,CuDef*
G36*
G01*
X111795494Y-112896155D02*
X111724784Y-112966865D01*
G75*
G02*
X111654074Y-112966865I-35355J35355D01*
G01*
X111123744Y-112436535D01*
G75*
G02*
X111123744Y-112365825I35355J35355D01*
G01*
X111194454Y-112295115D01*
G75*
G02*
X111265164Y-112295115I35355J-35355D01*
G01*
X111795494Y-112825445D01*
G75*
G02*
X111795494Y-112896155I-35355J-35355D01*
G01*
G37*
G04 #@! TD.AperFunction*
G04 #@! TO.P,U4,2*
G04 #@! TO.N,N/C*
G04 #@! TA.AperFunction,SMDPad,CuDef*
G36*
G01*
X112078337Y-112613313D02*
X112007627Y-112684023D01*
G75*
G02*
X111936917Y-112684023I-35355J35355D01*
G01*
X111406587Y-112153693D01*
G75*
G02*
X111406587Y-112082983I35355J35355D01*
G01*
X111477297Y-112012273D01*
G75*
G02*
X111548007Y-112012273I35355J-35355D01*
G01*
X112078337Y-112542603D01*
G75*
G02*
X112078337Y-112613313I-35355J-35355D01*
G01*
G37*
G04 #@! TD.AperFunction*
G04 #@! TO.P,U4,3*
G04 #@! TO.N,+3V3*
G04 #@! TA.AperFunction,SMDPad,CuDef*
G36*
G01*
X112361180Y-112330470D02*
X112290470Y-112401180D01*
G75*
G02*
X112219760Y-112401180I-35355J35355D01*
G01*
X111689430Y-111870850D01*
G75*
G02*
X111689430Y-111800140I35355J35355D01*
G01*
X111760140Y-111729430D01*
G75*
G02*
X111830850Y-111729430I35355J-35355D01*
G01*
X112361180Y-112259760D01*
G75*
G02*
X112361180Y-112330470I-35355J-35355D01*
G01*
G37*
G04 #@! TD.AperFunction*
G04 #@! TO.P,U4,4*
G04 #@! TO.N,Net-(C10-Pad2)*
G04 #@! TA.AperFunction,SMDPad,CuDef*
G36*
G01*
X112644023Y-112047627D02*
X112573313Y-112118337D01*
G75*
G02*
X112502603Y-112118337I-35355J35355D01*
G01*
X111972273Y-111588007D01*
G75*
G02*
X111972273Y-111517297I35355J35355D01*
G01*
X112042983Y-111446587D01*
G75*
G02*
X112113693Y-111446587I35355J-35355D01*
G01*
X112644023Y-111976917D01*
G75*
G02*
X112644023Y-112047627I-35355J-35355D01*
G01*
G37*
G04 #@! TD.AperFunction*
G04 #@! TO.P,U4,5*
G04 #@! TO.N,Net-(C7-Pad1)*
G04 #@! TA.AperFunction,SMDPad,CuDef*
G36*
G01*
X112926865Y-111764784D02*
X112856155Y-111835494D01*
G75*
G02*
X112785445Y-111835494I-35355J35355D01*
G01*
X112255115Y-111305164D01*
G75*
G02*
X112255115Y-111234454I35355J35355D01*
G01*
X112325825Y-111163744D01*
G75*
G02*
X112396535Y-111163744I35355J-35355D01*
G01*
X112926865Y-111694074D01*
G75*
G02*
X112926865Y-111764784I-35355J-35355D01*
G01*
G37*
G04 #@! TD.AperFunction*
G04 #@! TO.P,U4,6*
G04 #@! TO.N,N/C*
G04 #@! TA.AperFunction,SMDPad,CuDef*
G36*
G01*
X112926865Y-110385926D02*
X112396535Y-110916256D01*
G75*
G02*
X112325825Y-110916256I-35355J35355D01*
G01*
X112255115Y-110845546D01*
G75*
G02*
X112255115Y-110774836I35355J35355D01*
G01*
X112785445Y-110244506D01*
G75*
G02*
X112856155Y-110244506I35355J-35355D01*
G01*
X112926865Y-110315216D01*
G75*
G02*
X112926865Y-110385926I-35355J-35355D01*
G01*
G37*
G04 #@! TD.AperFunction*
G04 #@! TO.P,U4,7*
G04 #@! TA.AperFunction,SMDPad,CuDef*
G36*
G01*
X112644023Y-110103083D02*
X112113693Y-110633413D01*
G75*
G02*
X112042983Y-110633413I-35355J35355D01*
G01*
X111972273Y-110562703D01*
G75*
G02*
X111972273Y-110491993I35355J35355D01*
G01*
X112502603Y-109961663D01*
G75*
G02*
X112573313Y-109961663I35355J-35355D01*
G01*
X112644023Y-110032373D01*
G75*
G02*
X112644023Y-110103083I-35355J-35355D01*
G01*
G37*
G04 #@! TD.AperFunction*
G04 #@! TO.P,U4,8*
G04 #@! TA.AperFunction,SMDPad,CuDef*
G36*
G01*
X112361180Y-109820240D02*
X111830850Y-110350570D01*
G75*
G02*
X111760140Y-110350570I-35355J35355D01*
G01*
X111689430Y-110279860D01*
G75*
G02*
X111689430Y-110209150I35355J35355D01*
G01*
X112219760Y-109678820D01*
G75*
G02*
X112290470Y-109678820I35355J-35355D01*
G01*
X112361180Y-109749530D01*
G75*
G02*
X112361180Y-109820240I-35355J-35355D01*
G01*
G37*
G04 #@! TD.AperFunction*
G04 #@! TO.P,U4,9*
G04 #@! TO.N,Net-(C8-Pad1)*
G04 #@! TA.AperFunction,SMDPad,CuDef*
G36*
G01*
X112078337Y-109537397D02*
X111548007Y-110067727D01*
G75*
G02*
X111477297Y-110067727I-35355J35355D01*
G01*
X111406587Y-109997017D01*
G75*
G02*
X111406587Y-109926307I35355J35355D01*
G01*
X111936917Y-109395977D01*
G75*
G02*
X112007627Y-109395977I35355J-35355D01*
G01*
X112078337Y-109466687D01*
G75*
G02*
X112078337Y-109537397I-35355J-35355D01*
G01*
G37*
G04 #@! TD.AperFunction*
G04 #@! TO.P,U4,10*
G04 #@! TO.N,N/C*
G04 #@! TA.AperFunction,SMDPad,CuDef*
G36*
G01*
X111795494Y-109254555D02*
X111265164Y-109784885D01*
G75*
G02*
X111194454Y-109784885I-35355J35355D01*
G01*
X111123744Y-109714175D01*
G75*
G02*
X111123744Y-109643465I35355J35355D01*
G01*
X111654074Y-109113135D01*
G75*
G02*
X111724784Y-109113135I35355J-35355D01*
G01*
X111795494Y-109183845D01*
G75*
G02*
X111795494Y-109254555I-35355J-35355D01*
G01*
G37*
G04 #@! TD.AperFunction*
G04 #@! TO.P,U4,11*
G04 #@! TA.AperFunction,SMDPad,CuDef*
G36*
G01*
X110876256Y-109714175D02*
X110805546Y-109784885D01*
G75*
G02*
X110734836Y-109784885I-35355J35355D01*
G01*
X110204506Y-109254555D01*
G75*
G02*
X110204506Y-109183845I35355J35355D01*
G01*
X110275216Y-109113135D01*
G75*
G02*
X110345926Y-109113135I35355J-35355D01*
G01*
X110876256Y-109643465D01*
G75*
G02*
X110876256Y-109714175I-35355J-35355D01*
G01*
G37*
G04 #@! TD.AperFunction*
G04 #@! TO.P,U4,12*
G04 #@! TO.N,+3V3*
G04 #@! TA.AperFunction,SMDPad,CuDef*
G36*
G01*
X110593413Y-109997017D02*
X110522703Y-110067727D01*
G75*
G02*
X110451993Y-110067727I-35355J35355D01*
G01*
X109921663Y-109537397D01*
G75*
G02*
X109921663Y-109466687I35355J35355D01*
G01*
X109992373Y-109395977D01*
G75*
G02*
X110063083Y-109395977I35355J-35355D01*
G01*
X110593413Y-109926307D01*
G75*
G02*
X110593413Y-109997017I-35355J-35355D01*
G01*
G37*
G04 #@! TD.AperFunction*
G04 #@! TO.P,U4,13*
G04 #@! TO.N,/SYS_CLK*
G04 #@! TA.AperFunction,SMDPad,CuDef*
G36*
G01*
X110310570Y-110279860D02*
X110239860Y-110350570D01*
G75*
G02*
X110169150Y-110350570I-35355J35355D01*
G01*
X109638820Y-109820240D01*
G75*
G02*
X109638820Y-109749530I35355J35355D01*
G01*
X109709530Y-109678820D01*
G75*
G02*
X109780240Y-109678820I35355J-35355D01*
G01*
X110310570Y-110209150D01*
G75*
G02*
X110310570Y-110279860I-35355J-35355D01*
G01*
G37*
G04 #@! TD.AperFunction*
G04 #@! TO.P,U4,14*
G04 #@! TO.N,/I2S_LRCLK*
G04 #@! TA.AperFunction,SMDPad,CuDef*
G36*
G01*
X110027727Y-110562703D02*
X109957017Y-110633413D01*
G75*
G02*
X109886307Y-110633413I-35355J35355D01*
G01*
X109355977Y-110103083D01*
G75*
G02*
X109355977Y-110032373I35355J35355D01*
G01*
X109426687Y-109961663D01*
G75*
G02*
X109497397Y-109961663I35355J-35355D01*
G01*
X110027727Y-110491993D01*
G75*
G02*
X110027727Y-110562703I-35355J-35355D01*
G01*
G37*
G04 #@! TD.AperFunction*
G04 #@! TO.P,U4,15*
G04 #@! TO.N,/I2S_SCLK*
G04 #@! TA.AperFunction,SMDPad,CuDef*
G36*
G01*
X109744885Y-110845546D02*
X109674175Y-110916256D01*
G75*
G02*
X109603465Y-110916256I-35355J35355D01*
G01*
X109073135Y-110385926D01*
G75*
G02*
X109073135Y-110315216I35355J35355D01*
G01*
X109143845Y-110244506D01*
G75*
G02*
X109214555Y-110244506I35355J-35355D01*
G01*
X109744885Y-110774836D01*
G75*
G02*
X109744885Y-110845546I-35355J-35355D01*
G01*
G37*
G04 #@! TD.AperFunction*
G04 #@! TO.P,U4,16*
G04 #@! TO.N,/I2S_DOUT*
G04 #@! TA.AperFunction,SMDPad,CuDef*
G36*
G01*
X109744885Y-111305164D02*
X109214555Y-111835494D01*
G75*
G02*
X109143845Y-111835494I-35355J35355D01*
G01*
X109073135Y-111764784D01*
G75*
G02*
X109073135Y-111694074I35355J35355D01*
G01*
X109603465Y-111163744D01*
G75*
G02*
X109674175Y-111163744I35355J-35355D01*
G01*
X109744885Y-111234454D01*
G75*
G02*
X109744885Y-111305164I-35355J-35355D01*
G01*
G37*
G04 #@! TD.AperFunction*
G04 #@! TO.P,U4,17*
G04 #@! TO.N,/I2S_DIN*
G04 #@! TA.AperFunction,SMDPad,CuDef*
G36*
G01*
X110027727Y-111588007D02*
X109497397Y-112118337D01*
G75*
G02*
X109426687Y-112118337I-35355J35355D01*
G01*
X109355977Y-112047627D01*
G75*
G02*
X109355977Y-111976917I35355J35355D01*
G01*
X109886307Y-111446587D01*
G75*
G02*
X109957017Y-111446587I35355J-35355D01*
G01*
X110027727Y-111517297D01*
G75*
G02*
X110027727Y-111588007I-35355J-35355D01*
G01*
G37*
G04 #@! TD.AperFunction*
G04 #@! TO.P,U4,18*
G04 #@! TO.N,/I2C_SDA_~BTN~*
G04 #@! TA.AperFunction,SMDPad,CuDef*
G36*
G01*
X110310570Y-111870850D02*
X109780240Y-112401180D01*
G75*
G02*
X109709530Y-112401180I-35355J35355D01*
G01*
X109638820Y-112330470D01*
G75*
G02*
X109638820Y-112259760I35355J35355D01*
G01*
X110169150Y-111729430D01*
G75*
G02*
X110239860Y-111729430I35355J-35355D01*
G01*
X110310570Y-111800140D01*
G75*
G02*
X110310570Y-111870850I-35355J-35355D01*
G01*
G37*
G04 #@! TD.AperFunction*
G04 #@! TO.P,U4,19*
G04 #@! TO.N,/I2C_SCL_~LED~*
G04 #@! TA.AperFunction,SMDPad,CuDef*
G36*
G01*
X110593413Y-112153693D02*
X110063083Y-112684023D01*
G75*
G02*
X109992373Y-112684023I-35355J35355D01*
G01*
X109921663Y-112613313D01*
G75*
G02*
X109921663Y-112542603I35355J35355D01*
G01*
X110451993Y-112012273D01*
G75*
G02*
X110522703Y-112012273I35355J-35355D01*
G01*
X110593413Y-112082983D01*
G75*
G02*
X110593413Y-112153693I-35355J-35355D01*
G01*
G37*
G04 #@! TD.AperFunction*
G04 #@! TO.P,U4,20*
G04 #@! TO.N,+1V2*
G04 #@! TA.AperFunction,SMDPad,CuDef*
G36*
G01*
X110876256Y-112436535D02*
X110345926Y-112966865D01*
G75*
G02*
X110275216Y-112966865I-35355J35355D01*
G01*
X110204506Y-112896155D01*
G75*
G02*
X110204506Y-112825445I35355J35355D01*
G01*
X110734836Y-112295115D01*
G75*
G02*
X110805546Y-112295115I35355J-35355D01*
G01*
X110876256Y-112365825D01*
G75*
G02*
X110876256Y-112436535I-35355J-35355D01*
G01*
G37*
G04 #@! TD.AperFunction*
G04 #@! TA.AperFunction,SMDPad,CuDef*
D13*
G04 #@! TO.P,U4,21*
G04 #@! TO.N,GND*
G36*
X112166726Y-111040000D02*
G01*
X111000000Y-112206726D01*
X109833274Y-111040000D01*
X111000000Y-109873274D01*
X112166726Y-111040000D01*
G37*
G04 #@! TD.AperFunction*
G04 #@! TD*
G04 #@! TO.P,D2,2*
G04 #@! TO.N,VCC*
G04 #@! TA.AperFunction,SMDPad,CuDef*
G36*
G01*
X102365000Y-107290000D02*
X101915000Y-107290000D01*
G75*
G02*
X101790000Y-107165000I0J125000D01*
G01*
X101790000Y-106915000D01*
G75*
G02*
X101915000Y-106790000I125000J0D01*
G01*
X102365000Y-106790000D01*
G75*
G02*
X102490000Y-106915000I0J-125000D01*
G01*
X102490000Y-107165000D01*
G75*
G02*
X102365000Y-107290000I-125000J0D01*
G01*
G37*
G04 #@! TD.AperFunction*
G04 #@! TO.P,D2,1*
G04 #@! TO.N,+5V*
G04 #@! TA.AperFunction,SMDPad,CuDef*
G36*
G01*
X102365000Y-108090000D02*
X101915000Y-108090000D01*
G75*
G02*
X101790000Y-107965000I0J125000D01*
G01*
X101790000Y-107715000D01*
G75*
G02*
X101915000Y-107590000I125000J0D01*
G01*
X102365000Y-107590000D01*
G75*
G02*
X102490000Y-107715000I0J-125000D01*
G01*
X102490000Y-107965000D01*
G75*
G02*
X102365000Y-108090000I-125000J0D01*
G01*
G37*
G04 #@! TD.AperFunction*
G04 #@! TD*
G04 #@! TO.P,D1,2*
G04 #@! TO.N,VBUS*
G04 #@! TA.AperFunction,SMDPad,CuDef*
G36*
G01*
X104285000Y-107290000D02*
X103835000Y-107290000D01*
G75*
G02*
X103710000Y-107165000I0J125000D01*
G01*
X103710000Y-106915000D01*
G75*
G02*
X103835000Y-106790000I125000J0D01*
G01*
X104285000Y-106790000D01*
G75*
G02*
X104410000Y-106915000I0J-125000D01*
G01*
X104410000Y-107165000D01*
G75*
G02*
X104285000Y-107290000I-125000J0D01*
G01*
G37*
G04 #@! TD.AperFunction*
G04 #@! TO.P,D1,1*
G04 #@! TO.N,+5V*
G04 #@! TA.AperFunction,SMDPad,CuDef*
G36*
G01*
X104285000Y-108090000D02*
X103835000Y-108090000D01*
G75*
G02*
X103710000Y-107965000I0J125000D01*
G01*
X103710000Y-107715000D01*
G75*
G02*
X103835000Y-107590000I125000J0D01*
G01*
X104285000Y-107590000D01*
G75*
G02*
X104410000Y-107715000I0J-125000D01*
G01*
X104410000Y-107965000D01*
G75*
G02*
X104285000Y-108090000I-125000J0D01*
G01*
G37*
G04 #@! TD.AperFunction*
G04 #@! TD*
G04 #@! TO.P,C5,1*
G04 #@! TO.N,+3V3*
G04 #@! TA.AperFunction,SMDPad,CuDef*
G36*
G01*
X110730000Y-107790000D02*
X110730000Y-107590000D01*
G75*
G02*
X110830000Y-107490000I100000J0D01*
G01*
X111090000Y-107490000D01*
G75*
G02*
X111190000Y-107590000I0J-100000D01*
G01*
X111190000Y-107790000D01*
G75*
G02*
X111090000Y-107890000I-100000J0D01*
G01*
X110830000Y-107890000D01*
G75*
G02*
X110730000Y-107790000I0J100000D01*
G01*
G37*
G04 #@! TD.AperFunction*
G04 #@! TO.P,C5,2*
G04 #@! TO.N,GND*
G04 #@! TA.AperFunction,SMDPad,CuDef*
G36*
G01*
X111370000Y-107790000D02*
X111370000Y-107590000D01*
G75*
G02*
X111470000Y-107490000I100000J0D01*
G01*
X111730000Y-107490000D01*
G75*
G02*
X111830000Y-107590000I0J-100000D01*
G01*
X111830000Y-107790000D01*
G75*
G02*
X111730000Y-107890000I-100000J0D01*
G01*
X111470000Y-107890000D01*
G75*
G02*
X111370000Y-107790000I0J100000D01*
G01*
G37*
G04 #@! TD.AperFunction*
G04 #@! TD*
G04 #@! TO.P,C8,1*
G04 #@! TO.N,Net-(C8-Pad1)*
G04 #@! TA.AperFunction,SMDPad,CuDef*
G36*
G01*
X112560000Y-108490000D02*
X112560000Y-108290000D01*
G75*
G02*
X112660000Y-108190000I100000J0D01*
G01*
X112920000Y-108190000D01*
G75*
G02*
X113020000Y-108290000I0J-100000D01*
G01*
X113020000Y-108490000D01*
G75*
G02*
X112920000Y-108590000I-100000J0D01*
G01*
X112660000Y-108590000D01*
G75*
G02*
X112560000Y-108490000I0J100000D01*
G01*
G37*
G04 #@! TD.AperFunction*
G04 #@! TO.P,C8,2*
G04 #@! TO.N,/EXT_IN*
G04 #@! TA.AperFunction,SMDPad,CuDef*
G36*
G01*
X113200000Y-108490000D02*
X113200000Y-108290000D01*
G75*
G02*
X113300000Y-108190000I100000J0D01*
G01*
X113560000Y-108190000D01*
G75*
G02*
X113660000Y-108290000I0J-100000D01*
G01*
X113660000Y-108490000D01*
G75*
G02*
X113560000Y-108590000I-100000J0D01*
G01*
X113300000Y-108590000D01*
G75*
G02*
X113200000Y-108490000I0J100000D01*
G01*
G37*
G04 #@! TD.AperFunction*
G04 #@! TD*
G04 #@! TO.P,R10,1*
G04 #@! TO.N,/SPI_RAM_~CS~*
G04 #@! TA.AperFunction,SMDPad,CuDef*
G36*
G01*
X104050000Y-126310000D02*
X103850000Y-126310000D01*
G75*
G02*
X103750000Y-126210000I0J100000D01*
G01*
X103750000Y-125950000D01*
G75*
G02*
X103850000Y-125850000I100000J0D01*
G01*
X104050000Y-125850000D01*
G75*
G02*
X104150000Y-125950000I0J-100000D01*
G01*
X104150000Y-126210000D01*
G75*
G02*
X104050000Y-126310000I-100000J0D01*
G01*
G37*
G04 #@! TD.AperFunction*
G04 #@! TO.P,R10,2*
G04 #@! TO.N,+3V3*
G04 #@! TA.AperFunction,SMDPad,CuDef*
G36*
G01*
X104050000Y-125670000D02*
X103850000Y-125670000D01*
G75*
G02*
X103750000Y-125570000I0J100000D01*
G01*
X103750000Y-125310000D01*
G75*
G02*
X103850000Y-125210000I100000J0D01*
G01*
X104050000Y-125210000D01*
G75*
G02*
X104150000Y-125310000I0J-100000D01*
G01*
X104150000Y-125570000D01*
G75*
G02*
X104050000Y-125670000I-100000J0D01*
G01*
G37*
G04 #@! TD.AperFunction*
G04 #@! TD*
G04 #@! TO.P,C1,2*
G04 #@! TO.N,GND*
G04 #@! TA.AperFunction,SMDPad,CuDef*
G36*
G01*
X105190000Y-107350000D02*
X104850000Y-107350000D01*
G75*
G02*
X104710000Y-107210000I0J140000D01*
G01*
X104710000Y-106930000D01*
G75*
G02*
X104850000Y-106790000I140000J0D01*
G01*
X105190000Y-106790000D01*
G75*
G02*
X105330000Y-106930000I0J-140000D01*
G01*
X105330000Y-107210000D01*
G75*
G02*
X105190000Y-107350000I-140000J0D01*
G01*
G37*
G04 #@! TD.AperFunction*
G04 #@! TO.P,C1,1*
G04 #@! TO.N,+5V*
G04 #@! TA.AperFunction,SMDPad,CuDef*
G36*
G01*
X105190000Y-108310000D02*
X104850000Y-108310000D01*
G75*
G02*
X104710000Y-108170000I0J140000D01*
G01*
X104710000Y-107890000D01*
G75*
G02*
X104850000Y-107750000I140000J0D01*
G01*
X105190000Y-107750000D01*
G75*
G02*
X105330000Y-107890000I0J-140000D01*
G01*
X105330000Y-108170000D01*
G75*
G02*
X105190000Y-108310000I-140000J0D01*
G01*
G37*
G04 #@! TD.AperFunction*
G04 #@! TD*
G04 #@! TO.P,C3,2*
G04 #@! TO.N,GND*
G04 #@! TA.AperFunction,SMDPad,CuDef*
G36*
G01*
X103270000Y-107350000D02*
X102930000Y-107350000D01*
G75*
G02*
X102790000Y-107210000I0J140000D01*
G01*
X102790000Y-106930000D01*
G75*
G02*
X102930000Y-106790000I140000J0D01*
G01*
X103270000Y-106790000D01*
G75*
G02*
X103410000Y-106930000I0J-140000D01*
G01*
X103410000Y-107210000D01*
G75*
G02*
X103270000Y-107350000I-140000J0D01*
G01*
G37*
G04 #@! TD.AperFunction*
G04 #@! TO.P,C3,1*
G04 #@! TO.N,+5V*
G04 #@! TA.AperFunction,SMDPad,CuDef*
G36*
G01*
X103270000Y-108310000D02*
X102930000Y-108310000D01*
G75*
G02*
X102790000Y-108170000I0J140000D01*
G01*
X102790000Y-107890000D01*
G75*
G02*
X102930000Y-107750000I140000J0D01*
G01*
X103270000Y-107750000D01*
G75*
G02*
X103410000Y-107890000I0J-140000D01*
G01*
X103410000Y-108170000D01*
G75*
G02*
X103270000Y-108310000I-140000J0D01*
G01*
G37*
G04 #@! TD.AperFunction*
G04 #@! TD*
G04 #@! TO.P,R6,1*
G04 #@! TO.N,+1V2*
G04 #@! TA.AperFunction,SMDPad,CuDef*
G36*
G01*
X104549620Y-120998198D02*
X104408198Y-121139620D01*
G75*
G02*
X104266776Y-121139620I-70711J70711D01*
G01*
X104082928Y-120955772D01*
G75*
G02*
X104082928Y-120814350I70711J70711D01*
G01*
X104224350Y-120672928D01*
G75*
G02*
X104365772Y-120672928I70711J-70711D01*
G01*
X104549620Y-120856776D01*
G75*
G02*
X104549620Y-120998198I-70711J-70711D01*
G01*
G37*
G04 #@! TD.AperFunction*
G04 #@! TO.P,R6,2*
G04 #@! TO.N,Net-(C18-Pad1)*
G04 #@! TA.AperFunction,SMDPad,CuDef*
G36*
G01*
X104097072Y-120545650D02*
X103955650Y-120687072D01*
G75*
G02*
X103814228Y-120687072I-70711J70711D01*
G01*
X103630380Y-120503224D01*
G75*
G02*
X103630380Y-120361802I70711J70711D01*
G01*
X103771802Y-120220380D01*
G75*
G02*
X103913224Y-120220380I70711J-70711D01*
G01*
X104097072Y-120404228D01*
G75*
G02*
X104097072Y-120545650I-70711J-70711D01*
G01*
G37*
G04 #@! TD.AperFunction*
G04 #@! TD*
G04 #@! TO.P,C20,1*
G04 #@! TO.N,+3V3*
G04 #@! TA.AperFunction,SMDPad,CuDef*
G36*
G01*
X112650000Y-115810000D02*
X112650000Y-115610000D01*
G75*
G02*
X112750000Y-115510000I100000J0D01*
G01*
X113010000Y-115510000D01*
G75*
G02*
X113110000Y-115610000I0J-100000D01*
G01*
X113110000Y-115810000D01*
G75*
G02*
X113010000Y-115910000I-100000J0D01*
G01*
X112750000Y-115910000D01*
G75*
G02*
X112650000Y-115810000I0J100000D01*
G01*
G37*
G04 #@! TD.AperFunction*
G04 #@! TO.P,C20,2*
G04 #@! TO.N,GND*
G04 #@! TA.AperFunction,SMDPad,CuDef*
G36*
G01*
X113290000Y-115810000D02*
X113290000Y-115610000D01*
G75*
G02*
X113390000Y-115510000I100000J0D01*
G01*
X113650000Y-115510000D01*
G75*
G02*
X113750000Y-115610000I0J-100000D01*
G01*
X113750000Y-115810000D01*
G75*
G02*
X113650000Y-115910000I-100000J0D01*
G01*
X113390000Y-115910000D01*
G75*
G02*
X113290000Y-115810000I0J100000D01*
G01*
G37*
G04 #@! TD.AperFunction*
G04 #@! TD*
G04 #@! TO.P,C14,1*
G04 #@! TO.N,+3V3*
G04 #@! TA.AperFunction,SMDPad,CuDef*
G36*
G01*
X103031802Y-114899620D02*
X102890380Y-114758198D01*
G75*
G02*
X102890380Y-114616776I70711J70711D01*
G01*
X103074228Y-114432928D01*
G75*
G02*
X103215650Y-114432928I70711J-70711D01*
G01*
X103357072Y-114574350D01*
G75*
G02*
X103357072Y-114715772I-70711J-70711D01*
G01*
X103173224Y-114899620D01*
G75*
G02*
X103031802Y-114899620I-70711J70711D01*
G01*
G37*
G04 #@! TD.AperFunction*
G04 #@! TO.P,C14,2*
G04 #@! TO.N,GND*
G04 #@! TA.AperFunction,SMDPad,CuDef*
G36*
G01*
X103484350Y-114447072D02*
X103342928Y-114305650D01*
G75*
G02*
X103342928Y-114164228I70711J70711D01*
G01*
X103526776Y-113980380D01*
G75*
G02*
X103668198Y-113980380I70711J-70711D01*
G01*
X103809620Y-114121802D01*
G75*
G02*
X103809620Y-114263224I-70711J-70711D01*
G01*
X103625772Y-114447072D01*
G75*
G02*
X103484350Y-114447072I-70711J70711D01*
G01*
G37*
G04 #@! TD.AperFunction*
G04 #@! TD*
G04 #@! TO.P,C13,1*
G04 #@! TO.N,+3V3*
G04 #@! TA.AperFunction,SMDPad,CuDef*
G36*
G01*
X104049620Y-121488198D02*
X103908198Y-121629620D01*
G75*
G02*
X103766776Y-121629620I-70711J70711D01*
G01*
X103582928Y-121445772D01*
G75*
G02*
X103582928Y-121304350I70711J70711D01*
G01*
X103724350Y-121162928D01*
G75*
G02*
X103865772Y-121162928I70711J-70711D01*
G01*
X104049620Y-121346776D01*
G75*
G02*
X104049620Y-121488198I-70711J-70711D01*
G01*
G37*
G04 #@! TD.AperFunction*
G04 #@! TO.P,C13,2*
G04 #@! TO.N,GND*
G04 #@! TA.AperFunction,SMDPad,CuDef*
G36*
G01*
X103597072Y-121035650D02*
X103455650Y-121177072D01*
G75*
G02*
X103314228Y-121177072I-70711J70711D01*
G01*
X103130380Y-120993224D01*
G75*
G02*
X103130380Y-120851802I70711J70711D01*
G01*
X103271802Y-120710380D01*
G75*
G02*
X103413224Y-120710380I70711J-70711D01*
G01*
X103597072Y-120894228D01*
G75*
G02*
X103597072Y-121035650I-70711J-70711D01*
G01*
G37*
G04 #@! TD.AperFunction*
G04 #@! TD*
G04 #@! TO.P,C18,1*
G04 #@! TO.N,Net-(C18-Pad1)*
G04 #@! TA.AperFunction,SMDPad,CuDef*
G36*
G01*
X102918198Y-119220380D02*
X103059620Y-119361802D01*
G75*
G02*
X103059620Y-119503224I-70711J-70711D01*
G01*
X102875772Y-119687072D01*
G75*
G02*
X102734350Y-119687072I-70711J70711D01*
G01*
X102592928Y-119545650D01*
G75*
G02*
X102592928Y-119404228I70711J70711D01*
G01*
X102776776Y-119220380D01*
G75*
G02*
X102918198Y-119220380I70711J-70711D01*
G01*
G37*
G04 #@! TD.AperFunction*
G04 #@! TO.P,C18,2*
G04 #@! TO.N,GND*
G04 #@! TA.AperFunction,SMDPad,CuDef*
G36*
G01*
X102465650Y-119672928D02*
X102607072Y-119814350D01*
G75*
G02*
X102607072Y-119955772I-70711J-70711D01*
G01*
X102423224Y-120139620D01*
G75*
G02*
X102281802Y-120139620I-70711J70711D01*
G01*
X102140380Y-119998198D01*
G75*
G02*
X102140380Y-119856776I70711J70711D01*
G01*
X102324228Y-119672928D01*
G75*
G02*
X102465650Y-119672928I70711J-70711D01*
G01*
G37*
G04 #@! TD.AperFunction*
G04 #@! TD*
G04 #@! TO.P,C16,2*
G04 #@! TO.N,GND*
G04 #@! TA.AperFunction,SMDPad,CuDef*
G36*
G01*
X113290000Y-113750000D02*
X113290000Y-113550000D01*
G75*
G02*
X113390000Y-113450000I100000J0D01*
G01*
X113650000Y-113450000D01*
G75*
G02*
X113750000Y-113550000I0J-100000D01*
G01*
X113750000Y-113750000D01*
G75*
G02*
X113650000Y-113850000I-100000J0D01*
G01*
X113390000Y-113850000D01*
G75*
G02*
X113290000Y-113750000I0J100000D01*
G01*
G37*
G04 #@! TD.AperFunction*
G04 #@! TO.P,C16,1*
G04 #@! TO.N,+1V2*
G04 #@! TA.AperFunction,SMDPad,CuDef*
G36*
G01*
X112650000Y-113750000D02*
X112650000Y-113550000D01*
G75*
G02*
X112750000Y-113450000I100000J0D01*
G01*
X113010000Y-113450000D01*
G75*
G02*
X113110000Y-113550000I0J-100000D01*
G01*
X113110000Y-113750000D01*
G75*
G02*
X113010000Y-113850000I-100000J0D01*
G01*
X112750000Y-113850000D01*
G75*
G02*
X112650000Y-113750000I0J100000D01*
G01*
G37*
G04 #@! TD.AperFunction*
G04 #@! TD*
G04 #@! TO.P,C15,2*
G04 #@! TO.N,GND*
G04 #@! TA.AperFunction,SMDPad,CuDef*
G36*
G01*
X113290000Y-114450000D02*
X113290000Y-114250000D01*
G75*
G02*
X113390000Y-114150000I100000J0D01*
G01*
X113650000Y-114150000D01*
G75*
G02*
X113750000Y-114250000I0J-100000D01*
G01*
X113750000Y-114450000D01*
G75*
G02*
X113650000Y-114550000I-100000J0D01*
G01*
X113390000Y-114550000D01*
G75*
G02*
X113290000Y-114450000I0J100000D01*
G01*
G37*
G04 #@! TD.AperFunction*
G04 #@! TO.P,C15,1*
G04 #@! TO.N,+1V2*
G04 #@! TA.AperFunction,SMDPad,CuDef*
G36*
G01*
X112650000Y-114450000D02*
X112650000Y-114250000D01*
G75*
G02*
X112750000Y-114150000I100000J0D01*
G01*
X113010000Y-114150000D01*
G75*
G02*
X113110000Y-114250000I0J-100000D01*
G01*
X113110000Y-114450000D01*
G75*
G02*
X113010000Y-114550000I-100000J0D01*
G01*
X112750000Y-114550000D01*
G75*
G02*
X112650000Y-114450000I0J100000D01*
G01*
G37*
G04 #@! TD.AperFunction*
G04 #@! TD*
G04 #@! TO.P,C7,1*
G04 #@! TO.N,Net-(C7-Pad1)*
G04 #@! TA.AperFunction,SMDPad,CuDef*
G36*
G01*
X112560000Y-109190000D02*
X112560000Y-108990000D01*
G75*
G02*
X112660000Y-108890000I100000J0D01*
G01*
X112920000Y-108890000D01*
G75*
G02*
X113020000Y-108990000I0J-100000D01*
G01*
X113020000Y-109190000D01*
G75*
G02*
X112920000Y-109290000I-100000J0D01*
G01*
X112660000Y-109290000D01*
G75*
G02*
X112560000Y-109190000I0J100000D01*
G01*
G37*
G04 #@! TD.AperFunction*
G04 #@! TO.P,C7,2*
G04 #@! TO.N,GND*
G04 #@! TA.AperFunction,SMDPad,CuDef*
G36*
G01*
X113200000Y-109190000D02*
X113200000Y-108990000D01*
G75*
G02*
X113300000Y-108890000I100000J0D01*
G01*
X113560000Y-108890000D01*
G75*
G02*
X113660000Y-108990000I0J-100000D01*
G01*
X113660000Y-109190000D01*
G75*
G02*
X113560000Y-109290000I-100000J0D01*
G01*
X113300000Y-109290000D01*
G75*
G02*
X113200000Y-109190000I0J100000D01*
G01*
G37*
G04 #@! TD.AperFunction*
G04 #@! TD*
G04 #@! TO.P,C10,1*
G04 #@! TO.N,/AUDIO_OUT*
G04 #@! TA.AperFunction,SMDPad,CuDef*
G36*
G01*
X113660000Y-107590000D02*
X113660000Y-107790000D01*
G75*
G02*
X113560000Y-107890000I-100000J0D01*
G01*
X113300000Y-107890000D01*
G75*
G02*
X113200000Y-107790000I0J100000D01*
G01*
X113200000Y-107590000D01*
G75*
G02*
X113300000Y-107490000I100000J0D01*
G01*
X113560000Y-107490000D01*
G75*
G02*
X113660000Y-107590000I0J-100000D01*
G01*
G37*
G04 #@! TD.AperFunction*
G04 #@! TO.P,C10,2*
G04 #@! TO.N,Net-(C10-Pad2)*
G04 #@! TA.AperFunction,SMDPad,CuDef*
G36*
G01*
X113020000Y-107590000D02*
X113020000Y-107790000D01*
G75*
G02*
X112920000Y-107890000I-100000J0D01*
G01*
X112660000Y-107890000D01*
G75*
G02*
X112560000Y-107790000I0J100000D01*
G01*
X112560000Y-107590000D01*
G75*
G02*
X112660000Y-107490000I100000J0D01*
G01*
X112920000Y-107490000D01*
G75*
G02*
X113020000Y-107590000I0J-100000D01*
G01*
G37*
G04 #@! TD.AperFunction*
G04 #@! TD*
G04 #@! TO.P,C9,1*
G04 #@! TO.N,/AUDIO_OUT_2*
G04 #@! TA.AperFunction,SMDPad,CuDef*
G36*
G01*
X113660000Y-106890000D02*
X113660000Y-107090000D01*
G75*
G02*
X113560000Y-107190000I-100000J0D01*
G01*
X113300000Y-107190000D01*
G75*
G02*
X113200000Y-107090000I0J100000D01*
G01*
X113200000Y-106890000D01*
G75*
G02*
X113300000Y-106790000I100000J0D01*
G01*
X113560000Y-106790000D01*
G75*
G02*
X113660000Y-106890000I0J-100000D01*
G01*
G37*
G04 #@! TD.AperFunction*
G04 #@! TO.P,C9,2*
G04 #@! TO.N,Net-(C9-Pad2)*
G04 #@! TA.AperFunction,SMDPad,CuDef*
G36*
G01*
X113020000Y-106890000D02*
X113020000Y-107090000D01*
G75*
G02*
X112920000Y-107190000I-100000J0D01*
G01*
X112660000Y-107190000D01*
G75*
G02*
X112560000Y-107090000I0J100000D01*
G01*
X112560000Y-106890000D01*
G75*
G02*
X112660000Y-106790000I100000J0D01*
G01*
X112920000Y-106790000D01*
G75*
G02*
X113020000Y-106890000I0J-100000D01*
G01*
G37*
G04 #@! TD.AperFunction*
G04 #@! TD*
G04 #@! TO.P,C6,2*
G04 #@! TO.N,GND*
G04 #@! TA.AperFunction,SMDPad,CuDef*
G36*
G01*
X113290000Y-113050000D02*
X113290000Y-112850000D01*
G75*
G02*
X113390000Y-112750000I100000J0D01*
G01*
X113650000Y-112750000D01*
G75*
G02*
X113750000Y-112850000I0J-100000D01*
G01*
X113750000Y-113050000D01*
G75*
G02*
X113650000Y-113150000I-100000J0D01*
G01*
X113390000Y-113150000D01*
G75*
G02*
X113290000Y-113050000I0J100000D01*
G01*
G37*
G04 #@! TD.AperFunction*
G04 #@! TO.P,C6,1*
G04 #@! TO.N,+3V3*
G04 #@! TA.AperFunction,SMDPad,CuDef*
G36*
G01*
X112650000Y-113050000D02*
X112650000Y-112850000D01*
G75*
G02*
X112750000Y-112750000I100000J0D01*
G01*
X113010000Y-112750000D01*
G75*
G02*
X113110000Y-112850000I0J-100000D01*
G01*
X113110000Y-113050000D01*
G75*
G02*
X113010000Y-113150000I-100000J0D01*
G01*
X112750000Y-113150000D01*
G75*
G02*
X112650000Y-113050000I0J100000D01*
G01*
G37*
G04 #@! TD.AperFunction*
G04 #@! TD*
G04 #@! TO.P,C17,1*
G04 #@! TO.N,+3V3*
G04 #@! TA.AperFunction,SMDPad,CuDef*
G36*
G01*
X102428198Y-115730380D02*
X102569620Y-115871802D01*
G75*
G02*
X102569620Y-116013224I-70711J-70711D01*
G01*
X102385772Y-116197072D01*
G75*
G02*
X102244350Y-116197072I-70711J70711D01*
G01*
X102102928Y-116055650D01*
G75*
G02*
X102102928Y-115914228I70711J70711D01*
G01*
X102286776Y-115730380D01*
G75*
G02*
X102428198Y-115730380I70711J-70711D01*
G01*
G37*
G04 #@! TD.AperFunction*
G04 #@! TO.P,C17,2*
G04 #@! TO.N,GND*
G04 #@! TA.AperFunction,SMDPad,CuDef*
G36*
G01*
X101975650Y-116182928D02*
X102117072Y-116324350D01*
G75*
G02*
X102117072Y-116465772I-70711J-70711D01*
G01*
X101933224Y-116649620D01*
G75*
G02*
X101791802Y-116649620I-70711J70711D01*
G01*
X101650380Y-116508198D01*
G75*
G02*
X101650380Y-116366776I70711J70711D01*
G01*
X101834228Y-116182928D01*
G75*
G02*
X101975650Y-116182928I70711J-70711D01*
G01*
G37*
G04 #@! TD.AperFunction*
G04 #@! TD*
D15*
G04 #@! TO.N,GND*
X113520000Y-116190000D03*
X113520000Y-114820000D03*
X111000000Y-111040000D03*
X107620000Y-126930000D03*
X105930000Y-108170000D03*
X107620000Y-124930000D03*
X111430000Y-110620000D03*
X110580000Y-111460000D03*
X111430000Y-111460000D03*
X110580000Y-110610000D03*
X108620000Y-117990000D03*
X109630000Y-117110000D03*
X107620000Y-119000000D03*
X106630000Y-117990000D03*
X105730000Y-117110000D03*
X104990000Y-129110000D03*
X113430000Y-109560000D03*
X107470000Y-114840000D03*
X102260000Y-119210000D03*
X113180000Y-119190000D03*
X113520000Y-112490000D03*
X107620000Y-117010000D03*
X101710000Y-115720000D03*
X107280000Y-107740000D03*
X103170000Y-113950000D03*
X108630000Y-106610000D03*
X112540000Y-127160000D03*
X105410000Y-106530000D03*
X112540000Y-125260000D03*
X104280000Y-110250000D03*
X103680000Y-110250000D03*
X103080000Y-110250000D03*
X102480000Y-110250000D03*
X102780000Y-110770000D03*
X103380000Y-110770000D03*
X103980000Y-110770000D03*
G04 #@! TO.N,+3V3*
X102350000Y-112200000D03*
X113020000Y-129210000D03*
X114720000Y-129210000D03*
X102140000Y-131750000D03*
X104720000Y-112300000D03*
X103470000Y-124670000D03*
X111900000Y-127160000D03*
X110960000Y-108160000D03*
X105560000Y-120770000D03*
X112510000Y-112550000D03*
X113000000Y-117070000D03*
X102720000Y-114400000D03*
X102480000Y-108490000D03*
X101880000Y-108490000D03*
X101710000Y-115120000D03*
G04 #@! TO.N,+1V2*
X112880000Y-114820000D03*
X104280000Y-119990000D03*
X104280000Y-108580000D03*
G04 #@! TO.N,VBUS*
X107220000Y-106560000D03*
X109290000Y-104120000D03*
X105950000Y-104120000D03*
G04 #@! TO.N,/~CRESET~*
X110490000Y-113320000D03*
G04 #@! TO.N,/CDONE*
X110370000Y-113910000D03*
G04 #@! TO.N,/\u00D82*
X101660000Y-112700000D03*
G04 #@! TO.N,/ICE_POT_X*
X108520000Y-122940000D03*
G04 #@! TO.N,/ICE_POT_Y*
X109120000Y-122940000D03*
G04 #@! TO.N,/ICE_A5*
X110370000Y-120120000D03*
G04 #@! TO.N,/ICE_A8*
X107530000Y-122940000D03*
G04 #@! TO.N,/ICE_~RES~*
X102780000Y-126160000D03*
X103720000Y-114870000D03*
X101700000Y-122780000D03*
G04 #@! TO.N,/ICE_D4*
X112300000Y-114660000D03*
G04 #@! TO.N,/ICE_D3*
X111820000Y-115020000D03*
G04 #@! TO.N,/ICE_D2*
X112410000Y-118590000D03*
G04 #@! TO.N,/ICE_D1*
X111810000Y-118680000D03*
G04 #@! TO.N,/ICE_D0*
X111670000Y-119270000D03*
G04 #@! TO.N,/ICE_A4*
X104960000Y-120710000D03*
G04 #@! TO.N,/ICE_A3*
X104870000Y-120110000D03*
G04 #@! TO.N,/ICE_\u00D82*
X111080000Y-119410000D03*
G04 #@! TO.N,/ICE_A2*
X102640000Y-118740000D03*
G04 #@! TO.N,/ICE_A1*
X103100000Y-118350000D03*
G04 #@! TO.N,/ICE_A0*
X103210000Y-118950000D03*
G04 #@! TO.N,/ICE_~CS~*
X103810000Y-119050000D03*
G04 #@! TO.N,/ICE_R_~W~*
X101700000Y-121970000D03*
G04 #@! TO.N,/ICE_D7*
X112500000Y-117990000D03*
G04 #@! TO.N,/ICE_D6*
X110960000Y-120000000D03*
G04 #@! TO.N,/ICE_D5*
X111750000Y-114420000D03*
G04 #@! TO.N,+5V*
X103080000Y-108580000D03*
X102790000Y-124180000D03*
X103680000Y-108580000D03*
G04 #@! TO.N,/ICE_~IO1~*
X110020000Y-120610000D03*
G04 #@! TO.N,/SPI_RAM_~CS~*
X103800000Y-127880000D03*
G04 #@! TO.N,/SPI_SIO3*
X104520000Y-114260000D03*
G04 #@! TO.N,/SPI_SIO2*
X104620000Y-113650000D03*
G04 #@! TO.N,/SPI_SIO0*
X106280000Y-112490000D03*
G04 #@! TO.N,/SPI_SIO1*
X105220000Y-113550000D03*
G04 #@! TO.N,/SPI_SCLK*
X111140000Y-125930000D03*
X106580000Y-111890000D03*
G04 #@! TO.N,Net-(C10-Pad2)*
X112290000Y-107690000D03*
X113000000Y-112190000D03*
G04 #@! TO.N,/SPI_FLASH_~CS~*
X106440000Y-123340000D03*
X105540000Y-123340000D03*
X105320000Y-112950000D03*
G04 #@! TO.N,Net-(C9-Pad2)*
X112290000Y-106990000D03*
X111940000Y-113120000D03*
G04 #@! TO.N,/I2C_SCL_~LED~*
X113040000Y-125860000D03*
X110960000Y-113760000D03*
X109870000Y-113080000D03*
G04 #@! TO.N,/I2C_SDA_~BTN~*
X113040000Y-126560000D03*
X109510000Y-112600000D03*
G04 #@! TO.N,VCC*
X102010000Y-106520000D03*
X102610000Y-106520000D03*
G04 #@! TD*
D16*
G04 #@! TO.N,GND*
X107620000Y-126095000D02*
X107620000Y-125250000D01*
X107620000Y-125250000D02*
X108680000Y-124190000D01*
X104990000Y-127915000D02*
X104920000Y-127845000D01*
X103170000Y-113950000D02*
X103172548Y-113950000D01*
X108630000Y-106840000D02*
X108930000Y-107140000D01*
X108630000Y-106610000D02*
X108630000Y-106840000D01*
X110870000Y-105415000D02*
X110870000Y-105850000D01*
X110870000Y-105850000D02*
X111600000Y-106580000D01*
X111600000Y-106580000D02*
X111600000Y-107690000D01*
D17*
X105410000Y-106680000D02*
X105020000Y-107070000D01*
X105410000Y-106530000D02*
X105410000Y-106680000D01*
X105055000Y-109645000D02*
X105380000Y-109320000D01*
X104905000Y-109645000D02*
X105055000Y-109645000D01*
X102755000Y-109645000D02*
X103080000Y-109320000D01*
X102605000Y-109645000D02*
X102755000Y-109645000D01*
D18*
X105830000Y-108070000D02*
X105930000Y-108170000D01*
X105830000Y-107660000D02*
X105830000Y-108070000D01*
D16*
X112540000Y-125260000D02*
X112540000Y-124790000D01*
D17*
X104370000Y-105800000D02*
X103100000Y-107070000D01*
X104370000Y-105415000D02*
X104370000Y-105800000D01*
X103300000Y-104500000D02*
X104000000Y-104500000D01*
X104370000Y-104870000D02*
X104370000Y-105415000D01*
X104000000Y-104500000D02*
X104370000Y-104870000D01*
X111940000Y-104500000D02*
X111240000Y-104500000D01*
X110870000Y-104870000D02*
X110870000Y-105415000D01*
X111240000Y-104500000D02*
X110870000Y-104870000D01*
X104325000Y-109645000D02*
X104230000Y-109740000D01*
X104905000Y-109645000D02*
X104325000Y-109645000D01*
X102025000Y-109645000D02*
X101930000Y-109740000D01*
X102605000Y-109645000D02*
X102025000Y-109645000D01*
D16*
X101710000Y-116062548D02*
X101710000Y-115720000D01*
X101973726Y-116326274D02*
X101710000Y-116062548D01*
X104990000Y-129110000D02*
X104990000Y-127915000D01*
X112540000Y-127160000D02*
X112540000Y-127630000D01*
X112577500Y-127197500D02*
X112540000Y-127160000D01*
X113310000Y-127197500D02*
X112577500Y-127197500D01*
X103433726Y-114213726D02*
X103170000Y-113950000D01*
X103576274Y-114213726D02*
X103433726Y-114213726D01*
D17*
X107280000Y-107740000D02*
X107280000Y-108415000D01*
D16*
X113180000Y-119190000D02*
X112520000Y-119190000D01*
X112290000Y-119420000D02*
X112290000Y-119945000D01*
X112520000Y-119190000D02*
X112290000Y-119420000D01*
X113520000Y-116190000D02*
X113520000Y-115710000D01*
X113520000Y-114350000D02*
X113520000Y-113650000D01*
X102260000Y-119210000D02*
X102060000Y-119410000D01*
X102060000Y-119592548D02*
X102373726Y-119906274D01*
X102060000Y-119410000D02*
X102060000Y-119592548D01*
X102863726Y-120443726D02*
X103363726Y-120943726D01*
X102863726Y-120406274D02*
X102863726Y-120443726D01*
X102373726Y-119916274D02*
X102863726Y-120406274D01*
X102373726Y-119906274D02*
X102373726Y-119916274D01*
X113520000Y-114350000D02*
X113520000Y-114820000D01*
X113520000Y-112490000D02*
X113520000Y-112950000D01*
X113430000Y-109090000D02*
X113430000Y-109560000D01*
D18*
G04 #@! TO.N,+3V3*
X103950000Y-124670000D02*
X103950000Y-125440000D01*
D16*
X105587767Y-120810000D02*
X106073204Y-120324563D01*
X112809087Y-115710000D02*
X111995223Y-116523864D01*
X112870000Y-115710000D02*
X112809087Y-115710000D01*
X112510000Y-112549391D02*
X112024924Y-112064315D01*
X112510000Y-112550000D02*
X112510000Y-112549391D01*
X111910000Y-124800000D02*
X111900000Y-124790000D01*
X102720000Y-114400000D02*
X102720000Y-114402548D01*
X110960000Y-108160000D02*
X110960000Y-107690000D01*
X110257157Y-109730862D02*
X109830000Y-109303705D01*
X109830000Y-108140000D02*
X110030000Y-107940000D01*
X109830000Y-109303705D02*
X109830000Y-108140000D01*
D17*
X102035000Y-108995000D02*
X101930000Y-109100000D01*
X102605000Y-108995000D02*
X102035000Y-108995000D01*
D18*
X103470000Y-124670000D02*
X103950000Y-124670000D01*
D16*
X111900000Y-128330000D02*
X111900000Y-124090000D01*
X111085000Y-124790000D02*
X110320000Y-124025000D01*
X111900000Y-124790000D02*
X111085000Y-124790000D01*
D17*
X102480000Y-108490000D02*
X101880000Y-108490000D01*
X101930000Y-108540000D02*
X101880000Y-108490000D01*
X101930000Y-109100000D02*
X101930000Y-108540000D01*
D16*
X105093726Y-111926274D02*
X104720000Y-112300000D01*
X105093726Y-111886274D02*
X105093726Y-111926274D01*
X102986274Y-114666274D02*
X102720000Y-114400000D01*
X103123726Y-114666274D02*
X102986274Y-114666274D01*
X103123726Y-114988599D02*
X103951884Y-115816757D01*
X103123726Y-114666274D02*
X103123726Y-114988599D01*
X102684639Y-115963726D02*
X103244777Y-116523864D01*
X102336274Y-115963726D02*
X102684639Y-115963726D01*
X102336274Y-115643272D02*
X102336274Y-115963726D01*
X101813002Y-115120000D02*
X102336274Y-115643272D01*
X101710000Y-115120000D02*
X101813002Y-115120000D01*
D17*
X102140000Y-131750000D02*
X103810000Y-131750000D01*
X103810000Y-131750000D02*
X105080000Y-133020000D01*
X113020000Y-129210000D02*
X114720000Y-129210000D01*
D16*
X104065183Y-121655183D02*
X103816274Y-121406274D01*
X103816274Y-121406274D02*
X103816274Y-121396274D01*
X104717819Y-121655183D02*
X104065183Y-121655183D01*
X105553002Y-120820000D02*
X104717819Y-121655183D01*
X105550000Y-120820000D02*
X105553002Y-120820000D01*
D18*
X110030000Y-107940000D02*
X110030000Y-107140000D01*
D16*
X110030000Y-107940000D02*
X110400000Y-107940000D01*
X110650000Y-107690000D02*
X110960000Y-107690000D01*
X110400000Y-107940000D02*
X110650000Y-107690000D01*
X113000000Y-115830000D02*
X112880000Y-115710000D01*
X113000000Y-117070000D02*
X113000000Y-115830000D01*
X112880000Y-112920000D02*
X112510000Y-112550000D01*
X112880000Y-112950000D02*
X112880000Y-112920000D01*
G04 #@! TO.N,+1V2*
X105006097Y-119263903D02*
X104280000Y-119990000D01*
X105012544Y-119263903D02*
X105006097Y-119263903D01*
D18*
X103555000Y-109645000D02*
X103950000Y-109250000D01*
X104080000Y-109250000D02*
X104230000Y-109100000D01*
X103950000Y-109250000D02*
X104080000Y-109250000D01*
D17*
X104335000Y-108995000D02*
X104230000Y-109100000D01*
X104905000Y-108995000D02*
X104335000Y-108995000D01*
D16*
X104376371Y-120086371D02*
X104280000Y-119990000D01*
X104376371Y-120846177D02*
X104376371Y-120086371D01*
X104316274Y-120906274D02*
X104376371Y-120846177D01*
D17*
X104230000Y-108630000D02*
X104280000Y-108580000D01*
X104230000Y-109100000D02*
X104230000Y-108630000D01*
D16*
X110580000Y-115110000D02*
X111236593Y-114453407D01*
X111236593Y-114453407D02*
X111236593Y-114206593D01*
X111733186Y-113710000D02*
X111236593Y-114206593D01*
X110540000Y-112636998D02*
X110540000Y-112630000D01*
X111613002Y-113710000D02*
X110540000Y-112636998D01*
X111733186Y-113710000D02*
X111613002Y-113710000D01*
X112880000Y-113650000D02*
X112880000Y-114350000D01*
X112880000Y-114350000D02*
X112880000Y-114820000D01*
X112820000Y-113710000D02*
X112880000Y-113650000D01*
X111733186Y-113710000D02*
X112820000Y-113710000D01*
D17*
G04 #@! TO.N,VBUS*
X104114992Y-107040000D02*
X104060000Y-107040000D01*
X105170000Y-105984992D02*
X104114992Y-107040000D01*
X105170000Y-105415000D02*
X105170000Y-105984992D01*
X105170000Y-104895008D02*
X105950028Y-104114980D01*
X105170000Y-105415000D02*
X105170000Y-104895008D01*
X110070000Y-104895008D02*
X110070000Y-105415000D01*
X109289972Y-104114980D02*
X110070000Y-104895008D01*
X105950028Y-104114980D02*
X109289972Y-104114980D01*
X107220000Y-106560000D02*
X107280000Y-106620000D01*
X107280000Y-107065000D02*
X107280000Y-106620000D01*
D18*
G04 #@! TO.N,/EXT_IN*
X114185019Y-106134981D02*
X115240000Y-105080000D01*
X114185019Y-108034981D02*
X114185019Y-106134981D01*
X113830000Y-108390000D02*
X114185019Y-108034981D01*
X113430000Y-108390000D02*
X113830000Y-108390000D01*
G04 #@! TO.N,/AUDIO_OUT_2*
X113420000Y-106980000D02*
X113430000Y-106990000D01*
X113430000Y-101810000D02*
X115240000Y-100000000D01*
X113430000Y-106990000D02*
X113430000Y-101810000D01*
G04 #@! TO.N,/AUDIO_OUT*
X113885010Y-103894990D02*
X115240000Y-102540000D01*
X113885010Y-107234990D02*
X113885010Y-103894990D01*
X113430000Y-107690000D02*
X113885010Y-107234990D01*
G04 #@! TO.N,/~CRESET~*
X110293998Y-113320000D02*
X110490000Y-113320000D01*
X109565008Y-114048990D02*
X110293998Y-113320000D01*
X109520349Y-114048990D02*
X109565008Y-114048990D01*
G04 #@! TO.N,/CDONE*
X109877456Y-114402544D02*
X110370000Y-113910000D01*
X109873903Y-114402544D02*
X109877456Y-114402544D01*
D16*
X112540000Y-128330000D02*
X112540000Y-128790000D01*
X112540000Y-128790000D02*
X111430000Y-129900000D01*
X111430000Y-131750000D02*
X112700000Y-133020000D01*
X111430000Y-129900000D02*
X111430000Y-131750000D01*
X112540000Y-128330000D02*
X113100000Y-128330000D01*
X113310000Y-128120000D02*
X113310000Y-127722500D01*
X113100000Y-128330000D02*
X113310000Y-128120000D01*
D18*
G04 #@! TO.N,/\u00D82*
X100000000Y-112700000D02*
X101660000Y-112700000D01*
G04 #@! TO.N,/ICE_POT_X*
X109240000Y-121104873D02*
X108813243Y-120678116D01*
X109240000Y-121654278D02*
X109240000Y-121104873D01*
X108520000Y-122374278D02*
X109240000Y-121654278D01*
X108520000Y-122940000D02*
X108520000Y-122374278D01*
G04 #@! TO.N,/ICE_POT_Y*
X109120000Y-122940000D02*
X109120000Y-122198556D01*
X109166796Y-120324563D02*
X109560000Y-120717767D01*
X109560000Y-121758556D02*
X109120000Y-122198556D01*
X109560000Y-120717767D02*
X109560000Y-121758556D01*
G04 #@! TO.N,/ICE_A5*
X110370000Y-120113553D02*
X109873903Y-119617456D01*
X110370000Y-120120000D02*
X110370000Y-120113553D01*
G04 #@! TO.N,/ICE_A8*
X108880000Y-121451981D02*
X108880000Y-121590000D01*
X108880000Y-121590000D02*
X107530000Y-122940000D01*
X108459689Y-121031670D02*
X108880000Y-121451981D01*
G04 #@! TO.N,/ICE_~RES~*
X104305437Y-115463204D02*
X104303204Y-115463204D01*
X103720000Y-114877767D02*
X104305437Y-115463204D01*
X103720000Y-114870000D02*
X103720000Y-114877767D01*
X101700000Y-125080000D02*
X101700000Y-122780000D01*
X102780000Y-126160000D02*
X101700000Y-125080000D01*
G04 #@! TO.N,/ICE_D4*
X112330000Y-115481981D02*
X112330000Y-114660000D01*
X111641670Y-116170311D02*
X112330000Y-115481981D01*
G04 #@! TO.N,/ICE_D3*
X111820000Y-115284873D02*
X111820000Y-115020000D01*
X111288116Y-115816757D02*
X111820000Y-115284873D01*
G04 #@! TO.N,/ICE_D2*
X112380000Y-118588019D02*
X111641670Y-117849689D01*
X112380000Y-118590000D02*
X112380000Y-118588019D01*
G04 #@! TO.N,/ICE_D1*
X111784873Y-118700000D02*
X111288116Y-118203243D01*
X111790000Y-118700000D02*
X111784873Y-118700000D01*
G04 #@! TO.N,/ICE_D0*
X111667767Y-119290000D02*
X110934563Y-118556796D01*
X111670000Y-119290000D02*
X111667767Y-119290000D01*
G04 #@! TO.N,/ICE_A4*
X104980661Y-120710000D02*
X105719651Y-119971010D01*
X104960000Y-120710000D02*
X104980661Y-120710000D01*
G04 #@! TO.N,/ICE_A3*
X105362544Y-119617456D02*
X104870000Y-120110000D01*
X105366097Y-119617456D02*
X105362544Y-119617456D01*
G04 #@! TO.N,/ICE_\u00D82*
X111080000Y-119409339D02*
X110581010Y-118910349D01*
X111080000Y-119410000D02*
X111080000Y-119409339D01*
G04 #@! TO.N,/ICE_A2*
X103718355Y-121980193D02*
X101659999Y-119921837D01*
X105124680Y-121980193D02*
X103718355Y-121980193D01*
X106426757Y-120678116D02*
X105124680Y-121980193D01*
X102063998Y-118740000D02*
X102640000Y-118740000D01*
X101659999Y-119143999D02*
X102063998Y-118740000D01*
X101659999Y-119921837D02*
X101659999Y-119143999D01*
G04 #@! TO.N,/ICE_A1*
X103598330Y-117849689D02*
X103598330Y-117851670D01*
X103598330Y-117851670D02*
X103140000Y-118310000D01*
G04 #@! TO.N,/ICE_A0*
X103210000Y-118945127D02*
X103951884Y-118203243D01*
X103210000Y-118950000D02*
X103210000Y-118945127D01*
G04 #@! TO.N,/ICE_~CS~*
X104303204Y-118556796D02*
X103850000Y-119010000D01*
X104305437Y-118556796D02*
X104303204Y-118556796D01*
G04 #@! TO.N,/ICE_R_~W~*
X107133864Y-121385223D02*
X105938875Y-122580212D01*
X102310212Y-122580212D02*
X101700000Y-121970000D01*
X105938875Y-122580212D02*
X102310212Y-122580212D01*
G04 #@! TO.N,/ICE_D7*
X112490000Y-117990913D02*
X111995223Y-117496136D01*
X112490000Y-118000000D02*
X112490000Y-117990913D01*
G04 #@! TO.N,/ICE_D6*
X110227456Y-119263903D02*
X110227456Y-119267456D01*
X110960000Y-120000000D02*
X110960000Y-119996447D01*
X110960000Y-119996447D02*
X110227456Y-119263903D01*
G04 #@! TO.N,/ICE_D5*
X110934563Y-115463204D02*
X111369999Y-115027768D01*
X111369999Y-114803999D02*
X111753998Y-114420000D01*
X111369999Y-115027768D02*
X111369999Y-114803999D01*
D17*
G04 #@! TO.N,+5V*
X103080000Y-108580000D02*
X103680000Y-108580000D01*
X102910000Y-107840000D02*
X103100000Y-108030000D01*
X102140000Y-107840000D02*
X102910000Y-107840000D01*
X103290000Y-107840000D02*
X103100000Y-108030000D01*
X104060000Y-107840000D02*
X103290000Y-107840000D01*
X104830000Y-107840000D02*
X105020000Y-108030000D01*
X104060000Y-107840000D02*
X104830000Y-107840000D01*
D18*
X105855000Y-109645000D02*
X106030000Y-109470000D01*
X106030000Y-109170000D02*
X105855000Y-108995000D01*
X106030000Y-109470000D02*
X106030000Y-109170000D01*
D17*
X103100000Y-108570000D02*
X103110000Y-108580000D01*
X103555000Y-108705000D02*
X103680000Y-108580000D01*
X103555000Y-108995000D02*
X103555000Y-108705000D01*
X103100000Y-108560000D02*
X103080000Y-108580000D01*
X103100000Y-108030000D02*
X103100000Y-108560000D01*
X105020000Y-108160000D02*
X105855000Y-108995000D01*
X105020000Y-108030000D02*
X105020000Y-108160000D01*
D18*
G04 #@! TO.N,/ICE_~IO1~*
X110019339Y-120470000D02*
X109520349Y-119971010D01*
X110020000Y-120470000D02*
X110019339Y-120470000D01*
G04 #@! TO.N,/SYS_CLK*
X108940636Y-107950636D02*
X108930000Y-107940000D01*
X104069999Y-112308943D02*
X104069999Y-114520660D01*
X105438942Y-110940000D02*
X104069999Y-112308943D01*
X104069999Y-114520660D02*
X104658990Y-115109651D01*
X108930000Y-108970000D02*
X108930000Y-107940000D01*
X109974695Y-110014695D02*
X108930000Y-108970000D01*
X106960000Y-110940000D02*
X105438942Y-110940000D01*
X108930000Y-108970000D02*
X106960000Y-110940000D01*
G04 #@! TO.N,/SPI_RAM_~CS~*
X103950000Y-127730000D02*
X103800000Y-127880000D01*
X103950000Y-126080000D02*
X103950000Y-127730000D01*
X103440000Y-126080000D02*
X103950000Y-126080000D01*
X102250000Y-123860000D02*
X102250000Y-124890000D01*
X103229780Y-122880220D02*
X102250000Y-123860000D01*
X102250000Y-124890000D02*
X103440000Y-126080000D01*
X106611138Y-122880221D02*
X103229780Y-122880220D01*
X108106136Y-121385223D02*
X106611138Y-122880221D01*
G04 #@! TO.N,/I2S_DOUT*
X108703005Y-112205624D02*
X109409010Y-111499619D01*
X108703005Y-112745014D02*
X108703005Y-112205624D01*
X108459689Y-112988330D02*
X108703005Y-112745014D01*
G04 #@! TO.N,/I2S_DIN*
X109701852Y-111802462D02*
X109667538Y-111802462D01*
X109056558Y-113098569D02*
X109056558Y-112413442D01*
X108813243Y-113341884D02*
X109056558Y-113098569D01*
X109056558Y-112413442D02*
X109680000Y-111790000D01*
G04 #@! TO.N,/SPI_SIO3*
X105012544Y-114756097D02*
X105012544Y-114752544D01*
X104520000Y-114263553D02*
X105012544Y-114756097D01*
X104520000Y-114260000D02*
X104520000Y-114263553D01*
X103510000Y-130480000D02*
X102540000Y-130480000D01*
X108204278Y-131900000D02*
X104930000Y-131900000D01*
X110930000Y-128094990D02*
X109040010Y-129984980D01*
X110760000Y-127200000D02*
X110930000Y-127370000D01*
X104930000Y-131900000D02*
X103510000Y-130480000D01*
X109040009Y-131064269D02*
X108204278Y-131900000D01*
X109840000Y-127200000D02*
X110760000Y-127200000D01*
X109640000Y-127000000D02*
X109840000Y-127200000D01*
X109640000Y-125420000D02*
X109640000Y-127000000D01*
X109040010Y-129984980D02*
X109040009Y-131064269D01*
X110930000Y-127370000D02*
X110930000Y-128094990D01*
X109765000Y-125295000D02*
X109640000Y-125420000D01*
X110320000Y-125295000D02*
X109765000Y-125295000D01*
G04 #@! TO.N,/SPI_SIO2*
X104620000Y-113656447D02*
X105366097Y-114402544D01*
X104620000Y-113650000D02*
X104620000Y-113656447D01*
X104345000Y-126575000D02*
X104920000Y-126575000D01*
X104250010Y-128749990D02*
X104250010Y-126669990D01*
X104250010Y-126669990D02*
X104345000Y-126575000D01*
X103820000Y-129180000D02*
X104250010Y-128749990D01*
X101990002Y-129180000D02*
X103820000Y-129180000D01*
X101270000Y-129900002D02*
X101990002Y-129180000D01*
X101270000Y-131750000D02*
X101270000Y-129900002D01*
X102540000Y-133020000D02*
X101270000Y-131750000D01*
G04 #@! TO.N,/SPI_SIO0*
X106281981Y-112490000D02*
X106780311Y-112988330D01*
X106280000Y-112490000D02*
X106281981Y-112490000D01*
X106199991Y-131599991D02*
X105080000Y-130480000D01*
X108740000Y-130940000D02*
X108080009Y-131599991D01*
X108740000Y-129860712D02*
X108740000Y-130940000D01*
X110320000Y-128280712D02*
X108740000Y-129860712D01*
X108080009Y-131599991D02*
X106199991Y-131599991D01*
X110320000Y-127845000D02*
X110320000Y-128280712D01*
G04 #@! TO.N,/SPI_SIO1*
X105600000Y-125420000D02*
X105600000Y-128460000D01*
X105485000Y-125305000D02*
X105600000Y-125420000D01*
X105600000Y-128460000D02*
X107620000Y-130480000D01*
X104920000Y-125305000D02*
X105485000Y-125305000D01*
X105220000Y-113550000D02*
X105220661Y-113550000D01*
X105220661Y-113550000D02*
X105719651Y-114048990D01*
G04 #@! TO.N,/SPI_SCLK*
X106580000Y-111890000D02*
X106080000Y-111890000D01*
X106080000Y-111890000D02*
X106046274Y-111923726D01*
X110505000Y-126565000D02*
X111140000Y-125930000D01*
X110320000Y-126565000D02*
X110505000Y-126565000D01*
X106036274Y-111923726D02*
X105546274Y-111433726D01*
X106046274Y-111923726D02*
X106036274Y-111923726D01*
G04 #@! TO.N,Net-(C7-Pad1)*
X113240000Y-110849238D02*
X112590609Y-111498629D01*
X113240000Y-110010001D02*
X112790000Y-109560001D01*
X113240000Y-110849238D02*
X113240000Y-110010001D01*
X112790000Y-109560001D02*
X112790000Y-109090000D01*
G04 #@! TO.N,Net-(C10-Pad2)*
X112290000Y-107690000D02*
X112790000Y-107690000D01*
X112625685Y-112099999D02*
X112308148Y-111782462D01*
X112909999Y-112099999D02*
X112625685Y-112099999D01*
X113000000Y-112190000D02*
X112909999Y-112099999D01*
G04 #@! TO.N,/SPI_FLASH_~CS~*
X106073204Y-113695437D02*
X106065437Y-113695437D01*
X105030000Y-124080000D02*
X104920000Y-124190000D01*
X104920000Y-124035000D02*
X104920000Y-123590000D01*
X103955000Y-124035000D02*
X103950000Y-124030000D01*
X104920000Y-124035000D02*
X103955000Y-124035000D01*
X105327767Y-112950000D02*
X106073204Y-113695437D01*
X105320000Y-112950000D02*
X105327767Y-112950000D01*
X105540000Y-123340000D02*
X106440000Y-123340000D01*
X105170000Y-123340000D02*
X104920000Y-123590000D01*
X105540000Y-123340000D02*
X105170000Y-123340000D01*
G04 #@! TO.N,/USB_D+*
X101883726Y-117603726D02*
X101260000Y-118227452D01*
X101260000Y-118227452D02*
X101260000Y-120130000D01*
X106780000Y-108564280D02*
X106780000Y-108415000D01*
X107130000Y-109517866D02*
X107130000Y-108914280D01*
X105300000Y-110150000D02*
X106497866Y-110150000D01*
X107130000Y-108914280D02*
X106780000Y-108564280D01*
X101259999Y-114190001D02*
X105300000Y-110150000D01*
X101259999Y-116979999D02*
X101259999Y-114190001D01*
X106497866Y-110150000D02*
X107130000Y-109517866D01*
X101883726Y-117603726D02*
X101259999Y-116979999D01*
X101260000Y-120130000D02*
X101883726Y-120753726D01*
G04 #@! TO.N,/USB_D-*
X107430000Y-108914280D02*
X107780000Y-108564280D01*
X107430000Y-109642134D02*
X107430000Y-108914280D01*
X106622124Y-110450010D02*
X107430000Y-109642134D01*
X105424268Y-110450010D02*
X106622124Y-110450010D01*
X102694723Y-113344480D02*
X102680149Y-113314217D01*
X103528678Y-112366605D02*
X103543252Y-112336342D01*
X102715666Y-113370741D02*
X102694723Y-113344480D01*
X102405103Y-113988577D02*
X102405103Y-113954988D01*
X102786377Y-113441452D02*
X102715666Y-113370741D01*
X102821893Y-113597060D02*
X102829367Y-113564313D01*
X102807319Y-113627323D02*
X102821893Y-113597060D01*
X102270459Y-113609134D02*
X102291403Y-113582874D01*
X103543252Y-112336342D02*
X103564195Y-112310082D01*
X102786377Y-113653585D02*
X102807319Y-113627323D01*
X102663517Y-113696576D02*
X102697106Y-113696576D01*
X102600506Y-113674528D02*
X102630769Y-113689102D01*
X102239253Y-114120840D02*
X102272842Y-114120840D01*
X103104413Y-112790869D02*
X103118987Y-112760606D01*
X102760116Y-113674528D02*
X102786377Y-113653585D01*
X102291403Y-113582875D02*
X102317664Y-113561932D01*
X103670260Y-112204018D02*
X105424268Y-110450010D01*
X101956410Y-113964148D02*
X101989999Y-113964148D01*
X103705616Y-112663635D02*
X103564194Y-112522213D01*
X102383055Y-114051587D02*
X102397629Y-114021324D01*
X103465763Y-113318592D02*
X103458289Y-113285845D01*
X102255885Y-113639397D02*
X102270459Y-113609134D01*
X102248411Y-113672144D02*
X102255885Y-113639397D01*
X103649092Y-112911284D02*
X103679355Y-112896710D01*
X102248411Y-113705733D02*
X102248411Y-113672144D01*
X103267165Y-113476970D02*
X103299913Y-113484444D01*
X102821893Y-113497977D02*
X102807319Y-113467714D01*
X102317664Y-113561932D02*
X102347927Y-113547358D01*
X103333502Y-113484444D02*
X103366249Y-113476970D01*
X102503535Y-113582875D02*
X102574245Y-113653585D01*
X103325801Y-112713404D02*
X103352063Y-112734347D01*
X101800000Y-114074278D02*
X101867139Y-114007139D01*
X102829367Y-113530724D02*
X102821893Y-113497977D01*
X102630769Y-113689102D02*
X102663517Y-113696576D01*
X102362113Y-113865716D02*
X102291402Y-113795005D01*
X103521203Y-112432942D02*
X103521203Y-112399352D01*
X102079271Y-114007139D02*
X102149981Y-114077849D01*
X102807319Y-113467714D02*
X102786377Y-113441452D01*
X102347927Y-113547358D02*
X102380674Y-113539884D01*
X102053009Y-113986196D02*
X102079271Y-114007139D01*
X102680149Y-113314217D02*
X102672675Y-113281469D01*
X102362113Y-114077849D02*
X102383055Y-114051587D01*
X103616345Y-112918759D02*
X103649092Y-112911284D01*
X102022746Y-113971622D02*
X102053009Y-113986196D01*
X102397629Y-114021324D02*
X102405103Y-113988577D01*
X101923663Y-113971622D02*
X101956410Y-113964148D01*
X102697106Y-113696576D02*
X102729853Y-113689102D01*
X102405103Y-113954988D02*
X102397629Y-113922241D01*
X103096939Y-112857205D02*
X103096939Y-112823616D01*
X102447010Y-113547358D02*
X102477273Y-113561932D01*
X102176242Y-114098792D02*
X102206505Y-114113366D01*
X102149981Y-114077849D02*
X102176242Y-114098792D01*
X103564194Y-112522213D02*
X103543252Y-112495952D01*
X102741928Y-113137668D02*
X102772191Y-113123094D01*
X101989999Y-113964148D02*
X102022746Y-113971622D01*
X102270459Y-113768744D02*
X102255885Y-113738481D01*
X102477273Y-113561932D02*
X102503535Y-113582875D01*
X101800000Y-114380000D02*
X101800000Y-114074278D01*
X102804938Y-113115620D02*
X102838527Y-113115620D01*
X102305589Y-114113366D02*
X102335852Y-114098792D01*
X103096939Y-112823616D02*
X103104413Y-112790869D01*
X102829367Y-113564313D02*
X102829367Y-113530724D01*
X103550008Y-112911284D02*
X103582755Y-112918759D01*
X102335852Y-114098792D02*
X102362113Y-114077849D01*
X102715667Y-113158610D02*
X102715667Y-113158611D01*
X102206505Y-114113366D02*
X102239253Y-114120840D01*
X102901537Y-113137668D02*
X102927799Y-113158611D01*
X102729853Y-113689102D02*
X102760116Y-113674528D01*
X101867139Y-114007139D02*
X101893400Y-113986196D01*
X102291402Y-113795005D02*
X102270459Y-113768744D01*
X103262791Y-112691356D02*
X103295538Y-112698830D01*
X102383055Y-113891978D02*
X102362113Y-113865716D01*
X102672675Y-113281469D02*
X102672675Y-113247880D01*
X102414263Y-113539884D02*
X102447010Y-113547358D01*
X102672675Y-113247880D02*
X102680149Y-113215133D01*
X102680149Y-113215133D02*
X102694723Y-113184870D01*
X102694723Y-113184870D02*
X102715667Y-113158610D01*
X102715667Y-113158611D02*
X102741928Y-113137668D01*
X102772191Y-113123094D02*
X102804938Y-113115620D01*
X102838527Y-113115620D02*
X102871274Y-113123094D01*
X102383726Y-114963726D02*
X101800000Y-114380000D01*
X102871274Y-113123094D02*
X102901537Y-113137668D01*
X102927799Y-113158611D02*
X103210641Y-113441453D01*
X103210641Y-113441453D02*
X103236902Y-113462396D01*
X103236902Y-113462396D02*
X103267165Y-113476970D01*
X103299913Y-113484444D02*
X103333502Y-113484444D01*
X103366249Y-113476970D02*
X103396512Y-113462396D01*
X102291403Y-113582874D02*
X102291403Y-113582875D01*
X103396512Y-113462396D02*
X103422773Y-113441453D01*
X103422773Y-113441453D02*
X103443715Y-113415191D01*
X103443715Y-113415191D02*
X103458289Y-113384928D01*
X103458289Y-113384928D02*
X103465763Y-113352181D01*
X103465763Y-113352181D02*
X103465763Y-113318592D01*
X103458289Y-113285845D02*
X103443715Y-113255582D01*
X103443715Y-113255582D02*
X103422773Y-113229320D01*
X103422773Y-113229320D02*
X103139930Y-112946477D01*
X103139930Y-112946477D02*
X103118987Y-112920216D01*
X103118987Y-112920216D02*
X103104413Y-112889953D01*
X102272842Y-114120840D02*
X102305589Y-114113366D01*
X103104413Y-112889953D02*
X103096939Y-112857205D01*
X103118987Y-112760606D02*
X103139931Y-112734346D01*
X103139931Y-112734346D02*
X103139931Y-112734347D01*
X103139931Y-112734347D02*
X103166192Y-112713404D01*
X102255885Y-113738481D02*
X102248411Y-113705733D01*
X103166192Y-112713404D02*
X103196455Y-112698830D01*
X102574245Y-113653585D02*
X102600506Y-113674528D01*
X103196455Y-112698830D02*
X103229202Y-112691356D01*
X103229202Y-112691356D02*
X103262791Y-112691356D01*
X103295538Y-112698830D02*
X103325801Y-112713404D01*
X103352063Y-112734347D02*
X103493484Y-112875768D01*
X103493484Y-112875768D02*
X103519745Y-112896710D01*
X103519745Y-112896710D02*
X103550008Y-112911284D01*
X103582755Y-112918759D02*
X103616345Y-112918759D01*
X103679355Y-112896710D02*
X103705616Y-112875768D01*
X103705616Y-112875768D02*
X103726558Y-112849506D01*
X103726558Y-112849506D02*
X103741132Y-112819243D01*
X103741132Y-112819243D02*
X103748606Y-112786496D01*
X103748606Y-112786496D02*
X103748606Y-112752907D01*
X102397629Y-113922241D02*
X102383055Y-113891978D01*
X103748606Y-112752907D02*
X103741132Y-112720160D01*
X102380674Y-113539884D02*
X102414263Y-113539884D01*
X103741132Y-112720160D02*
X103726558Y-112689897D01*
X101893400Y-113986196D02*
X101923663Y-113971622D01*
X103726558Y-112689897D02*
X103705616Y-112663635D01*
X103543252Y-112495952D02*
X103528678Y-112465689D01*
X107780000Y-108564280D02*
X107780000Y-108415000D01*
X103528678Y-112465689D02*
X103521203Y-112432942D01*
X103521203Y-112399352D02*
X103528678Y-112366605D01*
X103564195Y-112310082D02*
X103670260Y-112204018D01*
G04 #@! TO.N,Net-(C8-Pad1)*
X112790000Y-108390000D02*
X112790000Y-108410000D01*
X111742081Y-109730862D02*
X112170000Y-109302943D01*
X112170000Y-109302943D02*
X112170000Y-108610000D01*
X112390000Y-108390000D02*
X112790000Y-108390000D01*
X112170000Y-108610000D02*
X112390000Y-108390000D01*
G04 #@! TO.N,Net-(C9-Pad2)*
X112290000Y-106990000D02*
X112790000Y-106990000D01*
X111940000Y-113110762D02*
X111459238Y-112630000D01*
X111940000Y-113120000D02*
X111940000Y-113110762D01*
G04 #@! TO.N,/D-*
X108370000Y-106064280D02*
X108370000Y-105415000D01*
X108069270Y-106365010D02*
X108370000Y-106064280D01*
X107370000Y-106064280D02*
X107670730Y-106365010D01*
X107370000Y-105415000D02*
X107370000Y-106064280D01*
X107780000Y-106370020D02*
X107774990Y-106365010D01*
X107780000Y-107065000D02*
X107780000Y-106370020D01*
X107774990Y-106365010D02*
X108069270Y-106365010D01*
X107670730Y-106365010D02*
X107774990Y-106365010D01*
G04 #@! TO.N,/D+*
X107870000Y-104765720D02*
X107870000Y-105415000D01*
X107569270Y-104464990D02*
X107870000Y-104765720D01*
X107170730Y-104464990D02*
X107569270Y-104464990D01*
X106870000Y-104765720D02*
X107170730Y-104464990D01*
X106870000Y-105415000D02*
X106870000Y-104765720D01*
X106769999Y-106343999D02*
X106769999Y-107054999D01*
X106870000Y-105415000D02*
X106870000Y-106243998D01*
X106769999Y-107054999D02*
X106780000Y-107065000D01*
X106870000Y-106243998D02*
X106769999Y-106343999D01*
G04 #@! TO.N,Net-(J5-PadB5)*
X105870000Y-107000000D02*
X105840000Y-107030000D01*
X105870000Y-106980000D02*
X105830000Y-107020000D01*
X105870000Y-105415000D02*
X105870000Y-106980000D01*
G04 #@! TO.N,Net-(J5-PadA5)*
X108870000Y-106064280D02*
X108870000Y-105415000D01*
X109170730Y-106365010D02*
X108870000Y-106064280D01*
X110715010Y-106365010D02*
X109170730Y-106365010D01*
X110960000Y-106610000D02*
X110715010Y-106365010D01*
X110960000Y-106990000D02*
X110960000Y-106610000D01*
G04 #@! TO.N,/I2S_LRCLK*
X109691852Y-110297538D02*
X109691852Y-110301852D01*
X109691852Y-110301852D02*
X109260000Y-109870000D01*
X109260000Y-109870000D02*
X108930000Y-109870000D01*
X108930000Y-109870000D02*
X107780000Y-111020000D01*
X107780000Y-111988641D02*
X107133864Y-112634777D01*
X107780000Y-111020000D02*
X107780000Y-111988641D01*
G04 #@! TO.N,/I2S_SCLK*
X108106136Y-112634777D02*
X108145223Y-112634777D01*
X108106136Y-112634777D02*
X108360000Y-112380913D01*
X108360000Y-111629391D02*
X109409010Y-110580381D01*
X108360000Y-112380913D02*
X108360000Y-111629391D01*
D16*
G04 #@! TO.N,Net-(D4-Pad2)*
X113310000Y-124697500D02*
X113310000Y-124360000D01*
X113040000Y-124090000D02*
X112540000Y-124090000D01*
X113310000Y-124360000D02*
X113040000Y-124090000D01*
D18*
G04 #@! TO.N,/I2C_SCL_~LED~*
X109960001Y-112989999D02*
X109870000Y-113080000D01*
X109960001Y-112675685D02*
X109960001Y-112989999D01*
X110267538Y-112368148D02*
X109960001Y-112675685D01*
X110960000Y-114023553D02*
X110960000Y-113760000D01*
X110227456Y-114756097D02*
X110960000Y-114023553D01*
D16*
X113040000Y-125860000D02*
X112540000Y-125860000D01*
X113310000Y-125590000D02*
X113040000Y-125860000D01*
X113310000Y-125222500D02*
X113310000Y-125590000D01*
D18*
G04 #@! TO.N,/I2C_SDA_~BTN~*
X109419999Y-112690001D02*
X109510000Y-112600000D01*
X109419999Y-113442234D02*
X109419999Y-112690001D01*
X109166796Y-113695437D02*
X109419999Y-113442234D01*
X109510000Y-112600000D02*
X109510000Y-112530000D01*
X109510000Y-112530000D02*
X109970000Y-112070000D01*
D16*
X113040000Y-126560000D02*
X112540000Y-126560000D01*
X113305000Y-123195000D02*
X112290000Y-123195000D01*
X113760010Y-123650010D02*
X113305000Y-123195000D01*
X113760010Y-125839990D02*
X113760010Y-123650010D01*
X113040000Y-126560000D02*
X113760010Y-125839990D01*
D18*
G04 #@! TO.N,Net-(R12-Pad1)*
X102684639Y-118056274D02*
X103244777Y-117496136D01*
X102336274Y-118056274D02*
X102684639Y-118056274D01*
D17*
G04 #@! TO.N,VCC*
X102140000Y-107040000D02*
X102140000Y-106990000D01*
X102140000Y-106650000D02*
X102010000Y-106520000D01*
X102140000Y-107040000D02*
X102140000Y-106650000D01*
X102010000Y-106520000D02*
X102610000Y-106520000D01*
D18*
G04 #@! TO.N,Net-(R13-Pad1)*
X103495769Y-116067750D02*
X103598330Y-116170311D01*
X102844293Y-115416274D02*
X103598330Y-116170311D01*
X102836274Y-115416274D02*
X102844293Y-115416274D01*
G04 #@! TO.N,Net-(R14-Pad1)*
X105622864Y-112537991D02*
X105622864Y-112405412D01*
X106426757Y-113341884D02*
X105622864Y-112537991D01*
G04 #@! TO.N,/USB_CONN*
X103410203Y-122280203D02*
X102336274Y-121206274D01*
X105531778Y-122280203D02*
X103410203Y-122280203D01*
X106780311Y-121031670D02*
X105531778Y-122280203D01*
D16*
G04 #@! TO.N,Net-(C18-Pad1)*
X104044338Y-119525001D02*
X104658990Y-118910349D01*
X103581999Y-119525001D02*
X104044338Y-119525001D01*
X103481999Y-119425001D02*
X103581999Y-119525001D01*
X102854999Y-119425001D02*
X103481999Y-119425001D01*
X102826274Y-119453726D02*
X102854999Y-119425001D01*
X102826274Y-119453726D02*
X102826274Y-119586274D01*
X103193726Y-119953726D02*
X103316274Y-119953726D01*
X102826274Y-119586274D02*
X103193726Y-119953726D01*
X103363726Y-119953726D02*
X103863726Y-120453726D01*
X103316274Y-119953726D02*
X103363726Y-119953726D01*
G04 #@! TD*
G04 #@! TO.N,GND*
X101428549Y-109230000D02*
X101436263Y-109308319D01*
X101459108Y-109383629D01*
X101496206Y-109453034D01*
X101546131Y-109513869D01*
X101606966Y-109563794D01*
X101676371Y-109600892D01*
X101751681Y-109623737D01*
X101830000Y-109631451D01*
X102030000Y-109631451D01*
X102108319Y-109623737D01*
X102183629Y-109600892D01*
X102253034Y-109563794D01*
X102313869Y-109513869D01*
X102363794Y-109453034D01*
X102381451Y-109420000D01*
X102465257Y-109420000D01*
X102480000Y-109421452D01*
X102680000Y-109421452D01*
X102738810Y-109415660D01*
X102795361Y-109398505D01*
X102847478Y-109370648D01*
X102893159Y-109333159D01*
X103043159Y-109183159D01*
X103080000Y-109138268D01*
X103116841Y-109183159D01*
X103253682Y-109320000D01*
X103116841Y-109456841D01*
X103079352Y-109502522D01*
X103051495Y-109554639D01*
X103034340Y-109611190D01*
X103028548Y-109670000D01*
X103028548Y-109770000D01*
X103034340Y-109828810D01*
X103051495Y-109885361D01*
X103079352Y-109937478D01*
X103116841Y-109983159D01*
X103162522Y-110020648D01*
X103214639Y-110048505D01*
X103271190Y-110065660D01*
X103330000Y-110071452D01*
X103680000Y-110071452D01*
X103738810Y-110065660D01*
X103795361Y-110048505D01*
X103847478Y-110020648D01*
X103893159Y-109983159D01*
X103930648Y-109937478D01*
X103958505Y-109885361D01*
X103975660Y-109828810D01*
X103981452Y-109770000D01*
X103981452Y-109748877D01*
X104101669Y-109628661D01*
X104130000Y-109631451D01*
X104330000Y-109631451D01*
X104408319Y-109623737D01*
X104483629Y-109600892D01*
X104553034Y-109563794D01*
X104613869Y-109513869D01*
X104663794Y-109453034D01*
X104681451Y-109420000D01*
X104765257Y-109420000D01*
X104780000Y-109421452D01*
X104980000Y-109421452D01*
X105038810Y-109415660D01*
X105095361Y-109398505D01*
X105147478Y-109370648D01*
X105193159Y-109333159D01*
X105343159Y-109183159D01*
X105380000Y-109138268D01*
X105416841Y-109183159D01*
X105553682Y-109320000D01*
X105416841Y-109456841D01*
X105379352Y-109502522D01*
X105351495Y-109554639D01*
X105334340Y-109611190D01*
X105328548Y-109670000D01*
X105328548Y-109770000D01*
X105329040Y-109775000D01*
X105318415Y-109775000D01*
X105299999Y-109773186D01*
X105281583Y-109775000D01*
X105281581Y-109775000D01*
X105226487Y-109780426D01*
X105155800Y-109801869D01*
X105090653Y-109836691D01*
X105033552Y-109883552D01*
X105021810Y-109897860D01*
X102857808Y-112061863D01*
X102854824Y-112046863D01*
X102815249Y-111951319D01*
X102757794Y-111865332D01*
X102684668Y-111792206D01*
X102598681Y-111734751D01*
X102503137Y-111695176D01*
X102401708Y-111675000D01*
X102298292Y-111675000D01*
X102196863Y-111695176D01*
X102101319Y-111734751D01*
X102015332Y-111792206D01*
X101942206Y-111865332D01*
X101884751Y-111951319D01*
X101845176Y-112046863D01*
X101825000Y-112148292D01*
X101825000Y-112200090D01*
X101813137Y-112195176D01*
X101711708Y-112175000D01*
X101608292Y-112175000D01*
X101506863Y-112195176D01*
X101411319Y-112234751D01*
X101325332Y-112292206D01*
X101292538Y-112325000D01*
X101035301Y-112325000D01*
X100974807Y-112178955D01*
X100854425Y-111998791D01*
X100701209Y-111845575D01*
X100521045Y-111725193D01*
X100320858Y-111642273D01*
X100108341Y-111600000D01*
X99891659Y-111600000D01*
X99679142Y-111642273D01*
X99478955Y-111725193D01*
X99298791Y-111845575D01*
X99280000Y-111864366D01*
X99280000Y-110995634D01*
X99298791Y-111014425D01*
X99478955Y-111134807D01*
X99679142Y-111217727D01*
X99891659Y-111260000D01*
X100108341Y-111260000D01*
X100320858Y-111217727D01*
X100521045Y-111134807D01*
X100701209Y-111014425D01*
X100854425Y-110861209D01*
X100974807Y-110681045D01*
X101057727Y-110480858D01*
X101100000Y-110268341D01*
X101100000Y-110051659D01*
X101057727Y-109839142D01*
X100974807Y-109638955D01*
X100854425Y-109458791D01*
X100701209Y-109305575D01*
X100521045Y-109185193D01*
X100320858Y-109102273D01*
X100108341Y-109060000D01*
X99891659Y-109060000D01*
X99679142Y-109102273D01*
X99478955Y-109185193D01*
X99298791Y-109305575D01*
X99280000Y-109324366D01*
X99280000Y-108990000D01*
X101428549Y-108990000D01*
X101428549Y-109230000D01*
G04 #@! TA.AperFunction,Conductor*
D19*
G36*
X101428549Y-109230000D02*
G01*
X101436263Y-109308319D01*
X101459108Y-109383629D01*
X101496206Y-109453034D01*
X101546131Y-109513869D01*
X101606966Y-109563794D01*
X101676371Y-109600892D01*
X101751681Y-109623737D01*
X101830000Y-109631451D01*
X102030000Y-109631451D01*
X102108319Y-109623737D01*
X102183629Y-109600892D01*
X102253034Y-109563794D01*
X102313869Y-109513869D01*
X102363794Y-109453034D01*
X102381451Y-109420000D01*
X102465257Y-109420000D01*
X102480000Y-109421452D01*
X102680000Y-109421452D01*
X102738810Y-109415660D01*
X102795361Y-109398505D01*
X102847478Y-109370648D01*
X102893159Y-109333159D01*
X103043159Y-109183159D01*
X103080000Y-109138268D01*
X103116841Y-109183159D01*
X103253682Y-109320000D01*
X103116841Y-109456841D01*
X103079352Y-109502522D01*
X103051495Y-109554639D01*
X103034340Y-109611190D01*
X103028548Y-109670000D01*
X103028548Y-109770000D01*
X103034340Y-109828810D01*
X103051495Y-109885361D01*
X103079352Y-109937478D01*
X103116841Y-109983159D01*
X103162522Y-110020648D01*
X103214639Y-110048505D01*
X103271190Y-110065660D01*
X103330000Y-110071452D01*
X103680000Y-110071452D01*
X103738810Y-110065660D01*
X103795361Y-110048505D01*
X103847478Y-110020648D01*
X103893159Y-109983159D01*
X103930648Y-109937478D01*
X103958505Y-109885361D01*
X103975660Y-109828810D01*
X103981452Y-109770000D01*
X103981452Y-109748877D01*
X104101669Y-109628661D01*
X104130000Y-109631451D01*
X104330000Y-109631451D01*
X104408319Y-109623737D01*
X104483629Y-109600892D01*
X104553034Y-109563794D01*
X104613869Y-109513869D01*
X104663794Y-109453034D01*
X104681451Y-109420000D01*
X104765257Y-109420000D01*
X104780000Y-109421452D01*
X104980000Y-109421452D01*
X105038810Y-109415660D01*
X105095361Y-109398505D01*
X105147478Y-109370648D01*
X105193159Y-109333159D01*
X105343159Y-109183159D01*
X105380000Y-109138268D01*
X105416841Y-109183159D01*
X105553682Y-109320000D01*
X105416841Y-109456841D01*
X105379352Y-109502522D01*
X105351495Y-109554639D01*
X105334340Y-109611190D01*
X105328548Y-109670000D01*
X105328548Y-109770000D01*
X105329040Y-109775000D01*
X105318415Y-109775000D01*
X105299999Y-109773186D01*
X105281583Y-109775000D01*
X105281581Y-109775000D01*
X105226487Y-109780426D01*
X105155800Y-109801869D01*
X105090653Y-109836691D01*
X105033552Y-109883552D01*
X105021810Y-109897860D01*
X102857808Y-112061863D01*
X102854824Y-112046863D01*
X102815249Y-111951319D01*
X102757794Y-111865332D01*
X102684668Y-111792206D01*
X102598681Y-111734751D01*
X102503137Y-111695176D01*
X102401708Y-111675000D01*
X102298292Y-111675000D01*
X102196863Y-111695176D01*
X102101319Y-111734751D01*
X102015332Y-111792206D01*
X101942206Y-111865332D01*
X101884751Y-111951319D01*
X101845176Y-112046863D01*
X101825000Y-112148292D01*
X101825000Y-112200090D01*
X101813137Y-112195176D01*
X101711708Y-112175000D01*
X101608292Y-112175000D01*
X101506863Y-112195176D01*
X101411319Y-112234751D01*
X101325332Y-112292206D01*
X101292538Y-112325000D01*
X101035301Y-112325000D01*
X100974807Y-112178955D01*
X100854425Y-111998791D01*
X100701209Y-111845575D01*
X100521045Y-111725193D01*
X100320858Y-111642273D01*
X100108341Y-111600000D01*
X99891659Y-111600000D01*
X99679142Y-111642273D01*
X99478955Y-111725193D01*
X99298791Y-111845575D01*
X99280000Y-111864366D01*
X99280000Y-110995634D01*
X99298791Y-111014425D01*
X99478955Y-111134807D01*
X99679142Y-111217727D01*
X99891659Y-111260000D01*
X100108341Y-111260000D01*
X100320858Y-111217727D01*
X100521045Y-111134807D01*
X100701209Y-111014425D01*
X100854425Y-110861209D01*
X100974807Y-110681045D01*
X101057727Y-110480858D01*
X101100000Y-110268341D01*
X101100000Y-110051659D01*
X101057727Y-109839142D01*
X100974807Y-109638955D01*
X100854425Y-109458791D01*
X100701209Y-109305575D01*
X100521045Y-109185193D01*
X100320858Y-109102273D01*
X100108341Y-109060000D01*
X99891659Y-109060000D01*
X99679142Y-109102273D01*
X99478955Y-109185193D01*
X99298791Y-109305575D01*
X99280000Y-109324366D01*
X99280000Y-108990000D01*
X101428549Y-108990000D01*
X101428549Y-109230000D01*
G37*
G04 #@! TD.AperFunction*
G04 #@! TD*
M02*
