G04 #@! TF.GenerationSoftware,KiCad,Pcbnew,5.1.9-1.fc33*
G04 #@! TF.CreationDate,2021-04-27T13:35:09+02:00*
G04 #@! TF.ProjectId,reDIP-SID,72654449-502d-4534-9944-2e6b69636164,0.2*
G04 #@! TF.SameCoordinates,PX5e28010PY8011a50*
G04 #@! TF.FileFunction,Copper,L2,Inr*
G04 #@! TF.FilePolarity,Positive*
%FSLAX46Y46*%
G04 Gerber Fmt 4.6, Leading zero omitted, Abs format (unit mm)*
G04 Created by KiCad (PCBNEW 5.1.9-1.fc33) date 2021-04-27 13:35:09*
%MOMM*%
%LPD*%
G01*
G04 APERTURE LIST*
G04 #@! TA.AperFunction,ComponentPad*
%ADD10O,1.000000X2.100000*%
G04 #@! TD*
G04 #@! TA.AperFunction,ComponentPad*
%ADD11O,1.000000X1.600000*%
G04 #@! TD*
G04 #@! TA.AperFunction,ComponentPad*
%ADD12C,1.600000*%
G04 #@! TD*
G04 #@! TA.AperFunction,ViaPad*
%ADD13C,0.450000*%
G04 #@! TD*
G04 #@! TA.AperFunction,Conductor*
%ADD14C,0.150000*%
G04 #@! TD*
G04 #@! TA.AperFunction,Conductor*
%ADD15C,0.350000*%
G04 #@! TD*
G04 APERTURE END LIST*
D10*
G04 #@! TO.N,GND*
G04 #@! TO.C,J5*
X103300000Y-104500000D03*
X111940000Y-104500000D03*
D11*
X111940000Y-100320000D03*
X103300000Y-100320000D03*
G04 #@! TD*
D12*
G04 #@! TO.N,/D0*
G04 #@! TO.C,J4*
X115240000Y-133020000D03*
G04 #@! TO.N,/D1*
X115240000Y-130480000D03*
G04 #@! TO.N,/D2*
X115240000Y-127940000D03*
G04 #@! TO.N,/D3*
X115240000Y-125400000D03*
G04 #@! TO.N,/D4*
X115240000Y-122860000D03*
G04 #@! TO.N,/D5*
X115240000Y-120320000D03*
G04 #@! TO.N,/D6*
X115240000Y-117780000D03*
G04 #@! TO.N,/D7*
X115240000Y-115240000D03*
G04 #@! TO.N,/POT_Y*
X115240000Y-112700000D03*
G04 #@! TO.N,/POT_X*
X115240000Y-110160000D03*
G04 #@! TD*
G04 #@! TO.N,/SPI_SIO2*
G04 #@! TO.C,J6*
X102540000Y-133020000D03*
G04 #@! TO.N,/SPI_SIO3*
X102540000Y-130480000D03*
G04 #@! TO.N,+3V3*
X105080000Y-133020000D03*
G04 #@! TO.N,/SPI_SIO0*
X105080000Y-130480000D03*
G04 #@! TO.N,GND*
X107620000Y-133020000D03*
G04 #@! TO.N,/SPI_SIO1*
X107620000Y-130480000D03*
G04 #@! TO.N,/~CRESET~*
X110160000Y-133020000D03*
G04 #@! TO.N,/SPI_SCLK*
X110160000Y-130480000D03*
G04 #@! TO.N,/CDONE*
X112700000Y-133020000D03*
G04 #@! TO.N,/SPI_FLASH_~CS~*
X112700000Y-130480000D03*
G04 #@! TD*
G04 #@! TO.N,GND*
G04 #@! TO.C,J3*
X100000000Y-133020000D03*
G04 #@! TO.N,/A4*
X100000000Y-130480000D03*
G04 #@! TO.N,/A3*
X100000000Y-127940000D03*
G04 #@! TO.N,/A2*
X100000000Y-125400000D03*
G04 #@! TO.N,/A1*
X100000000Y-122860000D03*
G04 #@! TO.N,/A0*
X100000000Y-120320000D03*
G04 #@! TO.N,/~CS~*
X100000000Y-117780000D03*
G04 #@! TO.N,/R_~W~*
X100000000Y-115240000D03*
G04 #@! TO.N,/\u00D82*
X100000000Y-112700000D03*
G04 #@! TO.N,/~RES~*
X100000000Y-110160000D03*
G04 #@! TD*
G04 #@! TO.N,VCC*
G04 #@! TO.C,J2*
X115240000Y-107620000D03*
G04 #@! TO.N,/EXT_IN*
X115240000Y-105080000D03*
G04 #@! TO.N,/AUDIO_OUT*
X115240000Y-102540000D03*
G04 #@! TO.N,/AUDIO_OUT_2*
X115240000Y-100000000D03*
G04 #@! TD*
G04 #@! TO.N,/A8*
G04 #@! TO.C,J1*
X100000000Y-107620000D03*
G04 #@! TO.N,/A5*
X100000000Y-105080000D03*
G04 #@! TO.N,/~IO1~*
X100000000Y-102540000D03*
G04 #@! TO.N,+3V3*
X100000000Y-100000000D03*
G04 #@! TD*
D13*
G04 #@! TO.N,GND*
X113520000Y-116190000D03*
X113520000Y-114820000D03*
X111000000Y-111040000D03*
X107620000Y-126930000D03*
X105930000Y-108170000D03*
X107620000Y-124930000D03*
X111430000Y-110620000D03*
X110580000Y-111460000D03*
X111430000Y-111460000D03*
X110580000Y-110610000D03*
X108620000Y-117990000D03*
X109630000Y-117110000D03*
X107620000Y-119000000D03*
X106630000Y-117990000D03*
X105730000Y-117110000D03*
X104990000Y-129110000D03*
X113430000Y-109560000D03*
X107470000Y-114840000D03*
X102260000Y-119210000D03*
X113180000Y-119190000D03*
X113520000Y-112490000D03*
X107620000Y-117010000D03*
X101710000Y-115720000D03*
X107280000Y-107740000D03*
X103170000Y-113950000D03*
X108630000Y-106610000D03*
X112540000Y-127160000D03*
X105410000Y-106530000D03*
X112540000Y-125260000D03*
X104280000Y-110250000D03*
X103680000Y-110250000D03*
X103080000Y-110250000D03*
X102480000Y-110250000D03*
X102780000Y-110770000D03*
X103380000Y-110770000D03*
X103980000Y-110770000D03*
G04 #@! TO.N,+3V3*
X102350000Y-112200000D03*
X113020000Y-129210000D03*
X114720000Y-129210000D03*
X102140000Y-131750000D03*
X104720000Y-112300000D03*
X103470000Y-124670000D03*
X111900000Y-127160000D03*
X110960000Y-108160000D03*
X105560000Y-120770000D03*
X112510000Y-112550000D03*
X113000000Y-117070000D03*
X102720000Y-114400000D03*
X102480000Y-108490000D03*
X101880000Y-108490000D03*
X101710000Y-115120000D03*
G04 #@! TO.N,+1V2*
X112880000Y-114820000D03*
X104280000Y-119990000D03*
X104280000Y-108580000D03*
G04 #@! TO.N,VBUS*
X107220000Y-106560000D03*
X109290000Y-104120000D03*
X105950000Y-104120000D03*
G04 #@! TO.N,/~CRESET~*
X110490000Y-113320000D03*
G04 #@! TO.N,/CDONE*
X110370000Y-113910000D03*
G04 #@! TO.N,/\u00D82*
X101660000Y-112700000D03*
G04 #@! TO.N,/ICE_POT_X*
X108520000Y-122940000D03*
G04 #@! TO.N,/ICE_POT_Y*
X109120000Y-122940000D03*
G04 #@! TO.N,/ICE_A5*
X110370000Y-120120000D03*
G04 #@! TO.N,/ICE_A8*
X107530000Y-122940000D03*
G04 #@! TO.N,/ICE_~RES~*
X102780000Y-126160000D03*
X103720000Y-114870000D03*
X101700000Y-122780000D03*
G04 #@! TO.N,/ICE_D4*
X112300000Y-114660000D03*
G04 #@! TO.N,/ICE_D3*
X111820000Y-115020000D03*
G04 #@! TO.N,/ICE_D2*
X112410000Y-118590000D03*
G04 #@! TO.N,/ICE_D1*
X111810000Y-118680000D03*
G04 #@! TO.N,/ICE_D0*
X111670000Y-119270000D03*
G04 #@! TO.N,/ICE_A4*
X104960000Y-120710000D03*
G04 #@! TO.N,/ICE_A3*
X104870000Y-120110000D03*
G04 #@! TO.N,/ICE_\u00D82*
X111080000Y-119410000D03*
G04 #@! TO.N,/ICE_A2*
X102640000Y-118740000D03*
G04 #@! TO.N,/ICE_A1*
X103100000Y-118350000D03*
G04 #@! TO.N,/ICE_A0*
X103210000Y-118950000D03*
G04 #@! TO.N,/ICE_~CS~*
X103810000Y-119050000D03*
G04 #@! TO.N,/ICE_R_~W~*
X101700000Y-121970000D03*
G04 #@! TO.N,/ICE_D7*
X112500000Y-117990000D03*
G04 #@! TO.N,/ICE_D6*
X110960000Y-120000000D03*
G04 #@! TO.N,/ICE_D5*
X111750000Y-114420000D03*
G04 #@! TO.N,+5V*
X103080000Y-108580000D03*
X102790000Y-124180000D03*
X103680000Y-108580000D03*
G04 #@! TO.N,/ICE_~IO1~*
X110020000Y-120610000D03*
G04 #@! TO.N,/SPI_RAM_~CS~*
X103800000Y-127880000D03*
G04 #@! TO.N,/SPI_SIO3*
X104520000Y-114260000D03*
G04 #@! TO.N,/SPI_SIO2*
X104620000Y-113650000D03*
G04 #@! TO.N,/SPI_SIO0*
X106280000Y-112490000D03*
G04 #@! TO.N,/SPI_SIO1*
X105220000Y-113550000D03*
G04 #@! TO.N,/SPI_SCLK*
X111140000Y-125930000D03*
X106580000Y-111890000D03*
G04 #@! TO.N,Net-(C10-Pad2)*
X112290000Y-107690000D03*
X113000000Y-112190000D03*
G04 #@! TO.N,/SPI_FLASH_~CS~*
X106440000Y-123340000D03*
X105540000Y-123340000D03*
X105320000Y-112950000D03*
G04 #@! TO.N,Net-(C9-Pad2)*
X112290000Y-106990000D03*
X111940000Y-113120000D03*
G04 #@! TO.N,/I2C_SCL_~LED~*
X113040000Y-125860000D03*
X110960000Y-113760000D03*
X109870000Y-113080000D03*
G04 #@! TO.N,/I2C_SDA_~BTN~*
X113040000Y-126560000D03*
X109510000Y-112600000D03*
G04 #@! TO.N,VCC*
X102010000Y-106520000D03*
X102610000Y-106520000D03*
G04 #@! TD*
D14*
G04 #@! TO.N,GND*
X114443830Y-99346600D02*
X114331656Y-99514480D01*
X114254390Y-99701018D01*
X114215000Y-99899046D01*
X114215000Y-100100954D01*
X114254390Y-100298982D01*
X114331656Y-100485520D01*
X114443830Y-100653400D01*
X114586600Y-100796170D01*
X114754480Y-100908344D01*
X114941018Y-100985610D01*
X115139046Y-101025000D01*
X115340954Y-101025000D01*
X115538982Y-100985610D01*
X115725520Y-100908344D01*
X115893400Y-100796170D01*
X116035001Y-100654569D01*
X116035001Y-101885431D01*
X115893400Y-101743830D01*
X115725520Y-101631656D01*
X115538982Y-101554390D01*
X115340954Y-101515000D01*
X115139046Y-101515000D01*
X114941018Y-101554390D01*
X114754480Y-101631656D01*
X114586600Y-101743830D01*
X114443830Y-101886600D01*
X114331656Y-102054480D01*
X114254390Y-102241018D01*
X114215000Y-102439046D01*
X114215000Y-102640954D01*
X114254390Y-102838982D01*
X114331656Y-103025520D01*
X114443830Y-103193400D01*
X114586600Y-103336170D01*
X114754480Y-103448344D01*
X114941018Y-103525610D01*
X115139046Y-103565000D01*
X115340954Y-103565000D01*
X115538982Y-103525610D01*
X115725520Y-103448344D01*
X115893400Y-103336170D01*
X116035001Y-103194569D01*
X116035001Y-104425431D01*
X115893400Y-104283830D01*
X115725520Y-104171656D01*
X115538982Y-104094390D01*
X115340954Y-104055000D01*
X115139046Y-104055000D01*
X114941018Y-104094390D01*
X114754480Y-104171656D01*
X114586600Y-104283830D01*
X114443830Y-104426600D01*
X114331656Y-104594480D01*
X114254390Y-104781018D01*
X114215000Y-104979046D01*
X114215000Y-105180954D01*
X114254390Y-105378982D01*
X114331656Y-105565520D01*
X114443830Y-105733400D01*
X114586600Y-105876170D01*
X114754480Y-105988344D01*
X114941018Y-106065610D01*
X115139046Y-106105000D01*
X115340954Y-106105000D01*
X115538982Y-106065610D01*
X115725520Y-105988344D01*
X115893400Y-105876170D01*
X116035001Y-105734569D01*
X116035001Y-106965431D01*
X115893400Y-106823830D01*
X115725520Y-106711656D01*
X115538982Y-106634390D01*
X115340954Y-106595000D01*
X115139046Y-106595000D01*
X114941018Y-106634390D01*
X114754480Y-106711656D01*
X114586600Y-106823830D01*
X114443830Y-106966600D01*
X114331656Y-107134480D01*
X114254390Y-107321018D01*
X114215000Y-107519046D01*
X114215000Y-107720954D01*
X114254390Y-107918982D01*
X114331656Y-108105520D01*
X114443830Y-108273400D01*
X114586600Y-108416170D01*
X114754480Y-108528344D01*
X114941018Y-108605610D01*
X115139046Y-108645000D01*
X115340954Y-108645000D01*
X115538982Y-108605610D01*
X115725520Y-108528344D01*
X115893400Y-108416170D01*
X116035001Y-108274569D01*
X116035001Y-109505431D01*
X115893400Y-109363830D01*
X115725520Y-109251656D01*
X115538982Y-109174390D01*
X115340954Y-109135000D01*
X115139046Y-109135000D01*
X114941018Y-109174390D01*
X114754480Y-109251656D01*
X114586600Y-109363830D01*
X114443830Y-109506600D01*
X114331656Y-109674480D01*
X114254390Y-109861018D01*
X114215000Y-110059046D01*
X114215000Y-110260954D01*
X114254390Y-110458982D01*
X114331656Y-110645520D01*
X114443830Y-110813400D01*
X114586600Y-110956170D01*
X114754480Y-111068344D01*
X114941018Y-111145610D01*
X115139046Y-111185000D01*
X115340954Y-111185000D01*
X115538982Y-111145610D01*
X115725520Y-111068344D01*
X115893400Y-110956170D01*
X116035001Y-110814569D01*
X116035001Y-112045431D01*
X115893400Y-111903830D01*
X115725520Y-111791656D01*
X115538982Y-111714390D01*
X115340954Y-111675000D01*
X115139046Y-111675000D01*
X114941018Y-111714390D01*
X114754480Y-111791656D01*
X114586600Y-111903830D01*
X114443830Y-112046600D01*
X114331656Y-112214480D01*
X114254390Y-112401018D01*
X114215000Y-112599046D01*
X114215000Y-112800954D01*
X114254390Y-112998982D01*
X114331656Y-113185520D01*
X114443830Y-113353400D01*
X114586600Y-113496170D01*
X114754480Y-113608344D01*
X114941018Y-113685610D01*
X115139046Y-113725000D01*
X115340954Y-113725000D01*
X115538982Y-113685610D01*
X115725520Y-113608344D01*
X115893400Y-113496170D01*
X116035001Y-113354569D01*
X116035001Y-114585431D01*
X115893400Y-114443830D01*
X115725520Y-114331656D01*
X115538982Y-114254390D01*
X115340954Y-114215000D01*
X115139046Y-114215000D01*
X114941018Y-114254390D01*
X114754480Y-114331656D01*
X114586600Y-114443830D01*
X114443830Y-114586600D01*
X114331656Y-114754480D01*
X114254390Y-114941018D01*
X114215000Y-115139046D01*
X114215000Y-115340954D01*
X114254390Y-115538982D01*
X114331656Y-115725520D01*
X114443830Y-115893400D01*
X114586600Y-116036170D01*
X114754480Y-116148344D01*
X114941018Y-116225610D01*
X115139046Y-116265000D01*
X115340954Y-116265000D01*
X115538982Y-116225610D01*
X115725520Y-116148344D01*
X115893400Y-116036170D01*
X116035001Y-115894569D01*
X116035000Y-117125430D01*
X115893400Y-116983830D01*
X115725520Y-116871656D01*
X115538982Y-116794390D01*
X115340954Y-116755000D01*
X115139046Y-116755000D01*
X114941018Y-116794390D01*
X114754480Y-116871656D01*
X114586600Y-116983830D01*
X114443830Y-117126600D01*
X114331656Y-117294480D01*
X114254390Y-117481018D01*
X114215000Y-117679046D01*
X114215000Y-117880954D01*
X114254390Y-118078982D01*
X114331656Y-118265520D01*
X114443830Y-118433400D01*
X114586600Y-118576170D01*
X114754480Y-118688344D01*
X114941018Y-118765610D01*
X115139046Y-118805000D01*
X115340954Y-118805000D01*
X115538982Y-118765610D01*
X115725520Y-118688344D01*
X115893400Y-118576170D01*
X116035000Y-118434570D01*
X116035000Y-119665430D01*
X115893400Y-119523830D01*
X115725520Y-119411656D01*
X115538982Y-119334390D01*
X115340954Y-119295000D01*
X115139046Y-119295000D01*
X114941018Y-119334390D01*
X114754480Y-119411656D01*
X114586600Y-119523830D01*
X114443830Y-119666600D01*
X114331656Y-119834480D01*
X114254390Y-120021018D01*
X114215000Y-120219046D01*
X114215000Y-120420954D01*
X114254390Y-120618982D01*
X114331656Y-120805520D01*
X114443830Y-120973400D01*
X114586600Y-121116170D01*
X114754480Y-121228344D01*
X114941018Y-121305610D01*
X115139046Y-121345000D01*
X115340954Y-121345000D01*
X115538982Y-121305610D01*
X115725520Y-121228344D01*
X115893400Y-121116170D01*
X116035000Y-120974570D01*
X116035000Y-122205430D01*
X115893400Y-122063830D01*
X115725520Y-121951656D01*
X115538982Y-121874390D01*
X115340954Y-121835000D01*
X115139046Y-121835000D01*
X114941018Y-121874390D01*
X114754480Y-121951656D01*
X114586600Y-122063830D01*
X114443830Y-122206600D01*
X114331656Y-122374480D01*
X114254390Y-122561018D01*
X114215000Y-122759046D01*
X114215000Y-122960954D01*
X114254390Y-123158982D01*
X114331656Y-123345520D01*
X114443830Y-123513400D01*
X114586600Y-123656170D01*
X114754480Y-123768344D01*
X114941018Y-123845610D01*
X115139046Y-123885000D01*
X115340954Y-123885000D01*
X115538982Y-123845610D01*
X115725520Y-123768344D01*
X115893400Y-123656170D01*
X116035000Y-123514570D01*
X116035000Y-124745430D01*
X115893400Y-124603830D01*
X115725520Y-124491656D01*
X115538982Y-124414390D01*
X115340954Y-124375000D01*
X115139046Y-124375000D01*
X114941018Y-124414390D01*
X114754480Y-124491656D01*
X114586600Y-124603830D01*
X114443830Y-124746600D01*
X114331656Y-124914480D01*
X114254390Y-125101018D01*
X114215000Y-125299046D01*
X114215000Y-125500954D01*
X114254390Y-125698982D01*
X114331656Y-125885520D01*
X114443830Y-126053400D01*
X114586600Y-126196170D01*
X114754480Y-126308344D01*
X114941018Y-126385610D01*
X115139046Y-126425000D01*
X115340954Y-126425000D01*
X115538982Y-126385610D01*
X115725520Y-126308344D01*
X115893400Y-126196170D01*
X116035000Y-126054570D01*
X116035000Y-127285430D01*
X115893400Y-127143830D01*
X115725520Y-127031656D01*
X115538982Y-126954390D01*
X115340954Y-126915000D01*
X115139046Y-126915000D01*
X114941018Y-126954390D01*
X114754480Y-127031656D01*
X114586600Y-127143830D01*
X114443830Y-127286600D01*
X114331656Y-127454480D01*
X114254390Y-127641018D01*
X114215000Y-127839046D01*
X114215000Y-128040954D01*
X114254390Y-128238982D01*
X114331656Y-128425520D01*
X114443830Y-128593400D01*
X114586600Y-128736170D01*
X114634518Y-128768188D01*
X114588740Y-128777294D01*
X114506845Y-128811215D01*
X114433142Y-128860462D01*
X114370462Y-128923142D01*
X114321215Y-128996845D01*
X114287294Y-129078740D01*
X114270000Y-129165679D01*
X114270000Y-129254321D01*
X114287294Y-129341260D01*
X114321215Y-129423155D01*
X114370462Y-129496858D01*
X114433142Y-129559538D01*
X114506845Y-129608785D01*
X114588740Y-129642706D01*
X114634518Y-129651812D01*
X114586600Y-129683830D01*
X114443830Y-129826600D01*
X114331656Y-129994480D01*
X114254390Y-130181018D01*
X114215000Y-130379046D01*
X114215000Y-130580954D01*
X114254390Y-130778982D01*
X114331656Y-130965520D01*
X114443830Y-131133400D01*
X114586600Y-131276170D01*
X114754480Y-131388344D01*
X114941018Y-131465610D01*
X115139046Y-131505000D01*
X115340954Y-131505000D01*
X115538982Y-131465610D01*
X115725520Y-131388344D01*
X115893400Y-131276170D01*
X116035000Y-131134570D01*
X116035000Y-132365430D01*
X115893400Y-132223830D01*
X115725520Y-132111656D01*
X115538982Y-132034390D01*
X115340954Y-131995000D01*
X115139046Y-131995000D01*
X114941018Y-132034390D01*
X114754480Y-132111656D01*
X114586600Y-132223830D01*
X114443830Y-132366600D01*
X114331656Y-132534480D01*
X114254390Y-132721018D01*
X114215000Y-132919046D01*
X114215000Y-133120954D01*
X114254390Y-133318982D01*
X114331656Y-133505520D01*
X114443830Y-133673400D01*
X114585430Y-133815000D01*
X113354570Y-133815000D01*
X113496170Y-133673400D01*
X113608344Y-133505520D01*
X113685610Y-133318982D01*
X113725000Y-133120954D01*
X113725000Y-132919046D01*
X113685610Y-132721018D01*
X113608344Y-132534480D01*
X113496170Y-132366600D01*
X113353400Y-132223830D01*
X113185520Y-132111656D01*
X112998982Y-132034390D01*
X112800954Y-131995000D01*
X112599046Y-131995000D01*
X112401018Y-132034390D01*
X112214480Y-132111656D01*
X112046600Y-132223830D01*
X111903830Y-132366600D01*
X111791656Y-132534480D01*
X111714390Y-132721018D01*
X111675000Y-132919046D01*
X111675000Y-133120954D01*
X111714390Y-133318982D01*
X111791656Y-133505520D01*
X111903830Y-133673400D01*
X112045430Y-133815000D01*
X110814570Y-133815000D01*
X110956170Y-133673400D01*
X111068344Y-133505520D01*
X111145610Y-133318982D01*
X111185000Y-133120954D01*
X111185000Y-132919046D01*
X111145610Y-132721018D01*
X111068344Y-132534480D01*
X110956170Y-132366600D01*
X110813400Y-132223830D01*
X110645520Y-132111656D01*
X110458982Y-132034390D01*
X110260954Y-131995000D01*
X110059046Y-131995000D01*
X109861018Y-132034390D01*
X109674480Y-132111656D01*
X109506600Y-132223830D01*
X109363830Y-132366600D01*
X109251656Y-132534480D01*
X109174390Y-132721018D01*
X109135000Y-132919046D01*
X109135000Y-133120954D01*
X109174390Y-133318982D01*
X109251656Y-133505520D01*
X109363830Y-133673400D01*
X109505430Y-133815000D01*
X108226537Y-133815000D01*
X108272253Y-133742964D01*
X107620000Y-133090711D01*
X106967747Y-133742964D01*
X107013463Y-133815000D01*
X105734570Y-133815000D01*
X105876170Y-133673400D01*
X105988344Y-133505520D01*
X106065610Y-133318982D01*
X106105000Y-133120954D01*
X106105000Y-133029573D01*
X106590083Y-133029573D01*
X106611741Y-133230316D01*
X106672145Y-133422977D01*
X106758337Y-133584231D01*
X106897036Y-133672253D01*
X107549289Y-133020000D01*
X107690711Y-133020000D01*
X108342964Y-133672253D01*
X108481663Y-133584231D01*
X108575182Y-133405288D01*
X108631994Y-133211538D01*
X108649917Y-133010427D01*
X108628259Y-132809684D01*
X108567855Y-132617023D01*
X108481663Y-132455769D01*
X108342964Y-132367747D01*
X107690711Y-133020000D01*
X107549289Y-133020000D01*
X106897036Y-132367747D01*
X106758337Y-132455769D01*
X106664818Y-132634712D01*
X106608006Y-132828462D01*
X106590083Y-133029573D01*
X106105000Y-133029573D01*
X106105000Y-132919046D01*
X106065610Y-132721018D01*
X105988344Y-132534480D01*
X105876170Y-132366600D01*
X105806606Y-132297036D01*
X106967747Y-132297036D01*
X107620000Y-132949289D01*
X108272253Y-132297036D01*
X108184231Y-132158337D01*
X108005288Y-132064818D01*
X107811538Y-132008006D01*
X107610427Y-131990083D01*
X107409684Y-132011741D01*
X107217023Y-132072145D01*
X107055769Y-132158337D01*
X106967747Y-132297036D01*
X105806606Y-132297036D01*
X105733400Y-132223830D01*
X105565520Y-132111656D01*
X105378982Y-132034390D01*
X105180954Y-131995000D01*
X104979046Y-131995000D01*
X104781018Y-132034390D01*
X104594480Y-132111656D01*
X104426600Y-132223830D01*
X104283830Y-132366600D01*
X104171656Y-132534480D01*
X104094390Y-132721018D01*
X104055000Y-132919046D01*
X104055000Y-133120954D01*
X104094390Y-133318982D01*
X104171656Y-133505520D01*
X104283830Y-133673400D01*
X104425430Y-133815000D01*
X103194570Y-133815000D01*
X103336170Y-133673400D01*
X103448344Y-133505520D01*
X103525610Y-133318982D01*
X103565000Y-133120954D01*
X103565000Y-132919046D01*
X103525610Y-132721018D01*
X103448344Y-132534480D01*
X103336170Y-132366600D01*
X103193400Y-132223830D01*
X103025520Y-132111656D01*
X102838982Y-132034390D01*
X102640954Y-131995000D01*
X102517507Y-131995000D01*
X102538785Y-131963155D01*
X102572706Y-131881260D01*
X102590000Y-131794321D01*
X102590000Y-131705679D01*
X102572706Y-131618740D01*
X102538785Y-131536845D01*
X102517507Y-131505000D01*
X102640954Y-131505000D01*
X102838982Y-131465610D01*
X103025520Y-131388344D01*
X103193400Y-131276170D01*
X103336170Y-131133400D01*
X103448344Y-130965520D01*
X103525610Y-130778982D01*
X103565000Y-130580954D01*
X103565000Y-130379046D01*
X104055000Y-130379046D01*
X104055000Y-130580954D01*
X104094390Y-130778982D01*
X104171656Y-130965520D01*
X104283830Y-131133400D01*
X104426600Y-131276170D01*
X104594480Y-131388344D01*
X104781018Y-131465610D01*
X104979046Y-131505000D01*
X105180954Y-131505000D01*
X105378982Y-131465610D01*
X105565520Y-131388344D01*
X105733400Y-131276170D01*
X105876170Y-131133400D01*
X105988344Y-130965520D01*
X106065610Y-130778982D01*
X106105000Y-130580954D01*
X106105000Y-130379046D01*
X106595000Y-130379046D01*
X106595000Y-130580954D01*
X106634390Y-130778982D01*
X106711656Y-130965520D01*
X106823830Y-131133400D01*
X106966600Y-131276170D01*
X107134480Y-131388344D01*
X107321018Y-131465610D01*
X107519046Y-131505000D01*
X107720954Y-131505000D01*
X107918982Y-131465610D01*
X108105520Y-131388344D01*
X108273400Y-131276170D01*
X108416170Y-131133400D01*
X108528344Y-130965520D01*
X108605610Y-130778982D01*
X108645000Y-130580954D01*
X108645000Y-130379046D01*
X109135000Y-130379046D01*
X109135000Y-130580954D01*
X109174390Y-130778982D01*
X109251656Y-130965520D01*
X109363830Y-131133400D01*
X109506600Y-131276170D01*
X109674480Y-131388344D01*
X109861018Y-131465610D01*
X110059046Y-131505000D01*
X110260954Y-131505000D01*
X110458982Y-131465610D01*
X110645520Y-131388344D01*
X110813400Y-131276170D01*
X110956170Y-131133400D01*
X111068344Y-130965520D01*
X111145610Y-130778982D01*
X111185000Y-130580954D01*
X111185000Y-130379046D01*
X111675000Y-130379046D01*
X111675000Y-130580954D01*
X111714390Y-130778982D01*
X111791656Y-130965520D01*
X111903830Y-131133400D01*
X112046600Y-131276170D01*
X112214480Y-131388344D01*
X112401018Y-131465610D01*
X112599046Y-131505000D01*
X112800954Y-131505000D01*
X112998982Y-131465610D01*
X113185520Y-131388344D01*
X113353400Y-131276170D01*
X113496170Y-131133400D01*
X113608344Y-130965520D01*
X113685610Y-130778982D01*
X113725000Y-130580954D01*
X113725000Y-130379046D01*
X113685610Y-130181018D01*
X113608344Y-129994480D01*
X113496170Y-129826600D01*
X113353400Y-129683830D01*
X113237121Y-129606135D01*
X113306858Y-129559538D01*
X113369538Y-129496858D01*
X113418785Y-129423155D01*
X113452706Y-129341260D01*
X113470000Y-129254321D01*
X113470000Y-129165679D01*
X113452706Y-129078740D01*
X113418785Y-128996845D01*
X113369538Y-128923142D01*
X113306858Y-128860462D01*
X113233155Y-128811215D01*
X113151260Y-128777294D01*
X113064321Y-128760000D01*
X112975679Y-128760000D01*
X112888740Y-128777294D01*
X112806845Y-128811215D01*
X112733142Y-128860462D01*
X112670462Y-128923142D01*
X112621215Y-128996845D01*
X112587294Y-129078740D01*
X112570000Y-129165679D01*
X112570000Y-129254321D01*
X112587294Y-129341260D01*
X112621215Y-129423155D01*
X112642493Y-129455000D01*
X112599046Y-129455000D01*
X112401018Y-129494390D01*
X112214480Y-129571656D01*
X112046600Y-129683830D01*
X111903830Y-129826600D01*
X111791656Y-129994480D01*
X111714390Y-130181018D01*
X111675000Y-130379046D01*
X111185000Y-130379046D01*
X111145610Y-130181018D01*
X111068344Y-129994480D01*
X110956170Y-129826600D01*
X110813400Y-129683830D01*
X110645520Y-129571656D01*
X110458982Y-129494390D01*
X110260954Y-129455000D01*
X110059046Y-129455000D01*
X109861018Y-129494390D01*
X109674480Y-129571656D01*
X109506600Y-129683830D01*
X109363830Y-129826600D01*
X109251656Y-129994480D01*
X109174390Y-130181018D01*
X109135000Y-130379046D01*
X108645000Y-130379046D01*
X108605610Y-130181018D01*
X108528344Y-129994480D01*
X108416170Y-129826600D01*
X108273400Y-129683830D01*
X108105520Y-129571656D01*
X107918982Y-129494390D01*
X107720954Y-129455000D01*
X107519046Y-129455000D01*
X107321018Y-129494390D01*
X107134480Y-129571656D01*
X106966600Y-129683830D01*
X106823830Y-129826600D01*
X106711656Y-129994480D01*
X106634390Y-130181018D01*
X106595000Y-130379046D01*
X106105000Y-130379046D01*
X106065610Y-130181018D01*
X105988344Y-129994480D01*
X105876170Y-129826600D01*
X105733400Y-129683830D01*
X105565520Y-129571656D01*
X105378982Y-129494390D01*
X105180954Y-129455000D01*
X104979046Y-129455000D01*
X104781018Y-129494390D01*
X104594480Y-129571656D01*
X104426600Y-129683830D01*
X104283830Y-129826600D01*
X104171656Y-129994480D01*
X104094390Y-130181018D01*
X104055000Y-130379046D01*
X103565000Y-130379046D01*
X103525610Y-130181018D01*
X103448344Y-129994480D01*
X103336170Y-129826600D01*
X103193400Y-129683830D01*
X103025520Y-129571656D01*
X102838982Y-129494390D01*
X102640954Y-129455000D01*
X102439046Y-129455000D01*
X102241018Y-129494390D01*
X102054480Y-129571656D01*
X101886600Y-129683830D01*
X101743830Y-129826600D01*
X101631656Y-129994480D01*
X101554390Y-130181018D01*
X101515000Y-130379046D01*
X101515000Y-130580954D01*
X101554390Y-130778982D01*
X101631656Y-130965520D01*
X101743830Y-131133400D01*
X101886600Y-131276170D01*
X101971334Y-131332788D01*
X101926845Y-131351215D01*
X101853142Y-131400462D01*
X101790462Y-131463142D01*
X101741215Y-131536845D01*
X101707294Y-131618740D01*
X101690000Y-131705679D01*
X101690000Y-131794321D01*
X101707294Y-131881260D01*
X101741215Y-131963155D01*
X101790462Y-132036858D01*
X101853142Y-132099538D01*
X101926845Y-132148785D01*
X101971334Y-132167212D01*
X101886600Y-132223830D01*
X101743830Y-132366600D01*
X101631656Y-132534480D01*
X101554390Y-132721018D01*
X101515000Y-132919046D01*
X101515000Y-133120954D01*
X101554390Y-133318982D01*
X101631656Y-133505520D01*
X101743830Y-133673400D01*
X101885430Y-133815000D01*
X100606537Y-133815000D01*
X100652253Y-133742964D01*
X100000000Y-133090711D01*
X99347747Y-133742964D01*
X99393463Y-133815000D01*
X99253228Y-133815000D01*
X99225587Y-133812290D01*
X99221341Y-133811008D01*
X99217426Y-133808926D01*
X99213990Y-133806123D01*
X99211163Y-133802706D01*
X99209051Y-133798802D01*
X99207742Y-133794571D01*
X99205000Y-133768484D01*
X99205000Y-133626537D01*
X99277036Y-133672253D01*
X99929289Y-133020000D01*
X100070711Y-133020000D01*
X100722964Y-133672253D01*
X100861663Y-133584231D01*
X100955182Y-133405288D01*
X101011994Y-133211538D01*
X101029917Y-133010427D01*
X101008259Y-132809684D01*
X100947855Y-132617023D01*
X100861663Y-132455769D01*
X100722964Y-132367747D01*
X100070711Y-133020000D01*
X99929289Y-133020000D01*
X99277036Y-132367747D01*
X99205000Y-132413463D01*
X99205000Y-132297036D01*
X99347747Y-132297036D01*
X100000000Y-132949289D01*
X100652253Y-132297036D01*
X100564231Y-132158337D01*
X100385288Y-132064818D01*
X100191538Y-132008006D01*
X99990427Y-131990083D01*
X99789684Y-132011741D01*
X99597023Y-132072145D01*
X99435769Y-132158337D01*
X99347747Y-132297036D01*
X99205000Y-132297036D01*
X99205000Y-131134570D01*
X99346600Y-131276170D01*
X99514480Y-131388344D01*
X99701018Y-131465610D01*
X99899046Y-131505000D01*
X100100954Y-131505000D01*
X100298982Y-131465610D01*
X100485520Y-131388344D01*
X100653400Y-131276170D01*
X100796170Y-131133400D01*
X100908344Y-130965520D01*
X100985610Y-130778982D01*
X101025000Y-130580954D01*
X101025000Y-130379046D01*
X100985610Y-130181018D01*
X100908344Y-129994480D01*
X100796170Y-129826600D01*
X100653400Y-129683830D01*
X100485520Y-129571656D01*
X100298982Y-129494390D01*
X100100954Y-129455000D01*
X99899046Y-129455000D01*
X99701018Y-129494390D01*
X99514480Y-129571656D01*
X99346600Y-129683830D01*
X99205000Y-129825430D01*
X99205000Y-128594570D01*
X99346600Y-128736170D01*
X99514480Y-128848344D01*
X99701018Y-128925610D01*
X99899046Y-128965000D01*
X100100954Y-128965000D01*
X100298982Y-128925610D01*
X100485520Y-128848344D01*
X100653400Y-128736170D01*
X100796170Y-128593400D01*
X100908344Y-128425520D01*
X100985610Y-128238982D01*
X101025000Y-128040954D01*
X101025000Y-127839046D01*
X101024331Y-127835679D01*
X103350000Y-127835679D01*
X103350000Y-127924321D01*
X103367294Y-128011260D01*
X103401215Y-128093155D01*
X103450462Y-128166858D01*
X103513142Y-128229538D01*
X103586845Y-128278785D01*
X103668740Y-128312706D01*
X103755679Y-128330000D01*
X103844321Y-128330000D01*
X103931260Y-128312706D01*
X104013155Y-128278785D01*
X104086858Y-128229538D01*
X104149538Y-128166858D01*
X104198785Y-128093155D01*
X104232706Y-128011260D01*
X104250000Y-127924321D01*
X104250000Y-127835679D01*
X104232706Y-127748740D01*
X104198785Y-127666845D01*
X104149538Y-127593142D01*
X104086858Y-127530462D01*
X104013155Y-127481215D01*
X103931260Y-127447294D01*
X103844321Y-127430000D01*
X103755679Y-127430000D01*
X103668740Y-127447294D01*
X103586845Y-127481215D01*
X103513142Y-127530462D01*
X103450462Y-127593142D01*
X103401215Y-127666845D01*
X103367294Y-127748740D01*
X103350000Y-127835679D01*
X101024331Y-127835679D01*
X100985610Y-127641018D01*
X100908344Y-127454480D01*
X100796170Y-127286600D01*
X100653400Y-127143830D01*
X100611270Y-127115679D01*
X111450000Y-127115679D01*
X111450000Y-127204321D01*
X111467294Y-127291260D01*
X111501215Y-127373155D01*
X111550462Y-127446858D01*
X111613142Y-127509538D01*
X111686845Y-127558785D01*
X111768740Y-127592706D01*
X111855679Y-127610000D01*
X111944321Y-127610000D01*
X112031260Y-127592706D01*
X112113155Y-127558785D01*
X112186858Y-127509538D01*
X112249538Y-127446858D01*
X112298785Y-127373155D01*
X112332706Y-127291260D01*
X112350000Y-127204321D01*
X112350000Y-127115679D01*
X112332706Y-127028740D01*
X112298785Y-126946845D01*
X112249538Y-126873142D01*
X112186858Y-126810462D01*
X112113155Y-126761215D01*
X112031260Y-126727294D01*
X111944321Y-126710000D01*
X111855679Y-126710000D01*
X111768740Y-126727294D01*
X111686845Y-126761215D01*
X111613142Y-126810462D01*
X111550462Y-126873142D01*
X111501215Y-126946845D01*
X111467294Y-127028740D01*
X111450000Y-127115679D01*
X100611270Y-127115679D01*
X100485520Y-127031656D01*
X100298982Y-126954390D01*
X100100954Y-126915000D01*
X99899046Y-126915000D01*
X99701018Y-126954390D01*
X99514480Y-127031656D01*
X99346600Y-127143830D01*
X99205000Y-127285430D01*
X99205000Y-126054570D01*
X99346600Y-126196170D01*
X99514480Y-126308344D01*
X99701018Y-126385610D01*
X99899046Y-126425000D01*
X100100954Y-126425000D01*
X100298982Y-126385610D01*
X100485520Y-126308344D01*
X100653400Y-126196170D01*
X100733891Y-126115679D01*
X102330000Y-126115679D01*
X102330000Y-126204321D01*
X102347294Y-126291260D01*
X102381215Y-126373155D01*
X102430462Y-126446858D01*
X102493142Y-126509538D01*
X102566845Y-126558785D01*
X102648740Y-126592706D01*
X102735679Y-126610000D01*
X102824321Y-126610000D01*
X102911260Y-126592706D01*
X102993155Y-126558785D01*
X103066858Y-126509538D01*
X103129538Y-126446858D01*
X103178785Y-126373155D01*
X103212706Y-126291260D01*
X103230000Y-126204321D01*
X103230000Y-126115679D01*
X103212706Y-126028740D01*
X103178785Y-125946845D01*
X103137915Y-125885679D01*
X110690000Y-125885679D01*
X110690000Y-125974321D01*
X110707294Y-126061260D01*
X110741215Y-126143155D01*
X110790462Y-126216858D01*
X110853142Y-126279538D01*
X110926845Y-126328785D01*
X111008740Y-126362706D01*
X111095679Y-126380000D01*
X111184321Y-126380000D01*
X111271260Y-126362706D01*
X111353155Y-126328785D01*
X111426858Y-126279538D01*
X111489538Y-126216858D01*
X111538785Y-126143155D01*
X111572706Y-126061260D01*
X111590000Y-125974321D01*
X111590000Y-125885679D01*
X111576076Y-125815679D01*
X112590000Y-125815679D01*
X112590000Y-125904321D01*
X112607294Y-125991260D01*
X112641215Y-126073155D01*
X112690462Y-126146858D01*
X112753142Y-126209538D01*
X112753833Y-126210000D01*
X112753142Y-126210462D01*
X112690462Y-126273142D01*
X112641215Y-126346845D01*
X112607294Y-126428740D01*
X112590000Y-126515679D01*
X112590000Y-126604321D01*
X112607294Y-126691260D01*
X112641215Y-126773155D01*
X112690462Y-126846858D01*
X112753142Y-126909538D01*
X112826845Y-126958785D01*
X112908740Y-126992706D01*
X112995679Y-127010000D01*
X113084321Y-127010000D01*
X113171260Y-126992706D01*
X113253155Y-126958785D01*
X113326858Y-126909538D01*
X113389538Y-126846858D01*
X113438785Y-126773155D01*
X113472706Y-126691260D01*
X113490000Y-126604321D01*
X113490000Y-126515679D01*
X113472706Y-126428740D01*
X113438785Y-126346845D01*
X113389538Y-126273142D01*
X113326858Y-126210462D01*
X113326167Y-126210000D01*
X113326858Y-126209538D01*
X113389538Y-126146858D01*
X113438785Y-126073155D01*
X113472706Y-125991260D01*
X113490000Y-125904321D01*
X113490000Y-125815679D01*
X113472706Y-125728740D01*
X113438785Y-125646845D01*
X113389538Y-125573142D01*
X113326858Y-125510462D01*
X113253155Y-125461215D01*
X113171260Y-125427294D01*
X113084321Y-125410000D01*
X112995679Y-125410000D01*
X112908740Y-125427294D01*
X112826845Y-125461215D01*
X112753142Y-125510462D01*
X112690462Y-125573142D01*
X112641215Y-125646845D01*
X112607294Y-125728740D01*
X112590000Y-125815679D01*
X111576076Y-125815679D01*
X111572706Y-125798740D01*
X111538785Y-125716845D01*
X111489538Y-125643142D01*
X111426858Y-125580462D01*
X111353155Y-125531215D01*
X111271260Y-125497294D01*
X111184321Y-125480000D01*
X111095679Y-125480000D01*
X111008740Y-125497294D01*
X110926845Y-125531215D01*
X110853142Y-125580462D01*
X110790462Y-125643142D01*
X110741215Y-125716845D01*
X110707294Y-125798740D01*
X110690000Y-125885679D01*
X103137915Y-125885679D01*
X103129538Y-125873142D01*
X103066858Y-125810462D01*
X102993155Y-125761215D01*
X102911260Y-125727294D01*
X102824321Y-125710000D01*
X102735679Y-125710000D01*
X102648740Y-125727294D01*
X102566845Y-125761215D01*
X102493142Y-125810462D01*
X102430462Y-125873142D01*
X102381215Y-125946845D01*
X102347294Y-126028740D01*
X102330000Y-126115679D01*
X100733891Y-126115679D01*
X100796170Y-126053400D01*
X100908344Y-125885520D01*
X100985610Y-125698982D01*
X101025000Y-125500954D01*
X101025000Y-125299046D01*
X100985610Y-125101018D01*
X100908344Y-124914480D01*
X100796170Y-124746600D01*
X100653400Y-124603830D01*
X100485520Y-124491656D01*
X100298982Y-124414390D01*
X100100954Y-124375000D01*
X99899046Y-124375000D01*
X99701018Y-124414390D01*
X99514480Y-124491656D01*
X99346600Y-124603830D01*
X99205000Y-124745430D01*
X99205000Y-124135679D01*
X102340000Y-124135679D01*
X102340000Y-124224321D01*
X102357294Y-124311260D01*
X102391215Y-124393155D01*
X102440462Y-124466858D01*
X102503142Y-124529538D01*
X102576845Y-124578785D01*
X102658740Y-124612706D01*
X102745679Y-124630000D01*
X102834321Y-124630000D01*
X102921260Y-124612706D01*
X103003155Y-124578785D01*
X103033340Y-124558616D01*
X103020000Y-124625679D01*
X103020000Y-124714321D01*
X103037294Y-124801260D01*
X103071215Y-124883155D01*
X103120462Y-124956858D01*
X103183142Y-125019538D01*
X103256845Y-125068785D01*
X103338740Y-125102706D01*
X103425679Y-125120000D01*
X103514321Y-125120000D01*
X103601260Y-125102706D01*
X103683155Y-125068785D01*
X103756858Y-125019538D01*
X103819538Y-124956858D01*
X103868785Y-124883155D01*
X103902706Y-124801260D01*
X103920000Y-124714321D01*
X103920000Y-124625679D01*
X103902706Y-124538740D01*
X103868785Y-124456845D01*
X103819538Y-124383142D01*
X103756858Y-124320462D01*
X103683155Y-124271215D01*
X103601260Y-124237294D01*
X103514321Y-124220000D01*
X103425679Y-124220000D01*
X103338740Y-124237294D01*
X103256845Y-124271215D01*
X103226660Y-124291384D01*
X103240000Y-124224321D01*
X103240000Y-124135679D01*
X103222706Y-124048740D01*
X103188785Y-123966845D01*
X103139538Y-123893142D01*
X103076858Y-123830462D01*
X103003155Y-123781215D01*
X102921260Y-123747294D01*
X102834321Y-123730000D01*
X102745679Y-123730000D01*
X102658740Y-123747294D01*
X102576845Y-123781215D01*
X102503142Y-123830462D01*
X102440462Y-123893142D01*
X102391215Y-123966845D01*
X102357294Y-124048740D01*
X102340000Y-124135679D01*
X99205000Y-124135679D01*
X99205000Y-123514570D01*
X99346600Y-123656170D01*
X99514480Y-123768344D01*
X99701018Y-123845610D01*
X99899046Y-123885000D01*
X100100954Y-123885000D01*
X100298982Y-123845610D01*
X100485520Y-123768344D01*
X100653400Y-123656170D01*
X100796170Y-123513400D01*
X100908344Y-123345520D01*
X100928988Y-123295679D01*
X105090000Y-123295679D01*
X105090000Y-123384321D01*
X105107294Y-123471260D01*
X105141215Y-123553155D01*
X105190462Y-123626858D01*
X105253142Y-123689538D01*
X105326845Y-123738785D01*
X105408740Y-123772706D01*
X105495679Y-123790000D01*
X105584321Y-123790000D01*
X105671260Y-123772706D01*
X105753155Y-123738785D01*
X105826858Y-123689538D01*
X105889538Y-123626858D01*
X105938785Y-123553155D01*
X105972706Y-123471260D01*
X105990000Y-123384321D01*
X106007294Y-123471260D01*
X106041215Y-123553155D01*
X106090462Y-123626858D01*
X106153142Y-123689538D01*
X106226845Y-123738785D01*
X106308740Y-123772706D01*
X106395679Y-123790000D01*
X106484321Y-123790000D01*
X106571260Y-123772706D01*
X106653155Y-123738785D01*
X106726858Y-123689538D01*
X106789538Y-123626858D01*
X106838785Y-123553155D01*
X106872706Y-123471260D01*
X106890000Y-123384321D01*
X106890000Y-123295679D01*
X106872706Y-123208740D01*
X106838785Y-123126845D01*
X106789538Y-123053142D01*
X106726858Y-122990462D01*
X106653155Y-122941215D01*
X106571260Y-122907294D01*
X106512871Y-122895679D01*
X107080000Y-122895679D01*
X107080000Y-122984321D01*
X107097294Y-123071260D01*
X107131215Y-123153155D01*
X107180462Y-123226858D01*
X107243142Y-123289538D01*
X107316845Y-123338785D01*
X107398740Y-123372706D01*
X107485679Y-123390000D01*
X107574321Y-123390000D01*
X107661260Y-123372706D01*
X107743155Y-123338785D01*
X107816858Y-123289538D01*
X107879538Y-123226858D01*
X107928785Y-123153155D01*
X107962706Y-123071260D01*
X107980000Y-122984321D01*
X107980000Y-122895679D01*
X108070000Y-122895679D01*
X108070000Y-122984321D01*
X108087294Y-123071260D01*
X108121215Y-123153155D01*
X108170462Y-123226858D01*
X108233142Y-123289538D01*
X108306845Y-123338785D01*
X108388740Y-123372706D01*
X108475679Y-123390000D01*
X108564321Y-123390000D01*
X108651260Y-123372706D01*
X108733155Y-123338785D01*
X108806858Y-123289538D01*
X108820000Y-123276396D01*
X108833142Y-123289538D01*
X108906845Y-123338785D01*
X108988740Y-123372706D01*
X109075679Y-123390000D01*
X109164321Y-123390000D01*
X109251260Y-123372706D01*
X109333155Y-123338785D01*
X109406858Y-123289538D01*
X109469538Y-123226858D01*
X109518785Y-123153155D01*
X109552706Y-123071260D01*
X109570000Y-122984321D01*
X109570000Y-122895679D01*
X109552706Y-122808740D01*
X109518785Y-122726845D01*
X109469538Y-122653142D01*
X109406858Y-122590462D01*
X109333155Y-122541215D01*
X109251260Y-122507294D01*
X109164321Y-122490000D01*
X109075679Y-122490000D01*
X108988740Y-122507294D01*
X108906845Y-122541215D01*
X108833142Y-122590462D01*
X108820000Y-122603604D01*
X108806858Y-122590462D01*
X108733155Y-122541215D01*
X108651260Y-122507294D01*
X108564321Y-122490000D01*
X108475679Y-122490000D01*
X108388740Y-122507294D01*
X108306845Y-122541215D01*
X108233142Y-122590462D01*
X108170462Y-122653142D01*
X108121215Y-122726845D01*
X108087294Y-122808740D01*
X108070000Y-122895679D01*
X107980000Y-122895679D01*
X107962706Y-122808740D01*
X107928785Y-122726845D01*
X107879538Y-122653142D01*
X107816858Y-122590462D01*
X107743155Y-122541215D01*
X107661260Y-122507294D01*
X107574321Y-122490000D01*
X107485679Y-122490000D01*
X107398740Y-122507294D01*
X107316845Y-122541215D01*
X107243142Y-122590462D01*
X107180462Y-122653142D01*
X107131215Y-122726845D01*
X107097294Y-122808740D01*
X107080000Y-122895679D01*
X106512871Y-122895679D01*
X106484321Y-122890000D01*
X106395679Y-122890000D01*
X106308740Y-122907294D01*
X106226845Y-122941215D01*
X106153142Y-122990462D01*
X106090462Y-123053142D01*
X106041215Y-123126845D01*
X106007294Y-123208740D01*
X105990000Y-123295679D01*
X105972706Y-123208740D01*
X105938785Y-123126845D01*
X105889538Y-123053142D01*
X105826858Y-122990462D01*
X105753155Y-122941215D01*
X105671260Y-122907294D01*
X105584321Y-122890000D01*
X105495679Y-122890000D01*
X105408740Y-122907294D01*
X105326845Y-122941215D01*
X105253142Y-122990462D01*
X105190462Y-123053142D01*
X105141215Y-123126845D01*
X105107294Y-123208740D01*
X105090000Y-123295679D01*
X100928988Y-123295679D01*
X100985610Y-123158982D01*
X101025000Y-122960954D01*
X101025000Y-122759046D01*
X100985610Y-122561018D01*
X100908344Y-122374480D01*
X100796170Y-122206600D01*
X100653400Y-122063830D01*
X100485520Y-121951656D01*
X100422806Y-121925679D01*
X101250000Y-121925679D01*
X101250000Y-122014321D01*
X101267294Y-122101260D01*
X101301215Y-122183155D01*
X101350462Y-122256858D01*
X101413142Y-122319538D01*
X101486845Y-122368785D01*
X101501850Y-122375000D01*
X101486845Y-122381215D01*
X101413142Y-122430462D01*
X101350462Y-122493142D01*
X101301215Y-122566845D01*
X101267294Y-122648740D01*
X101250000Y-122735679D01*
X101250000Y-122824321D01*
X101267294Y-122911260D01*
X101301215Y-122993155D01*
X101350462Y-123066858D01*
X101413142Y-123129538D01*
X101486845Y-123178785D01*
X101568740Y-123212706D01*
X101655679Y-123230000D01*
X101744321Y-123230000D01*
X101831260Y-123212706D01*
X101913155Y-123178785D01*
X101986858Y-123129538D01*
X102049538Y-123066858D01*
X102098785Y-122993155D01*
X102132706Y-122911260D01*
X102150000Y-122824321D01*
X102150000Y-122735679D01*
X102132706Y-122648740D01*
X102098785Y-122566845D01*
X102049538Y-122493142D01*
X101986858Y-122430462D01*
X101913155Y-122381215D01*
X101898150Y-122375000D01*
X101913155Y-122368785D01*
X101986858Y-122319538D01*
X102049538Y-122256858D01*
X102098785Y-122183155D01*
X102132706Y-122101260D01*
X102150000Y-122014321D01*
X102150000Y-121925679D01*
X102132706Y-121838740D01*
X102098785Y-121756845D01*
X102049538Y-121683142D01*
X101986858Y-121620462D01*
X101913155Y-121571215D01*
X101831260Y-121537294D01*
X101744321Y-121520000D01*
X101655679Y-121520000D01*
X101568740Y-121537294D01*
X101486845Y-121571215D01*
X101413142Y-121620462D01*
X101350462Y-121683142D01*
X101301215Y-121756845D01*
X101267294Y-121838740D01*
X101250000Y-121925679D01*
X100422806Y-121925679D01*
X100298982Y-121874390D01*
X100100954Y-121835000D01*
X99899046Y-121835000D01*
X99701018Y-121874390D01*
X99514480Y-121951656D01*
X99346600Y-122063830D01*
X99205000Y-122205430D01*
X99205000Y-120974570D01*
X99346600Y-121116170D01*
X99514480Y-121228344D01*
X99701018Y-121305610D01*
X99899046Y-121345000D01*
X100100954Y-121345000D01*
X100298982Y-121305610D01*
X100485520Y-121228344D01*
X100653400Y-121116170D01*
X100796170Y-120973400D01*
X100908344Y-120805520D01*
X100985610Y-120618982D01*
X101025000Y-120420954D01*
X101025000Y-120219046D01*
X100985610Y-120021018D01*
X100954404Y-119945679D01*
X103830000Y-119945679D01*
X103830000Y-120034321D01*
X103847294Y-120121260D01*
X103881215Y-120203155D01*
X103930462Y-120276858D01*
X103993142Y-120339538D01*
X104066845Y-120388785D01*
X104148740Y-120422706D01*
X104235679Y-120440000D01*
X104324321Y-120440000D01*
X104411260Y-120422706D01*
X104493155Y-120388785D01*
X104508304Y-120378663D01*
X104520462Y-120396858D01*
X104583142Y-120459538D01*
X104585217Y-120460924D01*
X104561215Y-120496845D01*
X104527294Y-120578740D01*
X104510000Y-120665679D01*
X104510000Y-120754321D01*
X104527294Y-120841260D01*
X104561215Y-120923155D01*
X104610462Y-120996858D01*
X104673142Y-121059538D01*
X104746845Y-121108785D01*
X104828740Y-121142706D01*
X104915679Y-121160000D01*
X105004321Y-121160000D01*
X105091260Y-121142706D01*
X105173155Y-121108785D01*
X105226647Y-121073043D01*
X105273142Y-121119538D01*
X105346845Y-121168785D01*
X105428740Y-121202706D01*
X105515679Y-121220000D01*
X105604321Y-121220000D01*
X105691260Y-121202706D01*
X105773155Y-121168785D01*
X105846858Y-121119538D01*
X105909538Y-121056858D01*
X105958785Y-120983155D01*
X105992706Y-120901260D01*
X106010000Y-120814321D01*
X106010000Y-120725679D01*
X105992706Y-120638740D01*
X105962445Y-120565679D01*
X109570000Y-120565679D01*
X109570000Y-120654321D01*
X109587294Y-120741260D01*
X109621215Y-120823155D01*
X109670462Y-120896858D01*
X109733142Y-120959538D01*
X109806845Y-121008785D01*
X109888740Y-121042706D01*
X109975679Y-121060000D01*
X110064321Y-121060000D01*
X110151260Y-121042706D01*
X110233155Y-121008785D01*
X110306858Y-120959538D01*
X110369538Y-120896858D01*
X110418785Y-120823155D01*
X110452706Y-120741260D01*
X110470000Y-120654321D01*
X110470000Y-120565679D01*
X110468707Y-120559181D01*
X110501260Y-120552706D01*
X110583155Y-120518785D01*
X110656858Y-120469538D01*
X110719538Y-120406858D01*
X110731696Y-120388663D01*
X110746845Y-120398785D01*
X110828740Y-120432706D01*
X110915679Y-120450000D01*
X111004321Y-120450000D01*
X111091260Y-120432706D01*
X111173155Y-120398785D01*
X111246858Y-120349538D01*
X111309538Y-120286858D01*
X111358785Y-120213155D01*
X111392706Y-120131260D01*
X111410000Y-120044321D01*
X111410000Y-119955679D01*
X111392706Y-119868740D01*
X111358785Y-119786845D01*
X111348663Y-119771696D01*
X111366858Y-119759538D01*
X111429538Y-119696858D01*
X111450935Y-119664836D01*
X111456845Y-119668785D01*
X111538740Y-119702706D01*
X111625679Y-119720000D01*
X111714321Y-119720000D01*
X111801260Y-119702706D01*
X111883155Y-119668785D01*
X111956858Y-119619538D01*
X112019538Y-119556858D01*
X112068785Y-119483155D01*
X112102706Y-119401260D01*
X112120000Y-119314321D01*
X112120000Y-119225679D01*
X112102706Y-119138740D01*
X112068785Y-119056845D01*
X112064836Y-119050935D01*
X112096858Y-119029538D01*
X112159538Y-118966858D01*
X112160924Y-118964783D01*
X112196845Y-118988785D01*
X112278740Y-119022706D01*
X112365679Y-119040000D01*
X112454321Y-119040000D01*
X112541260Y-119022706D01*
X112623155Y-118988785D01*
X112696858Y-118939538D01*
X112759538Y-118876858D01*
X112808785Y-118803155D01*
X112842706Y-118721260D01*
X112860000Y-118634321D01*
X112860000Y-118545679D01*
X112842706Y-118458740D01*
X112808785Y-118376845D01*
X112784783Y-118340924D01*
X112786858Y-118339538D01*
X112849538Y-118276858D01*
X112898785Y-118203155D01*
X112932706Y-118121260D01*
X112950000Y-118034321D01*
X112950000Y-117945679D01*
X112932706Y-117858740D01*
X112898785Y-117776845D01*
X112849538Y-117703142D01*
X112786858Y-117640462D01*
X112713155Y-117591215D01*
X112631260Y-117557294D01*
X112544321Y-117540000D01*
X112455679Y-117540000D01*
X112368740Y-117557294D01*
X112286845Y-117591215D01*
X112213142Y-117640462D01*
X112150462Y-117703142D01*
X112101215Y-117776845D01*
X112067294Y-117858740D01*
X112050000Y-117945679D01*
X112050000Y-118034321D01*
X112067294Y-118121260D01*
X112101215Y-118203155D01*
X112125217Y-118239076D01*
X112123142Y-118240462D01*
X112060462Y-118303142D01*
X112059076Y-118305217D01*
X112023155Y-118281215D01*
X111941260Y-118247294D01*
X111854321Y-118230000D01*
X111765679Y-118230000D01*
X111678740Y-118247294D01*
X111596845Y-118281215D01*
X111523142Y-118330462D01*
X111460462Y-118393142D01*
X111411215Y-118466845D01*
X111377294Y-118548740D01*
X111360000Y-118635679D01*
X111360000Y-118724321D01*
X111377294Y-118811260D01*
X111411215Y-118893155D01*
X111415164Y-118899065D01*
X111383142Y-118920462D01*
X111320462Y-118983142D01*
X111299065Y-119015164D01*
X111293155Y-119011215D01*
X111211260Y-118977294D01*
X111124321Y-118960000D01*
X111035679Y-118960000D01*
X110948740Y-118977294D01*
X110866845Y-119011215D01*
X110793142Y-119060462D01*
X110730462Y-119123142D01*
X110681215Y-119196845D01*
X110647294Y-119278740D01*
X110630000Y-119365679D01*
X110630000Y-119454321D01*
X110647294Y-119541260D01*
X110681215Y-119623155D01*
X110691337Y-119638304D01*
X110673142Y-119650462D01*
X110610462Y-119713142D01*
X110598304Y-119731337D01*
X110583155Y-119721215D01*
X110501260Y-119687294D01*
X110414321Y-119670000D01*
X110325679Y-119670000D01*
X110238740Y-119687294D01*
X110156845Y-119721215D01*
X110083142Y-119770462D01*
X110020462Y-119833142D01*
X109971215Y-119906845D01*
X109937294Y-119988740D01*
X109920000Y-120075679D01*
X109920000Y-120164321D01*
X109921293Y-120170819D01*
X109888740Y-120177294D01*
X109806845Y-120211215D01*
X109733142Y-120260462D01*
X109670462Y-120323142D01*
X109621215Y-120396845D01*
X109587294Y-120478740D01*
X109570000Y-120565679D01*
X105962445Y-120565679D01*
X105958785Y-120556845D01*
X105909538Y-120483142D01*
X105846858Y-120420462D01*
X105773155Y-120371215D01*
X105691260Y-120337294D01*
X105604321Y-120320000D01*
X105515679Y-120320000D01*
X105428740Y-120337294D01*
X105346845Y-120371215D01*
X105293353Y-120406957D01*
X105246858Y-120360462D01*
X105244783Y-120359076D01*
X105268785Y-120323155D01*
X105302706Y-120241260D01*
X105320000Y-120154321D01*
X105320000Y-120065679D01*
X105302706Y-119978740D01*
X105268785Y-119896845D01*
X105219538Y-119823142D01*
X105156858Y-119760462D01*
X105083155Y-119711215D01*
X105001260Y-119677294D01*
X104914321Y-119660000D01*
X104825679Y-119660000D01*
X104738740Y-119677294D01*
X104656845Y-119711215D01*
X104641696Y-119721337D01*
X104629538Y-119703142D01*
X104566858Y-119640462D01*
X104493155Y-119591215D01*
X104411260Y-119557294D01*
X104324321Y-119540000D01*
X104235679Y-119540000D01*
X104148740Y-119557294D01*
X104066845Y-119591215D01*
X103993142Y-119640462D01*
X103930462Y-119703142D01*
X103881215Y-119776845D01*
X103847294Y-119858740D01*
X103830000Y-119945679D01*
X100954404Y-119945679D01*
X100908344Y-119834480D01*
X100796170Y-119666600D01*
X100653400Y-119523830D01*
X100485520Y-119411656D01*
X100298982Y-119334390D01*
X100100954Y-119295000D01*
X99899046Y-119295000D01*
X99701018Y-119334390D01*
X99514480Y-119411656D01*
X99346600Y-119523830D01*
X99205000Y-119665430D01*
X99205000Y-118434570D01*
X99346600Y-118576170D01*
X99514480Y-118688344D01*
X99701018Y-118765610D01*
X99899046Y-118805000D01*
X100100954Y-118805000D01*
X100298982Y-118765610D01*
X100467811Y-118695679D01*
X102190000Y-118695679D01*
X102190000Y-118784321D01*
X102207294Y-118871260D01*
X102241215Y-118953155D01*
X102290462Y-119026858D01*
X102353142Y-119089538D01*
X102426845Y-119138785D01*
X102508740Y-119172706D01*
X102595679Y-119190000D01*
X102684321Y-119190000D01*
X102771260Y-119172706D01*
X102808741Y-119157181D01*
X102811215Y-119163155D01*
X102860462Y-119236858D01*
X102923142Y-119299538D01*
X102996845Y-119348785D01*
X103078740Y-119382706D01*
X103165679Y-119400000D01*
X103254321Y-119400000D01*
X103341260Y-119382706D01*
X103423155Y-119348785D01*
X103454456Y-119327870D01*
X103460462Y-119336858D01*
X103523142Y-119399538D01*
X103596845Y-119448785D01*
X103678740Y-119482706D01*
X103765679Y-119500000D01*
X103854321Y-119500000D01*
X103941260Y-119482706D01*
X104023155Y-119448785D01*
X104096858Y-119399538D01*
X104159538Y-119336858D01*
X104208785Y-119263155D01*
X104242706Y-119181260D01*
X104260000Y-119094321D01*
X104260000Y-119005679D01*
X104242706Y-118918740D01*
X104208785Y-118836845D01*
X104159538Y-118763142D01*
X104096858Y-118700462D01*
X104023155Y-118651215D01*
X103941260Y-118617294D01*
X103854321Y-118600000D01*
X103765679Y-118600000D01*
X103678740Y-118617294D01*
X103596845Y-118651215D01*
X103565544Y-118672130D01*
X103559538Y-118663142D01*
X103496858Y-118600462D01*
X103480957Y-118589837D01*
X103498785Y-118563155D01*
X103532706Y-118481260D01*
X103550000Y-118394321D01*
X103550000Y-118305679D01*
X103532706Y-118218740D01*
X103498785Y-118136845D01*
X103449538Y-118063142D01*
X103386858Y-118000462D01*
X103313155Y-117951215D01*
X103231260Y-117917294D01*
X103144321Y-117900000D01*
X103055679Y-117900000D01*
X102968740Y-117917294D01*
X102886845Y-117951215D01*
X102813142Y-118000462D01*
X102750462Y-118063142D01*
X102701215Y-118136845D01*
X102667294Y-118218740D01*
X102653119Y-118290000D01*
X102595679Y-118290000D01*
X102508740Y-118307294D01*
X102426845Y-118341215D01*
X102353142Y-118390462D01*
X102290462Y-118453142D01*
X102241215Y-118526845D01*
X102207294Y-118608740D01*
X102190000Y-118695679D01*
X100467811Y-118695679D01*
X100485520Y-118688344D01*
X100653400Y-118576170D01*
X100796170Y-118433400D01*
X100908344Y-118265520D01*
X100985610Y-118078982D01*
X101025000Y-117880954D01*
X101025000Y-117679046D01*
X100985610Y-117481018D01*
X100908344Y-117294480D01*
X100796170Y-117126600D01*
X100695249Y-117025679D01*
X112550000Y-117025679D01*
X112550000Y-117114321D01*
X112567294Y-117201260D01*
X112601215Y-117283155D01*
X112650462Y-117356858D01*
X112713142Y-117419538D01*
X112786845Y-117468785D01*
X112868740Y-117502706D01*
X112955679Y-117520000D01*
X113044321Y-117520000D01*
X113131260Y-117502706D01*
X113213155Y-117468785D01*
X113286858Y-117419538D01*
X113349538Y-117356858D01*
X113398785Y-117283155D01*
X113432706Y-117201260D01*
X113450000Y-117114321D01*
X113450000Y-117025679D01*
X113432706Y-116938740D01*
X113398785Y-116856845D01*
X113349538Y-116783142D01*
X113286858Y-116720462D01*
X113213155Y-116671215D01*
X113131260Y-116637294D01*
X113044321Y-116620000D01*
X112955679Y-116620000D01*
X112868740Y-116637294D01*
X112786845Y-116671215D01*
X112713142Y-116720462D01*
X112650462Y-116783142D01*
X112601215Y-116856845D01*
X112567294Y-116938740D01*
X112550000Y-117025679D01*
X100695249Y-117025679D01*
X100653400Y-116983830D01*
X100485520Y-116871656D01*
X100298982Y-116794390D01*
X100100954Y-116755000D01*
X99899046Y-116755000D01*
X99701018Y-116794390D01*
X99514480Y-116871656D01*
X99346600Y-116983830D01*
X99205000Y-117125430D01*
X99205000Y-115894570D01*
X99346600Y-116036170D01*
X99514480Y-116148344D01*
X99701018Y-116225610D01*
X99899046Y-116265000D01*
X100100954Y-116265000D01*
X100298982Y-116225610D01*
X100485520Y-116148344D01*
X100653400Y-116036170D01*
X100796170Y-115893400D01*
X100908344Y-115725520D01*
X100985610Y-115538982D01*
X101025000Y-115340954D01*
X101025000Y-115139046D01*
X101012396Y-115075679D01*
X101260000Y-115075679D01*
X101260000Y-115164321D01*
X101277294Y-115251260D01*
X101311215Y-115333155D01*
X101360462Y-115406858D01*
X101423142Y-115469538D01*
X101496845Y-115518785D01*
X101578740Y-115552706D01*
X101665679Y-115570000D01*
X101754321Y-115570000D01*
X101841260Y-115552706D01*
X101923155Y-115518785D01*
X101996858Y-115469538D01*
X102059538Y-115406858D01*
X102108785Y-115333155D01*
X102142706Y-115251260D01*
X102160000Y-115164321D01*
X102160000Y-115075679D01*
X102142706Y-114988740D01*
X102108785Y-114906845D01*
X102059538Y-114833142D01*
X101996858Y-114770462D01*
X101923155Y-114721215D01*
X101841260Y-114687294D01*
X101754321Y-114670000D01*
X101665679Y-114670000D01*
X101578740Y-114687294D01*
X101496845Y-114721215D01*
X101423142Y-114770462D01*
X101360462Y-114833142D01*
X101311215Y-114906845D01*
X101277294Y-114988740D01*
X101260000Y-115075679D01*
X101012396Y-115075679D01*
X100985610Y-114941018D01*
X100908344Y-114754480D01*
X100796170Y-114586600D01*
X100653400Y-114443830D01*
X100521473Y-114355679D01*
X102270000Y-114355679D01*
X102270000Y-114444321D01*
X102287294Y-114531260D01*
X102321215Y-114613155D01*
X102370462Y-114686858D01*
X102433142Y-114749538D01*
X102506845Y-114798785D01*
X102588740Y-114832706D01*
X102675679Y-114850000D01*
X102764321Y-114850000D01*
X102851260Y-114832706D01*
X102868225Y-114825679D01*
X103270000Y-114825679D01*
X103270000Y-114914321D01*
X103287294Y-115001260D01*
X103321215Y-115083155D01*
X103370462Y-115156858D01*
X103433142Y-115219538D01*
X103506845Y-115268785D01*
X103588740Y-115302706D01*
X103675679Y-115320000D01*
X103764321Y-115320000D01*
X103851260Y-115302706D01*
X103933155Y-115268785D01*
X104006858Y-115219538D01*
X104069538Y-115156858D01*
X104118785Y-115083155D01*
X104152706Y-115001260D01*
X104170000Y-114914321D01*
X104170000Y-114825679D01*
X104152706Y-114738740D01*
X104118785Y-114656845D01*
X104069538Y-114583142D01*
X104006858Y-114520462D01*
X103933155Y-114471215D01*
X103851260Y-114437294D01*
X103764321Y-114420000D01*
X103675679Y-114420000D01*
X103588740Y-114437294D01*
X103506845Y-114471215D01*
X103433142Y-114520462D01*
X103370462Y-114583142D01*
X103321215Y-114656845D01*
X103287294Y-114738740D01*
X103270000Y-114825679D01*
X102868225Y-114825679D01*
X102933155Y-114798785D01*
X103006858Y-114749538D01*
X103069538Y-114686858D01*
X103118785Y-114613155D01*
X103152706Y-114531260D01*
X103170000Y-114444321D01*
X103170000Y-114355679D01*
X103152706Y-114268740D01*
X103130729Y-114215679D01*
X104070000Y-114215679D01*
X104070000Y-114304321D01*
X104087294Y-114391260D01*
X104121215Y-114473155D01*
X104170462Y-114546858D01*
X104233142Y-114609538D01*
X104306845Y-114658785D01*
X104388740Y-114692706D01*
X104475679Y-114710000D01*
X104564321Y-114710000D01*
X104651260Y-114692706D01*
X104733155Y-114658785D01*
X104806858Y-114609538D01*
X104869538Y-114546858D01*
X104918785Y-114473155D01*
X104952706Y-114391260D01*
X104955805Y-114375679D01*
X111300000Y-114375679D01*
X111300000Y-114464321D01*
X111317294Y-114551260D01*
X111351215Y-114633155D01*
X111400462Y-114706858D01*
X111452952Y-114759348D01*
X111421215Y-114806845D01*
X111387294Y-114888740D01*
X111370000Y-114975679D01*
X111370000Y-115064321D01*
X111387294Y-115151260D01*
X111421215Y-115233155D01*
X111470462Y-115306858D01*
X111533142Y-115369538D01*
X111606845Y-115418785D01*
X111688740Y-115452706D01*
X111775679Y-115470000D01*
X111864321Y-115470000D01*
X111951260Y-115452706D01*
X112033155Y-115418785D01*
X112106858Y-115369538D01*
X112169538Y-115306858D01*
X112218785Y-115233155D01*
X112252706Y-115151260D01*
X112260913Y-115110000D01*
X112344321Y-115110000D01*
X112431260Y-115092706D01*
X112501552Y-115063591D01*
X112530462Y-115106858D01*
X112593142Y-115169538D01*
X112666845Y-115218785D01*
X112748740Y-115252706D01*
X112835679Y-115270000D01*
X112924321Y-115270000D01*
X113011260Y-115252706D01*
X113093155Y-115218785D01*
X113166858Y-115169538D01*
X113229538Y-115106858D01*
X113278785Y-115033155D01*
X113312706Y-114951260D01*
X113330000Y-114864321D01*
X113330000Y-114775679D01*
X113312706Y-114688740D01*
X113278785Y-114606845D01*
X113229538Y-114533142D01*
X113166858Y-114470462D01*
X113093155Y-114421215D01*
X113011260Y-114387294D01*
X112924321Y-114370000D01*
X112835679Y-114370000D01*
X112748740Y-114387294D01*
X112678448Y-114416409D01*
X112649538Y-114373142D01*
X112586858Y-114310462D01*
X112513155Y-114261215D01*
X112431260Y-114227294D01*
X112344321Y-114210000D01*
X112255679Y-114210000D01*
X112168740Y-114227294D01*
X112158937Y-114231354D01*
X112148785Y-114206845D01*
X112099538Y-114133142D01*
X112036858Y-114070462D01*
X111963155Y-114021215D01*
X111881260Y-113987294D01*
X111794321Y-113970000D01*
X111705679Y-113970000D01*
X111618740Y-113987294D01*
X111536845Y-114021215D01*
X111463142Y-114070462D01*
X111400462Y-114133142D01*
X111351215Y-114206845D01*
X111317294Y-114288740D01*
X111300000Y-114375679D01*
X104955805Y-114375679D01*
X104970000Y-114304321D01*
X104970000Y-114215679D01*
X104952706Y-114128740D01*
X104918785Y-114046845D01*
X104893251Y-114008630D01*
X104906858Y-113999538D01*
X104969538Y-113936858D01*
X104975544Y-113927870D01*
X105006845Y-113948785D01*
X105088740Y-113982706D01*
X105175679Y-114000000D01*
X105264321Y-114000000D01*
X105351260Y-113982706D01*
X105433155Y-113948785D01*
X105506858Y-113899538D01*
X105569538Y-113836858D01*
X105618785Y-113763155D01*
X105652706Y-113681260D01*
X105670000Y-113594321D01*
X105670000Y-113505679D01*
X105652706Y-113418740D01*
X105618785Y-113336845D01*
X105597870Y-113305544D01*
X105606858Y-113299538D01*
X105669538Y-113236858D01*
X105718785Y-113163155D01*
X105752706Y-113081260D01*
X105770000Y-112994321D01*
X105770000Y-112905679D01*
X105752706Y-112818740D01*
X105718785Y-112736845D01*
X105669538Y-112663142D01*
X105606858Y-112600462D01*
X105533155Y-112551215D01*
X105451260Y-112517294D01*
X105364321Y-112500000D01*
X105275679Y-112500000D01*
X105188740Y-112517294D01*
X105106845Y-112551215D01*
X105082472Y-112567500D01*
X105118785Y-112513155D01*
X105146733Y-112445679D01*
X105830000Y-112445679D01*
X105830000Y-112534321D01*
X105847294Y-112621260D01*
X105881215Y-112703155D01*
X105930462Y-112776858D01*
X105993142Y-112839538D01*
X106066845Y-112888785D01*
X106148740Y-112922706D01*
X106235679Y-112940000D01*
X106324321Y-112940000D01*
X106411260Y-112922706D01*
X106493155Y-112888785D01*
X106566858Y-112839538D01*
X106629538Y-112776858D01*
X106678785Y-112703155D01*
X106712706Y-112621260D01*
X106725751Y-112555679D01*
X109060000Y-112555679D01*
X109060000Y-112644321D01*
X109077294Y-112731260D01*
X109111215Y-112813155D01*
X109160462Y-112886858D01*
X109223142Y-112949538D01*
X109296845Y-112998785D01*
X109378740Y-113032706D01*
X109420000Y-113040913D01*
X109420000Y-113124321D01*
X109437294Y-113211260D01*
X109471215Y-113293155D01*
X109520462Y-113366858D01*
X109583142Y-113429538D01*
X109656845Y-113478785D01*
X109738740Y-113512706D01*
X109825679Y-113530000D01*
X109914321Y-113530000D01*
X110001260Y-113512706D01*
X110070812Y-113483897D01*
X110091215Y-113533155D01*
X110101337Y-113548304D01*
X110083142Y-113560462D01*
X110020462Y-113623142D01*
X109971215Y-113696845D01*
X109937294Y-113778740D01*
X109920000Y-113865679D01*
X109920000Y-113954321D01*
X109937294Y-114041260D01*
X109971215Y-114123155D01*
X110020462Y-114196858D01*
X110083142Y-114259538D01*
X110156845Y-114308785D01*
X110238740Y-114342706D01*
X110325679Y-114360000D01*
X110414321Y-114360000D01*
X110501260Y-114342706D01*
X110583155Y-114308785D01*
X110656858Y-114259538D01*
X110719538Y-114196858D01*
X110745554Y-114157922D01*
X110746845Y-114158785D01*
X110828740Y-114192706D01*
X110915679Y-114210000D01*
X111004321Y-114210000D01*
X111091260Y-114192706D01*
X111173155Y-114158785D01*
X111246858Y-114109538D01*
X111309538Y-114046858D01*
X111358785Y-113973155D01*
X111392706Y-113891260D01*
X111410000Y-113804321D01*
X111410000Y-113715679D01*
X111392706Y-113628740D01*
X111358785Y-113546845D01*
X111309538Y-113473142D01*
X111246858Y-113410462D01*
X111173155Y-113361215D01*
X111091260Y-113327294D01*
X111004321Y-113310000D01*
X110940000Y-113310000D01*
X110940000Y-113275679D01*
X110922706Y-113188740D01*
X110888785Y-113106845D01*
X110867961Y-113075679D01*
X111490000Y-113075679D01*
X111490000Y-113164321D01*
X111507294Y-113251260D01*
X111541215Y-113333155D01*
X111590462Y-113406858D01*
X111653142Y-113469538D01*
X111726845Y-113518785D01*
X111808740Y-113552706D01*
X111895679Y-113570000D01*
X111984321Y-113570000D01*
X112071260Y-113552706D01*
X112153155Y-113518785D01*
X112226858Y-113469538D01*
X112289538Y-113406858D01*
X112338785Y-113333155D01*
X112372706Y-113251260D01*
X112390000Y-113164321D01*
X112390000Y-113075679D01*
X112372706Y-112988740D01*
X112368440Y-112978440D01*
X112378740Y-112982706D01*
X112465679Y-113000000D01*
X112554321Y-113000000D01*
X112641260Y-112982706D01*
X112723155Y-112948785D01*
X112796858Y-112899538D01*
X112859538Y-112836858D01*
X112908785Y-112763155D01*
X112942706Y-112681260D01*
X112951095Y-112639088D01*
X112955679Y-112640000D01*
X113044321Y-112640000D01*
X113131260Y-112622706D01*
X113213155Y-112588785D01*
X113286858Y-112539538D01*
X113349538Y-112476858D01*
X113398785Y-112403155D01*
X113432706Y-112321260D01*
X113450000Y-112234321D01*
X113450000Y-112145679D01*
X113432706Y-112058740D01*
X113398785Y-111976845D01*
X113349538Y-111903142D01*
X113286858Y-111840462D01*
X113213155Y-111791215D01*
X113131260Y-111757294D01*
X113044321Y-111740000D01*
X112955679Y-111740000D01*
X112868740Y-111757294D01*
X112786845Y-111791215D01*
X112713142Y-111840462D01*
X112650462Y-111903142D01*
X112601215Y-111976845D01*
X112567294Y-112058740D01*
X112558905Y-112100912D01*
X112554321Y-112100000D01*
X112465679Y-112100000D01*
X112378740Y-112117294D01*
X112296845Y-112151215D01*
X112223142Y-112200462D01*
X112160462Y-112263142D01*
X112111215Y-112336845D01*
X112077294Y-112418740D01*
X112060000Y-112505679D01*
X112060000Y-112594321D01*
X112077294Y-112681260D01*
X112081560Y-112691560D01*
X112071260Y-112687294D01*
X111984321Y-112670000D01*
X111895679Y-112670000D01*
X111808740Y-112687294D01*
X111726845Y-112721215D01*
X111653142Y-112770462D01*
X111590462Y-112833142D01*
X111541215Y-112906845D01*
X111507294Y-112988740D01*
X111490000Y-113075679D01*
X110867961Y-113075679D01*
X110839538Y-113033142D01*
X110776858Y-112970462D01*
X110703155Y-112921215D01*
X110621260Y-112887294D01*
X110534321Y-112870000D01*
X110445679Y-112870000D01*
X110358740Y-112887294D01*
X110289188Y-112916103D01*
X110268785Y-112866845D01*
X110219538Y-112793142D01*
X110156858Y-112730462D01*
X110083155Y-112681215D01*
X110001260Y-112647294D01*
X109960000Y-112639087D01*
X109960000Y-112555679D01*
X109942706Y-112468740D01*
X109908785Y-112386845D01*
X109859538Y-112313142D01*
X109796858Y-112250462D01*
X109723155Y-112201215D01*
X109641260Y-112167294D01*
X109554321Y-112150000D01*
X109465679Y-112150000D01*
X109378740Y-112167294D01*
X109296845Y-112201215D01*
X109223142Y-112250462D01*
X109160462Y-112313142D01*
X109111215Y-112386845D01*
X109077294Y-112468740D01*
X109060000Y-112555679D01*
X106725751Y-112555679D01*
X106730000Y-112534321D01*
X106730000Y-112445679D01*
X106712706Y-112358740D01*
X106698807Y-112325183D01*
X106711260Y-112322706D01*
X106793155Y-112288785D01*
X106866858Y-112239538D01*
X106929538Y-112176858D01*
X106978785Y-112103155D01*
X107012706Y-112021260D01*
X107030000Y-111934321D01*
X107030000Y-111845679D01*
X107012706Y-111758740D01*
X106978785Y-111676845D01*
X106929538Y-111603142D01*
X106866858Y-111540462D01*
X106793155Y-111491215D01*
X106711260Y-111457294D01*
X106624321Y-111440000D01*
X106535679Y-111440000D01*
X106448740Y-111457294D01*
X106366845Y-111491215D01*
X106293142Y-111540462D01*
X106230462Y-111603142D01*
X106181215Y-111676845D01*
X106147294Y-111758740D01*
X106130000Y-111845679D01*
X106130000Y-111934321D01*
X106147294Y-112021260D01*
X106161193Y-112054817D01*
X106148740Y-112057294D01*
X106066845Y-112091215D01*
X105993142Y-112140462D01*
X105930462Y-112203142D01*
X105881215Y-112276845D01*
X105847294Y-112358740D01*
X105830000Y-112445679D01*
X105146733Y-112445679D01*
X105152706Y-112431260D01*
X105170000Y-112344321D01*
X105170000Y-112255679D01*
X105152706Y-112168740D01*
X105118785Y-112086845D01*
X105069538Y-112013142D01*
X105006858Y-111950462D01*
X104933155Y-111901215D01*
X104851260Y-111867294D01*
X104764321Y-111850000D01*
X104675679Y-111850000D01*
X104588740Y-111867294D01*
X104506845Y-111901215D01*
X104433142Y-111950462D01*
X104370462Y-112013142D01*
X104321215Y-112086845D01*
X104287294Y-112168740D01*
X104270000Y-112255679D01*
X104270000Y-112344321D01*
X104287294Y-112431260D01*
X104321215Y-112513155D01*
X104370462Y-112586858D01*
X104433142Y-112649538D01*
X104506845Y-112698785D01*
X104588740Y-112732706D01*
X104675679Y-112750000D01*
X104764321Y-112750000D01*
X104851260Y-112732706D01*
X104933155Y-112698785D01*
X104957528Y-112682500D01*
X104921215Y-112736845D01*
X104887294Y-112818740D01*
X104870000Y-112905679D01*
X104870000Y-112994321D01*
X104887294Y-113081260D01*
X104921215Y-113163155D01*
X104942130Y-113194456D01*
X104933142Y-113200462D01*
X104870462Y-113263142D01*
X104864456Y-113272130D01*
X104833155Y-113251215D01*
X104751260Y-113217294D01*
X104664321Y-113200000D01*
X104575679Y-113200000D01*
X104488740Y-113217294D01*
X104406845Y-113251215D01*
X104333142Y-113300462D01*
X104270462Y-113363142D01*
X104221215Y-113436845D01*
X104187294Y-113518740D01*
X104170000Y-113605679D01*
X104170000Y-113694321D01*
X104187294Y-113781260D01*
X104221215Y-113863155D01*
X104246749Y-113901370D01*
X104233142Y-113910462D01*
X104170462Y-113973142D01*
X104121215Y-114046845D01*
X104087294Y-114128740D01*
X104070000Y-114215679D01*
X103130729Y-114215679D01*
X103118785Y-114186845D01*
X103069538Y-114113142D01*
X103006858Y-114050462D01*
X102933155Y-114001215D01*
X102851260Y-113967294D01*
X102764321Y-113950000D01*
X102675679Y-113950000D01*
X102588740Y-113967294D01*
X102506845Y-114001215D01*
X102433142Y-114050462D01*
X102370462Y-114113142D01*
X102321215Y-114186845D01*
X102287294Y-114268740D01*
X102270000Y-114355679D01*
X100521473Y-114355679D01*
X100485520Y-114331656D01*
X100298982Y-114254390D01*
X100100954Y-114215000D01*
X99899046Y-114215000D01*
X99701018Y-114254390D01*
X99514480Y-114331656D01*
X99346600Y-114443830D01*
X99205000Y-114585430D01*
X99205000Y-113354570D01*
X99346600Y-113496170D01*
X99514480Y-113608344D01*
X99701018Y-113685610D01*
X99899046Y-113725000D01*
X100100954Y-113725000D01*
X100298982Y-113685610D01*
X100485520Y-113608344D01*
X100653400Y-113496170D01*
X100796170Y-113353400D01*
X100908344Y-113185520D01*
X100985610Y-112998982D01*
X101025000Y-112800954D01*
X101025000Y-112655679D01*
X101210000Y-112655679D01*
X101210000Y-112744321D01*
X101227294Y-112831260D01*
X101261215Y-112913155D01*
X101310462Y-112986858D01*
X101373142Y-113049538D01*
X101446845Y-113098785D01*
X101528740Y-113132706D01*
X101615679Y-113150000D01*
X101704321Y-113150000D01*
X101791260Y-113132706D01*
X101873155Y-113098785D01*
X101946858Y-113049538D01*
X102009538Y-112986858D01*
X102058785Y-112913155D01*
X102092706Y-112831260D01*
X102110000Y-112744321D01*
X102110000Y-112655679D01*
X102092833Y-112569377D01*
X102136845Y-112598785D01*
X102218740Y-112632706D01*
X102305679Y-112650000D01*
X102394321Y-112650000D01*
X102481260Y-112632706D01*
X102563155Y-112598785D01*
X102636858Y-112549538D01*
X102699538Y-112486858D01*
X102748785Y-112413155D01*
X102782706Y-112331260D01*
X102800000Y-112244321D01*
X102800000Y-112155679D01*
X102782706Y-112068740D01*
X102748785Y-111986845D01*
X102699538Y-111913142D01*
X102636858Y-111850462D01*
X102563155Y-111801215D01*
X102481260Y-111767294D01*
X102394321Y-111750000D01*
X102305679Y-111750000D01*
X102218740Y-111767294D01*
X102136845Y-111801215D01*
X102063142Y-111850462D01*
X102000462Y-111913142D01*
X101951215Y-111986845D01*
X101917294Y-112068740D01*
X101900000Y-112155679D01*
X101900000Y-112244321D01*
X101917167Y-112330623D01*
X101873155Y-112301215D01*
X101791260Y-112267294D01*
X101704321Y-112250000D01*
X101615679Y-112250000D01*
X101528740Y-112267294D01*
X101446845Y-112301215D01*
X101373142Y-112350462D01*
X101310462Y-112413142D01*
X101261215Y-112486845D01*
X101227294Y-112568740D01*
X101210000Y-112655679D01*
X101025000Y-112655679D01*
X101025000Y-112599046D01*
X100985610Y-112401018D01*
X100908344Y-112214480D01*
X100796170Y-112046600D01*
X100653400Y-111903830D01*
X100485520Y-111791656D01*
X100298982Y-111714390D01*
X100100954Y-111675000D01*
X99899046Y-111675000D01*
X99701018Y-111714390D01*
X99514480Y-111791656D01*
X99346600Y-111903830D01*
X99205000Y-112045430D01*
X99205000Y-110814570D01*
X99346600Y-110956170D01*
X99514480Y-111068344D01*
X99701018Y-111145610D01*
X99899046Y-111185000D01*
X100100954Y-111185000D01*
X100298982Y-111145610D01*
X100485520Y-111068344D01*
X100653400Y-110956170D01*
X100796170Y-110813400D01*
X100908344Y-110645520D01*
X100985610Y-110458982D01*
X101025000Y-110260954D01*
X101025000Y-110059046D01*
X100985610Y-109861018D01*
X100908344Y-109674480D01*
X100796170Y-109506600D01*
X100653400Y-109363830D01*
X100485520Y-109251656D01*
X100298982Y-109174390D01*
X100100954Y-109135000D01*
X99899046Y-109135000D01*
X99701018Y-109174390D01*
X99514480Y-109251656D01*
X99346600Y-109363830D01*
X99205000Y-109505430D01*
X99205000Y-108274570D01*
X99346600Y-108416170D01*
X99514480Y-108528344D01*
X99701018Y-108605610D01*
X99899046Y-108645000D01*
X100100954Y-108645000D01*
X100298982Y-108605610D01*
X100485520Y-108528344D01*
X100609236Y-108445679D01*
X101430000Y-108445679D01*
X101430000Y-108534321D01*
X101447294Y-108621260D01*
X101481215Y-108703155D01*
X101530462Y-108776858D01*
X101593142Y-108839538D01*
X101666845Y-108888785D01*
X101748740Y-108922706D01*
X101835679Y-108940000D01*
X101924321Y-108940000D01*
X102011260Y-108922706D01*
X102093155Y-108888785D01*
X102166858Y-108839538D01*
X102180000Y-108826396D01*
X102193142Y-108839538D01*
X102266845Y-108888785D01*
X102348740Y-108922706D01*
X102435679Y-108940000D01*
X102524321Y-108940000D01*
X102611260Y-108922706D01*
X102693155Y-108888785D01*
X102729076Y-108864783D01*
X102730462Y-108866858D01*
X102793142Y-108929538D01*
X102866845Y-108978785D01*
X102948740Y-109012706D01*
X103035679Y-109030000D01*
X103124321Y-109030000D01*
X103211260Y-109012706D01*
X103293155Y-108978785D01*
X103366858Y-108929538D01*
X103380000Y-108916396D01*
X103393142Y-108929538D01*
X103466845Y-108978785D01*
X103548740Y-109012706D01*
X103635679Y-109030000D01*
X103724321Y-109030000D01*
X103811260Y-109012706D01*
X103893155Y-108978785D01*
X103966858Y-108929538D01*
X103980000Y-108916396D01*
X103993142Y-108929538D01*
X104066845Y-108978785D01*
X104148740Y-109012706D01*
X104235679Y-109030000D01*
X104324321Y-109030000D01*
X104411260Y-109012706D01*
X104493155Y-108978785D01*
X104566858Y-108929538D01*
X104629538Y-108866858D01*
X104678785Y-108793155D01*
X104712706Y-108711260D01*
X104730000Y-108624321D01*
X104730000Y-108535679D01*
X104712706Y-108448740D01*
X104678785Y-108366845D01*
X104629538Y-108293142D01*
X104566858Y-108230462D01*
X104493155Y-108181215D01*
X104411260Y-108147294D01*
X104324321Y-108130000D01*
X104235679Y-108130000D01*
X104148740Y-108147294D01*
X104066845Y-108181215D01*
X103993142Y-108230462D01*
X103980000Y-108243604D01*
X103966858Y-108230462D01*
X103893155Y-108181215D01*
X103811260Y-108147294D01*
X103724321Y-108130000D01*
X103635679Y-108130000D01*
X103548740Y-108147294D01*
X103466845Y-108181215D01*
X103393142Y-108230462D01*
X103380000Y-108243604D01*
X103366858Y-108230462D01*
X103293155Y-108181215D01*
X103211260Y-108147294D01*
X103124321Y-108130000D01*
X103035679Y-108130000D01*
X102948740Y-108147294D01*
X102866845Y-108181215D01*
X102830924Y-108205217D01*
X102829538Y-108203142D01*
X102766858Y-108140462D01*
X102729768Y-108115679D01*
X110510000Y-108115679D01*
X110510000Y-108204321D01*
X110527294Y-108291260D01*
X110561215Y-108373155D01*
X110610462Y-108446858D01*
X110673142Y-108509538D01*
X110746845Y-108558785D01*
X110828740Y-108592706D01*
X110915679Y-108610000D01*
X111004321Y-108610000D01*
X111091260Y-108592706D01*
X111173155Y-108558785D01*
X111246858Y-108509538D01*
X111309538Y-108446858D01*
X111358785Y-108373155D01*
X111392706Y-108291260D01*
X111410000Y-108204321D01*
X111410000Y-108115679D01*
X111392706Y-108028740D01*
X111358785Y-107946845D01*
X111309538Y-107873142D01*
X111246858Y-107810462D01*
X111173155Y-107761215D01*
X111091260Y-107727294D01*
X111004321Y-107710000D01*
X110915679Y-107710000D01*
X110828740Y-107727294D01*
X110746845Y-107761215D01*
X110673142Y-107810462D01*
X110610462Y-107873142D01*
X110561215Y-107946845D01*
X110527294Y-108028740D01*
X110510000Y-108115679D01*
X102729768Y-108115679D01*
X102693155Y-108091215D01*
X102611260Y-108057294D01*
X102524321Y-108040000D01*
X102435679Y-108040000D01*
X102348740Y-108057294D01*
X102266845Y-108091215D01*
X102193142Y-108140462D01*
X102180000Y-108153604D01*
X102166858Y-108140462D01*
X102093155Y-108091215D01*
X102011260Y-108057294D01*
X101924321Y-108040000D01*
X101835679Y-108040000D01*
X101748740Y-108057294D01*
X101666845Y-108091215D01*
X101593142Y-108140462D01*
X101530462Y-108203142D01*
X101481215Y-108276845D01*
X101447294Y-108358740D01*
X101430000Y-108445679D01*
X100609236Y-108445679D01*
X100653400Y-108416170D01*
X100796170Y-108273400D01*
X100908344Y-108105520D01*
X100985610Y-107918982D01*
X101025000Y-107720954D01*
X101025000Y-107519046D01*
X100985610Y-107321018D01*
X100908344Y-107134480D01*
X100796170Y-106966600D01*
X100653400Y-106823830D01*
X100485520Y-106711656D01*
X100298982Y-106634390D01*
X100100954Y-106595000D01*
X99899046Y-106595000D01*
X99701018Y-106634390D01*
X99514480Y-106711656D01*
X99346600Y-106823830D01*
X99205000Y-106965430D01*
X99205000Y-106475679D01*
X101560000Y-106475679D01*
X101560000Y-106564321D01*
X101577294Y-106651260D01*
X101611215Y-106733155D01*
X101660462Y-106806858D01*
X101723142Y-106869538D01*
X101796845Y-106918785D01*
X101878740Y-106952706D01*
X101965679Y-106970000D01*
X102054321Y-106970000D01*
X102141260Y-106952706D01*
X102223155Y-106918785D01*
X102296858Y-106869538D01*
X102310000Y-106856396D01*
X102323142Y-106869538D01*
X102396845Y-106918785D01*
X102478740Y-106952706D01*
X102565679Y-106970000D01*
X102654321Y-106970000D01*
X102741260Y-106952706D01*
X102823155Y-106918785D01*
X102896858Y-106869538D01*
X102959538Y-106806858D01*
X103008785Y-106733155D01*
X103042706Y-106651260D01*
X103060000Y-106564321D01*
X103060000Y-106515679D01*
X106770000Y-106515679D01*
X106770000Y-106604321D01*
X106787294Y-106691260D01*
X106821215Y-106773155D01*
X106870462Y-106846858D01*
X106933142Y-106909538D01*
X107006845Y-106958785D01*
X107088740Y-106992706D01*
X107175679Y-107010000D01*
X107264321Y-107010000D01*
X107351260Y-106992706D01*
X107433155Y-106958785D01*
X107452769Y-106945679D01*
X111840000Y-106945679D01*
X111840000Y-107034321D01*
X111857294Y-107121260D01*
X111891215Y-107203155D01*
X111940462Y-107276858D01*
X112003142Y-107339538D01*
X112003833Y-107340000D01*
X112003142Y-107340462D01*
X111940462Y-107403142D01*
X111891215Y-107476845D01*
X111857294Y-107558740D01*
X111840000Y-107645679D01*
X111840000Y-107734321D01*
X111857294Y-107821260D01*
X111891215Y-107903155D01*
X111940462Y-107976858D01*
X112003142Y-108039538D01*
X112076845Y-108088785D01*
X112158740Y-108122706D01*
X112245679Y-108140000D01*
X112334321Y-108140000D01*
X112421260Y-108122706D01*
X112503155Y-108088785D01*
X112576858Y-108039538D01*
X112639538Y-107976858D01*
X112688785Y-107903155D01*
X112722706Y-107821260D01*
X112740000Y-107734321D01*
X112740000Y-107645679D01*
X112722706Y-107558740D01*
X112688785Y-107476845D01*
X112639538Y-107403142D01*
X112576858Y-107340462D01*
X112576167Y-107340000D01*
X112576858Y-107339538D01*
X112639538Y-107276858D01*
X112688785Y-107203155D01*
X112722706Y-107121260D01*
X112740000Y-107034321D01*
X112740000Y-106945679D01*
X112722706Y-106858740D01*
X112688785Y-106776845D01*
X112639538Y-106703142D01*
X112576858Y-106640462D01*
X112503155Y-106591215D01*
X112421260Y-106557294D01*
X112334321Y-106540000D01*
X112245679Y-106540000D01*
X112158740Y-106557294D01*
X112076845Y-106591215D01*
X112003142Y-106640462D01*
X111940462Y-106703142D01*
X111891215Y-106776845D01*
X111857294Y-106858740D01*
X111840000Y-106945679D01*
X107452769Y-106945679D01*
X107506858Y-106909538D01*
X107569538Y-106846858D01*
X107618785Y-106773155D01*
X107652706Y-106691260D01*
X107670000Y-106604321D01*
X107670000Y-106515679D01*
X107652706Y-106428740D01*
X107618785Y-106346845D01*
X107569538Y-106273142D01*
X107506858Y-106210462D01*
X107433155Y-106161215D01*
X107351260Y-106127294D01*
X107264321Y-106110000D01*
X107175679Y-106110000D01*
X107088740Y-106127294D01*
X107006845Y-106161215D01*
X106933142Y-106210462D01*
X106870462Y-106273142D01*
X106821215Y-106346845D01*
X106787294Y-106428740D01*
X106770000Y-106515679D01*
X103060000Y-106515679D01*
X103060000Y-106475679D01*
X103042706Y-106388740D01*
X103008785Y-106306845D01*
X102959538Y-106233142D01*
X102896858Y-106170462D01*
X102823155Y-106121215D01*
X102741260Y-106087294D01*
X102654321Y-106070000D01*
X102565679Y-106070000D01*
X102478740Y-106087294D01*
X102396845Y-106121215D01*
X102323142Y-106170462D01*
X102310000Y-106183604D01*
X102296858Y-106170462D01*
X102223155Y-106121215D01*
X102141260Y-106087294D01*
X102054321Y-106070000D01*
X101965679Y-106070000D01*
X101878740Y-106087294D01*
X101796845Y-106121215D01*
X101723142Y-106170462D01*
X101660462Y-106233142D01*
X101611215Y-106306845D01*
X101577294Y-106388740D01*
X101560000Y-106475679D01*
X99205000Y-106475679D01*
X99205000Y-105734570D01*
X99346600Y-105876170D01*
X99514480Y-105988344D01*
X99701018Y-106065610D01*
X99899046Y-106105000D01*
X100100954Y-106105000D01*
X100298982Y-106065610D01*
X100485520Y-105988344D01*
X100653400Y-105876170D01*
X100796170Y-105733400D01*
X100908344Y-105565520D01*
X100985610Y-105378982D01*
X101025000Y-105180954D01*
X101025000Y-104979046D01*
X100985610Y-104781018D01*
X100908344Y-104594480D01*
X100878624Y-104550000D01*
X102575000Y-104550000D01*
X102575000Y-105100000D01*
X102598685Y-105240480D01*
X102649321Y-105373640D01*
X102724963Y-105494363D01*
X102822703Y-105598009D01*
X102938785Y-105680595D01*
X103068749Y-105738948D01*
X103137471Y-105756548D01*
X103250000Y-105716878D01*
X103250000Y-104550000D01*
X103350000Y-104550000D01*
X103350000Y-105716878D01*
X103462529Y-105756548D01*
X103531251Y-105738948D01*
X103661215Y-105680595D01*
X103777297Y-105598009D01*
X103875037Y-105494363D01*
X103950679Y-105373640D01*
X104001315Y-105240480D01*
X104025000Y-105100000D01*
X104025000Y-104550000D01*
X103350000Y-104550000D01*
X103250000Y-104550000D01*
X102575000Y-104550000D01*
X100878624Y-104550000D01*
X100796170Y-104426600D01*
X100653400Y-104283830D01*
X100485520Y-104171656D01*
X100298982Y-104094390D01*
X100100954Y-104055000D01*
X99899046Y-104055000D01*
X99701018Y-104094390D01*
X99514480Y-104171656D01*
X99346600Y-104283830D01*
X99205000Y-104425430D01*
X99205000Y-103900000D01*
X102575000Y-103900000D01*
X102575000Y-104450000D01*
X103250000Y-104450000D01*
X103250000Y-103283122D01*
X103350000Y-103283122D01*
X103350000Y-104450000D01*
X104025000Y-104450000D01*
X104025000Y-103915830D01*
X104180000Y-103915830D01*
X104180000Y-104024170D01*
X104201136Y-104130429D01*
X104242597Y-104230523D01*
X104302787Y-104320604D01*
X104379396Y-104397213D01*
X104469477Y-104457403D01*
X104569571Y-104498864D01*
X104675830Y-104520000D01*
X104784170Y-104520000D01*
X104890429Y-104498864D01*
X104990523Y-104457403D01*
X105080604Y-104397213D01*
X105157213Y-104320604D01*
X105217403Y-104230523D01*
X105258864Y-104130429D01*
X105269754Y-104075679D01*
X105500000Y-104075679D01*
X105500000Y-104164321D01*
X105517294Y-104251260D01*
X105551215Y-104333155D01*
X105600462Y-104406858D01*
X105663142Y-104469538D01*
X105736845Y-104518785D01*
X105818740Y-104552706D01*
X105905679Y-104570000D01*
X105994321Y-104570000D01*
X106081260Y-104552706D01*
X106163155Y-104518785D01*
X106236858Y-104469538D01*
X106299538Y-104406858D01*
X106348785Y-104333155D01*
X106382706Y-104251260D01*
X106400000Y-104164321D01*
X106400000Y-104075679D01*
X108840000Y-104075679D01*
X108840000Y-104164321D01*
X108857294Y-104251260D01*
X108891215Y-104333155D01*
X108940462Y-104406858D01*
X109003142Y-104469538D01*
X109076845Y-104518785D01*
X109158740Y-104552706D01*
X109245679Y-104570000D01*
X109334321Y-104570000D01*
X109421260Y-104552706D01*
X109427793Y-104550000D01*
X111215000Y-104550000D01*
X111215000Y-105100000D01*
X111238685Y-105240480D01*
X111289321Y-105373640D01*
X111364963Y-105494363D01*
X111462703Y-105598009D01*
X111578785Y-105680595D01*
X111708749Y-105738948D01*
X111777471Y-105756548D01*
X111890000Y-105716878D01*
X111890000Y-104550000D01*
X111990000Y-104550000D01*
X111990000Y-105716878D01*
X112102529Y-105756548D01*
X112171251Y-105738948D01*
X112301215Y-105680595D01*
X112417297Y-105598009D01*
X112515037Y-105494363D01*
X112590679Y-105373640D01*
X112641315Y-105240480D01*
X112665000Y-105100000D01*
X112665000Y-104550000D01*
X111990000Y-104550000D01*
X111890000Y-104550000D01*
X111215000Y-104550000D01*
X109427793Y-104550000D01*
X109503155Y-104518785D01*
X109576858Y-104469538D01*
X109639538Y-104406858D01*
X109688785Y-104333155D01*
X109722706Y-104251260D01*
X109740000Y-104164321D01*
X109740000Y-104075679D01*
X109722706Y-103988740D01*
X109692507Y-103915830D01*
X109960000Y-103915830D01*
X109960000Y-104024170D01*
X109981136Y-104130429D01*
X110022597Y-104230523D01*
X110082787Y-104320604D01*
X110159396Y-104397213D01*
X110249477Y-104457403D01*
X110349571Y-104498864D01*
X110455830Y-104520000D01*
X110564170Y-104520000D01*
X110670429Y-104498864D01*
X110770523Y-104457403D01*
X110860604Y-104397213D01*
X110937213Y-104320604D01*
X110997403Y-104230523D01*
X111038864Y-104130429D01*
X111060000Y-104024170D01*
X111060000Y-103915830D01*
X111056852Y-103900000D01*
X111215000Y-103900000D01*
X111215000Y-104450000D01*
X111890000Y-104450000D01*
X111890000Y-103283122D01*
X111990000Y-103283122D01*
X111990000Y-104450000D01*
X112665000Y-104450000D01*
X112665000Y-103900000D01*
X112641315Y-103759520D01*
X112590679Y-103626360D01*
X112515037Y-103505637D01*
X112417297Y-103401991D01*
X112301215Y-103319405D01*
X112171251Y-103261052D01*
X112102529Y-103243452D01*
X111990000Y-103283122D01*
X111890000Y-103283122D01*
X111777471Y-103243452D01*
X111708749Y-103261052D01*
X111578785Y-103319405D01*
X111462703Y-103401991D01*
X111364963Y-103505637D01*
X111289321Y-103626360D01*
X111238685Y-103759520D01*
X111215000Y-103900000D01*
X111056852Y-103900000D01*
X111038864Y-103809571D01*
X110997403Y-103709477D01*
X110937213Y-103619396D01*
X110860604Y-103542787D01*
X110770523Y-103482597D01*
X110670429Y-103441136D01*
X110564170Y-103420000D01*
X110455830Y-103420000D01*
X110349571Y-103441136D01*
X110249477Y-103482597D01*
X110159396Y-103542787D01*
X110082787Y-103619396D01*
X110022597Y-103709477D01*
X109981136Y-103809571D01*
X109960000Y-103915830D01*
X109692507Y-103915830D01*
X109688785Y-103906845D01*
X109639538Y-103833142D01*
X109576858Y-103770462D01*
X109503155Y-103721215D01*
X109421260Y-103687294D01*
X109334321Y-103670000D01*
X109245679Y-103670000D01*
X109158740Y-103687294D01*
X109076845Y-103721215D01*
X109003142Y-103770462D01*
X108940462Y-103833142D01*
X108891215Y-103906845D01*
X108857294Y-103988740D01*
X108840000Y-104075679D01*
X106400000Y-104075679D01*
X106382706Y-103988740D01*
X106348785Y-103906845D01*
X106299538Y-103833142D01*
X106236858Y-103770462D01*
X106163155Y-103721215D01*
X106081260Y-103687294D01*
X105994321Y-103670000D01*
X105905679Y-103670000D01*
X105818740Y-103687294D01*
X105736845Y-103721215D01*
X105663142Y-103770462D01*
X105600462Y-103833142D01*
X105551215Y-103906845D01*
X105517294Y-103988740D01*
X105500000Y-104075679D01*
X105269754Y-104075679D01*
X105280000Y-104024170D01*
X105280000Y-103915830D01*
X105258864Y-103809571D01*
X105217403Y-103709477D01*
X105157213Y-103619396D01*
X105080604Y-103542787D01*
X104990523Y-103482597D01*
X104890429Y-103441136D01*
X104784170Y-103420000D01*
X104675830Y-103420000D01*
X104569571Y-103441136D01*
X104469477Y-103482597D01*
X104379396Y-103542787D01*
X104302787Y-103619396D01*
X104242597Y-103709477D01*
X104201136Y-103809571D01*
X104180000Y-103915830D01*
X104025000Y-103915830D01*
X104025000Y-103900000D01*
X104001315Y-103759520D01*
X103950679Y-103626360D01*
X103875037Y-103505637D01*
X103777297Y-103401991D01*
X103661215Y-103319405D01*
X103531251Y-103261052D01*
X103462529Y-103243452D01*
X103350000Y-103283122D01*
X103250000Y-103283122D01*
X103137471Y-103243452D01*
X103068749Y-103261052D01*
X102938785Y-103319405D01*
X102822703Y-103401991D01*
X102724963Y-103505637D01*
X102649321Y-103626360D01*
X102598685Y-103759520D01*
X102575000Y-103900000D01*
X99205000Y-103900000D01*
X99205000Y-103194570D01*
X99346600Y-103336170D01*
X99514480Y-103448344D01*
X99701018Y-103525610D01*
X99899046Y-103565000D01*
X100100954Y-103565000D01*
X100298982Y-103525610D01*
X100485520Y-103448344D01*
X100653400Y-103336170D01*
X100796170Y-103193400D01*
X100908344Y-103025520D01*
X100985610Y-102838982D01*
X101025000Y-102640954D01*
X101025000Y-102439046D01*
X100985610Y-102241018D01*
X100908344Y-102054480D01*
X100796170Y-101886600D01*
X100653400Y-101743830D01*
X100485520Y-101631656D01*
X100298982Y-101554390D01*
X100100954Y-101515000D01*
X99899046Y-101515000D01*
X99701018Y-101554390D01*
X99514480Y-101631656D01*
X99346600Y-101743830D01*
X99205000Y-101885430D01*
X99205000Y-100654570D01*
X99346600Y-100796170D01*
X99514480Y-100908344D01*
X99701018Y-100985610D01*
X99899046Y-101025000D01*
X100100954Y-101025000D01*
X100298982Y-100985610D01*
X100485520Y-100908344D01*
X100653400Y-100796170D01*
X100796170Y-100653400D01*
X100908344Y-100485520D01*
X100956193Y-100370000D01*
X102575000Y-100370000D01*
X102575000Y-100670000D01*
X102598685Y-100810480D01*
X102649321Y-100943640D01*
X102724963Y-101064363D01*
X102822703Y-101168009D01*
X102938785Y-101250595D01*
X103068749Y-101308948D01*
X103137471Y-101326548D01*
X103250000Y-101286878D01*
X103250000Y-100370000D01*
X103350000Y-100370000D01*
X103350000Y-101286878D01*
X103462529Y-101326548D01*
X103531251Y-101308948D01*
X103661215Y-101250595D01*
X103777297Y-101168009D01*
X103875037Y-101064363D01*
X103950679Y-100943640D01*
X104001315Y-100810480D01*
X104025000Y-100670000D01*
X104025000Y-100370000D01*
X111215000Y-100370000D01*
X111215000Y-100670000D01*
X111238685Y-100810480D01*
X111289321Y-100943640D01*
X111364963Y-101064363D01*
X111462703Y-101168009D01*
X111578785Y-101250595D01*
X111708749Y-101308948D01*
X111777471Y-101326548D01*
X111890000Y-101286878D01*
X111890000Y-100370000D01*
X111990000Y-100370000D01*
X111990000Y-101286878D01*
X112102529Y-101326548D01*
X112171251Y-101308948D01*
X112301215Y-101250595D01*
X112417297Y-101168009D01*
X112515037Y-101064363D01*
X112590679Y-100943640D01*
X112641315Y-100810480D01*
X112665000Y-100670000D01*
X112665000Y-100370000D01*
X111990000Y-100370000D01*
X111890000Y-100370000D01*
X111215000Y-100370000D01*
X104025000Y-100370000D01*
X103350000Y-100370000D01*
X103250000Y-100370000D01*
X102575000Y-100370000D01*
X100956193Y-100370000D01*
X100985610Y-100298982D01*
X101025000Y-100100954D01*
X101025000Y-99970000D01*
X102575000Y-99970000D01*
X102575000Y-100270000D01*
X103250000Y-100270000D01*
X103250000Y-99353122D01*
X103350000Y-99353122D01*
X103350000Y-100270000D01*
X104025000Y-100270000D01*
X104025000Y-99970000D01*
X111215000Y-99970000D01*
X111215000Y-100270000D01*
X111890000Y-100270000D01*
X111890000Y-99353122D01*
X111990000Y-99353122D01*
X111990000Y-100270000D01*
X112665000Y-100270000D01*
X112665000Y-99970000D01*
X112641315Y-99829520D01*
X112590679Y-99696360D01*
X112515037Y-99575637D01*
X112417297Y-99471991D01*
X112301215Y-99389405D01*
X112171251Y-99331052D01*
X112102529Y-99313452D01*
X111990000Y-99353122D01*
X111890000Y-99353122D01*
X111777471Y-99313452D01*
X111708749Y-99331052D01*
X111578785Y-99389405D01*
X111462703Y-99471991D01*
X111364963Y-99575637D01*
X111289321Y-99696360D01*
X111238685Y-99829520D01*
X111215000Y-99970000D01*
X104025000Y-99970000D01*
X104001315Y-99829520D01*
X103950679Y-99696360D01*
X103875037Y-99575637D01*
X103777297Y-99471991D01*
X103661215Y-99389405D01*
X103531251Y-99331052D01*
X103462529Y-99313452D01*
X103350000Y-99353122D01*
X103250000Y-99353122D01*
X103137471Y-99313452D01*
X103068749Y-99331052D01*
X102938785Y-99389405D01*
X102822703Y-99471991D01*
X102724963Y-99575637D01*
X102649321Y-99696360D01*
X102598685Y-99829520D01*
X102575000Y-99970000D01*
X101025000Y-99970000D01*
X101025000Y-99899046D01*
X100985610Y-99701018D01*
X100908344Y-99514480D01*
X100796170Y-99346600D01*
X100654570Y-99205000D01*
X114585430Y-99205000D01*
X114443830Y-99346600D01*
G04 #@! TA.AperFunction,Conductor*
D15*
G36*
X114443830Y-99346600D02*
G01*
X114331656Y-99514480D01*
X114254390Y-99701018D01*
X114215000Y-99899046D01*
X114215000Y-100100954D01*
X114254390Y-100298982D01*
X114331656Y-100485520D01*
X114443830Y-100653400D01*
X114586600Y-100796170D01*
X114754480Y-100908344D01*
X114941018Y-100985610D01*
X115139046Y-101025000D01*
X115340954Y-101025000D01*
X115538982Y-100985610D01*
X115725520Y-100908344D01*
X115893400Y-100796170D01*
X116035001Y-100654569D01*
X116035001Y-101885431D01*
X115893400Y-101743830D01*
X115725520Y-101631656D01*
X115538982Y-101554390D01*
X115340954Y-101515000D01*
X115139046Y-101515000D01*
X114941018Y-101554390D01*
X114754480Y-101631656D01*
X114586600Y-101743830D01*
X114443830Y-101886600D01*
X114331656Y-102054480D01*
X114254390Y-102241018D01*
X114215000Y-102439046D01*
X114215000Y-102640954D01*
X114254390Y-102838982D01*
X114331656Y-103025520D01*
X114443830Y-103193400D01*
X114586600Y-103336170D01*
X114754480Y-103448344D01*
X114941018Y-103525610D01*
X115139046Y-103565000D01*
X115340954Y-103565000D01*
X115538982Y-103525610D01*
X115725520Y-103448344D01*
X115893400Y-103336170D01*
X116035001Y-103194569D01*
X116035001Y-104425431D01*
X115893400Y-104283830D01*
X115725520Y-104171656D01*
X115538982Y-104094390D01*
X115340954Y-104055000D01*
X115139046Y-104055000D01*
X114941018Y-104094390D01*
X114754480Y-104171656D01*
X114586600Y-104283830D01*
X114443830Y-104426600D01*
X114331656Y-104594480D01*
X114254390Y-104781018D01*
X114215000Y-104979046D01*
X114215000Y-105180954D01*
X114254390Y-105378982D01*
X114331656Y-105565520D01*
X114443830Y-105733400D01*
X114586600Y-105876170D01*
X114754480Y-105988344D01*
X114941018Y-106065610D01*
X115139046Y-106105000D01*
X115340954Y-106105000D01*
X115538982Y-106065610D01*
X115725520Y-105988344D01*
X115893400Y-105876170D01*
X116035001Y-105734569D01*
X116035001Y-106965431D01*
X115893400Y-106823830D01*
X115725520Y-106711656D01*
X115538982Y-106634390D01*
X115340954Y-106595000D01*
X115139046Y-106595000D01*
X114941018Y-106634390D01*
X114754480Y-106711656D01*
X114586600Y-106823830D01*
X114443830Y-106966600D01*
X114331656Y-107134480D01*
X114254390Y-107321018D01*
X114215000Y-107519046D01*
X114215000Y-107720954D01*
X114254390Y-107918982D01*
X114331656Y-108105520D01*
X114443830Y-108273400D01*
X114586600Y-108416170D01*
X114754480Y-108528344D01*
X114941018Y-108605610D01*
X115139046Y-108645000D01*
X115340954Y-108645000D01*
X115538982Y-108605610D01*
X115725520Y-108528344D01*
X115893400Y-108416170D01*
X116035001Y-108274569D01*
X116035001Y-109505431D01*
X115893400Y-109363830D01*
X115725520Y-109251656D01*
X115538982Y-109174390D01*
X115340954Y-109135000D01*
X115139046Y-109135000D01*
X114941018Y-109174390D01*
X114754480Y-109251656D01*
X114586600Y-109363830D01*
X114443830Y-109506600D01*
X114331656Y-109674480D01*
X114254390Y-109861018D01*
X114215000Y-110059046D01*
X114215000Y-110260954D01*
X114254390Y-110458982D01*
X114331656Y-110645520D01*
X114443830Y-110813400D01*
X114586600Y-110956170D01*
X114754480Y-111068344D01*
X114941018Y-111145610D01*
X115139046Y-111185000D01*
X115340954Y-111185000D01*
X115538982Y-111145610D01*
X115725520Y-111068344D01*
X115893400Y-110956170D01*
X116035001Y-110814569D01*
X116035001Y-112045431D01*
X115893400Y-111903830D01*
X115725520Y-111791656D01*
X115538982Y-111714390D01*
X115340954Y-111675000D01*
X115139046Y-111675000D01*
X114941018Y-111714390D01*
X114754480Y-111791656D01*
X114586600Y-111903830D01*
X114443830Y-112046600D01*
X114331656Y-112214480D01*
X114254390Y-112401018D01*
X114215000Y-112599046D01*
X114215000Y-112800954D01*
X114254390Y-112998982D01*
X114331656Y-113185520D01*
X114443830Y-113353400D01*
X114586600Y-113496170D01*
X114754480Y-113608344D01*
X114941018Y-113685610D01*
X115139046Y-113725000D01*
X115340954Y-113725000D01*
X115538982Y-113685610D01*
X115725520Y-113608344D01*
X115893400Y-113496170D01*
X116035001Y-113354569D01*
X116035001Y-114585431D01*
X115893400Y-114443830D01*
X115725520Y-114331656D01*
X115538982Y-114254390D01*
X115340954Y-114215000D01*
X115139046Y-114215000D01*
X114941018Y-114254390D01*
X114754480Y-114331656D01*
X114586600Y-114443830D01*
X114443830Y-114586600D01*
X114331656Y-114754480D01*
X114254390Y-114941018D01*
X114215000Y-115139046D01*
X114215000Y-115340954D01*
X114254390Y-115538982D01*
X114331656Y-115725520D01*
X114443830Y-115893400D01*
X114586600Y-116036170D01*
X114754480Y-116148344D01*
X114941018Y-116225610D01*
X115139046Y-116265000D01*
X115340954Y-116265000D01*
X115538982Y-116225610D01*
X115725520Y-116148344D01*
X115893400Y-116036170D01*
X116035001Y-115894569D01*
X116035000Y-117125430D01*
X115893400Y-116983830D01*
X115725520Y-116871656D01*
X115538982Y-116794390D01*
X115340954Y-116755000D01*
X115139046Y-116755000D01*
X114941018Y-116794390D01*
X114754480Y-116871656D01*
X114586600Y-116983830D01*
X114443830Y-117126600D01*
X114331656Y-117294480D01*
X114254390Y-117481018D01*
X114215000Y-117679046D01*
X114215000Y-117880954D01*
X114254390Y-118078982D01*
X114331656Y-118265520D01*
X114443830Y-118433400D01*
X114586600Y-118576170D01*
X114754480Y-118688344D01*
X114941018Y-118765610D01*
X115139046Y-118805000D01*
X115340954Y-118805000D01*
X115538982Y-118765610D01*
X115725520Y-118688344D01*
X115893400Y-118576170D01*
X116035000Y-118434570D01*
X116035000Y-119665430D01*
X115893400Y-119523830D01*
X115725520Y-119411656D01*
X115538982Y-119334390D01*
X115340954Y-119295000D01*
X115139046Y-119295000D01*
X114941018Y-119334390D01*
X114754480Y-119411656D01*
X114586600Y-119523830D01*
X114443830Y-119666600D01*
X114331656Y-119834480D01*
X114254390Y-120021018D01*
X114215000Y-120219046D01*
X114215000Y-120420954D01*
X114254390Y-120618982D01*
X114331656Y-120805520D01*
X114443830Y-120973400D01*
X114586600Y-121116170D01*
X114754480Y-121228344D01*
X114941018Y-121305610D01*
X115139046Y-121345000D01*
X115340954Y-121345000D01*
X115538982Y-121305610D01*
X115725520Y-121228344D01*
X115893400Y-121116170D01*
X116035000Y-120974570D01*
X116035000Y-122205430D01*
X115893400Y-122063830D01*
X115725520Y-121951656D01*
X115538982Y-121874390D01*
X115340954Y-121835000D01*
X115139046Y-121835000D01*
X114941018Y-121874390D01*
X114754480Y-121951656D01*
X114586600Y-122063830D01*
X114443830Y-122206600D01*
X114331656Y-122374480D01*
X114254390Y-122561018D01*
X114215000Y-122759046D01*
X114215000Y-122960954D01*
X114254390Y-123158982D01*
X114331656Y-123345520D01*
X114443830Y-123513400D01*
X114586600Y-123656170D01*
X114754480Y-123768344D01*
X114941018Y-123845610D01*
X115139046Y-123885000D01*
X115340954Y-123885000D01*
X115538982Y-123845610D01*
X115725520Y-123768344D01*
X115893400Y-123656170D01*
X116035000Y-123514570D01*
X116035000Y-124745430D01*
X115893400Y-124603830D01*
X115725520Y-124491656D01*
X115538982Y-124414390D01*
X115340954Y-124375000D01*
X115139046Y-124375000D01*
X114941018Y-124414390D01*
X114754480Y-124491656D01*
X114586600Y-124603830D01*
X114443830Y-124746600D01*
X114331656Y-124914480D01*
X114254390Y-125101018D01*
X114215000Y-125299046D01*
X114215000Y-125500954D01*
X114254390Y-125698982D01*
X114331656Y-125885520D01*
X114443830Y-126053400D01*
X114586600Y-126196170D01*
X114754480Y-126308344D01*
X114941018Y-126385610D01*
X115139046Y-126425000D01*
X115340954Y-126425000D01*
X115538982Y-126385610D01*
X115725520Y-126308344D01*
X115893400Y-126196170D01*
X116035000Y-126054570D01*
X116035000Y-127285430D01*
X115893400Y-127143830D01*
X115725520Y-127031656D01*
X115538982Y-126954390D01*
X115340954Y-126915000D01*
X115139046Y-126915000D01*
X114941018Y-126954390D01*
X114754480Y-127031656D01*
X114586600Y-127143830D01*
X114443830Y-127286600D01*
X114331656Y-127454480D01*
X114254390Y-127641018D01*
X114215000Y-127839046D01*
X114215000Y-128040954D01*
X114254390Y-128238982D01*
X114331656Y-128425520D01*
X114443830Y-128593400D01*
X114586600Y-128736170D01*
X114634518Y-128768188D01*
X114588740Y-128777294D01*
X114506845Y-128811215D01*
X114433142Y-128860462D01*
X114370462Y-128923142D01*
X114321215Y-128996845D01*
X114287294Y-129078740D01*
X114270000Y-129165679D01*
X114270000Y-129254321D01*
X114287294Y-129341260D01*
X114321215Y-129423155D01*
X114370462Y-129496858D01*
X114433142Y-129559538D01*
X114506845Y-129608785D01*
X114588740Y-129642706D01*
X114634518Y-129651812D01*
X114586600Y-129683830D01*
X114443830Y-129826600D01*
X114331656Y-129994480D01*
X114254390Y-130181018D01*
X114215000Y-130379046D01*
X114215000Y-130580954D01*
X114254390Y-130778982D01*
X114331656Y-130965520D01*
X114443830Y-131133400D01*
X114586600Y-131276170D01*
X114754480Y-131388344D01*
X114941018Y-131465610D01*
X115139046Y-131505000D01*
X115340954Y-131505000D01*
X115538982Y-131465610D01*
X115725520Y-131388344D01*
X115893400Y-131276170D01*
X116035000Y-131134570D01*
X116035000Y-132365430D01*
X115893400Y-132223830D01*
X115725520Y-132111656D01*
X115538982Y-132034390D01*
X115340954Y-131995000D01*
X115139046Y-131995000D01*
X114941018Y-132034390D01*
X114754480Y-132111656D01*
X114586600Y-132223830D01*
X114443830Y-132366600D01*
X114331656Y-132534480D01*
X114254390Y-132721018D01*
X114215000Y-132919046D01*
X114215000Y-133120954D01*
X114254390Y-133318982D01*
X114331656Y-133505520D01*
X114443830Y-133673400D01*
X114585430Y-133815000D01*
X113354570Y-133815000D01*
X113496170Y-133673400D01*
X113608344Y-133505520D01*
X113685610Y-133318982D01*
X113725000Y-133120954D01*
X113725000Y-132919046D01*
X113685610Y-132721018D01*
X113608344Y-132534480D01*
X113496170Y-132366600D01*
X113353400Y-132223830D01*
X113185520Y-132111656D01*
X112998982Y-132034390D01*
X112800954Y-131995000D01*
X112599046Y-131995000D01*
X112401018Y-132034390D01*
X112214480Y-132111656D01*
X112046600Y-132223830D01*
X111903830Y-132366600D01*
X111791656Y-132534480D01*
X111714390Y-132721018D01*
X111675000Y-132919046D01*
X111675000Y-133120954D01*
X111714390Y-133318982D01*
X111791656Y-133505520D01*
X111903830Y-133673400D01*
X112045430Y-133815000D01*
X110814570Y-133815000D01*
X110956170Y-133673400D01*
X111068344Y-133505520D01*
X111145610Y-133318982D01*
X111185000Y-133120954D01*
X111185000Y-132919046D01*
X111145610Y-132721018D01*
X111068344Y-132534480D01*
X110956170Y-132366600D01*
X110813400Y-132223830D01*
X110645520Y-132111656D01*
X110458982Y-132034390D01*
X110260954Y-131995000D01*
X110059046Y-131995000D01*
X109861018Y-132034390D01*
X109674480Y-132111656D01*
X109506600Y-132223830D01*
X109363830Y-132366600D01*
X109251656Y-132534480D01*
X109174390Y-132721018D01*
X109135000Y-132919046D01*
X109135000Y-133120954D01*
X109174390Y-133318982D01*
X109251656Y-133505520D01*
X109363830Y-133673400D01*
X109505430Y-133815000D01*
X108226537Y-133815000D01*
X108272253Y-133742964D01*
X107620000Y-133090711D01*
X106967747Y-133742964D01*
X107013463Y-133815000D01*
X105734570Y-133815000D01*
X105876170Y-133673400D01*
X105988344Y-133505520D01*
X106065610Y-133318982D01*
X106105000Y-133120954D01*
X106105000Y-133029573D01*
X106590083Y-133029573D01*
X106611741Y-133230316D01*
X106672145Y-133422977D01*
X106758337Y-133584231D01*
X106897036Y-133672253D01*
X107549289Y-133020000D01*
X107690711Y-133020000D01*
X108342964Y-133672253D01*
X108481663Y-133584231D01*
X108575182Y-133405288D01*
X108631994Y-133211538D01*
X108649917Y-133010427D01*
X108628259Y-132809684D01*
X108567855Y-132617023D01*
X108481663Y-132455769D01*
X108342964Y-132367747D01*
X107690711Y-133020000D01*
X107549289Y-133020000D01*
X106897036Y-132367747D01*
X106758337Y-132455769D01*
X106664818Y-132634712D01*
X106608006Y-132828462D01*
X106590083Y-133029573D01*
X106105000Y-133029573D01*
X106105000Y-132919046D01*
X106065610Y-132721018D01*
X105988344Y-132534480D01*
X105876170Y-132366600D01*
X105806606Y-132297036D01*
X106967747Y-132297036D01*
X107620000Y-132949289D01*
X108272253Y-132297036D01*
X108184231Y-132158337D01*
X108005288Y-132064818D01*
X107811538Y-132008006D01*
X107610427Y-131990083D01*
X107409684Y-132011741D01*
X107217023Y-132072145D01*
X107055769Y-132158337D01*
X106967747Y-132297036D01*
X105806606Y-132297036D01*
X105733400Y-132223830D01*
X105565520Y-132111656D01*
X105378982Y-132034390D01*
X105180954Y-131995000D01*
X104979046Y-131995000D01*
X104781018Y-132034390D01*
X104594480Y-132111656D01*
X104426600Y-132223830D01*
X104283830Y-132366600D01*
X104171656Y-132534480D01*
X104094390Y-132721018D01*
X104055000Y-132919046D01*
X104055000Y-133120954D01*
X104094390Y-133318982D01*
X104171656Y-133505520D01*
X104283830Y-133673400D01*
X104425430Y-133815000D01*
X103194570Y-133815000D01*
X103336170Y-133673400D01*
X103448344Y-133505520D01*
X103525610Y-133318982D01*
X103565000Y-133120954D01*
X103565000Y-132919046D01*
X103525610Y-132721018D01*
X103448344Y-132534480D01*
X103336170Y-132366600D01*
X103193400Y-132223830D01*
X103025520Y-132111656D01*
X102838982Y-132034390D01*
X102640954Y-131995000D01*
X102517507Y-131995000D01*
X102538785Y-131963155D01*
X102572706Y-131881260D01*
X102590000Y-131794321D01*
X102590000Y-131705679D01*
X102572706Y-131618740D01*
X102538785Y-131536845D01*
X102517507Y-131505000D01*
X102640954Y-131505000D01*
X102838982Y-131465610D01*
X103025520Y-131388344D01*
X103193400Y-131276170D01*
X103336170Y-131133400D01*
X103448344Y-130965520D01*
X103525610Y-130778982D01*
X103565000Y-130580954D01*
X103565000Y-130379046D01*
X104055000Y-130379046D01*
X104055000Y-130580954D01*
X104094390Y-130778982D01*
X104171656Y-130965520D01*
X104283830Y-131133400D01*
X104426600Y-131276170D01*
X104594480Y-131388344D01*
X104781018Y-131465610D01*
X104979046Y-131505000D01*
X105180954Y-131505000D01*
X105378982Y-131465610D01*
X105565520Y-131388344D01*
X105733400Y-131276170D01*
X105876170Y-131133400D01*
X105988344Y-130965520D01*
X106065610Y-130778982D01*
X106105000Y-130580954D01*
X106105000Y-130379046D01*
X106595000Y-130379046D01*
X106595000Y-130580954D01*
X106634390Y-130778982D01*
X106711656Y-130965520D01*
X106823830Y-131133400D01*
X106966600Y-131276170D01*
X107134480Y-131388344D01*
X107321018Y-131465610D01*
X107519046Y-131505000D01*
X107720954Y-131505000D01*
X107918982Y-131465610D01*
X108105520Y-131388344D01*
X108273400Y-131276170D01*
X108416170Y-131133400D01*
X108528344Y-130965520D01*
X108605610Y-130778982D01*
X108645000Y-130580954D01*
X108645000Y-130379046D01*
X109135000Y-130379046D01*
X109135000Y-130580954D01*
X109174390Y-130778982D01*
X109251656Y-130965520D01*
X109363830Y-131133400D01*
X109506600Y-131276170D01*
X109674480Y-131388344D01*
X109861018Y-131465610D01*
X110059046Y-131505000D01*
X110260954Y-131505000D01*
X110458982Y-131465610D01*
X110645520Y-131388344D01*
X110813400Y-131276170D01*
X110956170Y-131133400D01*
X111068344Y-130965520D01*
X111145610Y-130778982D01*
X111185000Y-130580954D01*
X111185000Y-130379046D01*
X111675000Y-130379046D01*
X111675000Y-130580954D01*
X111714390Y-130778982D01*
X111791656Y-130965520D01*
X111903830Y-131133400D01*
X112046600Y-131276170D01*
X112214480Y-131388344D01*
X112401018Y-131465610D01*
X112599046Y-131505000D01*
X112800954Y-131505000D01*
X112998982Y-131465610D01*
X113185520Y-131388344D01*
X113353400Y-131276170D01*
X113496170Y-131133400D01*
X113608344Y-130965520D01*
X113685610Y-130778982D01*
X113725000Y-130580954D01*
X113725000Y-130379046D01*
X113685610Y-130181018D01*
X113608344Y-129994480D01*
X113496170Y-129826600D01*
X113353400Y-129683830D01*
X113237121Y-129606135D01*
X113306858Y-129559538D01*
X113369538Y-129496858D01*
X113418785Y-129423155D01*
X113452706Y-129341260D01*
X113470000Y-129254321D01*
X113470000Y-129165679D01*
X113452706Y-129078740D01*
X113418785Y-128996845D01*
X113369538Y-128923142D01*
X113306858Y-128860462D01*
X113233155Y-128811215D01*
X113151260Y-128777294D01*
X113064321Y-128760000D01*
X112975679Y-128760000D01*
X112888740Y-128777294D01*
X112806845Y-128811215D01*
X112733142Y-128860462D01*
X112670462Y-128923142D01*
X112621215Y-128996845D01*
X112587294Y-129078740D01*
X112570000Y-129165679D01*
X112570000Y-129254321D01*
X112587294Y-129341260D01*
X112621215Y-129423155D01*
X112642493Y-129455000D01*
X112599046Y-129455000D01*
X112401018Y-129494390D01*
X112214480Y-129571656D01*
X112046600Y-129683830D01*
X111903830Y-129826600D01*
X111791656Y-129994480D01*
X111714390Y-130181018D01*
X111675000Y-130379046D01*
X111185000Y-130379046D01*
X111145610Y-130181018D01*
X111068344Y-129994480D01*
X110956170Y-129826600D01*
X110813400Y-129683830D01*
X110645520Y-129571656D01*
X110458982Y-129494390D01*
X110260954Y-129455000D01*
X110059046Y-129455000D01*
X109861018Y-129494390D01*
X109674480Y-129571656D01*
X109506600Y-129683830D01*
X109363830Y-129826600D01*
X109251656Y-129994480D01*
X109174390Y-130181018D01*
X109135000Y-130379046D01*
X108645000Y-130379046D01*
X108605610Y-130181018D01*
X108528344Y-129994480D01*
X108416170Y-129826600D01*
X108273400Y-129683830D01*
X108105520Y-129571656D01*
X107918982Y-129494390D01*
X107720954Y-129455000D01*
X107519046Y-129455000D01*
X107321018Y-129494390D01*
X107134480Y-129571656D01*
X106966600Y-129683830D01*
X106823830Y-129826600D01*
X106711656Y-129994480D01*
X106634390Y-130181018D01*
X106595000Y-130379046D01*
X106105000Y-130379046D01*
X106065610Y-130181018D01*
X105988344Y-129994480D01*
X105876170Y-129826600D01*
X105733400Y-129683830D01*
X105565520Y-129571656D01*
X105378982Y-129494390D01*
X105180954Y-129455000D01*
X104979046Y-129455000D01*
X104781018Y-129494390D01*
X104594480Y-129571656D01*
X104426600Y-129683830D01*
X104283830Y-129826600D01*
X104171656Y-129994480D01*
X104094390Y-130181018D01*
X104055000Y-130379046D01*
X103565000Y-130379046D01*
X103525610Y-130181018D01*
X103448344Y-129994480D01*
X103336170Y-129826600D01*
X103193400Y-129683830D01*
X103025520Y-129571656D01*
X102838982Y-129494390D01*
X102640954Y-129455000D01*
X102439046Y-129455000D01*
X102241018Y-129494390D01*
X102054480Y-129571656D01*
X101886600Y-129683830D01*
X101743830Y-129826600D01*
X101631656Y-129994480D01*
X101554390Y-130181018D01*
X101515000Y-130379046D01*
X101515000Y-130580954D01*
X101554390Y-130778982D01*
X101631656Y-130965520D01*
X101743830Y-131133400D01*
X101886600Y-131276170D01*
X101971334Y-131332788D01*
X101926845Y-131351215D01*
X101853142Y-131400462D01*
X101790462Y-131463142D01*
X101741215Y-131536845D01*
X101707294Y-131618740D01*
X101690000Y-131705679D01*
X101690000Y-131794321D01*
X101707294Y-131881260D01*
X101741215Y-131963155D01*
X101790462Y-132036858D01*
X101853142Y-132099538D01*
X101926845Y-132148785D01*
X101971334Y-132167212D01*
X101886600Y-132223830D01*
X101743830Y-132366600D01*
X101631656Y-132534480D01*
X101554390Y-132721018D01*
X101515000Y-132919046D01*
X101515000Y-133120954D01*
X101554390Y-133318982D01*
X101631656Y-133505520D01*
X101743830Y-133673400D01*
X101885430Y-133815000D01*
X100606537Y-133815000D01*
X100652253Y-133742964D01*
X100000000Y-133090711D01*
X99347747Y-133742964D01*
X99393463Y-133815000D01*
X99253228Y-133815000D01*
X99225587Y-133812290D01*
X99221341Y-133811008D01*
X99217426Y-133808926D01*
X99213990Y-133806123D01*
X99211163Y-133802706D01*
X99209051Y-133798802D01*
X99207742Y-133794571D01*
X99205000Y-133768484D01*
X99205000Y-133626537D01*
X99277036Y-133672253D01*
X99929289Y-133020000D01*
X100070711Y-133020000D01*
X100722964Y-133672253D01*
X100861663Y-133584231D01*
X100955182Y-133405288D01*
X101011994Y-133211538D01*
X101029917Y-133010427D01*
X101008259Y-132809684D01*
X100947855Y-132617023D01*
X100861663Y-132455769D01*
X100722964Y-132367747D01*
X100070711Y-133020000D01*
X99929289Y-133020000D01*
X99277036Y-132367747D01*
X99205000Y-132413463D01*
X99205000Y-132297036D01*
X99347747Y-132297036D01*
X100000000Y-132949289D01*
X100652253Y-132297036D01*
X100564231Y-132158337D01*
X100385288Y-132064818D01*
X100191538Y-132008006D01*
X99990427Y-131990083D01*
X99789684Y-132011741D01*
X99597023Y-132072145D01*
X99435769Y-132158337D01*
X99347747Y-132297036D01*
X99205000Y-132297036D01*
X99205000Y-131134570D01*
X99346600Y-131276170D01*
X99514480Y-131388344D01*
X99701018Y-131465610D01*
X99899046Y-131505000D01*
X100100954Y-131505000D01*
X100298982Y-131465610D01*
X100485520Y-131388344D01*
X100653400Y-131276170D01*
X100796170Y-131133400D01*
X100908344Y-130965520D01*
X100985610Y-130778982D01*
X101025000Y-130580954D01*
X101025000Y-130379046D01*
X100985610Y-130181018D01*
X100908344Y-129994480D01*
X100796170Y-129826600D01*
X100653400Y-129683830D01*
X100485520Y-129571656D01*
X100298982Y-129494390D01*
X100100954Y-129455000D01*
X99899046Y-129455000D01*
X99701018Y-129494390D01*
X99514480Y-129571656D01*
X99346600Y-129683830D01*
X99205000Y-129825430D01*
X99205000Y-128594570D01*
X99346600Y-128736170D01*
X99514480Y-128848344D01*
X99701018Y-128925610D01*
X99899046Y-128965000D01*
X100100954Y-128965000D01*
X100298982Y-128925610D01*
X100485520Y-128848344D01*
X100653400Y-128736170D01*
X100796170Y-128593400D01*
X100908344Y-128425520D01*
X100985610Y-128238982D01*
X101025000Y-128040954D01*
X101025000Y-127839046D01*
X101024331Y-127835679D01*
X103350000Y-127835679D01*
X103350000Y-127924321D01*
X103367294Y-128011260D01*
X103401215Y-128093155D01*
X103450462Y-128166858D01*
X103513142Y-128229538D01*
X103586845Y-128278785D01*
X103668740Y-128312706D01*
X103755679Y-128330000D01*
X103844321Y-128330000D01*
X103931260Y-128312706D01*
X104013155Y-128278785D01*
X104086858Y-128229538D01*
X104149538Y-128166858D01*
X104198785Y-128093155D01*
X104232706Y-128011260D01*
X104250000Y-127924321D01*
X104250000Y-127835679D01*
X104232706Y-127748740D01*
X104198785Y-127666845D01*
X104149538Y-127593142D01*
X104086858Y-127530462D01*
X104013155Y-127481215D01*
X103931260Y-127447294D01*
X103844321Y-127430000D01*
X103755679Y-127430000D01*
X103668740Y-127447294D01*
X103586845Y-127481215D01*
X103513142Y-127530462D01*
X103450462Y-127593142D01*
X103401215Y-127666845D01*
X103367294Y-127748740D01*
X103350000Y-127835679D01*
X101024331Y-127835679D01*
X100985610Y-127641018D01*
X100908344Y-127454480D01*
X100796170Y-127286600D01*
X100653400Y-127143830D01*
X100611270Y-127115679D01*
X111450000Y-127115679D01*
X111450000Y-127204321D01*
X111467294Y-127291260D01*
X111501215Y-127373155D01*
X111550462Y-127446858D01*
X111613142Y-127509538D01*
X111686845Y-127558785D01*
X111768740Y-127592706D01*
X111855679Y-127610000D01*
X111944321Y-127610000D01*
X112031260Y-127592706D01*
X112113155Y-127558785D01*
X112186858Y-127509538D01*
X112249538Y-127446858D01*
X112298785Y-127373155D01*
X112332706Y-127291260D01*
X112350000Y-127204321D01*
X112350000Y-127115679D01*
X112332706Y-127028740D01*
X112298785Y-126946845D01*
X112249538Y-126873142D01*
X112186858Y-126810462D01*
X112113155Y-126761215D01*
X112031260Y-126727294D01*
X111944321Y-126710000D01*
X111855679Y-126710000D01*
X111768740Y-126727294D01*
X111686845Y-126761215D01*
X111613142Y-126810462D01*
X111550462Y-126873142D01*
X111501215Y-126946845D01*
X111467294Y-127028740D01*
X111450000Y-127115679D01*
X100611270Y-127115679D01*
X100485520Y-127031656D01*
X100298982Y-126954390D01*
X100100954Y-126915000D01*
X99899046Y-126915000D01*
X99701018Y-126954390D01*
X99514480Y-127031656D01*
X99346600Y-127143830D01*
X99205000Y-127285430D01*
X99205000Y-126054570D01*
X99346600Y-126196170D01*
X99514480Y-126308344D01*
X99701018Y-126385610D01*
X99899046Y-126425000D01*
X100100954Y-126425000D01*
X100298982Y-126385610D01*
X100485520Y-126308344D01*
X100653400Y-126196170D01*
X100733891Y-126115679D01*
X102330000Y-126115679D01*
X102330000Y-126204321D01*
X102347294Y-126291260D01*
X102381215Y-126373155D01*
X102430462Y-126446858D01*
X102493142Y-126509538D01*
X102566845Y-126558785D01*
X102648740Y-126592706D01*
X102735679Y-126610000D01*
X102824321Y-126610000D01*
X102911260Y-126592706D01*
X102993155Y-126558785D01*
X103066858Y-126509538D01*
X103129538Y-126446858D01*
X103178785Y-126373155D01*
X103212706Y-126291260D01*
X103230000Y-126204321D01*
X103230000Y-126115679D01*
X103212706Y-126028740D01*
X103178785Y-125946845D01*
X103137915Y-125885679D01*
X110690000Y-125885679D01*
X110690000Y-125974321D01*
X110707294Y-126061260D01*
X110741215Y-126143155D01*
X110790462Y-126216858D01*
X110853142Y-126279538D01*
X110926845Y-126328785D01*
X111008740Y-126362706D01*
X111095679Y-126380000D01*
X111184321Y-126380000D01*
X111271260Y-126362706D01*
X111353155Y-126328785D01*
X111426858Y-126279538D01*
X111489538Y-126216858D01*
X111538785Y-126143155D01*
X111572706Y-126061260D01*
X111590000Y-125974321D01*
X111590000Y-125885679D01*
X111576076Y-125815679D01*
X112590000Y-125815679D01*
X112590000Y-125904321D01*
X112607294Y-125991260D01*
X112641215Y-126073155D01*
X112690462Y-126146858D01*
X112753142Y-126209538D01*
X112753833Y-126210000D01*
X112753142Y-126210462D01*
X112690462Y-126273142D01*
X112641215Y-126346845D01*
X112607294Y-126428740D01*
X112590000Y-126515679D01*
X112590000Y-126604321D01*
X112607294Y-126691260D01*
X112641215Y-126773155D01*
X112690462Y-126846858D01*
X112753142Y-126909538D01*
X112826845Y-126958785D01*
X112908740Y-126992706D01*
X112995679Y-127010000D01*
X113084321Y-127010000D01*
X113171260Y-126992706D01*
X113253155Y-126958785D01*
X113326858Y-126909538D01*
X113389538Y-126846858D01*
X113438785Y-126773155D01*
X113472706Y-126691260D01*
X113490000Y-126604321D01*
X113490000Y-126515679D01*
X113472706Y-126428740D01*
X113438785Y-126346845D01*
X113389538Y-126273142D01*
X113326858Y-126210462D01*
X113326167Y-126210000D01*
X113326858Y-126209538D01*
X113389538Y-126146858D01*
X113438785Y-126073155D01*
X113472706Y-125991260D01*
X113490000Y-125904321D01*
X113490000Y-125815679D01*
X113472706Y-125728740D01*
X113438785Y-125646845D01*
X113389538Y-125573142D01*
X113326858Y-125510462D01*
X113253155Y-125461215D01*
X113171260Y-125427294D01*
X113084321Y-125410000D01*
X112995679Y-125410000D01*
X112908740Y-125427294D01*
X112826845Y-125461215D01*
X112753142Y-125510462D01*
X112690462Y-125573142D01*
X112641215Y-125646845D01*
X112607294Y-125728740D01*
X112590000Y-125815679D01*
X111576076Y-125815679D01*
X111572706Y-125798740D01*
X111538785Y-125716845D01*
X111489538Y-125643142D01*
X111426858Y-125580462D01*
X111353155Y-125531215D01*
X111271260Y-125497294D01*
X111184321Y-125480000D01*
X111095679Y-125480000D01*
X111008740Y-125497294D01*
X110926845Y-125531215D01*
X110853142Y-125580462D01*
X110790462Y-125643142D01*
X110741215Y-125716845D01*
X110707294Y-125798740D01*
X110690000Y-125885679D01*
X103137915Y-125885679D01*
X103129538Y-125873142D01*
X103066858Y-125810462D01*
X102993155Y-125761215D01*
X102911260Y-125727294D01*
X102824321Y-125710000D01*
X102735679Y-125710000D01*
X102648740Y-125727294D01*
X102566845Y-125761215D01*
X102493142Y-125810462D01*
X102430462Y-125873142D01*
X102381215Y-125946845D01*
X102347294Y-126028740D01*
X102330000Y-126115679D01*
X100733891Y-126115679D01*
X100796170Y-126053400D01*
X100908344Y-125885520D01*
X100985610Y-125698982D01*
X101025000Y-125500954D01*
X101025000Y-125299046D01*
X100985610Y-125101018D01*
X100908344Y-124914480D01*
X100796170Y-124746600D01*
X100653400Y-124603830D01*
X100485520Y-124491656D01*
X100298982Y-124414390D01*
X100100954Y-124375000D01*
X99899046Y-124375000D01*
X99701018Y-124414390D01*
X99514480Y-124491656D01*
X99346600Y-124603830D01*
X99205000Y-124745430D01*
X99205000Y-124135679D01*
X102340000Y-124135679D01*
X102340000Y-124224321D01*
X102357294Y-124311260D01*
X102391215Y-124393155D01*
X102440462Y-124466858D01*
X102503142Y-124529538D01*
X102576845Y-124578785D01*
X102658740Y-124612706D01*
X102745679Y-124630000D01*
X102834321Y-124630000D01*
X102921260Y-124612706D01*
X103003155Y-124578785D01*
X103033340Y-124558616D01*
X103020000Y-124625679D01*
X103020000Y-124714321D01*
X103037294Y-124801260D01*
X103071215Y-124883155D01*
X103120462Y-124956858D01*
X103183142Y-125019538D01*
X103256845Y-125068785D01*
X103338740Y-125102706D01*
X103425679Y-125120000D01*
X103514321Y-125120000D01*
X103601260Y-125102706D01*
X103683155Y-125068785D01*
X103756858Y-125019538D01*
X103819538Y-124956858D01*
X103868785Y-124883155D01*
X103902706Y-124801260D01*
X103920000Y-124714321D01*
X103920000Y-124625679D01*
X103902706Y-124538740D01*
X103868785Y-124456845D01*
X103819538Y-124383142D01*
X103756858Y-124320462D01*
X103683155Y-124271215D01*
X103601260Y-124237294D01*
X103514321Y-124220000D01*
X103425679Y-124220000D01*
X103338740Y-124237294D01*
X103256845Y-124271215D01*
X103226660Y-124291384D01*
X103240000Y-124224321D01*
X103240000Y-124135679D01*
X103222706Y-124048740D01*
X103188785Y-123966845D01*
X103139538Y-123893142D01*
X103076858Y-123830462D01*
X103003155Y-123781215D01*
X102921260Y-123747294D01*
X102834321Y-123730000D01*
X102745679Y-123730000D01*
X102658740Y-123747294D01*
X102576845Y-123781215D01*
X102503142Y-123830462D01*
X102440462Y-123893142D01*
X102391215Y-123966845D01*
X102357294Y-124048740D01*
X102340000Y-124135679D01*
X99205000Y-124135679D01*
X99205000Y-123514570D01*
X99346600Y-123656170D01*
X99514480Y-123768344D01*
X99701018Y-123845610D01*
X99899046Y-123885000D01*
X100100954Y-123885000D01*
X100298982Y-123845610D01*
X100485520Y-123768344D01*
X100653400Y-123656170D01*
X100796170Y-123513400D01*
X100908344Y-123345520D01*
X100928988Y-123295679D01*
X105090000Y-123295679D01*
X105090000Y-123384321D01*
X105107294Y-123471260D01*
X105141215Y-123553155D01*
X105190462Y-123626858D01*
X105253142Y-123689538D01*
X105326845Y-123738785D01*
X105408740Y-123772706D01*
X105495679Y-123790000D01*
X105584321Y-123790000D01*
X105671260Y-123772706D01*
X105753155Y-123738785D01*
X105826858Y-123689538D01*
X105889538Y-123626858D01*
X105938785Y-123553155D01*
X105972706Y-123471260D01*
X105990000Y-123384321D01*
X106007294Y-123471260D01*
X106041215Y-123553155D01*
X106090462Y-123626858D01*
X106153142Y-123689538D01*
X106226845Y-123738785D01*
X106308740Y-123772706D01*
X106395679Y-123790000D01*
X106484321Y-123790000D01*
X106571260Y-123772706D01*
X106653155Y-123738785D01*
X106726858Y-123689538D01*
X106789538Y-123626858D01*
X106838785Y-123553155D01*
X106872706Y-123471260D01*
X106890000Y-123384321D01*
X106890000Y-123295679D01*
X106872706Y-123208740D01*
X106838785Y-123126845D01*
X106789538Y-123053142D01*
X106726858Y-122990462D01*
X106653155Y-122941215D01*
X106571260Y-122907294D01*
X106512871Y-122895679D01*
X107080000Y-122895679D01*
X107080000Y-122984321D01*
X107097294Y-123071260D01*
X107131215Y-123153155D01*
X107180462Y-123226858D01*
X107243142Y-123289538D01*
X107316845Y-123338785D01*
X107398740Y-123372706D01*
X107485679Y-123390000D01*
X107574321Y-123390000D01*
X107661260Y-123372706D01*
X107743155Y-123338785D01*
X107816858Y-123289538D01*
X107879538Y-123226858D01*
X107928785Y-123153155D01*
X107962706Y-123071260D01*
X107980000Y-122984321D01*
X107980000Y-122895679D01*
X108070000Y-122895679D01*
X108070000Y-122984321D01*
X108087294Y-123071260D01*
X108121215Y-123153155D01*
X108170462Y-123226858D01*
X108233142Y-123289538D01*
X108306845Y-123338785D01*
X108388740Y-123372706D01*
X108475679Y-123390000D01*
X108564321Y-123390000D01*
X108651260Y-123372706D01*
X108733155Y-123338785D01*
X108806858Y-123289538D01*
X108820000Y-123276396D01*
X108833142Y-123289538D01*
X108906845Y-123338785D01*
X108988740Y-123372706D01*
X109075679Y-123390000D01*
X109164321Y-123390000D01*
X109251260Y-123372706D01*
X109333155Y-123338785D01*
X109406858Y-123289538D01*
X109469538Y-123226858D01*
X109518785Y-123153155D01*
X109552706Y-123071260D01*
X109570000Y-122984321D01*
X109570000Y-122895679D01*
X109552706Y-122808740D01*
X109518785Y-122726845D01*
X109469538Y-122653142D01*
X109406858Y-122590462D01*
X109333155Y-122541215D01*
X109251260Y-122507294D01*
X109164321Y-122490000D01*
X109075679Y-122490000D01*
X108988740Y-122507294D01*
X108906845Y-122541215D01*
X108833142Y-122590462D01*
X108820000Y-122603604D01*
X108806858Y-122590462D01*
X108733155Y-122541215D01*
X108651260Y-122507294D01*
X108564321Y-122490000D01*
X108475679Y-122490000D01*
X108388740Y-122507294D01*
X108306845Y-122541215D01*
X108233142Y-122590462D01*
X108170462Y-122653142D01*
X108121215Y-122726845D01*
X108087294Y-122808740D01*
X108070000Y-122895679D01*
X107980000Y-122895679D01*
X107962706Y-122808740D01*
X107928785Y-122726845D01*
X107879538Y-122653142D01*
X107816858Y-122590462D01*
X107743155Y-122541215D01*
X107661260Y-122507294D01*
X107574321Y-122490000D01*
X107485679Y-122490000D01*
X107398740Y-122507294D01*
X107316845Y-122541215D01*
X107243142Y-122590462D01*
X107180462Y-122653142D01*
X107131215Y-122726845D01*
X107097294Y-122808740D01*
X107080000Y-122895679D01*
X106512871Y-122895679D01*
X106484321Y-122890000D01*
X106395679Y-122890000D01*
X106308740Y-122907294D01*
X106226845Y-122941215D01*
X106153142Y-122990462D01*
X106090462Y-123053142D01*
X106041215Y-123126845D01*
X106007294Y-123208740D01*
X105990000Y-123295679D01*
X105972706Y-123208740D01*
X105938785Y-123126845D01*
X105889538Y-123053142D01*
X105826858Y-122990462D01*
X105753155Y-122941215D01*
X105671260Y-122907294D01*
X105584321Y-122890000D01*
X105495679Y-122890000D01*
X105408740Y-122907294D01*
X105326845Y-122941215D01*
X105253142Y-122990462D01*
X105190462Y-123053142D01*
X105141215Y-123126845D01*
X105107294Y-123208740D01*
X105090000Y-123295679D01*
X100928988Y-123295679D01*
X100985610Y-123158982D01*
X101025000Y-122960954D01*
X101025000Y-122759046D01*
X100985610Y-122561018D01*
X100908344Y-122374480D01*
X100796170Y-122206600D01*
X100653400Y-122063830D01*
X100485520Y-121951656D01*
X100422806Y-121925679D01*
X101250000Y-121925679D01*
X101250000Y-122014321D01*
X101267294Y-122101260D01*
X101301215Y-122183155D01*
X101350462Y-122256858D01*
X101413142Y-122319538D01*
X101486845Y-122368785D01*
X101501850Y-122375000D01*
X101486845Y-122381215D01*
X101413142Y-122430462D01*
X101350462Y-122493142D01*
X101301215Y-122566845D01*
X101267294Y-122648740D01*
X101250000Y-122735679D01*
X101250000Y-122824321D01*
X101267294Y-122911260D01*
X101301215Y-122993155D01*
X101350462Y-123066858D01*
X101413142Y-123129538D01*
X101486845Y-123178785D01*
X101568740Y-123212706D01*
X101655679Y-123230000D01*
X101744321Y-123230000D01*
X101831260Y-123212706D01*
X101913155Y-123178785D01*
X101986858Y-123129538D01*
X102049538Y-123066858D01*
X102098785Y-122993155D01*
X102132706Y-122911260D01*
X102150000Y-122824321D01*
X102150000Y-122735679D01*
X102132706Y-122648740D01*
X102098785Y-122566845D01*
X102049538Y-122493142D01*
X101986858Y-122430462D01*
X101913155Y-122381215D01*
X101898150Y-122375000D01*
X101913155Y-122368785D01*
X101986858Y-122319538D01*
X102049538Y-122256858D01*
X102098785Y-122183155D01*
X102132706Y-122101260D01*
X102150000Y-122014321D01*
X102150000Y-121925679D01*
X102132706Y-121838740D01*
X102098785Y-121756845D01*
X102049538Y-121683142D01*
X101986858Y-121620462D01*
X101913155Y-121571215D01*
X101831260Y-121537294D01*
X101744321Y-121520000D01*
X101655679Y-121520000D01*
X101568740Y-121537294D01*
X101486845Y-121571215D01*
X101413142Y-121620462D01*
X101350462Y-121683142D01*
X101301215Y-121756845D01*
X101267294Y-121838740D01*
X101250000Y-121925679D01*
X100422806Y-121925679D01*
X100298982Y-121874390D01*
X100100954Y-121835000D01*
X99899046Y-121835000D01*
X99701018Y-121874390D01*
X99514480Y-121951656D01*
X99346600Y-122063830D01*
X99205000Y-122205430D01*
X99205000Y-120974570D01*
X99346600Y-121116170D01*
X99514480Y-121228344D01*
X99701018Y-121305610D01*
X99899046Y-121345000D01*
X100100954Y-121345000D01*
X100298982Y-121305610D01*
X100485520Y-121228344D01*
X100653400Y-121116170D01*
X100796170Y-120973400D01*
X100908344Y-120805520D01*
X100985610Y-120618982D01*
X101025000Y-120420954D01*
X101025000Y-120219046D01*
X100985610Y-120021018D01*
X100954404Y-119945679D01*
X103830000Y-119945679D01*
X103830000Y-120034321D01*
X103847294Y-120121260D01*
X103881215Y-120203155D01*
X103930462Y-120276858D01*
X103993142Y-120339538D01*
X104066845Y-120388785D01*
X104148740Y-120422706D01*
X104235679Y-120440000D01*
X104324321Y-120440000D01*
X104411260Y-120422706D01*
X104493155Y-120388785D01*
X104508304Y-120378663D01*
X104520462Y-120396858D01*
X104583142Y-120459538D01*
X104585217Y-120460924D01*
X104561215Y-120496845D01*
X104527294Y-120578740D01*
X104510000Y-120665679D01*
X104510000Y-120754321D01*
X104527294Y-120841260D01*
X104561215Y-120923155D01*
X104610462Y-120996858D01*
X104673142Y-121059538D01*
X104746845Y-121108785D01*
X104828740Y-121142706D01*
X104915679Y-121160000D01*
X105004321Y-121160000D01*
X105091260Y-121142706D01*
X105173155Y-121108785D01*
X105226647Y-121073043D01*
X105273142Y-121119538D01*
X105346845Y-121168785D01*
X105428740Y-121202706D01*
X105515679Y-121220000D01*
X105604321Y-121220000D01*
X105691260Y-121202706D01*
X105773155Y-121168785D01*
X105846858Y-121119538D01*
X105909538Y-121056858D01*
X105958785Y-120983155D01*
X105992706Y-120901260D01*
X106010000Y-120814321D01*
X106010000Y-120725679D01*
X105992706Y-120638740D01*
X105962445Y-120565679D01*
X109570000Y-120565679D01*
X109570000Y-120654321D01*
X109587294Y-120741260D01*
X109621215Y-120823155D01*
X109670462Y-120896858D01*
X109733142Y-120959538D01*
X109806845Y-121008785D01*
X109888740Y-121042706D01*
X109975679Y-121060000D01*
X110064321Y-121060000D01*
X110151260Y-121042706D01*
X110233155Y-121008785D01*
X110306858Y-120959538D01*
X110369538Y-120896858D01*
X110418785Y-120823155D01*
X110452706Y-120741260D01*
X110470000Y-120654321D01*
X110470000Y-120565679D01*
X110468707Y-120559181D01*
X110501260Y-120552706D01*
X110583155Y-120518785D01*
X110656858Y-120469538D01*
X110719538Y-120406858D01*
X110731696Y-120388663D01*
X110746845Y-120398785D01*
X110828740Y-120432706D01*
X110915679Y-120450000D01*
X111004321Y-120450000D01*
X111091260Y-120432706D01*
X111173155Y-120398785D01*
X111246858Y-120349538D01*
X111309538Y-120286858D01*
X111358785Y-120213155D01*
X111392706Y-120131260D01*
X111410000Y-120044321D01*
X111410000Y-119955679D01*
X111392706Y-119868740D01*
X111358785Y-119786845D01*
X111348663Y-119771696D01*
X111366858Y-119759538D01*
X111429538Y-119696858D01*
X111450935Y-119664836D01*
X111456845Y-119668785D01*
X111538740Y-119702706D01*
X111625679Y-119720000D01*
X111714321Y-119720000D01*
X111801260Y-119702706D01*
X111883155Y-119668785D01*
X111956858Y-119619538D01*
X112019538Y-119556858D01*
X112068785Y-119483155D01*
X112102706Y-119401260D01*
X112120000Y-119314321D01*
X112120000Y-119225679D01*
X112102706Y-119138740D01*
X112068785Y-119056845D01*
X112064836Y-119050935D01*
X112096858Y-119029538D01*
X112159538Y-118966858D01*
X112160924Y-118964783D01*
X112196845Y-118988785D01*
X112278740Y-119022706D01*
X112365679Y-119040000D01*
X112454321Y-119040000D01*
X112541260Y-119022706D01*
X112623155Y-118988785D01*
X112696858Y-118939538D01*
X112759538Y-118876858D01*
X112808785Y-118803155D01*
X112842706Y-118721260D01*
X112860000Y-118634321D01*
X112860000Y-118545679D01*
X112842706Y-118458740D01*
X112808785Y-118376845D01*
X112784783Y-118340924D01*
X112786858Y-118339538D01*
X112849538Y-118276858D01*
X112898785Y-118203155D01*
X112932706Y-118121260D01*
X112950000Y-118034321D01*
X112950000Y-117945679D01*
X112932706Y-117858740D01*
X112898785Y-117776845D01*
X112849538Y-117703142D01*
X112786858Y-117640462D01*
X112713155Y-117591215D01*
X112631260Y-117557294D01*
X112544321Y-117540000D01*
X112455679Y-117540000D01*
X112368740Y-117557294D01*
X112286845Y-117591215D01*
X112213142Y-117640462D01*
X112150462Y-117703142D01*
X112101215Y-117776845D01*
X112067294Y-117858740D01*
X112050000Y-117945679D01*
X112050000Y-118034321D01*
X112067294Y-118121260D01*
X112101215Y-118203155D01*
X112125217Y-118239076D01*
X112123142Y-118240462D01*
X112060462Y-118303142D01*
X112059076Y-118305217D01*
X112023155Y-118281215D01*
X111941260Y-118247294D01*
X111854321Y-118230000D01*
X111765679Y-118230000D01*
X111678740Y-118247294D01*
X111596845Y-118281215D01*
X111523142Y-118330462D01*
X111460462Y-118393142D01*
X111411215Y-118466845D01*
X111377294Y-118548740D01*
X111360000Y-118635679D01*
X111360000Y-118724321D01*
X111377294Y-118811260D01*
X111411215Y-118893155D01*
X111415164Y-118899065D01*
X111383142Y-118920462D01*
X111320462Y-118983142D01*
X111299065Y-119015164D01*
X111293155Y-119011215D01*
X111211260Y-118977294D01*
X111124321Y-118960000D01*
X111035679Y-118960000D01*
X110948740Y-118977294D01*
X110866845Y-119011215D01*
X110793142Y-119060462D01*
X110730462Y-119123142D01*
X110681215Y-119196845D01*
X110647294Y-119278740D01*
X110630000Y-119365679D01*
X110630000Y-119454321D01*
X110647294Y-119541260D01*
X110681215Y-119623155D01*
X110691337Y-119638304D01*
X110673142Y-119650462D01*
X110610462Y-119713142D01*
X110598304Y-119731337D01*
X110583155Y-119721215D01*
X110501260Y-119687294D01*
X110414321Y-119670000D01*
X110325679Y-119670000D01*
X110238740Y-119687294D01*
X110156845Y-119721215D01*
X110083142Y-119770462D01*
X110020462Y-119833142D01*
X109971215Y-119906845D01*
X109937294Y-119988740D01*
X109920000Y-120075679D01*
X109920000Y-120164321D01*
X109921293Y-120170819D01*
X109888740Y-120177294D01*
X109806845Y-120211215D01*
X109733142Y-120260462D01*
X109670462Y-120323142D01*
X109621215Y-120396845D01*
X109587294Y-120478740D01*
X109570000Y-120565679D01*
X105962445Y-120565679D01*
X105958785Y-120556845D01*
X105909538Y-120483142D01*
X105846858Y-120420462D01*
X105773155Y-120371215D01*
X105691260Y-120337294D01*
X105604321Y-120320000D01*
X105515679Y-120320000D01*
X105428740Y-120337294D01*
X105346845Y-120371215D01*
X105293353Y-120406957D01*
X105246858Y-120360462D01*
X105244783Y-120359076D01*
X105268785Y-120323155D01*
X105302706Y-120241260D01*
X105320000Y-120154321D01*
X105320000Y-120065679D01*
X105302706Y-119978740D01*
X105268785Y-119896845D01*
X105219538Y-119823142D01*
X105156858Y-119760462D01*
X105083155Y-119711215D01*
X105001260Y-119677294D01*
X104914321Y-119660000D01*
X104825679Y-119660000D01*
X104738740Y-119677294D01*
X104656845Y-119711215D01*
X104641696Y-119721337D01*
X104629538Y-119703142D01*
X104566858Y-119640462D01*
X104493155Y-119591215D01*
X104411260Y-119557294D01*
X104324321Y-119540000D01*
X104235679Y-119540000D01*
X104148740Y-119557294D01*
X104066845Y-119591215D01*
X103993142Y-119640462D01*
X103930462Y-119703142D01*
X103881215Y-119776845D01*
X103847294Y-119858740D01*
X103830000Y-119945679D01*
X100954404Y-119945679D01*
X100908344Y-119834480D01*
X100796170Y-119666600D01*
X100653400Y-119523830D01*
X100485520Y-119411656D01*
X100298982Y-119334390D01*
X100100954Y-119295000D01*
X99899046Y-119295000D01*
X99701018Y-119334390D01*
X99514480Y-119411656D01*
X99346600Y-119523830D01*
X99205000Y-119665430D01*
X99205000Y-118434570D01*
X99346600Y-118576170D01*
X99514480Y-118688344D01*
X99701018Y-118765610D01*
X99899046Y-118805000D01*
X100100954Y-118805000D01*
X100298982Y-118765610D01*
X100467811Y-118695679D01*
X102190000Y-118695679D01*
X102190000Y-118784321D01*
X102207294Y-118871260D01*
X102241215Y-118953155D01*
X102290462Y-119026858D01*
X102353142Y-119089538D01*
X102426845Y-119138785D01*
X102508740Y-119172706D01*
X102595679Y-119190000D01*
X102684321Y-119190000D01*
X102771260Y-119172706D01*
X102808741Y-119157181D01*
X102811215Y-119163155D01*
X102860462Y-119236858D01*
X102923142Y-119299538D01*
X102996845Y-119348785D01*
X103078740Y-119382706D01*
X103165679Y-119400000D01*
X103254321Y-119400000D01*
X103341260Y-119382706D01*
X103423155Y-119348785D01*
X103454456Y-119327870D01*
X103460462Y-119336858D01*
X103523142Y-119399538D01*
X103596845Y-119448785D01*
X103678740Y-119482706D01*
X103765679Y-119500000D01*
X103854321Y-119500000D01*
X103941260Y-119482706D01*
X104023155Y-119448785D01*
X104096858Y-119399538D01*
X104159538Y-119336858D01*
X104208785Y-119263155D01*
X104242706Y-119181260D01*
X104260000Y-119094321D01*
X104260000Y-119005679D01*
X104242706Y-118918740D01*
X104208785Y-118836845D01*
X104159538Y-118763142D01*
X104096858Y-118700462D01*
X104023155Y-118651215D01*
X103941260Y-118617294D01*
X103854321Y-118600000D01*
X103765679Y-118600000D01*
X103678740Y-118617294D01*
X103596845Y-118651215D01*
X103565544Y-118672130D01*
X103559538Y-118663142D01*
X103496858Y-118600462D01*
X103480957Y-118589837D01*
X103498785Y-118563155D01*
X103532706Y-118481260D01*
X103550000Y-118394321D01*
X103550000Y-118305679D01*
X103532706Y-118218740D01*
X103498785Y-118136845D01*
X103449538Y-118063142D01*
X103386858Y-118000462D01*
X103313155Y-117951215D01*
X103231260Y-117917294D01*
X103144321Y-117900000D01*
X103055679Y-117900000D01*
X102968740Y-117917294D01*
X102886845Y-117951215D01*
X102813142Y-118000462D01*
X102750462Y-118063142D01*
X102701215Y-118136845D01*
X102667294Y-118218740D01*
X102653119Y-118290000D01*
X102595679Y-118290000D01*
X102508740Y-118307294D01*
X102426845Y-118341215D01*
X102353142Y-118390462D01*
X102290462Y-118453142D01*
X102241215Y-118526845D01*
X102207294Y-118608740D01*
X102190000Y-118695679D01*
X100467811Y-118695679D01*
X100485520Y-118688344D01*
X100653400Y-118576170D01*
X100796170Y-118433400D01*
X100908344Y-118265520D01*
X100985610Y-118078982D01*
X101025000Y-117880954D01*
X101025000Y-117679046D01*
X100985610Y-117481018D01*
X100908344Y-117294480D01*
X100796170Y-117126600D01*
X100695249Y-117025679D01*
X112550000Y-117025679D01*
X112550000Y-117114321D01*
X112567294Y-117201260D01*
X112601215Y-117283155D01*
X112650462Y-117356858D01*
X112713142Y-117419538D01*
X112786845Y-117468785D01*
X112868740Y-117502706D01*
X112955679Y-117520000D01*
X113044321Y-117520000D01*
X113131260Y-117502706D01*
X113213155Y-117468785D01*
X113286858Y-117419538D01*
X113349538Y-117356858D01*
X113398785Y-117283155D01*
X113432706Y-117201260D01*
X113450000Y-117114321D01*
X113450000Y-117025679D01*
X113432706Y-116938740D01*
X113398785Y-116856845D01*
X113349538Y-116783142D01*
X113286858Y-116720462D01*
X113213155Y-116671215D01*
X113131260Y-116637294D01*
X113044321Y-116620000D01*
X112955679Y-116620000D01*
X112868740Y-116637294D01*
X112786845Y-116671215D01*
X112713142Y-116720462D01*
X112650462Y-116783142D01*
X112601215Y-116856845D01*
X112567294Y-116938740D01*
X112550000Y-117025679D01*
X100695249Y-117025679D01*
X100653400Y-116983830D01*
X100485520Y-116871656D01*
X100298982Y-116794390D01*
X100100954Y-116755000D01*
X99899046Y-116755000D01*
X99701018Y-116794390D01*
X99514480Y-116871656D01*
X99346600Y-116983830D01*
X99205000Y-117125430D01*
X99205000Y-115894570D01*
X99346600Y-116036170D01*
X99514480Y-116148344D01*
X99701018Y-116225610D01*
X99899046Y-116265000D01*
X100100954Y-116265000D01*
X100298982Y-116225610D01*
X100485520Y-116148344D01*
X100653400Y-116036170D01*
X100796170Y-115893400D01*
X100908344Y-115725520D01*
X100985610Y-115538982D01*
X101025000Y-115340954D01*
X101025000Y-115139046D01*
X101012396Y-115075679D01*
X101260000Y-115075679D01*
X101260000Y-115164321D01*
X101277294Y-115251260D01*
X101311215Y-115333155D01*
X101360462Y-115406858D01*
X101423142Y-115469538D01*
X101496845Y-115518785D01*
X101578740Y-115552706D01*
X101665679Y-115570000D01*
X101754321Y-115570000D01*
X101841260Y-115552706D01*
X101923155Y-115518785D01*
X101996858Y-115469538D01*
X102059538Y-115406858D01*
X102108785Y-115333155D01*
X102142706Y-115251260D01*
X102160000Y-115164321D01*
X102160000Y-115075679D01*
X102142706Y-114988740D01*
X102108785Y-114906845D01*
X102059538Y-114833142D01*
X101996858Y-114770462D01*
X101923155Y-114721215D01*
X101841260Y-114687294D01*
X101754321Y-114670000D01*
X101665679Y-114670000D01*
X101578740Y-114687294D01*
X101496845Y-114721215D01*
X101423142Y-114770462D01*
X101360462Y-114833142D01*
X101311215Y-114906845D01*
X101277294Y-114988740D01*
X101260000Y-115075679D01*
X101012396Y-115075679D01*
X100985610Y-114941018D01*
X100908344Y-114754480D01*
X100796170Y-114586600D01*
X100653400Y-114443830D01*
X100521473Y-114355679D01*
X102270000Y-114355679D01*
X102270000Y-114444321D01*
X102287294Y-114531260D01*
X102321215Y-114613155D01*
X102370462Y-114686858D01*
X102433142Y-114749538D01*
X102506845Y-114798785D01*
X102588740Y-114832706D01*
X102675679Y-114850000D01*
X102764321Y-114850000D01*
X102851260Y-114832706D01*
X102868225Y-114825679D01*
X103270000Y-114825679D01*
X103270000Y-114914321D01*
X103287294Y-115001260D01*
X103321215Y-115083155D01*
X103370462Y-115156858D01*
X103433142Y-115219538D01*
X103506845Y-115268785D01*
X103588740Y-115302706D01*
X103675679Y-115320000D01*
X103764321Y-115320000D01*
X103851260Y-115302706D01*
X103933155Y-115268785D01*
X104006858Y-115219538D01*
X104069538Y-115156858D01*
X104118785Y-115083155D01*
X104152706Y-115001260D01*
X104170000Y-114914321D01*
X104170000Y-114825679D01*
X104152706Y-114738740D01*
X104118785Y-114656845D01*
X104069538Y-114583142D01*
X104006858Y-114520462D01*
X103933155Y-114471215D01*
X103851260Y-114437294D01*
X103764321Y-114420000D01*
X103675679Y-114420000D01*
X103588740Y-114437294D01*
X103506845Y-114471215D01*
X103433142Y-114520462D01*
X103370462Y-114583142D01*
X103321215Y-114656845D01*
X103287294Y-114738740D01*
X103270000Y-114825679D01*
X102868225Y-114825679D01*
X102933155Y-114798785D01*
X103006858Y-114749538D01*
X103069538Y-114686858D01*
X103118785Y-114613155D01*
X103152706Y-114531260D01*
X103170000Y-114444321D01*
X103170000Y-114355679D01*
X103152706Y-114268740D01*
X103130729Y-114215679D01*
X104070000Y-114215679D01*
X104070000Y-114304321D01*
X104087294Y-114391260D01*
X104121215Y-114473155D01*
X104170462Y-114546858D01*
X104233142Y-114609538D01*
X104306845Y-114658785D01*
X104388740Y-114692706D01*
X104475679Y-114710000D01*
X104564321Y-114710000D01*
X104651260Y-114692706D01*
X104733155Y-114658785D01*
X104806858Y-114609538D01*
X104869538Y-114546858D01*
X104918785Y-114473155D01*
X104952706Y-114391260D01*
X104955805Y-114375679D01*
X111300000Y-114375679D01*
X111300000Y-114464321D01*
X111317294Y-114551260D01*
X111351215Y-114633155D01*
X111400462Y-114706858D01*
X111452952Y-114759348D01*
X111421215Y-114806845D01*
X111387294Y-114888740D01*
X111370000Y-114975679D01*
X111370000Y-115064321D01*
X111387294Y-115151260D01*
X111421215Y-115233155D01*
X111470462Y-115306858D01*
X111533142Y-115369538D01*
X111606845Y-115418785D01*
X111688740Y-115452706D01*
X111775679Y-115470000D01*
X111864321Y-115470000D01*
X111951260Y-115452706D01*
X112033155Y-115418785D01*
X112106858Y-115369538D01*
X112169538Y-115306858D01*
X112218785Y-115233155D01*
X112252706Y-115151260D01*
X112260913Y-115110000D01*
X112344321Y-115110000D01*
X112431260Y-115092706D01*
X112501552Y-115063591D01*
X112530462Y-115106858D01*
X112593142Y-115169538D01*
X112666845Y-115218785D01*
X112748740Y-115252706D01*
X112835679Y-115270000D01*
X112924321Y-115270000D01*
X113011260Y-115252706D01*
X113093155Y-115218785D01*
X113166858Y-115169538D01*
X113229538Y-115106858D01*
X113278785Y-115033155D01*
X113312706Y-114951260D01*
X113330000Y-114864321D01*
X113330000Y-114775679D01*
X113312706Y-114688740D01*
X113278785Y-114606845D01*
X113229538Y-114533142D01*
X113166858Y-114470462D01*
X113093155Y-114421215D01*
X113011260Y-114387294D01*
X112924321Y-114370000D01*
X112835679Y-114370000D01*
X112748740Y-114387294D01*
X112678448Y-114416409D01*
X112649538Y-114373142D01*
X112586858Y-114310462D01*
X112513155Y-114261215D01*
X112431260Y-114227294D01*
X112344321Y-114210000D01*
X112255679Y-114210000D01*
X112168740Y-114227294D01*
X112158937Y-114231354D01*
X112148785Y-114206845D01*
X112099538Y-114133142D01*
X112036858Y-114070462D01*
X111963155Y-114021215D01*
X111881260Y-113987294D01*
X111794321Y-113970000D01*
X111705679Y-113970000D01*
X111618740Y-113987294D01*
X111536845Y-114021215D01*
X111463142Y-114070462D01*
X111400462Y-114133142D01*
X111351215Y-114206845D01*
X111317294Y-114288740D01*
X111300000Y-114375679D01*
X104955805Y-114375679D01*
X104970000Y-114304321D01*
X104970000Y-114215679D01*
X104952706Y-114128740D01*
X104918785Y-114046845D01*
X104893251Y-114008630D01*
X104906858Y-113999538D01*
X104969538Y-113936858D01*
X104975544Y-113927870D01*
X105006845Y-113948785D01*
X105088740Y-113982706D01*
X105175679Y-114000000D01*
X105264321Y-114000000D01*
X105351260Y-113982706D01*
X105433155Y-113948785D01*
X105506858Y-113899538D01*
X105569538Y-113836858D01*
X105618785Y-113763155D01*
X105652706Y-113681260D01*
X105670000Y-113594321D01*
X105670000Y-113505679D01*
X105652706Y-113418740D01*
X105618785Y-113336845D01*
X105597870Y-113305544D01*
X105606858Y-113299538D01*
X105669538Y-113236858D01*
X105718785Y-113163155D01*
X105752706Y-113081260D01*
X105770000Y-112994321D01*
X105770000Y-112905679D01*
X105752706Y-112818740D01*
X105718785Y-112736845D01*
X105669538Y-112663142D01*
X105606858Y-112600462D01*
X105533155Y-112551215D01*
X105451260Y-112517294D01*
X105364321Y-112500000D01*
X105275679Y-112500000D01*
X105188740Y-112517294D01*
X105106845Y-112551215D01*
X105082472Y-112567500D01*
X105118785Y-112513155D01*
X105146733Y-112445679D01*
X105830000Y-112445679D01*
X105830000Y-112534321D01*
X105847294Y-112621260D01*
X105881215Y-112703155D01*
X105930462Y-112776858D01*
X105993142Y-112839538D01*
X106066845Y-112888785D01*
X106148740Y-112922706D01*
X106235679Y-112940000D01*
X106324321Y-112940000D01*
X106411260Y-112922706D01*
X106493155Y-112888785D01*
X106566858Y-112839538D01*
X106629538Y-112776858D01*
X106678785Y-112703155D01*
X106712706Y-112621260D01*
X106725751Y-112555679D01*
X109060000Y-112555679D01*
X109060000Y-112644321D01*
X109077294Y-112731260D01*
X109111215Y-112813155D01*
X109160462Y-112886858D01*
X109223142Y-112949538D01*
X109296845Y-112998785D01*
X109378740Y-113032706D01*
X109420000Y-113040913D01*
X109420000Y-113124321D01*
X109437294Y-113211260D01*
X109471215Y-113293155D01*
X109520462Y-113366858D01*
X109583142Y-113429538D01*
X109656845Y-113478785D01*
X109738740Y-113512706D01*
X109825679Y-113530000D01*
X109914321Y-113530000D01*
X110001260Y-113512706D01*
X110070812Y-113483897D01*
X110091215Y-113533155D01*
X110101337Y-113548304D01*
X110083142Y-113560462D01*
X110020462Y-113623142D01*
X109971215Y-113696845D01*
X109937294Y-113778740D01*
X109920000Y-113865679D01*
X109920000Y-113954321D01*
X109937294Y-114041260D01*
X109971215Y-114123155D01*
X110020462Y-114196858D01*
X110083142Y-114259538D01*
X110156845Y-114308785D01*
X110238740Y-114342706D01*
X110325679Y-114360000D01*
X110414321Y-114360000D01*
X110501260Y-114342706D01*
X110583155Y-114308785D01*
X110656858Y-114259538D01*
X110719538Y-114196858D01*
X110745554Y-114157922D01*
X110746845Y-114158785D01*
X110828740Y-114192706D01*
X110915679Y-114210000D01*
X111004321Y-114210000D01*
X111091260Y-114192706D01*
X111173155Y-114158785D01*
X111246858Y-114109538D01*
X111309538Y-114046858D01*
X111358785Y-113973155D01*
X111392706Y-113891260D01*
X111410000Y-113804321D01*
X111410000Y-113715679D01*
X111392706Y-113628740D01*
X111358785Y-113546845D01*
X111309538Y-113473142D01*
X111246858Y-113410462D01*
X111173155Y-113361215D01*
X111091260Y-113327294D01*
X111004321Y-113310000D01*
X110940000Y-113310000D01*
X110940000Y-113275679D01*
X110922706Y-113188740D01*
X110888785Y-113106845D01*
X110867961Y-113075679D01*
X111490000Y-113075679D01*
X111490000Y-113164321D01*
X111507294Y-113251260D01*
X111541215Y-113333155D01*
X111590462Y-113406858D01*
X111653142Y-113469538D01*
X111726845Y-113518785D01*
X111808740Y-113552706D01*
X111895679Y-113570000D01*
X111984321Y-113570000D01*
X112071260Y-113552706D01*
X112153155Y-113518785D01*
X112226858Y-113469538D01*
X112289538Y-113406858D01*
X112338785Y-113333155D01*
X112372706Y-113251260D01*
X112390000Y-113164321D01*
X112390000Y-113075679D01*
X112372706Y-112988740D01*
X112368440Y-112978440D01*
X112378740Y-112982706D01*
X112465679Y-113000000D01*
X112554321Y-113000000D01*
X112641260Y-112982706D01*
X112723155Y-112948785D01*
X112796858Y-112899538D01*
X112859538Y-112836858D01*
X112908785Y-112763155D01*
X112942706Y-112681260D01*
X112951095Y-112639088D01*
X112955679Y-112640000D01*
X113044321Y-112640000D01*
X113131260Y-112622706D01*
X113213155Y-112588785D01*
X113286858Y-112539538D01*
X113349538Y-112476858D01*
X113398785Y-112403155D01*
X113432706Y-112321260D01*
X113450000Y-112234321D01*
X113450000Y-112145679D01*
X113432706Y-112058740D01*
X113398785Y-111976845D01*
X113349538Y-111903142D01*
X113286858Y-111840462D01*
X113213155Y-111791215D01*
X113131260Y-111757294D01*
X113044321Y-111740000D01*
X112955679Y-111740000D01*
X112868740Y-111757294D01*
X112786845Y-111791215D01*
X112713142Y-111840462D01*
X112650462Y-111903142D01*
X112601215Y-111976845D01*
X112567294Y-112058740D01*
X112558905Y-112100912D01*
X112554321Y-112100000D01*
X112465679Y-112100000D01*
X112378740Y-112117294D01*
X112296845Y-112151215D01*
X112223142Y-112200462D01*
X112160462Y-112263142D01*
X112111215Y-112336845D01*
X112077294Y-112418740D01*
X112060000Y-112505679D01*
X112060000Y-112594321D01*
X112077294Y-112681260D01*
X112081560Y-112691560D01*
X112071260Y-112687294D01*
X111984321Y-112670000D01*
X111895679Y-112670000D01*
X111808740Y-112687294D01*
X111726845Y-112721215D01*
X111653142Y-112770462D01*
X111590462Y-112833142D01*
X111541215Y-112906845D01*
X111507294Y-112988740D01*
X111490000Y-113075679D01*
X110867961Y-113075679D01*
X110839538Y-113033142D01*
X110776858Y-112970462D01*
X110703155Y-112921215D01*
X110621260Y-112887294D01*
X110534321Y-112870000D01*
X110445679Y-112870000D01*
X110358740Y-112887294D01*
X110289188Y-112916103D01*
X110268785Y-112866845D01*
X110219538Y-112793142D01*
X110156858Y-112730462D01*
X110083155Y-112681215D01*
X110001260Y-112647294D01*
X109960000Y-112639087D01*
X109960000Y-112555679D01*
X109942706Y-112468740D01*
X109908785Y-112386845D01*
X109859538Y-112313142D01*
X109796858Y-112250462D01*
X109723155Y-112201215D01*
X109641260Y-112167294D01*
X109554321Y-112150000D01*
X109465679Y-112150000D01*
X109378740Y-112167294D01*
X109296845Y-112201215D01*
X109223142Y-112250462D01*
X109160462Y-112313142D01*
X109111215Y-112386845D01*
X109077294Y-112468740D01*
X109060000Y-112555679D01*
X106725751Y-112555679D01*
X106730000Y-112534321D01*
X106730000Y-112445679D01*
X106712706Y-112358740D01*
X106698807Y-112325183D01*
X106711260Y-112322706D01*
X106793155Y-112288785D01*
X106866858Y-112239538D01*
X106929538Y-112176858D01*
X106978785Y-112103155D01*
X107012706Y-112021260D01*
X107030000Y-111934321D01*
X107030000Y-111845679D01*
X107012706Y-111758740D01*
X106978785Y-111676845D01*
X106929538Y-111603142D01*
X106866858Y-111540462D01*
X106793155Y-111491215D01*
X106711260Y-111457294D01*
X106624321Y-111440000D01*
X106535679Y-111440000D01*
X106448740Y-111457294D01*
X106366845Y-111491215D01*
X106293142Y-111540462D01*
X106230462Y-111603142D01*
X106181215Y-111676845D01*
X106147294Y-111758740D01*
X106130000Y-111845679D01*
X106130000Y-111934321D01*
X106147294Y-112021260D01*
X106161193Y-112054817D01*
X106148740Y-112057294D01*
X106066845Y-112091215D01*
X105993142Y-112140462D01*
X105930462Y-112203142D01*
X105881215Y-112276845D01*
X105847294Y-112358740D01*
X105830000Y-112445679D01*
X105146733Y-112445679D01*
X105152706Y-112431260D01*
X105170000Y-112344321D01*
X105170000Y-112255679D01*
X105152706Y-112168740D01*
X105118785Y-112086845D01*
X105069538Y-112013142D01*
X105006858Y-111950462D01*
X104933155Y-111901215D01*
X104851260Y-111867294D01*
X104764321Y-111850000D01*
X104675679Y-111850000D01*
X104588740Y-111867294D01*
X104506845Y-111901215D01*
X104433142Y-111950462D01*
X104370462Y-112013142D01*
X104321215Y-112086845D01*
X104287294Y-112168740D01*
X104270000Y-112255679D01*
X104270000Y-112344321D01*
X104287294Y-112431260D01*
X104321215Y-112513155D01*
X104370462Y-112586858D01*
X104433142Y-112649538D01*
X104506845Y-112698785D01*
X104588740Y-112732706D01*
X104675679Y-112750000D01*
X104764321Y-112750000D01*
X104851260Y-112732706D01*
X104933155Y-112698785D01*
X104957528Y-112682500D01*
X104921215Y-112736845D01*
X104887294Y-112818740D01*
X104870000Y-112905679D01*
X104870000Y-112994321D01*
X104887294Y-113081260D01*
X104921215Y-113163155D01*
X104942130Y-113194456D01*
X104933142Y-113200462D01*
X104870462Y-113263142D01*
X104864456Y-113272130D01*
X104833155Y-113251215D01*
X104751260Y-113217294D01*
X104664321Y-113200000D01*
X104575679Y-113200000D01*
X104488740Y-113217294D01*
X104406845Y-113251215D01*
X104333142Y-113300462D01*
X104270462Y-113363142D01*
X104221215Y-113436845D01*
X104187294Y-113518740D01*
X104170000Y-113605679D01*
X104170000Y-113694321D01*
X104187294Y-113781260D01*
X104221215Y-113863155D01*
X104246749Y-113901370D01*
X104233142Y-113910462D01*
X104170462Y-113973142D01*
X104121215Y-114046845D01*
X104087294Y-114128740D01*
X104070000Y-114215679D01*
X103130729Y-114215679D01*
X103118785Y-114186845D01*
X103069538Y-114113142D01*
X103006858Y-114050462D01*
X102933155Y-114001215D01*
X102851260Y-113967294D01*
X102764321Y-113950000D01*
X102675679Y-113950000D01*
X102588740Y-113967294D01*
X102506845Y-114001215D01*
X102433142Y-114050462D01*
X102370462Y-114113142D01*
X102321215Y-114186845D01*
X102287294Y-114268740D01*
X102270000Y-114355679D01*
X100521473Y-114355679D01*
X100485520Y-114331656D01*
X100298982Y-114254390D01*
X100100954Y-114215000D01*
X99899046Y-114215000D01*
X99701018Y-114254390D01*
X99514480Y-114331656D01*
X99346600Y-114443830D01*
X99205000Y-114585430D01*
X99205000Y-113354570D01*
X99346600Y-113496170D01*
X99514480Y-113608344D01*
X99701018Y-113685610D01*
X99899046Y-113725000D01*
X100100954Y-113725000D01*
X100298982Y-113685610D01*
X100485520Y-113608344D01*
X100653400Y-113496170D01*
X100796170Y-113353400D01*
X100908344Y-113185520D01*
X100985610Y-112998982D01*
X101025000Y-112800954D01*
X101025000Y-112655679D01*
X101210000Y-112655679D01*
X101210000Y-112744321D01*
X101227294Y-112831260D01*
X101261215Y-112913155D01*
X101310462Y-112986858D01*
X101373142Y-113049538D01*
X101446845Y-113098785D01*
X101528740Y-113132706D01*
X101615679Y-113150000D01*
X101704321Y-113150000D01*
X101791260Y-113132706D01*
X101873155Y-113098785D01*
X101946858Y-113049538D01*
X102009538Y-112986858D01*
X102058785Y-112913155D01*
X102092706Y-112831260D01*
X102110000Y-112744321D01*
X102110000Y-112655679D01*
X102092833Y-112569377D01*
X102136845Y-112598785D01*
X102218740Y-112632706D01*
X102305679Y-112650000D01*
X102394321Y-112650000D01*
X102481260Y-112632706D01*
X102563155Y-112598785D01*
X102636858Y-112549538D01*
X102699538Y-112486858D01*
X102748785Y-112413155D01*
X102782706Y-112331260D01*
X102800000Y-112244321D01*
X102800000Y-112155679D01*
X102782706Y-112068740D01*
X102748785Y-111986845D01*
X102699538Y-111913142D01*
X102636858Y-111850462D01*
X102563155Y-111801215D01*
X102481260Y-111767294D01*
X102394321Y-111750000D01*
X102305679Y-111750000D01*
X102218740Y-111767294D01*
X102136845Y-111801215D01*
X102063142Y-111850462D01*
X102000462Y-111913142D01*
X101951215Y-111986845D01*
X101917294Y-112068740D01*
X101900000Y-112155679D01*
X101900000Y-112244321D01*
X101917167Y-112330623D01*
X101873155Y-112301215D01*
X101791260Y-112267294D01*
X101704321Y-112250000D01*
X101615679Y-112250000D01*
X101528740Y-112267294D01*
X101446845Y-112301215D01*
X101373142Y-112350462D01*
X101310462Y-112413142D01*
X101261215Y-112486845D01*
X101227294Y-112568740D01*
X101210000Y-112655679D01*
X101025000Y-112655679D01*
X101025000Y-112599046D01*
X100985610Y-112401018D01*
X100908344Y-112214480D01*
X100796170Y-112046600D01*
X100653400Y-111903830D01*
X100485520Y-111791656D01*
X100298982Y-111714390D01*
X100100954Y-111675000D01*
X99899046Y-111675000D01*
X99701018Y-111714390D01*
X99514480Y-111791656D01*
X99346600Y-111903830D01*
X99205000Y-112045430D01*
X99205000Y-110814570D01*
X99346600Y-110956170D01*
X99514480Y-111068344D01*
X99701018Y-111145610D01*
X99899046Y-111185000D01*
X100100954Y-111185000D01*
X100298982Y-111145610D01*
X100485520Y-111068344D01*
X100653400Y-110956170D01*
X100796170Y-110813400D01*
X100908344Y-110645520D01*
X100985610Y-110458982D01*
X101025000Y-110260954D01*
X101025000Y-110059046D01*
X100985610Y-109861018D01*
X100908344Y-109674480D01*
X100796170Y-109506600D01*
X100653400Y-109363830D01*
X100485520Y-109251656D01*
X100298982Y-109174390D01*
X100100954Y-109135000D01*
X99899046Y-109135000D01*
X99701018Y-109174390D01*
X99514480Y-109251656D01*
X99346600Y-109363830D01*
X99205000Y-109505430D01*
X99205000Y-108274570D01*
X99346600Y-108416170D01*
X99514480Y-108528344D01*
X99701018Y-108605610D01*
X99899046Y-108645000D01*
X100100954Y-108645000D01*
X100298982Y-108605610D01*
X100485520Y-108528344D01*
X100609236Y-108445679D01*
X101430000Y-108445679D01*
X101430000Y-108534321D01*
X101447294Y-108621260D01*
X101481215Y-108703155D01*
X101530462Y-108776858D01*
X101593142Y-108839538D01*
X101666845Y-108888785D01*
X101748740Y-108922706D01*
X101835679Y-108940000D01*
X101924321Y-108940000D01*
X102011260Y-108922706D01*
X102093155Y-108888785D01*
X102166858Y-108839538D01*
X102180000Y-108826396D01*
X102193142Y-108839538D01*
X102266845Y-108888785D01*
X102348740Y-108922706D01*
X102435679Y-108940000D01*
X102524321Y-108940000D01*
X102611260Y-108922706D01*
X102693155Y-108888785D01*
X102729076Y-108864783D01*
X102730462Y-108866858D01*
X102793142Y-108929538D01*
X102866845Y-108978785D01*
X102948740Y-109012706D01*
X103035679Y-109030000D01*
X103124321Y-109030000D01*
X103211260Y-109012706D01*
X103293155Y-108978785D01*
X103366858Y-108929538D01*
X103380000Y-108916396D01*
X103393142Y-108929538D01*
X103466845Y-108978785D01*
X103548740Y-109012706D01*
X103635679Y-109030000D01*
X103724321Y-109030000D01*
X103811260Y-109012706D01*
X103893155Y-108978785D01*
X103966858Y-108929538D01*
X103980000Y-108916396D01*
X103993142Y-108929538D01*
X104066845Y-108978785D01*
X104148740Y-109012706D01*
X104235679Y-109030000D01*
X104324321Y-109030000D01*
X104411260Y-109012706D01*
X104493155Y-108978785D01*
X104566858Y-108929538D01*
X104629538Y-108866858D01*
X104678785Y-108793155D01*
X104712706Y-108711260D01*
X104730000Y-108624321D01*
X104730000Y-108535679D01*
X104712706Y-108448740D01*
X104678785Y-108366845D01*
X104629538Y-108293142D01*
X104566858Y-108230462D01*
X104493155Y-108181215D01*
X104411260Y-108147294D01*
X104324321Y-108130000D01*
X104235679Y-108130000D01*
X104148740Y-108147294D01*
X104066845Y-108181215D01*
X103993142Y-108230462D01*
X103980000Y-108243604D01*
X103966858Y-108230462D01*
X103893155Y-108181215D01*
X103811260Y-108147294D01*
X103724321Y-108130000D01*
X103635679Y-108130000D01*
X103548740Y-108147294D01*
X103466845Y-108181215D01*
X103393142Y-108230462D01*
X103380000Y-108243604D01*
X103366858Y-108230462D01*
X103293155Y-108181215D01*
X103211260Y-108147294D01*
X103124321Y-108130000D01*
X103035679Y-108130000D01*
X102948740Y-108147294D01*
X102866845Y-108181215D01*
X102830924Y-108205217D01*
X102829538Y-108203142D01*
X102766858Y-108140462D01*
X102729768Y-108115679D01*
X110510000Y-108115679D01*
X110510000Y-108204321D01*
X110527294Y-108291260D01*
X110561215Y-108373155D01*
X110610462Y-108446858D01*
X110673142Y-108509538D01*
X110746845Y-108558785D01*
X110828740Y-108592706D01*
X110915679Y-108610000D01*
X111004321Y-108610000D01*
X111091260Y-108592706D01*
X111173155Y-108558785D01*
X111246858Y-108509538D01*
X111309538Y-108446858D01*
X111358785Y-108373155D01*
X111392706Y-108291260D01*
X111410000Y-108204321D01*
X111410000Y-108115679D01*
X111392706Y-108028740D01*
X111358785Y-107946845D01*
X111309538Y-107873142D01*
X111246858Y-107810462D01*
X111173155Y-107761215D01*
X111091260Y-107727294D01*
X111004321Y-107710000D01*
X110915679Y-107710000D01*
X110828740Y-107727294D01*
X110746845Y-107761215D01*
X110673142Y-107810462D01*
X110610462Y-107873142D01*
X110561215Y-107946845D01*
X110527294Y-108028740D01*
X110510000Y-108115679D01*
X102729768Y-108115679D01*
X102693155Y-108091215D01*
X102611260Y-108057294D01*
X102524321Y-108040000D01*
X102435679Y-108040000D01*
X102348740Y-108057294D01*
X102266845Y-108091215D01*
X102193142Y-108140462D01*
X102180000Y-108153604D01*
X102166858Y-108140462D01*
X102093155Y-108091215D01*
X102011260Y-108057294D01*
X101924321Y-108040000D01*
X101835679Y-108040000D01*
X101748740Y-108057294D01*
X101666845Y-108091215D01*
X101593142Y-108140462D01*
X101530462Y-108203142D01*
X101481215Y-108276845D01*
X101447294Y-108358740D01*
X101430000Y-108445679D01*
X100609236Y-108445679D01*
X100653400Y-108416170D01*
X100796170Y-108273400D01*
X100908344Y-108105520D01*
X100985610Y-107918982D01*
X101025000Y-107720954D01*
X101025000Y-107519046D01*
X100985610Y-107321018D01*
X100908344Y-107134480D01*
X100796170Y-106966600D01*
X100653400Y-106823830D01*
X100485520Y-106711656D01*
X100298982Y-106634390D01*
X100100954Y-106595000D01*
X99899046Y-106595000D01*
X99701018Y-106634390D01*
X99514480Y-106711656D01*
X99346600Y-106823830D01*
X99205000Y-106965430D01*
X99205000Y-106475679D01*
X101560000Y-106475679D01*
X101560000Y-106564321D01*
X101577294Y-106651260D01*
X101611215Y-106733155D01*
X101660462Y-106806858D01*
X101723142Y-106869538D01*
X101796845Y-106918785D01*
X101878740Y-106952706D01*
X101965679Y-106970000D01*
X102054321Y-106970000D01*
X102141260Y-106952706D01*
X102223155Y-106918785D01*
X102296858Y-106869538D01*
X102310000Y-106856396D01*
X102323142Y-106869538D01*
X102396845Y-106918785D01*
X102478740Y-106952706D01*
X102565679Y-106970000D01*
X102654321Y-106970000D01*
X102741260Y-106952706D01*
X102823155Y-106918785D01*
X102896858Y-106869538D01*
X102959538Y-106806858D01*
X103008785Y-106733155D01*
X103042706Y-106651260D01*
X103060000Y-106564321D01*
X103060000Y-106515679D01*
X106770000Y-106515679D01*
X106770000Y-106604321D01*
X106787294Y-106691260D01*
X106821215Y-106773155D01*
X106870462Y-106846858D01*
X106933142Y-106909538D01*
X107006845Y-106958785D01*
X107088740Y-106992706D01*
X107175679Y-107010000D01*
X107264321Y-107010000D01*
X107351260Y-106992706D01*
X107433155Y-106958785D01*
X107452769Y-106945679D01*
X111840000Y-106945679D01*
X111840000Y-107034321D01*
X111857294Y-107121260D01*
X111891215Y-107203155D01*
X111940462Y-107276858D01*
X112003142Y-107339538D01*
X112003833Y-107340000D01*
X112003142Y-107340462D01*
X111940462Y-107403142D01*
X111891215Y-107476845D01*
X111857294Y-107558740D01*
X111840000Y-107645679D01*
X111840000Y-107734321D01*
X111857294Y-107821260D01*
X111891215Y-107903155D01*
X111940462Y-107976858D01*
X112003142Y-108039538D01*
X112076845Y-108088785D01*
X112158740Y-108122706D01*
X112245679Y-108140000D01*
X112334321Y-108140000D01*
X112421260Y-108122706D01*
X112503155Y-108088785D01*
X112576858Y-108039538D01*
X112639538Y-107976858D01*
X112688785Y-107903155D01*
X112722706Y-107821260D01*
X112740000Y-107734321D01*
X112740000Y-107645679D01*
X112722706Y-107558740D01*
X112688785Y-107476845D01*
X112639538Y-107403142D01*
X112576858Y-107340462D01*
X112576167Y-107340000D01*
X112576858Y-107339538D01*
X112639538Y-107276858D01*
X112688785Y-107203155D01*
X112722706Y-107121260D01*
X112740000Y-107034321D01*
X112740000Y-106945679D01*
X112722706Y-106858740D01*
X112688785Y-106776845D01*
X112639538Y-106703142D01*
X112576858Y-106640462D01*
X112503155Y-106591215D01*
X112421260Y-106557294D01*
X112334321Y-106540000D01*
X112245679Y-106540000D01*
X112158740Y-106557294D01*
X112076845Y-106591215D01*
X112003142Y-106640462D01*
X111940462Y-106703142D01*
X111891215Y-106776845D01*
X111857294Y-106858740D01*
X111840000Y-106945679D01*
X107452769Y-106945679D01*
X107506858Y-106909538D01*
X107569538Y-106846858D01*
X107618785Y-106773155D01*
X107652706Y-106691260D01*
X107670000Y-106604321D01*
X107670000Y-106515679D01*
X107652706Y-106428740D01*
X107618785Y-106346845D01*
X107569538Y-106273142D01*
X107506858Y-106210462D01*
X107433155Y-106161215D01*
X107351260Y-106127294D01*
X107264321Y-106110000D01*
X107175679Y-106110000D01*
X107088740Y-106127294D01*
X107006845Y-106161215D01*
X106933142Y-106210462D01*
X106870462Y-106273142D01*
X106821215Y-106346845D01*
X106787294Y-106428740D01*
X106770000Y-106515679D01*
X103060000Y-106515679D01*
X103060000Y-106475679D01*
X103042706Y-106388740D01*
X103008785Y-106306845D01*
X102959538Y-106233142D01*
X102896858Y-106170462D01*
X102823155Y-106121215D01*
X102741260Y-106087294D01*
X102654321Y-106070000D01*
X102565679Y-106070000D01*
X102478740Y-106087294D01*
X102396845Y-106121215D01*
X102323142Y-106170462D01*
X102310000Y-106183604D01*
X102296858Y-106170462D01*
X102223155Y-106121215D01*
X102141260Y-106087294D01*
X102054321Y-106070000D01*
X101965679Y-106070000D01*
X101878740Y-106087294D01*
X101796845Y-106121215D01*
X101723142Y-106170462D01*
X101660462Y-106233142D01*
X101611215Y-106306845D01*
X101577294Y-106388740D01*
X101560000Y-106475679D01*
X99205000Y-106475679D01*
X99205000Y-105734570D01*
X99346600Y-105876170D01*
X99514480Y-105988344D01*
X99701018Y-106065610D01*
X99899046Y-106105000D01*
X100100954Y-106105000D01*
X100298982Y-106065610D01*
X100485520Y-105988344D01*
X100653400Y-105876170D01*
X100796170Y-105733400D01*
X100908344Y-105565520D01*
X100985610Y-105378982D01*
X101025000Y-105180954D01*
X101025000Y-104979046D01*
X100985610Y-104781018D01*
X100908344Y-104594480D01*
X100878624Y-104550000D01*
X102575000Y-104550000D01*
X102575000Y-105100000D01*
X102598685Y-105240480D01*
X102649321Y-105373640D01*
X102724963Y-105494363D01*
X102822703Y-105598009D01*
X102938785Y-105680595D01*
X103068749Y-105738948D01*
X103137471Y-105756548D01*
X103250000Y-105716878D01*
X103250000Y-104550000D01*
X103350000Y-104550000D01*
X103350000Y-105716878D01*
X103462529Y-105756548D01*
X103531251Y-105738948D01*
X103661215Y-105680595D01*
X103777297Y-105598009D01*
X103875037Y-105494363D01*
X103950679Y-105373640D01*
X104001315Y-105240480D01*
X104025000Y-105100000D01*
X104025000Y-104550000D01*
X103350000Y-104550000D01*
X103250000Y-104550000D01*
X102575000Y-104550000D01*
X100878624Y-104550000D01*
X100796170Y-104426600D01*
X100653400Y-104283830D01*
X100485520Y-104171656D01*
X100298982Y-104094390D01*
X100100954Y-104055000D01*
X99899046Y-104055000D01*
X99701018Y-104094390D01*
X99514480Y-104171656D01*
X99346600Y-104283830D01*
X99205000Y-104425430D01*
X99205000Y-103900000D01*
X102575000Y-103900000D01*
X102575000Y-104450000D01*
X103250000Y-104450000D01*
X103250000Y-103283122D01*
X103350000Y-103283122D01*
X103350000Y-104450000D01*
X104025000Y-104450000D01*
X104025000Y-103915830D01*
X104180000Y-103915830D01*
X104180000Y-104024170D01*
X104201136Y-104130429D01*
X104242597Y-104230523D01*
X104302787Y-104320604D01*
X104379396Y-104397213D01*
X104469477Y-104457403D01*
X104569571Y-104498864D01*
X104675830Y-104520000D01*
X104784170Y-104520000D01*
X104890429Y-104498864D01*
X104990523Y-104457403D01*
X105080604Y-104397213D01*
X105157213Y-104320604D01*
X105217403Y-104230523D01*
X105258864Y-104130429D01*
X105269754Y-104075679D01*
X105500000Y-104075679D01*
X105500000Y-104164321D01*
X105517294Y-104251260D01*
X105551215Y-104333155D01*
X105600462Y-104406858D01*
X105663142Y-104469538D01*
X105736845Y-104518785D01*
X105818740Y-104552706D01*
X105905679Y-104570000D01*
X105994321Y-104570000D01*
X106081260Y-104552706D01*
X106163155Y-104518785D01*
X106236858Y-104469538D01*
X106299538Y-104406858D01*
X106348785Y-104333155D01*
X106382706Y-104251260D01*
X106400000Y-104164321D01*
X106400000Y-104075679D01*
X108840000Y-104075679D01*
X108840000Y-104164321D01*
X108857294Y-104251260D01*
X108891215Y-104333155D01*
X108940462Y-104406858D01*
X109003142Y-104469538D01*
X109076845Y-104518785D01*
X109158740Y-104552706D01*
X109245679Y-104570000D01*
X109334321Y-104570000D01*
X109421260Y-104552706D01*
X109427793Y-104550000D01*
X111215000Y-104550000D01*
X111215000Y-105100000D01*
X111238685Y-105240480D01*
X111289321Y-105373640D01*
X111364963Y-105494363D01*
X111462703Y-105598009D01*
X111578785Y-105680595D01*
X111708749Y-105738948D01*
X111777471Y-105756548D01*
X111890000Y-105716878D01*
X111890000Y-104550000D01*
X111990000Y-104550000D01*
X111990000Y-105716878D01*
X112102529Y-105756548D01*
X112171251Y-105738948D01*
X112301215Y-105680595D01*
X112417297Y-105598009D01*
X112515037Y-105494363D01*
X112590679Y-105373640D01*
X112641315Y-105240480D01*
X112665000Y-105100000D01*
X112665000Y-104550000D01*
X111990000Y-104550000D01*
X111890000Y-104550000D01*
X111215000Y-104550000D01*
X109427793Y-104550000D01*
X109503155Y-104518785D01*
X109576858Y-104469538D01*
X109639538Y-104406858D01*
X109688785Y-104333155D01*
X109722706Y-104251260D01*
X109740000Y-104164321D01*
X109740000Y-104075679D01*
X109722706Y-103988740D01*
X109692507Y-103915830D01*
X109960000Y-103915830D01*
X109960000Y-104024170D01*
X109981136Y-104130429D01*
X110022597Y-104230523D01*
X110082787Y-104320604D01*
X110159396Y-104397213D01*
X110249477Y-104457403D01*
X110349571Y-104498864D01*
X110455830Y-104520000D01*
X110564170Y-104520000D01*
X110670429Y-104498864D01*
X110770523Y-104457403D01*
X110860604Y-104397213D01*
X110937213Y-104320604D01*
X110997403Y-104230523D01*
X111038864Y-104130429D01*
X111060000Y-104024170D01*
X111060000Y-103915830D01*
X111056852Y-103900000D01*
X111215000Y-103900000D01*
X111215000Y-104450000D01*
X111890000Y-104450000D01*
X111890000Y-103283122D01*
X111990000Y-103283122D01*
X111990000Y-104450000D01*
X112665000Y-104450000D01*
X112665000Y-103900000D01*
X112641315Y-103759520D01*
X112590679Y-103626360D01*
X112515037Y-103505637D01*
X112417297Y-103401991D01*
X112301215Y-103319405D01*
X112171251Y-103261052D01*
X112102529Y-103243452D01*
X111990000Y-103283122D01*
X111890000Y-103283122D01*
X111777471Y-103243452D01*
X111708749Y-103261052D01*
X111578785Y-103319405D01*
X111462703Y-103401991D01*
X111364963Y-103505637D01*
X111289321Y-103626360D01*
X111238685Y-103759520D01*
X111215000Y-103900000D01*
X111056852Y-103900000D01*
X111038864Y-103809571D01*
X110997403Y-103709477D01*
X110937213Y-103619396D01*
X110860604Y-103542787D01*
X110770523Y-103482597D01*
X110670429Y-103441136D01*
X110564170Y-103420000D01*
X110455830Y-103420000D01*
X110349571Y-103441136D01*
X110249477Y-103482597D01*
X110159396Y-103542787D01*
X110082787Y-103619396D01*
X110022597Y-103709477D01*
X109981136Y-103809571D01*
X109960000Y-103915830D01*
X109692507Y-103915830D01*
X109688785Y-103906845D01*
X109639538Y-103833142D01*
X109576858Y-103770462D01*
X109503155Y-103721215D01*
X109421260Y-103687294D01*
X109334321Y-103670000D01*
X109245679Y-103670000D01*
X109158740Y-103687294D01*
X109076845Y-103721215D01*
X109003142Y-103770462D01*
X108940462Y-103833142D01*
X108891215Y-103906845D01*
X108857294Y-103988740D01*
X108840000Y-104075679D01*
X106400000Y-104075679D01*
X106382706Y-103988740D01*
X106348785Y-103906845D01*
X106299538Y-103833142D01*
X106236858Y-103770462D01*
X106163155Y-103721215D01*
X106081260Y-103687294D01*
X105994321Y-103670000D01*
X105905679Y-103670000D01*
X105818740Y-103687294D01*
X105736845Y-103721215D01*
X105663142Y-103770462D01*
X105600462Y-103833142D01*
X105551215Y-103906845D01*
X105517294Y-103988740D01*
X105500000Y-104075679D01*
X105269754Y-104075679D01*
X105280000Y-104024170D01*
X105280000Y-103915830D01*
X105258864Y-103809571D01*
X105217403Y-103709477D01*
X105157213Y-103619396D01*
X105080604Y-103542787D01*
X104990523Y-103482597D01*
X104890429Y-103441136D01*
X104784170Y-103420000D01*
X104675830Y-103420000D01*
X104569571Y-103441136D01*
X104469477Y-103482597D01*
X104379396Y-103542787D01*
X104302787Y-103619396D01*
X104242597Y-103709477D01*
X104201136Y-103809571D01*
X104180000Y-103915830D01*
X104025000Y-103915830D01*
X104025000Y-103900000D01*
X104001315Y-103759520D01*
X103950679Y-103626360D01*
X103875037Y-103505637D01*
X103777297Y-103401991D01*
X103661215Y-103319405D01*
X103531251Y-103261052D01*
X103462529Y-103243452D01*
X103350000Y-103283122D01*
X103250000Y-103283122D01*
X103137471Y-103243452D01*
X103068749Y-103261052D01*
X102938785Y-103319405D01*
X102822703Y-103401991D01*
X102724963Y-103505637D01*
X102649321Y-103626360D01*
X102598685Y-103759520D01*
X102575000Y-103900000D01*
X99205000Y-103900000D01*
X99205000Y-103194570D01*
X99346600Y-103336170D01*
X99514480Y-103448344D01*
X99701018Y-103525610D01*
X99899046Y-103565000D01*
X100100954Y-103565000D01*
X100298982Y-103525610D01*
X100485520Y-103448344D01*
X100653400Y-103336170D01*
X100796170Y-103193400D01*
X100908344Y-103025520D01*
X100985610Y-102838982D01*
X101025000Y-102640954D01*
X101025000Y-102439046D01*
X100985610Y-102241018D01*
X100908344Y-102054480D01*
X100796170Y-101886600D01*
X100653400Y-101743830D01*
X100485520Y-101631656D01*
X100298982Y-101554390D01*
X100100954Y-101515000D01*
X99899046Y-101515000D01*
X99701018Y-101554390D01*
X99514480Y-101631656D01*
X99346600Y-101743830D01*
X99205000Y-101885430D01*
X99205000Y-100654570D01*
X99346600Y-100796170D01*
X99514480Y-100908344D01*
X99701018Y-100985610D01*
X99899046Y-101025000D01*
X100100954Y-101025000D01*
X100298982Y-100985610D01*
X100485520Y-100908344D01*
X100653400Y-100796170D01*
X100796170Y-100653400D01*
X100908344Y-100485520D01*
X100956193Y-100370000D01*
X102575000Y-100370000D01*
X102575000Y-100670000D01*
X102598685Y-100810480D01*
X102649321Y-100943640D01*
X102724963Y-101064363D01*
X102822703Y-101168009D01*
X102938785Y-101250595D01*
X103068749Y-101308948D01*
X103137471Y-101326548D01*
X103250000Y-101286878D01*
X103250000Y-100370000D01*
X103350000Y-100370000D01*
X103350000Y-101286878D01*
X103462529Y-101326548D01*
X103531251Y-101308948D01*
X103661215Y-101250595D01*
X103777297Y-101168009D01*
X103875037Y-101064363D01*
X103950679Y-100943640D01*
X104001315Y-100810480D01*
X104025000Y-100670000D01*
X104025000Y-100370000D01*
X111215000Y-100370000D01*
X111215000Y-100670000D01*
X111238685Y-100810480D01*
X111289321Y-100943640D01*
X111364963Y-101064363D01*
X111462703Y-101168009D01*
X111578785Y-101250595D01*
X111708749Y-101308948D01*
X111777471Y-101326548D01*
X111890000Y-101286878D01*
X111890000Y-100370000D01*
X111990000Y-100370000D01*
X111990000Y-101286878D01*
X112102529Y-101326548D01*
X112171251Y-101308948D01*
X112301215Y-101250595D01*
X112417297Y-101168009D01*
X112515037Y-101064363D01*
X112590679Y-100943640D01*
X112641315Y-100810480D01*
X112665000Y-100670000D01*
X112665000Y-100370000D01*
X111990000Y-100370000D01*
X111890000Y-100370000D01*
X111215000Y-100370000D01*
X104025000Y-100370000D01*
X103350000Y-100370000D01*
X103250000Y-100370000D01*
X102575000Y-100370000D01*
X100956193Y-100370000D01*
X100985610Y-100298982D01*
X101025000Y-100100954D01*
X101025000Y-99970000D01*
X102575000Y-99970000D01*
X102575000Y-100270000D01*
X103250000Y-100270000D01*
X103250000Y-99353122D01*
X103350000Y-99353122D01*
X103350000Y-100270000D01*
X104025000Y-100270000D01*
X104025000Y-99970000D01*
X111215000Y-99970000D01*
X111215000Y-100270000D01*
X111890000Y-100270000D01*
X111890000Y-99353122D01*
X111990000Y-99353122D01*
X111990000Y-100270000D01*
X112665000Y-100270000D01*
X112665000Y-99970000D01*
X112641315Y-99829520D01*
X112590679Y-99696360D01*
X112515037Y-99575637D01*
X112417297Y-99471991D01*
X112301215Y-99389405D01*
X112171251Y-99331052D01*
X112102529Y-99313452D01*
X111990000Y-99353122D01*
X111890000Y-99353122D01*
X111777471Y-99313452D01*
X111708749Y-99331052D01*
X111578785Y-99389405D01*
X111462703Y-99471991D01*
X111364963Y-99575637D01*
X111289321Y-99696360D01*
X111238685Y-99829520D01*
X111215000Y-99970000D01*
X104025000Y-99970000D01*
X104001315Y-99829520D01*
X103950679Y-99696360D01*
X103875037Y-99575637D01*
X103777297Y-99471991D01*
X103661215Y-99389405D01*
X103531251Y-99331052D01*
X103462529Y-99313452D01*
X103350000Y-99353122D01*
X103250000Y-99353122D01*
X103137471Y-99313452D01*
X103068749Y-99331052D01*
X102938785Y-99389405D01*
X102822703Y-99471991D01*
X102724963Y-99575637D01*
X102649321Y-99696360D01*
X102598685Y-99829520D01*
X102575000Y-99970000D01*
X101025000Y-99970000D01*
X101025000Y-99899046D01*
X100985610Y-99701018D01*
X100908344Y-99514480D01*
X100796170Y-99346600D01*
X100654570Y-99205000D01*
X114585430Y-99205000D01*
X114443830Y-99346600D01*
G37*
G04 #@! TD.AperFunction*
G04 #@! TD*
M02*
