G04 #@! TF.GenerationSoftware,KiCad,Pcbnew,5.1.9-1.fc33*
G04 #@! TF.CreationDate,2021-04-27T13:35:09+02:00*
G04 #@! TF.ProjectId,reDIP-SID,72654449-502d-4534-9944-2e6b69636164,0.2*
G04 #@! TF.SameCoordinates,PX5e28010PY8011a50*
G04 #@! TF.FileFunction,Copper,L3,Inr*
G04 #@! TF.FilePolarity,Positive*
%FSLAX46Y46*%
G04 Gerber Fmt 4.6, Leading zero omitted, Abs format (unit mm)*
G04 Created by KiCad (PCBNEW 5.1.9-1.fc33) date 2021-04-27 13:35:09*
%MOMM*%
%LPD*%
G01*
G04 APERTURE LIST*
G04 #@! TA.AperFunction,ComponentPad*
%ADD10O,1.000000X2.100000*%
G04 #@! TD*
G04 #@! TA.AperFunction,ComponentPad*
%ADD11O,1.000000X1.600000*%
G04 #@! TD*
G04 #@! TA.AperFunction,ComponentPad*
%ADD12C,1.600000*%
G04 #@! TD*
G04 #@! TA.AperFunction,ViaPad*
%ADD13C,0.450000*%
G04 #@! TD*
G04 #@! TA.AperFunction,Conductor*
%ADD14C,0.250000*%
G04 #@! TD*
G04 #@! TA.AperFunction,Conductor*
%ADD15C,0.150000*%
G04 #@! TD*
G04 #@! TA.AperFunction,Conductor*
%ADD16C,0.200000*%
G04 #@! TD*
G04 #@! TA.AperFunction,Conductor*
%ADD17C,0.350000*%
G04 #@! TD*
G04 APERTURE END LIST*
D10*
G04 #@! TO.N,GND*
G04 #@! TO.C,J5*
X103300000Y-104500000D03*
X111940000Y-104500000D03*
D11*
X111940000Y-100320000D03*
X103300000Y-100320000D03*
G04 #@! TD*
D12*
G04 #@! TO.N,/D0*
G04 #@! TO.C,J4*
X115240000Y-133020000D03*
G04 #@! TO.N,/D1*
X115240000Y-130480000D03*
G04 #@! TO.N,/D2*
X115240000Y-127940000D03*
G04 #@! TO.N,/D3*
X115240000Y-125400000D03*
G04 #@! TO.N,/D4*
X115240000Y-122860000D03*
G04 #@! TO.N,/D5*
X115240000Y-120320000D03*
G04 #@! TO.N,/D6*
X115240000Y-117780000D03*
G04 #@! TO.N,/D7*
X115240000Y-115240000D03*
G04 #@! TO.N,/POT_Y*
X115240000Y-112700000D03*
G04 #@! TO.N,/POT_X*
X115240000Y-110160000D03*
G04 #@! TD*
G04 #@! TO.N,/SPI_SIO2*
G04 #@! TO.C,J6*
X102540000Y-133020000D03*
G04 #@! TO.N,/SPI_SIO3*
X102540000Y-130480000D03*
G04 #@! TO.N,+3V3*
X105080000Y-133020000D03*
G04 #@! TO.N,/SPI_SIO0*
X105080000Y-130480000D03*
G04 #@! TO.N,GND*
X107620000Y-133020000D03*
G04 #@! TO.N,/SPI_SIO1*
X107620000Y-130480000D03*
G04 #@! TO.N,/~CRESET~*
X110160000Y-133020000D03*
G04 #@! TO.N,/SPI_SCLK*
X110160000Y-130480000D03*
G04 #@! TO.N,/CDONE*
X112700000Y-133020000D03*
G04 #@! TO.N,/SPI_FLASH_~CS~*
X112700000Y-130480000D03*
G04 #@! TD*
G04 #@! TO.N,GND*
G04 #@! TO.C,J3*
X100000000Y-133020000D03*
G04 #@! TO.N,/A4*
X100000000Y-130480000D03*
G04 #@! TO.N,/A3*
X100000000Y-127940000D03*
G04 #@! TO.N,/A2*
X100000000Y-125400000D03*
G04 #@! TO.N,/A1*
X100000000Y-122860000D03*
G04 #@! TO.N,/A0*
X100000000Y-120320000D03*
G04 #@! TO.N,/~CS~*
X100000000Y-117780000D03*
G04 #@! TO.N,/R_~W~*
X100000000Y-115240000D03*
G04 #@! TO.N,/\u00D82*
X100000000Y-112700000D03*
G04 #@! TO.N,/~RES~*
X100000000Y-110160000D03*
G04 #@! TD*
G04 #@! TO.N,VCC*
G04 #@! TO.C,J2*
X115240000Y-107620000D03*
G04 #@! TO.N,/EXT_IN*
X115240000Y-105080000D03*
G04 #@! TO.N,/AUDIO_OUT*
X115240000Y-102540000D03*
G04 #@! TO.N,/AUDIO_OUT_2*
X115240000Y-100000000D03*
G04 #@! TD*
G04 #@! TO.N,/A8*
G04 #@! TO.C,J1*
X100000000Y-107620000D03*
G04 #@! TO.N,/A5*
X100000000Y-105080000D03*
G04 #@! TO.N,/~IO1~*
X100000000Y-102540000D03*
G04 #@! TO.N,+3V3*
X100000000Y-100000000D03*
G04 #@! TD*
D13*
G04 #@! TO.N,GND*
X113520000Y-116190000D03*
X113520000Y-114820000D03*
X111000000Y-111040000D03*
X107620000Y-126930000D03*
X105930000Y-108170000D03*
X107620000Y-124930000D03*
X111430000Y-110620000D03*
X110580000Y-111460000D03*
X111430000Y-111460000D03*
X110580000Y-110610000D03*
X108620000Y-117990000D03*
X109630000Y-117110000D03*
X107620000Y-119000000D03*
X106630000Y-117990000D03*
X105730000Y-117110000D03*
X104990000Y-129110000D03*
X113430000Y-109560000D03*
X107470000Y-114840000D03*
X102260000Y-119210000D03*
X113180000Y-119190000D03*
X113520000Y-112490000D03*
X107620000Y-117010000D03*
X101710000Y-115720000D03*
X107280000Y-107740000D03*
X103170000Y-113950000D03*
X108630000Y-106610000D03*
X112540000Y-127160000D03*
X105410000Y-106530000D03*
X112540000Y-125260000D03*
X104280000Y-110250000D03*
X103680000Y-110250000D03*
X103080000Y-110250000D03*
X102480000Y-110250000D03*
X102780000Y-110770000D03*
X103380000Y-110770000D03*
X103980000Y-110770000D03*
G04 #@! TO.N,+3V3*
X102350000Y-112200000D03*
X113020000Y-129210000D03*
X114720000Y-129210000D03*
X102140000Y-131750000D03*
X104720000Y-112300000D03*
X103470000Y-124670000D03*
X111900000Y-127160000D03*
X110960000Y-108160000D03*
X105560000Y-120770000D03*
X112510000Y-112550000D03*
X113000000Y-117070000D03*
X102720000Y-114400000D03*
X102480000Y-108490000D03*
X101880000Y-108490000D03*
X101710000Y-115120000D03*
G04 #@! TO.N,+1V2*
X112880000Y-114820000D03*
X104280000Y-119990000D03*
X104280000Y-108580000D03*
G04 #@! TO.N,VBUS*
X107220000Y-106560000D03*
X109290000Y-104120000D03*
X105950000Y-104120000D03*
G04 #@! TO.N,/~CRESET~*
X110490000Y-113320000D03*
G04 #@! TO.N,/CDONE*
X110370000Y-113910000D03*
G04 #@! TO.N,/\u00D82*
X101660000Y-112700000D03*
G04 #@! TO.N,/ICE_POT_X*
X108520000Y-122940000D03*
G04 #@! TO.N,/ICE_POT_Y*
X109120000Y-122940000D03*
G04 #@! TO.N,/ICE_A5*
X110370000Y-120120000D03*
G04 #@! TO.N,/ICE_A8*
X107530000Y-122940000D03*
G04 #@! TO.N,/ICE_~RES~*
X102780000Y-126160000D03*
X103720000Y-114870000D03*
X101700000Y-122780000D03*
G04 #@! TO.N,/ICE_D4*
X112300000Y-114660000D03*
G04 #@! TO.N,/ICE_D3*
X111820000Y-115020000D03*
G04 #@! TO.N,/ICE_D2*
X112410000Y-118590000D03*
G04 #@! TO.N,/ICE_D1*
X111810000Y-118680000D03*
G04 #@! TO.N,/ICE_D0*
X111670000Y-119270000D03*
G04 #@! TO.N,/ICE_A4*
X104960000Y-120710000D03*
G04 #@! TO.N,/ICE_A3*
X104870000Y-120110000D03*
G04 #@! TO.N,/ICE_\u00D82*
X111080000Y-119410000D03*
G04 #@! TO.N,/ICE_A2*
X102640000Y-118740000D03*
G04 #@! TO.N,/ICE_A1*
X103100000Y-118350000D03*
G04 #@! TO.N,/ICE_A0*
X103210000Y-118950000D03*
G04 #@! TO.N,/ICE_~CS~*
X103810000Y-119050000D03*
G04 #@! TO.N,/ICE_R_~W~*
X101700000Y-121970000D03*
G04 #@! TO.N,/ICE_D7*
X112500000Y-117990000D03*
G04 #@! TO.N,/ICE_D6*
X110960000Y-120000000D03*
G04 #@! TO.N,/ICE_D5*
X111750000Y-114420000D03*
G04 #@! TO.N,+5V*
X103080000Y-108580000D03*
X102790000Y-124180000D03*
X103680000Y-108580000D03*
G04 #@! TO.N,/ICE_~IO1~*
X110020000Y-120610000D03*
G04 #@! TO.N,/SPI_RAM_~CS~*
X103800000Y-127880000D03*
G04 #@! TO.N,/SPI_SIO3*
X104520000Y-114260000D03*
G04 #@! TO.N,/SPI_SIO2*
X104620000Y-113650000D03*
G04 #@! TO.N,/SPI_SIO0*
X106280000Y-112490000D03*
G04 #@! TO.N,/SPI_SIO1*
X105220000Y-113550000D03*
G04 #@! TO.N,/SPI_SCLK*
X111140000Y-125930000D03*
X106580000Y-111890000D03*
G04 #@! TO.N,Net-(C10-Pad2)*
X112290000Y-107690000D03*
X113000000Y-112190000D03*
G04 #@! TO.N,/SPI_FLASH_~CS~*
X106440000Y-123340000D03*
X105540000Y-123340000D03*
X105320000Y-112950000D03*
G04 #@! TO.N,Net-(C9-Pad2)*
X112290000Y-106990000D03*
X111940000Y-113120000D03*
G04 #@! TO.N,/I2C_SCL_~LED~*
X113040000Y-125860000D03*
X110960000Y-113760000D03*
X109870000Y-113080000D03*
G04 #@! TO.N,/I2C_SDA_~BTN~*
X113040000Y-126560000D03*
X109510000Y-112600000D03*
G04 #@! TO.N,VCC*
X102010000Y-106520000D03*
X102610000Y-106520000D03*
G04 #@! TD*
D14*
G04 #@! TO.N,+3V3*
X102480000Y-108490000D02*
X101880000Y-108490000D01*
G04 #@! TO.N,+1V2*
X106000000Y-110300000D02*
X104280000Y-108580000D01*
X102764999Y-115084999D02*
X102764999Y-117654999D01*
X104119999Y-113729999D02*
X102764999Y-115084999D01*
X104119999Y-112180001D02*
X104119999Y-113729999D01*
X106000000Y-110300000D02*
X104119999Y-112180001D01*
X102764999Y-117654999D02*
X101759999Y-118659999D01*
X101759999Y-118659999D02*
X101759999Y-119440001D01*
X104000001Y-119710001D02*
X102029999Y-119710001D01*
X104280000Y-119990000D02*
X104000001Y-119710001D01*
X102029999Y-119710001D02*
X101759999Y-119440001D01*
X110459999Y-112819999D02*
X107940000Y-110300000D01*
X107940000Y-110300000D02*
X106000000Y-110300000D01*
X110730001Y-112819999D02*
X110459999Y-112819999D01*
X111830001Y-113919999D02*
X110730001Y-112819999D01*
X112300001Y-113919999D02*
X111830001Y-113919999D01*
X112880000Y-114499998D02*
X112300001Y-113919999D01*
X112880000Y-114820000D02*
X112880000Y-114499998D01*
D15*
G04 #@! TO.N,/~CRESET~*
X110490000Y-113320000D02*
X110293998Y-113320000D01*
X111430000Y-131750000D02*
X110160000Y-133020000D01*
X113020000Y-131750000D02*
X111430000Y-131750000D01*
X110293998Y-113320000D02*
X109919999Y-113693999D01*
X113490001Y-125144279D02*
X113490001Y-128664279D01*
X109919999Y-115214277D02*
X111149990Y-116444268D01*
X113819999Y-128994277D02*
X113820000Y-130950000D01*
X111149990Y-116444268D02*
X111149990Y-117775732D01*
X111149990Y-117775732D02*
X109199989Y-119725733D01*
X109199989Y-119725733D02*
X109199989Y-120854267D01*
X109919999Y-113693999D02*
X109919999Y-115214277D01*
X113490001Y-128664279D02*
X113819999Y-128994277D01*
X109199989Y-120854267D02*
X113490001Y-125144279D01*
X113820000Y-130950000D02*
X113020000Y-131750000D01*
G04 #@! TO.N,/CDONE*
X109524999Y-119825001D02*
X111450000Y-117900000D01*
X109524999Y-120754999D02*
X109524999Y-119825001D01*
X111450000Y-116320000D02*
X110245009Y-115115009D01*
X113790011Y-125020011D02*
X109524999Y-120754999D01*
X110245009Y-115115009D02*
X110245009Y-114034991D01*
X113790011Y-128540011D02*
X113790011Y-125020011D01*
X110245009Y-114034991D02*
X110370000Y-113910000D01*
X111450000Y-117900000D02*
X111450000Y-116320000D01*
X114120008Y-128870008D02*
X113790011Y-128540011D01*
X114120008Y-131599992D02*
X114120008Y-128870008D01*
X112700000Y-133020000D02*
X114120008Y-131599992D01*
G04 #@! TO.N,/ICE_~RES~*
X106010000Y-120580998D02*
X106010000Y-120960000D01*
X103469941Y-118040939D02*
X106010000Y-120580998D01*
X103469940Y-115120060D02*
X103469941Y-118040939D01*
X106010000Y-120960000D02*
X105480000Y-121490000D01*
X103469940Y-115120060D02*
X103720000Y-114870000D01*
X104189969Y-122780031D02*
X104189969Y-124750031D01*
X105480000Y-121490000D02*
X104189969Y-122780031D01*
X104189969Y-124750031D02*
X102780000Y-126160000D01*
D16*
G04 #@! TO.N,+5V*
X103080000Y-108580000D02*
X103680000Y-108580000D01*
X102790000Y-121000346D02*
X102790000Y-124180000D01*
X101384989Y-119595335D02*
X102790000Y-121000346D01*
X101384989Y-118504665D02*
X101384989Y-119595335D01*
X102244999Y-117644655D02*
X101384989Y-118504665D01*
X102244999Y-114165001D02*
X102244999Y-117644655D01*
X103670000Y-111990000D02*
X103670000Y-112740000D01*
X105050000Y-110610000D02*
X103670000Y-111990000D01*
X105050000Y-110053002D02*
X105050000Y-110610000D01*
X103680000Y-108683002D02*
X105050000Y-110053002D01*
X103670000Y-112740000D02*
X102244999Y-114165001D01*
X103680000Y-108580000D02*
X103680000Y-108683002D01*
D15*
G04 #@! TO.N,/SPI_SIO3*
X106310010Y-121084268D02*
X104489979Y-122904299D01*
X106310011Y-120456731D02*
X106310010Y-121084268D01*
X103769950Y-117916670D02*
X106310011Y-120456731D01*
X104489979Y-122904299D02*
X104489979Y-128530021D01*
X103769950Y-115650050D02*
X103769950Y-117916670D01*
X104489979Y-128530021D02*
X102540000Y-130480000D01*
X104520000Y-114900000D02*
X103769950Y-115650050D01*
X104520000Y-114260000D02*
X104520000Y-114900000D01*
G04 #@! TO.N,/SPI_SIO2*
X104970001Y-114874277D02*
X104069960Y-115774318D01*
X104970001Y-114000001D02*
X104970001Y-114874277D01*
X104620000Y-113650000D02*
X104970001Y-114000001D01*
X104789989Y-123028567D02*
X104789989Y-128654289D01*
X104069960Y-115774318D02*
X104069960Y-117792402D01*
X104069960Y-117792402D02*
X106610020Y-120332464D01*
X103810000Y-131750000D02*
X102540000Y-133020000D01*
X106610020Y-120332464D02*
X106610019Y-121208537D01*
X106610019Y-121208537D02*
X104789989Y-123028567D01*
X104789989Y-128654289D02*
X103810000Y-129634278D01*
X103810000Y-129634278D02*
X103810000Y-131750000D01*
G04 #@! TO.N,/SPI_SIO0*
X105970011Y-112799989D02*
X106280000Y-112490000D01*
X104969990Y-116147122D02*
X105970010Y-115147102D01*
X104969990Y-117419602D02*
X104969990Y-116147122D01*
X105080000Y-130480000D02*
X106200000Y-131600000D01*
X106200000Y-131600000D02*
X108080000Y-131600000D01*
X108740000Y-130940000D02*
X108740000Y-130010000D01*
X108740000Y-130010000D02*
X108090000Y-129360000D01*
X108090000Y-129360000D02*
X106924278Y-129360000D01*
X106924278Y-129360000D02*
X105390009Y-127825731D01*
X105390009Y-127825731D02*
X105390009Y-124139991D01*
X105970010Y-115147102D02*
X105970011Y-112799989D01*
X108080000Y-131600000D02*
X108740000Y-130940000D01*
X105390009Y-124139991D02*
X105990000Y-123540000D01*
X105990000Y-123540000D02*
X105990000Y-123101390D01*
X105990000Y-123101390D02*
X107510047Y-121581343D01*
X107510047Y-121581343D02*
X107510047Y-119959659D01*
X107510047Y-119959659D02*
X104969990Y-117419602D01*
G04 #@! TO.N,/SPI_SIO1*
X105220000Y-113550000D02*
X105270011Y-113600011D01*
X104369970Y-115898586D02*
X104369970Y-117668138D01*
X105270011Y-113600011D02*
X105270010Y-114998546D01*
X106910028Y-121332806D02*
X105089999Y-123152835D01*
X105089999Y-127949999D02*
X107620000Y-130480000D01*
X105270010Y-114998546D02*
X104369970Y-115898586D01*
X104369970Y-117668138D02*
X106910029Y-120208197D01*
X106910029Y-120208197D02*
X106910028Y-121332806D01*
X105089999Y-123152835D02*
X105089999Y-127949999D01*
G04 #@! TO.N,/SPI_SCLK*
X111140000Y-129500000D02*
X111140000Y-125930000D01*
X110160000Y-130480000D02*
X111140000Y-129500000D01*
X108870000Y-114180000D02*
X106580000Y-111890000D01*
X110100000Y-116870000D02*
X108870000Y-115640000D01*
X108870000Y-115640000D02*
X108870000Y-114180000D01*
X110100000Y-117340000D02*
X110100000Y-116870000D01*
X108240000Y-119200000D02*
X110100000Y-117340000D01*
X108240000Y-121310000D02*
X108240000Y-119200000D01*
X110160000Y-123230000D02*
X108240000Y-121310000D01*
X110160000Y-130480000D02*
X110160000Y-123230000D01*
G04 #@! TO.N,/SPI_FLASH_~CS~*
X105670001Y-113300001D02*
X105670001Y-115022833D01*
X105320000Y-112950000D02*
X105670001Y-113300001D01*
X105670001Y-115022833D02*
X104669980Y-116022854D01*
X105540000Y-123127112D02*
X105540000Y-123340000D01*
X104669980Y-116022854D02*
X104669980Y-117543870D01*
X104669980Y-117543870D02*
X107210037Y-120083927D01*
X107210037Y-120083927D02*
X107210037Y-121457075D01*
X107210037Y-121457075D02*
X105540000Y-123127112D01*
X106440000Y-123514278D02*
X106440000Y-123340000D01*
X108214268Y-129059990D02*
X107048546Y-129059990D01*
X105700000Y-124254278D02*
X106440000Y-123514278D01*
X109040009Y-129885731D02*
X108214268Y-129059990D01*
X109040010Y-130960010D02*
X109040009Y-129885731D01*
X109690000Y-131610000D02*
X109040010Y-130960010D01*
X110630000Y-131610000D02*
X109690000Y-131610000D01*
X105700000Y-127711444D02*
X105700000Y-124254278D01*
X107048546Y-129059990D02*
X105700000Y-127711444D01*
X111760000Y-130480000D02*
X110630000Y-131610000D01*
X112700000Y-130480000D02*
X111760000Y-130480000D01*
G04 #@! TO.N,/I2C_SCL_~LED~*
X108899981Y-119601463D02*
X108899981Y-120979981D01*
X113040000Y-125118556D02*
X113040000Y-125860000D01*
X110849980Y-116568536D02*
X110849980Y-117651464D01*
X108901425Y-120979981D02*
X113040000Y-125118556D01*
X109619990Y-115338546D02*
X110849980Y-116568536D01*
X110849980Y-117651464D02*
X108899981Y-119601463D01*
X109619989Y-113330011D02*
X109619990Y-115338546D01*
X108899981Y-120979981D02*
X108901425Y-120979981D01*
X109870000Y-113080000D02*
X109619989Y-113330011D01*
G04 #@! TO.N,/I2C_SDA_~BTN~*
X110549970Y-117527196D02*
X108599971Y-119477195D01*
X110549970Y-116692804D02*
X110549970Y-117527196D01*
X109319979Y-115462813D02*
X110549970Y-116692804D01*
X109319979Y-112790021D02*
X109319979Y-115462813D01*
X109510000Y-112600000D02*
X109319979Y-112790021D01*
X108599971Y-121104249D02*
X108599971Y-119477195D01*
X112088555Y-124592833D02*
X108599971Y-121104249D01*
X112089999Y-124592833D02*
X112089999Y-125609999D01*
X112089999Y-124592833D02*
X112088555Y-124592833D01*
X112089999Y-125609999D02*
X113040000Y-126560000D01*
D14*
G04 #@! TO.N,VCC*
X102010000Y-106520000D02*
X102610000Y-106520000D01*
X102090000Y-106440000D02*
X102010000Y-106520000D01*
X115240000Y-107620000D02*
X114520000Y-106900000D01*
X102760000Y-102960000D02*
X102090000Y-103630000D01*
X114520000Y-106900000D02*
X113630000Y-106900000D01*
X102090000Y-103630000D02*
X102090000Y-106440000D01*
X113630000Y-106900000D02*
X113180000Y-106450000D01*
X113180000Y-106450000D02*
X113180000Y-103700000D01*
X113180000Y-103700000D02*
X112440000Y-102960000D01*
X112440000Y-102960000D02*
X102760000Y-102960000D01*
G04 #@! TD*
D15*
G04 #@! TO.N,+3V3*
X99347747Y-99277036D02*
X100000000Y-99929289D01*
X100652253Y-99277036D01*
X100606537Y-99205000D01*
X114585430Y-99205000D01*
X114443830Y-99346600D01*
X114331656Y-99514480D01*
X114254390Y-99701018D01*
X114215000Y-99899046D01*
X114215000Y-100100954D01*
X114254390Y-100298982D01*
X114331656Y-100485520D01*
X114443830Y-100653400D01*
X114586600Y-100796170D01*
X114754480Y-100908344D01*
X114941018Y-100985610D01*
X115139046Y-101025000D01*
X115340954Y-101025000D01*
X115538982Y-100985610D01*
X115725520Y-100908344D01*
X115893400Y-100796170D01*
X116035001Y-100654569D01*
X116035001Y-101885431D01*
X115893400Y-101743830D01*
X115725520Y-101631656D01*
X115538982Y-101554390D01*
X115340954Y-101515000D01*
X115139046Y-101515000D01*
X114941018Y-101554390D01*
X114754480Y-101631656D01*
X114586600Y-101743830D01*
X114443830Y-101886600D01*
X114331656Y-102054480D01*
X114254390Y-102241018D01*
X114215000Y-102439046D01*
X114215000Y-102640954D01*
X114254390Y-102838982D01*
X114331656Y-103025520D01*
X114443830Y-103193400D01*
X114586600Y-103336170D01*
X114754480Y-103448344D01*
X114941018Y-103525610D01*
X115139046Y-103565000D01*
X115340954Y-103565000D01*
X115538982Y-103525610D01*
X115725520Y-103448344D01*
X115893400Y-103336170D01*
X116035001Y-103194569D01*
X116035001Y-104425431D01*
X115893400Y-104283830D01*
X115725520Y-104171656D01*
X115538982Y-104094390D01*
X115340954Y-104055000D01*
X115139046Y-104055000D01*
X114941018Y-104094390D01*
X114754480Y-104171656D01*
X114586600Y-104283830D01*
X114443830Y-104426600D01*
X114331656Y-104594480D01*
X114254390Y-104781018D01*
X114215000Y-104979046D01*
X114215000Y-105180954D01*
X114254390Y-105378982D01*
X114331656Y-105565520D01*
X114443830Y-105733400D01*
X114586600Y-105876170D01*
X114754480Y-105988344D01*
X114941018Y-106065610D01*
X115139046Y-106105000D01*
X115340954Y-106105000D01*
X115538982Y-106065610D01*
X115725520Y-105988344D01*
X115893400Y-105876170D01*
X116035001Y-105734569D01*
X116035001Y-106135140D01*
X116010285Y-106133442D01*
X113815257Y-106126604D01*
X113729898Y-106115098D01*
X113664136Y-106087625D01*
X113607727Y-106044075D01*
X113564508Y-105987411D01*
X113537422Y-105921488D01*
X113530000Y-105863872D01*
X113530000Y-104535380D01*
X113533618Y-103221997D01*
X113531767Y-103192571D01*
X113515027Y-103062894D01*
X113499930Y-103006027D01*
X113450143Y-102885123D01*
X113420817Y-102834112D01*
X113341386Y-102730250D01*
X113299837Y-102688587D01*
X113196194Y-102608870D01*
X113145264Y-102579403D01*
X113024498Y-102529283D01*
X112967672Y-102514029D01*
X112838041Y-102496932D01*
X112808621Y-102495000D01*
X102440000Y-102495000D01*
X102410632Y-102496925D01*
X102281222Y-102513962D01*
X102224486Y-102529164D01*
X102103896Y-102579114D01*
X102053028Y-102608483D01*
X101949475Y-102687943D01*
X101907943Y-102729475D01*
X101828483Y-102833028D01*
X101799114Y-102883896D01*
X101749164Y-103004486D01*
X101733962Y-103061222D01*
X101716925Y-103190632D01*
X101715000Y-103220000D01*
X101715000Y-106178604D01*
X101660462Y-106233142D01*
X101611215Y-106306845D01*
X101577294Y-106388740D01*
X101560000Y-106475679D01*
X101560000Y-106564321D01*
X101577294Y-106651260D01*
X101611215Y-106733155D01*
X101660462Y-106806858D01*
X101723142Y-106869538D01*
X101796845Y-106918785D01*
X101878740Y-106952706D01*
X101929767Y-106962856D01*
X101949194Y-106982303D01*
X102052635Y-107061772D01*
X102103448Y-107091154D01*
X102223924Y-107141164D01*
X102280613Y-107156405D01*
X102409924Y-107173550D01*
X102439271Y-107175502D01*
X108124815Y-107181216D01*
X109178236Y-107183779D01*
X109201663Y-107182299D01*
X111378154Y-107184486D01*
X111463241Y-107195731D01*
X111528858Y-107222869D01*
X111585258Y-107266006D01*
X111628632Y-107322230D01*
X111656043Y-107387735D01*
X111667640Y-107472774D01*
X111672433Y-108402655D01*
X111674502Y-108431959D01*
X111692141Y-108561039D01*
X111707578Y-108617594D01*
X111757964Y-108737736D01*
X111787488Y-108788385D01*
X111867201Y-108891432D01*
X111908808Y-108932736D01*
X112012437Y-109011692D01*
X112063301Y-109040844D01*
X112183809Y-109090348D01*
X112240477Y-109105370D01*
X112369683Y-109122062D01*
X112399000Y-109123915D01*
X113325856Y-109121900D01*
X113298740Y-109127294D01*
X113216845Y-109161215D01*
X113143142Y-109210462D01*
X113080462Y-109273142D01*
X113031215Y-109346845D01*
X112997294Y-109428740D01*
X112980000Y-109515679D01*
X112980000Y-109604321D01*
X112997294Y-109691260D01*
X113031215Y-109773155D01*
X113080462Y-109846858D01*
X113143142Y-109909538D01*
X113216845Y-109958785D01*
X113298740Y-109992706D01*
X113385679Y-110010000D01*
X113474321Y-110010000D01*
X113561260Y-109992706D01*
X113643155Y-109958785D01*
X113716858Y-109909538D01*
X113779538Y-109846858D01*
X113828785Y-109773155D01*
X113862706Y-109691260D01*
X113880000Y-109604321D01*
X113880000Y-109515679D01*
X113862706Y-109428740D01*
X113828785Y-109346845D01*
X113779538Y-109273142D01*
X113716858Y-109210462D01*
X113643155Y-109161215D01*
X113561260Y-109127294D01*
X113531892Y-109121452D01*
X116003544Y-109116079D01*
X116032794Y-109114106D01*
X116035001Y-109113812D01*
X116035001Y-109505431D01*
X115893400Y-109363830D01*
X115725520Y-109251656D01*
X115538982Y-109174390D01*
X115340954Y-109135000D01*
X115139046Y-109135000D01*
X114941018Y-109174390D01*
X114754480Y-109251656D01*
X114586600Y-109363830D01*
X114443830Y-109506600D01*
X114331656Y-109674480D01*
X114254390Y-109861018D01*
X114215000Y-110059046D01*
X114215000Y-110260954D01*
X114254390Y-110458982D01*
X114331656Y-110645520D01*
X114443830Y-110813400D01*
X114586600Y-110956170D01*
X114754480Y-111068344D01*
X114941018Y-111145610D01*
X115139046Y-111185000D01*
X115340954Y-111185000D01*
X115538982Y-111145610D01*
X115725520Y-111068344D01*
X115893400Y-110956170D01*
X116035001Y-110814569D01*
X116035001Y-112045431D01*
X115893400Y-111903830D01*
X115725520Y-111791656D01*
X115538982Y-111714390D01*
X115340954Y-111675000D01*
X115139046Y-111675000D01*
X114941018Y-111714390D01*
X114754480Y-111791656D01*
X114586600Y-111903830D01*
X114443830Y-112046600D01*
X114331656Y-112214480D01*
X114254390Y-112401018D01*
X114215000Y-112599046D01*
X114215000Y-112800954D01*
X114254390Y-112998982D01*
X114331656Y-113185520D01*
X114443830Y-113353400D01*
X114586600Y-113496170D01*
X114754480Y-113608344D01*
X114941018Y-113685610D01*
X115139046Y-113725000D01*
X115340954Y-113725000D01*
X115538982Y-113685610D01*
X115725520Y-113608344D01*
X115893400Y-113496170D01*
X116035001Y-113354569D01*
X116035001Y-114585431D01*
X115893400Y-114443830D01*
X115725520Y-114331656D01*
X115538982Y-114254390D01*
X115340954Y-114215000D01*
X115139046Y-114215000D01*
X114941018Y-114254390D01*
X114754480Y-114331656D01*
X114586600Y-114443830D01*
X114443830Y-114586600D01*
X114331656Y-114754480D01*
X114254390Y-114941018D01*
X114215000Y-115139046D01*
X114215000Y-115340954D01*
X114254390Y-115538982D01*
X114331656Y-115725520D01*
X114443830Y-115893400D01*
X114586600Y-116036170D01*
X114754480Y-116148344D01*
X114941018Y-116225610D01*
X115139046Y-116265000D01*
X115340954Y-116265000D01*
X115538982Y-116225610D01*
X115725520Y-116148344D01*
X115893400Y-116036170D01*
X116035001Y-115894569D01*
X116035000Y-117125430D01*
X115893400Y-116983830D01*
X115725520Y-116871656D01*
X115538982Y-116794390D01*
X115340954Y-116755000D01*
X115139046Y-116755000D01*
X114941018Y-116794390D01*
X114754480Y-116871656D01*
X114586600Y-116983830D01*
X114443830Y-117126600D01*
X114331656Y-117294480D01*
X114254390Y-117481018D01*
X114215000Y-117679046D01*
X114215000Y-117880954D01*
X114254390Y-118078982D01*
X114331656Y-118265520D01*
X114443830Y-118433400D01*
X114586600Y-118576170D01*
X114754480Y-118688344D01*
X114941018Y-118765610D01*
X115139046Y-118805000D01*
X115340954Y-118805000D01*
X115538982Y-118765610D01*
X115725520Y-118688344D01*
X115893400Y-118576170D01*
X116035000Y-118434570D01*
X116035000Y-119665430D01*
X115893400Y-119523830D01*
X115725520Y-119411656D01*
X115538982Y-119334390D01*
X115340954Y-119295000D01*
X115139046Y-119295000D01*
X114941018Y-119334390D01*
X114754480Y-119411656D01*
X114586600Y-119523830D01*
X114443830Y-119666600D01*
X114331656Y-119834480D01*
X114254390Y-120021018D01*
X114215000Y-120219046D01*
X114215000Y-120420954D01*
X114254390Y-120618982D01*
X114331656Y-120805520D01*
X114443830Y-120973400D01*
X114586600Y-121116170D01*
X114754480Y-121228344D01*
X114941018Y-121305610D01*
X115139046Y-121345000D01*
X115340954Y-121345000D01*
X115538982Y-121305610D01*
X115725520Y-121228344D01*
X115893400Y-121116170D01*
X116035000Y-120974570D01*
X116035000Y-122205430D01*
X115893400Y-122063830D01*
X115725520Y-121951656D01*
X115538982Y-121874390D01*
X115340954Y-121835000D01*
X115139046Y-121835000D01*
X114941018Y-121874390D01*
X114754480Y-121951656D01*
X114586600Y-122063830D01*
X114443830Y-122206600D01*
X114331656Y-122374480D01*
X114254390Y-122561018D01*
X114215000Y-122759046D01*
X114215000Y-122960954D01*
X114254390Y-123158982D01*
X114331656Y-123345520D01*
X114443830Y-123513400D01*
X114586600Y-123656170D01*
X114754480Y-123768344D01*
X114941018Y-123845610D01*
X115139046Y-123885000D01*
X115340954Y-123885000D01*
X115538982Y-123845610D01*
X115725520Y-123768344D01*
X115893400Y-123656170D01*
X116035000Y-123514570D01*
X116035000Y-124745430D01*
X115893400Y-124603830D01*
X115725520Y-124491656D01*
X115538982Y-124414390D01*
X115340954Y-124375000D01*
X115139046Y-124375000D01*
X114941018Y-124414390D01*
X114754480Y-124491656D01*
X114586600Y-124603830D01*
X114443830Y-124746600D01*
X114331656Y-124914480D01*
X114254390Y-125101018D01*
X114215000Y-125299046D01*
X114215000Y-125500954D01*
X114254390Y-125698982D01*
X114331656Y-125885520D01*
X114443830Y-126053400D01*
X114586600Y-126196170D01*
X114754480Y-126308344D01*
X114941018Y-126385610D01*
X115139046Y-126425000D01*
X115340954Y-126425000D01*
X115538982Y-126385610D01*
X115725520Y-126308344D01*
X115893400Y-126196170D01*
X116035000Y-126054570D01*
X116035000Y-127285430D01*
X115893400Y-127143830D01*
X115725520Y-127031656D01*
X115538982Y-126954390D01*
X115340954Y-126915000D01*
X115139046Y-126915000D01*
X114941018Y-126954390D01*
X114754480Y-127031656D01*
X114586600Y-127143830D01*
X114443830Y-127286600D01*
X114331656Y-127454480D01*
X114254390Y-127641018D01*
X114215000Y-127839046D01*
X114215000Y-128040954D01*
X114254390Y-128238982D01*
X114331656Y-128425520D01*
X114443830Y-128593400D01*
X114586600Y-128736170D01*
X114754480Y-128848344D01*
X114941018Y-128925610D01*
X115139046Y-128965000D01*
X115340954Y-128965000D01*
X115538982Y-128925610D01*
X115725520Y-128848344D01*
X115893400Y-128736170D01*
X116035000Y-128594570D01*
X116035000Y-129825430D01*
X115893400Y-129683830D01*
X115725520Y-129571656D01*
X115538982Y-129494390D01*
X115340954Y-129455000D01*
X115139046Y-129455000D01*
X114941018Y-129494390D01*
X114754480Y-129571656D01*
X114586600Y-129683830D01*
X114443830Y-129826600D01*
X114420008Y-129862252D01*
X114420008Y-128884730D01*
X114421458Y-128870007D01*
X114420008Y-128855284D01*
X114420008Y-128855275D01*
X114415667Y-128811198D01*
X114398512Y-128754648D01*
X114385544Y-128730387D01*
X114370655Y-128702530D01*
X114342557Y-128668293D01*
X114333166Y-128656850D01*
X114321723Y-128647459D01*
X114090011Y-128415748D01*
X114090011Y-125034741D01*
X114091462Y-125020011D01*
X114089558Y-125000678D01*
X114085670Y-124961201D01*
X114068515Y-124904651D01*
X114068515Y-124904650D01*
X114040658Y-124852533D01*
X114012560Y-124818296D01*
X114003169Y-124806853D01*
X113991726Y-124797462D01*
X110211866Y-121017603D01*
X110233155Y-121008785D01*
X110306858Y-120959538D01*
X110369538Y-120896858D01*
X110418785Y-120823155D01*
X110452706Y-120741260D01*
X110470000Y-120654321D01*
X110470000Y-120565679D01*
X110468707Y-120559181D01*
X110501260Y-120552706D01*
X110583155Y-120518785D01*
X110656858Y-120469538D01*
X110719538Y-120406858D01*
X110731696Y-120388663D01*
X110746845Y-120398785D01*
X110828740Y-120432706D01*
X110915679Y-120450000D01*
X111004321Y-120450000D01*
X111091260Y-120432706D01*
X111173155Y-120398785D01*
X111246858Y-120349538D01*
X111309538Y-120286858D01*
X111358785Y-120213155D01*
X111392706Y-120131260D01*
X111410000Y-120044321D01*
X111410000Y-119955679D01*
X111392706Y-119868740D01*
X111358785Y-119786845D01*
X111348663Y-119771696D01*
X111366858Y-119759538D01*
X111429538Y-119696858D01*
X111450935Y-119664836D01*
X111456845Y-119668785D01*
X111538740Y-119702706D01*
X111625679Y-119720000D01*
X111714321Y-119720000D01*
X111801260Y-119702706D01*
X111883155Y-119668785D01*
X111956858Y-119619538D01*
X112019538Y-119556858D01*
X112068785Y-119483155D01*
X112102706Y-119401260D01*
X112120000Y-119314321D01*
X112120000Y-119225679D01*
X112104087Y-119145679D01*
X112730000Y-119145679D01*
X112730000Y-119234321D01*
X112747294Y-119321260D01*
X112781215Y-119403155D01*
X112830462Y-119476858D01*
X112893142Y-119539538D01*
X112966845Y-119588785D01*
X113048740Y-119622706D01*
X113135679Y-119640000D01*
X113224321Y-119640000D01*
X113311260Y-119622706D01*
X113393155Y-119588785D01*
X113466858Y-119539538D01*
X113529538Y-119476858D01*
X113578785Y-119403155D01*
X113612706Y-119321260D01*
X113630000Y-119234321D01*
X113630000Y-119145679D01*
X113612706Y-119058740D01*
X113578785Y-118976845D01*
X113529538Y-118903142D01*
X113466858Y-118840462D01*
X113393155Y-118791215D01*
X113311260Y-118757294D01*
X113224321Y-118740000D01*
X113135679Y-118740000D01*
X113048740Y-118757294D01*
X112966845Y-118791215D01*
X112893142Y-118840462D01*
X112830462Y-118903142D01*
X112781215Y-118976845D01*
X112747294Y-119058740D01*
X112730000Y-119145679D01*
X112104087Y-119145679D01*
X112102706Y-119138740D01*
X112068785Y-119056845D01*
X112064836Y-119050935D01*
X112096858Y-119029538D01*
X112159538Y-118966858D01*
X112160924Y-118964783D01*
X112196845Y-118988785D01*
X112278740Y-119022706D01*
X112365679Y-119040000D01*
X112454321Y-119040000D01*
X112541260Y-119022706D01*
X112623155Y-118988785D01*
X112696858Y-118939538D01*
X112759538Y-118876858D01*
X112808785Y-118803155D01*
X112842706Y-118721260D01*
X112860000Y-118634321D01*
X112860000Y-118545679D01*
X112842706Y-118458740D01*
X112808785Y-118376845D01*
X112784783Y-118340924D01*
X112786858Y-118339538D01*
X112849538Y-118276858D01*
X112898785Y-118203155D01*
X112932706Y-118121260D01*
X112950000Y-118034321D01*
X112950000Y-117945679D01*
X112932706Y-117858740D01*
X112898785Y-117776845D01*
X112849538Y-117703142D01*
X112786858Y-117640462D01*
X112713155Y-117591215D01*
X112631260Y-117557294D01*
X112544321Y-117540000D01*
X112455679Y-117540000D01*
X112368740Y-117557294D01*
X112286845Y-117591215D01*
X112213142Y-117640462D01*
X112150462Y-117703142D01*
X112101215Y-117776845D01*
X112067294Y-117858740D01*
X112050000Y-117945679D01*
X112050000Y-118034321D01*
X112067294Y-118121260D01*
X112101215Y-118203155D01*
X112125217Y-118239076D01*
X112123142Y-118240462D01*
X112060462Y-118303142D01*
X112059076Y-118305217D01*
X112023155Y-118281215D01*
X111941260Y-118247294D01*
X111854321Y-118230000D01*
X111765679Y-118230000D01*
X111678740Y-118247294D01*
X111596845Y-118281215D01*
X111523142Y-118330462D01*
X111460462Y-118393142D01*
X111411215Y-118466845D01*
X111377294Y-118548740D01*
X111360000Y-118635679D01*
X111360000Y-118724321D01*
X111377294Y-118811260D01*
X111411215Y-118893155D01*
X111415164Y-118899065D01*
X111383142Y-118920462D01*
X111320462Y-118983142D01*
X111299065Y-119015164D01*
X111293155Y-119011215D01*
X111211260Y-118977294D01*
X111124321Y-118960000D01*
X111035679Y-118960000D01*
X110948740Y-118977294D01*
X110866845Y-119011215D01*
X110793142Y-119060462D01*
X110730462Y-119123142D01*
X110681215Y-119196845D01*
X110647294Y-119278740D01*
X110630000Y-119365679D01*
X110630000Y-119454321D01*
X110647294Y-119541260D01*
X110681215Y-119623155D01*
X110691337Y-119638304D01*
X110673142Y-119650462D01*
X110610462Y-119713142D01*
X110598304Y-119731337D01*
X110583155Y-119721215D01*
X110501260Y-119687294D01*
X110414321Y-119670000D01*
X110325679Y-119670000D01*
X110238740Y-119687294D01*
X110156845Y-119721215D01*
X110083142Y-119770462D01*
X110020462Y-119833142D01*
X109971215Y-119906845D01*
X109937294Y-119988740D01*
X109920000Y-120075679D01*
X109920000Y-120164321D01*
X109921293Y-120170819D01*
X109888740Y-120177294D01*
X109824999Y-120203696D01*
X109824999Y-119949264D01*
X111651717Y-118122547D01*
X111663158Y-118113158D01*
X111672550Y-118101714D01*
X111700647Y-118067478D01*
X111728504Y-118015360D01*
X111730248Y-118009611D01*
X111745659Y-117958810D01*
X111750000Y-117914733D01*
X111750000Y-117914730D01*
X111751451Y-117900000D01*
X111750000Y-117885270D01*
X111750000Y-116334730D01*
X111751451Y-116320000D01*
X111749615Y-116301357D01*
X111745659Y-116261190D01*
X111728504Y-116204640D01*
X111709989Y-116170000D01*
X111700647Y-116152522D01*
X111695032Y-116145679D01*
X113070000Y-116145679D01*
X113070000Y-116234321D01*
X113087294Y-116321260D01*
X113121215Y-116403155D01*
X113170462Y-116476858D01*
X113233142Y-116539538D01*
X113306845Y-116588785D01*
X113388740Y-116622706D01*
X113475679Y-116640000D01*
X113564321Y-116640000D01*
X113651260Y-116622706D01*
X113733155Y-116588785D01*
X113806858Y-116539538D01*
X113869538Y-116476858D01*
X113918785Y-116403155D01*
X113952706Y-116321260D01*
X113970000Y-116234321D01*
X113970000Y-116145679D01*
X113952706Y-116058740D01*
X113918785Y-115976845D01*
X113869538Y-115903142D01*
X113806858Y-115840462D01*
X113733155Y-115791215D01*
X113651260Y-115757294D01*
X113564321Y-115740000D01*
X113475679Y-115740000D01*
X113388740Y-115757294D01*
X113306845Y-115791215D01*
X113233142Y-115840462D01*
X113170462Y-115903142D01*
X113121215Y-115976845D01*
X113087294Y-116058740D01*
X113070000Y-116145679D01*
X111695032Y-116145679D01*
X111672550Y-116118286D01*
X111672549Y-116118285D01*
X111663158Y-116106842D01*
X111651715Y-116097451D01*
X110545009Y-114990746D01*
X110545009Y-114324585D01*
X110583155Y-114308785D01*
X110656858Y-114259538D01*
X110719538Y-114196858D01*
X110745554Y-114157922D01*
X110746845Y-114158785D01*
X110828740Y-114192706D01*
X110915679Y-114210000D01*
X111004321Y-114210000D01*
X111091260Y-114192706D01*
X111173155Y-114158785D01*
X111246858Y-114109538D01*
X111309538Y-114046858D01*
X111358785Y-113973155D01*
X111367395Y-113952367D01*
X111476539Y-114061511D01*
X111463142Y-114070462D01*
X111400462Y-114133142D01*
X111351215Y-114206845D01*
X111317294Y-114288740D01*
X111300000Y-114375679D01*
X111300000Y-114464321D01*
X111317294Y-114551260D01*
X111351215Y-114633155D01*
X111400462Y-114706858D01*
X111452952Y-114759348D01*
X111421215Y-114806845D01*
X111387294Y-114888740D01*
X111370000Y-114975679D01*
X111370000Y-115064321D01*
X111387294Y-115151260D01*
X111421215Y-115233155D01*
X111470462Y-115306858D01*
X111533142Y-115369538D01*
X111606845Y-115418785D01*
X111688740Y-115452706D01*
X111775679Y-115470000D01*
X111864321Y-115470000D01*
X111951260Y-115452706D01*
X112033155Y-115418785D01*
X112106858Y-115369538D01*
X112169538Y-115306858D01*
X112218785Y-115233155D01*
X112252706Y-115151260D01*
X112260913Y-115110000D01*
X112344321Y-115110000D01*
X112431260Y-115092706D01*
X112501552Y-115063591D01*
X112530462Y-115106858D01*
X112593142Y-115169538D01*
X112666845Y-115218785D01*
X112748740Y-115252706D01*
X112835679Y-115270000D01*
X112924321Y-115270000D01*
X113011260Y-115252706D01*
X113093155Y-115218785D01*
X113166858Y-115169538D01*
X113200000Y-115136396D01*
X113233142Y-115169538D01*
X113306845Y-115218785D01*
X113388740Y-115252706D01*
X113475679Y-115270000D01*
X113564321Y-115270000D01*
X113651260Y-115252706D01*
X113733155Y-115218785D01*
X113806858Y-115169538D01*
X113869538Y-115106858D01*
X113918785Y-115033155D01*
X113952706Y-114951260D01*
X113970000Y-114864321D01*
X113970000Y-114775679D01*
X113952706Y-114688740D01*
X113918785Y-114606845D01*
X113869538Y-114533142D01*
X113806858Y-114470462D01*
X113733155Y-114421215D01*
X113651260Y-114387294D01*
X113564321Y-114370000D01*
X113475679Y-114370000D01*
X113388740Y-114387294D01*
X113306845Y-114421215D01*
X113233142Y-114470462D01*
X113229175Y-114474429D01*
X113224935Y-114431386D01*
X113204922Y-114365411D01*
X113172422Y-114304608D01*
X113128685Y-114251313D01*
X113115330Y-114240353D01*
X112559654Y-113684679D01*
X112548686Y-113671314D01*
X112495391Y-113627577D01*
X112434588Y-113595077D01*
X112368613Y-113575064D01*
X112317190Y-113569999D01*
X112317189Y-113569999D01*
X112300001Y-113568306D01*
X112282813Y-113569999D01*
X111984326Y-113569999D01*
X112071260Y-113552706D01*
X112153155Y-113518785D01*
X112226858Y-113469538D01*
X112289538Y-113406858D01*
X112338785Y-113333155D01*
X112372706Y-113251260D01*
X112390000Y-113164321D01*
X112390000Y-113075679D01*
X112372706Y-112988740D01*
X112338785Y-112906845D01*
X112289538Y-112833142D01*
X112226858Y-112770462D01*
X112153155Y-112721215D01*
X112071260Y-112687294D01*
X111984321Y-112670000D01*
X111895679Y-112670000D01*
X111808740Y-112687294D01*
X111726845Y-112721215D01*
X111653142Y-112770462D01*
X111590462Y-112833142D01*
X111541215Y-112906845D01*
X111507294Y-112988740D01*
X111490000Y-113075679D01*
X111490000Y-113085025D01*
X110989654Y-112584679D01*
X110978686Y-112571314D01*
X110925391Y-112527577D01*
X110864588Y-112495077D01*
X110798613Y-112475064D01*
X110747190Y-112469999D01*
X110747189Y-112469999D01*
X110730001Y-112468306D01*
X110712813Y-112469999D01*
X110604973Y-112469999D01*
X110280653Y-112145679D01*
X112550000Y-112145679D01*
X112550000Y-112234321D01*
X112567294Y-112321260D01*
X112601215Y-112403155D01*
X112650462Y-112476858D01*
X112713142Y-112539538D01*
X112786845Y-112588785D01*
X112868740Y-112622706D01*
X112955679Y-112640000D01*
X113044321Y-112640000D01*
X113091194Y-112630676D01*
X113121215Y-112703155D01*
X113170462Y-112776858D01*
X113233142Y-112839538D01*
X113306845Y-112888785D01*
X113388740Y-112922706D01*
X113475679Y-112940000D01*
X113564321Y-112940000D01*
X113651260Y-112922706D01*
X113733155Y-112888785D01*
X113806858Y-112839538D01*
X113869538Y-112776858D01*
X113918785Y-112703155D01*
X113952706Y-112621260D01*
X113970000Y-112534321D01*
X113970000Y-112445679D01*
X113952706Y-112358740D01*
X113918785Y-112276845D01*
X113869538Y-112203142D01*
X113806858Y-112140462D01*
X113733155Y-112091215D01*
X113651260Y-112057294D01*
X113564321Y-112040000D01*
X113475679Y-112040000D01*
X113428806Y-112049324D01*
X113398785Y-111976845D01*
X113349538Y-111903142D01*
X113286858Y-111840462D01*
X113213155Y-111791215D01*
X113131260Y-111757294D01*
X113044321Y-111740000D01*
X112955679Y-111740000D01*
X112868740Y-111757294D01*
X112786845Y-111791215D01*
X112713142Y-111840462D01*
X112650462Y-111903142D01*
X112601215Y-111976845D01*
X112567294Y-112058740D01*
X112550000Y-112145679D01*
X110280653Y-112145679D01*
X108700653Y-110565679D01*
X110130000Y-110565679D01*
X110130000Y-110654321D01*
X110147294Y-110741260D01*
X110181215Y-110823155D01*
X110230462Y-110896858D01*
X110293142Y-110959538D01*
X110366845Y-111008785D01*
X110430136Y-111035000D01*
X110366845Y-111061215D01*
X110293142Y-111110462D01*
X110230462Y-111173142D01*
X110181215Y-111246845D01*
X110147294Y-111328740D01*
X110130000Y-111415679D01*
X110130000Y-111504321D01*
X110147294Y-111591260D01*
X110181215Y-111673155D01*
X110230462Y-111746858D01*
X110293142Y-111809538D01*
X110366845Y-111858785D01*
X110448740Y-111892706D01*
X110535679Y-111910000D01*
X110624321Y-111910000D01*
X110711260Y-111892706D01*
X110793155Y-111858785D01*
X110866858Y-111809538D01*
X110929538Y-111746858D01*
X110978785Y-111673155D01*
X111005000Y-111609864D01*
X111031215Y-111673155D01*
X111080462Y-111746858D01*
X111143142Y-111809538D01*
X111216845Y-111858785D01*
X111298740Y-111892706D01*
X111385679Y-111910000D01*
X111474321Y-111910000D01*
X111561260Y-111892706D01*
X111643155Y-111858785D01*
X111716858Y-111809538D01*
X111779538Y-111746858D01*
X111828785Y-111673155D01*
X111862706Y-111591260D01*
X111880000Y-111504321D01*
X111880000Y-111415679D01*
X111862706Y-111328740D01*
X111828785Y-111246845D01*
X111779538Y-111173142D01*
X111716858Y-111110462D01*
X111643155Y-111061215D01*
X111591936Y-111040000D01*
X111643155Y-111018785D01*
X111716858Y-110969538D01*
X111779538Y-110906858D01*
X111828785Y-110833155D01*
X111862706Y-110751260D01*
X111880000Y-110664321D01*
X111880000Y-110575679D01*
X111862706Y-110488740D01*
X111828785Y-110406845D01*
X111779538Y-110333142D01*
X111716858Y-110270462D01*
X111643155Y-110221215D01*
X111561260Y-110187294D01*
X111474321Y-110170000D01*
X111385679Y-110170000D01*
X111298740Y-110187294D01*
X111216845Y-110221215D01*
X111143142Y-110270462D01*
X111080462Y-110333142D01*
X111031215Y-110406845D01*
X111007071Y-110465136D01*
X110978785Y-110396845D01*
X110929538Y-110323142D01*
X110866858Y-110260462D01*
X110793155Y-110211215D01*
X110711260Y-110177294D01*
X110624321Y-110160000D01*
X110535679Y-110160000D01*
X110448740Y-110177294D01*
X110366845Y-110211215D01*
X110293142Y-110260462D01*
X110230462Y-110323142D01*
X110181215Y-110396845D01*
X110147294Y-110478740D01*
X110130000Y-110565679D01*
X108700653Y-110565679D01*
X108199654Y-110064681D01*
X108188685Y-110051315D01*
X108135390Y-110007578D01*
X108074587Y-109975078D01*
X108008612Y-109955065D01*
X107957189Y-109950000D01*
X107957188Y-109950000D01*
X107940000Y-109948307D01*
X107922812Y-109950000D01*
X106144975Y-109950000D01*
X104729838Y-108534865D01*
X104712706Y-108448740D01*
X104678785Y-108366845D01*
X104629538Y-108293142D01*
X104566858Y-108230462D01*
X104493155Y-108181215D01*
X104411260Y-108147294D01*
X104324321Y-108130000D01*
X104235679Y-108130000D01*
X104148740Y-108147294D01*
X104066845Y-108181215D01*
X103993142Y-108230462D01*
X103980000Y-108243604D01*
X103966858Y-108230462D01*
X103893155Y-108181215D01*
X103811260Y-108147294D01*
X103724321Y-108130000D01*
X103635679Y-108130000D01*
X103548740Y-108147294D01*
X103466845Y-108181215D01*
X103393142Y-108230462D01*
X103380000Y-108243604D01*
X103366858Y-108230462D01*
X103293155Y-108181215D01*
X103211260Y-108147294D01*
X103124321Y-108130000D01*
X103035679Y-108130000D01*
X102948740Y-108147294D01*
X102866845Y-108181215D01*
X102793142Y-108230462D01*
X102730462Y-108293142D01*
X102681215Y-108366845D01*
X102647294Y-108448740D01*
X102630000Y-108535679D01*
X102630000Y-108624321D01*
X102647294Y-108711260D01*
X102681215Y-108793155D01*
X102730462Y-108866858D01*
X102793142Y-108929538D01*
X102866845Y-108978785D01*
X102948740Y-109012706D01*
X103035679Y-109030000D01*
X103124321Y-109030000D01*
X103211260Y-109012706D01*
X103293155Y-108978785D01*
X103366858Y-108929538D01*
X103380000Y-108916396D01*
X103393142Y-108929538D01*
X103466845Y-108978785D01*
X103548740Y-109012706D01*
X103550420Y-109013040D01*
X104340621Y-109803242D01*
X104324321Y-109800000D01*
X104235679Y-109800000D01*
X104148740Y-109817294D01*
X104066845Y-109851215D01*
X103993142Y-109900462D01*
X103980000Y-109913604D01*
X103966858Y-109900462D01*
X103893155Y-109851215D01*
X103811260Y-109817294D01*
X103724321Y-109800000D01*
X103635679Y-109800000D01*
X103548740Y-109817294D01*
X103466845Y-109851215D01*
X103393142Y-109900462D01*
X103380000Y-109913604D01*
X103366858Y-109900462D01*
X103293155Y-109851215D01*
X103211260Y-109817294D01*
X103124321Y-109800000D01*
X103035679Y-109800000D01*
X102948740Y-109817294D01*
X102866845Y-109851215D01*
X102793142Y-109900462D01*
X102780000Y-109913604D01*
X102766858Y-109900462D01*
X102693155Y-109851215D01*
X102611260Y-109817294D01*
X102524321Y-109800000D01*
X102435679Y-109800000D01*
X102348740Y-109817294D01*
X102266845Y-109851215D01*
X102193142Y-109900462D01*
X102130462Y-109963142D01*
X102081215Y-110036845D01*
X102047294Y-110118740D01*
X102030000Y-110205679D01*
X102030000Y-110294321D01*
X102047294Y-110381260D01*
X102081215Y-110463155D01*
X102130462Y-110536858D01*
X102193142Y-110599538D01*
X102266845Y-110648785D01*
X102339324Y-110678806D01*
X102330000Y-110725679D01*
X102330000Y-110814321D01*
X102347294Y-110901260D01*
X102381215Y-110983155D01*
X102430462Y-111056858D01*
X102493142Y-111119538D01*
X102566845Y-111168785D01*
X102648740Y-111202706D01*
X102735679Y-111220000D01*
X102824321Y-111220000D01*
X102911260Y-111202706D01*
X102993155Y-111168785D01*
X103066858Y-111119538D01*
X103080000Y-111106396D01*
X103093142Y-111119538D01*
X103166845Y-111168785D01*
X103248740Y-111202706D01*
X103335679Y-111220000D01*
X103424321Y-111220000D01*
X103511260Y-111202706D01*
X103593155Y-111168785D01*
X103666858Y-111119538D01*
X103680000Y-111106396D01*
X103693142Y-111119538D01*
X103766845Y-111168785D01*
X103848740Y-111202706D01*
X103935679Y-111220000D01*
X103980381Y-111220000D01*
X103451483Y-111748899D01*
X103439079Y-111759079D01*
X103398465Y-111808567D01*
X103373604Y-111855079D01*
X103368287Y-111865027D01*
X103354645Y-111910000D01*
X103349703Y-111926290D01*
X103345000Y-111974040D01*
X103345000Y-111974047D01*
X103343429Y-111990000D01*
X103345000Y-112005954D01*
X103345001Y-112605379D01*
X102026482Y-113923900D01*
X102014078Y-113934080D01*
X101973464Y-113983568D01*
X101953853Y-114020258D01*
X101943286Y-114040028D01*
X101925094Y-114100000D01*
X101924702Y-114101291D01*
X101919999Y-114149041D01*
X101919999Y-114149048D01*
X101918428Y-114165001D01*
X101919999Y-114180954D01*
X101919999Y-115319908D01*
X101841260Y-115287294D01*
X101754321Y-115270000D01*
X101665679Y-115270000D01*
X101578740Y-115287294D01*
X101496845Y-115321215D01*
X101423142Y-115370462D01*
X101360462Y-115433142D01*
X101311215Y-115506845D01*
X101277294Y-115588740D01*
X101260000Y-115675679D01*
X101260000Y-115764321D01*
X101277294Y-115851260D01*
X101311215Y-115933155D01*
X101360462Y-116006858D01*
X101423142Y-116069538D01*
X101496845Y-116118785D01*
X101578740Y-116152706D01*
X101665679Y-116170000D01*
X101754321Y-116170000D01*
X101841260Y-116152706D01*
X101920000Y-116120092D01*
X101920000Y-117510035D01*
X101166472Y-118263564D01*
X101154068Y-118273744D01*
X101113454Y-118323232D01*
X101084798Y-118376845D01*
X101083276Y-118379692D01*
X101064982Y-118440000D01*
X101064692Y-118440955D01*
X101059989Y-118488705D01*
X101059989Y-118488712D01*
X101058418Y-118504665D01*
X101059989Y-118520618D01*
X101059990Y-119579372D01*
X101058418Y-119595335D01*
X101064692Y-119659046D01*
X101083276Y-119720308D01*
X101083277Y-119720309D01*
X101113455Y-119776769D01*
X101154069Y-119826256D01*
X101166467Y-119836431D01*
X102465000Y-121134966D01*
X102465001Y-123868603D01*
X102440462Y-123893142D01*
X102391215Y-123966845D01*
X102357294Y-124048740D01*
X102340000Y-124135679D01*
X102340000Y-124224321D01*
X102357294Y-124311260D01*
X102391215Y-124393155D01*
X102440462Y-124466858D01*
X102503142Y-124529538D01*
X102576845Y-124578785D01*
X102658740Y-124612706D01*
X102745679Y-124630000D01*
X102834321Y-124630000D01*
X102921260Y-124612706D01*
X103003155Y-124578785D01*
X103076858Y-124529538D01*
X103139538Y-124466858D01*
X103188785Y-124393155D01*
X103222706Y-124311260D01*
X103240000Y-124224321D01*
X103240000Y-124135679D01*
X103222706Y-124048740D01*
X103188785Y-123966845D01*
X103139538Y-123893142D01*
X103115000Y-123868604D01*
X103115000Y-121016299D01*
X103116571Y-121000346D01*
X103115000Y-120984393D01*
X103115000Y-120984385D01*
X103110297Y-120936635D01*
X103091713Y-120875372D01*
X103061535Y-120818912D01*
X103044408Y-120798043D01*
X103031096Y-120781822D01*
X103031092Y-120781818D01*
X103020921Y-120769425D01*
X103008529Y-120759255D01*
X102309274Y-120060001D01*
X103835108Y-120060001D01*
X103847294Y-120121260D01*
X103881215Y-120203155D01*
X103930462Y-120276858D01*
X103993142Y-120339538D01*
X104066845Y-120388785D01*
X104148740Y-120422706D01*
X104235679Y-120440000D01*
X104324321Y-120440000D01*
X104411260Y-120422706D01*
X104493155Y-120388785D01*
X104508304Y-120378663D01*
X104520462Y-120396858D01*
X104583142Y-120459538D01*
X104585217Y-120460924D01*
X104561215Y-120496845D01*
X104527294Y-120578740D01*
X104510000Y-120665679D01*
X104510000Y-120754321D01*
X104527294Y-120841260D01*
X104561215Y-120923155D01*
X104610462Y-120996858D01*
X104673142Y-121059538D01*
X104746845Y-121108785D01*
X104828740Y-121142706D01*
X104915679Y-121160000D01*
X105004321Y-121160000D01*
X105091260Y-121142706D01*
X105173155Y-121108785D01*
X105246858Y-121059538D01*
X105309538Y-120996858D01*
X105358785Y-120923155D01*
X105392706Y-120841260D01*
X105410000Y-120754321D01*
X105410000Y-120665679D01*
X105392706Y-120578740D01*
X105358785Y-120496845D01*
X105309538Y-120423142D01*
X105246858Y-120360462D01*
X105244783Y-120359076D01*
X105268785Y-120323155D01*
X105286097Y-120281359D01*
X105710000Y-120705262D01*
X105710000Y-120835736D01*
X105278290Y-121267447D01*
X105278285Y-121267451D01*
X103988259Y-122557478D01*
X103976811Y-122566873D01*
X103957453Y-122590462D01*
X103939322Y-122612554D01*
X103932245Y-122625795D01*
X103911465Y-122664672D01*
X103894310Y-122721222D01*
X103889969Y-122765299D01*
X103889969Y-122765308D01*
X103888519Y-122780031D01*
X103889969Y-122794754D01*
X103889970Y-124625766D01*
X102805737Y-125710000D01*
X102735679Y-125710000D01*
X102648740Y-125727294D01*
X102566845Y-125761215D01*
X102493142Y-125810462D01*
X102430462Y-125873142D01*
X102381215Y-125946845D01*
X102347294Y-126028740D01*
X102330000Y-126115679D01*
X102330000Y-126204321D01*
X102347294Y-126291260D01*
X102381215Y-126373155D01*
X102430462Y-126446858D01*
X102493142Y-126509538D01*
X102566845Y-126558785D01*
X102648740Y-126592706D01*
X102735679Y-126610000D01*
X102824321Y-126610000D01*
X102911260Y-126592706D01*
X102993155Y-126558785D01*
X103066858Y-126509538D01*
X103129538Y-126446858D01*
X103178785Y-126373155D01*
X103212706Y-126291260D01*
X103230000Y-126204321D01*
X103230000Y-126134263D01*
X104189979Y-125174284D01*
X104189980Y-127653667D01*
X104149538Y-127593142D01*
X104086858Y-127530462D01*
X104013155Y-127481215D01*
X103931260Y-127447294D01*
X103844321Y-127430000D01*
X103755679Y-127430000D01*
X103668740Y-127447294D01*
X103586845Y-127481215D01*
X103513142Y-127530462D01*
X103450462Y-127593142D01*
X103401215Y-127666845D01*
X103367294Y-127748740D01*
X103350000Y-127835679D01*
X103350000Y-127924321D01*
X103367294Y-128011260D01*
X103401215Y-128093155D01*
X103450462Y-128166858D01*
X103513142Y-128229538D01*
X103586845Y-128278785D01*
X103668740Y-128312706D01*
X103755679Y-128330000D01*
X103844321Y-128330000D01*
X103931260Y-128312706D01*
X104013155Y-128278785D01*
X104086858Y-128229538D01*
X104149538Y-128166858D01*
X104189980Y-128106333D01*
X104189980Y-128405755D01*
X103024502Y-129571234D01*
X102838982Y-129494390D01*
X102640954Y-129455000D01*
X102439046Y-129455000D01*
X102241018Y-129494390D01*
X102054480Y-129571656D01*
X101886600Y-129683830D01*
X101743830Y-129826600D01*
X101631656Y-129994480D01*
X101554390Y-130181018D01*
X101515000Y-130379046D01*
X101515000Y-130580954D01*
X101554390Y-130778982D01*
X101631656Y-130965520D01*
X101743830Y-131133400D01*
X101886600Y-131276170D01*
X102054480Y-131388344D01*
X102241018Y-131465610D01*
X102439046Y-131505000D01*
X102640954Y-131505000D01*
X102838982Y-131465610D01*
X103025520Y-131388344D01*
X103193400Y-131276170D01*
X103336170Y-131133400D01*
X103448344Y-130965520D01*
X103510001Y-130816667D01*
X103510001Y-131625735D01*
X103024502Y-132111234D01*
X102838982Y-132034390D01*
X102640954Y-131995000D01*
X102439046Y-131995000D01*
X102241018Y-132034390D01*
X102054480Y-132111656D01*
X101886600Y-132223830D01*
X101743830Y-132366600D01*
X101631656Y-132534480D01*
X101554390Y-132721018D01*
X101515000Y-132919046D01*
X101515000Y-133120954D01*
X101554390Y-133318982D01*
X101631656Y-133505520D01*
X101743830Y-133673400D01*
X101885430Y-133815000D01*
X100654570Y-133815000D01*
X100796170Y-133673400D01*
X100908344Y-133505520D01*
X100985610Y-133318982D01*
X101025000Y-133120954D01*
X101025000Y-132919046D01*
X100985610Y-132721018D01*
X100908344Y-132534480D01*
X100796170Y-132366600D01*
X100653400Y-132223830D01*
X100485520Y-132111656D01*
X100298982Y-132034390D01*
X100100954Y-131995000D01*
X99899046Y-131995000D01*
X99701018Y-132034390D01*
X99514480Y-132111656D01*
X99346600Y-132223830D01*
X99205000Y-132365430D01*
X99205000Y-131134570D01*
X99346600Y-131276170D01*
X99514480Y-131388344D01*
X99701018Y-131465610D01*
X99899046Y-131505000D01*
X100100954Y-131505000D01*
X100298982Y-131465610D01*
X100485520Y-131388344D01*
X100653400Y-131276170D01*
X100796170Y-131133400D01*
X100908344Y-130965520D01*
X100985610Y-130778982D01*
X101025000Y-130580954D01*
X101025000Y-130379046D01*
X100985610Y-130181018D01*
X100908344Y-129994480D01*
X100796170Y-129826600D01*
X100653400Y-129683830D01*
X100485520Y-129571656D01*
X100298982Y-129494390D01*
X100100954Y-129455000D01*
X99899046Y-129455000D01*
X99701018Y-129494390D01*
X99514480Y-129571656D01*
X99346600Y-129683830D01*
X99205000Y-129825430D01*
X99205000Y-128594570D01*
X99346600Y-128736170D01*
X99514480Y-128848344D01*
X99701018Y-128925610D01*
X99899046Y-128965000D01*
X100100954Y-128965000D01*
X100298982Y-128925610D01*
X100485520Y-128848344D01*
X100653400Y-128736170D01*
X100796170Y-128593400D01*
X100908344Y-128425520D01*
X100985610Y-128238982D01*
X101025000Y-128040954D01*
X101025000Y-127839046D01*
X100985610Y-127641018D01*
X100908344Y-127454480D01*
X100796170Y-127286600D01*
X100653400Y-127143830D01*
X100485520Y-127031656D01*
X100298982Y-126954390D01*
X100100954Y-126915000D01*
X99899046Y-126915000D01*
X99701018Y-126954390D01*
X99514480Y-127031656D01*
X99346600Y-127143830D01*
X99205000Y-127285430D01*
X99205000Y-126054570D01*
X99346600Y-126196170D01*
X99514480Y-126308344D01*
X99701018Y-126385610D01*
X99899046Y-126425000D01*
X100100954Y-126425000D01*
X100298982Y-126385610D01*
X100485520Y-126308344D01*
X100653400Y-126196170D01*
X100796170Y-126053400D01*
X100908344Y-125885520D01*
X100985610Y-125698982D01*
X101025000Y-125500954D01*
X101025000Y-125299046D01*
X100985610Y-125101018D01*
X100908344Y-124914480D01*
X100796170Y-124746600D01*
X100653400Y-124603830D01*
X100485520Y-124491656D01*
X100298982Y-124414390D01*
X100100954Y-124375000D01*
X99899046Y-124375000D01*
X99701018Y-124414390D01*
X99514480Y-124491656D01*
X99346600Y-124603830D01*
X99205000Y-124745430D01*
X99205000Y-123514570D01*
X99346600Y-123656170D01*
X99514480Y-123768344D01*
X99701018Y-123845610D01*
X99899046Y-123885000D01*
X100100954Y-123885000D01*
X100298982Y-123845610D01*
X100485520Y-123768344D01*
X100653400Y-123656170D01*
X100796170Y-123513400D01*
X100908344Y-123345520D01*
X100985610Y-123158982D01*
X101025000Y-122960954D01*
X101025000Y-122759046D01*
X100985610Y-122561018D01*
X100908344Y-122374480D01*
X100796170Y-122206600D01*
X100653400Y-122063830D01*
X100485520Y-121951656D01*
X100422806Y-121925679D01*
X101250000Y-121925679D01*
X101250000Y-122014321D01*
X101267294Y-122101260D01*
X101301215Y-122183155D01*
X101350462Y-122256858D01*
X101413142Y-122319538D01*
X101486845Y-122368785D01*
X101501850Y-122375000D01*
X101486845Y-122381215D01*
X101413142Y-122430462D01*
X101350462Y-122493142D01*
X101301215Y-122566845D01*
X101267294Y-122648740D01*
X101250000Y-122735679D01*
X101250000Y-122824321D01*
X101267294Y-122911260D01*
X101301215Y-122993155D01*
X101350462Y-123066858D01*
X101413142Y-123129538D01*
X101486845Y-123178785D01*
X101568740Y-123212706D01*
X101655679Y-123230000D01*
X101744321Y-123230000D01*
X101831260Y-123212706D01*
X101913155Y-123178785D01*
X101986858Y-123129538D01*
X102049538Y-123066858D01*
X102098785Y-122993155D01*
X102132706Y-122911260D01*
X102150000Y-122824321D01*
X102150000Y-122735679D01*
X102132706Y-122648740D01*
X102098785Y-122566845D01*
X102049538Y-122493142D01*
X101986858Y-122430462D01*
X101913155Y-122381215D01*
X101898150Y-122375000D01*
X101913155Y-122368785D01*
X101986858Y-122319538D01*
X102049538Y-122256858D01*
X102098785Y-122183155D01*
X102132706Y-122101260D01*
X102150000Y-122014321D01*
X102150000Y-121925679D01*
X102132706Y-121838740D01*
X102098785Y-121756845D01*
X102049538Y-121683142D01*
X101986858Y-121620462D01*
X101913155Y-121571215D01*
X101831260Y-121537294D01*
X101744321Y-121520000D01*
X101655679Y-121520000D01*
X101568740Y-121537294D01*
X101486845Y-121571215D01*
X101413142Y-121620462D01*
X101350462Y-121683142D01*
X101301215Y-121756845D01*
X101267294Y-121838740D01*
X101250000Y-121925679D01*
X100422806Y-121925679D01*
X100298982Y-121874390D01*
X100100954Y-121835000D01*
X99899046Y-121835000D01*
X99701018Y-121874390D01*
X99514480Y-121951656D01*
X99346600Y-122063830D01*
X99205000Y-122205430D01*
X99205000Y-120974570D01*
X99346600Y-121116170D01*
X99514480Y-121228344D01*
X99701018Y-121305610D01*
X99899046Y-121345000D01*
X100100954Y-121345000D01*
X100298982Y-121305610D01*
X100485520Y-121228344D01*
X100653400Y-121116170D01*
X100796170Y-120973400D01*
X100908344Y-120805520D01*
X100985610Y-120618982D01*
X101025000Y-120420954D01*
X101025000Y-120219046D01*
X100985610Y-120021018D01*
X100908344Y-119834480D01*
X100796170Y-119666600D01*
X100653400Y-119523830D01*
X100485520Y-119411656D01*
X100298982Y-119334390D01*
X100100954Y-119295000D01*
X99899046Y-119295000D01*
X99701018Y-119334390D01*
X99514480Y-119411656D01*
X99346600Y-119523830D01*
X99205000Y-119665430D01*
X99205000Y-118434570D01*
X99346600Y-118576170D01*
X99514480Y-118688344D01*
X99701018Y-118765610D01*
X99899046Y-118805000D01*
X100100954Y-118805000D01*
X100298982Y-118765610D01*
X100485520Y-118688344D01*
X100653400Y-118576170D01*
X100796170Y-118433400D01*
X100908344Y-118265520D01*
X100985610Y-118078982D01*
X101025000Y-117880954D01*
X101025000Y-117679046D01*
X100985610Y-117481018D01*
X100908344Y-117294480D01*
X100796170Y-117126600D01*
X100653400Y-116983830D01*
X100485520Y-116871656D01*
X100298982Y-116794390D01*
X100100954Y-116755000D01*
X99899046Y-116755000D01*
X99701018Y-116794390D01*
X99514480Y-116871656D01*
X99346600Y-116983830D01*
X99205000Y-117125430D01*
X99205000Y-115894570D01*
X99346600Y-116036170D01*
X99514480Y-116148344D01*
X99701018Y-116225610D01*
X99899046Y-116265000D01*
X100100954Y-116265000D01*
X100298982Y-116225610D01*
X100485520Y-116148344D01*
X100653400Y-116036170D01*
X100796170Y-115893400D01*
X100908344Y-115725520D01*
X100985610Y-115538982D01*
X101025000Y-115340954D01*
X101025000Y-115139046D01*
X100985610Y-114941018D01*
X100908344Y-114754480D01*
X100796170Y-114586600D01*
X100653400Y-114443830D01*
X100485520Y-114331656D01*
X100298982Y-114254390D01*
X100100954Y-114215000D01*
X99899046Y-114215000D01*
X99701018Y-114254390D01*
X99514480Y-114331656D01*
X99346600Y-114443830D01*
X99205000Y-114585430D01*
X99205000Y-113354570D01*
X99346600Y-113496170D01*
X99514480Y-113608344D01*
X99701018Y-113685610D01*
X99899046Y-113725000D01*
X100100954Y-113725000D01*
X100298982Y-113685610D01*
X100485520Y-113608344D01*
X100653400Y-113496170D01*
X100796170Y-113353400D01*
X100908344Y-113185520D01*
X100985610Y-112998982D01*
X101025000Y-112800954D01*
X101025000Y-112655679D01*
X101210000Y-112655679D01*
X101210000Y-112744321D01*
X101227294Y-112831260D01*
X101261215Y-112913155D01*
X101310462Y-112986858D01*
X101373142Y-113049538D01*
X101446845Y-113098785D01*
X101528740Y-113132706D01*
X101615679Y-113150000D01*
X101704321Y-113150000D01*
X101791260Y-113132706D01*
X101873155Y-113098785D01*
X101946858Y-113049538D01*
X102009538Y-112986858D01*
X102058785Y-112913155D01*
X102092706Y-112831260D01*
X102110000Y-112744321D01*
X102110000Y-112655679D01*
X102092706Y-112568740D01*
X102058785Y-112486845D01*
X102009538Y-112413142D01*
X101946858Y-112350462D01*
X101873155Y-112301215D01*
X101791260Y-112267294D01*
X101704321Y-112250000D01*
X101615679Y-112250000D01*
X101528740Y-112267294D01*
X101446845Y-112301215D01*
X101373142Y-112350462D01*
X101310462Y-112413142D01*
X101261215Y-112486845D01*
X101227294Y-112568740D01*
X101210000Y-112655679D01*
X101025000Y-112655679D01*
X101025000Y-112599046D01*
X100985610Y-112401018D01*
X100908344Y-112214480D01*
X100796170Y-112046600D01*
X100653400Y-111903830D01*
X100485520Y-111791656D01*
X100298982Y-111714390D01*
X100100954Y-111675000D01*
X99899046Y-111675000D01*
X99701018Y-111714390D01*
X99514480Y-111791656D01*
X99346600Y-111903830D01*
X99205000Y-112045430D01*
X99205000Y-110814570D01*
X99346600Y-110956170D01*
X99514480Y-111068344D01*
X99701018Y-111145610D01*
X99899046Y-111185000D01*
X100100954Y-111185000D01*
X100298982Y-111145610D01*
X100485520Y-111068344D01*
X100653400Y-110956170D01*
X100796170Y-110813400D01*
X100908344Y-110645520D01*
X100985610Y-110458982D01*
X101025000Y-110260954D01*
X101025000Y-110059046D01*
X100985610Y-109861018D01*
X100908344Y-109674480D01*
X100796170Y-109506600D01*
X100653400Y-109363830D01*
X100485520Y-109251656D01*
X100298982Y-109174390D01*
X100100954Y-109135000D01*
X99899046Y-109135000D01*
X99701018Y-109174390D01*
X99514480Y-109251656D01*
X99346600Y-109363830D01*
X99205000Y-109505430D01*
X99205000Y-108274570D01*
X99346600Y-108416170D01*
X99514480Y-108528344D01*
X99701018Y-108605610D01*
X99899046Y-108645000D01*
X100100954Y-108645000D01*
X100298982Y-108605610D01*
X100485520Y-108528344D01*
X100653400Y-108416170D01*
X100796170Y-108273400D01*
X100894874Y-108125679D01*
X105480000Y-108125679D01*
X105480000Y-108214321D01*
X105497294Y-108301260D01*
X105531215Y-108383155D01*
X105580462Y-108456858D01*
X105643142Y-108519538D01*
X105716845Y-108568785D01*
X105798740Y-108602706D01*
X105885679Y-108620000D01*
X105974321Y-108620000D01*
X106061260Y-108602706D01*
X106143155Y-108568785D01*
X106216858Y-108519538D01*
X106279538Y-108456858D01*
X106328785Y-108383155D01*
X106362706Y-108301260D01*
X106380000Y-108214321D01*
X106380000Y-108125679D01*
X106362706Y-108038740D01*
X106328785Y-107956845D01*
X106279538Y-107883142D01*
X106216858Y-107820462D01*
X106143155Y-107771215D01*
X106061260Y-107737294D01*
X105974321Y-107720000D01*
X105885679Y-107720000D01*
X105798740Y-107737294D01*
X105716845Y-107771215D01*
X105643142Y-107820462D01*
X105580462Y-107883142D01*
X105531215Y-107956845D01*
X105497294Y-108038740D01*
X105480000Y-108125679D01*
X100894874Y-108125679D01*
X100908344Y-108105520D01*
X100985610Y-107918982D01*
X101025000Y-107720954D01*
X101025000Y-107695679D01*
X106830000Y-107695679D01*
X106830000Y-107784321D01*
X106847294Y-107871260D01*
X106881215Y-107953155D01*
X106930462Y-108026858D01*
X106993142Y-108089538D01*
X107066845Y-108138785D01*
X107148740Y-108172706D01*
X107235679Y-108190000D01*
X107324321Y-108190000D01*
X107411260Y-108172706D01*
X107493155Y-108138785D01*
X107566858Y-108089538D01*
X107629538Y-108026858D01*
X107678785Y-107953155D01*
X107712706Y-107871260D01*
X107730000Y-107784321D01*
X107730000Y-107695679D01*
X107712706Y-107608740D01*
X107678785Y-107526845D01*
X107629538Y-107453142D01*
X107566858Y-107390462D01*
X107493155Y-107341215D01*
X107411260Y-107307294D01*
X107324321Y-107290000D01*
X107235679Y-107290000D01*
X107148740Y-107307294D01*
X107066845Y-107341215D01*
X106993142Y-107390462D01*
X106930462Y-107453142D01*
X106881215Y-107526845D01*
X106847294Y-107608740D01*
X106830000Y-107695679D01*
X101025000Y-107695679D01*
X101025000Y-107519046D01*
X100985610Y-107321018D01*
X100908344Y-107134480D01*
X100796170Y-106966600D01*
X100653400Y-106823830D01*
X100485520Y-106711656D01*
X100298982Y-106634390D01*
X100100954Y-106595000D01*
X99899046Y-106595000D01*
X99701018Y-106634390D01*
X99514480Y-106711656D01*
X99346600Y-106823830D01*
X99205000Y-106965430D01*
X99205000Y-105734570D01*
X99346600Y-105876170D01*
X99514480Y-105988344D01*
X99701018Y-106065610D01*
X99899046Y-106105000D01*
X100100954Y-106105000D01*
X100298982Y-106065610D01*
X100485520Y-105988344D01*
X100653400Y-105876170D01*
X100796170Y-105733400D01*
X100908344Y-105565520D01*
X100985610Y-105378982D01*
X101025000Y-105180954D01*
X101025000Y-104979046D01*
X100985610Y-104781018D01*
X100908344Y-104594480D01*
X100796170Y-104426600D01*
X100653400Y-104283830D01*
X100485520Y-104171656D01*
X100298982Y-104094390D01*
X100100954Y-104055000D01*
X99899046Y-104055000D01*
X99701018Y-104094390D01*
X99514480Y-104171656D01*
X99346600Y-104283830D01*
X99205000Y-104425430D01*
X99205000Y-103194570D01*
X99346600Y-103336170D01*
X99514480Y-103448344D01*
X99701018Y-103525610D01*
X99899046Y-103565000D01*
X100100954Y-103565000D01*
X100298982Y-103525610D01*
X100485520Y-103448344D01*
X100653400Y-103336170D01*
X100796170Y-103193400D01*
X100908344Y-103025520D01*
X100985610Y-102838982D01*
X101025000Y-102640954D01*
X101025000Y-102439046D01*
X100985610Y-102241018D01*
X100908344Y-102054480D01*
X100796170Y-101886600D01*
X100653400Y-101743830D01*
X100485520Y-101631656D01*
X100298982Y-101554390D01*
X100100954Y-101515000D01*
X99899046Y-101515000D01*
X99701018Y-101554390D01*
X99514480Y-101631656D01*
X99346600Y-101743830D01*
X99205000Y-101885430D01*
X99205000Y-100722964D01*
X99347747Y-100722964D01*
X99435769Y-100861663D01*
X99614712Y-100955182D01*
X99808462Y-101011994D01*
X100009573Y-101029917D01*
X100210316Y-101008259D01*
X100402977Y-100947855D01*
X100564231Y-100861663D01*
X100652253Y-100722964D01*
X100000000Y-100070711D01*
X99347747Y-100722964D01*
X99205000Y-100722964D01*
X99205000Y-100606537D01*
X99277036Y-100652253D01*
X99929289Y-100000000D01*
X100070711Y-100000000D01*
X100722964Y-100652253D01*
X100861663Y-100564231D01*
X100955182Y-100385288D01*
X101011994Y-100191538D01*
X101029917Y-99990427D01*
X101029266Y-99984393D01*
X102575000Y-99984393D01*
X102575000Y-100655606D01*
X102585491Y-100762124D01*
X102626947Y-100898787D01*
X102694269Y-101024736D01*
X102784868Y-101135131D01*
X102895263Y-101225731D01*
X103021212Y-101293053D01*
X103157875Y-101334509D01*
X103300000Y-101348507D01*
X103442124Y-101334509D01*
X103578787Y-101293053D01*
X103704736Y-101225731D01*
X103815131Y-101135132D01*
X103905731Y-101024737D01*
X103973053Y-100898788D01*
X104014509Y-100762125D01*
X104025000Y-100655607D01*
X104025000Y-99984393D01*
X111215000Y-99984393D01*
X111215000Y-100655606D01*
X111225491Y-100762124D01*
X111266947Y-100898787D01*
X111334269Y-101024736D01*
X111424868Y-101135131D01*
X111535263Y-101225731D01*
X111661212Y-101293053D01*
X111797875Y-101334509D01*
X111940000Y-101348507D01*
X112082124Y-101334509D01*
X112218787Y-101293053D01*
X112344736Y-101225731D01*
X112455131Y-101135132D01*
X112545731Y-101024737D01*
X112613053Y-100898788D01*
X112654509Y-100762125D01*
X112665000Y-100655607D01*
X112665000Y-99984393D01*
X112654509Y-99877875D01*
X112613053Y-99741212D01*
X112545731Y-99615263D01*
X112455132Y-99504868D01*
X112344737Y-99414269D01*
X112218788Y-99346947D01*
X112082125Y-99305491D01*
X111940000Y-99291493D01*
X111797876Y-99305491D01*
X111661213Y-99346947D01*
X111535264Y-99414269D01*
X111424869Y-99504868D01*
X111334270Y-99615263D01*
X111266947Y-99741212D01*
X111225491Y-99877875D01*
X111215000Y-99984393D01*
X104025000Y-99984393D01*
X104014509Y-99877875D01*
X103973053Y-99741212D01*
X103905731Y-99615263D01*
X103815132Y-99504868D01*
X103704737Y-99414269D01*
X103578788Y-99346947D01*
X103442125Y-99305491D01*
X103300000Y-99291493D01*
X103157876Y-99305491D01*
X103021213Y-99346947D01*
X102895264Y-99414269D01*
X102784869Y-99504868D01*
X102694270Y-99615263D01*
X102626947Y-99741212D01*
X102585491Y-99877875D01*
X102575000Y-99984393D01*
X101029266Y-99984393D01*
X101008259Y-99789684D01*
X100947855Y-99597023D01*
X100861663Y-99435769D01*
X100722964Y-99347747D01*
X100070711Y-100000000D01*
X99929289Y-100000000D01*
X99277036Y-99347747D01*
X99205000Y-99393463D01*
X99205000Y-99253228D01*
X99207710Y-99225587D01*
X99208992Y-99221341D01*
X99211074Y-99217426D01*
X99213877Y-99213990D01*
X99217295Y-99211162D01*
X99221197Y-99209052D01*
X99225429Y-99207742D01*
X99251517Y-99205000D01*
X99393463Y-99205000D01*
X99347747Y-99277036D01*
G04 #@! TA.AperFunction,Conductor*
D17*
G36*
X99347747Y-99277036D02*
G01*
X100000000Y-99929289D01*
X100652253Y-99277036D01*
X100606537Y-99205000D01*
X114585430Y-99205000D01*
X114443830Y-99346600D01*
X114331656Y-99514480D01*
X114254390Y-99701018D01*
X114215000Y-99899046D01*
X114215000Y-100100954D01*
X114254390Y-100298982D01*
X114331656Y-100485520D01*
X114443830Y-100653400D01*
X114586600Y-100796170D01*
X114754480Y-100908344D01*
X114941018Y-100985610D01*
X115139046Y-101025000D01*
X115340954Y-101025000D01*
X115538982Y-100985610D01*
X115725520Y-100908344D01*
X115893400Y-100796170D01*
X116035001Y-100654569D01*
X116035001Y-101885431D01*
X115893400Y-101743830D01*
X115725520Y-101631656D01*
X115538982Y-101554390D01*
X115340954Y-101515000D01*
X115139046Y-101515000D01*
X114941018Y-101554390D01*
X114754480Y-101631656D01*
X114586600Y-101743830D01*
X114443830Y-101886600D01*
X114331656Y-102054480D01*
X114254390Y-102241018D01*
X114215000Y-102439046D01*
X114215000Y-102640954D01*
X114254390Y-102838982D01*
X114331656Y-103025520D01*
X114443830Y-103193400D01*
X114586600Y-103336170D01*
X114754480Y-103448344D01*
X114941018Y-103525610D01*
X115139046Y-103565000D01*
X115340954Y-103565000D01*
X115538982Y-103525610D01*
X115725520Y-103448344D01*
X115893400Y-103336170D01*
X116035001Y-103194569D01*
X116035001Y-104425431D01*
X115893400Y-104283830D01*
X115725520Y-104171656D01*
X115538982Y-104094390D01*
X115340954Y-104055000D01*
X115139046Y-104055000D01*
X114941018Y-104094390D01*
X114754480Y-104171656D01*
X114586600Y-104283830D01*
X114443830Y-104426600D01*
X114331656Y-104594480D01*
X114254390Y-104781018D01*
X114215000Y-104979046D01*
X114215000Y-105180954D01*
X114254390Y-105378982D01*
X114331656Y-105565520D01*
X114443830Y-105733400D01*
X114586600Y-105876170D01*
X114754480Y-105988344D01*
X114941018Y-106065610D01*
X115139046Y-106105000D01*
X115340954Y-106105000D01*
X115538982Y-106065610D01*
X115725520Y-105988344D01*
X115893400Y-105876170D01*
X116035001Y-105734569D01*
X116035001Y-106135140D01*
X116010285Y-106133442D01*
X113815257Y-106126604D01*
X113729898Y-106115098D01*
X113664136Y-106087625D01*
X113607727Y-106044075D01*
X113564508Y-105987411D01*
X113537422Y-105921488D01*
X113530000Y-105863872D01*
X113530000Y-104535380D01*
X113533618Y-103221997D01*
X113531767Y-103192571D01*
X113515027Y-103062894D01*
X113499930Y-103006027D01*
X113450143Y-102885123D01*
X113420817Y-102834112D01*
X113341386Y-102730250D01*
X113299837Y-102688587D01*
X113196194Y-102608870D01*
X113145264Y-102579403D01*
X113024498Y-102529283D01*
X112967672Y-102514029D01*
X112838041Y-102496932D01*
X112808621Y-102495000D01*
X102440000Y-102495000D01*
X102410632Y-102496925D01*
X102281222Y-102513962D01*
X102224486Y-102529164D01*
X102103896Y-102579114D01*
X102053028Y-102608483D01*
X101949475Y-102687943D01*
X101907943Y-102729475D01*
X101828483Y-102833028D01*
X101799114Y-102883896D01*
X101749164Y-103004486D01*
X101733962Y-103061222D01*
X101716925Y-103190632D01*
X101715000Y-103220000D01*
X101715000Y-106178604D01*
X101660462Y-106233142D01*
X101611215Y-106306845D01*
X101577294Y-106388740D01*
X101560000Y-106475679D01*
X101560000Y-106564321D01*
X101577294Y-106651260D01*
X101611215Y-106733155D01*
X101660462Y-106806858D01*
X101723142Y-106869538D01*
X101796845Y-106918785D01*
X101878740Y-106952706D01*
X101929767Y-106962856D01*
X101949194Y-106982303D01*
X102052635Y-107061772D01*
X102103448Y-107091154D01*
X102223924Y-107141164D01*
X102280613Y-107156405D01*
X102409924Y-107173550D01*
X102439271Y-107175502D01*
X108124815Y-107181216D01*
X109178236Y-107183779D01*
X109201663Y-107182299D01*
X111378154Y-107184486D01*
X111463241Y-107195731D01*
X111528858Y-107222869D01*
X111585258Y-107266006D01*
X111628632Y-107322230D01*
X111656043Y-107387735D01*
X111667640Y-107472774D01*
X111672433Y-108402655D01*
X111674502Y-108431959D01*
X111692141Y-108561039D01*
X111707578Y-108617594D01*
X111757964Y-108737736D01*
X111787488Y-108788385D01*
X111867201Y-108891432D01*
X111908808Y-108932736D01*
X112012437Y-109011692D01*
X112063301Y-109040844D01*
X112183809Y-109090348D01*
X112240477Y-109105370D01*
X112369683Y-109122062D01*
X112399000Y-109123915D01*
X113325856Y-109121900D01*
X113298740Y-109127294D01*
X113216845Y-109161215D01*
X113143142Y-109210462D01*
X113080462Y-109273142D01*
X113031215Y-109346845D01*
X112997294Y-109428740D01*
X112980000Y-109515679D01*
X112980000Y-109604321D01*
X112997294Y-109691260D01*
X113031215Y-109773155D01*
X113080462Y-109846858D01*
X113143142Y-109909538D01*
X113216845Y-109958785D01*
X113298740Y-109992706D01*
X113385679Y-110010000D01*
X113474321Y-110010000D01*
X113561260Y-109992706D01*
X113643155Y-109958785D01*
X113716858Y-109909538D01*
X113779538Y-109846858D01*
X113828785Y-109773155D01*
X113862706Y-109691260D01*
X113880000Y-109604321D01*
X113880000Y-109515679D01*
X113862706Y-109428740D01*
X113828785Y-109346845D01*
X113779538Y-109273142D01*
X113716858Y-109210462D01*
X113643155Y-109161215D01*
X113561260Y-109127294D01*
X113531892Y-109121452D01*
X116003544Y-109116079D01*
X116032794Y-109114106D01*
X116035001Y-109113812D01*
X116035001Y-109505431D01*
X115893400Y-109363830D01*
X115725520Y-109251656D01*
X115538982Y-109174390D01*
X115340954Y-109135000D01*
X115139046Y-109135000D01*
X114941018Y-109174390D01*
X114754480Y-109251656D01*
X114586600Y-109363830D01*
X114443830Y-109506600D01*
X114331656Y-109674480D01*
X114254390Y-109861018D01*
X114215000Y-110059046D01*
X114215000Y-110260954D01*
X114254390Y-110458982D01*
X114331656Y-110645520D01*
X114443830Y-110813400D01*
X114586600Y-110956170D01*
X114754480Y-111068344D01*
X114941018Y-111145610D01*
X115139046Y-111185000D01*
X115340954Y-111185000D01*
X115538982Y-111145610D01*
X115725520Y-111068344D01*
X115893400Y-110956170D01*
X116035001Y-110814569D01*
X116035001Y-112045431D01*
X115893400Y-111903830D01*
X115725520Y-111791656D01*
X115538982Y-111714390D01*
X115340954Y-111675000D01*
X115139046Y-111675000D01*
X114941018Y-111714390D01*
X114754480Y-111791656D01*
X114586600Y-111903830D01*
X114443830Y-112046600D01*
X114331656Y-112214480D01*
X114254390Y-112401018D01*
X114215000Y-112599046D01*
X114215000Y-112800954D01*
X114254390Y-112998982D01*
X114331656Y-113185520D01*
X114443830Y-113353400D01*
X114586600Y-113496170D01*
X114754480Y-113608344D01*
X114941018Y-113685610D01*
X115139046Y-113725000D01*
X115340954Y-113725000D01*
X115538982Y-113685610D01*
X115725520Y-113608344D01*
X115893400Y-113496170D01*
X116035001Y-113354569D01*
X116035001Y-114585431D01*
X115893400Y-114443830D01*
X115725520Y-114331656D01*
X115538982Y-114254390D01*
X115340954Y-114215000D01*
X115139046Y-114215000D01*
X114941018Y-114254390D01*
X114754480Y-114331656D01*
X114586600Y-114443830D01*
X114443830Y-114586600D01*
X114331656Y-114754480D01*
X114254390Y-114941018D01*
X114215000Y-115139046D01*
X114215000Y-115340954D01*
X114254390Y-115538982D01*
X114331656Y-115725520D01*
X114443830Y-115893400D01*
X114586600Y-116036170D01*
X114754480Y-116148344D01*
X114941018Y-116225610D01*
X115139046Y-116265000D01*
X115340954Y-116265000D01*
X115538982Y-116225610D01*
X115725520Y-116148344D01*
X115893400Y-116036170D01*
X116035001Y-115894569D01*
X116035000Y-117125430D01*
X115893400Y-116983830D01*
X115725520Y-116871656D01*
X115538982Y-116794390D01*
X115340954Y-116755000D01*
X115139046Y-116755000D01*
X114941018Y-116794390D01*
X114754480Y-116871656D01*
X114586600Y-116983830D01*
X114443830Y-117126600D01*
X114331656Y-117294480D01*
X114254390Y-117481018D01*
X114215000Y-117679046D01*
X114215000Y-117880954D01*
X114254390Y-118078982D01*
X114331656Y-118265520D01*
X114443830Y-118433400D01*
X114586600Y-118576170D01*
X114754480Y-118688344D01*
X114941018Y-118765610D01*
X115139046Y-118805000D01*
X115340954Y-118805000D01*
X115538982Y-118765610D01*
X115725520Y-118688344D01*
X115893400Y-118576170D01*
X116035000Y-118434570D01*
X116035000Y-119665430D01*
X115893400Y-119523830D01*
X115725520Y-119411656D01*
X115538982Y-119334390D01*
X115340954Y-119295000D01*
X115139046Y-119295000D01*
X114941018Y-119334390D01*
X114754480Y-119411656D01*
X114586600Y-119523830D01*
X114443830Y-119666600D01*
X114331656Y-119834480D01*
X114254390Y-120021018D01*
X114215000Y-120219046D01*
X114215000Y-120420954D01*
X114254390Y-120618982D01*
X114331656Y-120805520D01*
X114443830Y-120973400D01*
X114586600Y-121116170D01*
X114754480Y-121228344D01*
X114941018Y-121305610D01*
X115139046Y-121345000D01*
X115340954Y-121345000D01*
X115538982Y-121305610D01*
X115725520Y-121228344D01*
X115893400Y-121116170D01*
X116035000Y-120974570D01*
X116035000Y-122205430D01*
X115893400Y-122063830D01*
X115725520Y-121951656D01*
X115538982Y-121874390D01*
X115340954Y-121835000D01*
X115139046Y-121835000D01*
X114941018Y-121874390D01*
X114754480Y-121951656D01*
X114586600Y-122063830D01*
X114443830Y-122206600D01*
X114331656Y-122374480D01*
X114254390Y-122561018D01*
X114215000Y-122759046D01*
X114215000Y-122960954D01*
X114254390Y-123158982D01*
X114331656Y-123345520D01*
X114443830Y-123513400D01*
X114586600Y-123656170D01*
X114754480Y-123768344D01*
X114941018Y-123845610D01*
X115139046Y-123885000D01*
X115340954Y-123885000D01*
X115538982Y-123845610D01*
X115725520Y-123768344D01*
X115893400Y-123656170D01*
X116035000Y-123514570D01*
X116035000Y-124745430D01*
X115893400Y-124603830D01*
X115725520Y-124491656D01*
X115538982Y-124414390D01*
X115340954Y-124375000D01*
X115139046Y-124375000D01*
X114941018Y-124414390D01*
X114754480Y-124491656D01*
X114586600Y-124603830D01*
X114443830Y-124746600D01*
X114331656Y-124914480D01*
X114254390Y-125101018D01*
X114215000Y-125299046D01*
X114215000Y-125500954D01*
X114254390Y-125698982D01*
X114331656Y-125885520D01*
X114443830Y-126053400D01*
X114586600Y-126196170D01*
X114754480Y-126308344D01*
X114941018Y-126385610D01*
X115139046Y-126425000D01*
X115340954Y-126425000D01*
X115538982Y-126385610D01*
X115725520Y-126308344D01*
X115893400Y-126196170D01*
X116035000Y-126054570D01*
X116035000Y-127285430D01*
X115893400Y-127143830D01*
X115725520Y-127031656D01*
X115538982Y-126954390D01*
X115340954Y-126915000D01*
X115139046Y-126915000D01*
X114941018Y-126954390D01*
X114754480Y-127031656D01*
X114586600Y-127143830D01*
X114443830Y-127286600D01*
X114331656Y-127454480D01*
X114254390Y-127641018D01*
X114215000Y-127839046D01*
X114215000Y-128040954D01*
X114254390Y-128238982D01*
X114331656Y-128425520D01*
X114443830Y-128593400D01*
X114586600Y-128736170D01*
X114754480Y-128848344D01*
X114941018Y-128925610D01*
X115139046Y-128965000D01*
X115340954Y-128965000D01*
X115538982Y-128925610D01*
X115725520Y-128848344D01*
X115893400Y-128736170D01*
X116035000Y-128594570D01*
X116035000Y-129825430D01*
X115893400Y-129683830D01*
X115725520Y-129571656D01*
X115538982Y-129494390D01*
X115340954Y-129455000D01*
X115139046Y-129455000D01*
X114941018Y-129494390D01*
X114754480Y-129571656D01*
X114586600Y-129683830D01*
X114443830Y-129826600D01*
X114420008Y-129862252D01*
X114420008Y-128884730D01*
X114421458Y-128870007D01*
X114420008Y-128855284D01*
X114420008Y-128855275D01*
X114415667Y-128811198D01*
X114398512Y-128754648D01*
X114385544Y-128730387D01*
X114370655Y-128702530D01*
X114342557Y-128668293D01*
X114333166Y-128656850D01*
X114321723Y-128647459D01*
X114090011Y-128415748D01*
X114090011Y-125034741D01*
X114091462Y-125020011D01*
X114089558Y-125000678D01*
X114085670Y-124961201D01*
X114068515Y-124904651D01*
X114068515Y-124904650D01*
X114040658Y-124852533D01*
X114012560Y-124818296D01*
X114003169Y-124806853D01*
X113991726Y-124797462D01*
X110211866Y-121017603D01*
X110233155Y-121008785D01*
X110306858Y-120959538D01*
X110369538Y-120896858D01*
X110418785Y-120823155D01*
X110452706Y-120741260D01*
X110470000Y-120654321D01*
X110470000Y-120565679D01*
X110468707Y-120559181D01*
X110501260Y-120552706D01*
X110583155Y-120518785D01*
X110656858Y-120469538D01*
X110719538Y-120406858D01*
X110731696Y-120388663D01*
X110746845Y-120398785D01*
X110828740Y-120432706D01*
X110915679Y-120450000D01*
X111004321Y-120450000D01*
X111091260Y-120432706D01*
X111173155Y-120398785D01*
X111246858Y-120349538D01*
X111309538Y-120286858D01*
X111358785Y-120213155D01*
X111392706Y-120131260D01*
X111410000Y-120044321D01*
X111410000Y-119955679D01*
X111392706Y-119868740D01*
X111358785Y-119786845D01*
X111348663Y-119771696D01*
X111366858Y-119759538D01*
X111429538Y-119696858D01*
X111450935Y-119664836D01*
X111456845Y-119668785D01*
X111538740Y-119702706D01*
X111625679Y-119720000D01*
X111714321Y-119720000D01*
X111801260Y-119702706D01*
X111883155Y-119668785D01*
X111956858Y-119619538D01*
X112019538Y-119556858D01*
X112068785Y-119483155D01*
X112102706Y-119401260D01*
X112120000Y-119314321D01*
X112120000Y-119225679D01*
X112104087Y-119145679D01*
X112730000Y-119145679D01*
X112730000Y-119234321D01*
X112747294Y-119321260D01*
X112781215Y-119403155D01*
X112830462Y-119476858D01*
X112893142Y-119539538D01*
X112966845Y-119588785D01*
X113048740Y-119622706D01*
X113135679Y-119640000D01*
X113224321Y-119640000D01*
X113311260Y-119622706D01*
X113393155Y-119588785D01*
X113466858Y-119539538D01*
X113529538Y-119476858D01*
X113578785Y-119403155D01*
X113612706Y-119321260D01*
X113630000Y-119234321D01*
X113630000Y-119145679D01*
X113612706Y-119058740D01*
X113578785Y-118976845D01*
X113529538Y-118903142D01*
X113466858Y-118840462D01*
X113393155Y-118791215D01*
X113311260Y-118757294D01*
X113224321Y-118740000D01*
X113135679Y-118740000D01*
X113048740Y-118757294D01*
X112966845Y-118791215D01*
X112893142Y-118840462D01*
X112830462Y-118903142D01*
X112781215Y-118976845D01*
X112747294Y-119058740D01*
X112730000Y-119145679D01*
X112104087Y-119145679D01*
X112102706Y-119138740D01*
X112068785Y-119056845D01*
X112064836Y-119050935D01*
X112096858Y-119029538D01*
X112159538Y-118966858D01*
X112160924Y-118964783D01*
X112196845Y-118988785D01*
X112278740Y-119022706D01*
X112365679Y-119040000D01*
X112454321Y-119040000D01*
X112541260Y-119022706D01*
X112623155Y-118988785D01*
X112696858Y-118939538D01*
X112759538Y-118876858D01*
X112808785Y-118803155D01*
X112842706Y-118721260D01*
X112860000Y-118634321D01*
X112860000Y-118545679D01*
X112842706Y-118458740D01*
X112808785Y-118376845D01*
X112784783Y-118340924D01*
X112786858Y-118339538D01*
X112849538Y-118276858D01*
X112898785Y-118203155D01*
X112932706Y-118121260D01*
X112950000Y-118034321D01*
X112950000Y-117945679D01*
X112932706Y-117858740D01*
X112898785Y-117776845D01*
X112849538Y-117703142D01*
X112786858Y-117640462D01*
X112713155Y-117591215D01*
X112631260Y-117557294D01*
X112544321Y-117540000D01*
X112455679Y-117540000D01*
X112368740Y-117557294D01*
X112286845Y-117591215D01*
X112213142Y-117640462D01*
X112150462Y-117703142D01*
X112101215Y-117776845D01*
X112067294Y-117858740D01*
X112050000Y-117945679D01*
X112050000Y-118034321D01*
X112067294Y-118121260D01*
X112101215Y-118203155D01*
X112125217Y-118239076D01*
X112123142Y-118240462D01*
X112060462Y-118303142D01*
X112059076Y-118305217D01*
X112023155Y-118281215D01*
X111941260Y-118247294D01*
X111854321Y-118230000D01*
X111765679Y-118230000D01*
X111678740Y-118247294D01*
X111596845Y-118281215D01*
X111523142Y-118330462D01*
X111460462Y-118393142D01*
X111411215Y-118466845D01*
X111377294Y-118548740D01*
X111360000Y-118635679D01*
X111360000Y-118724321D01*
X111377294Y-118811260D01*
X111411215Y-118893155D01*
X111415164Y-118899065D01*
X111383142Y-118920462D01*
X111320462Y-118983142D01*
X111299065Y-119015164D01*
X111293155Y-119011215D01*
X111211260Y-118977294D01*
X111124321Y-118960000D01*
X111035679Y-118960000D01*
X110948740Y-118977294D01*
X110866845Y-119011215D01*
X110793142Y-119060462D01*
X110730462Y-119123142D01*
X110681215Y-119196845D01*
X110647294Y-119278740D01*
X110630000Y-119365679D01*
X110630000Y-119454321D01*
X110647294Y-119541260D01*
X110681215Y-119623155D01*
X110691337Y-119638304D01*
X110673142Y-119650462D01*
X110610462Y-119713142D01*
X110598304Y-119731337D01*
X110583155Y-119721215D01*
X110501260Y-119687294D01*
X110414321Y-119670000D01*
X110325679Y-119670000D01*
X110238740Y-119687294D01*
X110156845Y-119721215D01*
X110083142Y-119770462D01*
X110020462Y-119833142D01*
X109971215Y-119906845D01*
X109937294Y-119988740D01*
X109920000Y-120075679D01*
X109920000Y-120164321D01*
X109921293Y-120170819D01*
X109888740Y-120177294D01*
X109824999Y-120203696D01*
X109824999Y-119949264D01*
X111651717Y-118122547D01*
X111663158Y-118113158D01*
X111672550Y-118101714D01*
X111700647Y-118067478D01*
X111728504Y-118015360D01*
X111730248Y-118009611D01*
X111745659Y-117958810D01*
X111750000Y-117914733D01*
X111750000Y-117914730D01*
X111751451Y-117900000D01*
X111750000Y-117885270D01*
X111750000Y-116334730D01*
X111751451Y-116320000D01*
X111749615Y-116301357D01*
X111745659Y-116261190D01*
X111728504Y-116204640D01*
X111709989Y-116170000D01*
X111700647Y-116152522D01*
X111695032Y-116145679D01*
X113070000Y-116145679D01*
X113070000Y-116234321D01*
X113087294Y-116321260D01*
X113121215Y-116403155D01*
X113170462Y-116476858D01*
X113233142Y-116539538D01*
X113306845Y-116588785D01*
X113388740Y-116622706D01*
X113475679Y-116640000D01*
X113564321Y-116640000D01*
X113651260Y-116622706D01*
X113733155Y-116588785D01*
X113806858Y-116539538D01*
X113869538Y-116476858D01*
X113918785Y-116403155D01*
X113952706Y-116321260D01*
X113970000Y-116234321D01*
X113970000Y-116145679D01*
X113952706Y-116058740D01*
X113918785Y-115976845D01*
X113869538Y-115903142D01*
X113806858Y-115840462D01*
X113733155Y-115791215D01*
X113651260Y-115757294D01*
X113564321Y-115740000D01*
X113475679Y-115740000D01*
X113388740Y-115757294D01*
X113306845Y-115791215D01*
X113233142Y-115840462D01*
X113170462Y-115903142D01*
X113121215Y-115976845D01*
X113087294Y-116058740D01*
X113070000Y-116145679D01*
X111695032Y-116145679D01*
X111672550Y-116118286D01*
X111672549Y-116118285D01*
X111663158Y-116106842D01*
X111651715Y-116097451D01*
X110545009Y-114990746D01*
X110545009Y-114324585D01*
X110583155Y-114308785D01*
X110656858Y-114259538D01*
X110719538Y-114196858D01*
X110745554Y-114157922D01*
X110746845Y-114158785D01*
X110828740Y-114192706D01*
X110915679Y-114210000D01*
X111004321Y-114210000D01*
X111091260Y-114192706D01*
X111173155Y-114158785D01*
X111246858Y-114109538D01*
X111309538Y-114046858D01*
X111358785Y-113973155D01*
X111367395Y-113952367D01*
X111476539Y-114061511D01*
X111463142Y-114070462D01*
X111400462Y-114133142D01*
X111351215Y-114206845D01*
X111317294Y-114288740D01*
X111300000Y-114375679D01*
X111300000Y-114464321D01*
X111317294Y-114551260D01*
X111351215Y-114633155D01*
X111400462Y-114706858D01*
X111452952Y-114759348D01*
X111421215Y-114806845D01*
X111387294Y-114888740D01*
X111370000Y-114975679D01*
X111370000Y-115064321D01*
X111387294Y-115151260D01*
X111421215Y-115233155D01*
X111470462Y-115306858D01*
X111533142Y-115369538D01*
X111606845Y-115418785D01*
X111688740Y-115452706D01*
X111775679Y-115470000D01*
X111864321Y-115470000D01*
X111951260Y-115452706D01*
X112033155Y-115418785D01*
X112106858Y-115369538D01*
X112169538Y-115306858D01*
X112218785Y-115233155D01*
X112252706Y-115151260D01*
X112260913Y-115110000D01*
X112344321Y-115110000D01*
X112431260Y-115092706D01*
X112501552Y-115063591D01*
X112530462Y-115106858D01*
X112593142Y-115169538D01*
X112666845Y-115218785D01*
X112748740Y-115252706D01*
X112835679Y-115270000D01*
X112924321Y-115270000D01*
X113011260Y-115252706D01*
X113093155Y-115218785D01*
X113166858Y-115169538D01*
X113200000Y-115136396D01*
X113233142Y-115169538D01*
X113306845Y-115218785D01*
X113388740Y-115252706D01*
X113475679Y-115270000D01*
X113564321Y-115270000D01*
X113651260Y-115252706D01*
X113733155Y-115218785D01*
X113806858Y-115169538D01*
X113869538Y-115106858D01*
X113918785Y-115033155D01*
X113952706Y-114951260D01*
X113970000Y-114864321D01*
X113970000Y-114775679D01*
X113952706Y-114688740D01*
X113918785Y-114606845D01*
X113869538Y-114533142D01*
X113806858Y-114470462D01*
X113733155Y-114421215D01*
X113651260Y-114387294D01*
X113564321Y-114370000D01*
X113475679Y-114370000D01*
X113388740Y-114387294D01*
X113306845Y-114421215D01*
X113233142Y-114470462D01*
X113229175Y-114474429D01*
X113224935Y-114431386D01*
X113204922Y-114365411D01*
X113172422Y-114304608D01*
X113128685Y-114251313D01*
X113115330Y-114240353D01*
X112559654Y-113684679D01*
X112548686Y-113671314D01*
X112495391Y-113627577D01*
X112434588Y-113595077D01*
X112368613Y-113575064D01*
X112317190Y-113569999D01*
X112317189Y-113569999D01*
X112300001Y-113568306D01*
X112282813Y-113569999D01*
X111984326Y-113569999D01*
X112071260Y-113552706D01*
X112153155Y-113518785D01*
X112226858Y-113469538D01*
X112289538Y-113406858D01*
X112338785Y-113333155D01*
X112372706Y-113251260D01*
X112390000Y-113164321D01*
X112390000Y-113075679D01*
X112372706Y-112988740D01*
X112338785Y-112906845D01*
X112289538Y-112833142D01*
X112226858Y-112770462D01*
X112153155Y-112721215D01*
X112071260Y-112687294D01*
X111984321Y-112670000D01*
X111895679Y-112670000D01*
X111808740Y-112687294D01*
X111726845Y-112721215D01*
X111653142Y-112770462D01*
X111590462Y-112833142D01*
X111541215Y-112906845D01*
X111507294Y-112988740D01*
X111490000Y-113075679D01*
X111490000Y-113085025D01*
X110989654Y-112584679D01*
X110978686Y-112571314D01*
X110925391Y-112527577D01*
X110864588Y-112495077D01*
X110798613Y-112475064D01*
X110747190Y-112469999D01*
X110747189Y-112469999D01*
X110730001Y-112468306D01*
X110712813Y-112469999D01*
X110604973Y-112469999D01*
X110280653Y-112145679D01*
X112550000Y-112145679D01*
X112550000Y-112234321D01*
X112567294Y-112321260D01*
X112601215Y-112403155D01*
X112650462Y-112476858D01*
X112713142Y-112539538D01*
X112786845Y-112588785D01*
X112868740Y-112622706D01*
X112955679Y-112640000D01*
X113044321Y-112640000D01*
X113091194Y-112630676D01*
X113121215Y-112703155D01*
X113170462Y-112776858D01*
X113233142Y-112839538D01*
X113306845Y-112888785D01*
X113388740Y-112922706D01*
X113475679Y-112940000D01*
X113564321Y-112940000D01*
X113651260Y-112922706D01*
X113733155Y-112888785D01*
X113806858Y-112839538D01*
X113869538Y-112776858D01*
X113918785Y-112703155D01*
X113952706Y-112621260D01*
X113970000Y-112534321D01*
X113970000Y-112445679D01*
X113952706Y-112358740D01*
X113918785Y-112276845D01*
X113869538Y-112203142D01*
X113806858Y-112140462D01*
X113733155Y-112091215D01*
X113651260Y-112057294D01*
X113564321Y-112040000D01*
X113475679Y-112040000D01*
X113428806Y-112049324D01*
X113398785Y-111976845D01*
X113349538Y-111903142D01*
X113286858Y-111840462D01*
X113213155Y-111791215D01*
X113131260Y-111757294D01*
X113044321Y-111740000D01*
X112955679Y-111740000D01*
X112868740Y-111757294D01*
X112786845Y-111791215D01*
X112713142Y-111840462D01*
X112650462Y-111903142D01*
X112601215Y-111976845D01*
X112567294Y-112058740D01*
X112550000Y-112145679D01*
X110280653Y-112145679D01*
X108700653Y-110565679D01*
X110130000Y-110565679D01*
X110130000Y-110654321D01*
X110147294Y-110741260D01*
X110181215Y-110823155D01*
X110230462Y-110896858D01*
X110293142Y-110959538D01*
X110366845Y-111008785D01*
X110430136Y-111035000D01*
X110366845Y-111061215D01*
X110293142Y-111110462D01*
X110230462Y-111173142D01*
X110181215Y-111246845D01*
X110147294Y-111328740D01*
X110130000Y-111415679D01*
X110130000Y-111504321D01*
X110147294Y-111591260D01*
X110181215Y-111673155D01*
X110230462Y-111746858D01*
X110293142Y-111809538D01*
X110366845Y-111858785D01*
X110448740Y-111892706D01*
X110535679Y-111910000D01*
X110624321Y-111910000D01*
X110711260Y-111892706D01*
X110793155Y-111858785D01*
X110866858Y-111809538D01*
X110929538Y-111746858D01*
X110978785Y-111673155D01*
X111005000Y-111609864D01*
X111031215Y-111673155D01*
X111080462Y-111746858D01*
X111143142Y-111809538D01*
X111216845Y-111858785D01*
X111298740Y-111892706D01*
X111385679Y-111910000D01*
X111474321Y-111910000D01*
X111561260Y-111892706D01*
X111643155Y-111858785D01*
X111716858Y-111809538D01*
X111779538Y-111746858D01*
X111828785Y-111673155D01*
X111862706Y-111591260D01*
X111880000Y-111504321D01*
X111880000Y-111415679D01*
X111862706Y-111328740D01*
X111828785Y-111246845D01*
X111779538Y-111173142D01*
X111716858Y-111110462D01*
X111643155Y-111061215D01*
X111591936Y-111040000D01*
X111643155Y-111018785D01*
X111716858Y-110969538D01*
X111779538Y-110906858D01*
X111828785Y-110833155D01*
X111862706Y-110751260D01*
X111880000Y-110664321D01*
X111880000Y-110575679D01*
X111862706Y-110488740D01*
X111828785Y-110406845D01*
X111779538Y-110333142D01*
X111716858Y-110270462D01*
X111643155Y-110221215D01*
X111561260Y-110187294D01*
X111474321Y-110170000D01*
X111385679Y-110170000D01*
X111298740Y-110187294D01*
X111216845Y-110221215D01*
X111143142Y-110270462D01*
X111080462Y-110333142D01*
X111031215Y-110406845D01*
X111007071Y-110465136D01*
X110978785Y-110396845D01*
X110929538Y-110323142D01*
X110866858Y-110260462D01*
X110793155Y-110211215D01*
X110711260Y-110177294D01*
X110624321Y-110160000D01*
X110535679Y-110160000D01*
X110448740Y-110177294D01*
X110366845Y-110211215D01*
X110293142Y-110260462D01*
X110230462Y-110323142D01*
X110181215Y-110396845D01*
X110147294Y-110478740D01*
X110130000Y-110565679D01*
X108700653Y-110565679D01*
X108199654Y-110064681D01*
X108188685Y-110051315D01*
X108135390Y-110007578D01*
X108074587Y-109975078D01*
X108008612Y-109955065D01*
X107957189Y-109950000D01*
X107957188Y-109950000D01*
X107940000Y-109948307D01*
X107922812Y-109950000D01*
X106144975Y-109950000D01*
X104729838Y-108534865D01*
X104712706Y-108448740D01*
X104678785Y-108366845D01*
X104629538Y-108293142D01*
X104566858Y-108230462D01*
X104493155Y-108181215D01*
X104411260Y-108147294D01*
X104324321Y-108130000D01*
X104235679Y-108130000D01*
X104148740Y-108147294D01*
X104066845Y-108181215D01*
X103993142Y-108230462D01*
X103980000Y-108243604D01*
X103966858Y-108230462D01*
X103893155Y-108181215D01*
X103811260Y-108147294D01*
X103724321Y-108130000D01*
X103635679Y-108130000D01*
X103548740Y-108147294D01*
X103466845Y-108181215D01*
X103393142Y-108230462D01*
X103380000Y-108243604D01*
X103366858Y-108230462D01*
X103293155Y-108181215D01*
X103211260Y-108147294D01*
X103124321Y-108130000D01*
X103035679Y-108130000D01*
X102948740Y-108147294D01*
X102866845Y-108181215D01*
X102793142Y-108230462D01*
X102730462Y-108293142D01*
X102681215Y-108366845D01*
X102647294Y-108448740D01*
X102630000Y-108535679D01*
X102630000Y-108624321D01*
X102647294Y-108711260D01*
X102681215Y-108793155D01*
X102730462Y-108866858D01*
X102793142Y-108929538D01*
X102866845Y-108978785D01*
X102948740Y-109012706D01*
X103035679Y-109030000D01*
X103124321Y-109030000D01*
X103211260Y-109012706D01*
X103293155Y-108978785D01*
X103366858Y-108929538D01*
X103380000Y-108916396D01*
X103393142Y-108929538D01*
X103466845Y-108978785D01*
X103548740Y-109012706D01*
X103550420Y-109013040D01*
X104340621Y-109803242D01*
X104324321Y-109800000D01*
X104235679Y-109800000D01*
X104148740Y-109817294D01*
X104066845Y-109851215D01*
X103993142Y-109900462D01*
X103980000Y-109913604D01*
X103966858Y-109900462D01*
X103893155Y-109851215D01*
X103811260Y-109817294D01*
X103724321Y-109800000D01*
X103635679Y-109800000D01*
X103548740Y-109817294D01*
X103466845Y-109851215D01*
X103393142Y-109900462D01*
X103380000Y-109913604D01*
X103366858Y-109900462D01*
X103293155Y-109851215D01*
X103211260Y-109817294D01*
X103124321Y-109800000D01*
X103035679Y-109800000D01*
X102948740Y-109817294D01*
X102866845Y-109851215D01*
X102793142Y-109900462D01*
X102780000Y-109913604D01*
X102766858Y-109900462D01*
X102693155Y-109851215D01*
X102611260Y-109817294D01*
X102524321Y-109800000D01*
X102435679Y-109800000D01*
X102348740Y-109817294D01*
X102266845Y-109851215D01*
X102193142Y-109900462D01*
X102130462Y-109963142D01*
X102081215Y-110036845D01*
X102047294Y-110118740D01*
X102030000Y-110205679D01*
X102030000Y-110294321D01*
X102047294Y-110381260D01*
X102081215Y-110463155D01*
X102130462Y-110536858D01*
X102193142Y-110599538D01*
X102266845Y-110648785D01*
X102339324Y-110678806D01*
X102330000Y-110725679D01*
X102330000Y-110814321D01*
X102347294Y-110901260D01*
X102381215Y-110983155D01*
X102430462Y-111056858D01*
X102493142Y-111119538D01*
X102566845Y-111168785D01*
X102648740Y-111202706D01*
X102735679Y-111220000D01*
X102824321Y-111220000D01*
X102911260Y-111202706D01*
X102993155Y-111168785D01*
X103066858Y-111119538D01*
X103080000Y-111106396D01*
X103093142Y-111119538D01*
X103166845Y-111168785D01*
X103248740Y-111202706D01*
X103335679Y-111220000D01*
X103424321Y-111220000D01*
X103511260Y-111202706D01*
X103593155Y-111168785D01*
X103666858Y-111119538D01*
X103680000Y-111106396D01*
X103693142Y-111119538D01*
X103766845Y-111168785D01*
X103848740Y-111202706D01*
X103935679Y-111220000D01*
X103980381Y-111220000D01*
X103451483Y-111748899D01*
X103439079Y-111759079D01*
X103398465Y-111808567D01*
X103373604Y-111855079D01*
X103368287Y-111865027D01*
X103354645Y-111910000D01*
X103349703Y-111926290D01*
X103345000Y-111974040D01*
X103345000Y-111974047D01*
X103343429Y-111990000D01*
X103345000Y-112005954D01*
X103345001Y-112605379D01*
X102026482Y-113923900D01*
X102014078Y-113934080D01*
X101973464Y-113983568D01*
X101953853Y-114020258D01*
X101943286Y-114040028D01*
X101925094Y-114100000D01*
X101924702Y-114101291D01*
X101919999Y-114149041D01*
X101919999Y-114149048D01*
X101918428Y-114165001D01*
X101919999Y-114180954D01*
X101919999Y-115319908D01*
X101841260Y-115287294D01*
X101754321Y-115270000D01*
X101665679Y-115270000D01*
X101578740Y-115287294D01*
X101496845Y-115321215D01*
X101423142Y-115370462D01*
X101360462Y-115433142D01*
X101311215Y-115506845D01*
X101277294Y-115588740D01*
X101260000Y-115675679D01*
X101260000Y-115764321D01*
X101277294Y-115851260D01*
X101311215Y-115933155D01*
X101360462Y-116006858D01*
X101423142Y-116069538D01*
X101496845Y-116118785D01*
X101578740Y-116152706D01*
X101665679Y-116170000D01*
X101754321Y-116170000D01*
X101841260Y-116152706D01*
X101920000Y-116120092D01*
X101920000Y-117510035D01*
X101166472Y-118263564D01*
X101154068Y-118273744D01*
X101113454Y-118323232D01*
X101084798Y-118376845D01*
X101083276Y-118379692D01*
X101064982Y-118440000D01*
X101064692Y-118440955D01*
X101059989Y-118488705D01*
X101059989Y-118488712D01*
X101058418Y-118504665D01*
X101059989Y-118520618D01*
X101059990Y-119579372D01*
X101058418Y-119595335D01*
X101064692Y-119659046D01*
X101083276Y-119720308D01*
X101083277Y-119720309D01*
X101113455Y-119776769D01*
X101154069Y-119826256D01*
X101166467Y-119836431D01*
X102465000Y-121134966D01*
X102465001Y-123868603D01*
X102440462Y-123893142D01*
X102391215Y-123966845D01*
X102357294Y-124048740D01*
X102340000Y-124135679D01*
X102340000Y-124224321D01*
X102357294Y-124311260D01*
X102391215Y-124393155D01*
X102440462Y-124466858D01*
X102503142Y-124529538D01*
X102576845Y-124578785D01*
X102658740Y-124612706D01*
X102745679Y-124630000D01*
X102834321Y-124630000D01*
X102921260Y-124612706D01*
X103003155Y-124578785D01*
X103076858Y-124529538D01*
X103139538Y-124466858D01*
X103188785Y-124393155D01*
X103222706Y-124311260D01*
X103240000Y-124224321D01*
X103240000Y-124135679D01*
X103222706Y-124048740D01*
X103188785Y-123966845D01*
X103139538Y-123893142D01*
X103115000Y-123868604D01*
X103115000Y-121016299D01*
X103116571Y-121000346D01*
X103115000Y-120984393D01*
X103115000Y-120984385D01*
X103110297Y-120936635D01*
X103091713Y-120875372D01*
X103061535Y-120818912D01*
X103044408Y-120798043D01*
X103031096Y-120781822D01*
X103031092Y-120781818D01*
X103020921Y-120769425D01*
X103008529Y-120759255D01*
X102309274Y-120060001D01*
X103835108Y-120060001D01*
X103847294Y-120121260D01*
X103881215Y-120203155D01*
X103930462Y-120276858D01*
X103993142Y-120339538D01*
X104066845Y-120388785D01*
X104148740Y-120422706D01*
X104235679Y-120440000D01*
X104324321Y-120440000D01*
X104411260Y-120422706D01*
X104493155Y-120388785D01*
X104508304Y-120378663D01*
X104520462Y-120396858D01*
X104583142Y-120459538D01*
X104585217Y-120460924D01*
X104561215Y-120496845D01*
X104527294Y-120578740D01*
X104510000Y-120665679D01*
X104510000Y-120754321D01*
X104527294Y-120841260D01*
X104561215Y-120923155D01*
X104610462Y-120996858D01*
X104673142Y-121059538D01*
X104746845Y-121108785D01*
X104828740Y-121142706D01*
X104915679Y-121160000D01*
X105004321Y-121160000D01*
X105091260Y-121142706D01*
X105173155Y-121108785D01*
X105246858Y-121059538D01*
X105309538Y-120996858D01*
X105358785Y-120923155D01*
X105392706Y-120841260D01*
X105410000Y-120754321D01*
X105410000Y-120665679D01*
X105392706Y-120578740D01*
X105358785Y-120496845D01*
X105309538Y-120423142D01*
X105246858Y-120360462D01*
X105244783Y-120359076D01*
X105268785Y-120323155D01*
X105286097Y-120281359D01*
X105710000Y-120705262D01*
X105710000Y-120835736D01*
X105278290Y-121267447D01*
X105278285Y-121267451D01*
X103988259Y-122557478D01*
X103976811Y-122566873D01*
X103957453Y-122590462D01*
X103939322Y-122612554D01*
X103932245Y-122625795D01*
X103911465Y-122664672D01*
X103894310Y-122721222D01*
X103889969Y-122765299D01*
X103889969Y-122765308D01*
X103888519Y-122780031D01*
X103889969Y-122794754D01*
X103889970Y-124625766D01*
X102805737Y-125710000D01*
X102735679Y-125710000D01*
X102648740Y-125727294D01*
X102566845Y-125761215D01*
X102493142Y-125810462D01*
X102430462Y-125873142D01*
X102381215Y-125946845D01*
X102347294Y-126028740D01*
X102330000Y-126115679D01*
X102330000Y-126204321D01*
X102347294Y-126291260D01*
X102381215Y-126373155D01*
X102430462Y-126446858D01*
X102493142Y-126509538D01*
X102566845Y-126558785D01*
X102648740Y-126592706D01*
X102735679Y-126610000D01*
X102824321Y-126610000D01*
X102911260Y-126592706D01*
X102993155Y-126558785D01*
X103066858Y-126509538D01*
X103129538Y-126446858D01*
X103178785Y-126373155D01*
X103212706Y-126291260D01*
X103230000Y-126204321D01*
X103230000Y-126134263D01*
X104189979Y-125174284D01*
X104189980Y-127653667D01*
X104149538Y-127593142D01*
X104086858Y-127530462D01*
X104013155Y-127481215D01*
X103931260Y-127447294D01*
X103844321Y-127430000D01*
X103755679Y-127430000D01*
X103668740Y-127447294D01*
X103586845Y-127481215D01*
X103513142Y-127530462D01*
X103450462Y-127593142D01*
X103401215Y-127666845D01*
X103367294Y-127748740D01*
X103350000Y-127835679D01*
X103350000Y-127924321D01*
X103367294Y-128011260D01*
X103401215Y-128093155D01*
X103450462Y-128166858D01*
X103513142Y-128229538D01*
X103586845Y-128278785D01*
X103668740Y-128312706D01*
X103755679Y-128330000D01*
X103844321Y-128330000D01*
X103931260Y-128312706D01*
X104013155Y-128278785D01*
X104086858Y-128229538D01*
X104149538Y-128166858D01*
X104189980Y-128106333D01*
X104189980Y-128405755D01*
X103024502Y-129571234D01*
X102838982Y-129494390D01*
X102640954Y-129455000D01*
X102439046Y-129455000D01*
X102241018Y-129494390D01*
X102054480Y-129571656D01*
X101886600Y-129683830D01*
X101743830Y-129826600D01*
X101631656Y-129994480D01*
X101554390Y-130181018D01*
X101515000Y-130379046D01*
X101515000Y-130580954D01*
X101554390Y-130778982D01*
X101631656Y-130965520D01*
X101743830Y-131133400D01*
X101886600Y-131276170D01*
X102054480Y-131388344D01*
X102241018Y-131465610D01*
X102439046Y-131505000D01*
X102640954Y-131505000D01*
X102838982Y-131465610D01*
X103025520Y-131388344D01*
X103193400Y-131276170D01*
X103336170Y-131133400D01*
X103448344Y-130965520D01*
X103510001Y-130816667D01*
X103510001Y-131625735D01*
X103024502Y-132111234D01*
X102838982Y-132034390D01*
X102640954Y-131995000D01*
X102439046Y-131995000D01*
X102241018Y-132034390D01*
X102054480Y-132111656D01*
X101886600Y-132223830D01*
X101743830Y-132366600D01*
X101631656Y-132534480D01*
X101554390Y-132721018D01*
X101515000Y-132919046D01*
X101515000Y-133120954D01*
X101554390Y-133318982D01*
X101631656Y-133505520D01*
X101743830Y-133673400D01*
X101885430Y-133815000D01*
X100654570Y-133815000D01*
X100796170Y-133673400D01*
X100908344Y-133505520D01*
X100985610Y-133318982D01*
X101025000Y-133120954D01*
X101025000Y-132919046D01*
X100985610Y-132721018D01*
X100908344Y-132534480D01*
X100796170Y-132366600D01*
X100653400Y-132223830D01*
X100485520Y-132111656D01*
X100298982Y-132034390D01*
X100100954Y-131995000D01*
X99899046Y-131995000D01*
X99701018Y-132034390D01*
X99514480Y-132111656D01*
X99346600Y-132223830D01*
X99205000Y-132365430D01*
X99205000Y-131134570D01*
X99346600Y-131276170D01*
X99514480Y-131388344D01*
X99701018Y-131465610D01*
X99899046Y-131505000D01*
X100100954Y-131505000D01*
X100298982Y-131465610D01*
X100485520Y-131388344D01*
X100653400Y-131276170D01*
X100796170Y-131133400D01*
X100908344Y-130965520D01*
X100985610Y-130778982D01*
X101025000Y-130580954D01*
X101025000Y-130379046D01*
X100985610Y-130181018D01*
X100908344Y-129994480D01*
X100796170Y-129826600D01*
X100653400Y-129683830D01*
X100485520Y-129571656D01*
X100298982Y-129494390D01*
X100100954Y-129455000D01*
X99899046Y-129455000D01*
X99701018Y-129494390D01*
X99514480Y-129571656D01*
X99346600Y-129683830D01*
X99205000Y-129825430D01*
X99205000Y-128594570D01*
X99346600Y-128736170D01*
X99514480Y-128848344D01*
X99701018Y-128925610D01*
X99899046Y-128965000D01*
X100100954Y-128965000D01*
X100298982Y-128925610D01*
X100485520Y-128848344D01*
X100653400Y-128736170D01*
X100796170Y-128593400D01*
X100908344Y-128425520D01*
X100985610Y-128238982D01*
X101025000Y-128040954D01*
X101025000Y-127839046D01*
X100985610Y-127641018D01*
X100908344Y-127454480D01*
X100796170Y-127286600D01*
X100653400Y-127143830D01*
X100485520Y-127031656D01*
X100298982Y-126954390D01*
X100100954Y-126915000D01*
X99899046Y-126915000D01*
X99701018Y-126954390D01*
X99514480Y-127031656D01*
X99346600Y-127143830D01*
X99205000Y-127285430D01*
X99205000Y-126054570D01*
X99346600Y-126196170D01*
X99514480Y-126308344D01*
X99701018Y-126385610D01*
X99899046Y-126425000D01*
X100100954Y-126425000D01*
X100298982Y-126385610D01*
X100485520Y-126308344D01*
X100653400Y-126196170D01*
X100796170Y-126053400D01*
X100908344Y-125885520D01*
X100985610Y-125698982D01*
X101025000Y-125500954D01*
X101025000Y-125299046D01*
X100985610Y-125101018D01*
X100908344Y-124914480D01*
X100796170Y-124746600D01*
X100653400Y-124603830D01*
X100485520Y-124491656D01*
X100298982Y-124414390D01*
X100100954Y-124375000D01*
X99899046Y-124375000D01*
X99701018Y-124414390D01*
X99514480Y-124491656D01*
X99346600Y-124603830D01*
X99205000Y-124745430D01*
X99205000Y-123514570D01*
X99346600Y-123656170D01*
X99514480Y-123768344D01*
X99701018Y-123845610D01*
X99899046Y-123885000D01*
X100100954Y-123885000D01*
X100298982Y-123845610D01*
X100485520Y-123768344D01*
X100653400Y-123656170D01*
X100796170Y-123513400D01*
X100908344Y-123345520D01*
X100985610Y-123158982D01*
X101025000Y-122960954D01*
X101025000Y-122759046D01*
X100985610Y-122561018D01*
X100908344Y-122374480D01*
X100796170Y-122206600D01*
X100653400Y-122063830D01*
X100485520Y-121951656D01*
X100422806Y-121925679D01*
X101250000Y-121925679D01*
X101250000Y-122014321D01*
X101267294Y-122101260D01*
X101301215Y-122183155D01*
X101350462Y-122256858D01*
X101413142Y-122319538D01*
X101486845Y-122368785D01*
X101501850Y-122375000D01*
X101486845Y-122381215D01*
X101413142Y-122430462D01*
X101350462Y-122493142D01*
X101301215Y-122566845D01*
X101267294Y-122648740D01*
X101250000Y-122735679D01*
X101250000Y-122824321D01*
X101267294Y-122911260D01*
X101301215Y-122993155D01*
X101350462Y-123066858D01*
X101413142Y-123129538D01*
X101486845Y-123178785D01*
X101568740Y-123212706D01*
X101655679Y-123230000D01*
X101744321Y-123230000D01*
X101831260Y-123212706D01*
X101913155Y-123178785D01*
X101986858Y-123129538D01*
X102049538Y-123066858D01*
X102098785Y-122993155D01*
X102132706Y-122911260D01*
X102150000Y-122824321D01*
X102150000Y-122735679D01*
X102132706Y-122648740D01*
X102098785Y-122566845D01*
X102049538Y-122493142D01*
X101986858Y-122430462D01*
X101913155Y-122381215D01*
X101898150Y-122375000D01*
X101913155Y-122368785D01*
X101986858Y-122319538D01*
X102049538Y-122256858D01*
X102098785Y-122183155D01*
X102132706Y-122101260D01*
X102150000Y-122014321D01*
X102150000Y-121925679D01*
X102132706Y-121838740D01*
X102098785Y-121756845D01*
X102049538Y-121683142D01*
X101986858Y-121620462D01*
X101913155Y-121571215D01*
X101831260Y-121537294D01*
X101744321Y-121520000D01*
X101655679Y-121520000D01*
X101568740Y-121537294D01*
X101486845Y-121571215D01*
X101413142Y-121620462D01*
X101350462Y-121683142D01*
X101301215Y-121756845D01*
X101267294Y-121838740D01*
X101250000Y-121925679D01*
X100422806Y-121925679D01*
X100298982Y-121874390D01*
X100100954Y-121835000D01*
X99899046Y-121835000D01*
X99701018Y-121874390D01*
X99514480Y-121951656D01*
X99346600Y-122063830D01*
X99205000Y-122205430D01*
X99205000Y-120974570D01*
X99346600Y-121116170D01*
X99514480Y-121228344D01*
X99701018Y-121305610D01*
X99899046Y-121345000D01*
X100100954Y-121345000D01*
X100298982Y-121305610D01*
X100485520Y-121228344D01*
X100653400Y-121116170D01*
X100796170Y-120973400D01*
X100908344Y-120805520D01*
X100985610Y-120618982D01*
X101025000Y-120420954D01*
X101025000Y-120219046D01*
X100985610Y-120021018D01*
X100908344Y-119834480D01*
X100796170Y-119666600D01*
X100653400Y-119523830D01*
X100485520Y-119411656D01*
X100298982Y-119334390D01*
X100100954Y-119295000D01*
X99899046Y-119295000D01*
X99701018Y-119334390D01*
X99514480Y-119411656D01*
X99346600Y-119523830D01*
X99205000Y-119665430D01*
X99205000Y-118434570D01*
X99346600Y-118576170D01*
X99514480Y-118688344D01*
X99701018Y-118765610D01*
X99899046Y-118805000D01*
X100100954Y-118805000D01*
X100298982Y-118765610D01*
X100485520Y-118688344D01*
X100653400Y-118576170D01*
X100796170Y-118433400D01*
X100908344Y-118265520D01*
X100985610Y-118078982D01*
X101025000Y-117880954D01*
X101025000Y-117679046D01*
X100985610Y-117481018D01*
X100908344Y-117294480D01*
X100796170Y-117126600D01*
X100653400Y-116983830D01*
X100485520Y-116871656D01*
X100298982Y-116794390D01*
X100100954Y-116755000D01*
X99899046Y-116755000D01*
X99701018Y-116794390D01*
X99514480Y-116871656D01*
X99346600Y-116983830D01*
X99205000Y-117125430D01*
X99205000Y-115894570D01*
X99346600Y-116036170D01*
X99514480Y-116148344D01*
X99701018Y-116225610D01*
X99899046Y-116265000D01*
X100100954Y-116265000D01*
X100298982Y-116225610D01*
X100485520Y-116148344D01*
X100653400Y-116036170D01*
X100796170Y-115893400D01*
X100908344Y-115725520D01*
X100985610Y-115538982D01*
X101025000Y-115340954D01*
X101025000Y-115139046D01*
X100985610Y-114941018D01*
X100908344Y-114754480D01*
X100796170Y-114586600D01*
X100653400Y-114443830D01*
X100485520Y-114331656D01*
X100298982Y-114254390D01*
X100100954Y-114215000D01*
X99899046Y-114215000D01*
X99701018Y-114254390D01*
X99514480Y-114331656D01*
X99346600Y-114443830D01*
X99205000Y-114585430D01*
X99205000Y-113354570D01*
X99346600Y-113496170D01*
X99514480Y-113608344D01*
X99701018Y-113685610D01*
X99899046Y-113725000D01*
X100100954Y-113725000D01*
X100298982Y-113685610D01*
X100485520Y-113608344D01*
X100653400Y-113496170D01*
X100796170Y-113353400D01*
X100908344Y-113185520D01*
X100985610Y-112998982D01*
X101025000Y-112800954D01*
X101025000Y-112655679D01*
X101210000Y-112655679D01*
X101210000Y-112744321D01*
X101227294Y-112831260D01*
X101261215Y-112913155D01*
X101310462Y-112986858D01*
X101373142Y-113049538D01*
X101446845Y-113098785D01*
X101528740Y-113132706D01*
X101615679Y-113150000D01*
X101704321Y-113150000D01*
X101791260Y-113132706D01*
X101873155Y-113098785D01*
X101946858Y-113049538D01*
X102009538Y-112986858D01*
X102058785Y-112913155D01*
X102092706Y-112831260D01*
X102110000Y-112744321D01*
X102110000Y-112655679D01*
X102092706Y-112568740D01*
X102058785Y-112486845D01*
X102009538Y-112413142D01*
X101946858Y-112350462D01*
X101873155Y-112301215D01*
X101791260Y-112267294D01*
X101704321Y-112250000D01*
X101615679Y-112250000D01*
X101528740Y-112267294D01*
X101446845Y-112301215D01*
X101373142Y-112350462D01*
X101310462Y-112413142D01*
X101261215Y-112486845D01*
X101227294Y-112568740D01*
X101210000Y-112655679D01*
X101025000Y-112655679D01*
X101025000Y-112599046D01*
X100985610Y-112401018D01*
X100908344Y-112214480D01*
X100796170Y-112046600D01*
X100653400Y-111903830D01*
X100485520Y-111791656D01*
X100298982Y-111714390D01*
X100100954Y-111675000D01*
X99899046Y-111675000D01*
X99701018Y-111714390D01*
X99514480Y-111791656D01*
X99346600Y-111903830D01*
X99205000Y-112045430D01*
X99205000Y-110814570D01*
X99346600Y-110956170D01*
X99514480Y-111068344D01*
X99701018Y-111145610D01*
X99899046Y-111185000D01*
X100100954Y-111185000D01*
X100298982Y-111145610D01*
X100485520Y-111068344D01*
X100653400Y-110956170D01*
X100796170Y-110813400D01*
X100908344Y-110645520D01*
X100985610Y-110458982D01*
X101025000Y-110260954D01*
X101025000Y-110059046D01*
X100985610Y-109861018D01*
X100908344Y-109674480D01*
X100796170Y-109506600D01*
X100653400Y-109363830D01*
X100485520Y-109251656D01*
X100298982Y-109174390D01*
X100100954Y-109135000D01*
X99899046Y-109135000D01*
X99701018Y-109174390D01*
X99514480Y-109251656D01*
X99346600Y-109363830D01*
X99205000Y-109505430D01*
X99205000Y-108274570D01*
X99346600Y-108416170D01*
X99514480Y-108528344D01*
X99701018Y-108605610D01*
X99899046Y-108645000D01*
X100100954Y-108645000D01*
X100298982Y-108605610D01*
X100485520Y-108528344D01*
X100653400Y-108416170D01*
X100796170Y-108273400D01*
X100894874Y-108125679D01*
X105480000Y-108125679D01*
X105480000Y-108214321D01*
X105497294Y-108301260D01*
X105531215Y-108383155D01*
X105580462Y-108456858D01*
X105643142Y-108519538D01*
X105716845Y-108568785D01*
X105798740Y-108602706D01*
X105885679Y-108620000D01*
X105974321Y-108620000D01*
X106061260Y-108602706D01*
X106143155Y-108568785D01*
X106216858Y-108519538D01*
X106279538Y-108456858D01*
X106328785Y-108383155D01*
X106362706Y-108301260D01*
X106380000Y-108214321D01*
X106380000Y-108125679D01*
X106362706Y-108038740D01*
X106328785Y-107956845D01*
X106279538Y-107883142D01*
X106216858Y-107820462D01*
X106143155Y-107771215D01*
X106061260Y-107737294D01*
X105974321Y-107720000D01*
X105885679Y-107720000D01*
X105798740Y-107737294D01*
X105716845Y-107771215D01*
X105643142Y-107820462D01*
X105580462Y-107883142D01*
X105531215Y-107956845D01*
X105497294Y-108038740D01*
X105480000Y-108125679D01*
X100894874Y-108125679D01*
X100908344Y-108105520D01*
X100985610Y-107918982D01*
X101025000Y-107720954D01*
X101025000Y-107695679D01*
X106830000Y-107695679D01*
X106830000Y-107784321D01*
X106847294Y-107871260D01*
X106881215Y-107953155D01*
X106930462Y-108026858D01*
X106993142Y-108089538D01*
X107066845Y-108138785D01*
X107148740Y-108172706D01*
X107235679Y-108190000D01*
X107324321Y-108190000D01*
X107411260Y-108172706D01*
X107493155Y-108138785D01*
X107566858Y-108089538D01*
X107629538Y-108026858D01*
X107678785Y-107953155D01*
X107712706Y-107871260D01*
X107730000Y-107784321D01*
X107730000Y-107695679D01*
X107712706Y-107608740D01*
X107678785Y-107526845D01*
X107629538Y-107453142D01*
X107566858Y-107390462D01*
X107493155Y-107341215D01*
X107411260Y-107307294D01*
X107324321Y-107290000D01*
X107235679Y-107290000D01*
X107148740Y-107307294D01*
X107066845Y-107341215D01*
X106993142Y-107390462D01*
X106930462Y-107453142D01*
X106881215Y-107526845D01*
X106847294Y-107608740D01*
X106830000Y-107695679D01*
X101025000Y-107695679D01*
X101025000Y-107519046D01*
X100985610Y-107321018D01*
X100908344Y-107134480D01*
X100796170Y-106966600D01*
X100653400Y-106823830D01*
X100485520Y-106711656D01*
X100298982Y-106634390D01*
X100100954Y-106595000D01*
X99899046Y-106595000D01*
X99701018Y-106634390D01*
X99514480Y-106711656D01*
X99346600Y-106823830D01*
X99205000Y-106965430D01*
X99205000Y-105734570D01*
X99346600Y-105876170D01*
X99514480Y-105988344D01*
X99701018Y-106065610D01*
X99899046Y-106105000D01*
X100100954Y-106105000D01*
X100298982Y-106065610D01*
X100485520Y-105988344D01*
X100653400Y-105876170D01*
X100796170Y-105733400D01*
X100908344Y-105565520D01*
X100985610Y-105378982D01*
X101025000Y-105180954D01*
X101025000Y-104979046D01*
X100985610Y-104781018D01*
X100908344Y-104594480D01*
X100796170Y-104426600D01*
X100653400Y-104283830D01*
X100485520Y-104171656D01*
X100298982Y-104094390D01*
X100100954Y-104055000D01*
X99899046Y-104055000D01*
X99701018Y-104094390D01*
X99514480Y-104171656D01*
X99346600Y-104283830D01*
X99205000Y-104425430D01*
X99205000Y-103194570D01*
X99346600Y-103336170D01*
X99514480Y-103448344D01*
X99701018Y-103525610D01*
X99899046Y-103565000D01*
X100100954Y-103565000D01*
X100298982Y-103525610D01*
X100485520Y-103448344D01*
X100653400Y-103336170D01*
X100796170Y-103193400D01*
X100908344Y-103025520D01*
X100985610Y-102838982D01*
X101025000Y-102640954D01*
X101025000Y-102439046D01*
X100985610Y-102241018D01*
X100908344Y-102054480D01*
X100796170Y-101886600D01*
X100653400Y-101743830D01*
X100485520Y-101631656D01*
X100298982Y-101554390D01*
X100100954Y-101515000D01*
X99899046Y-101515000D01*
X99701018Y-101554390D01*
X99514480Y-101631656D01*
X99346600Y-101743830D01*
X99205000Y-101885430D01*
X99205000Y-100722964D01*
X99347747Y-100722964D01*
X99435769Y-100861663D01*
X99614712Y-100955182D01*
X99808462Y-101011994D01*
X100009573Y-101029917D01*
X100210316Y-101008259D01*
X100402977Y-100947855D01*
X100564231Y-100861663D01*
X100652253Y-100722964D01*
X100000000Y-100070711D01*
X99347747Y-100722964D01*
X99205000Y-100722964D01*
X99205000Y-100606537D01*
X99277036Y-100652253D01*
X99929289Y-100000000D01*
X100070711Y-100000000D01*
X100722964Y-100652253D01*
X100861663Y-100564231D01*
X100955182Y-100385288D01*
X101011994Y-100191538D01*
X101029917Y-99990427D01*
X101029266Y-99984393D01*
X102575000Y-99984393D01*
X102575000Y-100655606D01*
X102585491Y-100762124D01*
X102626947Y-100898787D01*
X102694269Y-101024736D01*
X102784868Y-101135131D01*
X102895263Y-101225731D01*
X103021212Y-101293053D01*
X103157875Y-101334509D01*
X103300000Y-101348507D01*
X103442124Y-101334509D01*
X103578787Y-101293053D01*
X103704736Y-101225731D01*
X103815131Y-101135132D01*
X103905731Y-101024737D01*
X103973053Y-100898788D01*
X104014509Y-100762125D01*
X104025000Y-100655607D01*
X104025000Y-99984393D01*
X111215000Y-99984393D01*
X111215000Y-100655606D01*
X111225491Y-100762124D01*
X111266947Y-100898787D01*
X111334269Y-101024736D01*
X111424868Y-101135131D01*
X111535263Y-101225731D01*
X111661212Y-101293053D01*
X111797875Y-101334509D01*
X111940000Y-101348507D01*
X112082124Y-101334509D01*
X112218787Y-101293053D01*
X112344736Y-101225731D01*
X112455131Y-101135132D01*
X112545731Y-101024737D01*
X112613053Y-100898788D01*
X112654509Y-100762125D01*
X112665000Y-100655607D01*
X112665000Y-99984393D01*
X112654509Y-99877875D01*
X112613053Y-99741212D01*
X112545731Y-99615263D01*
X112455132Y-99504868D01*
X112344737Y-99414269D01*
X112218788Y-99346947D01*
X112082125Y-99305491D01*
X111940000Y-99291493D01*
X111797876Y-99305491D01*
X111661213Y-99346947D01*
X111535264Y-99414269D01*
X111424869Y-99504868D01*
X111334270Y-99615263D01*
X111266947Y-99741212D01*
X111225491Y-99877875D01*
X111215000Y-99984393D01*
X104025000Y-99984393D01*
X104014509Y-99877875D01*
X103973053Y-99741212D01*
X103905731Y-99615263D01*
X103815132Y-99504868D01*
X103704737Y-99414269D01*
X103578788Y-99346947D01*
X103442125Y-99305491D01*
X103300000Y-99291493D01*
X103157876Y-99305491D01*
X103021213Y-99346947D01*
X102895264Y-99414269D01*
X102784869Y-99504868D01*
X102694270Y-99615263D01*
X102626947Y-99741212D01*
X102585491Y-99877875D01*
X102575000Y-99984393D01*
X101029266Y-99984393D01*
X101008259Y-99789684D01*
X100947855Y-99597023D01*
X100861663Y-99435769D01*
X100722964Y-99347747D01*
X100070711Y-100000000D01*
X99929289Y-100000000D01*
X99277036Y-99347747D01*
X99205000Y-99393463D01*
X99205000Y-99253228D01*
X99207710Y-99225587D01*
X99208992Y-99221341D01*
X99211074Y-99217426D01*
X99213877Y-99213990D01*
X99217295Y-99211162D01*
X99221197Y-99209052D01*
X99225429Y-99207742D01*
X99251517Y-99205000D01*
X99393463Y-99205000D01*
X99347747Y-99277036D01*
G37*
G04 #@! TD.AperFunction*
D15*
X111789999Y-124718541D02*
X111790000Y-125595266D01*
X111788549Y-125609999D01*
X111794341Y-125668809D01*
X111811496Y-125725359D01*
X111839352Y-125777476D01*
X111867450Y-125811713D01*
X111876842Y-125823157D01*
X111888284Y-125832547D01*
X112590000Y-126534264D01*
X112590000Y-126604321D01*
X112607294Y-126691260D01*
X112617816Y-126716663D01*
X112584321Y-126710000D01*
X112495679Y-126710000D01*
X112408740Y-126727294D01*
X112326845Y-126761215D01*
X112253142Y-126810462D01*
X112190462Y-126873142D01*
X112141215Y-126946845D01*
X112107294Y-127028740D01*
X112090000Y-127115679D01*
X112090000Y-127204321D01*
X112107294Y-127291260D01*
X112141215Y-127373155D01*
X112190462Y-127446858D01*
X112253142Y-127509538D01*
X112326845Y-127558785D01*
X112408740Y-127592706D01*
X112495679Y-127610000D01*
X112584321Y-127610000D01*
X112671260Y-127592706D01*
X112753155Y-127558785D01*
X112826858Y-127509538D01*
X112889538Y-127446858D01*
X112938785Y-127373155D01*
X112972706Y-127291260D01*
X112990000Y-127204321D01*
X112990000Y-127115679D01*
X112972706Y-127028740D01*
X112962184Y-127003337D01*
X112995679Y-127010000D01*
X113084321Y-127010000D01*
X113171260Y-126992706D01*
X113190002Y-126984943D01*
X113190002Y-128649546D01*
X113188551Y-128664279D01*
X113194343Y-128723089D01*
X113211498Y-128779639D01*
X113239354Y-128831756D01*
X113261118Y-128858275D01*
X113276844Y-128877437D01*
X113288286Y-128886827D01*
X113519999Y-129118541D01*
X113520000Y-129862264D01*
X113496170Y-129826600D01*
X113353400Y-129683830D01*
X113185520Y-129571656D01*
X112998982Y-129494390D01*
X112800954Y-129455000D01*
X112599046Y-129455000D01*
X112401018Y-129494390D01*
X112214480Y-129571656D01*
X112046600Y-129683830D01*
X111903830Y-129826600D01*
X111791656Y-129994480D01*
X111714390Y-130181018D01*
X111713980Y-130183081D01*
X111701190Y-130184341D01*
X111644640Y-130201496D01*
X111620379Y-130214464D01*
X111592522Y-130229353D01*
X111558285Y-130257451D01*
X111546842Y-130266842D01*
X111537451Y-130278285D01*
X111219004Y-130596733D01*
X111181662Y-130597733D01*
X111185000Y-130580954D01*
X111185000Y-130379046D01*
X111145610Y-130181018D01*
X111068766Y-129995498D01*
X111341716Y-129722548D01*
X111353158Y-129713158D01*
X111377227Y-129683830D01*
X111390647Y-129667478D01*
X111408392Y-129634278D01*
X111418504Y-129615360D01*
X111435659Y-129558810D01*
X111440000Y-129514733D01*
X111440000Y-129514724D01*
X111441450Y-129500001D01*
X111440000Y-129485278D01*
X111440000Y-126266396D01*
X111489538Y-126216858D01*
X111538785Y-126143155D01*
X111572706Y-126061260D01*
X111590000Y-125974321D01*
X111590000Y-125885679D01*
X111572706Y-125798740D01*
X111538785Y-125716845D01*
X111489538Y-125643142D01*
X111426858Y-125580462D01*
X111353155Y-125531215D01*
X111271260Y-125497294D01*
X111184321Y-125480000D01*
X111095679Y-125480000D01*
X111008740Y-125497294D01*
X110926845Y-125531215D01*
X110853142Y-125580462D01*
X110790462Y-125643142D01*
X110741215Y-125716845D01*
X110707294Y-125798740D01*
X110690000Y-125885679D01*
X110690000Y-125974321D01*
X110707294Y-126061260D01*
X110741215Y-126143155D01*
X110790462Y-126216858D01*
X110840001Y-126266397D01*
X110840000Y-129375736D01*
X110644502Y-129571234D01*
X110460000Y-129494812D01*
X110460000Y-123388542D01*
X111789999Y-124718541D01*
G04 #@! TA.AperFunction,Conductor*
D17*
G36*
X111789999Y-124718541D02*
G01*
X111790000Y-125595266D01*
X111788549Y-125609999D01*
X111794341Y-125668809D01*
X111811496Y-125725359D01*
X111839352Y-125777476D01*
X111867450Y-125811713D01*
X111876842Y-125823157D01*
X111888284Y-125832547D01*
X112590000Y-126534264D01*
X112590000Y-126604321D01*
X112607294Y-126691260D01*
X112617816Y-126716663D01*
X112584321Y-126710000D01*
X112495679Y-126710000D01*
X112408740Y-126727294D01*
X112326845Y-126761215D01*
X112253142Y-126810462D01*
X112190462Y-126873142D01*
X112141215Y-126946845D01*
X112107294Y-127028740D01*
X112090000Y-127115679D01*
X112090000Y-127204321D01*
X112107294Y-127291260D01*
X112141215Y-127373155D01*
X112190462Y-127446858D01*
X112253142Y-127509538D01*
X112326845Y-127558785D01*
X112408740Y-127592706D01*
X112495679Y-127610000D01*
X112584321Y-127610000D01*
X112671260Y-127592706D01*
X112753155Y-127558785D01*
X112826858Y-127509538D01*
X112889538Y-127446858D01*
X112938785Y-127373155D01*
X112972706Y-127291260D01*
X112990000Y-127204321D01*
X112990000Y-127115679D01*
X112972706Y-127028740D01*
X112962184Y-127003337D01*
X112995679Y-127010000D01*
X113084321Y-127010000D01*
X113171260Y-126992706D01*
X113190002Y-126984943D01*
X113190002Y-128649546D01*
X113188551Y-128664279D01*
X113194343Y-128723089D01*
X113211498Y-128779639D01*
X113239354Y-128831756D01*
X113261118Y-128858275D01*
X113276844Y-128877437D01*
X113288286Y-128886827D01*
X113519999Y-129118541D01*
X113520000Y-129862264D01*
X113496170Y-129826600D01*
X113353400Y-129683830D01*
X113185520Y-129571656D01*
X112998982Y-129494390D01*
X112800954Y-129455000D01*
X112599046Y-129455000D01*
X112401018Y-129494390D01*
X112214480Y-129571656D01*
X112046600Y-129683830D01*
X111903830Y-129826600D01*
X111791656Y-129994480D01*
X111714390Y-130181018D01*
X111713980Y-130183081D01*
X111701190Y-130184341D01*
X111644640Y-130201496D01*
X111620379Y-130214464D01*
X111592522Y-130229353D01*
X111558285Y-130257451D01*
X111546842Y-130266842D01*
X111537451Y-130278285D01*
X111219004Y-130596733D01*
X111181662Y-130597733D01*
X111185000Y-130580954D01*
X111185000Y-130379046D01*
X111145610Y-130181018D01*
X111068766Y-129995498D01*
X111341716Y-129722548D01*
X111353158Y-129713158D01*
X111377227Y-129683830D01*
X111390647Y-129667478D01*
X111408392Y-129634278D01*
X111418504Y-129615360D01*
X111435659Y-129558810D01*
X111440000Y-129514733D01*
X111440000Y-129514724D01*
X111441450Y-129500001D01*
X111440000Y-129485278D01*
X111440000Y-126266396D01*
X111489538Y-126216858D01*
X111538785Y-126143155D01*
X111572706Y-126061260D01*
X111590000Y-125974321D01*
X111590000Y-125885679D01*
X111572706Y-125798740D01*
X111538785Y-125716845D01*
X111489538Y-125643142D01*
X111426858Y-125580462D01*
X111353155Y-125531215D01*
X111271260Y-125497294D01*
X111184321Y-125480000D01*
X111095679Y-125480000D01*
X111008740Y-125497294D01*
X110926845Y-125531215D01*
X110853142Y-125580462D01*
X110790462Y-125643142D01*
X110741215Y-125716845D01*
X110707294Y-125798740D01*
X110690000Y-125885679D01*
X110690000Y-125974321D01*
X110707294Y-126061260D01*
X110741215Y-126143155D01*
X110790462Y-126216858D01*
X110840001Y-126266397D01*
X110840000Y-129375736D01*
X110644502Y-129571234D01*
X110460000Y-129494812D01*
X110460000Y-123388542D01*
X111789999Y-124718541D01*
G37*
G04 #@! TD.AperFunction*
D15*
X102771215Y-114163155D02*
X102820462Y-114236858D01*
X102883142Y-114299538D01*
X102956845Y-114348785D01*
X102991772Y-114363252D01*
X102569999Y-114785026D01*
X102569999Y-114299619D01*
X102752250Y-114117368D01*
X102771215Y-114163155D01*
G04 #@! TA.AperFunction,Conductor*
D17*
G36*
X102771215Y-114163155D02*
G01*
X102820462Y-114236858D01*
X102883142Y-114299538D01*
X102956845Y-114348785D01*
X102991772Y-114363252D01*
X102569999Y-114785026D01*
X102569999Y-114299619D01*
X102752250Y-114117368D01*
X102771215Y-114163155D01*
G37*
G04 #@! TD.AperFunction*
D15*
X105135668Y-112539276D02*
X105106845Y-112551215D01*
X105033142Y-112600462D01*
X104970462Y-112663142D01*
X104921215Y-112736845D01*
X104887294Y-112818740D01*
X104870000Y-112905679D01*
X104870000Y-112994321D01*
X104887294Y-113081260D01*
X104921215Y-113163155D01*
X104942130Y-113194456D01*
X104933142Y-113200462D01*
X104870462Y-113263142D01*
X104864456Y-113272130D01*
X104833155Y-113251215D01*
X104751260Y-113217294D01*
X104664321Y-113200000D01*
X104575679Y-113200000D01*
X104488740Y-113217294D01*
X104469999Y-113225057D01*
X104469999Y-112324974D01*
X104603155Y-112191818D01*
X104761410Y-112168799D01*
X105135668Y-112539276D01*
G04 #@! TA.AperFunction,Conductor*
D17*
G36*
X105135668Y-112539276D02*
G01*
X105106845Y-112551215D01*
X105033142Y-112600462D01*
X104970462Y-112663142D01*
X104921215Y-112736845D01*
X104887294Y-112818740D01*
X104870000Y-112905679D01*
X104870000Y-112994321D01*
X104887294Y-113081260D01*
X104921215Y-113163155D01*
X104942130Y-113194456D01*
X104933142Y-113200462D01*
X104870462Y-113263142D01*
X104864456Y-113272130D01*
X104833155Y-113251215D01*
X104751260Y-113217294D01*
X104664321Y-113200000D01*
X104575679Y-113200000D01*
X104488740Y-113217294D01*
X104469999Y-113225057D01*
X104469999Y-112324974D01*
X104603155Y-112191818D01*
X104761410Y-112168799D01*
X105135668Y-112539276D01*
G37*
G04 #@! TD.AperFunction*
G04 #@! TD*
D15*
G04 #@! TO.N,VCC*
X112918639Y-102810160D02*
X113021134Y-102852697D01*
X113109095Y-102920352D01*
X113176508Y-103008500D01*
X113218762Y-103111111D01*
X113233605Y-103226094D01*
X113226377Y-105849975D01*
X113226992Y-105859764D01*
X113243665Y-105989191D01*
X113248677Y-106008113D01*
X113298272Y-106128818D01*
X113308011Y-106145798D01*
X113387151Y-106249558D01*
X113400952Y-106263440D01*
X113504246Y-106343187D01*
X113521168Y-106353025D01*
X113641580Y-106403329D01*
X113660472Y-106408453D01*
X113789798Y-106425885D01*
X113799583Y-106426557D01*
X116004434Y-106433426D01*
X116035001Y-106437549D01*
X116035001Y-107013463D01*
X115962964Y-106967747D01*
X115310711Y-107620000D01*
X115962964Y-108272253D01*
X116035001Y-108226537D01*
X116035001Y-108811157D01*
X115997997Y-108816091D01*
X112403254Y-108823905D01*
X112288690Y-108809105D01*
X112186408Y-108767088D01*
X112098460Y-108700079D01*
X112030808Y-108612625D01*
X111988044Y-108510655D01*
X111972404Y-108396204D01*
X111972130Y-108342964D01*
X114587747Y-108342964D01*
X114675769Y-108481663D01*
X114854712Y-108575182D01*
X115048462Y-108631994D01*
X115249573Y-108649917D01*
X115450316Y-108628259D01*
X115642977Y-108567855D01*
X115804231Y-108481663D01*
X115892253Y-108342964D01*
X115240000Y-107690711D01*
X114587747Y-108342964D01*
X111972130Y-108342964D01*
X111970397Y-108006793D01*
X112003142Y-108039538D01*
X112076845Y-108088785D01*
X112158740Y-108122706D01*
X112245679Y-108140000D01*
X112334321Y-108140000D01*
X112421260Y-108122706D01*
X112503155Y-108088785D01*
X112576858Y-108039538D01*
X112639538Y-107976858D01*
X112688785Y-107903155D01*
X112722706Y-107821260D01*
X112740000Y-107734321D01*
X112740000Y-107645679D01*
X112736797Y-107629573D01*
X114210083Y-107629573D01*
X114231741Y-107830316D01*
X114292145Y-108022977D01*
X114378337Y-108184231D01*
X114517036Y-108272253D01*
X115169289Y-107620000D01*
X114517036Y-106967747D01*
X114378337Y-107055769D01*
X114284818Y-107234712D01*
X114228006Y-107428462D01*
X114210083Y-107629573D01*
X112736797Y-107629573D01*
X112722706Y-107558740D01*
X112688785Y-107476845D01*
X112639538Y-107403142D01*
X112576858Y-107340462D01*
X112576167Y-107340000D01*
X112576858Y-107339538D01*
X112639538Y-107276858D01*
X112688785Y-107203155D01*
X112722706Y-107121260D01*
X112740000Y-107034321D01*
X112740000Y-106945679D01*
X112730324Y-106897036D01*
X114587747Y-106897036D01*
X115240000Y-107549289D01*
X115892253Y-106897036D01*
X115804231Y-106758337D01*
X115625288Y-106664818D01*
X115431538Y-106608006D01*
X115230427Y-106590083D01*
X115029684Y-106611741D01*
X114837023Y-106672145D01*
X114675769Y-106758337D01*
X114587747Y-106897036D01*
X112730324Y-106897036D01*
X112722706Y-106858740D01*
X112688785Y-106776845D01*
X112639538Y-106703142D01*
X112576858Y-106640462D01*
X112503155Y-106591215D01*
X112421260Y-106557294D01*
X112334321Y-106540000D01*
X112245679Y-106540000D01*
X112158740Y-106557294D01*
X112076845Y-106591215D01*
X112003142Y-106640462D01*
X111940462Y-106703142D01*
X111891215Y-106776845D01*
X111857294Y-106858740D01*
X111840000Y-106945679D01*
X111840000Y-107034321D01*
X111857294Y-107121260D01*
X111862865Y-107134710D01*
X111804770Y-107059403D01*
X111790951Y-107045641D01*
X111687678Y-106966653D01*
X111670778Y-106956920D01*
X111550631Y-106907229D01*
X111531793Y-106902181D01*
X111402897Y-106885147D01*
X111393146Y-106884501D01*
X109763050Y-106882863D01*
X109791175Y-106846286D01*
X109820631Y-106795362D01*
X109870731Y-106674616D01*
X109885979Y-106617801D01*
X109903069Y-106488196D01*
X109905000Y-106458782D01*
X109905000Y-105085606D01*
X111215000Y-105085606D01*
X111225491Y-105192124D01*
X111266947Y-105328787D01*
X111334269Y-105454736D01*
X111424868Y-105565131D01*
X111535263Y-105655731D01*
X111661212Y-105723053D01*
X111797875Y-105764509D01*
X111940000Y-105778507D01*
X112082124Y-105764509D01*
X112218787Y-105723053D01*
X112344736Y-105655731D01*
X112455131Y-105565132D01*
X112545731Y-105454737D01*
X112613053Y-105328788D01*
X112654509Y-105192125D01*
X112665000Y-105085607D01*
X112665000Y-103914393D01*
X112654509Y-103807875D01*
X112613053Y-103671212D01*
X112545731Y-103545263D01*
X112455132Y-103434868D01*
X112344737Y-103344269D01*
X112218788Y-103276947D01*
X112082125Y-103235491D01*
X111940000Y-103221493D01*
X111797876Y-103235491D01*
X111661213Y-103276947D01*
X111535264Y-103344269D01*
X111424869Y-103434868D01*
X111334270Y-103545263D01*
X111266948Y-103671212D01*
X111225492Y-103807875D01*
X111215001Y-103914393D01*
X111215000Y-105085606D01*
X109905000Y-105085606D01*
X109905000Y-104230000D01*
X109903075Y-104200632D01*
X109886038Y-104071222D01*
X109870836Y-104014486D01*
X109829972Y-103915830D01*
X109960000Y-103915830D01*
X109960000Y-104024170D01*
X109981136Y-104130429D01*
X110022597Y-104230523D01*
X110082787Y-104320604D01*
X110159396Y-104397213D01*
X110249477Y-104457403D01*
X110349571Y-104498864D01*
X110455830Y-104520000D01*
X110564170Y-104520000D01*
X110670429Y-104498864D01*
X110770523Y-104457403D01*
X110860604Y-104397213D01*
X110937213Y-104320604D01*
X110997403Y-104230523D01*
X111038864Y-104130429D01*
X111060000Y-104024170D01*
X111060000Y-103915830D01*
X111038864Y-103809571D01*
X110997403Y-103709477D01*
X110937213Y-103619396D01*
X110860604Y-103542787D01*
X110770523Y-103482597D01*
X110670429Y-103441136D01*
X110564170Y-103420000D01*
X110455830Y-103420000D01*
X110349571Y-103441136D01*
X110249477Y-103482597D01*
X110159396Y-103542787D01*
X110082787Y-103619396D01*
X110022597Y-103709477D01*
X109981136Y-103809571D01*
X109960000Y-103915830D01*
X109829972Y-103915830D01*
X109820886Y-103893896D01*
X109791517Y-103843028D01*
X109712057Y-103739475D01*
X109670525Y-103697943D01*
X109566972Y-103618483D01*
X109516104Y-103589114D01*
X109395514Y-103539164D01*
X109338778Y-103523962D01*
X109209368Y-103506925D01*
X109180000Y-103505000D01*
X106070000Y-103505000D01*
X106040632Y-103506925D01*
X105911222Y-103523962D01*
X105854486Y-103539164D01*
X105733896Y-103589114D01*
X105683028Y-103618483D01*
X105579475Y-103697943D01*
X105537943Y-103739475D01*
X105458483Y-103843028D01*
X105429114Y-103893896D01*
X105379164Y-104014486D01*
X105363962Y-104071222D01*
X105346925Y-104200632D01*
X105345000Y-104230000D01*
X105345000Y-106084113D01*
X105278740Y-106097294D01*
X105196845Y-106131215D01*
X105123142Y-106180462D01*
X105060462Y-106243142D01*
X105011215Y-106316845D01*
X104977294Y-106398740D01*
X104960000Y-106485679D01*
X104960000Y-106574321D01*
X104977294Y-106661260D01*
X105011215Y-106743155D01*
X105060462Y-106816858D01*
X105121802Y-106878198D01*
X102444482Y-106875507D01*
X102329827Y-106860305D01*
X102227578Y-106817861D01*
X102139786Y-106750415D01*
X102072428Y-106662555D01*
X102030087Y-106560264D01*
X102015000Y-106445591D01*
X102015000Y-105085606D01*
X102575000Y-105085606D01*
X102585491Y-105192124D01*
X102626947Y-105328787D01*
X102694269Y-105454736D01*
X102784868Y-105565131D01*
X102895263Y-105655731D01*
X103021212Y-105723053D01*
X103157875Y-105764509D01*
X103300000Y-105778507D01*
X103442124Y-105764509D01*
X103578787Y-105723053D01*
X103704736Y-105655731D01*
X103815131Y-105565132D01*
X103905731Y-105454737D01*
X103973053Y-105328788D01*
X104014509Y-105192125D01*
X104025000Y-105085607D01*
X104025000Y-103915830D01*
X104180000Y-103915830D01*
X104180000Y-104024170D01*
X104201136Y-104130429D01*
X104242597Y-104230523D01*
X104302787Y-104320604D01*
X104379396Y-104397213D01*
X104469477Y-104457403D01*
X104569571Y-104498864D01*
X104675830Y-104520000D01*
X104784170Y-104520000D01*
X104890429Y-104498864D01*
X104990523Y-104457403D01*
X105080604Y-104397213D01*
X105157213Y-104320604D01*
X105217403Y-104230523D01*
X105258864Y-104130429D01*
X105280000Y-104024170D01*
X105280000Y-103915830D01*
X105258864Y-103809571D01*
X105217403Y-103709477D01*
X105157213Y-103619396D01*
X105080604Y-103542787D01*
X104990523Y-103482597D01*
X104890429Y-103441136D01*
X104784170Y-103420000D01*
X104675830Y-103420000D01*
X104569571Y-103441136D01*
X104469477Y-103482597D01*
X104379396Y-103542787D01*
X104302787Y-103619396D01*
X104242597Y-103709477D01*
X104201136Y-103809571D01*
X104180000Y-103915830D01*
X104025000Y-103915830D01*
X104025000Y-103914393D01*
X104014509Y-103807875D01*
X103973053Y-103671212D01*
X103905731Y-103545263D01*
X103815132Y-103434868D01*
X103704737Y-103344269D01*
X103578788Y-103276947D01*
X103442125Y-103235491D01*
X103300000Y-103221493D01*
X103157876Y-103235491D01*
X103021213Y-103276947D01*
X102895264Y-103344269D01*
X102784869Y-103434868D01*
X102694270Y-103545263D01*
X102626948Y-103671212D01*
X102585492Y-103807875D01*
X102575001Y-103914393D01*
X102575000Y-105085606D01*
X102015000Y-105085606D01*
X102015000Y-103224912D01*
X102030106Y-103110170D01*
X102072500Y-103007822D01*
X102139937Y-102919937D01*
X102227822Y-102852500D01*
X102330170Y-102810106D01*
X102444912Y-102795000D01*
X112803697Y-102795000D01*
X112918639Y-102810160D01*
G04 #@! TA.AperFunction,Conductor*
D17*
G36*
X112918639Y-102810160D02*
G01*
X113021134Y-102852697D01*
X113109095Y-102920352D01*
X113176508Y-103008500D01*
X113218762Y-103111111D01*
X113233605Y-103226094D01*
X113226377Y-105849975D01*
X113226992Y-105859764D01*
X113243665Y-105989191D01*
X113248677Y-106008113D01*
X113298272Y-106128818D01*
X113308011Y-106145798D01*
X113387151Y-106249558D01*
X113400952Y-106263440D01*
X113504246Y-106343187D01*
X113521168Y-106353025D01*
X113641580Y-106403329D01*
X113660472Y-106408453D01*
X113789798Y-106425885D01*
X113799583Y-106426557D01*
X116004434Y-106433426D01*
X116035001Y-106437549D01*
X116035001Y-107013463D01*
X115962964Y-106967747D01*
X115310711Y-107620000D01*
X115962964Y-108272253D01*
X116035001Y-108226537D01*
X116035001Y-108811157D01*
X115997997Y-108816091D01*
X112403254Y-108823905D01*
X112288690Y-108809105D01*
X112186408Y-108767088D01*
X112098460Y-108700079D01*
X112030808Y-108612625D01*
X111988044Y-108510655D01*
X111972404Y-108396204D01*
X111972130Y-108342964D01*
X114587747Y-108342964D01*
X114675769Y-108481663D01*
X114854712Y-108575182D01*
X115048462Y-108631994D01*
X115249573Y-108649917D01*
X115450316Y-108628259D01*
X115642977Y-108567855D01*
X115804231Y-108481663D01*
X115892253Y-108342964D01*
X115240000Y-107690711D01*
X114587747Y-108342964D01*
X111972130Y-108342964D01*
X111970397Y-108006793D01*
X112003142Y-108039538D01*
X112076845Y-108088785D01*
X112158740Y-108122706D01*
X112245679Y-108140000D01*
X112334321Y-108140000D01*
X112421260Y-108122706D01*
X112503155Y-108088785D01*
X112576858Y-108039538D01*
X112639538Y-107976858D01*
X112688785Y-107903155D01*
X112722706Y-107821260D01*
X112740000Y-107734321D01*
X112740000Y-107645679D01*
X112736797Y-107629573D01*
X114210083Y-107629573D01*
X114231741Y-107830316D01*
X114292145Y-108022977D01*
X114378337Y-108184231D01*
X114517036Y-108272253D01*
X115169289Y-107620000D01*
X114517036Y-106967747D01*
X114378337Y-107055769D01*
X114284818Y-107234712D01*
X114228006Y-107428462D01*
X114210083Y-107629573D01*
X112736797Y-107629573D01*
X112722706Y-107558740D01*
X112688785Y-107476845D01*
X112639538Y-107403142D01*
X112576858Y-107340462D01*
X112576167Y-107340000D01*
X112576858Y-107339538D01*
X112639538Y-107276858D01*
X112688785Y-107203155D01*
X112722706Y-107121260D01*
X112740000Y-107034321D01*
X112740000Y-106945679D01*
X112730324Y-106897036D01*
X114587747Y-106897036D01*
X115240000Y-107549289D01*
X115892253Y-106897036D01*
X115804231Y-106758337D01*
X115625288Y-106664818D01*
X115431538Y-106608006D01*
X115230427Y-106590083D01*
X115029684Y-106611741D01*
X114837023Y-106672145D01*
X114675769Y-106758337D01*
X114587747Y-106897036D01*
X112730324Y-106897036D01*
X112722706Y-106858740D01*
X112688785Y-106776845D01*
X112639538Y-106703142D01*
X112576858Y-106640462D01*
X112503155Y-106591215D01*
X112421260Y-106557294D01*
X112334321Y-106540000D01*
X112245679Y-106540000D01*
X112158740Y-106557294D01*
X112076845Y-106591215D01*
X112003142Y-106640462D01*
X111940462Y-106703142D01*
X111891215Y-106776845D01*
X111857294Y-106858740D01*
X111840000Y-106945679D01*
X111840000Y-107034321D01*
X111857294Y-107121260D01*
X111862865Y-107134710D01*
X111804770Y-107059403D01*
X111790951Y-107045641D01*
X111687678Y-106966653D01*
X111670778Y-106956920D01*
X111550631Y-106907229D01*
X111531793Y-106902181D01*
X111402897Y-106885147D01*
X111393146Y-106884501D01*
X109763050Y-106882863D01*
X109791175Y-106846286D01*
X109820631Y-106795362D01*
X109870731Y-106674616D01*
X109885979Y-106617801D01*
X109903069Y-106488196D01*
X109905000Y-106458782D01*
X109905000Y-105085606D01*
X111215000Y-105085606D01*
X111225491Y-105192124D01*
X111266947Y-105328787D01*
X111334269Y-105454736D01*
X111424868Y-105565131D01*
X111535263Y-105655731D01*
X111661212Y-105723053D01*
X111797875Y-105764509D01*
X111940000Y-105778507D01*
X112082124Y-105764509D01*
X112218787Y-105723053D01*
X112344736Y-105655731D01*
X112455131Y-105565132D01*
X112545731Y-105454737D01*
X112613053Y-105328788D01*
X112654509Y-105192125D01*
X112665000Y-105085607D01*
X112665000Y-103914393D01*
X112654509Y-103807875D01*
X112613053Y-103671212D01*
X112545731Y-103545263D01*
X112455132Y-103434868D01*
X112344737Y-103344269D01*
X112218788Y-103276947D01*
X112082125Y-103235491D01*
X111940000Y-103221493D01*
X111797876Y-103235491D01*
X111661213Y-103276947D01*
X111535264Y-103344269D01*
X111424869Y-103434868D01*
X111334270Y-103545263D01*
X111266948Y-103671212D01*
X111225492Y-103807875D01*
X111215001Y-103914393D01*
X111215000Y-105085606D01*
X109905000Y-105085606D01*
X109905000Y-104230000D01*
X109903075Y-104200632D01*
X109886038Y-104071222D01*
X109870836Y-104014486D01*
X109829972Y-103915830D01*
X109960000Y-103915830D01*
X109960000Y-104024170D01*
X109981136Y-104130429D01*
X110022597Y-104230523D01*
X110082787Y-104320604D01*
X110159396Y-104397213D01*
X110249477Y-104457403D01*
X110349571Y-104498864D01*
X110455830Y-104520000D01*
X110564170Y-104520000D01*
X110670429Y-104498864D01*
X110770523Y-104457403D01*
X110860604Y-104397213D01*
X110937213Y-104320604D01*
X110997403Y-104230523D01*
X111038864Y-104130429D01*
X111060000Y-104024170D01*
X111060000Y-103915830D01*
X111038864Y-103809571D01*
X110997403Y-103709477D01*
X110937213Y-103619396D01*
X110860604Y-103542787D01*
X110770523Y-103482597D01*
X110670429Y-103441136D01*
X110564170Y-103420000D01*
X110455830Y-103420000D01*
X110349571Y-103441136D01*
X110249477Y-103482597D01*
X110159396Y-103542787D01*
X110082787Y-103619396D01*
X110022597Y-103709477D01*
X109981136Y-103809571D01*
X109960000Y-103915830D01*
X109829972Y-103915830D01*
X109820886Y-103893896D01*
X109791517Y-103843028D01*
X109712057Y-103739475D01*
X109670525Y-103697943D01*
X109566972Y-103618483D01*
X109516104Y-103589114D01*
X109395514Y-103539164D01*
X109338778Y-103523962D01*
X109209368Y-103506925D01*
X109180000Y-103505000D01*
X106070000Y-103505000D01*
X106040632Y-103506925D01*
X105911222Y-103523962D01*
X105854486Y-103539164D01*
X105733896Y-103589114D01*
X105683028Y-103618483D01*
X105579475Y-103697943D01*
X105537943Y-103739475D01*
X105458483Y-103843028D01*
X105429114Y-103893896D01*
X105379164Y-104014486D01*
X105363962Y-104071222D01*
X105346925Y-104200632D01*
X105345000Y-104230000D01*
X105345000Y-106084113D01*
X105278740Y-106097294D01*
X105196845Y-106131215D01*
X105123142Y-106180462D01*
X105060462Y-106243142D01*
X105011215Y-106316845D01*
X104977294Y-106398740D01*
X104960000Y-106485679D01*
X104960000Y-106574321D01*
X104977294Y-106661260D01*
X105011215Y-106743155D01*
X105060462Y-106816858D01*
X105121802Y-106878198D01*
X102444482Y-106875507D01*
X102329827Y-106860305D01*
X102227578Y-106817861D01*
X102139786Y-106750415D01*
X102072428Y-106662555D01*
X102030087Y-106560264D01*
X102015000Y-106445591D01*
X102015000Y-105085606D01*
X102575000Y-105085606D01*
X102585491Y-105192124D01*
X102626947Y-105328787D01*
X102694269Y-105454736D01*
X102784868Y-105565131D01*
X102895263Y-105655731D01*
X103021212Y-105723053D01*
X103157875Y-105764509D01*
X103300000Y-105778507D01*
X103442124Y-105764509D01*
X103578787Y-105723053D01*
X103704736Y-105655731D01*
X103815131Y-105565132D01*
X103905731Y-105454737D01*
X103973053Y-105328788D01*
X104014509Y-105192125D01*
X104025000Y-105085607D01*
X104025000Y-103915830D01*
X104180000Y-103915830D01*
X104180000Y-104024170D01*
X104201136Y-104130429D01*
X104242597Y-104230523D01*
X104302787Y-104320604D01*
X104379396Y-104397213D01*
X104469477Y-104457403D01*
X104569571Y-104498864D01*
X104675830Y-104520000D01*
X104784170Y-104520000D01*
X104890429Y-104498864D01*
X104990523Y-104457403D01*
X105080604Y-104397213D01*
X105157213Y-104320604D01*
X105217403Y-104230523D01*
X105258864Y-104130429D01*
X105280000Y-104024170D01*
X105280000Y-103915830D01*
X105258864Y-103809571D01*
X105217403Y-103709477D01*
X105157213Y-103619396D01*
X105080604Y-103542787D01*
X104990523Y-103482597D01*
X104890429Y-103441136D01*
X104784170Y-103420000D01*
X104675830Y-103420000D01*
X104569571Y-103441136D01*
X104469477Y-103482597D01*
X104379396Y-103542787D01*
X104302787Y-103619396D01*
X104242597Y-103709477D01*
X104201136Y-103809571D01*
X104180000Y-103915830D01*
X104025000Y-103915830D01*
X104025000Y-103914393D01*
X104014509Y-103807875D01*
X103973053Y-103671212D01*
X103905731Y-103545263D01*
X103815132Y-103434868D01*
X103704737Y-103344269D01*
X103578788Y-103276947D01*
X103442125Y-103235491D01*
X103300000Y-103221493D01*
X103157876Y-103235491D01*
X103021213Y-103276947D01*
X102895264Y-103344269D01*
X102784869Y-103434868D01*
X102694270Y-103545263D01*
X102626948Y-103671212D01*
X102585492Y-103807875D01*
X102575001Y-103914393D01*
X102575000Y-105085606D01*
X102015000Y-105085606D01*
X102015000Y-103224912D01*
X102030106Y-103110170D01*
X102072500Y-103007822D01*
X102139937Y-102919937D01*
X102227822Y-102852500D01*
X102330170Y-102810106D01*
X102444912Y-102795000D01*
X112803697Y-102795000D01*
X112918639Y-102810160D01*
G37*
G04 #@! TD.AperFunction*
G04 #@! TD*
D15*
G04 #@! TO.N,VBUS*
X109289830Y-103820106D02*
X109392178Y-103862500D01*
X109480063Y-103929937D01*
X109547500Y-104017822D01*
X109589894Y-104120170D01*
X109605000Y-104234912D01*
X109605000Y-106453861D01*
X109589847Y-106568776D01*
X109547326Y-106671256D01*
X109479696Y-106759208D01*
X109391577Y-106826626D01*
X109289001Y-106868895D01*
X109174045Y-106883768D01*
X108988586Y-106883317D01*
X109028785Y-106823155D01*
X109062706Y-106741260D01*
X109080000Y-106654321D01*
X109080000Y-106565679D01*
X109062706Y-106478740D01*
X109028785Y-106396845D01*
X108979538Y-106323142D01*
X108916858Y-106260462D01*
X108843155Y-106211215D01*
X108761260Y-106177294D01*
X108674321Y-106160000D01*
X108585679Y-106160000D01*
X108498740Y-106177294D01*
X108416845Y-106211215D01*
X108343142Y-106260462D01*
X108280462Y-106323142D01*
X108231215Y-106396845D01*
X108197294Y-106478740D01*
X108180000Y-106565679D01*
X108180000Y-106654321D01*
X108197294Y-106741260D01*
X108231215Y-106823155D01*
X108270246Y-106881569D01*
X106073869Y-106876226D01*
X105959339Y-106860888D01*
X105857227Y-106818373D01*
X105792044Y-106768209D01*
X105808785Y-106743155D01*
X105842706Y-106661260D01*
X105860000Y-106574321D01*
X105860000Y-106485679D01*
X105842706Y-106398740D01*
X105808785Y-106316845D01*
X105759538Y-106243142D01*
X105696858Y-106180462D01*
X105645000Y-106145811D01*
X105645000Y-104234912D01*
X105660106Y-104120170D01*
X105702500Y-104017822D01*
X105769937Y-103929937D01*
X105857822Y-103862500D01*
X105960170Y-103820106D01*
X106074912Y-103805000D01*
X109175088Y-103805000D01*
X109289830Y-103820106D01*
G04 #@! TA.AperFunction,Conductor*
D17*
G36*
X109289830Y-103820106D02*
G01*
X109392178Y-103862500D01*
X109480063Y-103929937D01*
X109547500Y-104017822D01*
X109589894Y-104120170D01*
X109605000Y-104234912D01*
X109605000Y-106453861D01*
X109589847Y-106568776D01*
X109547326Y-106671256D01*
X109479696Y-106759208D01*
X109391577Y-106826626D01*
X109289001Y-106868895D01*
X109174045Y-106883768D01*
X108988586Y-106883317D01*
X109028785Y-106823155D01*
X109062706Y-106741260D01*
X109080000Y-106654321D01*
X109080000Y-106565679D01*
X109062706Y-106478740D01*
X109028785Y-106396845D01*
X108979538Y-106323142D01*
X108916858Y-106260462D01*
X108843155Y-106211215D01*
X108761260Y-106177294D01*
X108674321Y-106160000D01*
X108585679Y-106160000D01*
X108498740Y-106177294D01*
X108416845Y-106211215D01*
X108343142Y-106260462D01*
X108280462Y-106323142D01*
X108231215Y-106396845D01*
X108197294Y-106478740D01*
X108180000Y-106565679D01*
X108180000Y-106654321D01*
X108197294Y-106741260D01*
X108231215Y-106823155D01*
X108270246Y-106881569D01*
X106073869Y-106876226D01*
X105959339Y-106860888D01*
X105857227Y-106818373D01*
X105792044Y-106768209D01*
X105808785Y-106743155D01*
X105842706Y-106661260D01*
X105860000Y-106574321D01*
X105860000Y-106485679D01*
X105842706Y-106398740D01*
X105808785Y-106316845D01*
X105759538Y-106243142D01*
X105696858Y-106180462D01*
X105645000Y-106145811D01*
X105645000Y-104234912D01*
X105660106Y-104120170D01*
X105702500Y-104017822D01*
X105769937Y-103929937D01*
X105857822Y-103862500D01*
X105960170Y-103820106D01*
X106074912Y-103805000D01*
X109175088Y-103805000D01*
X109289830Y-103820106D01*
G37*
G04 #@! TD.AperFunction*
G04 #@! TD*
D15*
G04 #@! TO.N,+1V2*
X105951140Y-110356513D02*
X105962295Y-110366090D01*
X105975691Y-110373563D01*
X106011565Y-110389001D01*
X106025575Y-110393461D01*
X106040825Y-110395108D01*
X107923901Y-110404815D01*
X107931681Y-110408093D01*
X108626346Y-111112405D01*
X108626710Y-111112772D01*
X108627228Y-111113290D01*
X108627641Y-111113700D01*
X109751140Y-112219914D01*
X109723155Y-112201215D01*
X109641260Y-112167294D01*
X109554321Y-112150000D01*
X109465679Y-112150000D01*
X109378740Y-112167294D01*
X109296845Y-112201215D01*
X109223142Y-112250462D01*
X109160462Y-112313142D01*
X109111215Y-112386845D01*
X109077294Y-112468740D01*
X109060000Y-112555679D01*
X109060000Y-112640004D01*
X109056103Y-112647294D01*
X109041475Y-112674662D01*
X109024320Y-112731212D01*
X109019979Y-112775289D01*
X109019979Y-112775298D01*
X109018529Y-112790021D01*
X109019979Y-112804744D01*
X109019979Y-113905715D01*
X107030000Y-111915737D01*
X107030000Y-111845679D01*
X107012706Y-111758740D01*
X106978785Y-111676845D01*
X106929538Y-111603142D01*
X106866858Y-111540462D01*
X106793155Y-111491215D01*
X106711260Y-111457294D01*
X106624321Y-111440000D01*
X106535679Y-111440000D01*
X106448740Y-111457294D01*
X106366845Y-111491215D01*
X106293142Y-111540462D01*
X106230462Y-111603142D01*
X106181215Y-111676845D01*
X106147294Y-111758740D01*
X106130000Y-111845679D01*
X106130000Y-111934321D01*
X106147294Y-112021260D01*
X106161193Y-112054817D01*
X106148740Y-112057294D01*
X106066845Y-112091215D01*
X105993142Y-112140462D01*
X105930462Y-112203142D01*
X105881215Y-112276845D01*
X105847294Y-112358740D01*
X105830000Y-112445679D01*
X105830000Y-112515737D01*
X105768296Y-112577441D01*
X105756854Y-112586831D01*
X105747463Y-112598274D01*
X105747462Y-112598275D01*
X105719364Y-112632512D01*
X105697539Y-112673344D01*
X105128327Y-112109882D01*
X105118785Y-112086845D01*
X105069538Y-112013142D01*
X105006858Y-111950462D01*
X104933155Y-111901215D01*
X104904420Y-111889313D01*
X104899062Y-111884961D01*
X104881157Y-111876291D01*
X104838785Y-111862346D01*
X104824436Y-111859141D01*
X104811042Y-111859294D01*
X104764321Y-111850000D01*
X104675679Y-111850000D01*
X104588740Y-111867294D01*
X104521668Y-111895075D01*
X105397624Y-111071240D01*
X105407295Y-111060166D01*
X105415106Y-111046316D01*
X105430851Y-111009820D01*
X105435324Y-110995815D01*
X105436986Y-110980001D01*
X105435276Y-109817201D01*
X105951140Y-110356513D01*
G04 #@! TA.AperFunction,Conductor*
D17*
G36*
X105951140Y-110356513D02*
G01*
X105962295Y-110366090D01*
X105975691Y-110373563D01*
X106011565Y-110389001D01*
X106025575Y-110393461D01*
X106040825Y-110395108D01*
X107923901Y-110404815D01*
X107931681Y-110408093D01*
X108626346Y-111112405D01*
X108626710Y-111112772D01*
X108627228Y-111113290D01*
X108627641Y-111113700D01*
X109751140Y-112219914D01*
X109723155Y-112201215D01*
X109641260Y-112167294D01*
X109554321Y-112150000D01*
X109465679Y-112150000D01*
X109378740Y-112167294D01*
X109296845Y-112201215D01*
X109223142Y-112250462D01*
X109160462Y-112313142D01*
X109111215Y-112386845D01*
X109077294Y-112468740D01*
X109060000Y-112555679D01*
X109060000Y-112640004D01*
X109056103Y-112647294D01*
X109041475Y-112674662D01*
X109024320Y-112731212D01*
X109019979Y-112775289D01*
X109019979Y-112775298D01*
X109018529Y-112790021D01*
X109019979Y-112804744D01*
X109019979Y-113905715D01*
X107030000Y-111915737D01*
X107030000Y-111845679D01*
X107012706Y-111758740D01*
X106978785Y-111676845D01*
X106929538Y-111603142D01*
X106866858Y-111540462D01*
X106793155Y-111491215D01*
X106711260Y-111457294D01*
X106624321Y-111440000D01*
X106535679Y-111440000D01*
X106448740Y-111457294D01*
X106366845Y-111491215D01*
X106293142Y-111540462D01*
X106230462Y-111603142D01*
X106181215Y-111676845D01*
X106147294Y-111758740D01*
X106130000Y-111845679D01*
X106130000Y-111934321D01*
X106147294Y-112021260D01*
X106161193Y-112054817D01*
X106148740Y-112057294D01*
X106066845Y-112091215D01*
X105993142Y-112140462D01*
X105930462Y-112203142D01*
X105881215Y-112276845D01*
X105847294Y-112358740D01*
X105830000Y-112445679D01*
X105830000Y-112515737D01*
X105768296Y-112577441D01*
X105756854Y-112586831D01*
X105747463Y-112598274D01*
X105747462Y-112598275D01*
X105719364Y-112632512D01*
X105697539Y-112673344D01*
X105128327Y-112109882D01*
X105118785Y-112086845D01*
X105069538Y-112013142D01*
X105006858Y-111950462D01*
X104933155Y-111901215D01*
X104904420Y-111889313D01*
X104899062Y-111884961D01*
X104881157Y-111876291D01*
X104838785Y-111862346D01*
X104824436Y-111859141D01*
X104811042Y-111859294D01*
X104764321Y-111850000D01*
X104675679Y-111850000D01*
X104588740Y-111867294D01*
X104521668Y-111895075D01*
X105397624Y-111071240D01*
X105407295Y-111060166D01*
X105415106Y-111046316D01*
X105430851Y-111009820D01*
X105435324Y-110995815D01*
X105436986Y-110980001D01*
X105435276Y-109817201D01*
X105951140Y-110356513D01*
G37*
G04 #@! TD.AperFunction*
D15*
X110417148Y-112875675D02*
X110358740Y-112887294D01*
X110289188Y-112916103D01*
X110268785Y-112866845D01*
X110219538Y-112793142D01*
X110156858Y-112730462D01*
X110083155Y-112681215D01*
X110001260Y-112647294D01*
X109960000Y-112639087D01*
X109960000Y-112555679D01*
X109942706Y-112468740D01*
X109908785Y-112386845D01*
X109885911Y-112352611D01*
X110417148Y-112875675D01*
G04 #@! TA.AperFunction,Conductor*
D17*
G36*
X110417148Y-112875675D02*
G01*
X110358740Y-112887294D01*
X110289188Y-112916103D01*
X110268785Y-112866845D01*
X110219538Y-112793142D01*
X110156858Y-112730462D01*
X110083155Y-112681215D01*
X110001260Y-112647294D01*
X109960000Y-112639087D01*
X109960000Y-112555679D01*
X109942706Y-112468740D01*
X109908785Y-112386845D01*
X109885911Y-112352611D01*
X110417148Y-112875675D01*
G37*
G04 #@! TD.AperFunction*
G04 #@! TD*
D15*
G04 #@! TO.N,GND*
X104171656Y-130965520D02*
X104283830Y-131133400D01*
X104426600Y-131276170D01*
X104594480Y-131388344D01*
X104781018Y-131465610D01*
X104979046Y-131505000D01*
X105180954Y-131505000D01*
X105378982Y-131465610D01*
X105564502Y-131388766D01*
X105977451Y-131801715D01*
X105986842Y-131813158D01*
X105998285Y-131822549D01*
X106032522Y-131850647D01*
X106060049Y-131865360D01*
X106084640Y-131878504D01*
X106141190Y-131895659D01*
X106185267Y-131900000D01*
X106185276Y-131900000D01*
X106199999Y-131901450D01*
X106214722Y-131900000D01*
X108065277Y-131900000D01*
X108080000Y-131901450D01*
X108094723Y-131900000D01*
X108094733Y-131900000D01*
X108138810Y-131895659D01*
X108195360Y-131878504D01*
X108247477Y-131850647D01*
X108293158Y-131813158D01*
X108302553Y-131801710D01*
X108880000Y-131224263D01*
X109467451Y-131811715D01*
X109476842Y-131823158D01*
X109488285Y-131832549D01*
X109488286Y-131832550D01*
X109522522Y-131860647D01*
X109555929Y-131878503D01*
X109574640Y-131888504D01*
X109631190Y-131905659D01*
X109675267Y-131910000D01*
X109675270Y-131910000D01*
X109690000Y-131911451D01*
X109704730Y-131910000D01*
X110615277Y-131910000D01*
X110630000Y-131911450D01*
X110644723Y-131910000D01*
X110644733Y-131910000D01*
X110688810Y-131905659D01*
X110745360Y-131888504D01*
X110797477Y-131860647D01*
X110843158Y-131823158D01*
X110852553Y-131811710D01*
X111764443Y-130899821D01*
X111791656Y-130965520D01*
X111903830Y-131133400D01*
X112046600Y-131276170D01*
X112214480Y-131388344D01*
X112363332Y-131450000D01*
X111444722Y-131450000D01*
X111429999Y-131448550D01*
X111415276Y-131450000D01*
X111415267Y-131450000D01*
X111371190Y-131454341D01*
X111314640Y-131471496D01*
X111290379Y-131484464D01*
X111262522Y-131499353D01*
X111228285Y-131527451D01*
X111216842Y-131536842D01*
X111207451Y-131548285D01*
X110644502Y-132111234D01*
X110458982Y-132034390D01*
X110260954Y-131995000D01*
X110059046Y-131995000D01*
X109861018Y-132034390D01*
X109674480Y-132111656D01*
X109506600Y-132223830D01*
X109363830Y-132366600D01*
X109251656Y-132534480D01*
X109174390Y-132721018D01*
X109135000Y-132919046D01*
X109135000Y-133120954D01*
X109174390Y-133318982D01*
X109251656Y-133505520D01*
X109363830Y-133673400D01*
X109505430Y-133815000D01*
X108226537Y-133815000D01*
X108272253Y-133742964D01*
X107620000Y-133090711D01*
X106967747Y-133742964D01*
X107013463Y-133815000D01*
X105734570Y-133815000D01*
X105876170Y-133673400D01*
X105988344Y-133505520D01*
X106065610Y-133318982D01*
X106105000Y-133120954D01*
X106105000Y-133029573D01*
X106590083Y-133029573D01*
X106611741Y-133230316D01*
X106672145Y-133422977D01*
X106758337Y-133584231D01*
X106897036Y-133672253D01*
X107549289Y-133020000D01*
X107690711Y-133020000D01*
X108342964Y-133672253D01*
X108481663Y-133584231D01*
X108575182Y-133405288D01*
X108631994Y-133211538D01*
X108649917Y-133010427D01*
X108628259Y-132809684D01*
X108567855Y-132617023D01*
X108481663Y-132455769D01*
X108342964Y-132367747D01*
X107690711Y-133020000D01*
X107549289Y-133020000D01*
X106897036Y-132367747D01*
X106758337Y-132455769D01*
X106664818Y-132634712D01*
X106608006Y-132828462D01*
X106590083Y-133029573D01*
X106105000Y-133029573D01*
X106105000Y-132919046D01*
X106065610Y-132721018D01*
X105988344Y-132534480D01*
X105876170Y-132366600D01*
X105806606Y-132297036D01*
X106967747Y-132297036D01*
X107620000Y-132949289D01*
X108272253Y-132297036D01*
X108184231Y-132158337D01*
X108005288Y-132064818D01*
X107811538Y-132008006D01*
X107610427Y-131990083D01*
X107409684Y-132011741D01*
X107217023Y-132072145D01*
X107055769Y-132158337D01*
X106967747Y-132297036D01*
X105806606Y-132297036D01*
X105733400Y-132223830D01*
X105565520Y-132111656D01*
X105378982Y-132034390D01*
X105180954Y-131995000D01*
X104979046Y-131995000D01*
X104781018Y-132034390D01*
X104594480Y-132111656D01*
X104426600Y-132223830D01*
X104283830Y-132366600D01*
X104171656Y-132534480D01*
X104094390Y-132721018D01*
X104055000Y-132919046D01*
X104055000Y-133120954D01*
X104094390Y-133318982D01*
X104171656Y-133505520D01*
X104283830Y-133673400D01*
X104425430Y-133815000D01*
X103194570Y-133815000D01*
X103336170Y-133673400D01*
X103448344Y-133505520D01*
X103525610Y-133318982D01*
X103565000Y-133120954D01*
X103565000Y-132919046D01*
X103525610Y-132721018D01*
X103448766Y-132535498D01*
X104011715Y-131972549D01*
X104023158Y-131963158D01*
X104032549Y-131951715D01*
X104060647Y-131917478D01*
X104088503Y-131865361D01*
X104088504Y-131865360D01*
X104105659Y-131808810D01*
X104110000Y-131764733D01*
X104110000Y-131764724D01*
X104111450Y-131750001D01*
X104110000Y-131735278D01*
X104110000Y-130816668D01*
X104171656Y-130965520D01*
G04 #@! TA.AperFunction,Conductor*
D17*
G36*
X104171656Y-130965520D02*
G01*
X104283830Y-131133400D01*
X104426600Y-131276170D01*
X104594480Y-131388344D01*
X104781018Y-131465610D01*
X104979046Y-131505000D01*
X105180954Y-131505000D01*
X105378982Y-131465610D01*
X105564502Y-131388766D01*
X105977451Y-131801715D01*
X105986842Y-131813158D01*
X105998285Y-131822549D01*
X106032522Y-131850647D01*
X106060049Y-131865360D01*
X106084640Y-131878504D01*
X106141190Y-131895659D01*
X106185267Y-131900000D01*
X106185276Y-131900000D01*
X106199999Y-131901450D01*
X106214722Y-131900000D01*
X108065277Y-131900000D01*
X108080000Y-131901450D01*
X108094723Y-131900000D01*
X108094733Y-131900000D01*
X108138810Y-131895659D01*
X108195360Y-131878504D01*
X108247477Y-131850647D01*
X108293158Y-131813158D01*
X108302553Y-131801710D01*
X108880000Y-131224263D01*
X109467451Y-131811715D01*
X109476842Y-131823158D01*
X109488285Y-131832549D01*
X109488286Y-131832550D01*
X109522522Y-131860647D01*
X109555929Y-131878503D01*
X109574640Y-131888504D01*
X109631190Y-131905659D01*
X109675267Y-131910000D01*
X109675270Y-131910000D01*
X109690000Y-131911451D01*
X109704730Y-131910000D01*
X110615277Y-131910000D01*
X110630000Y-131911450D01*
X110644723Y-131910000D01*
X110644733Y-131910000D01*
X110688810Y-131905659D01*
X110745360Y-131888504D01*
X110797477Y-131860647D01*
X110843158Y-131823158D01*
X110852553Y-131811710D01*
X111764443Y-130899821D01*
X111791656Y-130965520D01*
X111903830Y-131133400D01*
X112046600Y-131276170D01*
X112214480Y-131388344D01*
X112363332Y-131450000D01*
X111444722Y-131450000D01*
X111429999Y-131448550D01*
X111415276Y-131450000D01*
X111415267Y-131450000D01*
X111371190Y-131454341D01*
X111314640Y-131471496D01*
X111290379Y-131484464D01*
X111262522Y-131499353D01*
X111228285Y-131527451D01*
X111216842Y-131536842D01*
X111207451Y-131548285D01*
X110644502Y-132111234D01*
X110458982Y-132034390D01*
X110260954Y-131995000D01*
X110059046Y-131995000D01*
X109861018Y-132034390D01*
X109674480Y-132111656D01*
X109506600Y-132223830D01*
X109363830Y-132366600D01*
X109251656Y-132534480D01*
X109174390Y-132721018D01*
X109135000Y-132919046D01*
X109135000Y-133120954D01*
X109174390Y-133318982D01*
X109251656Y-133505520D01*
X109363830Y-133673400D01*
X109505430Y-133815000D01*
X108226537Y-133815000D01*
X108272253Y-133742964D01*
X107620000Y-133090711D01*
X106967747Y-133742964D01*
X107013463Y-133815000D01*
X105734570Y-133815000D01*
X105876170Y-133673400D01*
X105988344Y-133505520D01*
X106065610Y-133318982D01*
X106105000Y-133120954D01*
X106105000Y-133029573D01*
X106590083Y-133029573D01*
X106611741Y-133230316D01*
X106672145Y-133422977D01*
X106758337Y-133584231D01*
X106897036Y-133672253D01*
X107549289Y-133020000D01*
X107690711Y-133020000D01*
X108342964Y-133672253D01*
X108481663Y-133584231D01*
X108575182Y-133405288D01*
X108631994Y-133211538D01*
X108649917Y-133010427D01*
X108628259Y-132809684D01*
X108567855Y-132617023D01*
X108481663Y-132455769D01*
X108342964Y-132367747D01*
X107690711Y-133020000D01*
X107549289Y-133020000D01*
X106897036Y-132367747D01*
X106758337Y-132455769D01*
X106664818Y-132634712D01*
X106608006Y-132828462D01*
X106590083Y-133029573D01*
X106105000Y-133029573D01*
X106105000Y-132919046D01*
X106065610Y-132721018D01*
X105988344Y-132534480D01*
X105876170Y-132366600D01*
X105806606Y-132297036D01*
X106967747Y-132297036D01*
X107620000Y-132949289D01*
X108272253Y-132297036D01*
X108184231Y-132158337D01*
X108005288Y-132064818D01*
X107811538Y-132008006D01*
X107610427Y-131990083D01*
X107409684Y-132011741D01*
X107217023Y-132072145D01*
X107055769Y-132158337D01*
X106967747Y-132297036D01*
X105806606Y-132297036D01*
X105733400Y-132223830D01*
X105565520Y-132111656D01*
X105378982Y-132034390D01*
X105180954Y-131995000D01*
X104979046Y-131995000D01*
X104781018Y-132034390D01*
X104594480Y-132111656D01*
X104426600Y-132223830D01*
X104283830Y-132366600D01*
X104171656Y-132534480D01*
X104094390Y-132721018D01*
X104055000Y-132919046D01*
X104055000Y-133120954D01*
X104094390Y-133318982D01*
X104171656Y-133505520D01*
X104283830Y-133673400D01*
X104425430Y-133815000D01*
X103194570Y-133815000D01*
X103336170Y-133673400D01*
X103448344Y-133505520D01*
X103525610Y-133318982D01*
X103565000Y-133120954D01*
X103565000Y-132919046D01*
X103525610Y-132721018D01*
X103448766Y-132535498D01*
X104011715Y-131972549D01*
X104023158Y-131963158D01*
X104032549Y-131951715D01*
X104060647Y-131917478D01*
X104088503Y-131865361D01*
X104088504Y-131865360D01*
X104105659Y-131808810D01*
X104110000Y-131764733D01*
X104110000Y-131764724D01*
X104111450Y-131750001D01*
X104110000Y-131735278D01*
X104110000Y-130816668D01*
X104171656Y-130965520D01*
G37*
G04 #@! TD.AperFunction*
D15*
X106711234Y-129995499D02*
X106634390Y-130181018D01*
X106595000Y-130379046D01*
X106595000Y-130580954D01*
X106634390Y-130778982D01*
X106711656Y-130965520D01*
X106823830Y-131133400D01*
X106966600Y-131276170D01*
X107002264Y-131300000D01*
X106324264Y-131300000D01*
X105988766Y-130964502D01*
X106065610Y-130778982D01*
X106105000Y-130580954D01*
X106105000Y-130379046D01*
X106065610Y-130181018D01*
X105988344Y-129994480D01*
X105876170Y-129826600D01*
X105733400Y-129683830D01*
X105565520Y-129571656D01*
X105378982Y-129494390D01*
X105180954Y-129455000D01*
X104979046Y-129455000D01*
X104781018Y-129494390D01*
X104594480Y-129571656D01*
X104426600Y-129683830D01*
X104283830Y-129826600D01*
X104171656Y-129994480D01*
X104110000Y-130143332D01*
X104110000Y-129758541D01*
X104991710Y-128876833D01*
X105003147Y-128867447D01*
X105012533Y-128856010D01*
X105012539Y-128856004D01*
X105040636Y-128821767D01*
X105068493Y-128769650D01*
X105079994Y-128731736D01*
X105085648Y-128713099D01*
X105089989Y-128669022D01*
X105089989Y-128669019D01*
X105091440Y-128654289D01*
X105089989Y-128639559D01*
X105089989Y-128374252D01*
X106711234Y-129995499D01*
G04 #@! TA.AperFunction,Conductor*
D17*
G36*
X106711234Y-129995499D02*
G01*
X106634390Y-130181018D01*
X106595000Y-130379046D01*
X106595000Y-130580954D01*
X106634390Y-130778982D01*
X106711656Y-130965520D01*
X106823830Y-131133400D01*
X106966600Y-131276170D01*
X107002264Y-131300000D01*
X106324264Y-131300000D01*
X105988766Y-130964502D01*
X106065610Y-130778982D01*
X106105000Y-130580954D01*
X106105000Y-130379046D01*
X106065610Y-130181018D01*
X105988344Y-129994480D01*
X105876170Y-129826600D01*
X105733400Y-129683830D01*
X105565520Y-129571656D01*
X105378982Y-129494390D01*
X105180954Y-129455000D01*
X104979046Y-129455000D01*
X104781018Y-129494390D01*
X104594480Y-129571656D01*
X104426600Y-129683830D01*
X104283830Y-129826600D01*
X104171656Y-129994480D01*
X104110000Y-130143332D01*
X104110000Y-129758541D01*
X104991710Y-128876833D01*
X105003147Y-128867447D01*
X105012533Y-128856010D01*
X105012539Y-128856004D01*
X105040636Y-128821767D01*
X105068493Y-128769650D01*
X105079994Y-128731736D01*
X105085648Y-128713099D01*
X105089989Y-128669022D01*
X105089989Y-128669019D01*
X105091440Y-128654289D01*
X105089989Y-128639559D01*
X105089989Y-128374252D01*
X106711234Y-129995499D01*
G37*
G04 #@! TD.AperFunction*
D15*
X108570001Y-114304265D02*
X108570000Y-115625277D01*
X108568550Y-115640000D01*
X108570000Y-115654723D01*
X108570000Y-115654732D01*
X108574341Y-115698809D01*
X108591496Y-115755359D01*
X108601630Y-115774318D01*
X108619353Y-115807477D01*
X108627601Y-115817527D01*
X108656842Y-115853158D01*
X108668290Y-115862553D01*
X109800001Y-116994266D01*
X109800000Y-117215736D01*
X108038285Y-118977451D01*
X108026843Y-118986842D01*
X108017452Y-118998285D01*
X108017451Y-118998286D01*
X107989353Y-119032523D01*
X107961497Y-119084640D01*
X107944342Y-119141190D01*
X107938550Y-119200000D01*
X107940001Y-119214733D01*
X107940000Y-121295277D01*
X107938550Y-121310000D01*
X107940000Y-121324723D01*
X107940000Y-121324732D01*
X107944341Y-121368809D01*
X107961496Y-121425359D01*
X107973686Y-121448165D01*
X107989353Y-121477477D01*
X108006358Y-121498198D01*
X108026842Y-121523158D01*
X108038290Y-121532553D01*
X109009000Y-122503264D01*
X108988740Y-122507294D01*
X108906845Y-122541215D01*
X108833142Y-122590462D01*
X108820000Y-122603604D01*
X108806858Y-122590462D01*
X108733155Y-122541215D01*
X108651260Y-122507294D01*
X108564321Y-122490000D01*
X108475679Y-122490000D01*
X108388740Y-122507294D01*
X108306845Y-122541215D01*
X108233142Y-122590462D01*
X108170462Y-122653142D01*
X108121215Y-122726845D01*
X108087294Y-122808740D01*
X108070000Y-122895679D01*
X108070000Y-122984321D01*
X108087294Y-123071260D01*
X108121215Y-123153155D01*
X108170462Y-123226858D01*
X108233142Y-123289538D01*
X108306845Y-123338785D01*
X108388740Y-123372706D01*
X108475679Y-123390000D01*
X108564321Y-123390000D01*
X108651260Y-123372706D01*
X108733155Y-123338785D01*
X108806858Y-123289538D01*
X108820000Y-123276396D01*
X108833142Y-123289538D01*
X108906845Y-123338785D01*
X108988740Y-123372706D01*
X109075679Y-123390000D01*
X109164321Y-123390000D01*
X109251260Y-123372706D01*
X109333155Y-123338785D01*
X109406858Y-123289538D01*
X109469538Y-123226858D01*
X109518785Y-123153155D01*
X109552706Y-123071260D01*
X109556736Y-123051000D01*
X109860001Y-123354265D01*
X109860000Y-129494812D01*
X109674480Y-129571656D01*
X109506600Y-129683830D01*
X109363830Y-129826600D01*
X109339257Y-129863375D01*
X109335667Y-129826920D01*
X109318512Y-129770370D01*
X109290656Y-129718253D01*
X109262558Y-129684016D01*
X109262552Y-129684010D01*
X109253166Y-129672573D01*
X109241729Y-129663187D01*
X108436821Y-128858280D01*
X108427426Y-128846832D01*
X108381745Y-128809343D01*
X108329628Y-128781486D01*
X108273078Y-128764331D01*
X108229001Y-128759990D01*
X108228991Y-128759990D01*
X108214268Y-128758540D01*
X108199545Y-128759990D01*
X107172810Y-128759990D01*
X106000000Y-127587181D01*
X106000000Y-124378541D01*
X106630284Y-123748258D01*
X106653155Y-123738785D01*
X106726858Y-123689538D01*
X106789538Y-123626858D01*
X106838785Y-123553155D01*
X106872706Y-123471260D01*
X106890000Y-123384321D01*
X106890000Y-123295679D01*
X106872706Y-123208740D01*
X106838785Y-123126845D01*
X106789538Y-123053142D01*
X106726858Y-122990462D01*
X106653155Y-122941215D01*
X106597493Y-122918160D01*
X106619974Y-122895679D01*
X107080000Y-122895679D01*
X107080000Y-122984321D01*
X107097294Y-123071260D01*
X107131215Y-123153155D01*
X107180462Y-123226858D01*
X107243142Y-123289538D01*
X107316845Y-123338785D01*
X107398740Y-123372706D01*
X107485679Y-123390000D01*
X107574321Y-123390000D01*
X107661260Y-123372706D01*
X107743155Y-123338785D01*
X107816858Y-123289538D01*
X107879538Y-123226858D01*
X107928785Y-123153155D01*
X107962706Y-123071260D01*
X107980000Y-122984321D01*
X107980000Y-122895679D01*
X107962706Y-122808740D01*
X107928785Y-122726845D01*
X107879538Y-122653142D01*
X107816858Y-122590462D01*
X107743155Y-122541215D01*
X107661260Y-122507294D01*
X107574321Y-122490000D01*
X107485679Y-122490000D01*
X107398740Y-122507294D01*
X107316845Y-122541215D01*
X107243142Y-122590462D01*
X107180462Y-122653142D01*
X107131215Y-122726845D01*
X107097294Y-122808740D01*
X107080000Y-122895679D01*
X106619974Y-122895679D01*
X107711764Y-121803890D01*
X107723205Y-121794501D01*
X107752729Y-121758526D01*
X107760694Y-121748821D01*
X107782661Y-121707722D01*
X107788551Y-121696703D01*
X107805706Y-121640153D01*
X107810047Y-121596076D01*
X107810047Y-121596067D01*
X107811497Y-121581344D01*
X107810047Y-121566621D01*
X107810047Y-119974381D01*
X107811497Y-119959658D01*
X107810047Y-119944935D01*
X107810047Y-119944926D01*
X107805706Y-119900849D01*
X107788551Y-119844299D01*
X107770361Y-119810268D01*
X107760694Y-119792181D01*
X107732596Y-119757944D01*
X107723205Y-119746501D01*
X107711762Y-119737110D01*
X105269990Y-117295339D01*
X105269990Y-116271385D01*
X106171730Y-115369646D01*
X106183167Y-115360260D01*
X106192553Y-115348823D01*
X106192559Y-115348817D01*
X106220657Y-115314580D01*
X106248514Y-115262463D01*
X106265668Y-115205912D01*
X106271461Y-115147102D01*
X106270009Y-115132362D01*
X106270011Y-112940000D01*
X106324321Y-112940000D01*
X106411260Y-112922706D01*
X106493155Y-112888785D01*
X106566858Y-112839538D01*
X106629538Y-112776858D01*
X106678785Y-112703155D01*
X106712706Y-112621260D01*
X106730000Y-112534321D01*
X106730000Y-112485000D01*
X106750737Y-112485000D01*
X108570001Y-114304265D01*
G04 #@! TA.AperFunction,Conductor*
D17*
G36*
X108570001Y-114304265D02*
G01*
X108570000Y-115625277D01*
X108568550Y-115640000D01*
X108570000Y-115654723D01*
X108570000Y-115654732D01*
X108574341Y-115698809D01*
X108591496Y-115755359D01*
X108601630Y-115774318D01*
X108619353Y-115807477D01*
X108627601Y-115817527D01*
X108656842Y-115853158D01*
X108668290Y-115862553D01*
X109800001Y-116994266D01*
X109800000Y-117215736D01*
X108038285Y-118977451D01*
X108026843Y-118986842D01*
X108017452Y-118998285D01*
X108017451Y-118998286D01*
X107989353Y-119032523D01*
X107961497Y-119084640D01*
X107944342Y-119141190D01*
X107938550Y-119200000D01*
X107940001Y-119214733D01*
X107940000Y-121295277D01*
X107938550Y-121310000D01*
X107940000Y-121324723D01*
X107940000Y-121324732D01*
X107944341Y-121368809D01*
X107961496Y-121425359D01*
X107973686Y-121448165D01*
X107989353Y-121477477D01*
X108006358Y-121498198D01*
X108026842Y-121523158D01*
X108038290Y-121532553D01*
X109009000Y-122503264D01*
X108988740Y-122507294D01*
X108906845Y-122541215D01*
X108833142Y-122590462D01*
X108820000Y-122603604D01*
X108806858Y-122590462D01*
X108733155Y-122541215D01*
X108651260Y-122507294D01*
X108564321Y-122490000D01*
X108475679Y-122490000D01*
X108388740Y-122507294D01*
X108306845Y-122541215D01*
X108233142Y-122590462D01*
X108170462Y-122653142D01*
X108121215Y-122726845D01*
X108087294Y-122808740D01*
X108070000Y-122895679D01*
X108070000Y-122984321D01*
X108087294Y-123071260D01*
X108121215Y-123153155D01*
X108170462Y-123226858D01*
X108233142Y-123289538D01*
X108306845Y-123338785D01*
X108388740Y-123372706D01*
X108475679Y-123390000D01*
X108564321Y-123390000D01*
X108651260Y-123372706D01*
X108733155Y-123338785D01*
X108806858Y-123289538D01*
X108820000Y-123276396D01*
X108833142Y-123289538D01*
X108906845Y-123338785D01*
X108988740Y-123372706D01*
X109075679Y-123390000D01*
X109164321Y-123390000D01*
X109251260Y-123372706D01*
X109333155Y-123338785D01*
X109406858Y-123289538D01*
X109469538Y-123226858D01*
X109518785Y-123153155D01*
X109552706Y-123071260D01*
X109556736Y-123051000D01*
X109860001Y-123354265D01*
X109860000Y-129494812D01*
X109674480Y-129571656D01*
X109506600Y-129683830D01*
X109363830Y-129826600D01*
X109339257Y-129863375D01*
X109335667Y-129826920D01*
X109318512Y-129770370D01*
X109290656Y-129718253D01*
X109262558Y-129684016D01*
X109262552Y-129684010D01*
X109253166Y-129672573D01*
X109241729Y-129663187D01*
X108436821Y-128858280D01*
X108427426Y-128846832D01*
X108381745Y-128809343D01*
X108329628Y-128781486D01*
X108273078Y-128764331D01*
X108229001Y-128759990D01*
X108228991Y-128759990D01*
X108214268Y-128758540D01*
X108199545Y-128759990D01*
X107172810Y-128759990D01*
X106000000Y-127587181D01*
X106000000Y-124378541D01*
X106630284Y-123748258D01*
X106653155Y-123738785D01*
X106726858Y-123689538D01*
X106789538Y-123626858D01*
X106838785Y-123553155D01*
X106872706Y-123471260D01*
X106890000Y-123384321D01*
X106890000Y-123295679D01*
X106872706Y-123208740D01*
X106838785Y-123126845D01*
X106789538Y-123053142D01*
X106726858Y-122990462D01*
X106653155Y-122941215D01*
X106597493Y-122918160D01*
X106619974Y-122895679D01*
X107080000Y-122895679D01*
X107080000Y-122984321D01*
X107097294Y-123071260D01*
X107131215Y-123153155D01*
X107180462Y-123226858D01*
X107243142Y-123289538D01*
X107316845Y-123338785D01*
X107398740Y-123372706D01*
X107485679Y-123390000D01*
X107574321Y-123390000D01*
X107661260Y-123372706D01*
X107743155Y-123338785D01*
X107816858Y-123289538D01*
X107879538Y-123226858D01*
X107928785Y-123153155D01*
X107962706Y-123071260D01*
X107980000Y-122984321D01*
X107980000Y-122895679D01*
X107962706Y-122808740D01*
X107928785Y-122726845D01*
X107879538Y-122653142D01*
X107816858Y-122590462D01*
X107743155Y-122541215D01*
X107661260Y-122507294D01*
X107574321Y-122490000D01*
X107485679Y-122490000D01*
X107398740Y-122507294D01*
X107316845Y-122541215D01*
X107243142Y-122590462D01*
X107180462Y-122653142D01*
X107131215Y-122726845D01*
X107097294Y-122808740D01*
X107080000Y-122895679D01*
X106619974Y-122895679D01*
X107711764Y-121803890D01*
X107723205Y-121794501D01*
X107752729Y-121758526D01*
X107760694Y-121748821D01*
X107782661Y-121707722D01*
X107788551Y-121696703D01*
X107805706Y-121640153D01*
X107810047Y-121596076D01*
X107810047Y-121596067D01*
X107811497Y-121581344D01*
X107810047Y-121566621D01*
X107810047Y-119974381D01*
X107811497Y-119959658D01*
X107810047Y-119944935D01*
X107810047Y-119944926D01*
X107805706Y-119900849D01*
X107788551Y-119844299D01*
X107770361Y-119810268D01*
X107760694Y-119792181D01*
X107732596Y-119757944D01*
X107723205Y-119746501D01*
X107711762Y-119737110D01*
X105269990Y-117295339D01*
X105269990Y-116271385D01*
X106171730Y-115369646D01*
X106183167Y-115360260D01*
X106192553Y-115348823D01*
X106192559Y-115348817D01*
X106220657Y-115314580D01*
X106248514Y-115262463D01*
X106265668Y-115205912D01*
X106271461Y-115147102D01*
X106270009Y-115132362D01*
X106270011Y-112940000D01*
X106324321Y-112940000D01*
X106411260Y-112922706D01*
X106493155Y-112888785D01*
X106566858Y-112839538D01*
X106629538Y-112776858D01*
X106678785Y-112703155D01*
X106712706Y-112621260D01*
X106730000Y-112534321D01*
X106730000Y-112485000D01*
X106750737Y-112485000D01*
X108570001Y-114304265D01*
G37*
G04 #@! TD.AperFunction*
G04 #@! TD*
M02*
